<?xml version="1.0" encoding="UTF-8" standalone="no"?>
<!DOCTYPE svg PUBLIC "-//W3C//DTD SVG 1.1//EN"
 "http://www.w3.org/Graphics/SVG/1.1/DTD/svg11.dtd">
<!-- Generated by graphviz version 2.49.0 (0)
 -->
<!-- Title: Trace Pages: 1 -->
<svg width="2874pt" height="1228pt"
 viewBox="0.00 0.00 2874.00 1228.00" xmlns="http://www.w3.org/2000/svg" xmlns:xlink="http://www.w3.org/1999/xlink">
<g id="graph0" class="graph" transform="scale(1 1) rotate(0) translate(4 1224)">
<title>Trace</title>
<polygon fill="white" stroke="transparent" points="-4,4 -4,-1224 2870,-1224 2870,4 -4,4"/>
<g id="clust1" class="cluster">
<title>cluster0</title>
<polygon fill="none" stroke="transparent" points="8,-656 8,-1212 1085,-1212 1085,-656 8,-656"/>
</g>
<g id="clust2" class="cluster">
<title>cluster1</title>
<polygon fill="none" stroke="transparent" points="1093,-944 1093,-1212 1571,-1212 1571,-944 1093,-944"/>
</g>
<g id="clust3" class="cluster">
<title>cluster2</title>
<polygon fill="none" stroke="transparent" points="1579,-1160 1579,-1212 1773,-1212 1773,-1160 1579,-1160"/>
</g>
<g id="clust4" class="cluster">
<title>cluster3</title>
<polygon fill="none" stroke="transparent" points="1781,-8 1781,-1212 2858,-1212 2858,-8 1781,-8"/>
</g>
<!-- f_0_3952193446 -->
<g id="node1" class="node">
<title>f_0_3952193446</title>
<text text-anchor="middle" x="510" y="-1182.3" font-family="Latin Modern Roman" font-size="14.00">fn_client_hello</text>
</g>
<!-- f_0_943367944 -->
<g id="node2" class="node">
<title>f_0_943367944</title>
<text text-anchor="middle" x="100" y="-1110.3" font-family="Latin Modern Roman" font-size="14.00">fn_protocol_version12</text>
</g>
<!-- f_0_3952193446&#45;&gt;f_0_943367944 -->
<g id="edge1" class="edge">
<title>f_0_3952193446&#45;&gt;f_0_943367944</title>
<path fill="none" stroke="black" d="M452.13,-1175.12C385.24,-1163.7 274.17,-1144.74 194.66,-1131.16"/>
<polygon fill="black" stroke="black" points="195.08,-1127.68 184.63,-1129.45 193.9,-1134.58 195.08,-1127.68"/>
</g>
<!-- f_0_4010368838 -->
<g id="node3" class="node">
<title>f_0_4010368838</title>
<text text-anchor="middle" x="266" y="-1110.3" font-family="Latin Modern Roman" font-size="14.00">fn_new_random</text>
</g>
<!-- f_0_3952193446&#45;&gt;f_0_4010368838 -->
<g id="edge2" class="edge">
<title>f_0_3952193446&#45;&gt;f_0_4010368838</title>
<path fill="none" stroke="black" d="M452.48,-1168.5C417.43,-1158.44 372.42,-1145.53 335.4,-1134.91"/>
<polygon fill="black" stroke="black" points="336.25,-1131.51 325.68,-1132.12 334.32,-1138.24 336.25,-1131.51"/>
</g>
<!-- f_0_726878526 -->
<g id="node4" class="node">
<title>f_0_726878526</title>
<text text-anchor="middle" x="420" y="-1110.3" font-family="Latin Modern Roman" font-size="14.00">fn_new_session_id</text>
</g>
<!-- f_0_3952193446&#45;&gt;f_0_726878526 -->
<g id="edge3" class="edge">
<title>f_0_3952193446&#45;&gt;f_0_726878526</title>
<path fill="none" stroke="black" d="M487.75,-1167.7C476.42,-1158.88 462.47,-1148.03 450.18,-1138.47"/>
<polygon fill="black" stroke="black" points="452.03,-1135.48 441.99,-1132.1 447.74,-1141.01 452.03,-1135.48"/>
</g>
<!-- f_0_1263123302 -->
<g id="node5" class="node">
<title>f_0_1263123302</title>
<text text-anchor="middle" x="601" y="-1110.3" font-family="Latin Modern Roman" font-size="14.00">fn_append_cipher_suite</text>
</g>
<!-- f_0_3952193446&#45;&gt;f_0_1263123302 -->
<g id="edge4" class="edge">
<title>f_0_3952193446&#45;&gt;f_0_1263123302</title>
<path fill="none" stroke="black" d="M532.49,-1167.7C543.96,-1158.88 558.06,-1148.03 570.48,-1138.47"/>
<polygon fill="black" stroke="black" points="572.97,-1140.98 578.76,-1132.1 568.7,-1135.43 572.97,-1140.98"/>
</g>
<!-- f_0_741264532 -->
<g id="node8" class="node">
<title>f_0_741264532</title>
<text text-anchor="middle" x="776" y="-1110.3" font-family="Latin Modern Roman" font-size="14.00">fn_compressions</text>
</g>
<!-- f_0_3952193446&#45;&gt;f_0_741264532 -->
<g id="edge7" class="edge">
<title>f_0_3952193446&#45;&gt;f_0_741264532</title>
<path fill="none" stroke="black" d="M567.72,-1169.81C606.98,-1159.48 659.3,-1145.71 701.68,-1134.56"/>
<polygon fill="black" stroke="black" points="702.61,-1137.93 711.39,-1132 700.83,-1131.16 702.61,-1137.93"/>
</g>
<!-- f_0_3047738558 -->
<g id="node9" class="node">
<title>f_0_3047738558</title>
<text text-anchor="middle" x="969" y="-1110.3" font-family="Latin Modern Roman" font-size="14.00">fn_client_extensions_append</text>
</g>
<!-- f_0_3952193446&#45;&gt;f_0_3047738558 -->
<g id="edge8" class="edge">
<title>f_0_3952193446&#45;&gt;f_0_3047738558</title>
<path fill="none" stroke="black" d="M567.67,-1176.21C638.34,-1165.43 759.86,-1146.89 850.72,-1133.04"/>
<polygon fill="black" stroke="black" points="851.44,-1136.47 860.8,-1131.5 850.39,-1129.55 851.44,-1136.47"/>
</g>
<!-- f_0_1343717958 -->
<g id="node6" class="node">
<title>f_0_1343717958</title>
<text text-anchor="middle" x="301" y="-1038.3" font-family="Latin Modern Roman" font-size="14.00">fn_new_cipher_suites</text>
</g>
<!-- f_0_1263123302&#45;&gt;f_0_1343717958 -->
<g id="edge5" class="edge">
<title>f_0_1263123302&#45;&gt;f_0_1343717958</title>
<path fill="none" stroke="black" d="M528,-1095.97C484.45,-1085.8 429.02,-1072.87 383.84,-1062.33"/>
<polygon fill="black" stroke="black" points="384.61,-1058.91 374.07,-1060.05 383.01,-1065.73 384.61,-1058.91"/>
</g>
<!-- f_0_543115915 -->
<g id="node7" class="node">
<title>f_0_543115915</title>
<text text-anchor="middle" x="471" y="-1038.3" font-family="Latin Modern Roman" font-size="14.00">fn_cipher_suite12</text>
</g>
<!-- f_0_1263123302&#45;&gt;f_0_543115915 -->
<g id="edge6" class="edge">
<title>f_0_1263123302&#45;&gt;f_0_543115915</title>
<path fill="none" stroke="black" d="M569.2,-1095.88C551.89,-1086.55 530.28,-1074.92 511.74,-1064.94"/>
<polygon fill="black" stroke="black" points="513.39,-1061.85 502.92,-1060.19 510.07,-1068.01 513.39,-1061.85"/>
</g>
<!-- f_0_2582386719 -->
<g id="node10" class="node">
<title>f_0_2582386719</title>
<text text-anchor="middle" x="667" y="-1038.3" font-family="Latin Modern Roman" font-size="14.00">fn_client_extensions_append</text>
</g>
<!-- f_0_3047738558&#45;&gt;f_0_2582386719 -->
<g id="edge9" class="edge">
<title>f_0_3047738558&#45;&gt;f_0_2582386719</title>
<path fill="none" stroke="black" d="M895.51,-1095.97C851.67,-1085.8 795.88,-1072.87 750.4,-1062.33"/>
<polygon fill="black" stroke="black" points="751.09,-1058.9 740.56,-1060.05 749.51,-1065.72 751.09,-1058.9"/>
</g>
<!-- f_0_2569167498 -->
<g id="node22" class="node">
<title>f_0_2569167498</title>
<text text-anchor="middle" x="935" y="-1038.3" font-family="Latin Modern Roman" font-size="14.00">fn_signature_algorithm_cert_extension</text>
</g>
<!-- f_0_3047738558&#45;&gt;f_0_2569167498 -->
<g id="edge21" class="edge">
<title>f_0_3047738558&#45;&gt;f_0_2569167498</title>
<path fill="none" stroke="black" d="M960.6,-1095.7C956.73,-1087.73 952.05,-1078.1 947.76,-1069.26"/>
<polygon fill="black" stroke="black" points="950.83,-1067.57 943.31,-1060.1 944.53,-1070.63 950.83,-1067.57"/>
</g>
<!-- f_0_4262021145 -->
<g id="node11" class="node">
<title>f_0_4262021145</title>
<text text-anchor="middle" x="542" y="-966.3" font-family="Latin Modern Roman" font-size="14.00">fn_client_extensions_append</text>
</g>
<!-- f_0_2582386719&#45;&gt;f_0_4262021145 -->
<g id="edge10" class="edge">
<title>f_0_2582386719&#45;&gt;f_0_4262021145</title>
<path fill="none" stroke="black" d="M636.42,-1023.88C619.93,-1014.64 599.38,-1003.13 581.66,-993.21"/>
<polygon fill="black" stroke="black" points="583.13,-990.02 572.7,-988.19 579.71,-996.13 583.13,-990.02"/>
</g>
<!-- f_0_1275038649 -->
<g id="node20" class="node">
<title>f_0_1275038649</title>
<text text-anchor="middle" x="792" y="-966.3" font-family="Latin Modern Roman" font-size="14.00">fn_renegotiation_info_extension</text>
</g>
<!-- f_0_2582386719&#45;&gt;f_0_1275038649 -->
<g id="edge19" class="edge">
<title>f_0_2582386719&#45;&gt;f_0_1275038649</title>
<path fill="none" stroke="black" d="M697.58,-1023.88C714.07,-1014.64 734.62,-1003.13 752.34,-993.21"/>
<polygon fill="black" stroke="black" points="754.29,-996.13 761.3,-988.19 750.87,-990.02 754.29,-996.13"/>
</g>
<!-- f_0_4063147722 -->
<g id="node12" class="node">
<title>f_0_4063147722</title>
<text text-anchor="middle" x="258" y="-894.3" font-family="Latin Modern Roman" font-size="14.00">fn_client_extensions_append</text>
</g>
<!-- f_0_4262021145&#45;&gt;f_0_4063147722 -->
<g id="edge11" class="edge">
<title>f_0_4262021145&#45;&gt;f_0_4063147722</title>
<path fill="none" stroke="black" d="M472.89,-951.97C431.91,-941.87 379.83,-929.03 337.2,-918.52"/>
<polygon fill="black" stroke="black" points="337.97,-915.11 327.42,-916.11 336.29,-921.9 337.97,-915.11"/>
</g>
<!-- f_0_3308892883 -->
<g id="node19" class="node">
<title>f_0_3308892883</title>
<text text-anchor="middle" x="542" y="-894.3" font-family="Latin Modern Roman" font-size="14.00">fn_signed_certificate_timestamp_extension</text>
</g>
<!-- f_0_4262021145&#45;&gt;f_0_3308892883 -->
<g id="edge18" class="edge">
<title>f_0_4262021145&#45;&gt;f_0_3308892883</title>
<path fill="none" stroke="black" d="M542,-951.7C542,-943.98 542,-934.71 542,-926.11"/>
<polygon fill="black" stroke="black" points="545.5,-926.1 542,-916.1 538.5,-926.1 545.5,-926.1"/>
</g>
<!-- f_0_1927882639 -->
<g id="node13" class="node">
<title>f_0_1927882639</title>
<text text-anchor="middle" x="256" y="-822.3" font-family="Latin Modern Roman" font-size="14.00">fn_client_extensions_append</text>
</g>
<!-- f_0_4063147722&#45;&gt;f_0_1927882639 -->
<g id="edge12" class="edge">
<title>f_0_4063147722&#45;&gt;f_0_1927882639</title>
<path fill="none" stroke="black" d="M257.51,-879.7C257.29,-871.98 257.02,-862.71 256.77,-854.11"/>
<polygon fill="black" stroke="black" points="260.27,-854 256.49,-844.1 253.28,-854.2 260.27,-854"/>
</g>
<!-- f_0_3567548416 -->
<g id="node18" class="node">
<title>f_0_3567548416</title>
<text text-anchor="middle" x="497" y="-822.3" font-family="Latin Modern Roman" font-size="14.00">fn_ec_point_formats_extension</text>
</g>
<!-- f_0_4063147722&#45;&gt;f_0_3567548416 -->
<g id="edge17" class="edge">
<title>f_0_4063147722&#45;&gt;f_0_3567548416</title>
<path fill="none" stroke="black" d="M316.16,-879.97C350.13,-870.01 393.18,-857.41 428.76,-846.99"/>
<polygon fill="black" stroke="black" points="429.97,-850.28 438.58,-844.11 428,-843.56 429.97,-850.28"/>
</g>
<!-- f_0_3413640526 -->
<g id="node14" class="node">
<title>f_0_3413640526</title>
<text text-anchor="middle" x="252" y="-750.3" font-family="Latin Modern Roman" font-size="14.00">fn_client_extensions_append</text>
</g>
<!-- f_0_1927882639&#45;&gt;f_0_3413640526 -->
<g id="edge13" class="edge">
<title>f_0_1927882639&#45;&gt;f_0_3413640526</title>
<path fill="none" stroke="black" d="M255.01,-807.7C254.57,-799.98 254.04,-790.71 253.55,-782.11"/>
<polygon fill="black" stroke="black" points="257.04,-781.89 252.98,-772.1 250.05,-782.29 257.04,-781.89"/>
</g>
<!-- f_0_317783424 -->
<g id="node17" class="node">
<title>f_0_317783424</title>
<text text-anchor="middle" x="504" y="-750.3" font-family="Latin Modern Roman" font-size="14.00">fn_signature_algorithm_extension</text>
</g>
<!-- f_0_1927882639&#45;&gt;f_0_317783424 -->
<g id="edge16" class="edge">
<title>f_0_1927882639&#45;&gt;f_0_317783424</title>
<path fill="none" stroke="black" d="M316.35,-807.97C351.75,-797.97 396.66,-785.3 433.66,-774.85"/>
<polygon fill="black" stroke="black" points="434.71,-778.2 443.38,-772.11 432.8,-771.46 434.71,-778.2"/>
</g>
<!-- f_0_3118986444 -->
<g id="node15" class="node">
<title>f_0_3118986444</title>
<text text-anchor="middle" x="122" y="-678.3" font-family="Latin Modern Roman" font-size="14.00">fn_client_extensions_new</text>
</g>
<!-- f_0_3413640526&#45;&gt;f_0_3118986444 -->
<g id="edge14" class="edge">
<title>f_0_3413640526&#45;&gt;f_0_3118986444</title>
<path fill="none" stroke="black" d="M220.2,-735.88C202.89,-726.55 181.28,-714.92 162.74,-704.94"/>
<polygon fill="black" stroke="black" points="164.39,-701.85 153.92,-700.19 161.07,-708.01 164.39,-701.85"/>
</g>
<!-- f_0_2579727810 -->
<g id="node16" class="node">
<title>f_0_2579727810</title>
<text text-anchor="middle" x="383" y="-678.3" font-family="Latin Modern Roman" font-size="14.00">fn_secp384r1_support_group_extension</text>
</g>
<!-- f_0_3413640526&#45;&gt;f_0_2579727810 -->
<g id="edge15" class="edge">
<title>f_0_3413640526&#45;&gt;f_0_2579727810</title>
<path fill="none" stroke="black" d="M284.05,-735.88C301.49,-726.55 323.27,-714.92 341.94,-704.94"/>
<polygon fill="black" stroke="black" points="343.66,-707.99 350.83,-700.19 340.36,-701.82 343.66,-707.99"/>
</g>
<!-- f_0_3479304507 -->
<g id="node21" class="node">
<title>f_0_3479304507</title>
<text text-anchor="middle" x="797" y="-894.3" font-family="Latin Modern Roman" font-size="14.00">fn_empty_bytes_vec</text>
</g>
<!-- f_0_1275038649&#45;&gt;f_0_3479304507 -->
<g id="edge20" class="edge">
<title>f_0_1275038649&#45;&gt;f_0_3479304507</title>
<path fill="none" stroke="black" d="M793.24,-951.7C793.79,-943.98 794.45,-934.71 795.06,-926.11"/>
<polygon fill="black" stroke="black" points="798.56,-926.33 795.78,-916.1 791.57,-925.83 798.56,-926.33"/>
</g>
<!-- f_1_422712046 -->
<g id="node23" class="node">
<title>f_1_422712046</title>
<text text-anchor="middle" x="1332" y="-1182.3" font-family="Latin Modern Roman" font-size="14.00">fn_client_key_exchange</text>
</g>
<!-- f_1_884639788 -->
<g id="node24" class="node">
<title>f_1_884639788</title>
<text text-anchor="middle" x="1332" y="-1110.3" font-family="Latin Modern Roman" font-size="14.00">fn_new_pubkey12</text>
</g>
<!-- f_1_422712046&#45;&gt;f_1_884639788 -->
<g id="edge22" class="edge">
<title>f_1_422712046&#45;&gt;f_1_884639788</title>
<path fill="none" stroke="black" d="M1332,-1167.7C1332,-1159.98 1332,-1150.71 1332,-1142.11"/>
<polygon fill="black" stroke="black" points="1335.5,-1142.1 1332,-1132.1 1328.5,-1142.1 1335.5,-1142.1"/>
</g>
<!-- f_1_2874863617 -->
<g id="node25" class="node">
<title>f_1_2874863617</title>
<text text-anchor="middle" x="1332" y="-1038.3" font-family="Latin Modern Roman" font-size="14.00">fn_decode_ecdh_params</text>
</g>
<!-- f_1_884639788&#45;&gt;f_1_2874863617 -->
<g id="edge23" class="edge">
<title>f_1_884639788&#45;&gt;f_1_2874863617</title>
<path fill="none" stroke="black" d="M1332,-1095.7C1332,-1087.98 1332,-1078.71 1332,-1070.11"/>
<polygon fill="black" stroke="black" points="1335.5,-1070.1 1332,-1060.1 1328.5,-1070.1 1335.5,-1070.1"/>
</g>
<!-- v_1_731867899 -->
<g id="node26" class="node">
<title>v_1_731867899</title>
<text text-anchor="middle" x="1332" y="-966.3" font-family="Latin Modern Roman" font-size="14.00">(0, 0)[Some(Handshake(Some(ServerKeyExchange)))]/Vec&lt;u8&gt;</text>
</g>
<!-- f_1_2874863617&#45;&gt;v_1_731867899 -->
<g id="edge24" class="edge">
<title>f_1_2874863617&#45;&gt;v_1_731867899</title>
<path fill="none" stroke="black" d="M1332,-1023.7C1332,-1015.98 1332,-1006.71 1332,-998.11"/>
<polygon fill="black" stroke="black" points="1335.5,-998.1 1332,-988.1 1328.5,-998.1 1335.5,-998.1"/>
</g>
<!-- f_2_2678674684 -->
<g id="node27" class="node">
<title>f_2_2678674684</title>
<text text-anchor="middle" x="1676" y="-1182.3" font-family="Latin Modern Roman" font-size="14.00">fn_change_cipher_spec</text>
</g>
<!-- f_3_471956742 -->
<g id="node28" class="node">
<title>f_3_471956742</title>
<text text-anchor="middle" x="2502" y="-1182.3" font-family="Latin Modern Roman" font-size="14.00">fn_encrypt12</text>
</g>
<!-- f_3_2095542024 -->
<g id="node29" class="node">
<title>f_3_2095542024</title>
<text text-anchor="middle" x="2157" y="-1110.3" font-family="Latin Modern Roman" font-size="14.00">fn_finished</text>
</g>
<!-- f_3_471956742&#45;&gt;f_3_2095542024 -->
<g id="edge25" class="edge">
<title>f_3_471956742&#45;&gt;f_3_2095542024</title>
<path fill="none" stroke="black" d="M2447.33,-1173.91C2383.49,-1160.95 2278.39,-1139.63 2213.69,-1126.5"/>
<polygon fill="black" stroke="black" points="2214.16,-1123.03 2203.67,-1124.47 2212.77,-1129.89 2214.16,-1123.03"/>
</g>
<!-- v_3_2363160693 -->
<g id="node71" class="node">
<title>v_3_2363160693</title>
<text text-anchor="middle" x="2371" y="-1110.3" font-family="Latin Modern Roman" font-size="14.00">(0, 0)[Some(Handshake(None))]/Random</text>
</g>
<!-- f_3_471956742&#45;&gt;v_3_2363160693 -->
<g id="edge67" class="edge">
<title>f_3_471956742&#45;&gt;v_3_2363160693</title>
<path fill="none" stroke="black" d="M2469.95,-1167.88C2452.51,-1158.55 2430.73,-1146.92 2412.06,-1136.94"/>
<polygon fill="black" stroke="black" points="2413.64,-1133.82 2403.17,-1132.19 2410.34,-1139.99 2413.64,-1133.82"/>
</g>
<!-- f_3_776400114 -->
<g id="node72" class="node">
<title>f_3_776400114</title>
<text text-anchor="middle" x="2633" y="-1110.3" font-family="Latin Modern Roman" font-size="14.00">fn_decode_ecdh_params</text>
</g>
<!-- f_3_471956742&#45;&gt;f_3_776400114 -->
<g id="edge68" class="edge">
<title>f_3_471956742&#45;&gt;f_3_776400114</title>
<path fill="none" stroke="black" d="M2534.05,-1167.88C2551.49,-1158.55 2573.27,-1146.92 2591.94,-1136.94"/>
<polygon fill="black" stroke="black" points="2593.66,-1139.99 2600.83,-1132.19 2590.36,-1133.82 2593.66,-1139.99"/>
</g>
<!-- f_3_1635869028 -->
<g id="node74" class="node">
<title>f_3_1635869028</title>
<text text-anchor="middle" x="2784" y="-1110.3" font-family="Latin Modern Roman" font-size="14.00">fn_seq_0</text>
</g>
<!-- f_3_471956742&#45;&gt;f_3_1635869028 -->
<g id="edge70" class="edge">
<title>f_3_471956742&#45;&gt;f_3_1635869028</title>
<path fill="none" stroke="black" d="M2556.71,-1171.42C2608.4,-1158.59 2685.25,-1139.51 2734.99,-1127.17"/>
<polygon fill="black" stroke="black" points="2736.01,-1130.52 2744.87,-1124.71 2734.32,-1123.73 2736.01,-1130.52"/>
</g>
<!-- f_3_3896317946 -->
<g id="node30" class="node">
<title>f_3_3896317946</title>
<text text-anchor="middle" x="2186" y="-1038.3" font-family="Latin Modern Roman" font-size="14.00">fn_sign_transcript</text>
</g>
<!-- f_3_2095542024&#45;&gt;f_3_3896317946 -->
<g id="edge26" class="edge">
<title>f_3_2095542024&#45;&gt;f_3_3896317946</title>
<path fill="none" stroke="black" d="M2164.17,-1095.7C2167.43,-1087.81 2171.37,-1078.3 2175,-1069.55"/>
<polygon fill="black" stroke="black" points="2178.32,-1070.68 2178.91,-1060.1 2171.85,-1068 2178.32,-1070.68"/>
</g>
<!-- v_3_417836037 -->
<g id="node31" class="node">
<title>v_3_417836037</title>
<text text-anchor="middle" x="1939" y="-966.3" font-family="Latin Modern Roman" font-size="14.00">(0, 0)[Some(Handshake(None))]/Random</text>
</g>
<!-- f_3_3896317946&#45;&gt;v_3_417836037 -->
<g id="edge27" class="edge">
<title>f_3_3896317946&#45;&gt;v_3_417836037</title>
<path fill="none" stroke="black" d="M2125.89,-1023.97C2090.63,-1013.97 2045.91,-1001.3 2009.06,-990.85"/>
<polygon fill="black" stroke="black" points="2009.95,-987.47 1999.38,-988.11 2008.04,-994.2 2009.95,-987.47"/>
</g>
<!-- f_3_3846527862 -->
<g id="node32" class="node">
<title>f_3_3846527862</title>
<text text-anchor="middle" x="2201" y="-966.3" font-family="Latin Modern Roman" font-size="14.00">fn_decode_ecdh_params</text>
</g>
<!-- f_3_3896317946&#45;&gt;f_3_3846527862 -->
<g id="edge28" class="edge">
<title>f_3_3896317946&#45;&gt;f_3_3846527862</title>
<path fill="none" stroke="black" d="M2189.71,-1023.7C2191.36,-1015.98 2193.35,-1006.71 2195.19,-998.11"/>
<polygon fill="black" stroke="black" points="2198.66,-998.62 2197.33,-988.1 2191.82,-997.15 2198.66,-998.62"/>
</g>
<!-- f_3_3344265436 -->
<g id="node34" class="node">
<title>f_3_3344265436</title>
<text text-anchor="middle" x="2395" y="-966.3" font-family="Latin Modern Roman" font-size="14.00">fn_append_transcript</text>
</g>
<!-- f_3_3896317946&#45;&gt;f_3_3344265436 -->
<g id="edge30" class="edge">
<title>f_3_3896317946&#45;&gt;f_3_3344265436</title>
<path fill="none" stroke="black" d="M2236.86,-1023.97C2266.19,-1014.14 2303.25,-1001.73 2334.12,-991.39"/>
<polygon fill="black" stroke="black" points="2335.54,-994.61 2343.91,-988.11 2333.32,-987.97 2335.54,-994.61"/>
</g>
<!-- v_3_3629419793 -->
<g id="node33" class="node">
<title>v_3_3629419793</title>
<text text-anchor="middle" x="2054" y="-894.3" font-family="Latin Modern Roman" font-size="14.00">(0, 0)[Some(Handshake(Some(ServerKeyExchange)))]/Vec&lt;u8&gt;</text>
</g>
<!-- f_3_3846527862&#45;&gt;v_3_3629419793 -->
<g id="edge29" class="edge">
<title>f_3_3846527862&#45;&gt;v_3_3629419793</title>
<path fill="none" stroke="black" d="M2165.04,-951.88C2145.12,-942.39 2120.18,-930.51 2098.98,-920.42"/>
<polygon fill="black" stroke="black" points="2100.38,-917.21 2089.84,-916.07 2097.37,-923.53 2100.38,-917.21"/>
</g>
<!-- f_3_283696739 -->
<g id="node35" class="node">
<title>f_3_283696739</title>
<text text-anchor="middle" x="2385" y="-894.3" font-family="Latin Modern Roman" font-size="14.00">fn_append_transcript</text>
</g>
<!-- f_3_3344265436&#45;&gt;f_3_283696739 -->
<g id="edge31" class="edge">
<title>f_3_3344265436&#45;&gt;f_3_283696739</title>
<path fill="none" stroke="black" d="M2392.53,-951.7C2391.43,-943.98 2390.1,-934.71 2388.87,-926.11"/>
<polygon fill="black" stroke="black" points="2392.32,-925.51 2387.44,-916.1 2385.39,-926.5 2392.32,-925.51"/>
</g>
<!-- f_3_1882802064 -->
<g id="node67" class="node">
<title>f_3_1882802064</title>
<text text-anchor="middle" x="2628" y="-894.3" font-family="Latin Modern Roman" font-size="14.00">fn_client_key_exchange</text>
</g>
<!-- f_3_3344265436&#45;&gt;f_3_1882802064 -->
<g id="edge63" class="edge">
<title>f_3_3344265436&#45;&gt;f_3_1882802064</title>
<path fill="none" stroke="black" d="M2451.7,-951.97C2484.68,-942.06 2526.43,-929.51 2561.03,-919.12"/>
<polygon fill="black" stroke="black" points="2562.48,-922.34 2571.05,-916.11 2560.46,-915.64 2562.48,-922.34"/>
</g>
<!-- f_3_2431544577 -->
<g id="node36" class="node">
<title>f_3_2431544577</title>
<text text-anchor="middle" x="2057" y="-822.3" font-family="Latin Modern Roman" font-size="14.00">fn_append_transcript</text>
</g>
<!-- f_3_283696739&#45;&gt;f_3_2431544577 -->
<g id="edge32" class="edge">
<title>f_3_283696739&#45;&gt;f_3_2431544577</title>
<path fill="none" stroke="black" d="M2305.18,-879.97C2257.37,-869.76 2196.46,-856.76 2146.95,-846.2"/>
<polygon fill="black" stroke="black" points="2147.4,-842.71 2136.89,-844.05 2145.94,-849.56 2147.4,-842.71"/>
</g>
<!-- v_3_3694658775 -->
<g id="node66" class="node">
<title>v_3_3694658775</title>
<text text-anchor="middle" x="2374" y="-822.3" font-family="Latin Modern Roman" font-size="14.00">(0, 0)[Some(Handshake(Some(ServerHelloDone)))]/Message</text>
</g>
<!-- f_3_283696739&#45;&gt;v_3_3694658775 -->
<g id="edge62" class="edge">
<title>f_3_283696739&#45;&gt;v_3_3694658775</title>
<path fill="none" stroke="black" d="M2382.28,-879.7C2381.07,-871.98 2379.61,-862.71 2378.26,-854.11"/>
<polygon fill="black" stroke="black" points="2381.7,-853.44 2376.69,-844.1 2374.78,-854.53 2381.7,-853.44"/>
</g>
<!-- f_3_2877968145 -->
<g id="node37" class="node">
<title>f_3_2877968145</title>
<text text-anchor="middle" x="1958" y="-750.3" font-family="Latin Modern Roman" font-size="14.00">fn_append_transcript</text>
</g>
<!-- f_3_2431544577&#45;&gt;f_3_2877968145 -->
<g id="edge33" class="edge">
<title>f_3_2431544577&#45;&gt;f_3_2877968145</title>
<path fill="none" stroke="black" d="M2032.78,-807.88C2020.08,-798.89 2004.34,-787.76 1990.58,-778.03"/>
<polygon fill="black" stroke="black" points="1992.5,-775.11 1982.31,-772.19 1988.46,-780.82 1992.5,-775.11"/>
</g>
<!-- v_3_1314180782 -->
<g id="node65" class="node">
<title>v_3_1314180782</title>
<text text-anchor="middle" x="2286" y="-750.3" font-family="Latin Modern Roman" font-size="14.00">(0, 0)[Some(Handshake(Some(ServerKeyExchange)))]/Message</text>
</g>
<!-- f_3_2431544577&#45;&gt;v_3_1314180782 -->
<g id="edge61" class="edge">
<title>f_3_2431544577&#45;&gt;v_3_1314180782</title>
<path fill="none" stroke="black" d="M2112.73,-807.97C2145.14,-798.06 2186.18,-785.51 2220.18,-775.12"/>
<polygon fill="black" stroke="black" points="2221.48,-778.38 2230.02,-772.11 2219.44,-771.69 2221.48,-778.38"/>
</g>
<!-- f_3_3800716005 -->
<g id="node38" class="node">
<title>f_3_3800716005</title>
<text text-anchor="middle" x="1882" y="-678.3" font-family="Latin Modern Roman" font-size="14.00">fn_append_transcript</text>
</g>
<!-- f_3_2877968145&#45;&gt;f_3_3800716005 -->
<g id="edge34" class="edge">
<title>f_3_2877968145&#45;&gt;f_3_3800716005</title>
<path fill="none" stroke="black" d="M1939.21,-735.7C1929.83,-727.05 1918.32,-716.45 1908.09,-707.03"/>
<polygon fill="black" stroke="black" points="1910.3,-704.3 1900.57,-700.1 1905.55,-709.45 1910.3,-704.3"/>
</g>
<!-- v_3_2366010828 -->
<g id="node64" class="node">
<title>v_3_2366010828</title>
<text text-anchor="middle" x="2176" y="-678.3" font-family="Latin Modern Roman" font-size="14.00">(0, 0)[Some(Handshake(Some(Certificate)))]/Message</text>
</g>
<!-- f_3_2877968145&#45;&gt;v_3_2366010828 -->
<g id="edge60" class="edge">
<title>f_3_2877968145&#45;&gt;v_3_2366010828</title>
<path fill="none" stroke="black" d="M2011.05,-735.97C2041.77,-726.1 2080.64,-713.62 2112.92,-703.25"/>
<polygon fill="black" stroke="black" points="2114.26,-706.5 2122.71,-700.11 2112.12,-699.84 2114.26,-706.5"/>
</g>
<!-- f_3_3527174562 -->
<g id="node39" class="node">
<title>f_3_3527174562</title>
<text text-anchor="middle" x="1882" y="-606.3" font-family="Latin Modern Roman" font-size="14.00">fn_append_transcript</text>
</g>
<!-- f_3_3800716005&#45;&gt;f_3_3527174562 -->
<g id="edge35" class="edge">
<title>f_3_3800716005&#45;&gt;f_3_3527174562</title>
<path fill="none" stroke="black" d="M1882,-663.7C1882,-655.98 1882,-646.71 1882,-638.11"/>
<polygon fill="black" stroke="black" points="1885.5,-638.1 1882,-628.1 1878.5,-638.1 1885.5,-638.1"/>
</g>
<!-- v_3_2151793476 -->
<g id="node63" class="node">
<title>v_3_2151793476</title>
<text text-anchor="middle" x="2181" y="-606.3" font-family="Latin Modern Roman" font-size="14.00">(0, 0)[Some(Handshake(Some(ServerHello)))]/Message</text>
</g>
<!-- f_3_3800716005&#45;&gt;v_3_2151793476 -->
<g id="edge59" class="edge">
<title>f_3_3800716005&#45;&gt;v_3_2151793476</title>
<path fill="none" stroke="black" d="M1954.76,-663.97C1998.16,-653.8 2053.4,-640.87 2098.43,-630.33"/>
<polygon fill="black" stroke="black" points="2099.23,-633.74 2108.17,-628.05 2097.64,-626.92 2099.23,-633.74"/>
</g>
<!-- f_3_4279529112 -->
<g id="node40" class="node">
<title>f_3_4279529112</title>
<text text-anchor="middle" x="1882" y="-534.3" font-family="Latin Modern Roman" font-size="14.00">fn_new_transcript12</text>
</g>
<!-- f_3_3527174562&#45;&gt;f_3_4279529112 -->
<g id="edge36" class="edge">
<title>f_3_3527174562&#45;&gt;f_3_4279529112</title>
<path fill="none" stroke="black" d="M1882,-591.7C1882,-583.98 1882,-574.71 1882,-566.11"/>
<polygon fill="black" stroke="black" points="1885.5,-566.1 1882,-556.1 1878.5,-566.1 1885.5,-566.1"/>
</g>
<!-- f_3_1649986733 -->
<g id="node41" class="node">
<title>f_3_1649986733</title>
<text text-anchor="middle" x="2193" y="-534.3" font-family="Latin Modern Roman" font-size="14.00">fn_client_hello</text>
</g>
<!-- f_3_3527174562&#45;&gt;f_3_1649986733 -->
<g id="edge37" class="edge">
<title>f_3_3527174562&#45;&gt;f_3_1649986733</title>
<path fill="none" stroke="black" d="M1957.68,-591.97C2008.82,-580.46 2075.75,-565.39 2125.16,-554.27"/>
<polygon fill="black" stroke="black" points="2126.12,-557.64 2135.11,-552.03 2124.58,-550.81 2126.12,-557.64"/>
</g>
<!-- f_3_2156480124 -->
<g id="node42" class="node">
<title>f_3_2156480124</title>
<text text-anchor="middle" x="1873" y="-462.3" font-family="Latin Modern Roman" font-size="14.00">fn_protocol_version12</text>
</g>
<!-- f_3_1649986733&#45;&gt;f_3_2156480124 -->
<g id="edge38" class="edge">
<title>f_3_1649986733&#45;&gt;f_3_2156480124</title>
<path fill="none" stroke="black" d="M2135.42,-524.4C2086.79,-513.77 2016.37,-498.36 1960.73,-486.19"/>
<polygon fill="black" stroke="black" points="1961.39,-482.75 1950.87,-484.03 1959.89,-489.59 1961.39,-482.75"/>
</g>
<!-- f_3_2936383292 -->
<g id="node43" class="node">
<title>f_3_2936383292</title>
<text text-anchor="middle" x="2039" y="-462.3" font-family="Latin Modern Roman" font-size="14.00">fn_new_random</text>
</g>
<!-- f_3_1649986733&#45;&gt;f_3_2936383292 -->
<g id="edge39" class="edge">
<title>f_3_1649986733&#45;&gt;f_3_2936383292</title>
<path fill="none" stroke="black" d="M2155.33,-519.88C2134.37,-510.35 2108.1,-498.41 2085.82,-488.28"/>
<polygon fill="black" stroke="black" points="2087.1,-485.02 2076.55,-484.07 2084.21,-491.39 2087.1,-485.02"/>
</g>
<!-- f_3_525338820 -->
<g id="node44" class="node">
<title>f_3_525338820</title>
<text text-anchor="middle" x="2193" y="-462.3" font-family="Latin Modern Roman" font-size="14.00">fn_new_session_id</text>
</g>
<!-- f_3_1649986733&#45;&gt;f_3_525338820 -->
<g id="edge40" class="edge">
<title>f_3_1649986733&#45;&gt;f_3_525338820</title>
<path fill="none" stroke="black" d="M2193,-519.7C2193,-511.98 2193,-502.71 2193,-494.11"/>
<polygon fill="black" stroke="black" points="2196.5,-494.1 2193,-484.1 2189.5,-494.1 2196.5,-494.1"/>
</g>
<!-- f_3_3357946424 -->
<g id="node45" class="node">
<title>f_3_3357946424</title>
<text text-anchor="middle" x="2374" y="-462.3" font-family="Latin Modern Roman" font-size="14.00">fn_append_cipher_suite</text>
</g>
<!-- f_3_1649986733&#45;&gt;f_3_3357946424 -->
<g id="edge41" class="edge">
<title>f_3_1649986733&#45;&gt;f_3_3357946424</title>
<path fill="none" stroke="black" d="M2237.28,-519.88C2262.35,-510.18 2293.9,-497.98 2320.37,-487.74"/>
<polygon fill="black" stroke="black" points="2321.8,-490.94 2329.87,-484.07 2319.28,-484.41 2321.8,-490.94"/>
</g>
<!-- f_3_2343643325 -->
<g id="node48" class="node">
<title>f_3_2343643325</title>
<text text-anchor="middle" x="2549" y="-462.3" font-family="Latin Modern Roman" font-size="14.00">fn_compressions</text>
</g>
<!-- f_3_1649986733&#45;&gt;f_3_2343643325 -->
<g id="edge44" class="edge">
<title>f_3_1649986733&#45;&gt;f_3_2343643325</title>
<path fill="none" stroke="black" d="M2250.59,-525.68C2310.87,-513.82 2405.81,-495.16 2472.38,-482.07"/>
<polygon fill="black" stroke="black" points="2473.26,-485.46 2482.4,-480.1 2471.91,-478.59 2473.26,-485.46"/>
</g>
<!-- f_3_3118727877 -->
<g id="node49" class="node">
<title>f_3_3118727877</title>
<text text-anchor="middle" x="2742" y="-462.3" font-family="Latin Modern Roman" font-size="14.00">fn_client_extensions_append</text>
</g>
<!-- f_3_1649986733&#45;&gt;f_3_3118727877 -->
<g id="edge45" class="edge">
<title>f_3_1649986733&#45;&gt;f_3_3118727877</title>
<path fill="none" stroke="black" d="M2250.71,-529.64C2338.77,-518.41 2508.53,-496.77 2623.55,-482.1"/>
<polygon fill="black" stroke="black" points="2624.34,-485.53 2633.82,-480.79 2623.45,-478.59 2624.34,-485.53"/>
</g>
<!-- f_3_1936751685 -->
<g id="node46" class="node">
<title>f_3_1936751685</title>
<text text-anchor="middle" x="2074" y="-390.3" font-family="Latin Modern Roman" font-size="14.00">fn_new_cipher_suites</text>
</g>
<!-- f_3_3357946424&#45;&gt;f_3_1936751685 -->
<g id="edge42" class="edge">
<title>f_3_3357946424&#45;&gt;f_3_1936751685</title>
<path fill="none" stroke="black" d="M2301,-447.97C2257.45,-437.8 2202.02,-424.87 2156.84,-414.33"/>
<polygon fill="black" stroke="black" points="2157.61,-410.91 2147.07,-412.05 2156.01,-417.73 2157.61,-410.91"/>
</g>
<!-- f_3_1359415935 -->
<g id="node47" class="node">
<title>f_3_1359415935</title>
<text text-anchor="middle" x="2244" y="-390.3" font-family="Latin Modern Roman" font-size="14.00">fn_cipher_suite12</text>
</g>
<!-- f_3_3357946424&#45;&gt;f_3_1359415935 -->
<g id="edge43" class="edge">
<title>f_3_3357946424&#45;&gt;f_3_1359415935</title>
<path fill="none" stroke="black" d="M2342.2,-447.88C2324.89,-438.55 2303.28,-426.92 2284.74,-416.94"/>
<polygon fill="black" stroke="black" points="2286.39,-413.85 2275.92,-412.19 2283.07,-420.01 2286.39,-413.85"/>
</g>
<!-- f_3_3030254611 -->
<g id="node50" class="node">
<title>f_3_3030254611</title>
<text text-anchor="middle" x="2440" y="-390.3" font-family="Latin Modern Roman" font-size="14.00">fn_client_extensions_append</text>
</g>
<!-- f_3_3118727877&#45;&gt;f_3_3030254611 -->
<g id="edge46" class="edge">
<title>f_3_3118727877&#45;&gt;f_3_3030254611</title>
<path fill="none" stroke="black" d="M2668.51,-447.97C2624.67,-437.8 2568.88,-424.87 2523.4,-414.33"/>
<polygon fill="black" stroke="black" points="2524.09,-410.9 2513.56,-412.05 2522.51,-417.72 2524.09,-410.9"/>
</g>
<!-- f_3_185651723 -->
<g id="node62" class="node">
<title>f_3_185651723</title>
<text text-anchor="middle" x="2708" y="-390.3" font-family="Latin Modern Roman" font-size="14.00">fn_signature_algorithm_cert_extension</text>
</g>
<!-- f_3_3118727877&#45;&gt;f_3_185651723 -->
<g id="edge58" class="edge">
<title>f_3_3118727877&#45;&gt;f_3_185651723</title>
<path fill="none" stroke="black" d="M2733.6,-447.7C2729.73,-439.73 2725.05,-430.1 2720.76,-421.26"/>
<polygon fill="black" stroke="black" points="2723.83,-419.57 2716.31,-412.1 2717.53,-422.63 2723.83,-419.57"/>
</g>
<!-- f_3_2446730927 -->
<g id="node51" class="node">
<title>f_3_2446730927</title>
<text text-anchor="middle" x="2315" y="-318.3" font-family="Latin Modern Roman" font-size="14.00">fn_client_extensions_append</text>
</g>
<!-- f_3_3030254611&#45;&gt;f_3_2446730927 -->
<g id="edge47" class="edge">
<title>f_3_3030254611&#45;&gt;f_3_2446730927</title>
<path fill="none" stroke="black" d="M2409.42,-375.88C2392.93,-366.64 2372.38,-355.13 2354.66,-345.21"/>
<polygon fill="black" stroke="black" points="2356.13,-342.02 2345.7,-340.19 2352.71,-348.13 2356.13,-342.02"/>
</g>
<!-- f_3_1046497368 -->
<g id="node60" class="node">
<title>f_3_1046497368</title>
<text text-anchor="middle" x="2565" y="-318.3" font-family="Latin Modern Roman" font-size="14.00">fn_renegotiation_info_extension</text>
</g>
<!-- f_3_3030254611&#45;&gt;f_3_1046497368 -->
<g id="edge56" class="edge">
<title>f_3_3030254611&#45;&gt;f_3_1046497368</title>
<path fill="none" stroke="black" d="M2470.58,-375.88C2487.07,-366.64 2507.62,-355.13 2525.34,-345.21"/>
<polygon fill="black" stroke="black" points="2527.29,-348.13 2534.3,-340.19 2523.87,-342.02 2527.29,-348.13"/>
</g>
<!-- f_3_3717152609 -->
<g id="node52" class="node">
<title>f_3_3717152609</title>
<text text-anchor="middle" x="2031" y="-246.3" font-family="Latin Modern Roman" font-size="14.00">fn_client_extensions_append</text>
</g>
<!-- f_3_2446730927&#45;&gt;f_3_3717152609 -->
<g id="edge48" class="edge">
<title>f_3_2446730927&#45;&gt;f_3_3717152609</title>
<path fill="none" stroke="black" d="M2245.89,-303.97C2204.91,-293.87 2152.83,-281.03 2110.2,-270.52"/>
<polygon fill="black" stroke="black" points="2110.97,-267.11 2100.42,-268.11 2109.29,-273.9 2110.97,-267.11"/>
</g>
<!-- f_3_1636712511 -->
<g id="node59" class="node">
<title>f_3_1636712511</title>
<text text-anchor="middle" x="2315" y="-246.3" font-family="Latin Modern Roman" font-size="14.00">fn_signed_certificate_timestamp_extension</text>
</g>
<!-- f_3_2446730927&#45;&gt;f_3_1636712511 -->
<g id="edge55" class="edge">
<title>f_3_2446730927&#45;&gt;f_3_1636712511</title>
<path fill="none" stroke="black" d="M2315,-303.7C2315,-295.98 2315,-286.71 2315,-278.11"/>
<polygon fill="black" stroke="black" points="2318.5,-278.1 2315,-268.1 2311.5,-278.1 2318.5,-278.1"/>
</g>
<!-- f_3_2389645654 -->
<g id="node53" class="node">
<title>f_3_2389645654</title>
<text text-anchor="middle" x="2029" y="-174.3" font-family="Latin Modern Roman" font-size="14.00">fn_client_extensions_append</text>
</g>
<!-- f_3_3717152609&#45;&gt;f_3_2389645654 -->
<g id="edge49" class="edge">
<title>f_3_3717152609&#45;&gt;f_3_2389645654</title>
<path fill="none" stroke="black" d="M2030.51,-231.7C2030.29,-223.98 2030.02,-214.71 2029.77,-206.11"/>
<polygon fill="black" stroke="black" points="2033.27,-206 2029.49,-196.1 2026.28,-206.2 2033.27,-206"/>
</g>
<!-- f_3_1463283623 -->
<g id="node58" class="node">
<title>f_3_1463283623</title>
<text text-anchor="middle" x="2270" y="-174.3" font-family="Latin Modern Roman" font-size="14.00">fn_ec_point_formats_extension</text>
</g>
<!-- f_3_3717152609&#45;&gt;f_3_1463283623 -->
<g id="edge54" class="edge">
<title>f_3_3717152609&#45;&gt;f_3_1463283623</title>
<path fill="none" stroke="black" d="M2089.16,-231.97C2123.13,-222.01 2166.18,-209.41 2201.76,-198.99"/>
<polygon fill="black" stroke="black" points="2202.97,-202.28 2211.58,-196.11 2201,-195.56 2202.97,-202.28"/>
</g>
<!-- f_3_1438071783 -->
<g id="node54" class="node">
<title>f_3_1438071783</title>
<text text-anchor="middle" x="2025" y="-102.3" font-family="Latin Modern Roman" font-size="14.00">fn_client_extensions_append</text>
</g>
<!-- f_3_2389645654&#45;&gt;f_3_1438071783 -->
<g id="edge50" class="edge">
<title>f_3_2389645654&#45;&gt;f_3_1438071783</title>
<path fill="none" stroke="black" d="M2028.01,-159.7C2027.57,-151.98 2027.04,-142.71 2026.55,-134.11"/>
<polygon fill="black" stroke="black" points="2030.04,-133.89 2025.98,-124.1 2023.05,-134.29 2030.04,-133.89"/>
</g>
<!-- f_3_1660726856 -->
<g id="node57" class="node">
<title>f_3_1660726856</title>
<text text-anchor="middle" x="2277" y="-102.3" font-family="Latin Modern Roman" font-size="14.00">fn_signature_algorithm_extension</text>
</g>
<!-- f_3_2389645654&#45;&gt;f_3_1660726856 -->
<g id="edge53" class="edge">
<title>f_3_2389645654&#45;&gt;f_3_1660726856</title>
<path fill="none" stroke="black" d="M2089.35,-159.97C2124.75,-149.97 2169.66,-137.3 2206.66,-126.85"/>
<polygon fill="black" stroke="black" points="2207.71,-130.2 2216.38,-124.11 2205.8,-123.46 2207.71,-130.2"/>
</g>
<!-- f_3_2484019752 -->
<g id="node55" class="node">
<title>f_3_2484019752</title>
<text text-anchor="middle" x="1895" y="-30.3" font-family="Latin Modern Roman" font-size="14.00">fn_client_extensions_new</text>
</g>
<!-- f_3_1438071783&#45;&gt;f_3_2484019752 -->
<g id="edge51" class="edge">
<title>f_3_1438071783&#45;&gt;f_3_2484019752</title>
<path fill="none" stroke="black" d="M1993.2,-87.88C1975.89,-78.55 1954.28,-66.92 1935.74,-56.94"/>
<polygon fill="black" stroke="black" points="1937.39,-53.85 1926.92,-52.19 1934.07,-60.01 1937.39,-53.85"/>
</g>
<!-- f_3_2476585792 -->
<g id="node56" class="node">
<title>f_3_2476585792</title>
<text text-anchor="middle" x="2156" y="-30.3" font-family="Latin Modern Roman" font-size="14.00">fn_secp384r1_support_group_extension</text>
</g>
<!-- f_3_1438071783&#45;&gt;f_3_2476585792 -->
<g id="edge52" class="edge">
<title>f_3_1438071783&#45;&gt;f_3_2476585792</title>
<path fill="none" stroke="black" d="M2057.05,-87.88C2074.49,-78.55 2096.27,-66.92 2114.94,-56.94"/>
<polygon fill="black" stroke="black" points="2116.66,-59.99 2123.83,-52.19 2113.36,-53.82 2116.66,-59.99"/>
</g>
<!-- f_3_2710052370 -->
<g id="node61" class="node">
<title>f_3_2710052370</title>
<text text-anchor="middle" x="2570" y="-246.3" font-family="Latin Modern Roman" font-size="14.00">fn_empty_bytes_vec</text>
</g>
<!-- f_3_1046497368&#45;&gt;f_3_2710052370 -->
<g id="edge57" class="edge">
<title>f_3_1046497368&#45;&gt;f_3_2710052370</title>
<path fill="none" stroke="black" d="M2566.24,-303.7C2566.79,-295.98 2567.45,-286.71 2568.06,-278.11"/>
<polygon fill="black" stroke="black" points="2571.56,-278.33 2568.78,-268.1 2564.57,-277.83 2571.56,-278.33"/>
</g>
<!-- f_3_2858689848 -->
<g id="node68" class="node">
<title>f_3_2858689848</title>
<text text-anchor="middle" x="2680" y="-822.3" font-family="Latin Modern Roman" font-size="14.00">fn_new_pubkey12</text>
</g>
<!-- f_3_1882802064&#45;&gt;f_3_2858689848 -->
<g id="edge64" class="edge">
<title>f_3_1882802064&#45;&gt;f_3_2858689848</title>
<path fill="none" stroke="black" d="M2640.85,-879.7C2647.03,-871.39 2654.54,-861.28 2661.32,-852.14"/>
<polygon fill="black" stroke="black" points="2664.14,-854.22 2667.29,-844.1 2658.52,-850.04 2664.14,-854.22"/>
</g>
<!-- f_3_2124863330 -->
<g id="node69" class="node">
<title>f_3_2124863330</title>
<text text-anchor="middle" x="2660" y="-750.3" font-family="Latin Modern Roman" font-size="14.00">fn_decode_ecdh_params</text>
</g>
<!-- f_3_2858689848&#45;&gt;f_3_2124863330 -->
<g id="edge65" class="edge">
<title>f_3_2858689848&#45;&gt;f_3_2124863330</title>
<path fill="none" stroke="black" d="M2675.06,-807.7C2672.83,-799.9 2670.15,-790.51 2667.67,-781.83"/>
<polygon fill="black" stroke="black" points="2671,-780.76 2664.89,-772.1 2664.27,-782.68 2671,-780.76"/>
</g>
<!-- v_3_210685205 -->
<g id="node70" class="node">
<title>v_3_210685205</title>
<text text-anchor="middle" x="2619" y="-678.3" font-family="Latin Modern Roman" font-size="14.00">(0, 0)[Some(Handshake(Some(ServerKeyExchange)))]/Vec&lt;u8&gt;</text>
</g>
<!-- f_3_2124863330&#45;&gt;v_3_210685205 -->
<g id="edge66" class="edge">
<title>f_3_2124863330&#45;&gt;v_3_210685205</title>
<path fill="none" stroke="black" d="M2649.87,-735.7C2645.15,-727.64 2639.44,-717.89 2634.22,-708.98"/>
<polygon fill="black" stroke="black" points="2637.09,-706.96 2629.02,-700.1 2631.05,-710.5 2637.09,-706.96"/>
</g>
<!-- v_3_425779698 -->
<g id="node73" class="node">
<title>v_3_425779698</title>
<text text-anchor="middle" x="2619" y="-1038.3" font-family="Latin Modern Roman" font-size="14.00">(0, 0)[Some(Handshake(Some(ServerKeyExchange)))]/Vec&lt;u8&gt;</text>
</g>
<!-- f_3_776400114&#45;&gt;v_3_425779698 -->
<g id="edge69" class="edge">
<title>f_3_776400114&#45;&gt;v_3_425779698</title>
<path fill="none" stroke="black" d="M2629.54,-1095.7C2628,-1087.98 2626.14,-1078.71 2624.42,-1070.11"/>
<polygon fill="black" stroke="black" points="2627.81,-1069.22 2622.42,-1060.1 2620.95,-1070.6 2627.81,-1069.22"/>
</g>
</g>
</svg>
