<?xml version="1.0" encoding="UTF-8" standalone="no"?>
<!DOCTYPE svg PUBLIC "-//W3C//DTD SVG 1.1//EN"
 "http://www.w3.org/Graphics/SVG/1.1/DTD/svg11.dtd">
<!-- Generated by graphviz version 2.47.2 (0)
 -->
<!-- Pages: 1 -->
<svg width="965pt" height="1251pt"
 viewBox="0.00 0.00 965.00 1251.00" xmlns="http://www.w3.org/2000/svg" xmlns:xlink="http://www.w3.org/1999/xlink">
<g id="graph0" class="graph" transform="scale(1 1) rotate(0) translate(4 1247)">
<polygon fill="white" stroke="transparent" points="-4,4 -4,-1247 961,-1247 961,4 -4,4"/>
<g id="clust1" class="cluster">
<title>cluster4</title>
<polygon fill="none" stroke="black" points="8,-8 8,-1235 949,-1235 949,-8 8,-8"/>
<text text-anchor="middle" x="478.5" y="-1219.8" font-family="Times,serif" font-size="14.00">Step #4 (Agent &#160;1)</text>
</g>
<!-- f_4_2392195421 -->
<g id="node1" class="node">
<title>f_4_2392195421</title>
<polygon fill="#d95f02" stroke="black" points="617,-1204 507,-1204 507,-1168 617,-1168 617,-1204"/>
<text text-anchor="middle" x="562" y="-1182.3" font-family="Times,serif" font-size="14.00">fn_encrypt12</text>
</g>
<!-- f_4_1323950083 -->
<g id="node2" class="node">
<title>f_4_1323950083</title>
<polygon fill="#d95f02" stroke="black" points="378.5,-1132 265.5,-1132 265.5,-1096 378.5,-1096 378.5,-1132"/>
<text text-anchor="middle" x="322" y="-1110.3" font-family="Times,serif" font-size="14.00">fn_finished12</text>
</g>
<!-- f_4_2392195421&#45;&gt;f_4_1323950083 -->
<g id="edge1" class="edge">
<title>f_4_2392195421&#45;&gt;f_4_1323950083</title>
<path fill="none" stroke="black" d="M506.94,-1168.94C471.75,-1158.68 425.9,-1145.3 388.65,-1134.44"/>
<polygon fill="black" stroke="black" points="389.47,-1131.03 378.89,-1131.59 387.51,-1137.75 389.47,-1131.03"/>
</g>
<!-- v_4_3135309434 -->
<g id="node42" class="node">
<title>v_4_3135309434</title>
<ellipse fill="#1b9e77" stroke="black" cx="470" cy="-1114" rx="73.39" ry="18"/>
<text text-anchor="middle" x="470" y="-1110.3" font-family="Times,serif" font-size="14.00">(0,0)/Random</text>
</g>
<!-- f_4_2392195421&#45;&gt;v_4_3135309434 -->
<g id="edge41" class="edge">
<title>f_4_2392195421&#45;&gt;v_4_3135309434</title>
<path fill="none" stroke="black" d="M539.26,-1167.7C527.3,-1158.6 512.49,-1147.33 499.64,-1137.55"/>
<polygon fill="black" stroke="black" points="501.61,-1134.65 491.53,-1131.38 497.37,-1140.22 501.61,-1134.65"/>
</g>
<!-- f_4_2822352487 -->
<g id="node43" class="node">
<title>f_4_2822352487</title>
<polygon fill="#d95f02" stroke="black" points="749,-1132 561,-1132 561,-1096 749,-1096 749,-1132"/>
<text text-anchor="middle" x="655" y="-1110.3" font-family="Times,serif" font-size="14.00">fn_decode_ecdh_params</text>
</g>
<!-- f_4_2392195421&#45;&gt;f_4_2822352487 -->
<g id="edge42" class="edge">
<title>f_4_2392195421&#45;&gt;f_4_2822352487</title>
<path fill="none" stroke="black" d="M584.99,-1167.7C596.81,-1158.8 611.39,-1147.82 624.18,-1138.2"/>
<polygon fill="black" stroke="black" points="626.39,-1140.91 632.28,-1132.1 622.18,-1135.32 626.39,-1140.91"/>
</g>
<!-- f_4_958428084 -->
<g id="node45" class="node">
<title>f_4_958428084</title>
<polygon fill="#1b9e77" stroke="black" points="845,-1132 767,-1132 767,-1096 845,-1096 845,-1132"/>
<text text-anchor="middle" x="806" y="-1110.3" font-family="Times,serif" font-size="14.00">fn_seq_0</text>
</g>
<!-- f_4_2392195421&#45;&gt;f_4_958428084 -->
<g id="edge44" class="edge">
<title>f_4_2392195421&#45;&gt;f_4_958428084</title>
<path fill="none" stroke="black" d="M617.24,-1171.26C654.37,-1161.75 704.59,-1148.37 756.98,-1132.21"/>
<polygon fill="black" stroke="black" points="758.28,-1135.47 766.79,-1129.16 756.2,-1128.79 758.28,-1135.47"/>
</g>
<!-- f_4_954875043 -->
<g id="node3" class="node">
<title>f_4_954875043</title>
<polygon fill="#d95f02" stroke="black" points="395,-1060 249,-1060 249,-1024 395,-1024 395,-1060"/>
<text text-anchor="middle" x="322" y="-1038.3" font-family="Times,serif" font-size="14.00">fn_sign_transcript</text>
</g>
<!-- f_4_1323950083&#45;&gt;f_4_954875043 -->
<g id="edge2" class="edge">
<title>f_4_1323950083&#45;&gt;f_4_954875043</title>
<path fill="none" stroke="black" d="M322,-1095.7C322,-1087.98 322,-1078.71 322,-1070.11"/>
<polygon fill="black" stroke="black" points="325.5,-1070.1 322,-1060.1 318.5,-1070.1 325.5,-1070.1"/>
</g>
<!-- v_4_3928175146 -->
<g id="node4" class="node">
<title>v_4_3928175146</title>
<ellipse fill="#1b9e77" stroke="black" cx="137" cy="-970" rx="73.39" ry="18"/>
<text text-anchor="middle" x="137" y="-966.3" font-family="Times,serif" font-size="14.00">(0,0)/Random</text>
</g>
<!-- f_4_954875043&#45;&gt;v_4_3928175146 -->
<g id="edge3" class="edge">
<title>f_4_954875043&#45;&gt;v_4_3928175146</title>
<path fill="none" stroke="black" d="M276.74,-1023.88C248.9,-1013.34 213.25,-999.85 184.92,-989.13"/>
<polygon fill="black" stroke="black" points="185.82,-985.73 175.23,-985.47 183.35,-992.28 185.82,-985.73"/>
</g>
<!-- f_4_2537467315 -->
<g id="node5" class="node">
<title>f_4_2537467315</title>
<polygon fill="#d95f02" stroke="black" points="416,-988 228,-988 228,-952 416,-952 416,-988"/>
<text text-anchor="middle" x="322" y="-966.3" font-family="Times,serif" font-size="14.00">fn_decode_ecdh_params</text>
</g>
<!-- f_4_954875043&#45;&gt;f_4_2537467315 -->
<g id="edge4" class="edge">
<title>f_4_954875043&#45;&gt;f_4_2537467315</title>
<path fill="none" stroke="black" d="M322,-1023.7C322,-1015.98 322,-1006.71 322,-998.11"/>
<polygon fill="black" stroke="black" points="325.5,-998.1 322,-988.1 318.5,-998.1 325.5,-998.1"/>
</g>
<!-- f_4_93908516 -->
<g id="node7" class="node">
<title>f_4_93908516</title>
<polygon fill="#d95f02" stroke="black" points="602,-988 434,-988 434,-952 602,-952 602,-988"/>
<text text-anchor="middle" x="518" y="-966.3" font-family="Times,serif" font-size="14.00">fn_append_transcript</text>
</g>
<!-- f_4_954875043&#45;&gt;f_4_93908516 -->
<g id="edge6" class="edge">
<title>f_4_954875043&#45;&gt;f_4_93908516</title>
<path fill="none" stroke="black" d="M369.7,-1023.97C397.08,-1014.19 431.66,-1001.84 460.53,-991.52"/>
<polygon fill="black" stroke="black" points="461.85,-994.77 470.09,-988.11 459.5,-988.18 461.85,-994.77"/>
</g>
<!-- v_4_1199419838 -->
<g id="node6" class="node">
<title>v_4_1199419838</title>
<ellipse fill="#1b9e77" stroke="black" cx="322" cy="-898" rx="78.79" ry="18"/>
<text text-anchor="middle" x="322" y="-894.3" font-family="Times,serif" font-size="14.00">(0,2)/Vec&lt;u8&gt;</text>
</g>
<!-- f_4_2537467315&#45;&gt;v_4_1199419838 -->
<g id="edge5" class="edge">
<title>f_4_2537467315&#45;&gt;v_4_1199419838</title>
<path fill="none" stroke="black" d="M322,-951.7C322,-943.98 322,-934.71 322,-926.11"/>
<polygon fill="black" stroke="black" points="325.5,-926.1 322,-916.1 318.5,-926.1 325.5,-926.1"/>
</g>
<!-- f_4_4175770024 -->
<g id="node8" class="node">
<title>f_4_4175770024</title>
<polygon fill="#d95f02" stroke="black" points="594,-916 426,-916 426,-880 594,-880 594,-916"/>
<text text-anchor="middle" x="510" y="-894.3" font-family="Times,serif" font-size="14.00">fn_append_transcript</text>
</g>
<!-- f_4_93908516&#45;&gt;f_4_4175770024 -->
<g id="edge7" class="edge">
<title>f_4_93908516&#45;&gt;f_4_4175770024</title>
<path fill="none" stroke="black" d="M516.02,-951.7C515.14,-943.98 514.08,-934.71 513.1,-926.11"/>
<polygon fill="black" stroke="black" points="516.57,-925.64 511.95,-916.1 509.61,-926.44 516.57,-925.64"/>
</g>
<!-- f_4_2715588477 -->
<g id="node38" class="node">
<title>f_4_2715588477</title>
<polygon fill="#d95f02" stroke="black" points="795.5,-916 612.5,-916 612.5,-880 795.5,-880 795.5,-916"/>
<text text-anchor="middle" x="704" y="-894.3" font-family="Times,serif" font-size="14.00">fn_client_key_exchange</text>
</g>
<!-- f_4_93908516&#45;&gt;f_4_2715588477 -->
<g id="edge37" class="edge">
<title>f_4_93908516&#45;&gt;f_4_2715588477</title>
<path fill="none" stroke="black" d="M563.5,-951.88C589.38,-942.14 621.97,-929.87 649.24,-919.61"/>
<polygon fill="black" stroke="black" points="650.52,-922.87 658.65,-916.07 648.06,-916.31 650.52,-922.87"/>
</g>
<!-- f_4_1027928037 -->
<g id="node9" class="node">
<title>f_4_1027928037</title>
<polygon fill="#d95f02" stroke="black" points="419,-844 251,-844 251,-808 419,-808 419,-844"/>
<text text-anchor="middle" x="335" y="-822.3" font-family="Times,serif" font-size="14.00">fn_append_transcript</text>
</g>
<!-- f_4_4175770024&#45;&gt;f_4_1027928037 -->
<g id="edge8" class="edge">
<title>f_4_4175770024&#45;&gt;f_4_1027928037</title>
<path fill="none" stroke="black" d="M467.19,-879.88C443.05,-870.22 412.72,-858.09 387.19,-847.88"/>
<polygon fill="black" stroke="black" points="388.26,-844.53 377.67,-844.07 385.66,-851.03 388.26,-844.53"/>
</g>
<!-- v_4_1333780076 -->
<g id="node37" class="node">
<title>v_4_1333780076</title>
<ellipse fill="#1b9e77" stroke="black" cx="513" cy="-826" rx="76.09" ry="18"/>
<text text-anchor="middle" x="513" y="-822.3" font-family="Times,serif" font-size="14.00">(0,3)/Message</text>
</g>
<!-- f_4_4175770024&#45;&gt;v_4_1333780076 -->
<g id="edge36" class="edge">
<title>f_4_4175770024&#45;&gt;v_4_1333780076</title>
<path fill="none" stroke="black" d="M510.74,-879.7C511.07,-871.98 511.47,-862.71 511.84,-854.11"/>
<polygon fill="black" stroke="black" points="515.34,-854.25 512.27,-844.1 508.34,-853.95 515.34,-854.25"/>
</g>
<!-- f_4_3012260088 -->
<g id="node10" class="node">
<title>f_4_3012260088</title>
<polygon fill="#d95f02" stroke="black" points="411,-772 243,-772 243,-736 411,-736 411,-772"/>
<text text-anchor="middle" x="327" y="-750.3" font-family="Times,serif" font-size="14.00">fn_append_transcript</text>
</g>
<!-- f_4_1027928037&#45;&gt;f_4_3012260088 -->
<g id="edge9" class="edge">
<title>f_4_1027928037&#45;&gt;f_4_3012260088</title>
<path fill="none" stroke="black" d="M333.02,-807.7C332.14,-799.98 331.08,-790.71 330.1,-782.11"/>
<polygon fill="black" stroke="black" points="333.57,-781.64 328.95,-772.1 326.61,-782.44 333.57,-781.64"/>
</g>
<!-- v_4_1896381391 -->
<g id="node36" class="node">
<title>v_4_1896381391</title>
<ellipse fill="#1b9e77" stroke="black" cx="505" cy="-754" rx="76.09" ry="18"/>
<text text-anchor="middle" x="505" y="-750.3" font-family="Times,serif" font-size="14.00">(0,2)/Message</text>
</g>
<!-- f_4_1027928037&#45;&gt;v_4_1896381391 -->
<g id="edge35" class="edge">
<title>f_4_1027928037&#45;&gt;v_4_1896381391</title>
<path fill="none" stroke="black" d="M376.59,-807.88C401.6,-797.58 433.48,-784.45 459.21,-773.86"/>
<polygon fill="black" stroke="black" points="460.83,-776.97 468.74,-769.93 458.16,-770.5 460.83,-776.97"/>
</g>
<!-- f_4_2977609414 -->
<g id="node11" class="node">
<title>f_4_2977609414</title>
<polygon fill="#d95f02" stroke="black" points="396,-700 228,-700 228,-664 396,-664 396,-700"/>
<text text-anchor="middle" x="312" y="-678.3" font-family="Times,serif" font-size="14.00">fn_append_transcript</text>
</g>
<!-- f_4_3012260088&#45;&gt;f_4_2977609414 -->
<g id="edge10" class="edge">
<title>f_4_3012260088&#45;&gt;f_4_2977609414</title>
<path fill="none" stroke="black" d="M323.29,-735.7C321.64,-727.98 319.65,-718.71 317.81,-710.11"/>
<polygon fill="black" stroke="black" points="321.18,-709.15 315.67,-700.1 314.34,-710.62 321.18,-709.15"/>
</g>
<!-- v_4_2273247240 -->
<g id="node35" class="node">
<title>v_4_2273247240</title>
<ellipse fill="#1b9e77" stroke="black" cx="490" cy="-682" rx="76.09" ry="18"/>
<text text-anchor="middle" x="490" y="-678.3" font-family="Times,serif" font-size="14.00">(0,1)/Message</text>
</g>
<!-- f_4_3012260088&#45;&gt;v_4_2273247240 -->
<g id="edge34" class="edge">
<title>f_4_3012260088&#45;&gt;v_4_2273247240</title>
<path fill="none" stroke="black" d="M366.87,-735.88C390.67,-725.66 420.94,-712.66 445.51,-702.11"/>
<polygon fill="black" stroke="black" points="447.16,-705.21 454.97,-698.05 444.4,-698.78 447.16,-705.21"/>
</g>
<!-- f_4_3647806378 -->
<g id="node12" class="node">
<title>f_4_3647806378</title>
<polygon fill="#d95f02" stroke="black" points="366,-628 198,-628 198,-592 366,-592 366,-628"/>
<text text-anchor="middle" x="282" y="-606.3" font-family="Times,serif" font-size="14.00">fn_append_transcript</text>
</g>
<!-- f_4_2977609414&#45;&gt;f_4_3647806378 -->
<g id="edge11" class="edge">
<title>f_4_2977609414&#45;&gt;f_4_3647806378</title>
<path fill="none" stroke="black" d="M304.58,-663.7C301.21,-655.81 297.13,-646.3 293.38,-637.55"/>
<polygon fill="black" stroke="black" points="296.49,-635.92 289.33,-628.1 290.05,-638.67 296.49,-635.92"/>
</g>
<!-- v_4_3282142310 -->
<g id="node34" class="node">
<title>v_4_3282142310</title>
<ellipse fill="#1b9e77" stroke="black" cx="460" cy="-610" rx="76.09" ry="18"/>
<text text-anchor="middle" x="460" y="-606.3" font-family="Times,serif" font-size="14.00">(0,0)/Message</text>
</g>
<!-- f_4_2977609414&#45;&gt;v_4_3282142310 -->
<g id="edge33" class="edge">
<title>f_4_2977609414&#45;&gt;v_4_3282142310</title>
<path fill="none" stroke="black" d="M348.2,-663.88C369.32,-653.89 396.05,-641.25 418.08,-630.83"/>
<polygon fill="black" stroke="black" points="419.66,-633.95 427.2,-626.51 416.66,-627.63 419.66,-633.95"/>
</g>
<!-- f_4_1973554349 -->
<g id="node13" class="node">
<title>f_4_1973554349</title>
<polygon fill="#1b9e77" stroke="black" points="355.5,-556 192.5,-556 192.5,-520 355.5,-520 355.5,-556"/>
<text text-anchor="middle" x="274" y="-534.3" font-family="Times,serif" font-size="14.00">fn_new_transcript12</text>
</g>
<!-- f_4_3647806378&#45;&gt;f_4_1973554349 -->
<g id="edge12" class="edge">
<title>f_4_3647806378&#45;&gt;f_4_1973554349</title>
<path fill="none" stroke="black" d="M280.02,-591.7C279.14,-583.98 278.08,-574.71 277.1,-566.11"/>
<polygon fill="black" stroke="black" points="280.57,-565.64 275.95,-556.1 273.61,-566.44 280.57,-565.64"/>
</g>
<!-- f_4_256345868 -->
<g id="node14" class="node">
<title>f_4_256345868</title>
<polygon fill="#d95f02" stroke="black" points="492.5,-556 373.5,-556 373.5,-520 492.5,-520 492.5,-556"/>
<text text-anchor="middle" x="433" y="-534.3" font-family="Times,serif" font-size="14.00">fn_client_hello</text>
</g>
<!-- f_4_3647806378&#45;&gt;f_4_256345868 -->
<g id="edge13" class="edge">
<title>f_4_3647806378&#45;&gt;f_4_256345868</title>
<path fill="none" stroke="black" d="M318.94,-591.88C339.49,-582.35 365.25,-570.41 387.09,-560.28"/>
<polygon fill="black" stroke="black" points="388.58,-563.45 396.18,-556.07 385.64,-557.1 388.58,-563.45"/>
</g>
<!-- f_4_3671973903 -->
<g id="node15" class="node">
<title>f_4_3671973903</title>
<polygon fill="#1b9e77" stroke="black" points="189.5,-484 16.5,-484 16.5,-448 189.5,-448 189.5,-484"/>
<text text-anchor="middle" x="103" y="-462.3" font-family="Times,serif" font-size="14.00">fn_protocol_version12</text>
</g>
<!-- f_4_256345868&#45;&gt;f_4_3671973903 -->
<g id="edge14" class="edge">
<title>f_4_256345868&#45;&gt;f_4_3671973903</title>
<path fill="none" stroke="black" d="M373.33,-521.92C370.52,-521.26 367.73,-520.62 365,-520 310.48,-507.68 249.26,-495.22 199.72,-485.48"/>
<polygon fill="black" stroke="black" points="200.14,-481.99 189.65,-483.5 198.79,-488.86 200.14,-481.99"/>
</g>
<!-- f_4_2419889074 -->
<g id="node16" class="node">
<title>f_4_2419889074</title>
<polygon fill="#1b9e77" stroke="black" points="300,-484 208,-484 208,-448 300,-448 300,-484"/>
<text text-anchor="middle" x="254" y="-462.3" font-family="Times,serif" font-size="14.00">fn_random</text>
</g>
<!-- f_4_256345868&#45;&gt;f_4_2419889074 -->
<g id="edge15" class="edge">
<title>f_4_256345868&#45;&gt;f_4_2419889074</title>
<path fill="none" stroke="black" d="M389.21,-519.88C364.42,-510.18 333.22,-497.98 307.04,-487.74"/>
<polygon fill="black" stroke="black" points="308.23,-484.45 297.65,-484.07 305.68,-490.97 308.23,-484.45"/>
</g>
<!-- f_4_2437094244 -->
<g id="node17" class="node">
<title>f_4_2437094244</title>
<polygon fill="#1b9e77" stroke="black" points="428,-484 318,-484 318,-448 428,-448 428,-484"/>
<text text-anchor="middle" x="373" y="-462.3" font-family="Times,serif" font-size="14.00">fn_session_id</text>
</g>
<!-- f_4_256345868&#45;&gt;f_4_2437094244 -->
<g id="edge16" class="edge">
<title>f_4_256345868&#45;&gt;f_4_2437094244</title>
<path fill="none" stroke="black" d="M418.17,-519.7C410.98,-511.3 402.2,-501.07 394.31,-491.86"/>
<polygon fill="black" stroke="black" points="396.83,-489.42 387.66,-484.1 391.51,-493.97 396.83,-489.42"/>
</g>
<!-- f_4_3575123963 -->
<g id="node18" class="node">
<title>f_4_3575123963</title>
<polygon fill="#1b9e77" stroke="black" points="596,-484 446,-484 446,-448 596,-448 596,-484"/>
<text text-anchor="middle" x="521" y="-462.3" font-family="Times,serif" font-size="14.00">fn_cipher_suites12</text>
</g>
<!-- f_4_256345868&#45;&gt;f_4_3575123963 -->
<g id="edge17" class="edge">
<title>f_4_256345868&#45;&gt;f_4_3575123963</title>
<path fill="none" stroke="black" d="M454.75,-519.7C465.84,-510.88 479.47,-500.03 491.49,-490.47"/>
<polygon fill="black" stroke="black" points="493.85,-493.07 499.5,-484.1 489.49,-487.59 493.85,-493.07"/>
</g>
<!-- f_4_110949674 -->
<g id="node19" class="node">
<title>f_4_110949674</title>
<polygon fill="#1b9e77" stroke="black" points="749.5,-484 614.5,-484 614.5,-448 749.5,-448 749.5,-484"/>
<text text-anchor="middle" x="682" y="-462.3" font-family="Times,serif" font-size="14.00">fn_compressions</text>
</g>
<!-- f_4_256345868&#45;&gt;f_4_110949674 -->
<g id="edge18" class="edge">
<title>f_4_256345868&#45;&gt;f_4_110949674</title>
<path fill="none" stroke="black" d="M492.64,-520.23C528.3,-510.21 573.81,-497.41 611.28,-486.88"/>
<polygon fill="black" stroke="black" points="612.44,-490.19 621.12,-484.12 610.54,-483.45 612.44,-490.19"/>
</g>
<!-- f_4_3370772136 -->
<g id="node20" class="node">
<title>f_4_3370772136</title>
<polygon fill="#d95f02" stroke="black" points="940.5,-484 767.5,-484 767.5,-448 940.5,-448 940.5,-484"/>
<text text-anchor="middle" x="854" y="-462.3" font-family="Times,serif" font-size="14.00">fn_extensions_append</text>
</g>
<!-- f_4_256345868&#45;&gt;f_4_3370772136 -->
<g id="edge19" class="edge">
<title>f_4_256345868&#45;&gt;f_4_3370772136</title>
<path fill="none" stroke="black" d="M492.53,-527.61C555.76,-517.58 658.89,-501.02 757.18,-484.3"/>
<polygon fill="black" stroke="black" points="758.02,-487.71 767.29,-482.58 756.84,-480.81 758.02,-487.71"/>
</g>
<!-- f_4_837149001 -->
<g id="node21" class="node">
<title>f_4_837149001</title>
<polygon fill="#d95f02" stroke="black" points="724.5,-412 551.5,-412 551.5,-376 724.5,-376 724.5,-412"/>
<text text-anchor="middle" x="638" y="-390.3" font-family="Times,serif" font-size="14.00">fn_extensions_append</text>
</g>
<!-- f_4_3370772136&#45;&gt;f_4_837149001 -->
<g id="edge20" class="edge">
<title>f_4_3370772136&#45;&gt;f_4_837149001</title>
<path fill="none" stroke="black" d="M801.44,-447.97C770.99,-438.1 732.49,-425.62 700.5,-415.25"/>
<polygon fill="black" stroke="black" points="701.39,-411.86 690.8,-412.11 699.23,-418.52 701.39,-411.86"/>
</g>
<!-- f_4_2391278571 -->
<g id="node32" class="node">
<title>f_4_2391278571</title>
<polygon fill="#d95f02" stroke="black" points="939.5,-412 772.5,-412 772.5,-376 939.5,-376 939.5,-412"/>
<text text-anchor="middle" x="856" y="-390.3" font-family="Times,serif" font-size="14.00">fn_renegotiation_info</text>
</g>
<!-- f_4_3370772136&#45;&gt;f_4_2391278571 -->
<g id="edge31" class="edge">
<title>f_4_3370772136&#45;&gt;f_4_2391278571</title>
<path fill="none" stroke="black" d="M854.49,-447.7C854.71,-439.98 854.98,-430.71 855.23,-422.11"/>
<polygon fill="black" stroke="black" points="858.72,-422.2 855.51,-412.1 851.73,-422 858.72,-422.2"/>
</g>
<!-- f_4_1588412843 -->
<g id="node22" class="node">
<title>f_4_1588412843</title>
<polygon fill="#d95f02" stroke="black" points="495.5,-340 322.5,-340 322.5,-304 495.5,-304 495.5,-340"/>
<text text-anchor="middle" x="409" y="-318.3" font-family="Times,serif" font-size="14.00">fn_extensions_append</text>
</g>
<!-- f_4_837149001&#45;&gt;f_4_1588412843 -->
<g id="edge21" class="edge">
<title>f_4_837149001&#45;&gt;f_4_1588412843</title>
<path fill="none" stroke="black" d="M582.27,-375.97C549.86,-366.06 508.82,-353.51 474.82,-343.12"/>
<polygon fill="black" stroke="black" points="475.56,-339.69 464.98,-340.11 473.52,-346.38 475.56,-339.69"/>
</g>
<!-- f_4_2135391322 -->
<g id="node31" class="node">
<title>f_4_2135391322</title>
<polygon fill="#1b9e77" stroke="black" points="762,-340 514,-340 514,-304 762,-304 762,-340"/>
<text text-anchor="middle" x="638" y="-318.3" font-family="Times,serif" font-size="14.00">fn_signed_certificate_timestamp</text>
</g>
<!-- f_4_837149001&#45;&gt;f_4_2135391322 -->
<g id="edge30" class="edge">
<title>f_4_837149001&#45;&gt;f_4_2135391322</title>
<path fill="none" stroke="black" d="M638,-375.7C638,-367.98 638,-358.71 638,-350.11"/>
<polygon fill="black" stroke="black" points="641.5,-350.1 638,-340.1 634.5,-350.1 641.5,-350.1"/>
</g>
<!-- f_4_1397123389 -->
<g id="node23" class="node">
<title>f_4_1397123389</title>
<polygon fill="#d95f02" stroke="black" points="470.5,-268 297.5,-268 297.5,-232 470.5,-232 470.5,-268"/>
<text text-anchor="middle" x="384" y="-246.3" font-family="Times,serif" font-size="14.00">fn_extensions_append</text>
</g>
<!-- f_4_1588412843&#45;&gt;f_4_1397123389 -->
<g id="edge22" class="edge">
<title>f_4_1588412843&#45;&gt;f_4_1397123389</title>
<path fill="none" stroke="black" d="M402.82,-303.7C400,-295.81 396.61,-286.3 393.48,-277.55"/>
<polygon fill="black" stroke="black" points="396.77,-276.34 390.11,-268.1 390.18,-278.7 396.77,-276.34"/>
</g>
<!-- f_4_1945816305 -->
<g id="node30" class="node">
<title>f_4_1945816305</title>
<polygon fill="#1b9e77" stroke="black" points="781.5,-268 488.5,-268 488.5,-232 781.5,-232 781.5,-268"/>
<text text-anchor="middle" x="635" y="-246.3" font-family="Times,serif" font-size="14.00">fn_signature_algorithm_cert_extension</text>
</g>
<!-- f_4_1588412843&#45;&gt;f_4_1945816305 -->
<g id="edge29" class="edge">
<title>f_4_1588412843&#45;&gt;f_4_1945816305</title>
<path fill="none" stroke="black" d="M464,-303.97C495.99,-294.06 536.48,-281.51 570.04,-271.12"/>
<polygon fill="black" stroke="black" points="571.24,-274.41 579.76,-268.11 569.17,-267.73 571.24,-274.41"/>
</g>
<!-- f_4_1849902054 -->
<g id="node24" class="node">
<title>f_4_1849902054</title>
<polygon fill="#d95f02" stroke="black" points="420.5,-196 247.5,-196 247.5,-160 420.5,-160 420.5,-196"/>
<text text-anchor="middle" x="334" y="-174.3" font-family="Times,serif" font-size="14.00">fn_extensions_append</text>
</g>
<!-- f_4_1397123389&#45;&gt;f_4_1849902054 -->
<g id="edge23" class="edge">
<title>f_4_1397123389&#45;&gt;f_4_1849902054</title>
<path fill="none" stroke="black" d="M371.64,-231.7C365.77,-223.47 358.63,-213.48 352.16,-204.42"/>
<polygon fill="black" stroke="black" points="354.88,-202.21 346.22,-196.1 349.18,-206.28 354.88,-202.21"/>
</g>
<!-- f_4_3340781917 -->
<g id="node29" class="node">
<title>f_4_3340781917</title>
<polygon fill="#1b9e77" stroke="black" points="597.5,-196 438.5,-196 438.5,-160 597.5,-160 597.5,-196"/>
<text text-anchor="middle" x="518" y="-174.3" font-family="Times,serif" font-size="14.00">fn_ec_point_formats</text>
</g>
<!-- f_4_1397123389&#45;&gt;f_4_3340781917 -->
<g id="edge28" class="edge">
<title>f_4_1397123389&#45;&gt;f_4_3340781917</title>
<path fill="none" stroke="black" d="M416.78,-231.88C434.63,-222.55 456.9,-210.92 476,-200.94"/>
<polygon fill="black" stroke="black" points="477.85,-203.92 485.09,-196.19 474.61,-197.72 477.85,-203.92"/>
</g>
<!-- f_4_373120507 -->
<g id="node25" class="node">
<title>f_4_373120507</title>
<polygon fill="#d95f02" stroke="black" points="320.5,-124 147.5,-124 147.5,-88 320.5,-88 320.5,-124"/>
<text text-anchor="middle" x="234" y="-102.3" font-family="Times,serif" font-size="14.00">fn_extensions_append</text>
</g>
<!-- f_4_1849902054&#45;&gt;f_4_373120507 -->
<g id="edge24" class="edge">
<title>f_4_1849902054&#45;&gt;f_4_373120507</title>
<path fill="none" stroke="black" d="M309.54,-159.88C296.7,-150.89 280.8,-139.76 266.91,-130.03"/>
<polygon fill="black" stroke="black" points="268.76,-127.06 258.56,-124.19 264.74,-132.79 268.76,-127.06"/>
</g>
<!-- f_4_1945680853 -->
<g id="node28" class="node">
<title>f_4_1945680853</title>
<polygon fill="#1b9e77" stroke="black" points="597,-124 339,-124 339,-88 597,-88 597,-124"/>
<text text-anchor="middle" x="468" y="-102.3" font-family="Times,serif" font-size="14.00">fn_signature_algorithm_extension</text>
</g>
<!-- f_4_1849902054&#45;&gt;f_4_1945680853 -->
<g id="edge27" class="edge">
<title>f_4_1849902054&#45;&gt;f_4_1945680853</title>
<path fill="none" stroke="black" d="M366.78,-159.88C384.63,-150.55 406.9,-138.92 426,-128.94"/>
<polygon fill="black" stroke="black" points="427.85,-131.92 435.09,-124.19 424.61,-125.72 427.85,-131.92"/>
</g>
<!-- f_4_4082605847 -->
<g id="node26" class="node">
<title>f_4_4082605847</title>
<polygon fill="#1b9e77" stroke="black" points="193,-52 43,-52 43,-16 193,-16 193,-52"/>
<text text-anchor="middle" x="118" y="-30.3" font-family="Times,serif" font-size="14.00">fn_extensions_new</text>
</g>
<!-- f_4_373120507&#45;&gt;f_4_4082605847 -->
<g id="edge25" class="edge">
<title>f_4_373120507&#45;&gt;f_4_4082605847</title>
<path fill="none" stroke="black" d="M205.62,-87.88C190.46,-78.72 171.59,-67.34 155.26,-57.48"/>
<polygon fill="black" stroke="black" points="156.86,-54.36 146.49,-52.19 153.24,-60.35 156.86,-54.36"/>
</g>
<!-- f_4_3653605105 -->
<g id="node27" class="node">
<title>f_4_3653605105</title>
<polygon fill="#1b9e77" stroke="black" points="489,-52 211,-52 211,-16 489,-16 489,-52"/>
<text text-anchor="middle" x="350" y="-30.3" font-family="Times,serif" font-size="14.00">fn_x25519_support_group_extension</text>
</g>
<!-- f_4_373120507&#45;&gt;f_4_3653605105 -->
<g id="edge26" class="edge">
<title>f_4_373120507&#45;&gt;f_4_3653605105</title>
<path fill="none" stroke="black" d="M262.38,-87.88C277.54,-78.72 296.41,-67.34 312.74,-57.48"/>
<polygon fill="black" stroke="black" points="314.76,-60.35 321.51,-52.19 311.14,-54.36 314.76,-60.35"/>
</g>
<!-- f_4_2251615371 -->
<g id="node33" class="node">
<title>f_4_2251615371</title>
<polygon fill="#1b9e77" stroke="black" points="939.5,-340 780.5,-340 780.5,-304 939.5,-304 939.5,-340"/>
<text text-anchor="middle" x="860" y="-318.3" font-family="Times,serif" font-size="14.00">fn_empty_bytes_vec</text>
</g>
<!-- f_4_2391278571&#45;&gt;f_4_2251615371 -->
<g id="edge32" class="edge">
<title>f_4_2391278571&#45;&gt;f_4_2251615371</title>
<path fill="none" stroke="black" d="M856.99,-375.7C857.43,-367.98 857.96,-358.71 858.45,-350.11"/>
<polygon fill="black" stroke="black" points="861.95,-350.29 859.02,-340.1 854.96,-349.89 861.95,-350.29"/>
</g>
<!-- f_4_350267339 -->
<g id="node39" class="node">
<title>f_4_350267339</title>
<polygon fill="#d95f02" stroke="black" points="775.5,-844 632.5,-844 632.5,-808 775.5,-808 775.5,-844"/>
<text text-anchor="middle" x="704" y="-822.3" font-family="Times,serif" font-size="14.00">fn_new_pubkey12</text>
</g>
<!-- f_4_2715588477&#45;&gt;f_4_350267339 -->
<g id="edge38" class="edge">
<title>f_4_2715588477&#45;&gt;f_4_350267339</title>
<path fill="none" stroke="black" d="M704,-879.7C704,-871.98 704,-862.71 704,-854.11"/>
<polygon fill="black" stroke="black" points="707.5,-854.1 704,-844.1 700.5,-854.1 707.5,-854.1"/>
</g>
<!-- f_4_2997207714 -->
<g id="node40" class="node">
<title>f_4_2997207714</title>
<polygon fill="#d95f02" stroke="black" points="798,-772 610,-772 610,-736 798,-736 798,-772"/>
<text text-anchor="middle" x="704" y="-750.3" font-family="Times,serif" font-size="14.00">fn_decode_ecdh_params</text>
</g>
<!-- f_4_350267339&#45;&gt;f_4_2997207714 -->
<g id="edge39" class="edge">
<title>f_4_350267339&#45;&gt;f_4_2997207714</title>
<path fill="none" stroke="black" d="M704,-807.7C704,-799.98 704,-790.71 704,-782.11"/>
<polygon fill="black" stroke="black" points="707.5,-782.1 704,-772.1 700.5,-782.1 707.5,-782.1"/>
</g>
<!-- v_4_4064503357 -->
<g id="node41" class="node">
<title>v_4_4064503357</title>
<ellipse fill="#1b9e77" stroke="black" cx="704" cy="-682" rx="78.79" ry="18"/>
<text text-anchor="middle" x="704" y="-678.3" font-family="Times,serif" font-size="14.00">(0,2)/Vec&lt;u8&gt;</text>
</g>
<!-- f_4_2997207714&#45;&gt;v_4_4064503357 -->
<g id="edge40" class="edge">
<title>f_4_2997207714&#45;&gt;v_4_4064503357</title>
<path fill="none" stroke="black" d="M704,-735.7C704,-727.98 704,-718.71 704,-710.11"/>
<polygon fill="black" stroke="black" points="707.5,-710.1 704,-700.1 700.5,-710.1 707.5,-710.1"/>
</g>
<!-- v_4_1596605695 -->
<g id="node44" class="node">
<title>v_4_1596605695</title>
<ellipse fill="#1b9e77" stroke="black" cx="655" cy="-1042" rx="78.79" ry="18"/>
<text text-anchor="middle" x="655" y="-1038.3" font-family="Times,serif" font-size="14.00">(0,2)/Vec&lt;u8&gt;</text>
</g>
<!-- f_4_2822352487&#45;&gt;v_4_1596605695 -->
<g id="edge43" class="edge">
<title>f_4_2822352487&#45;&gt;v_4_1596605695</title>
<path fill="none" stroke="black" d="M655,-1095.7C655,-1087.98 655,-1078.71 655,-1070.11"/>
<polygon fill="black" stroke="black" points="658.5,-1070.1 655,-1060.1 651.5,-1070.1 658.5,-1070.1"/>
</g>
</g>
</svg>
