<?xml version="1.0" encoding="UTF-8" standalone="no"?>
<!DOCTYPE svg PUBLIC "-//W3C//DTD SVG 1.1//EN"
 "http://www.w3.org/Graphics/SVG/1.1/DTD/svg11.dtd">
<!-- Generated by graphviz version 2.49.0 (0)
 -->
<!-- Title: Trace Pages: 1 -->
<svg width="2498pt" height="436pt"
 viewBox="0.00 0.00 2498.00 436.00" xmlns="http://www.w3.org/2000/svg" xmlns:xlink="http://www.w3.org/1999/xlink">
<g id="graph0" class="graph" transform="scale(1 1) rotate(0) translate(4 432)">
<title>Trace</title>
<polygon fill="white" stroke="transparent" points="-4,4 -4,-432 2494,-432 2494,4 -4,4"/>
<g id="clust1" class="cluster">
<title>cluster0</title>
<polygon fill="none" stroke="transparent" points="8,-8 8,-420 1085,-420 1085,-8 8,-8"/>
</g>
<g id="clust2" class="cluster">
<title>cluster1</title>
<polygon fill="none" stroke="transparent" points="1093,-80 1093,-420 2404,-420 2404,-80 1093,-80"/>
</g>
<g id="clust3" class="cluster">
<title>cluster2</title>
<polygon fill="none" stroke="transparent" points="2412,-368 2412,-420 2482,-420 2482,-368 2412,-368"/>
</g>
<!-- f_0_4063310490 -->
<g id="node1" class="node">
<title>f_0_4063310490</title>
<text text-anchor="middle" x="510" y="-390.3" font-family="Latin Modern Roman" font-size="14.00">fn_client_hello</text>
</g>
<!-- f_0_1263836394 -->
<g id="node2" class="node">
<title>f_0_1263836394</title>
<text text-anchor="middle" x="100" y="-318.3" font-family="Latin Modern Roman" font-size="14.00">fn_protocol_version12</text>
</g>
<!-- f_0_4063310490&#45;&gt;f_0_1263836394 -->
<g id="edge1" class="edge">
<title>f_0_4063310490&#45;&gt;f_0_1263836394</title>
<path fill="none" stroke="black" d="M452.13,-383.12C385.24,-371.7 274.17,-352.74 194.66,-339.16"/>
<polygon fill="black" stroke="black" points="195.08,-335.68 184.63,-337.45 193.9,-342.58 195.08,-335.68"/>
</g>
<!-- f_0_866381650 -->
<g id="node3" class="node">
<title>f_0_866381650</title>
<text text-anchor="middle" x="266" y="-318.3" font-family="Latin Modern Roman" font-size="14.00">fn_new_random</text>
</g>
<!-- f_0_4063310490&#45;&gt;f_0_866381650 -->
<g id="edge2" class="edge">
<title>f_0_4063310490&#45;&gt;f_0_866381650</title>
<path fill="none" stroke="black" d="M452.48,-376.5C417.43,-366.44 372.42,-353.53 335.4,-342.91"/>
<polygon fill="black" stroke="black" points="336.25,-339.51 325.68,-340.12 334.32,-346.24 336.25,-339.51"/>
</g>
<!-- f_0_1761461105 -->
<g id="node4" class="node">
<title>f_0_1761461105</title>
<text text-anchor="middle" x="420" y="-318.3" font-family="Latin Modern Roman" font-size="14.00">fn_new_session_id</text>
</g>
<!-- f_0_4063310490&#45;&gt;f_0_1761461105 -->
<g id="edge3" class="edge">
<title>f_0_4063310490&#45;&gt;f_0_1761461105</title>
<path fill="none" stroke="black" d="M487.75,-375.7C476.42,-366.88 462.47,-356.03 450.18,-346.47"/>
<polygon fill="black" stroke="black" points="452.03,-343.48 441.99,-340.1 447.74,-349.01 452.03,-343.48"/>
</g>
<!-- f_0_1105396787 -->
<g id="node5" class="node">
<title>f_0_1105396787</title>
<text text-anchor="middle" x="601" y="-318.3" font-family="Latin Modern Roman" font-size="14.00">fn_append_cipher_suite</text>
</g>
<!-- f_0_4063310490&#45;&gt;f_0_1105396787 -->
<g id="edge4" class="edge">
<title>f_0_4063310490&#45;&gt;f_0_1105396787</title>
<path fill="none" stroke="black" d="M532.49,-375.7C543.96,-366.88 558.06,-356.03 570.48,-346.47"/>
<polygon fill="black" stroke="black" points="572.97,-348.98 578.76,-340.1 568.7,-343.43 572.97,-348.98"/>
</g>
<!-- f_0_4270092356 -->
<g id="node8" class="node">
<title>f_0_4270092356</title>
<text text-anchor="middle" x="776" y="-318.3" font-family="Latin Modern Roman" font-size="14.00">fn_compressions</text>
</g>
<!-- f_0_4063310490&#45;&gt;f_0_4270092356 -->
<g id="edge7" class="edge">
<title>f_0_4063310490&#45;&gt;f_0_4270092356</title>
<path fill="none" stroke="black" d="M567.72,-377.81C606.98,-367.48 659.3,-353.71 701.68,-342.56"/>
<polygon fill="black" stroke="black" points="702.61,-345.93 711.39,-340 700.83,-339.16 702.61,-345.93"/>
</g>
<!-- f_0_1667749056 -->
<g id="node9" class="node">
<title>f_0_1667749056</title>
<text text-anchor="middle" x="969" y="-318.3" font-family="Latin Modern Roman" font-size="14.00">fn_client_extensions_append</text>
</g>
<!-- f_0_4063310490&#45;&gt;f_0_1667749056 -->
<g id="edge8" class="edge">
<title>f_0_4063310490&#45;&gt;f_0_1667749056</title>
<path fill="none" stroke="black" d="M567.67,-384.21C638.34,-373.43 759.86,-354.89 850.72,-341.04"/>
<polygon fill="black" stroke="black" points="851.44,-344.47 860.8,-339.5 850.39,-337.55 851.44,-344.47"/>
</g>
<!-- f_0_3747973567 -->
<g id="node6" class="node">
<title>f_0_3747973567</title>
<text text-anchor="middle" x="159" y="-246.3" font-family="Latin Modern Roman" font-size="14.00">fn_new_cipher_suites</text>
</g>
<!-- f_0_1105396787&#45;&gt;f_0_3747973567 -->
<g id="edge5" class="edge">
<title>f_0_1105396787&#45;&gt;f_0_3747973567</title>
<path fill="none" stroke="black" d="M510.49,-306.67C434.83,-294.68 327.39,-277.67 251.25,-265.61"/>
<polygon fill="black" stroke="black" points="251.62,-262.12 241.19,-264.02 250.52,-269.04 251.62,-262.12"/>
</g>
<!-- f_0_2060622843 -->
<g id="node7" class="node">
<title>f_0_2060622843</title>
<text text-anchor="middle" x="409" y="-246.3" font-family="Latin Modern Roman" font-size="14.00">fn_cipher_suite13_aes_128_gcm_sha256</text>
</g>
<!-- f_0_1105396787&#45;&gt;f_0_2060622843 -->
<g id="edge6" class="edge">
<title>f_0_1105396787&#45;&gt;f_0_2060622843</title>
<path fill="none" stroke="black" d="M554.03,-303.88C527.32,-294.14 493.68,-281.87 465.53,-271.61"/>
<polygon fill="black" stroke="black" points="466.41,-268.21 455.82,-268.07 464.01,-274.78 466.41,-268.21"/>
</g>
<!-- f_0_3281285629 -->
<g id="node10" class="node">
<title>f_0_3281285629</title>
<text text-anchor="middle" x="685" y="-246.3" font-family="Latin Modern Roman" font-size="14.00">fn_client_extensions_append</text>
</g>
<!-- f_0_1667749056&#45;&gt;f_0_3281285629 -->
<g id="edge9" class="edge">
<title>f_0_1667749056&#45;&gt;f_0_3281285629</title>
<path fill="none" stroke="black" d="M899.89,-303.97C858.91,-293.87 806.83,-281.03 764.2,-270.52"/>
<polygon fill="black" stroke="black" points="764.97,-267.11 754.42,-268.11 763.29,-273.9 764.97,-267.11"/>
</g>
<!-- f_0_464129450 -->
<g id="node17" class="node">
<title>f_0_464129450</title>
<text text-anchor="middle" x="944" y="-246.3" font-family="Latin Modern Roman" font-size="14.00">fn_supported_versions13_extension</text>
</g>
<!-- f_0_1667749056&#45;&gt;f_0_464129450 -->
<g id="edge16" class="edge">
<title>f_0_1667749056&#45;&gt;f_0_464129450</title>
<path fill="none" stroke="black" d="M962.82,-303.7C960,-295.81 956.61,-286.3 953.48,-277.55"/>
<polygon fill="black" stroke="black" points="956.77,-276.34 950.11,-268.1 950.18,-278.7 956.77,-276.34"/>
</g>
<!-- f_0_2807450554 -->
<g id="node11" class="node">
<title>f_0_2807450554</title>
<text text-anchor="middle" x="546" y="-174.3" font-family="Latin Modern Roman" font-size="14.00">fn_client_extensions_append</text>
</g>
<!-- f_0_3281285629&#45;&gt;f_0_2807450554 -->
<g id="edge10" class="edge">
<title>f_0_3281285629&#45;&gt;f_0_2807450554</title>
<path fill="none" stroke="black" d="M651,-231.88C632.4,-222.51 609.17,-210.81 589.29,-200.8"/>
<polygon fill="black" stroke="black" points="590.64,-197.56 580.13,-196.19 587.49,-203.81 590.64,-197.56"/>
</g>
<!-- f_0_2395836996 -->
<g id="node16" class="node">
<title>f_0_2395836996</title>
<text text-anchor="middle" x="811" y="-174.3" font-family="Latin Modern Roman" font-size="14.00">fn_key_share_deterministic_extension</text>
</g>
<!-- f_0_3281285629&#45;&gt;f_0_2395836996 -->
<g id="edge15" class="edge">
<title>f_0_3281285629&#45;&gt;f_0_2395836996</title>
<path fill="none" stroke="black" d="M715.82,-231.88C732.45,-222.64 753.16,-211.13 771.02,-201.21"/>
<polygon fill="black" stroke="black" points="773.02,-204.11 780.06,-196.19 769.62,-197.99 773.02,-204.11"/>
</g>
<!-- f_0_4211643848 -->
<g id="node12" class="node">
<title>f_0_4211643848</title>
<text text-anchor="middle" x="458" y="-102.3" font-family="Latin Modern Roman" font-size="14.00">fn_client_extensions_append</text>
</g>
<!-- f_0_2807450554&#45;&gt;f_0_4211643848 -->
<g id="edge11" class="edge">
<title>f_0_2807450554&#45;&gt;f_0_4211643848</title>
<path fill="none" stroke="black" d="M524.25,-159.7C513.16,-150.88 499.53,-140.03 487.51,-130.47"/>
<polygon fill="black" stroke="black" points="489.51,-127.59 479.5,-124.1 485.15,-133.07 489.51,-127.59"/>
</g>
<!-- f_0_681066058 -->
<g id="node15" class="node">
<title>f_0_681066058</title>
<text text-anchor="middle" x="710" y="-102.3" font-family="Latin Modern Roman" font-size="14.00">fn_signature_algorithm_extension</text>
</g>
<!-- f_0_2807450554&#45;&gt;f_0_681066058 -->
<g id="edge14" class="edge">
<title>f_0_2807450554&#45;&gt;f_0_681066058</title>
<path fill="none" stroke="black" d="M586.12,-159.88C608.64,-150.26 636.92,-138.19 660.77,-128.01"/>
<polygon fill="black" stroke="black" points="662.19,-131.21 670.01,-124.07 659.44,-124.77 662.19,-131.21"/>
</g>
<!-- f_0_1610545117 -->
<g id="node13" class="node">
<title>f_0_1610545117</title>
<text text-anchor="middle" x="327" y="-30.3" font-family="Latin Modern Roman" font-size="14.00">fn_client_extensions_new</text>
</g>
<!-- f_0_4211643848&#45;&gt;f_0_1610545117 -->
<g id="edge12" class="edge">
<title>f_0_4211643848&#45;&gt;f_0_1610545117</title>
<path fill="none" stroke="black" d="M425.95,-87.88C408.51,-78.55 386.73,-66.92 368.06,-56.94"/>
<polygon fill="black" stroke="black" points="369.64,-53.82 359.17,-52.19 366.34,-59.99 369.64,-53.82"/>
</g>
<!-- f_0_1345050124 -->
<g id="node14" class="node">
<title>f_0_1345050124</title>
<text text-anchor="middle" x="588" y="-30.3" font-family="Latin Modern Roman" font-size="14.00">fn_secp384r1_support_group_extension</text>
</g>
<!-- f_0_4211643848&#45;&gt;f_0_1345050124 -->
<g id="edge13" class="edge">
<title>f_0_4211643848&#45;&gt;f_0_1345050124</title>
<path fill="none" stroke="black" d="M489.8,-87.88C507.11,-78.55 528.72,-66.92 547.26,-56.94"/>
<polygon fill="black" stroke="black" points="548.93,-60.01 556.08,-52.19 545.61,-53.85 548.93,-60.01"/>
</g>
<!-- f_1_1386399353 -->
<g id="node18" class="node">
<title>f_1_1386399353</title>
<text text-anchor="middle" x="1834" y="-390.3" font-family="Latin Modern Roman" font-size="14.00">fn_encrypt_handshake</text>
</g>
<!-- f_1_1721868127 -->
<g id="node19" class="node">
<title>f_1_1721868127</title>
<text text-anchor="middle" x="1421" y="-318.3" font-family="Latin Modern Roman" font-size="14.00">fn_finished</text>
</g>
<!-- f_1_1386399353&#45;&gt;f_1_1721868127 -->
<g id="edge17" class="edge">
<title>f_1_1386399353&#45;&gt;f_1_1721868127</title>
<path fill="none" stroke="black" d="M1747.42,-378.33C1666.26,-364.57 1547.28,-344.4 1477.62,-332.6"/>
<polygon fill="black" stroke="black" points="1478.16,-329.14 1467.71,-330.92 1476.99,-336.04 1478.16,-329.14"/>
</g>
<!-- f_1_2778274580 -->
<g id="node28" class="node">
<title>f_1_2778274580</title>
<text text-anchor="middle" x="1625" y="-318.3" font-family="Latin Modern Roman" font-size="14.00">fn_server_hello_transcript</text>
</g>
<!-- f_1_1386399353&#45;&gt;f_1_2778274580 -->
<g id="edge26" class="edge">
<title>f_1_1386399353&#45;&gt;f_1_2778274580</title>
<path fill="none" stroke="black" d="M1783.14,-375.97C1753.81,-366.14 1716.75,-353.73 1685.88,-343.39"/>
<polygon fill="black" stroke="black" points="1686.68,-339.97 1676.09,-340.11 1684.46,-346.61 1686.68,-339.97"/>
</g>
<!-- f_1_71647 -->
<g id="node30" class="node">
<title>f_1_71647</title>
<text text-anchor="middle" x="1834" y="-318.3" font-family="Latin Modern Roman" font-size="14.00">fn_get_server_key_share</text>
</g>
<!-- f_1_1386399353&#45;&gt;f_1_71647 -->
<g id="edge28" class="edge">
<title>f_1_1386399353&#45;&gt;f_1_71647</title>
<path fill="none" stroke="black" d="M1834,-375.7C1834,-367.98 1834,-358.71 1834,-350.11"/>
<polygon fill="black" stroke="black" points="1837.5,-350.1 1834,-340.1 1830.5,-350.1 1837.5,-350.1"/>
</g>
<!-- f_1_3523768007 -->
<g id="node32" class="node">
<title>f_1_3523768007</title>
<text text-anchor="middle" x="1989" y="-318.3" font-family="Latin Modern Roman" font-size="14.00">fn_no_psk</text>
</g>
<!-- f_1_1386399353&#45;&gt;f_1_3523768007 -->
<g id="edge30" class="edge">
<title>f_1_1386399353&#45;&gt;f_1_3523768007</title>
<path fill="none" stroke="black" d="M1871.92,-375.88C1893.01,-366.35 1919.46,-354.41 1941.87,-344.28"/>
<polygon fill="black" stroke="black" points="1943.53,-347.37 1951.21,-340.07 1940.65,-340.99 1943.53,-347.37"/>
</g>
<!-- f_1_2685098676 -->
<g id="node33" class="node">
<title>f_1_2685098676</title>
<text text-anchor="middle" x="2089" y="-318.3" font-family="Latin Modern Roman" font-size="14.00">fn_seq_0</text>
</g>
<!-- f_1_1386399353&#45;&gt;f_1_2685098676 -->
<g id="edge31" class="edge">
<title>f_1_1386399353&#45;&gt;f_1_2685098676</title>
<path fill="none" stroke="black" d="M1896.05,-375.97C1940.32,-363.81 1999.02,-347.7 2040,-336.45"/>
<polygon fill="black" stroke="black" points="2041.04,-339.79 2049.76,-333.77 2039.19,-333.04 2041.04,-339.79"/>
</g>
<!-- f_1_407914819 -->
<g id="node20" class="node">
<title>f_1_407914819</title>
<text text-anchor="middle" x="1381" y="-246.3" font-family="Latin Modern Roman" font-size="14.00">fn_verify_data</text>
</g>
<!-- f_1_1721868127&#45;&gt;f_1_407914819 -->
<g id="edge18" class="edge">
<title>f_1_1721868127&#45;&gt;f_1_407914819</title>
<path fill="none" stroke="black" d="M1411.11,-303.7C1406.51,-295.64 1400.94,-285.89 1395.85,-276.98"/>
<polygon fill="black" stroke="black" points="1398.77,-275.05 1390.77,-268.1 1392.7,-278.52 1398.77,-275.05"/>
</g>
<!-- f_1_308669272 -->
<g id="node21" class="node">
<title>f_1_308669272</title>
<text text-anchor="middle" x="1270" y="-174.3" font-family="Latin Modern Roman" font-size="14.00">fn_server_finished_transcript</text>
</g>
<!-- f_1_407914819&#45;&gt;f_1_308669272 -->
<g id="edge19" class="edge">
<title>f_1_407914819&#45;&gt;f_1_308669272</title>
<path fill="none" stroke="black" d="M1353.85,-231.88C1339.47,-222.81 1321.62,-211.55 1306.09,-201.76"/>
<polygon fill="black" stroke="black" points="1307.58,-198.56 1297.26,-196.19 1303.85,-204.48 1307.58,-198.56"/>
</g>
<!-- f_1_1642721457 -->
<g id="node23" class="node">
<title>f_1_1642721457</title>
<text text-anchor="middle" x="1495" y="-174.3" font-family="Latin Modern Roman" font-size="14.00">fn_server_hello_transcript</text>
</g>
<!-- f_1_407914819&#45;&gt;f_1_1642721457 -->
<g id="edge21" class="edge">
<title>f_1_407914819&#45;&gt;f_1_1642721457</title>
<path fill="none" stroke="black" d="M1408.89,-231.88C1423.79,-222.72 1442.33,-211.34 1458.38,-201.48"/>
<polygon fill="black" stroke="black" points="1460.31,-204.41 1467.01,-196.19 1456.65,-198.44 1460.31,-204.41"/>
</g>
<!-- f_1_3807392081 -->
<g id="node25" class="node">
<title>f_1_3807392081</title>
<text text-anchor="middle" x="1704" y="-174.3" font-family="Latin Modern Roman" font-size="14.00">fn_get_server_key_share</text>
</g>
<!-- f_1_407914819&#45;&gt;f_1_3807392081 -->
<g id="edge23" class="edge">
<title>f_1_407914819&#45;&gt;f_1_3807392081</title>
<path fill="none" stroke="black" d="M1438,-236.65C1487.12,-226 1558.84,-210.46 1615.44,-198.19"/>
<polygon fill="black" stroke="black" points="1616.43,-201.56 1625.46,-196.02 1614.94,-194.72 1616.43,-201.56"/>
</g>
<!-- f_1_2635652217 -->
<g id="node27" class="node">
<title>f_1_2635652217</title>
<text text-anchor="middle" x="1859" y="-174.3" font-family="Latin Modern Roman" font-size="14.00">fn_no_psk</text>
</g>
<!-- f_1_407914819&#45;&gt;f_1_2635652217 -->
<g id="edge25" class="edge">
<title>f_1_407914819&#45;&gt;f_1_2635652217</title>
<path fill="none" stroke="black" d="M1438.18,-240.63C1531.48,-226.96 1715.11,-200.07 1805.78,-186.79"/>
<polygon fill="black" stroke="black" points="1806.45,-190.23 1815.83,-185.32 1805.43,-183.31 1806.45,-190.23"/>
</g>
<!-- v_1_4194171359 -->
<g id="node22" class="node">
<title>v_1_4194171359</title>
<text text-anchor="middle" x="1270" y="-102.3" font-family="Latin Modern Roman" font-size="14.00">(0, 0)[Some(Handshake(None))]/AgentClaimer</text>
</g>
<!-- f_1_308669272&#45;&gt;v_1_4194171359 -->
<g id="edge20" class="edge">
<title>f_1_308669272&#45;&gt;v_1_4194171359</title>
<path fill="none" stroke="black" d="M1270,-159.7C1270,-151.98 1270,-142.71 1270,-134.11"/>
<polygon fill="black" stroke="black" points="1273.5,-134.1 1270,-124.1 1266.5,-134.1 1273.5,-134.1"/>
</g>
<!-- v_1_997300088 -->
<g id="node24" class="node">
<title>v_1_997300088</title>
<text text-anchor="middle" x="1625" y="-102.3" font-family="Latin Modern Roman" font-size="14.00">(0, 0)[Some(Handshake(None))]/AgentClaimer</text>
</g>
<!-- f_1_1642721457&#45;&gt;v_1_997300088 -->
<g id="edge22" class="edge">
<title>f_1_1642721457&#45;&gt;v_1_997300088</title>
<path fill="none" stroke="black" d="M1526.8,-159.88C1544.11,-150.55 1565.72,-138.92 1584.26,-128.94"/>
<polygon fill="black" stroke="black" points="1585.93,-132.01 1593.08,-124.19 1582.61,-125.85 1585.93,-132.01"/>
</g>
<!-- v_1_1256562174 -->
<g id="node26" class="node">
<title>v_1_1256562174</title>
<text text-anchor="middle" x="2104" y="-102.3" font-family="Latin Modern Roman" font-size="14.00">(0, 0)[Some(Handshake(None))]/Vec&lt;rustls::msgs::handshake::ServerExtension&gt;</text>
</g>
<!-- f_1_3807392081&#45;&gt;v_1_1256562174 -->
<g id="edge24" class="edge">
<title>f_1_3807392081&#45;&gt;v_1_1256562174</title>
<path fill="none" stroke="black" d="M1797.53,-160.63C1857.02,-150.22 1934.25,-136.71 1996.29,-125.85"/>
<polygon fill="black" stroke="black" points="1997.26,-129.23 2006.51,-124.06 1996.06,-122.34 1997.26,-129.23"/>
</g>
<!-- v_1_3977787998 -->
<g id="node29" class="node">
<title>v_1_3977787998</title>
<text text-anchor="middle" x="1625" y="-246.3" font-family="Latin Modern Roman" font-size="14.00">(0, 0)[Some(Handshake(None))]/AgentClaimer</text>
</g>
<!-- f_1_2778274580&#45;&gt;v_1_3977787998 -->
<g id="edge27" class="edge">
<title>f_1_2778274580&#45;&gt;v_1_3977787998</title>
<path fill="none" stroke="black" d="M1625,-303.7C1625,-295.98 1625,-286.71 1625,-278.11"/>
<polygon fill="black" stroke="black" points="1628.5,-278.1 1625,-268.1 1621.5,-278.1 1628.5,-278.1"/>
</g>
<!-- v_1_1916660420 -->
<g id="node31" class="node">
<title>v_1_1916660420</title>
<text text-anchor="middle" x="2104" y="-246.3" font-family="Latin Modern Roman" font-size="14.00">(0, 0)[Some(Handshake(None))]/Vec&lt;rustls::msgs::handshake::ServerExtension&gt;</text>
</g>
<!-- f_1_71647&#45;&gt;v_1_1916660420 -->
<g id="edge29" class="edge">
<title>f_1_71647&#45;&gt;v_1_1916660420</title>
<path fill="none" stroke="black" d="M1899.7,-303.97C1938.5,-293.91 1987.76,-281.14 2028.19,-270.65"/>
<polygon fill="black" stroke="black" points="2029.2,-274.01 2038,-268.11 2027.44,-267.23 2029.2,-274.01"/>
</g>
<g id="node34" class="node">
<title></title>
<ellipse fill="none" stroke="transparent" cx="2447" cy="-394" rx="27" ry="18"/>
</g>
</g>
</svg>
