<?xml version="1.0" encoding="UTF-8" standalone="no"?>
<!DOCTYPE svg PUBLIC "-//W3C//DTD SVG 1.1//EN"
 "http://www.w3.org/Graphics/SVG/1.1/DTD/svg11.dtd">
<!-- Generated by graphviz version 2.47.2 (0)
 -->
<!-- Pages: 1 -->
<svg width="965pt" height="603pt"
 viewBox="0.00 0.00 965.00 603.00" xmlns="http://www.w3.org/2000/svg" xmlns:xlink="http://www.w3.org/1999/xlink">
<g id="graph0" class="graph" transform="scale(1 1) rotate(0) translate(4 599)">
<polygon fill="white" stroke="transparent" points="-4,4 -4,-599 961,-599 961,4 -4,4"/>
<g id="clust1" class="cluster">
<title>cluster0</title>
<polygon fill="none" stroke="black" points="8,-8 8,-587 949,-587 949,-8 8,-8"/>
<text text-anchor="middle" x="478.5" y="-571.8" font-family="Times,serif" font-size="14.00">Step #0 (Agent &#160;1)</text>
</g>
<!-- f_0_550080132 -->
<g id="node1" class="node">
<title>f_0_550080132</title>
<polygon fill="#d95f02" stroke="black" points="506.5,-556 387.5,-556 387.5,-520 506.5,-520 506.5,-556"/>
<text text-anchor="middle" x="447" y="-534.3" font-family="Times,serif" font-size="14.00">fn_client_hello</text>
</g>
<!-- f_0_1322218408 -->
<g id="node2" class="node">
<title>f_0_1322218408</title>
<polygon fill="#1b9e77" stroke="black" points="189.5,-484 16.5,-484 16.5,-448 189.5,-448 189.5,-484"/>
<text text-anchor="middle" x="103" y="-462.3" font-family="Times,serif" font-size="14.00">fn_protocol_version12</text>
</g>
<!-- f_0_550080132&#45;&gt;f_0_1322218408 -->
<g id="edge1" class="edge">
<title>f_0_550080132&#45;&gt;f_0_1322218408</title>
<path fill="none" stroke="black" d="M387.47,-524.89C334.92,-514.19 257.42,-498.42 196.58,-486.04"/>
<polygon fill="black" stroke="black" points="197.08,-482.57 186.58,-484.01 195.68,-489.43 197.08,-482.57"/>
</g>
<!-- f_0_3911336230 -->
<g id="node3" class="node">
<title>f_0_3911336230</title>
<polygon fill="#1b9e77" stroke="black" points="300,-484 208,-484 208,-448 300,-448 300,-484"/>
<text text-anchor="middle" x="254" y="-462.3" font-family="Times,serif" font-size="14.00">fn_random</text>
</g>
<!-- f_0_550080132&#45;&gt;f_0_3911336230 -->
<g id="edge2" class="edge">
<title>f_0_550080132&#45;&gt;f_0_3911336230</title>
<path fill="none" stroke="black" d="M399.79,-519.88C372.52,-509.98 338.07,-497.49 309.5,-487.13"/>
<polygon fill="black" stroke="black" points="310.65,-483.82 300.06,-483.71 308.27,-490.41 310.65,-483.82"/>
</g>
<!-- f_0_669781978 -->
<g id="node4" class="node">
<title>f_0_669781978</title>
<polygon fill="#1b9e77" stroke="black" points="428,-484 318,-484 318,-448 428,-448 428,-484"/>
<text text-anchor="middle" x="373" y="-462.3" font-family="Times,serif" font-size="14.00">fn_session_id</text>
</g>
<!-- f_0_550080132&#45;&gt;f_0_669781978 -->
<g id="edge3" class="edge">
<title>f_0_550080132&#45;&gt;f_0_669781978</title>
<path fill="none" stroke="black" d="M428.71,-519.7C419.57,-511.05 408.36,-500.45 398.4,-491.03"/>
<polygon fill="black" stroke="black" points="400.75,-488.43 391.08,-484.1 395.94,-493.52 400.75,-488.43"/>
</g>
<!-- f_0_3785035014 -->
<g id="node5" class="node">
<title>f_0_3785035014</title>
<polygon fill="#1b9e77" stroke="black" points="596,-484 446,-484 446,-448 596,-448 596,-484"/>
<text text-anchor="middle" x="521" y="-462.3" font-family="Times,serif" font-size="14.00">fn_cipher_suites12</text>
</g>
<!-- f_0_550080132&#45;&gt;f_0_3785035014 -->
<g id="edge4" class="edge">
<title>f_0_550080132&#45;&gt;f_0_3785035014</title>
<path fill="none" stroke="black" d="M465.29,-519.7C474.43,-511.05 485.64,-500.45 495.6,-491.03"/>
<polygon fill="black" stroke="black" points="498.06,-493.52 502.92,-484.1 493.25,-488.43 498.06,-493.52"/>
</g>
<!-- f_0_1171597585 -->
<g id="node6" class="node">
<title>f_0_1171597585</title>
<polygon fill="#1b9e77" stroke="black" points="749.5,-484 614.5,-484 614.5,-448 749.5,-448 749.5,-484"/>
<text text-anchor="middle" x="682" y="-462.3" font-family="Times,serif" font-size="14.00">fn_compressions</text>
</g>
<!-- f_0_550080132&#45;&gt;f_0_1171597585 -->
<g id="edge5" class="edge">
<title>f_0_550080132&#45;&gt;f_0_1171597585</title>
<path fill="none" stroke="black" d="M504.19,-519.97C537.59,-510.01 579.92,-497.41 614.9,-486.99"/>
<polygon fill="black" stroke="black" points="615.97,-490.32 624.56,-484.11 613.97,-483.61 615.97,-490.32"/>
</g>
<!-- f_0_435984012 -->
<g id="node7" class="node">
<title>f_0_435984012</title>
<polygon fill="#d95f02" stroke="black" points="940.5,-484 767.5,-484 767.5,-448 940.5,-448 940.5,-484"/>
<text text-anchor="middle" x="854" y="-462.3" font-family="Times,serif" font-size="14.00">fn_extensions_append</text>
</g>
<!-- f_0_550080132&#45;&gt;f_0_435984012 -->
<g id="edge6" class="edge">
<title>f_0_550080132&#45;&gt;f_0_435984012</title>
<path fill="none" stroke="black" d="M506.55,-527.04C567.21,-516.87 664.27,-500.48 757.41,-484.27"/>
<polygon fill="black" stroke="black" points="758.03,-487.71 767.28,-482.55 756.83,-480.82 758.03,-487.71"/>
</g>
<!-- f_0_1563716148 -->
<g id="node8" class="node">
<title>f_0_1563716148</title>
<polygon fill="#d95f02" stroke="black" points="724.5,-412 551.5,-412 551.5,-376 724.5,-376 724.5,-412"/>
<text text-anchor="middle" x="638" y="-390.3" font-family="Times,serif" font-size="14.00">fn_extensions_append</text>
</g>
<!-- f_0_435984012&#45;&gt;f_0_1563716148 -->
<g id="edge7" class="edge">
<title>f_0_435984012&#45;&gt;f_0_1563716148</title>
<path fill="none" stroke="black" d="M801.44,-447.97C770.99,-438.1 732.49,-425.62 700.5,-415.25"/>
<polygon fill="black" stroke="black" points="701.39,-411.86 690.8,-412.11 699.23,-418.52 701.39,-411.86"/>
</g>
<!-- f_0_3592875740 -->
<g id="node19" class="node">
<title>f_0_3592875740</title>
<polygon fill="#d95f02" stroke="black" points="939.5,-412 772.5,-412 772.5,-376 939.5,-376 939.5,-412"/>
<text text-anchor="middle" x="856" y="-390.3" font-family="Times,serif" font-size="14.00">fn_renegotiation_info</text>
</g>
<!-- f_0_435984012&#45;&gt;f_0_3592875740 -->
<g id="edge18" class="edge">
<title>f_0_435984012&#45;&gt;f_0_3592875740</title>
<path fill="none" stroke="black" d="M854.49,-447.7C854.71,-439.98 854.98,-430.71 855.23,-422.11"/>
<polygon fill="black" stroke="black" points="858.72,-422.2 855.51,-412.1 851.73,-422 858.72,-422.2"/>
</g>
<!-- f_0_3699627271 -->
<g id="node9" class="node">
<title>f_0_3699627271</title>
<polygon fill="#d95f02" stroke="black" points="495.5,-340 322.5,-340 322.5,-304 495.5,-304 495.5,-340"/>
<text text-anchor="middle" x="409" y="-318.3" font-family="Times,serif" font-size="14.00">fn_extensions_append</text>
</g>
<!-- f_0_1563716148&#45;&gt;f_0_3699627271 -->
<g id="edge8" class="edge">
<title>f_0_1563716148&#45;&gt;f_0_3699627271</title>
<path fill="none" stroke="black" d="M582.27,-375.97C549.86,-366.06 508.82,-353.51 474.82,-343.12"/>
<polygon fill="black" stroke="black" points="475.56,-339.69 464.98,-340.11 473.52,-346.38 475.56,-339.69"/>
</g>
<!-- f_0_203419642 -->
<g id="node18" class="node">
<title>f_0_203419642</title>
<polygon fill="#1b9e77" stroke="black" points="762,-340 514,-340 514,-304 762,-304 762,-340"/>
<text text-anchor="middle" x="638" y="-318.3" font-family="Times,serif" font-size="14.00">fn_signed_certificate_timestamp</text>
</g>
<!-- f_0_1563716148&#45;&gt;f_0_203419642 -->
<g id="edge17" class="edge">
<title>f_0_1563716148&#45;&gt;f_0_203419642</title>
<path fill="none" stroke="black" d="M638,-375.7C638,-367.98 638,-358.71 638,-350.11"/>
<polygon fill="black" stroke="black" points="641.5,-350.1 638,-340.1 634.5,-350.1 641.5,-350.1"/>
</g>
<!-- f_0_1335237147 -->
<g id="node10" class="node">
<title>f_0_1335237147</title>
<polygon fill="#d95f02" stroke="black" points="470.5,-268 297.5,-268 297.5,-232 470.5,-232 470.5,-268"/>
<text text-anchor="middle" x="384" y="-246.3" font-family="Times,serif" font-size="14.00">fn_extensions_append</text>
</g>
<!-- f_0_3699627271&#45;&gt;f_0_1335237147 -->
<g id="edge9" class="edge">
<title>f_0_3699627271&#45;&gt;f_0_1335237147</title>
<path fill="none" stroke="black" d="M402.82,-303.7C400,-295.81 396.61,-286.3 393.48,-277.55"/>
<polygon fill="black" stroke="black" points="396.77,-276.34 390.11,-268.1 390.18,-278.7 396.77,-276.34"/>
</g>
<!-- f_0_2446317647 -->
<g id="node17" class="node">
<title>f_0_2446317647</title>
<polygon fill="#1b9e77" stroke="black" points="781.5,-268 488.5,-268 488.5,-232 781.5,-232 781.5,-268"/>
<text text-anchor="middle" x="635" y="-246.3" font-family="Times,serif" font-size="14.00">fn_signature_algorithm_cert_extension</text>
</g>
<!-- f_0_3699627271&#45;&gt;f_0_2446317647 -->
<g id="edge16" class="edge">
<title>f_0_3699627271&#45;&gt;f_0_2446317647</title>
<path fill="none" stroke="black" d="M464,-303.97C495.99,-294.06 536.48,-281.51 570.04,-271.12"/>
<polygon fill="black" stroke="black" points="571.24,-274.41 579.76,-268.11 569.17,-267.73 571.24,-274.41"/>
</g>
<!-- f_0_3011329041 -->
<g id="node11" class="node">
<title>f_0_3011329041</title>
<polygon fill="#d95f02" stroke="black" points="420.5,-196 247.5,-196 247.5,-160 420.5,-160 420.5,-196"/>
<text text-anchor="middle" x="334" y="-174.3" font-family="Times,serif" font-size="14.00">fn_extensions_append</text>
</g>
<!-- f_0_1335237147&#45;&gt;f_0_3011329041 -->
<g id="edge10" class="edge">
<title>f_0_1335237147&#45;&gt;f_0_3011329041</title>
<path fill="none" stroke="black" d="M371.64,-231.7C365.77,-223.47 358.63,-213.48 352.16,-204.42"/>
<polygon fill="black" stroke="black" points="354.88,-202.21 346.22,-196.1 349.18,-206.28 354.88,-202.21"/>
</g>
<!-- f_0_1393467630 -->
<g id="node16" class="node">
<title>f_0_1393467630</title>
<polygon fill="#1b9e77" stroke="black" points="597.5,-196 438.5,-196 438.5,-160 597.5,-160 597.5,-196"/>
<text text-anchor="middle" x="518" y="-174.3" font-family="Times,serif" font-size="14.00">fn_ec_point_formats</text>
</g>
<!-- f_0_1335237147&#45;&gt;f_0_1393467630 -->
<g id="edge15" class="edge">
<title>f_0_1335237147&#45;&gt;f_0_1393467630</title>
<path fill="none" stroke="black" d="M416.78,-231.88C434.63,-222.55 456.9,-210.92 476,-200.94"/>
<polygon fill="black" stroke="black" points="477.85,-203.92 485.09,-196.19 474.61,-197.72 477.85,-203.92"/>
</g>
<!-- f_0_2536073744 -->
<g id="node12" class="node">
<title>f_0_2536073744</title>
<polygon fill="#d95f02" stroke="black" points="320.5,-124 147.5,-124 147.5,-88 320.5,-88 320.5,-124"/>
<text text-anchor="middle" x="234" y="-102.3" font-family="Times,serif" font-size="14.00">fn_extensions_append</text>
</g>
<!-- f_0_3011329041&#45;&gt;f_0_2536073744 -->
<g id="edge11" class="edge">
<title>f_0_3011329041&#45;&gt;f_0_2536073744</title>
<path fill="none" stroke="black" d="M309.54,-159.88C296.7,-150.89 280.8,-139.76 266.91,-130.03"/>
<polygon fill="black" stroke="black" points="268.76,-127.06 258.56,-124.19 264.74,-132.79 268.76,-127.06"/>
</g>
<!-- f_0_2435720526 -->
<g id="node15" class="node">
<title>f_0_2435720526</title>
<polygon fill="#1b9e77" stroke="black" points="597,-124 339,-124 339,-88 597,-88 597,-124"/>
<text text-anchor="middle" x="468" y="-102.3" font-family="Times,serif" font-size="14.00">fn_signature_algorithm_extension</text>
</g>
<!-- f_0_3011329041&#45;&gt;f_0_2435720526 -->
<g id="edge14" class="edge">
<title>f_0_3011329041&#45;&gt;f_0_2435720526</title>
<path fill="none" stroke="black" d="M366.78,-159.88C384.63,-150.55 406.9,-138.92 426,-128.94"/>
<polygon fill="black" stroke="black" points="427.85,-131.92 435.09,-124.19 424.61,-125.72 427.85,-131.92"/>
</g>
<!-- f_0_551542597 -->
<g id="node13" class="node">
<title>f_0_551542597</title>
<polygon fill="#1b9e77" stroke="black" points="193,-52 43,-52 43,-16 193,-16 193,-52"/>
<text text-anchor="middle" x="118" y="-30.3" font-family="Times,serif" font-size="14.00">fn_extensions_new</text>
</g>
<!-- f_0_2536073744&#45;&gt;f_0_551542597 -->
<g id="edge12" class="edge">
<title>f_0_2536073744&#45;&gt;f_0_551542597</title>
<path fill="none" stroke="black" d="M205.62,-87.88C190.46,-78.72 171.59,-67.34 155.26,-57.48"/>
<polygon fill="black" stroke="black" points="156.86,-54.36 146.49,-52.19 153.24,-60.35 156.86,-54.36"/>
</g>
<!-- f_0_3106146159 -->
<g id="node14" class="node">
<title>f_0_3106146159</title>
<polygon fill="#1b9e77" stroke="black" points="489,-52 211,-52 211,-16 489,-16 489,-52"/>
<text text-anchor="middle" x="350" y="-30.3" font-family="Times,serif" font-size="14.00">fn_x25519_support_group_extension</text>
</g>
<!-- f_0_2536073744&#45;&gt;f_0_3106146159 -->
<g id="edge13" class="edge">
<title>f_0_2536073744&#45;&gt;f_0_3106146159</title>
<path fill="none" stroke="black" d="M262.38,-87.88C277.54,-78.72 296.41,-67.34 312.74,-57.48"/>
<polygon fill="black" stroke="black" points="314.76,-60.35 321.51,-52.19 311.14,-54.36 314.76,-60.35"/>
</g>
<!-- f_0_2078461825 -->
<g id="node20" class="node">
<title>f_0_2078461825</title>
<polygon fill="#1b9e77" stroke="black" points="939.5,-340 780.5,-340 780.5,-304 939.5,-304 939.5,-340"/>
<text text-anchor="middle" x="860" y="-318.3" font-family="Times,serif" font-size="14.00">fn_empty_bytes_vec</text>
</g>
<!-- f_0_3592875740&#45;&gt;f_0_2078461825 -->
<g id="edge19" class="edge">
<title>f_0_3592875740&#45;&gt;f_0_2078461825</title>
<path fill="none" stroke="black" d="M856.99,-375.7C857.43,-367.98 857.96,-358.71 858.45,-350.11"/>
<polygon fill="black" stroke="black" points="861.95,-350.29 859.02,-340.1 854.96,-349.89 861.95,-350.29"/>
</g>
</g>
</svg>
