<?xml version="1.0" encoding="UTF-8" standalone="no"?>
<!DOCTYPE svg PUBLIC "-//W3C//DTD SVG 1.1//EN"
 "http://www.w3.org/Graphics/SVG/1.1/DTD/svg11.dtd">
<!-- Generated by graphviz version 2.47.2 (0)
 -->
<!-- Title: Trace Pages: 1 -->
<svg width="2139pt" height="1182pt"
 viewBox="0.00 0.00 2139.00 1182.00" xmlns="http://www.w3.org/2000/svg" xmlns:xlink="http://www.w3.org/1999/xlink">
<g id="graph0" class="graph" transform="scale(1 1) rotate(0) translate(4 1178)">
<title>Trace</title>
<polygon fill="white" stroke="transparent" points="-4,4 -4,-1178 2135,-1178 2135,4 -4,4"/>
<g id="clust1" class="cluster">
<title>cluster0</title>
<polygon fill="none" stroke="black" points="1200,-8 1200,-443 2123,-443 2123,-8 1200,-8"/>
<text text-anchor="middle" x="1661.5" y="-427.8" font-family="Times,serif" font-size="14.00">Step #0 (Agent &#160;1)</text>
</g>
<g id="clust2" class="cluster">
<title>cluster1</title>
<polygon fill="none" stroke="black" points="1567,-1091 1567,-1166 1755,-1166 1755,-1091 1567,-1091"/>
<text text-anchor="middle" x="1661" y="-1150.8" font-family="Times,serif" font-size="14.00">Step #1 (Agent &#160;1) &#45; (0,)</text>
</g>
<g id="clust3" class="cluster">
<title>cluster2</title>
<polygon fill="none" stroke="black" points="8,-368 8,-1166 1192,-1166 1192,-368 8,-368"/>
<text text-anchor="middle" x="600" y="-1150.8" font-family="Times,serif" font-size="14.00">Step #2 (Agent &#160;1)</text>
</g>
<!-- f_2393897678 -->
<g id="node1" class="node">
<title>f_2393897678</title>
<polygon fill="#d95f02" stroke="black" points="1624.5,-412 1505.5,-412 1505.5,-376 1624.5,-376 1624.5,-412"/>
<text text-anchor="middle" x="1565" y="-390.3" font-family="Times,serif" font-size="14.00">fn_client_hello</text>
</g>
<!-- f_1068158662 -->
<g id="node2" class="node">
<title>f_1068158662</title>
<polygon fill="#1b9e77" stroke="black" points="1381.5,-340 1208.5,-340 1208.5,-304 1381.5,-304 1381.5,-340"/>
<text text-anchor="middle" x="1295" y="-318.3" font-family="Times,serif" font-size="14.00">fn_protocol_version12</text>
</g>
<!-- f_2393897678&#45;&#45;f_1068158662 -->
<g id="edge1" class="edge">
<title>f_2393897678&#45;&#45;f_1068158662</title>
<path fill="none" stroke="black" d="M1505.41,-377.55C1462.55,-366.44 1404.76,-351.46 1360.58,-340"/>
</g>
<!-- f_1440681721 -->
<g id="node3" class="node">
<title>f_1440681721</title>
<polygon fill="#1b9e77" stroke="black" points="1492,-340 1400,-340 1400,-304 1492,-304 1492,-340"/>
<text text-anchor="middle" x="1446" y="-318.3" font-family="Times,serif" font-size="14.00">fn_random</text>
</g>
<!-- f_2393897678&#45;&#45;f_1440681721 -->
<g id="edge2" class="edge">
<title>f_2393897678&#45;&#45;f_1440681721</title>
<path fill="none" stroke="black" d="M1535.89,-375.88C1517.45,-365.03 1493.68,-351.05 1475.22,-340.19"/>
</g>
<!-- f_3447227349 -->
<g id="node4" class="node">
<title>f_3447227349</title>
<polygon fill="#1b9e77" stroke="black" points="1620,-340 1510,-340 1510,-304 1620,-304 1620,-340"/>
<text text-anchor="middle" x="1565" y="-318.3" font-family="Times,serif" font-size="14.00">fn_session_id</text>
</g>
<!-- f_2393897678&#45;&#45;f_3447227349 -->
<g id="edge3" class="edge">
<title>f_2393897678&#45;&#45;f_3447227349</title>
<path fill="none" stroke="black" d="M1565,-375.7C1565,-364.85 1565,-350.92 1565,-340.1"/>
</g>
<!-- f_2443710326 -->
<g id="node5" class="node">
<title>f_2443710326</title>
<polygon fill="#1b9e77" stroke="black" points="1770,-340 1638,-340 1638,-304 1770,-304 1770,-340"/>
<text text-anchor="middle" x="1704" y="-318.3" font-family="Times,serif" font-size="14.00">fn_cipher_suites</text>
</g>
<!-- f_2393897678&#45;&#45;f_2443710326 -->
<g id="edge4" class="edge">
<title>f_2393897678&#45;&#45;f_2443710326</title>
<path fill="none" stroke="black" d="M1599,-375.88C1620.54,-365.03 1648.3,-351.05 1669.87,-340.19"/>
</g>
<!-- f_596534971 -->
<g id="node6" class="node">
<title>f_596534971</title>
<polygon fill="#1b9e77" stroke="black" points="1923.5,-340 1788.5,-340 1788.5,-304 1923.5,-304 1923.5,-340"/>
<text text-anchor="middle" x="1856" y="-318.3" font-family="Times,serif" font-size="14.00">fn_compressions</text>
</g>
<!-- f_2393897678&#45;&#45;f_596534971 -->
<g id="edge5" class="edge">
<title>f_2393897678&#45;&#45;f_596534971</title>
<path fill="none" stroke="black" d="M1624.59,-378.67C1672.15,-367.23 1738.78,-351.2 1788.34,-339.28"/>
</g>
<!-- f_2384064122 -->
<g id="node7" class="node">
<title>f_2384064122</title>
<polygon fill="#d95f02" stroke="black" points="2114.5,-340 1941.5,-340 1941.5,-304 2114.5,-304 2114.5,-340"/>
<text text-anchor="middle" x="2028" y="-318.3" font-family="Times,serif" font-size="14.00">fn_extensions_append</text>
</g>
<!-- f_2393897678&#45;&#45;f_2384064122 -->
<g id="edge6" class="edge">
<title>f_2393897678&#45;&#45;f_2384064122</title>
<path fill="none" stroke="black" d="M1624.69,-385.04C1697.56,-375.17 1824.51,-357.51 1933,-340 1935.73,-339.56 1938.5,-339.1 1941.3,-338.64"/>
</g>
<!-- f_3033754477 -->
<g id="node8" class="node">
<title>f_3033754477</title>
<polygon fill="#d95f02" stroke="black" points="1843.5,-268 1670.5,-268 1670.5,-232 1843.5,-232 1843.5,-268"/>
<text text-anchor="middle" x="1757" y="-246.3" font-family="Times,serif" font-size="14.00">fn_extensions_append</text>
</g>
<!-- f_2384064122&#45;&#45;f_3033754477 -->
<g id="edge7" class="edge">
<title>f_2384064122&#45;&#45;f_3033754477</title>
<path fill="none" stroke="black" d="M1962.05,-303.97C1919.91,-293.08 1865.45,-279.01 1823.24,-268.11"/>
</g>
<!-- f_2386153368 -->
<g id="node15" class="node">
<title>f_2386153368</title>
<polygon fill="#1b9e77" stroke="black" points="2114.5,-268 1861.5,-268 1861.5,-232 2114.5,-232 2114.5,-268"/>
<text text-anchor="middle" x="1988" y="-246.3" font-family="Times,serif" font-size="14.00">fn_supported_versions_extension</text>
</g>
<!-- f_2384064122&#45;&#45;f_2386153368 -->
<g id="edge14" class="edge">
<title>f_2384064122&#45;&#45;f_2386153368</title>
<path fill="none" stroke="black" d="M2018.11,-303.7C2011.91,-292.85 2003.95,-278.92 1997.77,-268.1"/>
</g>
<!-- f_656818242 -->
<g id="node9" class="node">
<title>f_656818242</title>
<polygon fill="#d95f02" stroke="black" points="1784.5,-196 1611.5,-196 1611.5,-160 1784.5,-160 1784.5,-196"/>
<text text-anchor="middle" x="1698" y="-174.3" font-family="Times,serif" font-size="14.00">fn_extensions_append</text>
</g>
<!-- f_3033754477&#45;&#45;f_656818242 -->
<g id="edge8" class="edge">
<title>f_3033754477&#45;&#45;f_656818242</title>
<path fill="none" stroke="black" d="M1742.42,-231.7C1733.27,-220.85 1721.53,-206.92 1712.42,-196.1"/>
</g>
<!-- f_890469194 -->
<g id="node14" class="node">
<title>f_890469194</title>
<polygon fill="#1b9e77" stroke="black" points="1987.5,-196 1802.5,-196 1802.5,-160 1987.5,-160 1987.5,-196"/>
<text text-anchor="middle" x="1895" y="-174.3" font-family="Times,serif" font-size="14.00">fn_key_share_extension</text>
</g>
<!-- f_3033754477&#45;&#45;f_890469194 -->
<g id="edge13" class="edge">
<title>f_3033754477&#45;&#45;f_890469194</title>
<path fill="none" stroke="black" d="M1790.76,-231.88C1812.14,-221.03 1839.7,-207.05 1861.11,-196.19"/>
</g>
<!-- f_1680386183 -->
<g id="node10" class="node">
<title>f_1680386183</title>
<polygon fill="#d95f02" stroke="black" points="1724.5,-124 1551.5,-124 1551.5,-88 1724.5,-88 1724.5,-124"/>
<text text-anchor="middle" x="1638" y="-102.3" font-family="Times,serif" font-size="14.00">fn_extensions_append</text>
</g>
<!-- f_656818242&#45;&#45;f_1680386183 -->
<g id="edge9" class="edge">
<title>f_656818242&#45;&#45;f_1680386183</title>
<path fill="none" stroke="black" d="M1683.17,-159.7C1673.87,-148.85 1661.93,-134.92 1652.66,-124.1"/>
</g>
<!-- f_2145048535 -->
<g id="node13" class="node">
<title>f_2145048535</title>
<polygon fill="#1b9e77" stroke="black" points="2001,-124 1743,-124 1743,-88 2001,-88 2001,-124"/>
<text text-anchor="middle" x="1872" y="-102.3" font-family="Times,serif" font-size="14.00">fn_signature_algorithm_extension</text>
</g>
<!-- f_656818242&#45;&#45;f_2145048535 -->
<g id="edge12" class="edge">
<title>f_656818242&#45;&#45;f_2145048535</title>
<path fill="none" stroke="black" d="M1740.57,-159.88C1767.63,-148.99 1802.54,-134.95 1829.57,-124.07"/>
</g>
<!-- f_1268370389 -->
<g id="node11" class="node">
<title>f_1268370389</title>
<polygon fill="#1b9e77" stroke="black" points="1593,-52 1443,-52 1443,-16 1593,-16 1593,-52"/>
<text text-anchor="middle" x="1518" y="-30.3" font-family="Times,serif" font-size="14.00">fn_extensions_new</text>
</g>
<!-- f_1680386183&#45;&#45;f_1268370389 -->
<g id="edge10" class="edge">
<title>f_1680386183&#45;&#45;f_1268370389</title>
<path fill="none" stroke="black" d="M1608.64,-87.88C1590.05,-77.03 1566.09,-63.05 1547.47,-52.19"/>
</g>
<!-- f_1692294864 -->
<g id="node12" class="node">
<title>f_1692294864</title>
<polygon fill="#1b9e77" stroke="black" points="1889,-52 1611,-52 1611,-16 1889,-16 1889,-52"/>
<text text-anchor="middle" x="1750" y="-30.3" font-family="Times,serif" font-size="14.00">fn_x25519_support_group_extension</text>
</g>
<!-- f_1680386183&#45;&#45;f_1692294864 -->
<g id="edge11" class="edge">
<title>f_1680386183&#45;&#45;f_1692294864</title>
<path fill="none" stroke="black" d="M1665.4,-87.88C1682.75,-77.03 1705.12,-63.05 1722.5,-52.19"/>
</g>
<g id="node16" class="node">
<title></title>
<ellipse fill="none" stroke="transparent" cx="1661" cy="-1117" rx="27" ry="18"/>
</g>
<!-- f_3554092019 -->
<g id="node17" class="node">
<title>f_3554092019</title>
<polygon fill="#d95f02" stroke="black" points="730,-1135 638,-1135 638,-1099 730,-1099 730,-1135"/>
<text text-anchor="middle" x="684" y="-1113.3" font-family="Times,serif" font-size="14.00">fn_encrypt</text>
</g>
<!-- f_3554232251 -->
<g id="node18" class="node">
<title>f_3554232251</title>
<polygon fill="#d95f02" stroke="black" points="518.5,-1063 423.5,-1063 423.5,-1027 518.5,-1027 518.5,-1063"/>
<text text-anchor="middle" x="471" y="-1041.3" font-family="Times,serif" font-size="14.00">fn_finished</text>
</g>
<!-- f_3554092019&#45;&#45;f_3554232251 -->
<g id="edge15" class="edge">
<title>f_3554092019&#45;&#45;f_3554232251</title>
<path fill="none" stroke="black" d="M637.78,-1100.81C602.54,-1089.23 554.18,-1073.34 518.6,-1061.64"/>
</g>
<!-- f_263449213 -->
<g id="node25" class="node">
<title>f_263449213</title>
<polygon fill="#d95f02" stroke="black" points="1004,-559 836,-559 836,-523 1004,-523 1004,-559"/>
<text text-anchor="middle" x="920" y="-537.3" font-family="Times,serif" font-size="14.00">fn_append_transcript</text>
</g>
<!-- f_3554092019&#45;&#45;f_263449213 -->
<g id="edge49" class="edge">
<title>f_3554092019&#45;&#45;f_263449213</title>
<path fill="none" stroke="black" d="M637.9,-1110.42C608.25,-1104.19 571.86,-1090.97 553,-1063 544.06,-1049.73 544.07,-1040.28 553,-1027 623.96,-921.45 700.3,-967.2 818,-919 973.66,-855.26 1074.38,-914.75 1168,-775 1215.17,-704.58 1176.38,-640.7 1105,-595 1074.89,-575.73 1037.63,-563.3 1004.46,-555.37"/>
</g>
<!-- v_1247321831 -->
<g id="node45" class="node">
<title>v_1247321831</title>
<ellipse fill="#1b9e77" stroke="black" cx="825" cy="-1045" rx="262.65" ry="18"/>
<text text-anchor="middle" x="825" y="-1041.3" font-family="Times,serif" font-size="14.00">(0,0)/Vec&lt;rustls::msgs::handshake::ServerExtension&gt;</text>
</g>
<!-- f_3554092019&#45;&#45;v_1247321831 -->
<g id="edge48" class="edge">
<title>f_3554092019&#45;&#45;v_1247321831</title>
<path fill="none" stroke="black" d="M718.49,-1098.88C740.51,-1087.95 768.92,-1073.84 790.86,-1062.95"/>
</g>
<!-- f_3326755615 -->
<g id="node46" class="node">
<title>f_3326755615</title>
<polygon fill="#1b9e77" stroke="black" points="1184,-1063 1106,-1063 1106,-1027 1184,-1027 1184,-1063"/>
<text text-anchor="middle" x="1145" y="-1041.3" font-family="Times,serif" font-size="14.00">fn_seq_0</text>
</g>
<!-- f_3554092019&#45;&#45;f_3326755615 -->
<g id="edge50" class="edge">
<title>f_3554092019&#45;&#45;f_3326755615</title>
<path fill="none" stroke="black" d="M730.1,-1113.29C807.03,-1108.07 966.03,-1094.22 1097,-1063 1099.92,-1062.3 1102.92,-1061.49 1105.91,-1060.61"/>
</g>
<!-- f_66874589 -->
<g id="node19" class="node">
<title>f_66874589</title>
<polygon fill="#d95f02" stroke="black" points="474.5,-991 357.5,-991 357.5,-955 474.5,-955 474.5,-991"/>
<text text-anchor="middle" x="416" y="-969.3" font-family="Times,serif" font-size="14.00">fn_verify_data</text>
</g>
<!-- f_3554232251&#45;&#45;f_66874589 -->
<g id="edge16" class="edge">
<title>f_3554232251&#45;&#45;f_66874589</title>
<path fill="none" stroke="black" d="M457.4,-1026.7C448.88,-1015.85 437.93,-1001.92 429.44,-991.1"/>
</g>
<!-- v_2758484248 -->
<g id="node20" class="node">
<title>v_2758484248</title>
<ellipse fill="#1b9e77" stroke="black" cx="360" cy="-901" rx="262.65" ry="18"/>
<text text-anchor="middle" x="360" y="-897.3" font-family="Times,serif" font-size="14.00">(0,0)/Vec&lt;rustls::msgs::handshake::ServerExtension&gt;</text>
</g>
<!-- f_66874589&#45;&#45;v_2758484248 -->
<g id="edge17" class="edge">
<title>f_66874589&#45;&#45;v_2758484248</title>
<path fill="none" stroke="black" d="M402.16,-954.7C393.48,-943.85 382.33,-929.92 373.68,-919.1"/>
</g>
<!-- f_1263964674 -->
<g id="node21" class="node">
<title>f_1263964674</title>
<polygon fill="#d95f02" stroke="black" points="809,-919 641,-919 641,-883 809,-883 809,-919"/>
<text text-anchor="middle" x="725" y="-897.3" font-family="Times,serif" font-size="14.00">fn_append_transcript</text>
</g>
<!-- f_66874589&#45;&#45;f_1263964674 -->
<g id="edge18" class="edge">
<title>f_66874589&#45;&#45;f_1263964674</title>
<path fill="none" stroke="black" d="M474.85,-958.67C524.58,-947.4 596.1,-931.2 649.95,-919"/>
</g>
<!-- f_66874589&#45;&#45;f_263449213 -->
<g id="edge47" class="edge">
<title>f_66874589&#45;&#45;f_263449213</title>
<path fill="none" stroke="black" d="M357.27,-967.6C275.57,-960.62 132.64,-945.08 88,-919 44.31,-893.47 17,-880.6 17,-830 17,-830 17,-830 17,-756 17,-716.2 2.88,-698.66 27,-667 53.11,-632.73 85.63,-660.53 117,-631 129.89,-618.87 119.31,-604.86 134,-595 197.1,-552.65 741.45,-567.2 817,-559 823.13,-558.34 829.44,-557.55 835.79,-556.68"/>
</g>
<!-- f_1520211583 -->
<g id="node22" class="node">
<title>f_1520211583</title>
<polygon fill="#d95f02" stroke="black" points="372,-847 204,-847 204,-811 372,-811 372,-847"/>
<text text-anchor="middle" x="288" y="-825.3" font-family="Times,serif" font-size="14.00">fn_append_transcript</text>
</g>
<!-- f_1263964674&#45;&#45;f_1520211583 -->
<g id="edge19" class="edge">
<title>f_1263964674&#45;&#45;f_1520211583</title>
<path fill="none" stroke="black" d="M640.87,-884.51C637.88,-884 634.91,-883.49 632,-883 543.51,-868.1 441.93,-852.65 372.22,-842.31"/>
</g>
<!-- f_1439775263 -->
<g id="node41" class="node">
<title>f_1439775263</title>
<polygon fill="#d95f02" stroke="black" points="831,-847 739,-847 739,-811 831,-811 831,-847"/>
<text text-anchor="middle" x="785" y="-825.3" font-family="Times,serif" font-size="14.00">fn_decrypt</text>
</g>
<!-- f_1263964674&#45;&#45;f_1439775263 -->
<g id="edge42" class="edge">
<title>f_1263964674&#45;&#45;f_1439775263</title>
<path fill="none" stroke="black" d="M739.83,-882.7C749.13,-871.85 761.07,-857.92 770.34,-847.1"/>
</g>
<!-- f_3576268051 -->
<g id="node23" class="node">
<title>f_3576268051</title>
<polygon fill="#d95f02" stroke="black" points="224,-775 56,-775 56,-739 224,-739 224,-775"/>
<text text-anchor="middle" x="140" y="-753.3" font-family="Times,serif" font-size="14.00">fn_append_transcript</text>
</g>
<!-- f_1520211583&#45;&#45;f_3576268051 -->
<g id="edge20" class="edge">
<title>f_1520211583&#45;&#45;f_3576268051</title>
<path fill="none" stroke="black" d="M251.8,-810.88C228.78,-799.99 199.08,-785.95 176.09,-775.07"/>
</g>
<!-- f_2483921116 -->
<g id="node37" class="node">
<title>f_2483921116</title>
<polygon fill="#d95f02" stroke="black" points="334,-775 242,-775 242,-739 334,-739 334,-775"/>
<text text-anchor="middle" x="288" y="-753.3" font-family="Times,serif" font-size="14.00">fn_decrypt</text>
</g>
<!-- f_1520211583&#45;&#45;f_2483921116 -->
<g id="edge37" class="edge">
<title>f_1520211583&#45;&#45;f_2483921116</title>
<path fill="none" stroke="black" d="M288,-810.7C288,-799.85 288,-785.92 288,-775.1"/>
</g>
<!-- f_403760738 -->
<g id="node24" class="node">
<title>f_403760738</title>
<polygon fill="#d95f02" stroke="black" points="204,-703 36,-703 36,-667 204,-667 204,-703"/>
<text text-anchor="middle" x="120" y="-681.3" font-family="Times,serif" font-size="14.00">fn_append_transcript</text>
</g>
<!-- f_3576268051&#45;&#45;f_403760738 -->
<g id="edge21" class="edge">
<title>f_3576268051&#45;&#45;f_403760738</title>
<path fill="none" stroke="black" d="M135.06,-738.7C131.96,-727.85 127.98,-713.92 124.89,-703.1"/>
</g>
<!-- f_2696022259 -->
<g id="node33" class="node">
<title>f_2696022259</title>
<polygon fill="#d95f02" stroke="black" points="314,-703 222,-703 222,-667 314,-667 314,-703"/>
<text text-anchor="middle" x="268" y="-681.3" font-family="Times,serif" font-size="14.00">fn_decrypt</text>
</g>
<!-- f_3576268051&#45;&#45;f_2696022259 -->
<g id="edge32" class="edge">
<title>f_3576268051&#45;&#45;f_2696022259</title>
<path fill="none" stroke="black" d="M171.31,-738.88C191.15,-728.03 216.71,-714.05 236.57,-703.19"/>
</g>
<!-- f_403760738&#45;&#45;f_263449213 -->
<g id="edge22" class="edge">
<title>f_403760738&#45;&#45;f_263449213</title>
<path fill="none" stroke="black" d="M124.83,-666.64C131.7,-643.27 144.84,-603.6 157,-595 216.96,-552.59 743.99,-566.99 817,-559 823.13,-558.33 829.44,-557.54 835.79,-556.67"/>
</g>
<!-- f_3284773977 -->
<g id="node29" class="node">
<title>f_3284773977</title>
<polygon fill="#d95f02" stroke="black" points="108,-631 16,-631 16,-595 108,-595 108,-631"/>
<text text-anchor="middle" x="62" y="-609.3" font-family="Times,serif" font-size="14.00">fn_decrypt</text>
</g>
<!-- f_403760738&#45;&#45;f_3284773977 -->
<g id="edge27" class="edge">
<title>f_403760738&#45;&#45;f_3284773977</title>
<path fill="none" stroke="black" d="M105.66,-666.7C96.67,-655.85 85.13,-641.92 76.17,-631.1"/>
</g>
<!-- f_268161731 -->
<g id="node26" class="node">
<title>f_268161731</title>
<polygon fill="#d95f02" stroke="black" points="1004,-487 836,-487 836,-451 1004,-451 1004,-487"/>
<text text-anchor="middle" x="920" y="-465.3" font-family="Times,serif" font-size="14.00">fn_append_transcript</text>
</g>
<!-- f_263449213&#45;&#45;f_268161731 -->
<g id="edge23" class="edge">
<title>f_263449213&#45;&#45;f_268161731</title>
<path fill="none" stroke="black" d="M920,-522.7C920,-511.85 920,-497.92 920,-487.1"/>
</g>
<!-- v_2222054228 -->
<g id="node28" class="node">
<title>v_2222054228</title>
<ellipse fill="#1b9e77" stroke="black" cx="1098" cy="-469" rx="76.09" ry="18"/>
<text text-anchor="middle" x="1098" y="-465.3" font-family="Times,serif" font-size="14.00">(0,0)/Message</text>
</g>
<!-- f_263449213&#45;&#45;v_2222054228 -->
<g id="edge26" class="edge">
<title>f_263449213&#45;&#45;v_2222054228</title>
<path fill="none" stroke="black" d="M963.54,-522.88C993.29,-511.18 1032.29,-495.84 1060.63,-484.7"/>
</g>
<!-- f_268161731&#45;&#45;f_2393897678 -->
<g id="edge25" class="edge">
<title>f_268161731&#45;&#45;f_2393897678</title>
<path fill="none" stroke="black" d="M1004.07,-452.1C1007.08,-451.7 1010.06,-451.33 1013,-451 1093.9,-441.88 1114.89,-450.04 1196,-443 1305.57,-433.5 1432.61,-415.4 1505.41,-404.35"/>
</g>
<!-- f_3307402195 -->
<g id="node27" class="node">
<title>f_3307402195</title>
<polygon fill="#1b9e77" stroke="black" points="992.5,-412 847.5,-412 847.5,-376 992.5,-376 992.5,-412"/>
<text text-anchor="middle" x="920" y="-390.3" font-family="Times,serif" font-size="14.00">fn_new_transcript</text>
</g>
<!-- f_268161731&#45;&#45;f_3307402195 -->
<g id="edge24" class="edge">
<title>f_268161731&#45;&#45;f_3307402195</title>
<path fill="none" stroke="black" d="M920,-450.7C920,-439.06 920,-423.79 920,-412.18"/>
</g>
<!-- f_3284773977&#45;&#45;f_263449213 -->
<g id="edge30" class="edge">
<title>f_3284773977&#45;&#45;f_263449213</title>
<path fill="none" stroke="black" d="M108.28,-597.78C112.88,-596.7 117.51,-595.74 122,-595 427.16,-544.52 509.49,-592.24 817,-559 823.13,-558.34 829.44,-557.55 835.79,-556.69"/>
</g>
<!-- v_1621319737 -->
<g id="node30" class="node">
<title>v_1621319737</title>
<ellipse fill="#1b9e77" stroke="black" cx="732" cy="-541" rx="76.09" ry="18"/>
<text text-anchor="middle" x="732" y="-537.3" font-family="Times,serif" font-size="14.00">(0,2)/Message</text>
</g>
<!-- f_3284773977&#45;&#45;v_1621319737 -->
<g id="edge28" class="edge">
<title>f_3284773977&#45;&#45;v_1621319737</title>
<path fill="none" stroke="black" d="M108.29,-597.86C112.9,-596.76 117.52,-595.78 122,-595 352.42,-554.91 415.18,-590 647,-559 657.14,-557.64 667.9,-555.81 678.22,-553.84"/>
</g>
<!-- v_2293671712 -->
<g id="node31" class="node">
<title>v_2293671712</title>
<ellipse fill="#1b9e77" stroke="black" cx="279" cy="-541" rx="262.65" ry="18"/>
<text text-anchor="middle" x="279" y="-537.3" font-family="Times,serif" font-size="14.00">(0,0)/Vec&lt;rustls::msgs::handshake::ServerExtension&gt;</text>
</g>
<!-- f_3284773977&#45;&#45;v_2293671712 -->
<g id="edge29" class="edge">
<title>f_3284773977&#45;&#45;v_2293671712</title>
<path fill="none" stroke="black" d="M108.02,-597.15C142.98,-585.88 191.07,-570.37 227.34,-558.66"/>
</g>
<!-- f_2986803459 -->
<g id="node32" class="node">
<title>f_2986803459</title>
<polygon fill="#1b9e77" stroke="black" points="638,-559 560,-559 560,-523 638,-523 638,-559"/>
<text text-anchor="middle" x="599" y="-537.3" font-family="Times,serif" font-size="14.00">fn_seq_0</text>
</g>
<!-- f_3284773977&#45;&#45;f_2986803459 -->
<g id="edge31" class="edge">
<title>f_3284773977&#45;&#45;f_2986803459</title>
<path fill="none" stroke="black" d="M108.31,-597.93C112.91,-596.82 117.53,-595.81 122,-595 310.25,-560.76 363.95,-599.27 551,-559 553.94,-558.37 556.94,-557.6 559.94,-556.75"/>
</g>
<!-- f_2696022259&#45;&#45;f_263449213 -->
<g id="edge35" class="edge">
<title>f_2696022259&#45;&#45;f_263449213</title>
<path fill="none" stroke="black" d="M263.05,-666.95C258.36,-646.81 254.49,-613.7 273,-595 315.62,-551.95 756.82,-565.94 817,-559 823.12,-558.29 829.43,-557.48 835.78,-556.59"/>
</g>
<!-- v_516596395 -->
<g id="node34" class="node">
<title>v_516596395</title>
<ellipse fill="#1b9e77" stroke="black" cx="358" cy="-613" rx="76.09" ry="18"/>
<text text-anchor="middle" x="358" y="-609.3" font-family="Times,serif" font-size="14.00">(0,3)/Message</text>
</g>
<!-- f_2696022259&#45;&#45;v_516596395 -->
<g id="edge33" class="edge">
<title>f_2696022259&#45;&#45;v_516596395</title>
<path fill="none" stroke="black" d="M290.25,-666.7C304.51,-655.6 322.91,-641.29 336.94,-630.38"/>
</g>
<!-- v_1209874643 -->
<g id="node35" class="node">
<title>v_1209874643</title>
<ellipse fill="#1b9e77" stroke="black" cx="715" cy="-613" rx="262.65" ry="18"/>
<text text-anchor="middle" x="715" y="-609.3" font-family="Times,serif" font-size="14.00">(0,0)/Vec&lt;rustls::msgs::handshake::ServerExtension&gt;</text>
</g>
<!-- f_2696022259&#45;&#45;v_1209874643 -->
<g id="edge34" class="edge">
<title>f_2696022259&#45;&#45;v_1209874643</title>
<path fill="none" stroke="black" d="M314.07,-669.16C317.08,-668.37 320.07,-667.65 323,-667 403.48,-649.25 494.64,-636.5 568.79,-627.95"/>
</g>
<!-- f_3094575725 -->
<g id="node36" class="node">
<title>f_3094575725</title>
<polygon fill="#1b9e77" stroke="black" points="244,-631 166,-631 166,-595 244,-595 244,-631"/>
<text text-anchor="middle" x="205" y="-609.3" font-family="Times,serif" font-size="14.00">fn_seq_1</text>
</g>
<!-- f_2696022259&#45;&#45;f_3094575725 -->
<g id="edge36" class="edge">
<title>f_2696022259&#45;&#45;f_3094575725</title>
<path fill="none" stroke="black" d="M252.43,-666.7C242.66,-655.85 230.13,-641.92 220.39,-631.1"/>
</g>
<!-- f_2483921116&#45;&#45;f_263449213 -->
<g id="edge40" class="edge">
<title>f_2483921116&#45;&#45;f_263449213</title>
<path fill="none" stroke="black" d="M334.01,-740.89C337.04,-740.18 340.05,-739.53 343,-739 410.9,-726.72 908.21,-744.95 963,-703 982.52,-688.05 997.71,-617.13 987,-595 979.7,-579.91 965.79,-567.82 952.53,-559.02"/>
</g>
<!-- v_710657963 -->
<g id="node38" class="node">
<title>v_710657963</title>
<ellipse fill="#1b9e77" stroke="black" cx="1068" cy="-685" rx="76.09" ry="18"/>
<text text-anchor="middle" x="1068" y="-681.3" font-family="Times,serif" font-size="14.00">(0,4)/Message</text>
</g>
<!-- f_2483921116&#45;&#45;v_710657963 -->
<g id="edge38" class="edge">
<title>f_2483921116&#45;&#45;v_710657963</title>
<path fill="none" stroke="black" d="M334.01,-740.89C337.03,-740.17 340.05,-739.53 343,-739 621.2,-688.89 697.41,-737.31 978,-703 989.36,-701.61 1001.46,-699.66 1012.97,-697.57"/>
</g>
<!-- v_1562461393 -->
<g id="node39" class="node">
<title>v_1562461393</title>
<ellipse fill="#1b9e77" stroke="black" cx="595" cy="-685" rx="262.65" ry="18"/>
<text text-anchor="middle" x="595" y="-681.3" font-family="Times,serif" font-size="14.00">(0,0)/Vec&lt;rustls::msgs::handshake::ServerExtension&gt;</text>
</g>
<!-- f_2483921116&#45;&#45;v_1562461393 -->
<g id="edge39" class="edge">
<title>f_2483921116&#45;&#45;v_1562461393</title>
<path fill="none" stroke="black" d="M334.12,-741.4C337.12,-740.56 340.1,-739.75 343,-739 397.85,-724.79 460.17,-711.66 509.1,-702.02"/>
</g>
<!-- f_3435471551 -->
<g id="node40" class="node">
<title>f_3435471551</title>
<polygon fill="#1b9e77" stroke="black" points="954,-703 876,-703 876,-667 954,-667 954,-703"/>
<text text-anchor="middle" x="915" y="-681.3" font-family="Times,serif" font-size="14.00">fn_seq_2</text>
</g>
<!-- f_2483921116&#45;&#45;f_3435471551 -->
<g id="edge41" class="edge">
<title>f_2483921116&#45;&#45;f_3435471551</title>
<path fill="none" stroke="black" d="M334.02,-740.93C337.04,-740.2 340.05,-739.55 343,-739 572.49,-696.25 638.43,-750.4 867,-703 869.94,-702.39 872.95,-701.64 875.96,-700.8"/>
</g>
<!-- f_1439775263&#45;&#45;f_263449213 -->
<g id="edge45" class="edge">
<title>f_1439775263&#45;&#45;f_263449213</title>
<path fill="none" stroke="black" d="M831.05,-828.51C920.33,-828.41 1111.85,-822.51 1153,-775 1184.43,-738.72 1177.65,-708.19 1153,-667 1118.23,-608.9 1046.18,-576.25 991.35,-559.02"/>
</g>
<!-- v_1389720879 -->
<g id="node42" class="node">
<title>v_1389720879</title>
<ellipse fill="#1b9e77" stroke="black" cx="428" cy="-757" rx="76.09" ry="18"/>
<text text-anchor="middle" x="428" y="-753.3" font-family="Times,serif" font-size="14.00">(0,5)/Message</text>
</g>
<!-- f_1439775263&#45;&#45;v_1389720879 -->
<g id="edge43" class="edge">
<title>f_1439775263&#45;&#45;v_1389720879</title>
<path fill="none" stroke="black" d="M738.78,-819.07C684.66,-808.59 592.29,-790.65 513,-775 503.7,-773.16 493.83,-771.2 484.23,-769.29"/>
</g>
<!-- v_1225415872 -->
<g id="node43" class="node">
<title>v_1225415872</title>
<ellipse fill="#1b9e77" stroke="black" cx="785" cy="-757" rx="262.65" ry="18"/>
<text text-anchor="middle" x="785" y="-753.3" font-family="Times,serif" font-size="14.00">(0,0)/Vec&lt;rustls::msgs::handshake::ServerExtension&gt;</text>
</g>
<!-- f_1439775263&#45;&#45;v_1225415872 -->
<g id="edge44" class="edge">
<title>f_1439775263&#45;&#45;v_1225415872</title>
<path fill="none" stroke="black" d="M785,-810.7C785,-799.85 785,-785.92 785,-775.1"/>
</g>
<!-- f_1332002197 -->
<g id="node44" class="node">
<title>f_1332002197</title>
<polygon fill="#1b9e77" stroke="black" points="1144,-775 1066,-775 1066,-739 1144,-739 1144,-775"/>
<text text-anchor="middle" x="1105" y="-753.3" font-family="Times,serif" font-size="14.00">fn_seq_3</text>
</g>
<!-- f_1439775263&#45;&#45;f_1332002197 -->
<g id="edge46" class="edge">
<title>f_1439775263&#45;&#45;f_1332002197</title>
<path fill="none" stroke="black" d="M831.2,-821.14C885.7,-812.55 978.79,-796.34 1057,-775 1059.9,-774.21 1062.88,-773.33 1065.86,-772.39"/>
</g>
</g>
</svg>
