<?xml version="1.0" encoding="UTF-8" standalone="no"?>
<!DOCTYPE svg PUBLIC "-//W3C//DTD SVG 1.1//EN"
 "http://www.w3.org/Graphics/SVG/1.1/DTD/svg11.dtd">
<!-- Generated by graphviz version 2.47.3 (0)
 -->
<!-- Title: Trace Pages: 1 -->
<svg width="2832pt" height="1251pt"
 viewBox="0.00 0.00 2832.00 1251.00" xmlns="http://www.w3.org/2000/svg" xmlns:xlink="http://www.w3.org/1999/xlink">
<g id="graph0" class="graph" transform="scale(1 1) rotate(0) translate(4 1247)">
<title>Trace</title>
<polygon fill="white" stroke="transparent" points="-4,4 -4,-1247 2828,-1247 2828,4 -4,4"/>
<g id="clust1" class="cluster">
<title>cluster0</title>
<polygon fill="none" stroke="black" points="8,-656 8,-1235 1102,-1235 1102,-656 8,-656"/>
<text text-anchor="middle" x="555" y="-1219.8" font-family="Times,serif" font-size="14.00">Step #0 (Agent &#160;1)</text>
</g>
<g id="clust2" class="cluster">
<title>cluster1</title>
<polygon fill="none" stroke="black" points="1110,-1160 1110,-1235 1298,-1235 1298,-1160 1110,-1160"/>
<text text-anchor="middle" x="1204" y="-1219.8" font-family="Times,serif" font-size="14.00">Step #1 (Agent &#160;1) &#45; (0,)</text>
</g>
<g id="clust3" class="cluster">
<title>cluster2</title>
<polygon fill="none" stroke="black" points="1306,-944 1306,-1235 1510,-1235 1510,-944 1306,-944"/>
<text text-anchor="middle" x="1408" y="-1219.8" font-family="Times,serif" font-size="14.00">Step #2 (Agent &#160;1)</text>
</g>
<g id="clust4" class="cluster">
<title>cluster3</title>
<polygon fill="none" stroke="black" points="1518,-1160 1518,-1235 1714,-1235 1714,-1160 1518,-1160"/>
<text text-anchor="middle" x="1616" y="-1219.8" font-family="Times,serif" font-size="14.00">Step #3 (Agent &#160;1)</text>
</g>
<g id="clust5" class="cluster">
<title>cluster4</title>
<polygon fill="none" stroke="black" points="1722,-8 1722,-1235 2816,-1235 2816,-8 1722,-8"/>
<text text-anchor="middle" x="2269" y="-1219.8" font-family="Times,serif" font-size="14.00">Step #4 (Agent &#160;1)</text>
</g>
<!-- f_0_2542840284 -->
<g id="node1" class="node">
<title>f_0_2542840284</title>
<polygon fill="#d95f02" stroke="black" points="577.5,-1204 458.5,-1204 458.5,-1168 577.5,-1168 577.5,-1204"/>
<text text-anchor="middle" x="518" y="-1182.3" font-family="Times,serif" font-size="14.00">fn_client_hello</text>
</g>
<!-- f_0_1440163378 -->
<g id="node2" class="node">
<title>f_0_1440163378</title>
<polygon fill="#1b9e77" stroke="black" points="189.5,-1132 16.5,-1132 16.5,-1096 189.5,-1096 189.5,-1132"/>
<text text-anchor="middle" x="103" y="-1110.3" font-family="Times,serif" font-size="14.00">fn_protocol_version12</text>
</g>
<!-- f_0_2542840284&#45;&gt;f_0_1440163378 -->
<g id="edge1" class="edge">
<title>f_0_2542840284&#45;&gt;f_0_1440163378</title>
<path fill="none" stroke="black" d="M458.29,-1175.27C396.31,-1165.13 296.25,-1148.64 199.55,-1132.08"/>
<polygon fill="black" stroke="black" points="200.05,-1128.62 189.6,-1130.38 198.86,-1135.52 200.05,-1128.62"/>
</g>
<!-- f_0_2473114621 -->
<g id="node3" class="node">
<title>f_0_2473114621</title>
<polygon fill="#1b9e77" stroke="black" points="336,-1132 208,-1132 208,-1096 336,-1096 336,-1132"/>
<text text-anchor="middle" x="272" y="-1110.3" font-family="Times,serif" font-size="14.00">fn_new_random</text>
</g>
<!-- f_0_2542840284&#45;&gt;f_0_2473114621 -->
<g id="edge2" class="edge">
<title>f_0_2542840284&#45;&gt;f_0_2473114621</title>
<path fill="none" stroke="black" d="M458.45,-1168.05C423.21,-1158.03 378.39,-1145.27 341.53,-1134.79"/>
<polygon fill="black" stroke="black" points="342.43,-1131.4 331.85,-1132.03 340.51,-1138.13 342.43,-1131.4"/>
</g>
<!-- f_0_900114767 -->
<g id="node4" class="node">
<title>f_0_900114767</title>
<polygon fill="#1b9e77" stroke="black" points="500,-1132 354,-1132 354,-1096 500,-1096 500,-1132"/>
<text text-anchor="middle" x="427" y="-1110.3" font-family="Times,serif" font-size="14.00">fn_new_session_id</text>
</g>
<!-- f_0_2542840284&#45;&gt;f_0_900114767 -->
<g id="edge3" class="edge">
<title>f_0_2542840284&#45;&gt;f_0_900114767</title>
<path fill="none" stroke="black" d="M495.51,-1167.7C484.04,-1158.88 469.94,-1148.03 457.52,-1138.47"/>
<polygon fill="black" stroke="black" points="459.3,-1135.43 449.24,-1132.1 455.03,-1140.98 459.3,-1135.43"/>
</g>
<!-- f_0_1020611272 -->
<g id="node5" class="node">
<title>f_0_1020611272</title>
<polygon fill="#d95f02" stroke="black" points="702,-1132 518,-1132 518,-1096 702,-1096 702,-1132"/>
<text text-anchor="middle" x="610" y="-1110.3" font-family="Times,serif" font-size="14.00">fn_append_cipher_suite</text>
</g>
<!-- f_0_2542840284&#45;&gt;f_0_1020611272 -->
<g id="edge4" class="edge">
<title>f_0_2542840284&#45;&gt;f_0_1020611272</title>
<path fill="none" stroke="black" d="M540.74,-1167.7C552.44,-1158.8 566.86,-1147.82 579.51,-1138.2"/>
<polygon fill="black" stroke="black" points="581.68,-1140.94 587.52,-1132.1 577.44,-1135.37 581.68,-1140.94"/>
</g>
<!-- f_0_2576358518 -->
<g id="node8" class="node">
<title>f_0_2576358518</title>
<polygon fill="#1b9e77" stroke="black" points="855.5,-1132 720.5,-1132 720.5,-1096 855.5,-1096 855.5,-1132"/>
<text text-anchor="middle" x="788" y="-1110.3" font-family="Times,serif" font-size="14.00">fn_compressions</text>
</g>
<!-- f_0_2542840284&#45;&gt;f_0_2576358518 -->
<g id="edge7" class="edge">
<title>f_0_2542840284&#45;&gt;f_0_2576358518</title>
<path fill="none" stroke="black" d="M577.59,-1169.55C617.35,-1159.24 669.97,-1145.6 712.64,-1134.54"/>
<polygon fill="black" stroke="black" points="713.62,-1137.9 722.42,-1132 711.86,-1131.12 713.62,-1137.9"/>
</g>
<!-- f_0_4067177937 -->
<g id="node9" class="node">
<title>f_0_4067177937</title>
<polygon fill="#d95f02" stroke="black" points="1094,-1132 874,-1132 874,-1096 1094,-1096 1094,-1132"/>
<text text-anchor="middle" x="984" y="-1110.3" font-family="Times,serif" font-size="14.00">fn_client_extensions_append</text>
</g>
<!-- f_0_2542840284&#45;&gt;f_0_4067177937 -->
<g id="edge8" class="edge">
<title>f_0_2542840284&#45;&gt;f_0_4067177937</title>
<path fill="none" stroke="black" d="M577.97,-1175.99C649.95,-1165.18 772.41,-1146.78 864.06,-1133.02"/>
<polygon fill="black" stroke="black" points="864.59,-1136.48 873.96,-1131.53 863.55,-1129.55 864.59,-1136.48"/>
</g>
<!-- f_0_1479695787 -->
<g id="node6" class="node">
<title>f_0_1479695787</title>
<polygon fill="#1b9e77" stroke="black" points="382,-1060 214,-1060 214,-1024 382,-1024 382,-1060"/>
<text text-anchor="middle" x="298" y="-1038.3" font-family="Times,serif" font-size="14.00">fn_new_cipher_suites</text>
</g>
<!-- f_0_1020611272&#45;&gt;f_0_1479695787 -->
<g id="edge5" class="edge">
<title>f_0_1020611272&#45;&gt;f_0_1479695787</title>
<path fill="none" stroke="black" d="M534.08,-1095.97C488.69,-1085.78 430.9,-1072.82 383.86,-1062.26"/>
<polygon fill="black" stroke="black" points="384.52,-1058.82 373.99,-1060.05 382.99,-1065.65 384.52,-1058.82"/>
</g>
<!-- f_0_1349999959 -->
<g id="node7" class="node">
<title>f_0_1349999959</title>
<polygon fill="#1b9e77" stroke="black" points="543.5,-1060 400.5,-1060 400.5,-1024 543.5,-1024 543.5,-1060"/>
<text text-anchor="middle" x="472" y="-1038.3" font-family="Times,serif" font-size="14.00">fn_cipher_suite12</text>
</g>
<!-- f_0_1020611272&#45;&gt;f_0_1349999959 -->
<g id="edge6" class="edge">
<title>f_0_1020611272&#45;&gt;f_0_1349999959</title>
<path fill="none" stroke="black" d="M576.24,-1095.88C557.78,-1086.51 534.72,-1074.81 514.98,-1064.8"/>
<polygon fill="black" stroke="black" points="516.39,-1061.59 505.89,-1060.19 513.22,-1067.83 516.39,-1061.59"/>
</g>
<!-- f_0_4277609805 -->
<g id="node10" class="node">
<title>f_0_4277609805</title>
<polygon fill="#d95f02" stroke="black" points="782,-1060 562,-1060 562,-1024 782,-1024 782,-1060"/>
<text text-anchor="middle" x="672" y="-1038.3" font-family="Times,serif" font-size="14.00">fn_client_extensions_append</text>
</g>
<!-- f_0_4067177937&#45;&gt;f_0_4277609805 -->
<g id="edge9" class="edge">
<title>f_0_4067177937&#45;&gt;f_0_4277609805</title>
<path fill="none" stroke="black" d="M908.08,-1095.97C862.69,-1085.78 804.9,-1072.82 757.86,-1062.26"/>
<polygon fill="black" stroke="black" points="758.52,-1058.82 747.99,-1060.05 756.99,-1065.65 758.52,-1058.82"/>
</g>
<!-- f_0_3542644756 -->
<g id="node22" class="node">
<title>f_0_3542644756</title>
<polygon fill="#1b9e77" stroke="black" points="1093.5,-1060 800.5,-1060 800.5,-1024 1093.5,-1024 1093.5,-1060"/>
<text text-anchor="middle" x="947" y="-1038.3" font-family="Times,serif" font-size="14.00">fn_signature_algorithm_cert_extension</text>
</g>
<!-- f_0_4067177937&#45;&gt;f_0_3542644756 -->
<g id="edge21" class="edge">
<title>f_0_4067177937&#45;&gt;f_0_3542644756</title>
<path fill="none" stroke="black" d="M974.85,-1095.7C970.6,-1087.64 965.44,-1077.89 960.73,-1068.98"/>
<polygon fill="black" stroke="black" points="963.81,-1067.31 956.04,-1060.1 957.62,-1070.58 963.81,-1067.31"/>
</g>
<!-- f_0_1869832231 -->
<g id="node11" class="node">
<title>f_0_1869832231</title>
<polygon fill="#d95f02" stroke="black" points="653,-988 433,-988 433,-952 653,-952 653,-988"/>
<text text-anchor="middle" x="543" y="-966.3" font-family="Times,serif" font-size="14.00">fn_client_extensions_append</text>
</g>
<!-- f_0_4277609805&#45;&gt;f_0_1869832231 -->
<g id="edge10" class="edge">
<title>f_0_4277609805&#45;&gt;f_0_1869832231</title>
<path fill="none" stroke="black" d="M640.44,-1023.88C623.34,-1014.6 602.02,-1003.03 583.68,-993.08"/>
<polygon fill="black" stroke="black" points="585.14,-989.88 574.68,-988.19 581.8,-996.04 585.14,-989.88"/>
</g>
<!-- f_0_877469914 -->
<g id="node20" class="node">
<title>f_0_877469914</title>
<polygon fill="#d95f02" stroke="black" points="914.5,-988 671.5,-988 671.5,-952 914.5,-952 914.5,-988"/>
<text text-anchor="middle" x="793" y="-966.3" font-family="Times,serif" font-size="14.00">fn_renegotiation_info_extension</text>
</g>
<!-- f_0_4277609805&#45;&gt;f_0_877469914 -->
<g id="edge19" class="edge">
<title>f_0_4277609805&#45;&gt;f_0_877469914</title>
<path fill="none" stroke="black" d="M701.6,-1023.88C717.57,-1014.64 737.46,-1003.13 754.61,-993.21"/>
<polygon fill="black" stroke="black" points="756.38,-996.23 763.29,-988.19 752.88,-990.17 756.38,-996.23"/>
</g>
<!-- f_0_3666070555 -->
<g id="node12" class="node">
<title>f_0_3666070555</title>
<polygon fill="#d95f02" stroke="black" points="415,-916 195,-916 195,-880 415,-880 415,-916"/>
<text text-anchor="middle" x="305" y="-894.3" font-family="Times,serif" font-size="14.00">fn_client_extensions_append</text>
</g>
<!-- f_0_1869832231&#45;&gt;f_0_3666070555 -->
<g id="edge11" class="edge">
<title>f_0_1869832231&#45;&gt;f_0_3666070555</title>
<path fill="none" stroke="black" d="M485.08,-951.97C451.25,-942.01 408.38,-929.41 372.96,-918.99"/>
<polygon fill="black" stroke="black" points="373.76,-915.57 363.18,-916.11 371.78,-922.29 373.76,-915.57"/>
</g>
<!-- f_0_2637953112 -->
<g id="node19" class="node">
<title>f_0_2637953112</title>
<polygon fill="#1b9e77" stroke="black" points="681,-916 433,-916 433,-880 681,-880 681,-916"/>
<text text-anchor="middle" x="557" y="-894.3" font-family="Times,serif" font-size="14.00">fn_signed_certificate_timestamp</text>
</g>
<!-- f_0_1869832231&#45;&gt;f_0_2637953112 -->
<g id="edge18" class="edge">
<title>f_0_1869832231&#45;&gt;f_0_2637953112</title>
<path fill="none" stroke="black" d="M546.46,-951.7C548,-943.98 549.86,-934.71 551.58,-926.11"/>
<polygon fill="black" stroke="black" points="555.05,-926.6 553.58,-916.1 548.19,-925.22 555.05,-926.6"/>
</g>
<!-- f_0_3129254261 -->
<g id="node13" class="node">
<title>f_0_3129254261</title>
<polygon fill="#d95f02" stroke="black" points="401,-844 181,-844 181,-808 401,-808 401,-844"/>
<text text-anchor="middle" x="291" y="-822.3" font-family="Times,serif" font-size="14.00">fn_client_extensions_append</text>
</g>
<!-- f_0_3666070555&#45;&gt;f_0_3129254261 -->
<g id="edge12" class="edge">
<title>f_0_3666070555&#45;&gt;f_0_3129254261</title>
<path fill="none" stroke="black" d="M301.54,-879.7C300,-871.98 298.14,-862.71 296.42,-854.11"/>
<polygon fill="black" stroke="black" points="299.81,-853.22 294.42,-844.1 292.95,-854.6 299.81,-853.22"/>
</g>
<!-- f_0_332331005 -->
<g id="node18" class="node">
<title>f_0_332331005</title>
<polygon fill="#1b9e77" stroke="black" points="654.5,-844 419.5,-844 419.5,-808 654.5,-808 654.5,-844"/>
<text text-anchor="middle" x="537" y="-822.3" font-family="Times,serif" font-size="14.00">fn_ec_point_formats_extension</text>
</g>
<!-- f_0_3666070555&#45;&gt;f_0_332331005 -->
<g id="edge17" class="edge">
<title>f_0_3666070555&#45;&gt;f_0_332331005</title>
<path fill="none" stroke="black" d="M361.46,-879.97C394.3,-870.06 435.87,-857.51 470.31,-847.12"/>
<polygon fill="black" stroke="black" points="471.73,-850.35 480.29,-844.11 469.71,-843.65 471.73,-850.35"/>
</g>
<!-- f_0_1840248489 -->
<g id="node14" class="node">
<title>f_0_1840248489</title>
<polygon fill="#d95f02" stroke="black" points="265,-772 45,-772 45,-736 265,-736 265,-772"/>
<text text-anchor="middle" x="155" y="-750.3" font-family="Times,serif" font-size="14.00">fn_client_extensions_append</text>
</g>
<!-- f_0_3129254261&#45;&gt;f_0_1840248489 -->
<g id="edge13" class="edge">
<title>f_0_3129254261&#45;&gt;f_0_1840248489</title>
<path fill="none" stroke="black" d="M257.73,-807.88C239.54,-798.51 216.81,-786.81 197.36,-776.8"/>
<polygon fill="black" stroke="black" points="198.89,-773.65 188.4,-772.19 195.69,-779.88 198.89,-773.65"/>
</g>
<!-- f_0_120639377 -->
<g id="node17" class="node">
<title>f_0_120639377</title>
<polygon fill="#1b9e77" stroke="black" points="541,-772 283,-772 283,-736 541,-736 541,-772"/>
<text text-anchor="middle" x="412" y="-750.3" font-family="Times,serif" font-size="14.00">fn_signature_algorithm_extension</text>
</g>
<!-- f_0_3129254261&#45;&gt;f_0_120639377 -->
<g id="edge16" class="edge">
<title>f_0_3129254261&#45;&gt;f_0_120639377</title>
<path fill="none" stroke="black" d="M320.6,-807.88C336.57,-798.64 356.46,-787.13 373.61,-777.21"/>
<polygon fill="black" stroke="black" points="375.38,-780.23 382.29,-772.19 371.88,-774.17 375.38,-780.23"/>
</g>
<!-- f_0_1605716579 -->
<g id="node15" class="node">
<title>f_0_1605716579</title>
<polygon fill="#1b9e77" stroke="black" points="233.5,-700 36.5,-700 36.5,-664 233.5,-664 233.5,-700"/>
<text text-anchor="middle" x="135" y="-678.3" font-family="Times,serif" font-size="14.00">fn_client_extensions_new</text>
</g>
<!-- f_0_1840248489&#45;&gt;f_0_1605716579 -->
<g id="edge14" class="edge">
<title>f_0_1840248489&#45;&gt;f_0_1605716579</title>
<path fill="none" stroke="black" d="M150.06,-735.7C147.83,-727.9 145.15,-718.51 142.67,-709.83"/>
<polygon fill="black" stroke="black" points="146,-708.76 139.89,-700.1 139.27,-710.68 146,-708.76"/>
</g>
<!-- f_0_1745483139 -->
<g id="node16" class="node">
<title>f_0_1745483139</title>
<polygon fill="#1b9e77" stroke="black" points="550.5,-700 251.5,-700 251.5,-664 550.5,-664 550.5,-700"/>
<text text-anchor="middle" x="401" y="-678.3" font-family="Times,serif" font-size="14.00">fn_secp384r1_support_group_extension</text>
</g>
<!-- f_0_1840248489&#45;&gt;f_0_1745483139 -->
<g id="edge15" class="edge">
<title>f_0_1840248489&#45;&gt;f_0_1745483139</title>
<path fill="none" stroke="black" d="M214.86,-735.97C249.98,-725.97 294.52,-713.3 331.23,-702.85"/>
<polygon fill="black" stroke="black" points="332.21,-706.21 340.87,-700.11 330.29,-699.48 332.21,-706.21"/>
</g>
<!-- f_0_3729272954 -->
<g id="node21" class="node">
<title>f_0_3729272954</title>
<polygon fill="#1b9e77" stroke="black" points="872.5,-916 713.5,-916 713.5,-880 872.5,-880 872.5,-916"/>
<text text-anchor="middle" x="793" y="-894.3" font-family="Times,serif" font-size="14.00">fn_empty_bytes_vec</text>
</g>
<!-- f_0_877469914&#45;&gt;f_0_3729272954 -->
<g id="edge20" class="edge">
<title>f_0_877469914&#45;&gt;f_0_3729272954</title>
<path fill="none" stroke="black" d="M793,-951.7C793,-943.98 793,-934.71 793,-926.11"/>
<polygon fill="black" stroke="black" points="796.5,-926.1 793,-916.1 789.5,-926.1 796.5,-926.1"/>
</g>
<g id="node23" class="node">
<title></title>
<ellipse fill="none" stroke="transparent" cx="1204" cy="-1186" rx="27" ry="18"/>
</g>
<!-- f_2_155439326 -->
<g id="node24" class="node">
<title>f_2_155439326</title>
<polygon fill="#d95f02" stroke="black" points="1499.5,-1204 1316.5,-1204 1316.5,-1168 1499.5,-1168 1499.5,-1204"/>
<text text-anchor="middle" x="1408" y="-1182.3" font-family="Times,serif" font-size="14.00">fn_client_key_exchange</text>
</g>
<!-- f_2_1293473898 -->
<g id="node25" class="node">
<title>f_2_1293473898</title>
<polygon fill="#d95f02" stroke="black" points="1479.5,-1132 1336.5,-1132 1336.5,-1096 1479.5,-1096 1479.5,-1132"/>
<text text-anchor="middle" x="1408" y="-1110.3" font-family="Times,serif" font-size="14.00">fn_new_pubkey12</text>
</g>
<!-- f_2_155439326&#45;&gt;f_2_1293473898 -->
<g id="edge22" class="edge">
<title>f_2_155439326&#45;&gt;f_2_1293473898</title>
<path fill="none" stroke="black" d="M1408,-1167.7C1408,-1159.98 1408,-1150.71 1408,-1142.11"/>
<polygon fill="black" stroke="black" points="1411.5,-1142.1 1408,-1132.1 1404.5,-1142.1 1411.5,-1142.1"/>
</g>
<!-- f_2_2179112113 -->
<g id="node26" class="node">
<title>f_2_2179112113</title>
<polygon fill="#d95f02" stroke="black" points="1502,-1060 1314,-1060 1314,-1024 1502,-1024 1502,-1060"/>
<text text-anchor="middle" x="1408" y="-1038.3" font-family="Times,serif" font-size="14.00">fn_decode_ecdh_params</text>
</g>
<!-- f_2_1293473898&#45;&gt;f_2_2179112113 -->
<g id="edge23" class="edge">
<title>f_2_1293473898&#45;&gt;f_2_2179112113</title>
<path fill="none" stroke="black" d="M1408,-1095.7C1408,-1087.98 1408,-1078.71 1408,-1070.11"/>
<polygon fill="black" stroke="black" points="1411.5,-1070.1 1408,-1060.1 1404.5,-1070.1 1411.5,-1070.1"/>
</g>
<!-- v_2_102518226 -->
<g id="node27" class="node">
<title>v_2_102518226</title>
<ellipse fill="#1b9e77" stroke="black" cx="1408" cy="-970" rx="78.79" ry="18"/>
<text text-anchor="middle" x="1408" y="-966.3" font-family="Times,serif" font-size="14.00">(0,2)/Vec&lt;u8&gt;</text>
</g>
<!-- f_2_2179112113&#45;&gt;v_2_102518226 -->
<g id="edge24" class="edge">
<title>f_2_2179112113&#45;&gt;v_2_102518226</title>
<path fill="none" stroke="black" d="M1408,-1023.7C1408,-1015.98 1408,-1006.71 1408,-998.11"/>
<polygon fill="black" stroke="black" points="1411.5,-998.1 1408,-988.1 1404.5,-998.1 1411.5,-998.1"/>
</g>
<!-- f_3_3005848391 -->
<g id="node28" class="node">
<title>f_3_3005848391</title>
<polygon fill="#1b9e77" stroke="black" points="1705.5,-1204 1526.5,-1204 1526.5,-1168 1705.5,-1168 1705.5,-1204"/>
<text text-anchor="middle" x="1616" y="-1182.3" font-family="Times,serif" font-size="14.00">fn_change_cipher_spec</text>
</g>
<!-- f_4_232089064 -->
<g id="node29" class="node">
<title>f_4_232089064</title>
<polygon fill="#d95f02" stroke="black" points="2358,-1204 2248,-1204 2248,-1168 2358,-1168 2358,-1204"/>
<text text-anchor="middle" x="2303" y="-1182.3" font-family="Times,serif" font-size="14.00">fn_encrypt12</text>
</g>
<!-- f_4_2394191602 -->
<g id="node30" class="node">
<title>f_4_2394191602</title>
<polygon fill="#d95f02" stroke="black" points="2119.5,-1132 2024.5,-1132 2024.5,-1096 2119.5,-1096 2119.5,-1132"/>
<text text-anchor="middle" x="2072" y="-1110.3" font-family="Times,serif" font-size="14.00">fn_finished</text>
</g>
<!-- f_4_232089064&#45;&gt;f_4_2394191602 -->
<g id="edge25" class="edge">
<title>f_4_232089064&#45;&gt;f_4_2394191602</title>
<path fill="none" stroke="black" d="M2247.96,-1168.32C2212.22,-1157.49 2165.73,-1143.4 2129.51,-1132.43"/>
<polygon fill="black" stroke="black" points="2130.16,-1128.97 2119.58,-1129.42 2128.13,-1135.67 2130.16,-1128.97"/>
</g>
<!-- v_4_208626559 -->
<g id="node72" class="node">
<title>v_4_208626559</title>
<ellipse fill="#1b9e77" stroke="black" cx="2211" cy="-1114" rx="73.39" ry="18"/>
<text text-anchor="middle" x="2211" y="-1110.3" font-family="Times,serif" font-size="14.00">(0,0)/Random</text>
</g>
<!-- f_4_232089064&#45;&gt;v_4_208626559 -->
<g id="edge67" class="edge">
<title>f_4_232089064&#45;&gt;v_4_208626559</title>
<path fill="none" stroke="black" d="M2280.26,-1167.7C2268.3,-1158.6 2253.49,-1147.33 2240.64,-1137.55"/>
<polygon fill="black" stroke="black" points="2242.61,-1134.65 2232.53,-1131.38 2238.37,-1140.22 2242.61,-1134.65"/>
</g>
<!-- f_4_1634648318 -->
<g id="node73" class="node">
<title>f_4_1634648318</title>
<polygon fill="#d95f02" stroke="black" points="2490,-1132 2302,-1132 2302,-1096 2490,-1096 2490,-1132"/>
<text text-anchor="middle" x="2396" y="-1110.3" font-family="Times,serif" font-size="14.00">fn_decode_ecdh_params</text>
</g>
<!-- f_4_232089064&#45;&gt;f_4_1634648318 -->
<g id="edge68" class="edge">
<title>f_4_232089064&#45;&gt;f_4_1634648318</title>
<path fill="none" stroke="black" d="M2325.99,-1167.7C2337.81,-1158.8 2352.39,-1147.82 2365.18,-1138.2"/>
<polygon fill="black" stroke="black" points="2367.39,-1140.91 2373.28,-1132.1 2363.18,-1135.32 2367.39,-1140.91"/>
</g>
<!-- f_4_4007117590 -->
<g id="node75" class="node">
<title>f_4_4007117590</title>
<polygon fill="#1b9e77" stroke="black" points="2586,-1132 2508,-1132 2508,-1096 2586,-1096 2586,-1132"/>
<text text-anchor="middle" x="2547" y="-1110.3" font-family="Times,serif" font-size="14.00">fn_seq_0</text>
</g>
<!-- f_4_232089064&#45;&gt;f_4_4007117590 -->
<g id="edge70" class="edge">
<title>f_4_232089064&#45;&gt;f_4_4007117590</title>
<path fill="none" stroke="black" d="M2358.24,-1171.26C2395.37,-1161.75 2445.59,-1148.37 2497.98,-1132.21"/>
<polygon fill="black" stroke="black" points="2499.28,-1135.47 2507.79,-1129.16 2497.2,-1128.79 2499.28,-1135.47"/>
</g>
<!-- f_4_183034668 -->
<g id="node31" class="node">
<title>f_4_183034668</title>
<polygon fill="#d95f02" stroke="black" points="2145,-1060 1999,-1060 1999,-1024 2145,-1024 2145,-1060"/>
<text text-anchor="middle" x="2072" y="-1038.3" font-family="Times,serif" font-size="14.00">fn_sign_transcript</text>
</g>
<!-- f_4_2394191602&#45;&gt;f_4_183034668 -->
<g id="edge26" class="edge">
<title>f_4_2394191602&#45;&gt;f_4_183034668</title>
<path fill="none" stroke="black" d="M2072,-1095.7C2072,-1087.98 2072,-1078.71 2072,-1070.11"/>
<polygon fill="black" stroke="black" points="2075.5,-1070.1 2072,-1060.1 2068.5,-1070.1 2075.5,-1070.1"/>
</g>
<!-- v_4_3401181599 -->
<g id="node32" class="node">
<title>v_4_3401181599</title>
<ellipse fill="#1b9e77" stroke="black" cx="1887" cy="-970" rx="73.39" ry="18"/>
<text text-anchor="middle" x="1887" y="-966.3" font-family="Times,serif" font-size="14.00">(0,0)/Random</text>
</g>
<!-- f_4_183034668&#45;&gt;v_4_3401181599 -->
<g id="edge27" class="edge">
<title>f_4_183034668&#45;&gt;v_4_3401181599</title>
<path fill="none" stroke="black" d="M2026.74,-1023.88C1998.9,-1013.34 1963.25,-999.85 1934.92,-989.13"/>
<polygon fill="black" stroke="black" points="1935.82,-985.73 1925.23,-985.47 1933.35,-992.28 1935.82,-985.73"/>
</g>
<!-- f_4_4109024355 -->
<g id="node33" class="node">
<title>f_4_4109024355</title>
<polygon fill="#d95f02" stroke="black" points="2166,-988 1978,-988 1978,-952 2166,-952 2166,-988"/>
<text text-anchor="middle" x="2072" y="-966.3" font-family="Times,serif" font-size="14.00">fn_decode_ecdh_params</text>
</g>
<!-- f_4_183034668&#45;&gt;f_4_4109024355 -->
<g id="edge28" class="edge">
<title>f_4_183034668&#45;&gt;f_4_4109024355</title>
<path fill="none" stroke="black" d="M2072,-1023.7C2072,-1015.98 2072,-1006.71 2072,-998.11"/>
<polygon fill="black" stroke="black" points="2075.5,-998.1 2072,-988.1 2068.5,-998.1 2075.5,-998.1"/>
</g>
<!-- f_4_3232430937 -->
<g id="node35" class="node">
<title>f_4_3232430937</title>
<polygon fill="#d95f02" stroke="black" points="2352,-988 2184,-988 2184,-952 2352,-952 2352,-988"/>
<text text-anchor="middle" x="2268" y="-966.3" font-family="Times,serif" font-size="14.00">fn_append_transcript</text>
</g>
<!-- f_4_183034668&#45;&gt;f_4_3232430937 -->
<g id="edge30" class="edge">
<title>f_4_183034668&#45;&gt;f_4_3232430937</title>
<path fill="none" stroke="black" d="M2119.7,-1023.97C2147.08,-1014.19 2181.66,-1001.84 2210.53,-991.52"/>
<polygon fill="black" stroke="black" points="2211.85,-994.77 2220.09,-988.11 2209.5,-988.18 2211.85,-994.77"/>
</g>
<!-- v_4_2279589025 -->
<g id="node34" class="node">
<title>v_4_2279589025</title>
<ellipse fill="#1b9e77" stroke="black" cx="2072" cy="-898" rx="78.79" ry="18"/>
<text text-anchor="middle" x="2072" y="-894.3" font-family="Times,serif" font-size="14.00">(0,2)/Vec&lt;u8&gt;</text>
</g>
<!-- f_4_4109024355&#45;&gt;v_4_2279589025 -->
<g id="edge29" class="edge">
<title>f_4_4109024355&#45;&gt;v_4_2279589025</title>
<path fill="none" stroke="black" d="M2072,-951.7C2072,-943.98 2072,-934.71 2072,-926.11"/>
<polygon fill="black" stroke="black" points="2075.5,-926.1 2072,-916.1 2068.5,-926.1 2075.5,-926.1"/>
</g>
<!-- f_4_671095872 -->
<g id="node36" class="node">
<title>f_4_671095872</title>
<polygon fill="#d95f02" stroke="black" points="2344,-916 2176,-916 2176,-880 2344,-880 2344,-916"/>
<text text-anchor="middle" x="2260" y="-894.3" font-family="Times,serif" font-size="14.00">fn_append_transcript</text>
</g>
<!-- f_4_3232430937&#45;&gt;f_4_671095872 -->
<g id="edge31" class="edge">
<title>f_4_3232430937&#45;&gt;f_4_671095872</title>
<path fill="none" stroke="black" d="M2266.02,-951.7C2265.14,-943.98 2264.08,-934.71 2263.1,-926.11"/>
<polygon fill="black" stroke="black" points="2266.57,-925.64 2261.95,-916.1 2259.61,-926.44 2266.57,-925.64"/>
</g>
<!-- f_4_3952195210 -->
<g id="node68" class="node">
<title>f_4_3952195210</title>
<polygon fill="#d95f02" stroke="black" points="2545.5,-916 2362.5,-916 2362.5,-880 2545.5,-880 2545.5,-916"/>
<text text-anchor="middle" x="2454" y="-894.3" font-family="Times,serif" font-size="14.00">fn_client_key_exchange</text>
</g>
<!-- f_4_3232430937&#45;&gt;f_4_3952195210 -->
<g id="edge63" class="edge">
<title>f_4_3232430937&#45;&gt;f_4_3952195210</title>
<path fill="none" stroke="black" d="M2313.5,-951.88C2339.38,-942.14 2371.97,-929.87 2399.24,-919.61"/>
<polygon fill="black" stroke="black" points="2400.52,-922.87 2408.65,-916.07 2398.06,-916.31 2400.52,-922.87"/>
</g>
<!-- f_4_2368105182 -->
<g id="node37" class="node">
<title>f_4_2368105182</title>
<polygon fill="#d95f02" stroke="black" points="2183,-844 2015,-844 2015,-808 2183,-808 2183,-844"/>
<text text-anchor="middle" x="2099" y="-822.3" font-family="Times,serif" font-size="14.00">fn_append_transcript</text>
</g>
<!-- f_4_671095872&#45;&gt;f_4_2368105182 -->
<g id="edge32" class="edge">
<title>f_4_671095872&#45;&gt;f_4_2368105182</title>
<path fill="none" stroke="black" d="M2220.61,-879.88C2198.61,-870.31 2170.99,-858.3 2147.64,-848.15"/>
<polygon fill="black" stroke="black" points="2148.82,-844.85 2138.26,-844.07 2146.03,-851.27 2148.82,-844.85"/>
</g>
<!-- v_4_943855343 -->
<g id="node67" class="node">
<title>v_4_943855343</title>
<ellipse fill="#1b9e77" stroke="black" cx="2277" cy="-826" rx="76.09" ry="18"/>
<text text-anchor="middle" x="2277" y="-822.3" font-family="Times,serif" font-size="14.00">(0,3)/Message</text>
</g>
<!-- f_4_671095872&#45;&gt;v_4_943855343 -->
<g id="edge62" class="edge">
<title>f_4_671095872&#45;&gt;v_4_943855343</title>
<path fill="none" stroke="black" d="M2264.2,-879.7C2266.1,-871.9 2268.38,-862.51 2270.48,-853.83"/>
<polygon fill="black" stroke="black" points="2273.89,-854.65 2272.85,-844.1 2267.08,-853 2273.89,-854.65"/>
</g>
<!-- f_4_521581030 -->
<g id="node38" class="node">
<title>f_4_521581030</title>
<polygon fill="#d95f02" stroke="black" points="2119,-772 1951,-772 1951,-736 2119,-736 2119,-772"/>
<text text-anchor="middle" x="2035" y="-750.3" font-family="Times,serif" font-size="14.00">fn_append_transcript</text>
</g>
<!-- f_4_2368105182&#45;&gt;f_4_521581030 -->
<g id="edge33" class="edge">
<title>f_4_2368105182&#45;&gt;f_4_521581030</title>
<path fill="none" stroke="black" d="M2083.18,-807.7C2075.43,-799.22 2065.96,-788.86 2057.48,-779.58"/>
<polygon fill="black" stroke="black" points="2059.97,-777.12 2050.64,-772.1 2054.8,-781.85 2059.97,-777.12"/>
</g>
<!-- v_4_800725335 -->
<g id="node66" class="node">
<title>v_4_800725335</title>
<ellipse fill="#1b9e77" stroke="black" cx="2213" cy="-754" rx="76.09" ry="18"/>
<text text-anchor="middle" x="2213" y="-750.3" font-family="Times,serif" font-size="14.00">(0,2)/Message</text>
</g>
<!-- f_4_2368105182&#45;&gt;v_4_800725335 -->
<g id="edge61" class="edge">
<title>f_4_2368105182&#45;&gt;v_4_800725335</title>
<path fill="none" stroke="black" d="M2126.89,-807.88C2142.35,-798.38 2161.72,-786.49 2178.17,-776.39"/>
<polygon fill="black" stroke="black" points="2180.27,-779.2 2186.96,-770.99 2176.61,-773.24 2180.27,-779.2"/>
</g>
<!-- f_4_291649246 -->
<g id="node39" class="node">
<title>f_4_291649246</title>
<polygon fill="#d95f02" stroke="black" points="2112,-700 1944,-700 1944,-664 2112,-664 2112,-700"/>
<text text-anchor="middle" x="2028" y="-678.3" font-family="Times,serif" font-size="14.00">fn_append_transcript</text>
</g>
<!-- f_4_521581030&#45;&gt;f_4_291649246 -->
<g id="edge34" class="edge">
<title>f_4_521581030&#45;&gt;f_4_291649246</title>
<path fill="none" stroke="black" d="M2033.27,-735.7C2032.5,-727.98 2031.57,-718.71 2030.71,-710.11"/>
<polygon fill="black" stroke="black" points="2034.19,-709.71 2029.71,-700.1 2027.22,-710.4 2034.19,-709.71"/>
</g>
<!-- v_4_580951095 -->
<g id="node65" class="node">
<title>v_4_580951095</title>
<ellipse fill="#1b9e77" stroke="black" cx="2206" cy="-682" rx="76.09" ry="18"/>
<text text-anchor="middle" x="2206" y="-678.3" font-family="Times,serif" font-size="14.00">(0,1)/Message</text>
</g>
<!-- f_4_521581030&#45;&gt;v_4_580951095 -->
<g id="edge60" class="edge">
<title>f_4_521581030&#45;&gt;v_4_580951095</title>
<path fill="none" stroke="black" d="M2076.83,-735.88C2101.99,-725.58 2134.05,-712.45 2159.94,-701.86"/>
<polygon fill="black" stroke="black" points="2161.6,-704.96 2169.53,-697.93 2158.95,-698.48 2161.6,-704.96"/>
</g>
<!-- f_4_3027206607 -->
<g id="node40" class="node">
<title>f_4_3027206607</title>
<polygon fill="#d95f02" stroke="black" points="2099,-628 1931,-628 1931,-592 2099,-592 2099,-628"/>
<text text-anchor="middle" x="2015" y="-606.3" font-family="Times,serif" font-size="14.00">fn_append_transcript</text>
</g>
<!-- f_4_291649246&#45;&gt;f_4_3027206607 -->
<g id="edge35" class="edge">
<title>f_4_291649246&#45;&gt;f_4_3027206607</title>
<path fill="none" stroke="black" d="M2024.79,-663.7C2023.35,-655.98 2021.63,-646.71 2020.04,-638.11"/>
<polygon fill="black" stroke="black" points="2023.44,-637.3 2018.18,-628.1 2016.56,-638.58 2023.44,-637.3"/>
</g>
<!-- v_4_1854053321 -->
<g id="node64" class="node">
<title>v_4_1854053321</title>
<ellipse fill="#1b9e77" stroke="black" cx="2193" cy="-610" rx="76.09" ry="18"/>
<text text-anchor="middle" x="2193" y="-606.3" font-family="Times,serif" font-size="14.00">(0,0)/Message</text>
</g>
<!-- f_4_291649246&#45;&gt;v_4_1854053321 -->
<g id="edge59" class="edge">
<title>f_4_291649246&#45;&gt;v_4_1854053321</title>
<path fill="none" stroke="black" d="M2068.36,-663.88C2092.56,-653.61 2123.36,-640.54 2148.29,-629.97"/>
<polygon fill="black" stroke="black" points="2149.7,-633.17 2157.54,-626.05 2146.96,-626.73 2149.7,-633.17"/>
</g>
<!-- f_4_1056478656 -->
<g id="node41" class="node">
<title>f_4_1056478656</title>
<polygon fill="#1b9e77" stroke="black" points="2070.5,-556 1907.5,-556 1907.5,-520 2070.5,-520 2070.5,-556"/>
<text text-anchor="middle" x="1989" y="-534.3" font-family="Times,serif" font-size="14.00">fn_new_transcript12</text>
</g>
<!-- f_4_3027206607&#45;&gt;f_4_1056478656 -->
<g id="edge36" class="edge">
<title>f_4_3027206607&#45;&gt;f_4_1056478656</title>
<path fill="none" stroke="black" d="M2008.57,-591.7C2005.64,-583.81 2002.11,-574.3 1998.86,-565.55"/>
<polygon fill="black" stroke="black" points="2002.12,-564.26 1995.35,-556.1 1995.55,-566.7 2002.12,-564.26"/>
</g>
<!-- f_4_4233225338 -->
<g id="node42" class="node">
<title>f_4_4233225338</title>
<polygon fill="#d95f02" stroke="black" points="2207.5,-556 2088.5,-556 2088.5,-520 2207.5,-520 2207.5,-556"/>
<text text-anchor="middle" x="2148" y="-534.3" font-family="Times,serif" font-size="14.00">fn_client_hello</text>
</g>
<!-- f_4_3027206607&#45;&gt;f_4_4233225338 -->
<g id="edge37" class="edge">
<title>f_4_3027206607&#45;&gt;f_4_4233225338</title>
<path fill="none" stroke="black" d="M2047.54,-591.88C2065.25,-582.55 2087.35,-570.92 2106.32,-560.94"/>
<polygon fill="black" stroke="black" points="2108.12,-563.94 2115.34,-556.19 2104.86,-557.75 2108.12,-563.94"/>
</g>
<!-- f_4_3883833414 -->
<g id="node43" class="node">
<title>f_4_3883833414</title>
<polygon fill="#1b9e77" stroke="black" points="1903.5,-484 1730.5,-484 1730.5,-448 1903.5,-448 1903.5,-484"/>
<text text-anchor="middle" x="1817" y="-462.3" font-family="Times,serif" font-size="14.00">fn_protocol_version12</text>
</g>
<!-- f_4_4233225338&#45;&gt;f_4_3883833414 -->
<g id="edge38" class="edge">
<title>f_4_4233225338&#45;&gt;f_4_3883833414</title>
<path fill="none" stroke="black" d="M2088.33,-521.92C2085.52,-521.26 2082.73,-520.62 2080,-520 2025.17,-507.63 1963.58,-495.14 1913.8,-485.4"/>
<polygon fill="black" stroke="black" points="1914.17,-481.91 1903.68,-483.43 1912.83,-488.78 1914.17,-481.91"/>
</g>
<!-- f_4_1830152439 -->
<g id="node44" class="node">
<title>f_4_1830152439</title>
<polygon fill="#1b9e77" stroke="black" points="2050,-484 1922,-484 1922,-448 2050,-448 2050,-484"/>
<text text-anchor="middle" x="1986" y="-462.3" font-family="Times,serif" font-size="14.00">fn_new_random</text>
</g>
<!-- f_4_4233225338&#45;&gt;f_4_1830152439 -->
<g id="edge39" class="edge">
<title>f_4_4233225338&#45;&gt;f_4_1830152439</title>
<path fill="none" stroke="black" d="M2108.37,-519.88C2086.22,-510.31 2058.44,-498.3 2034.94,-488.15"/>
<polygon fill="black" stroke="black" points="2036.07,-484.82 2025.5,-484.07 2033.29,-491.25 2036.07,-484.82"/>
</g>
<!-- f_4_1637895161 -->
<g id="node45" class="node">
<title>f_4_1637895161</title>
<polygon fill="#1b9e77" stroke="black" points="2214,-484 2068,-484 2068,-448 2214,-448 2214,-484"/>
<text text-anchor="middle" x="2141" y="-462.3" font-family="Times,serif" font-size="14.00">fn_new_session_id</text>
</g>
<!-- f_4_4233225338&#45;&gt;f_4_1637895161 -->
<g id="edge40" class="edge">
<title>f_4_4233225338&#45;&gt;f_4_1637895161</title>
<path fill="none" stroke="black" d="M2146.27,-519.7C2145.5,-511.98 2144.57,-502.71 2143.71,-494.11"/>
<polygon fill="black" stroke="black" points="2147.19,-493.71 2142.71,-484.1 2140.22,-494.4 2147.19,-493.71"/>
</g>
<!-- f_4_288942960 -->
<g id="node46" class="node">
<title>f_4_288942960</title>
<polygon fill="#d95f02" stroke="black" points="2416,-484 2232,-484 2232,-448 2416,-448 2416,-484"/>
<text text-anchor="middle" x="2324" y="-462.3" font-family="Times,serif" font-size="14.00">fn_append_cipher_suite</text>
</g>
<!-- f_4_4233225338&#45;&gt;f_4_288942960 -->
<g id="edge41" class="edge">
<title>f_4_4233225338&#45;&gt;f_4_288942960</title>
<path fill="none" stroke="black" d="M2191.05,-519.88C2215.33,-510.22 2245.84,-498.09 2271.51,-487.88"/>
<polygon fill="black" stroke="black" points="2273.09,-491.02 2281.09,-484.07 2270.5,-484.51 2273.09,-491.02"/>
</g>
<!-- f_4_3603136453 -->
<g id="node49" class="node">
<title>f_4_3603136453</title>
<polygon fill="#1b9e77" stroke="black" points="2569.5,-484 2434.5,-484 2434.5,-448 2569.5,-448 2569.5,-484"/>
<text text-anchor="middle" x="2502" y="-462.3" font-family="Times,serif" font-size="14.00">fn_compressions</text>
</g>
<!-- f_4_4233225338&#45;&gt;f_4_3603136453 -->
<g id="edge44" class="edge">
<title>f_4_4233225338&#45;&gt;f_4_3603136453</title>
<path fill="none" stroke="black" d="M2207.53,-526.11C2261.5,-516.13 2343.48,-500.68 2424.54,-484.07"/>
<polygon fill="black" stroke="black" points="2425.33,-487.48 2434.42,-482.03 2423.92,-480.62 2425.33,-487.48"/>
</g>
<!-- f_4_726491551 -->
<g id="node50" class="node">
<title>f_4_726491551</title>
<polygon fill="#d95f02" stroke="black" points="2808,-484 2588,-484 2588,-448 2808,-448 2808,-484"/>
<text text-anchor="middle" x="2698" y="-462.3" font-family="Times,serif" font-size="14.00">fn_client_extensions_append</text>
</g>
<!-- f_4_4233225338&#45;&gt;f_4_726491551 -->
<g id="edge45" class="edge">
<title>f_4_4233225338&#45;&gt;f_4_726491551</title>
<path fill="none" stroke="black" d="M2207.66,-530.04C2288.93,-520.47 2439.28,-502.47 2577.84,-484.14"/>
<polygon fill="black" stroke="black" points="2578.34,-487.61 2587.79,-482.82 2577.42,-480.67 2578.34,-487.61"/>
</g>
<!-- f_4_1633326048 -->
<g id="node47" class="node">
<title>f_4_1633326048</title>
<polygon fill="#1b9e77" stroke="black" points="2096,-412 1928,-412 1928,-376 2096,-376 2096,-412"/>
<text text-anchor="middle" x="2012" y="-390.3" font-family="Times,serif" font-size="14.00">fn_new_cipher_suites</text>
</g>
<!-- f_4_288942960&#45;&gt;f_4_1633326048 -->
<g id="edge42" class="edge">
<title>f_4_288942960&#45;&gt;f_4_1633326048</title>
<path fill="none" stroke="black" d="M2248.08,-447.97C2202.69,-437.78 2144.9,-424.82 2097.86,-414.26"/>
<polygon fill="black" stroke="black" points="2098.52,-410.82 2087.99,-412.05 2096.99,-417.65 2098.52,-410.82"/>
</g>
<!-- f_4_1447107464 -->
<g id="node48" class="node">
<title>f_4_1447107464</title>
<polygon fill="#1b9e77" stroke="black" points="2257.5,-412 2114.5,-412 2114.5,-376 2257.5,-376 2257.5,-412"/>
<text text-anchor="middle" x="2186" y="-390.3" font-family="Times,serif" font-size="14.00">fn_cipher_suite12</text>
</g>
<!-- f_4_288942960&#45;&gt;f_4_1447107464 -->
<g id="edge43" class="edge">
<title>f_4_288942960&#45;&gt;f_4_1447107464</title>
<path fill="none" stroke="black" d="M2290.24,-447.88C2271.78,-438.51 2248.72,-426.81 2228.98,-416.8"/>
<polygon fill="black" stroke="black" points="2230.39,-413.59 2219.89,-412.19 2227.22,-419.83 2230.39,-413.59"/>
</g>
<!-- f_4_2715306660 -->
<g id="node51" class="node">
<title>f_4_2715306660</title>
<polygon fill="#d95f02" stroke="black" points="2496,-412 2276,-412 2276,-376 2496,-376 2496,-412"/>
<text text-anchor="middle" x="2386" y="-390.3" font-family="Times,serif" font-size="14.00">fn_client_extensions_append</text>
</g>
<!-- f_4_726491551&#45;&gt;f_4_2715306660 -->
<g id="edge46" class="edge">
<title>f_4_726491551&#45;&gt;f_4_2715306660</title>
<path fill="none" stroke="black" d="M2622.08,-447.97C2576.69,-437.78 2518.9,-424.82 2471.86,-414.26"/>
<polygon fill="black" stroke="black" points="2472.52,-410.82 2461.99,-412.05 2470.99,-417.65 2472.52,-410.82"/>
</g>
<!-- f_4_3932863453 -->
<g id="node63" class="node">
<title>f_4_3932863453</title>
<polygon fill="#1b9e77" stroke="black" points="2807.5,-412 2514.5,-412 2514.5,-376 2807.5,-376 2807.5,-412"/>
<text text-anchor="middle" x="2661" y="-390.3" font-family="Times,serif" font-size="14.00">fn_signature_algorithm_cert_extension</text>
</g>
<!-- f_4_726491551&#45;&gt;f_4_3932863453 -->
<g id="edge58" class="edge">
<title>f_4_726491551&#45;&gt;f_4_3932863453</title>
<path fill="none" stroke="black" d="M2688.85,-447.7C2684.6,-439.64 2679.44,-429.89 2674.73,-420.98"/>
<polygon fill="black" stroke="black" points="2677.81,-419.31 2670.04,-412.1 2671.62,-422.58 2677.81,-419.31"/>
</g>
<!-- f_4_2249181527 -->
<g id="node52" class="node">
<title>f_4_2249181527</title>
<polygon fill="#d95f02" stroke="black" points="2361,-340 2141,-340 2141,-304 2361,-304 2361,-340"/>
<text text-anchor="middle" x="2251" y="-318.3" font-family="Times,serif" font-size="14.00">fn_client_extensions_append</text>
</g>
<!-- f_4_2715306660&#45;&gt;f_4_2249181527 -->
<g id="edge47" class="edge">
<title>f_4_2715306660&#45;&gt;f_4_2249181527</title>
<path fill="none" stroke="black" d="M2352.98,-375.88C2334.92,-366.51 2312.35,-354.81 2293.05,-344.8"/>
<polygon fill="black" stroke="black" points="2294.64,-341.69 2284.15,-340.19 2291.42,-347.9 2294.64,-341.69"/>
</g>
<!-- f_4_968496986 -->
<g id="node61" class="node">
<title>f_4_968496986</title>
<polygon fill="#d95f02" stroke="black" points="2622.5,-340 2379.5,-340 2379.5,-304 2622.5,-304 2622.5,-340"/>
<text text-anchor="middle" x="2501" y="-318.3" font-family="Times,serif" font-size="14.00">fn_renegotiation_info_extension</text>
</g>
<!-- f_4_2715306660&#45;&gt;f_4_968496986 -->
<g id="edge56" class="edge">
<title>f_4_2715306660&#45;&gt;f_4_968496986</title>
<path fill="none" stroke="black" d="M2414.13,-375.88C2429.17,-366.72 2447.87,-355.34 2464.06,-345.48"/>
<polygon fill="black" stroke="black" points="2466.04,-348.38 2472.76,-340.19 2462.4,-342.4 2466.04,-348.38"/>
</g>
<!-- f_4_2550168159 -->
<g id="node53" class="node">
<title>f_4_2550168159</title>
<polygon fill="#d95f02" stroke="black" points="2123,-268 1903,-268 1903,-232 2123,-232 2123,-268"/>
<text text-anchor="middle" x="2013" y="-246.3" font-family="Times,serif" font-size="14.00">fn_client_extensions_append</text>
</g>
<!-- f_4_2249181527&#45;&gt;f_4_2550168159 -->
<g id="edge48" class="edge">
<title>f_4_2249181527&#45;&gt;f_4_2550168159</title>
<path fill="none" stroke="black" d="M2193.08,-303.97C2159.25,-294.01 2116.38,-281.41 2080.96,-270.99"/>
<polygon fill="black" stroke="black" points="2081.76,-267.57 2071.18,-268.11 2079.78,-274.29 2081.76,-267.57"/>
</g>
<!-- f_4_444040803 -->
<g id="node60" class="node">
<title>f_4_444040803</title>
<polygon fill="#1b9e77" stroke="black" points="2389,-268 2141,-268 2141,-232 2389,-232 2389,-268"/>
<text text-anchor="middle" x="2265" y="-246.3" font-family="Times,serif" font-size="14.00">fn_signed_certificate_timestamp</text>
</g>
<!-- f_4_2249181527&#45;&gt;f_4_444040803 -->
<g id="edge55" class="edge">
<title>f_4_2249181527&#45;&gt;f_4_444040803</title>
<path fill="none" stroke="black" d="M2254.46,-303.7C2256,-295.98 2257.86,-286.71 2259.58,-278.11"/>
<polygon fill="black" stroke="black" points="2263.05,-278.6 2261.58,-268.1 2256.19,-277.22 2263.05,-278.6"/>
</g>
<!-- f_4_91660691 -->
<g id="node54" class="node">
<title>f_4_91660691</title>
<polygon fill="#d95f02" stroke="black" points="1993,-196 1773,-196 1773,-160 1993,-160 1993,-196"/>
<text text-anchor="middle" x="1883" y="-174.3" font-family="Times,serif" font-size="14.00">fn_client_extensions_append</text>
</g>
<!-- f_4_2550168159&#45;&gt;f_4_91660691 -->
<g id="edge49" class="edge">
<title>f_4_2550168159&#45;&gt;f_4_91660691</title>
<path fill="none" stroke="black" d="M1981.2,-231.88C1963.89,-222.55 1942.28,-210.92 1923.74,-200.94"/>
<polygon fill="black" stroke="black" points="1925.39,-197.85 1914.92,-196.19 1922.07,-204.01 1925.39,-197.85"/>
</g>
<!-- f_4_3758808524 -->
<g id="node59" class="node">
<title>f_4_3758808524</title>
<polygon fill="#1b9e77" stroke="black" points="2246.5,-196 2011.5,-196 2011.5,-160 2246.5,-160 2246.5,-196"/>
<text text-anchor="middle" x="2129" y="-174.3" font-family="Times,serif" font-size="14.00">fn_ec_point_formats_extension</text>
</g>
<!-- f_4_2550168159&#45;&gt;f_4_3758808524 -->
<g id="edge54" class="edge">
<title>f_4_2550168159&#45;&gt;f_4_3758808524</title>
<path fill="none" stroke="black" d="M2041.38,-231.88C2056.54,-222.72 2075.41,-211.34 2091.74,-201.48"/>
<polygon fill="black" stroke="black" points="2093.76,-204.35 2100.51,-196.19 2090.14,-198.36 2093.76,-204.35"/>
</g>
<!-- f_4_4105392615 -->
<g id="node55" class="node">
<title>f_4_4105392615</title>
<polygon fill="#d95f02" stroke="black" points="1979,-124 1759,-124 1759,-88 1979,-88 1979,-124"/>
<text text-anchor="middle" x="1869" y="-102.3" font-family="Times,serif" font-size="14.00">fn_client_extensions_append</text>
</g>
<!-- f_4_91660691&#45;&gt;f_4_4105392615 -->
<g id="edge50" class="edge">
<title>f_4_91660691&#45;&gt;f_4_4105392615</title>
<path fill="none" stroke="black" d="M1879.54,-159.7C1878,-151.98 1876.14,-142.71 1874.42,-134.11"/>
<polygon fill="black" stroke="black" points="1877.81,-133.22 1872.42,-124.1 1870.95,-134.6 1877.81,-133.22"/>
</g>
<!-- f_4_2226499418 -->
<g id="node58" class="node">
<title>f_4_2226499418</title>
<polygon fill="#1b9e77" stroke="black" points="2255,-124 1997,-124 1997,-88 2255,-88 2255,-124"/>
<text text-anchor="middle" x="2126" y="-102.3" font-family="Times,serif" font-size="14.00">fn_signature_algorithm_extension</text>
</g>
<!-- f_4_91660691&#45;&gt;f_4_2226499418 -->
<g id="edge53" class="edge">
<title>f_4_91660691&#45;&gt;f_4_2226499418</title>
<path fill="none" stroke="black" d="M1942.13,-159.97C1976.68,-150.01 2020.45,-137.41 2056.62,-126.99"/>
<polygon fill="black" stroke="black" points="2057.96,-130.24 2066.6,-124.11 2056.02,-123.52 2057.96,-130.24"/>
</g>
<!-- f_4_3382004456 -->
<g id="node56" class="node">
<title>f_4_3382004456</title>
<polygon fill="#1b9e77" stroke="black" points="1947.5,-52 1750.5,-52 1750.5,-16 1947.5,-16 1947.5,-52"/>
<text text-anchor="middle" x="1849" y="-30.3" font-family="Times,serif" font-size="14.00">fn_client_extensions_new</text>
</g>
<!-- f_4_4105392615&#45;&gt;f_4_3382004456 -->
<g id="edge51" class="edge">
<title>f_4_4105392615&#45;&gt;f_4_3382004456</title>
<path fill="none" stroke="black" d="M1864.06,-87.7C1861.83,-79.9 1859.15,-70.51 1856.67,-61.83"/>
<polygon fill="black" stroke="black" points="1860,-60.76 1853.89,-52.1 1853.27,-62.68 1860,-60.76"/>
</g>
<!-- f_4_2683564946 -->
<g id="node57" class="node">
<title>f_4_2683564946</title>
<polygon fill="#1b9e77" stroke="black" points="2264.5,-52 1965.5,-52 1965.5,-16 2264.5,-16 2264.5,-52"/>
<text text-anchor="middle" x="2115" y="-30.3" font-family="Times,serif" font-size="14.00">fn_secp384r1_support_group_extension</text>
</g>
<!-- f_4_4105392615&#45;&gt;f_4_2683564946 -->
<g id="edge52" class="edge">
<title>f_4_4105392615&#45;&gt;f_4_2683564946</title>
<path fill="none" stroke="black" d="M1928.86,-87.97C1963.98,-77.97 2008.52,-65.3 2045.23,-54.85"/>
<polygon fill="black" stroke="black" points="2046.21,-58.21 2054.87,-52.11 2044.29,-51.48 2046.21,-58.21"/>
</g>
<!-- f_4_4183499798 -->
<g id="node62" class="node">
<title>f_4_4183499798</title>
<polygon fill="#1b9e77" stroke="black" points="2580.5,-268 2421.5,-268 2421.5,-232 2580.5,-232 2580.5,-268"/>
<text text-anchor="middle" x="2501" y="-246.3" font-family="Times,serif" font-size="14.00">fn_empty_bytes_vec</text>
</g>
<!-- f_4_968496986&#45;&gt;f_4_4183499798 -->
<g id="edge57" class="edge">
<title>f_4_968496986&#45;&gt;f_4_4183499798</title>
<path fill="none" stroke="black" d="M2501,-303.7C2501,-295.98 2501,-286.71 2501,-278.11"/>
<polygon fill="black" stroke="black" points="2504.5,-278.1 2501,-268.1 2497.5,-278.1 2504.5,-278.1"/>
</g>
<!-- f_4_1706409094 -->
<g id="node69" class="node">
<title>f_4_1706409094</title>
<polygon fill="#d95f02" stroke="black" points="2525.5,-844 2382.5,-844 2382.5,-808 2525.5,-808 2525.5,-844"/>
<text text-anchor="middle" x="2454" y="-822.3" font-family="Times,serif" font-size="14.00">fn_new_pubkey12</text>
</g>
<!-- f_4_3952195210&#45;&gt;f_4_1706409094 -->
<g id="edge64" class="edge">
<title>f_4_3952195210&#45;&gt;f_4_1706409094</title>
<path fill="none" stroke="black" d="M2454,-879.7C2454,-871.98 2454,-862.71 2454,-854.11"/>
<polygon fill="black" stroke="black" points="2457.5,-854.1 2454,-844.1 2450.5,-854.1 2457.5,-854.1"/>
</g>
<!-- f_4_1815741702 -->
<g id="node70" class="node">
<title>f_4_1815741702</title>
<polygon fill="#d95f02" stroke="black" points="2548,-772 2360,-772 2360,-736 2548,-736 2548,-772"/>
<text text-anchor="middle" x="2454" y="-750.3" font-family="Times,serif" font-size="14.00">fn_decode_ecdh_params</text>
</g>
<!-- f_4_1706409094&#45;&gt;f_4_1815741702 -->
<g id="edge65" class="edge">
<title>f_4_1706409094&#45;&gt;f_4_1815741702</title>
<path fill="none" stroke="black" d="M2454,-807.7C2454,-799.98 2454,-790.71 2454,-782.11"/>
<polygon fill="black" stroke="black" points="2457.5,-782.1 2454,-772.1 2450.5,-782.1 2457.5,-782.1"/>
</g>
<!-- v_4_439538850 -->
<g id="node71" class="node">
<title>v_4_439538850</title>
<ellipse fill="#1b9e77" stroke="black" cx="2454" cy="-682" rx="78.79" ry="18"/>
<text text-anchor="middle" x="2454" y="-678.3" font-family="Times,serif" font-size="14.00">(0,2)/Vec&lt;u8&gt;</text>
</g>
<!-- f_4_1815741702&#45;&gt;v_4_439538850 -->
<g id="edge66" class="edge">
<title>f_4_1815741702&#45;&gt;v_4_439538850</title>
<path fill="none" stroke="black" d="M2454,-735.7C2454,-727.98 2454,-718.71 2454,-710.11"/>
<polygon fill="black" stroke="black" points="2457.5,-710.1 2454,-700.1 2450.5,-710.1 2457.5,-710.1"/>
</g>
<!-- v_4_2626561442 -->
<g id="node74" class="node">
<title>v_4_2626561442</title>
<ellipse fill="#1b9e77" stroke="black" cx="2396" cy="-1042" rx="78.79" ry="18"/>
<text text-anchor="middle" x="2396" y="-1038.3" font-family="Times,serif" font-size="14.00">(0,2)/Vec&lt;u8&gt;</text>
</g>
<!-- f_4_1634648318&#45;&gt;v_4_2626561442 -->
<g id="edge69" class="edge">
<title>f_4_1634648318&#45;&gt;v_4_2626561442</title>
<path fill="none" stroke="black" d="M2396,-1095.7C2396,-1087.98 2396,-1078.71 2396,-1070.11"/>
<polygon fill="black" stroke="black" points="2399.5,-1070.1 2396,-1060.1 2392.5,-1070.1 2399.5,-1070.1"/>
</g>
</g>
</svg>
