<?xml version="1.0" encoding="UTF-8" standalone="no"?>
<!DOCTYPE svg PUBLIC "-//W3C//DTD SVG 1.1//EN"
 "http://www.w3.org/Graphics/SVG/1.1/DTD/svg11.dtd">
<!-- Generated by graphviz version 2.47.2 (0)
 -->
<!-- Title: Trace Pages: 1 -->
<svg width="2373pt" height="1404pt"
 viewBox="0.00 0.00 2373.00 1404.00" xmlns="http://www.w3.org/2000/svg" xmlns:xlink="http://www.w3.org/1999/xlink">
<g id="graph0" class="graph" transform="scale(1 1) rotate(0) translate(4 1400)">
<title>Trace</title>
<polygon fill="white" stroke="transparent" points="-4,4 -4,-1400 2369,-1400 2369,4 -4,4"/>
<g id="clust1" class="cluster">
<title>cluster0</title>
<polygon fill="none" stroke="black" points="612,-8 612,-587 1553,-587 1553,-8 612,-8"/>
<text text-anchor="middle" x="1082.5" y="-571.8" font-family="Times,serif" font-size="14.00">Step #0 (Agent &#160;1)</text>
</g>
<g id="clust2" class="cluster">
<title>cluster1</title>
<polygon fill="none" stroke="black" points="1947,-1313 1947,-1388 2135,-1388 2135,-1313 1947,-1313"/>
<text text-anchor="middle" x="2041" y="-1372.8" font-family="Times,serif" font-size="14.00">Step #1 (Agent &#160;1) &#45; (0,)</text>
</g>
<g id="clust3" class="cluster">
<title>cluster2</title>
<polygon fill="none" stroke="black" points="612,-659 612,-950 816,-950 816,-659 612,-659"/>
<text text-anchor="middle" x="714" y="-934.8" font-family="Times,serif" font-size="14.00">Step #2 (Agent &#160;1)</text>
</g>
<g id="clust4" class="cluster">
<title>cluster3</title>
<polygon fill="none" stroke="black" points="2143,-1313 2143,-1388 2357,-1388 2357,-1313 2143,-1313"/>
<text text-anchor="middle" x="2250" y="-1372.8" font-family="Times,serif" font-size="14.00">Step #3 (Agent &#160;1)</text>
</g>
<g id="clust5" class="cluster">
<title>cluster4</title>
<polygon fill="none" stroke="black" points="8,-512 8,-1241 604,-1241 604,-512 8,-512"/>
<text text-anchor="middle" x="306" y="-1225.8" font-family="Times,serif" font-size="14.00">Step #4 (Agent &#160;1)</text>
</g>
<g id="clust7" class="cluster">
<title>cluster6</title>
<polygon fill="none" stroke="black" points="824,-875 824,-1388 1939,-1388 1939,-875 824,-875"/>
<text text-anchor="middle" x="1381.5" y="-1372.8" font-family="Times,serif" font-size="14.00">Step #6 (Agent &#160;1)</text>
</g>
<!-- f_871482917 -->
<g id="node1" class="node">
<title>f_871482917</title>
<polygon fill="#d95f02" stroke="black" points="1036.5,-556 917.5,-556 917.5,-520 1036.5,-520 1036.5,-556"/>
<text text-anchor="middle" x="977" y="-534.3" font-family="Times,serif" font-size="14.00">fn_client_hello</text>
</g>
<!-- f_954279926 -->
<g id="node2" class="node">
<title>f_954279926</title>
<polygon fill="#1b9e77" stroke="black" points="793.5,-484 620.5,-484 620.5,-448 793.5,-448 793.5,-484"/>
<text text-anchor="middle" x="707" y="-462.3" font-family="Times,serif" font-size="14.00">fn_protocol_version12</text>
</g>
<!-- f_871482917&#45;&#45;f_954279926 -->
<g id="edge1" class="edge">
<title>f_871482917&#45;&#45;f_954279926</title>
<path fill="none" stroke="black" d="M917.41,-521.55C874.55,-510.44 816.76,-495.46 772.58,-484"/>
</g>
<!-- f_182819923 -->
<g id="node3" class="node">
<title>f_182819923</title>
<polygon fill="#1b9e77" stroke="black" points="904,-484 812,-484 812,-448 904,-448 904,-484"/>
<text text-anchor="middle" x="858" y="-462.3" font-family="Times,serif" font-size="14.00">fn_random</text>
</g>
<!-- f_871482917&#45;&#45;f_182819923 -->
<g id="edge2" class="edge">
<title>f_871482917&#45;&#45;f_182819923</title>
<path fill="none" stroke="black" d="M947.89,-519.88C929.45,-509.03 905.68,-495.05 887.22,-484.19"/>
</g>
<!-- f_2126803971 -->
<g id="node4" class="node">
<title>f_2126803971</title>
<polygon fill="#1b9e77" stroke="black" points="1032,-484 922,-484 922,-448 1032,-448 1032,-484"/>
<text text-anchor="middle" x="977" y="-462.3" font-family="Times,serif" font-size="14.00">fn_session_id</text>
</g>
<!-- f_871482917&#45;&#45;f_2126803971 -->
<g id="edge3" class="edge">
<title>f_871482917&#45;&#45;f_2126803971</title>
<path fill="none" stroke="black" d="M977,-519.7C977,-508.85 977,-494.92 977,-484.1"/>
</g>
<!-- f_4098367972 -->
<g id="node5" class="node">
<title>f_4098367972</title>
<polygon fill="#1b9e77" stroke="black" points="1200,-484 1050,-484 1050,-448 1200,-448 1200,-484"/>
<text text-anchor="middle" x="1125" y="-462.3" font-family="Times,serif" font-size="14.00">fn_cipher_suites12</text>
</g>
<!-- f_871482917&#45;&#45;f_4098367972 -->
<g id="edge4" class="edge">
<title>f_871482917&#45;&#45;f_4098367972</title>
<path fill="none" stroke="black" d="M1013.2,-519.88C1036.22,-508.99 1065.92,-494.95 1088.91,-484.07"/>
</g>
<!-- f_2220486365 -->
<g id="node6" class="node">
<title>f_2220486365</title>
<polygon fill="#1b9e77" stroke="black" points="1353.5,-484 1218.5,-484 1218.5,-448 1353.5,-448 1353.5,-484"/>
<text text-anchor="middle" x="1286" y="-462.3" font-family="Times,serif" font-size="14.00">fn_compressions</text>
</g>
<!-- f_871482917&#45;&#45;f_2220486365 -->
<g id="edge5" class="edge">
<title>f_871482917&#45;&#45;f_2220486365</title>
<path fill="none" stroke="black" d="M1036.58,-523.5C1088.58,-511.72 1164,-494.64 1218.27,-482.34"/>
</g>
<!-- f_2144506048 -->
<g id="node7" class="node">
<title>f_2144506048</title>
<polygon fill="#d95f02" stroke="black" points="1544.5,-484 1371.5,-484 1371.5,-448 1544.5,-448 1544.5,-484"/>
<text text-anchor="middle" x="1458" y="-462.3" font-family="Times,serif" font-size="14.00">fn_extensions_append</text>
</g>
<!-- f_871482917&#45;&#45;f_2144506048 -->
<g id="edge6" class="edge">
<title>f_871482917&#45;&#45;f_2144506048</title>
<path fill="none" stroke="black" d="M1036.62,-529.58C1112.55,-519.95 1247.75,-502.22 1363,-484 1365.73,-483.57 1368.5,-483.12 1371.3,-482.66"/>
</g>
<!-- f_2836769742 -->
<g id="node8" class="node">
<title>f_2836769742</title>
<polygon fill="#d95f02" stroke="black" points="1328.5,-412 1155.5,-412 1155.5,-376 1328.5,-376 1328.5,-412"/>
<text text-anchor="middle" x="1242" y="-390.3" font-family="Times,serif" font-size="14.00">fn_extensions_append</text>
</g>
<!-- f_2144506048&#45;&#45;f_2836769742 -->
<g id="edge7" class="edge">
<title>f_2144506048&#45;&#45;f_2836769742</title>
<path fill="none" stroke="black" d="M1405.44,-447.97C1371.84,-437.08 1328.44,-423.01 1294.8,-412.11"/>
</g>
<!-- f_2899110765 -->
<g id="node19" class="node">
<title>f_2899110765</title>
<polygon fill="#d95f02" stroke="black" points="1543.5,-412 1376.5,-412 1376.5,-376 1543.5,-376 1543.5,-412"/>
<text text-anchor="middle" x="1460" y="-390.3" font-family="Times,serif" font-size="14.00">fn_renegotiation_info</text>
</g>
<!-- f_2144506048&#45;&#45;f_2899110765 -->
<g id="edge18" class="edge">
<title>f_2144506048&#45;&#45;f_2899110765</title>
<path fill="none" stroke="black" d="M1458.49,-447.7C1458.8,-436.85 1459.2,-422.92 1459.51,-412.1"/>
</g>
<!-- f_3145477400 -->
<g id="node9" class="node">
<title>f_3145477400</title>
<polygon fill="#d95f02" stroke="black" points="1099.5,-340 926.5,-340 926.5,-304 1099.5,-304 1099.5,-340"/>
<text text-anchor="middle" x="1013" y="-318.3" font-family="Times,serif" font-size="14.00">fn_extensions_append</text>
</g>
<!-- f_2836769742&#45;&#45;f_3145477400 -->
<g id="edge8" class="edge">
<title>f_2836769742&#45;&#45;f_3145477400</title>
<path fill="none" stroke="black" d="M1186.27,-375.97C1150.66,-365.08 1104.64,-351.01 1068.98,-340.11"/>
</g>
<!-- f_2685957588 -->
<g id="node18" class="node">
<title>f_2685957588</title>
<polygon fill="#1b9e77" stroke="black" points="1366,-340 1118,-340 1118,-304 1366,-304 1366,-340"/>
<text text-anchor="middle" x="1242" y="-318.3" font-family="Times,serif" font-size="14.00">fn_signed_certificate_timestamp</text>
</g>
<!-- f_2836769742&#45;&#45;f_2685957588 -->
<g id="edge17" class="edge">
<title>f_2836769742&#45;&#45;f_2685957588</title>
<path fill="none" stroke="black" d="M1242,-375.7C1242,-364.85 1242,-350.92 1242,-340.1"/>
</g>
<!-- f_1193607063 -->
<g id="node10" class="node">
<title>f_1193607063</title>
<polygon fill="#d95f02" stroke="black" points="1074.5,-268 901.5,-268 901.5,-232 1074.5,-232 1074.5,-268"/>
<text text-anchor="middle" x="988" y="-246.3" font-family="Times,serif" font-size="14.00">fn_extensions_append</text>
</g>
<!-- f_3145477400&#45;&#45;f_1193607063 -->
<g id="edge9" class="edge">
<title>f_3145477400&#45;&#45;f_1193607063</title>
<path fill="none" stroke="black" d="M1006.82,-303.7C1002.95,-292.85 997.97,-278.92 994.11,-268.1"/>
</g>
<!-- f_1547782570 -->
<g id="node17" class="node">
<title>f_1547782570</title>
<polygon fill="#1b9e77" stroke="black" points="1385.5,-268 1092.5,-268 1092.5,-232 1385.5,-232 1385.5,-268"/>
<text text-anchor="middle" x="1239" y="-246.3" font-family="Times,serif" font-size="14.00">fn_signature_algorithm_cert_extension</text>
</g>
<!-- f_3145477400&#45;&#45;f_1547782570 -->
<g id="edge16" class="edge">
<title>f_3145477400&#45;&#45;f_1547782570</title>
<path fill="none" stroke="black" d="M1068,-303.97C1103.14,-293.08 1148.56,-279.01 1183.76,-268.11"/>
</g>
<!-- f_3613553948 -->
<g id="node11" class="node">
<title>f_3613553948</title>
<polygon fill="#d95f02" stroke="black" points="1024.5,-196 851.5,-196 851.5,-160 1024.5,-160 1024.5,-196"/>
<text text-anchor="middle" x="938" y="-174.3" font-family="Times,serif" font-size="14.00">fn_extensions_append</text>
</g>
<!-- f_1193607063&#45;&#45;f_3613553948 -->
<g id="edge10" class="edge">
<title>f_1193607063&#45;&#45;f_3613553948</title>
<path fill="none" stroke="black" d="M975.64,-231.7C967.89,-220.85 957.94,-206.92 950.22,-196.1"/>
</g>
<!-- f_1406516563 -->
<g id="node16" class="node">
<title>f_1406516563</title>
<polygon fill="#1b9e77" stroke="black" points="1201.5,-196 1042.5,-196 1042.5,-160 1201.5,-160 1201.5,-196"/>
<text text-anchor="middle" x="1122" y="-174.3" font-family="Times,serif" font-size="14.00">fn_ec_point_formats</text>
</g>
<!-- f_1193607063&#45;&#45;f_1406516563 -->
<g id="edge15" class="edge">
<title>f_1193607063&#45;&#45;f_1406516563</title>
<path fill="none" stroke="black" d="M1020.78,-231.88C1041.55,-221.03 1068.3,-207.05 1089.09,-196.19"/>
</g>
<!-- f_2388555931 -->
<g id="node12" class="node">
<title>f_2388555931</title>
<polygon fill="#d95f02" stroke="black" points="924.5,-124 751.5,-124 751.5,-88 924.5,-88 924.5,-124"/>
<text text-anchor="middle" x="838" y="-102.3" font-family="Times,serif" font-size="14.00">fn_extensions_append</text>
</g>
<!-- f_3613553948&#45;&#45;f_2388555931 -->
<g id="edge11" class="edge">
<title>f_3613553948&#45;&#45;f_2388555931</title>
<path fill="none" stroke="black" d="M913.54,-159.88C898.04,-149.03 878.07,-135.05 862.56,-124.19"/>
</g>
<!-- f_2784335120 -->
<g id="node15" class="node">
<title>f_2784335120</title>
<polygon fill="#1b9e77" stroke="black" points="1201,-124 943,-124 943,-88 1201,-88 1201,-124"/>
<text text-anchor="middle" x="1072" y="-102.3" font-family="Times,serif" font-size="14.00">fn_signature_algorithm_extension</text>
</g>
<!-- f_3613553948&#45;&#45;f_2784335120 -->
<g id="edge14" class="edge">
<title>f_3613553948&#45;&#45;f_2784335120</title>
<path fill="none" stroke="black" d="M970.78,-159.88C991.55,-149.03 1018.3,-135.05 1039.09,-124.19"/>
</g>
<!-- f_3825652078 -->
<g id="node13" class="node">
<title>f_3825652078</title>
<polygon fill="#1b9e77" stroke="black" points="797,-52 647,-52 647,-16 797,-16 797,-52"/>
<text text-anchor="middle" x="722" y="-30.3" font-family="Times,serif" font-size="14.00">fn_extensions_new</text>
</g>
<!-- f_2388555931&#45;&#45;f_3825652078 -->
<g id="edge12" class="edge">
<title>f_2388555931&#45;&#45;f_3825652078</title>
<path fill="none" stroke="black" d="M809.62,-87.88C791.65,-77.03 768.48,-63.05 750.49,-52.19"/>
</g>
<!-- f_4171744056 -->
<g id="node14" class="node">
<title>f_4171744056</title>
<polygon fill="#1b9e77" stroke="black" points="1093,-52 815,-52 815,-16 1093,-16 1093,-52"/>
<text text-anchor="middle" x="954" y="-30.3" font-family="Times,serif" font-size="14.00">fn_x25519_support_group_extension</text>
</g>
<!-- f_2388555931&#45;&#45;f_4171744056 -->
<g id="edge13" class="edge">
<title>f_2388555931&#45;&#45;f_4171744056</title>
<path fill="none" stroke="black" d="M866.38,-87.88C884.35,-77.03 907.52,-63.05 925.51,-52.19"/>
</g>
<!-- f_2386984330 -->
<g id="node20" class="node">
<title>f_2386984330</title>
<polygon fill="#1b9e77" stroke="black" points="1543.5,-340 1384.5,-340 1384.5,-304 1543.5,-304 1543.5,-340"/>
<text text-anchor="middle" x="1464" y="-318.3" font-family="Times,serif" font-size="14.00">fn_empty_bytes_vec</text>
</g>
<!-- f_2899110765&#45;&#45;f_2386984330 -->
<g id="edge19" class="edge">
<title>f_2899110765&#45;&#45;f_2386984330</title>
<path fill="none" stroke="black" d="M1460.99,-375.7C1461.61,-364.85 1462.4,-350.92 1463.02,-340.1"/>
</g>
<g id="node21" class="node">
<title></title>
<ellipse fill="none" stroke="transparent" cx="2041" cy="-1339" rx="27" ry="18"/>
</g>
<!-- f_4114050573 -->
<g id="node22" class="node">
<title>f_4114050573</title>
<polygon fill="#d95f02" stroke="black" points="804.5,-919 621.5,-919 621.5,-883 804.5,-883 804.5,-919"/>
<text text-anchor="middle" x="713" y="-897.3" font-family="Times,serif" font-size="14.00">fn_client_key_exchange</text>
</g>
<!-- f_3377255036 -->
<g id="node23" class="node">
<title>f_3377255036</title>
<polygon fill="#d95f02" stroke="black" points="784.5,-847 641.5,-847 641.5,-811 784.5,-811 784.5,-847"/>
<text text-anchor="middle" x="713" y="-825.3" font-family="Times,serif" font-size="14.00">fn_new_pubkey12</text>
</g>
<!-- f_4114050573&#45;&#45;f_3377255036 -->
<g id="edge20" class="edge">
<title>f_4114050573&#45;&#45;f_3377255036</title>
<path fill="none" stroke="black" d="M713,-882.7C713,-871.85 713,-857.92 713,-847.1"/>
</g>
<!-- f_985444275 -->
<g id="node24" class="node">
<title>f_985444275</title>
<polygon fill="#d95f02" stroke="black" points="808,-775 620,-775 620,-739 808,-739 808,-775"/>
<text text-anchor="middle" x="714" y="-753.3" font-family="Times,serif" font-size="14.00">fn_decode_ecdh_params</text>
</g>
<!-- f_3377255036&#45;&#45;f_985444275 -->
<g id="edge21" class="edge">
<title>f_3377255036&#45;&#45;f_985444275</title>
<path fill="none" stroke="black" d="M713.25,-810.7C713.4,-799.85 713.6,-785.92 713.76,-775.1"/>
</g>
<!-- v_3798685626 -->
<g id="node25" class="node">
<title>v_3798685626</title>
<ellipse fill="#1b9e77" stroke="black" cx="714" cy="-685" rx="78.79" ry="18"/>
<text text-anchor="middle" x="714" y="-681.3" font-family="Times,serif" font-size="14.00">(0,2)/Vec&lt;u8&gt;</text>
</g>
<!-- f_985444275&#45;&#45;v_3798685626 -->
<g id="edge22" class="edge">
<title>f_985444275&#45;&#45;v_3798685626</title>
<path fill="none" stroke="black" d="M714,-738.7C714,-727.85 714,-713.92 714,-703.1"/>
</g>
<!-- f_3266782358 -->
<g id="node26" class="node">
<title>f_3266782358</title>
<polygon fill="#1b9e77" stroke="black" points="2348.5,-1357 2151.5,-1357 2151.5,-1321 2348.5,-1321 2348.5,-1357"/>
<text text-anchor="middle" x="2250" y="-1335.3" font-family="Times,serif" font-size="14.00">fn_change_cipher_spec12</text>
</g>
<!-- f_3717219661 -->
<g id="node27" class="node">
<title>f_3717219661</title>
<polygon fill="#d95f02" stroke="black" points="424,-1210 314,-1210 314,-1174 424,-1174 424,-1210"/>
<text text-anchor="middle" x="369" y="-1188.3" font-family="Times,serif" font-size="14.00">fn_encrypt12</text>
</g>
<!-- f_396162240 -->
<g id="node28" class="node">
<title>f_396162240</title>
<polygon fill="#d95f02" stroke="black" points="499.5,-1138 386.5,-1138 386.5,-1102 499.5,-1102 499.5,-1138"/>
<text text-anchor="middle" x="443" y="-1116.3" font-family="Times,serif" font-size="14.00">fn_finished12</text>
</g>
<!-- f_3717219661&#45;&#45;f_396162240 -->
<g id="edge23" class="edge">
<title>f_3717219661&#45;&#45;f_396162240</title>
<path fill="none" stroke="black" d="M387.29,-1173.7C398.76,-1162.85 413.49,-1148.92 424.92,-1138.1"/>
</g>
<!-- v_3693094152 -->
<g id="node44" class="node">
<title>v_3693094152</title>
<ellipse fill="#1b9e77" stroke="black" cx="295" cy="-1120" rx="73.39" ry="18"/>
<text text-anchor="middle" x="295" y="-1116.3" font-family="Times,serif" font-size="14.00">(0,0)/Random</text>
</g>
<!-- f_3717219661&#45;&#45;v_3693094152 -->
<g id="edge41" class="edge">
<title>f_3717219661&#45;&#45;v_3693094152</title>
<path fill="none" stroke="black" d="M350.71,-1173.7C339.07,-1162.68 324.07,-1148.5 312.57,-1137.62"/>
</g>
<!-- f_4279045303 -->
<g id="node45" class="node">
<title>f_4279045303</title>
<polygon fill="#d95f02" stroke="black" points="204,-1138 16,-1138 16,-1102 204,-1102 204,-1138"/>
<text text-anchor="middle" x="110" y="-1116.3" font-family="Times,serif" font-size="14.00">fn_decode_ecdh_params</text>
</g>
<!-- f_3717219661&#45;&#45;f_4279045303 -->
<g id="edge42" class="edge">
<title>f_3717219661&#45;&#45;f_4279045303</title>
<path fill="none" stroke="black" d="M313.76,-1176.07C272.6,-1164.95 216.34,-1149.74 173.36,-1138.12"/>
</g>
<!-- f_821304354 -->
<g id="node47" class="node">
<title>f_821304354</title>
<polygon fill="#1b9e77" stroke="black" points="596,-1138 518,-1138 518,-1102 596,-1102 596,-1138"/>
<text text-anchor="middle" x="557" y="-1116.3" font-family="Times,serif" font-size="14.00">fn_seq_0</text>
</g>
<!-- f_3717219661&#45;&#45;f_821304354 -->
<g id="edge44" class="edge">
<title>f_3717219661&#45;&#45;f_821304354</title>
<path fill="none" stroke="black" d="M414.99,-1173.88C446.51,-1162.14 487.89,-1146.73 517.84,-1135.58"/>
</g>
<!-- f_283975376 -->
<g id="node29" class="node">
<title>f_283975376</title>
<polygon fill="#d95f02" stroke="black" points="516,-1066 370,-1066 370,-1030 516,-1030 516,-1066"/>
<text text-anchor="middle" x="443" y="-1044.3" font-family="Times,serif" font-size="14.00">fn_sign_transcript</text>
</g>
<!-- f_396162240&#45;&#45;f_283975376 -->
<g id="edge24" class="edge">
<title>f_396162240&#45;&#45;f_283975376</title>
<path fill="none" stroke="black" d="M443,-1101.7C443,-1090.85 443,-1076.92 443,-1066.1"/>
</g>
<!-- v_1409698371 -->
<g id="node30" class="node">
<title>v_1409698371</title>
<ellipse fill="#1b9e77" stroke="black" cx="131" cy="-976" rx="73.39" ry="18"/>
<text text-anchor="middle" x="131" y="-972.3" font-family="Times,serif" font-size="14.00">(0,0)/Random</text>
</g>
<!-- f_283975376&#45;&#45;v_1409698371 -->
<g id="edge25" class="edge">
<title>f_283975376&#45;&#45;v_1409698371</title>
<path fill="none" stroke="black" d="M369.85,-1030.59C312.57,-1017.74 234.31,-1000.18 183.22,-988.72"/>
</g>
<!-- f_2704309092 -->
<g id="node31" class="node">
<title>f_2704309092</title>
<polygon fill="#d95f02" stroke="black" points="410,-994 222,-994 222,-958 410,-958 410,-994"/>
<text text-anchor="middle" x="316" y="-972.3" font-family="Times,serif" font-size="14.00">fn_decode_ecdh_params</text>
</g>
<!-- f_283975376&#45;&#45;f_2704309092 -->
<g id="edge26" class="edge">
<title>f_283975376&#45;&#45;f_2704309092</title>
<path fill="none" stroke="black" d="M411.93,-1029.88C392.25,-1019.03 366.89,-1005.05 347.19,-994.19"/>
</g>
<!-- f_1607470574 -->
<g id="node33" class="node">
<title>f_1607470574</title>
<polygon fill="#d95f02" stroke="black" points="596,-994 428,-994 428,-958 596,-958 596,-994"/>
<text text-anchor="middle" x="512" y="-972.3" font-family="Times,serif" font-size="14.00">fn_append_transcript</text>
</g>
<!-- f_283975376&#45;&#45;f_1607470574 -->
<g id="edge28" class="edge">
<title>f_283975376&#45;&#45;f_1607470574</title>
<path fill="none" stroke="black" d="M460.06,-1029.7C470.75,-1018.85 484.48,-1004.92 495.14,-994.1"/>
</g>
<!-- v_1213562335 -->
<g id="node32" class="node">
<title>v_1213562335</title>
<ellipse fill="#1b9e77" stroke="black" cx="316" cy="-901" rx="78.79" ry="18"/>
<text text-anchor="middle" x="316" y="-897.3" font-family="Times,serif" font-size="14.00">(0,2)/Vec&lt;u8&gt;</text>
</g>
<!-- f_2704309092&#45;&#45;v_1213562335 -->
<g id="edge27" class="edge">
<title>f_2704309092&#45;&#45;v_1213562335</title>
<path fill="none" stroke="black" d="M316,-957.7C316,-946.06 316,-930.79 316,-919.18"/>
</g>
<!-- f_1607470574&#45;&#45;f_4114050573 -->
<g id="edge40" class="edge">
<title>f_1607470574&#45;&#45;f_4114050573</title>
<path fill="none" stroke="black" d="M583.2,-957.94C591.62,-955.49 600.05,-952.83 608,-950 632.55,-941.27 659.24,-929.03 679.57,-919.09"/>
</g>
<!-- f_2617199066 -->
<g id="node34" class="node">
<title>f_2617199066</title>
<polygon fill="#d95f02" stroke="black" points="596,-919 428,-919 428,-883 596,-883 596,-919"/>
<text text-anchor="middle" x="512" y="-897.3" font-family="Times,serif" font-size="14.00">fn_append_transcript</text>
</g>
<!-- f_1607470574&#45;&#45;f_2617199066 -->
<g id="edge29" class="edge">
<title>f_1607470574&#45;&#45;f_2617199066</title>
<path fill="none" stroke="black" d="M512,-957.7C512,-946.06 512,-930.79 512,-919.18"/>
</g>
<!-- f_1763974302 -->
<g id="node35" class="node">
<title>f_1763974302</title>
<polygon fill="#d95f02" stroke="black" points="426,-847 258,-847 258,-811 426,-811 426,-847"/>
<text text-anchor="middle" x="342" y="-825.3" font-family="Times,serif" font-size="14.00">fn_append_transcript</text>
</g>
<!-- f_2617199066&#45;&#45;f_1763974302 -->
<g id="edge30" class="edge">
<title>f_2617199066&#45;&#45;f_1763974302</title>
<path fill="none" stroke="black" d="M470.41,-882.88C443.97,-871.99 409.87,-857.95 383.45,-847.07"/>
</g>
<!-- v_2856353264 -->
<g id="node43" class="node">
<title>v_2856353264</title>
<ellipse fill="#1b9e77" stroke="black" cx="520" cy="-829" rx="76.09" ry="18"/>
<text text-anchor="middle" x="520" y="-825.3" font-family="Times,serif" font-size="14.00">(0,3)/Message</text>
</g>
<!-- f_2617199066&#45;&#45;v_2856353264 -->
<g id="edge39" class="edge">
<title>f_2617199066&#45;&#45;v_2856353264</title>
<path fill="none" stroke="black" d="M513.98,-882.7C515.22,-871.85 516.81,-857.92 518.05,-847.1"/>
</g>
<!-- f_3918324515 -->
<g id="node36" class="node">
<title>f_3918324515</title>
<polygon fill="#d95f02" stroke="black" points="426,-775 258,-775 258,-739 426,-739 426,-775"/>
<text text-anchor="middle" x="342" y="-753.3" font-family="Times,serif" font-size="14.00">fn_append_transcript</text>
</g>
<!-- f_1763974302&#45;&#45;f_3918324515 -->
<g id="edge31" class="edge">
<title>f_1763974302&#45;&#45;f_3918324515</title>
<path fill="none" stroke="black" d="M342,-810.7C342,-799.85 342,-785.92 342,-775.1"/>
</g>
<!-- v_2125834936 -->
<g id="node42" class="node">
<title>v_2125834936</title>
<ellipse fill="#1b9e77" stroke="black" cx="520" cy="-757" rx="76.09" ry="18"/>
<text text-anchor="middle" x="520" y="-753.3" font-family="Times,serif" font-size="14.00">(0,2)/Message</text>
</g>
<!-- f_1763974302&#45;&#45;v_2125834936 -->
<g id="edge38" class="edge">
<title>f_1763974302&#45;&#45;v_2125834936</title>
<path fill="none" stroke="black" d="M385.54,-810.88C415.29,-799.18 454.29,-783.84 482.63,-772.7"/>
</g>
<!-- f_3249176782 -->
<g id="node37" class="node">
<title>f_3249176782</title>
<polygon fill="#d95f02" stroke="black" points="426,-703 258,-703 258,-667 426,-667 426,-703"/>
<text text-anchor="middle" x="342" y="-681.3" font-family="Times,serif" font-size="14.00">fn_append_transcript</text>
</g>
<!-- f_3918324515&#45;&#45;f_3249176782 -->
<g id="edge32" class="edge">
<title>f_3918324515&#45;&#45;f_3249176782</title>
<path fill="none" stroke="black" d="M342,-738.7C342,-727.85 342,-713.92 342,-703.1"/>
</g>
<!-- v_3911576417 -->
<g id="node41" class="node">
<title>v_3911576417</title>
<ellipse fill="#1b9e77" stroke="black" cx="520" cy="-685" rx="76.09" ry="18"/>
<text text-anchor="middle" x="520" y="-681.3" font-family="Times,serif" font-size="14.00">(0,1)/Message</text>
</g>
<!-- f_3918324515&#45;&#45;v_3911576417 -->
<g id="edge37" class="edge">
<title>f_3918324515&#45;&#45;v_3911576417</title>
<path fill="none" stroke="black" d="M385.54,-738.88C415.29,-727.18 454.29,-711.84 482.63,-700.7"/>
</g>
<!-- f_245592391 -->
<g id="node38" class="node">
<title>f_245592391</title>
<polygon fill="#d95f02" stroke="black" points="426,-631 258,-631 258,-595 426,-595 426,-631"/>
<text text-anchor="middle" x="342" y="-609.3" font-family="Times,serif" font-size="14.00">fn_append_transcript</text>
</g>
<!-- f_3249176782&#45;&#45;f_245592391 -->
<g id="edge33" class="edge">
<title>f_3249176782&#45;&#45;f_245592391</title>
<path fill="none" stroke="black" d="M342,-666.7C342,-655.85 342,-641.92 342,-631.1"/>
</g>
<!-- v_1914298358 -->
<g id="node40" class="node">
<title>v_1914298358</title>
<ellipse fill="#1b9e77" stroke="black" cx="520" cy="-613" rx="76.09" ry="18"/>
<text text-anchor="middle" x="520" y="-609.3" font-family="Times,serif" font-size="14.00">(0,0)/Message</text>
</g>
<!-- f_3249176782&#45;&#45;v_1914298358 -->
<g id="edge36" class="edge">
<title>f_3249176782&#45;&#45;v_1914298358</title>
<path fill="none" stroke="black" d="M385.54,-666.88C415.29,-655.18 454.29,-639.84 482.63,-628.7"/>
</g>
<!-- f_245592391&#45;&#45;f_871482917 -->
<g id="edge35" class="edge">
<title>f_245592391&#45;&#45;f_871482917</title>
<path fill="none" stroke="black" d="M426.07,-596.11C429.08,-595.71 432.06,-595.33 435,-595 511.48,-586.28 531.33,-593.75 608,-587 717.56,-577.36 844.6,-559.31 917.41,-548.3"/>
</g>
<!-- f_1037210325 -->
<g id="node39" class="node">
<title>f_1037210325</title>
<polygon fill="#1b9e77" stroke="black" points="423.5,-556 260.5,-556 260.5,-520 423.5,-520 423.5,-556"/>
<text text-anchor="middle" x="342" y="-534.3" font-family="Times,serif" font-size="14.00">fn_new_transcript12</text>
</g>
<!-- f_245592391&#45;&#45;f_1037210325 -->
<g id="edge34" class="edge">
<title>f_245592391&#45;&#45;f_1037210325</title>
<path fill="none" stroke="black" d="M342,-594.7C342,-583.06 342,-567.79 342,-556.18"/>
</g>
<!-- v_2971809694 -->
<g id="node46" class="node">
<title>v_2971809694</title>
<ellipse fill="#1b9e77" stroke="black" cx="110" cy="-1048" rx="78.79" ry="18"/>
<text text-anchor="middle" x="110" y="-1044.3" font-family="Times,serif" font-size="14.00">(0,2)/Vec&lt;u8&gt;</text>
</g>
<!-- f_4279045303&#45;&#45;v_2971809694 -->
<g id="edge43" class="edge">
<title>f_4279045303&#45;&#45;v_2971809694</title>
<path fill="none" stroke="black" d="M110,-1101.7C110,-1090.85 110,-1076.92 110,-1066.1"/>
</g>
<!-- f_2015240566 -->
<g id="node48" class="node">
<title>f_2015240566</title>
<polygon fill="#d95f02" stroke="black" points="1653,-1357 1543,-1357 1543,-1321 1653,-1321 1653,-1357"/>
<text text-anchor="middle" x="1598" y="-1335.3" font-family="Times,serif" font-size="14.00">fn_encrypt12</text>
</g>
<!-- f_4110670618 -->
<g id="node49" class="node">
<title>f_4110670618</title>
<polygon fill="#d95f02" stroke="black" points="1365.5,-1285 1246.5,-1285 1246.5,-1249 1365.5,-1249 1365.5,-1285"/>
<text text-anchor="middle" x="1306" y="-1263.3" font-family="Times,serif" font-size="14.00">fn_client_hello</text>
</g>
<!-- f_2015240566&#45;&#45;f_4110670618 -->
<g id="edge45" class="edge">
<title>f_2015240566&#45;&#45;f_4110670618</title>
<path fill="none" stroke="black" d="M1542.73,-1324.75C1492.14,-1312.62 1417.46,-1294.72 1365.56,-1282.28"/>
</g>
<!-- v_1694698997 -->
<g id="node64" class="node">
<title>v_1694698997</title>
<ellipse fill="#1b9e77" stroke="black" cx="1506" cy="-1267" rx="73.39" ry="18"/>
<text text-anchor="middle" x="1506" y="-1263.3" font-family="Times,serif" font-size="14.00">(0,0)/Random</text>
</g>
<!-- f_2015240566&#45;&#45;v_1694698997 -->
<g id="edge61" class="edge">
<title>f_2015240566&#45;&#45;v_1694698997</title>
<path fill="none" stroke="black" d="M1575.26,-1320.7C1560.68,-1309.6 1541.87,-1295.29 1527.53,-1284.38"/>
</g>
<!-- f_752054941 -->
<g id="node65" class="node">
<title>f_752054941</title>
<polygon fill="#d95f02" stroke="black" points="1785,-1285 1597,-1285 1597,-1249 1785,-1249 1785,-1285"/>
<text text-anchor="middle" x="1691" y="-1263.3" font-family="Times,serif" font-size="14.00">fn_decode_ecdh_params</text>
</g>
<!-- f_2015240566&#45;&#45;f_752054941 -->
<g id="edge62" class="edge">
<title>f_2015240566&#45;&#45;f_752054941</title>
<path fill="none" stroke="black" d="M1620.99,-1320.7C1635.4,-1309.85 1653.91,-1295.92 1668.28,-1285.1"/>
</g>
<!-- f_273189644 -->
<g id="node67" class="node">
<title>f_273189644</title>
<polygon fill="#1b9e77" stroke="black" points="1881,-1285 1803,-1285 1803,-1249 1881,-1249 1881,-1285"/>
<text text-anchor="middle" x="1842" y="-1263.3" font-family="Times,serif" font-size="14.00">fn_seq_1</text>
</g>
<!-- f_2015240566&#45;&#45;f_273189644 -->
<g id="edge64" class="edge">
<title>f_2015240566&#45;&#45;f_273189644</title>
<path fill="none" stroke="black" d="M1653.24,-1324.26C1692.69,-1314.16 1746.89,-1299.69 1794,-1285 1796.87,-1284.11 1799.82,-1283.15 1802.79,-1282.16"/>
</g>
<!-- f_1480765937 -->
<g id="node50" class="node">
<title>f_1480765937</title>
<polygon fill="#1b9e77" stroke="black" points="1755.5,-1210 1582.5,-1210 1582.5,-1174 1755.5,-1174 1755.5,-1210"/>
<text text-anchor="middle" x="1669" y="-1188.3" font-family="Times,serif" font-size="14.00">fn_protocol_version12</text>
</g>
<!-- f_4110670618&#45;&#45;f_1480765937 -->
<g id="edge46" class="edge">
<title>f_4110670618&#45;&#45;f_1480765937</title>
<path fill="none" stroke="black" d="M1365.6,-1256.35C1384.26,-1253.62 1404.95,-1250.88 1424,-1249 1457.22,-1245.73 1541.75,-1249.6 1574,-1241 1598.64,-1234.43 1624.32,-1221 1642.76,-1210.01"/>
</g>
<!-- f_1472369679 -->
<g id="node51" class="node">
<title>f_1472369679</title>
<polygon fill="#1b9e77" stroke="black" points="924,-1210 832,-1210 832,-1174 924,-1174 924,-1210"/>
<text text-anchor="middle" x="878" y="-1188.3" font-family="Times,serif" font-size="14.00">fn_random</text>
</g>
<!-- f_4110670618&#45;&#45;f_1472369679 -->
<g id="edge47" class="edge">
<title>f_4110670618&#45;&#45;f_1472369679</title>
<path fill="none" stroke="black" d="M1246.44,-1266.6C1155.81,-1266.74 988.03,-1263.76 933,-1241 917.07,-1234.41 902.55,-1221.28 892.43,-1210.41"/>
</g>
<!-- f_4189551057 -->
<g id="node52" class="node">
<title>f_4189551057</title>
<polygon fill="#1b9e77" stroke="black" points="1052,-1210 942,-1210 942,-1174 1052,-1174 1052,-1210"/>
<text text-anchor="middle" x="997" y="-1188.3" font-family="Times,serif" font-size="14.00">fn_session_id</text>
</g>
<!-- f_4110670618&#45;&#45;f_4189551057 -->
<g id="edge48" class="edge">
<title>f_4110670618&#45;&#45;f_4189551057</title>
<path fill="none" stroke="black" d="M1246.47,-1263.58C1185.02,-1260.43 1093.65,-1253.76 1061,-1241 1043.41,-1234.12 1026.44,-1221.01 1014.41,-1210.22"/>
</g>
<!-- f_585045476 -->
<g id="node53" class="node">
<title>f_585045476</title>
<polygon fill="#1b9e77" stroke="black" points="1220,-1210 1070,-1210 1070,-1174 1220,-1174 1220,-1210"/>
<text text-anchor="middle" x="1145" y="-1188.3" font-family="Times,serif" font-size="14.00">fn_cipher_suites12</text>
</g>
<!-- f_4110670618&#45;&#45;f_585045476 -->
<g id="edge49" class="edge">
<title>f_4110670618&#45;&#45;f_585045476</title>
<path fill="none" stroke="black" d="M1249.91,-1248.94C1243.12,-1246.47 1236.35,-1243.81 1230,-1241 1210,-1232.17 1188.57,-1220.05 1172.24,-1210.2"/>
</g>
<!-- f_198319058 -->
<g id="node54" class="node">
<title>f_198319058</title>
<polygon fill="#1b9e77" stroke="black" points="1373.5,-1210 1238.5,-1210 1238.5,-1174 1373.5,-1174 1373.5,-1210"/>
<text text-anchor="middle" x="1306" y="-1188.3" font-family="Times,serif" font-size="14.00">fn_compressions</text>
</g>
<!-- f_4110670618&#45;&#45;f_198319058 -->
<g id="edge50" class="edge">
<title>f_4110670618&#45;&#45;f_198319058</title>
<path fill="none" stroke="black" d="M1306,-1248.7C1306,-1237.06 1306,-1221.79 1306,-1210.18"/>
</g>
<!-- f_2360163919 -->
<g id="node55" class="node">
<title>f_2360163919</title>
<polygon fill="#d95f02" stroke="black" points="1564.5,-1210 1391.5,-1210 1391.5,-1174 1564.5,-1174 1564.5,-1210"/>
<text text-anchor="middle" x="1478" y="-1188.3" font-family="Times,serif" font-size="14.00">fn_extensions_append</text>
</g>
<!-- f_4110670618&#45;&#45;f_2360163919 -->
<g id="edge51" class="edge">
<title>f_4110670618&#45;&#45;f_2360163919</title>
<path fill="none" stroke="black" d="M1361.89,-1248.98C1369.05,-1246.47 1376.24,-1243.78 1383,-1241 1405.04,-1231.92 1428.99,-1219.8 1447.33,-1210.01"/>
</g>
<!-- f_3608630347 -->
<g id="node56" class="node">
<title>f_3608630347</title>
<polygon fill="#d95f02" stroke="black" points="1564.5,-1138 1391.5,-1138 1391.5,-1102 1564.5,-1102 1564.5,-1138"/>
<text text-anchor="middle" x="1478" y="-1116.3" font-family="Times,serif" font-size="14.00">fn_extensions_append</text>
</g>
<!-- f_2360163919&#45;&#45;f_3608630347 -->
<g id="edge52" class="edge">
<title>f_2360163919&#45;&#45;f_3608630347</title>
<path fill="none" stroke="black" d="M1478,-1173.7C1478,-1162.85 1478,-1148.92 1478,-1138.1"/>
</g>
<!-- f_87896925 -->
<g id="node63" class="node">
<title>f_87896925</title>
<polygon fill="#d95f02" stroke="black" points="1186.5,-1138 1019.5,-1138 1019.5,-1102 1186.5,-1102 1186.5,-1138"/>
<text text-anchor="middle" x="1103" y="-1116.3" font-family="Times,serif" font-size="14.00">fn_renegotiation_info</text>
</g>
<!-- f_2360163919&#45;&#45;f_87896925 -->
<g id="edge59" class="edge">
<title>f_2360163919&#45;&#45;f_87896925</title>
<path fill="none" stroke="black" d="M1391.5,-1174.85C1329.96,-1163.37 1247.73,-1148.02 1186.81,-1136.64"/>
</g>
<!-- f_2645680092 -->
<g id="node57" class="node">
<title>f_2645680092</title>
<polygon fill="#d95f02" stroke="black" points="1438.5,-1066 1265.5,-1066 1265.5,-1030 1438.5,-1030 1438.5,-1066"/>
<text text-anchor="middle" x="1352" y="-1044.3" font-family="Times,serif" font-size="14.00">fn_extensions_append</text>
</g>
<!-- f_3608630347&#45;&#45;f_2645680092 -->
<g id="edge53" class="edge">
<title>f_3608630347&#45;&#45;f_2645680092</title>
<path fill="none" stroke="black" d="M1447.18,-1101.88C1427.65,-1091.03 1402.49,-1077.05 1382.94,-1066.19"/>
</g>
<!-- f_2338761955 -->
<g id="node62" class="node">
<title>f_2338761955</title>
<polygon fill="#1b9e77" stroke="black" points="1749.5,-1066 1456.5,-1066 1456.5,-1030 1749.5,-1030 1749.5,-1066"/>
<text text-anchor="middle" x="1603" y="-1044.3" font-family="Times,serif" font-size="14.00">fn_signature_algorithm_cert_extension</text>
</g>
<!-- f_3608630347&#45;&#45;f_2338761955 -->
<g id="edge58" class="edge">
<title>f_3608630347&#45;&#45;f_2338761955</title>
<path fill="none" stroke="black" d="M1508.58,-1101.88C1527.95,-1091.03 1552.91,-1077.05 1572.3,-1066.19"/>
</g>
<!-- f_2418042601 -->
<g id="node58" class="node">
<title>f_2418042601</title>
<polygon fill="#d95f02" stroke="black" points="1346.5,-994 1173.5,-994 1173.5,-958 1346.5,-958 1346.5,-994"/>
<text text-anchor="middle" x="1260" y="-972.3" font-family="Times,serif" font-size="14.00">fn_extensions_append</text>
</g>
<!-- f_2645680092&#45;&#45;f_2418042601 -->
<g id="edge54" class="edge">
<title>f_2645680092&#45;&#45;f_2418042601</title>
<path fill="none" stroke="black" d="M1329.26,-1029.7C1315,-1018.85 1296.69,-1004.92 1282.48,-994.1"/>
</g>
<!-- f_1382342040 -->
<g id="node61" class="node">
<title>f_1382342040</title>
<polygon fill="#1b9e77" stroke="black" points="1523.5,-994 1364.5,-994 1364.5,-958 1523.5,-958 1523.5,-994"/>
<text text-anchor="middle" x="1444" y="-972.3" font-family="Times,serif" font-size="14.00">fn_ec_point_formats</text>
</g>
<!-- f_2645680092&#45;&#45;f_1382342040 -->
<g id="edge57" class="edge">
<title>f_2645680092&#45;&#45;f_1382342040</title>
<path fill="none" stroke="black" d="M1374.74,-1029.7C1389,-1018.85 1407.31,-1004.92 1421.52,-994.1"/>
</g>
<!-- f_249199193 -->
<g id="node59" class="node">
<title>f_249199193</title>
<polygon fill="#1b9e77" stroke="black" points="1219,-919 1069,-919 1069,-883 1219,-883 1219,-919"/>
<text text-anchor="middle" x="1144" y="-897.3" font-family="Times,serif" font-size="14.00">fn_extensions_new</text>
</g>
<!-- f_2418042601&#45;&#45;f_249199193 -->
<g id="edge55" class="edge">
<title>f_2418042601&#45;&#45;f_249199193</title>
<path fill="none" stroke="black" d="M1232.8,-957.88C1214.19,-946.17 1189.61,-930.7 1171.03,-919.01"/>
</g>
<!-- f_1003733584 -->
<g id="node60" class="node">
<title>f_1003733584</title>
<polygon fill="#1b9e77" stroke="black" points="1515,-919 1237,-919 1237,-883 1515,-883 1515,-919"/>
<text text-anchor="middle" x="1376" y="-897.3" font-family="Times,serif" font-size="14.00">fn_x25519_support_group_extension</text>
</g>
<!-- f_2418042601&#45;&#45;f_1003733584 -->
<g id="edge56" class="edge">
<title>f_2418042601&#45;&#45;f_1003733584</title>
<path fill="none" stroke="black" d="M1287.2,-957.88C1305.81,-946.17 1330.39,-930.7 1348.97,-919.01"/>
</g>
<!-- f_87896925&#45;&#45;f_283975376 -->
<g id="edge60" class="edge">
<title>f_87896925&#45;&#45;f_283975376</title>
<path fill="none" stroke="black" d="M1019.41,-1110.13C889.16,-1096.32 639.93,-1069.89 516.29,-1056.77"/>
</g>
<!-- v_1497979995 -->
<g id="node66" class="node">
<title>v_1497979995</title>
<ellipse fill="#1b9e77" stroke="black" cx="1852" cy="-1192" rx="78.79" ry="18"/>
<text text-anchor="middle" x="1852" y="-1188.3" font-family="Times,serif" font-size="14.00">(0,2)/Vec&lt;u8&gt;</text>
</g>
<!-- f_752054941&#45;&#45;v_1497979995 -->
<g id="edge63" class="edge">
<title>f_752054941&#45;&#45;v_1497979995</title>
<path fill="none" stroke="black" d="M1745.18,-1248.95C1751.93,-1246.46 1758.67,-1243.79 1765,-1241 1786,-1231.75 1808.66,-1219.16 1825.59,-1209.19"/>
</g>
</g>
</svg>
