<?xml version="1.0" encoding="UTF-8" standalone="no"?>
<!DOCTYPE svg PUBLIC "-//W3C//DTD SVG 1.1//EN"
 "http://www.w3.org/Graphics/SVG/1.1/DTD/svg11.dtd">
<!-- Generated by graphviz version 2.47.2 (0)
 -->
<!-- Pages: 1 -->
<svg width="947pt" height="459pt"
 viewBox="0.00 0.00 947.00 459.00" xmlns="http://www.w3.org/2000/svg" xmlns:xlink="http://www.w3.org/1999/xlink">
<g id="graph0" class="graph" transform="scale(1 1) rotate(0) translate(4 455)">
<polygon fill="white" stroke="transparent" points="-4,4 -4,-455 943,-455 943,4 -4,4"/>
<g id="clust1" class="cluster">
<title>cluster0</title>
<polygon fill="none" stroke="black" points="8,-8 8,-443 931,-443 931,-8 8,-8"/>
<text text-anchor="middle" x="469.5" y="-427.8" font-family="Times,serif" font-size="14.00">Step #0 (Agent &#160;1)</text>
</g>
<!-- f_0_2401771486 -->
<g id="node1" class="node">
<title>f_0_2401771486</title>
<polygon fill="#d95f02" stroke="black" points="501.5,-412 382.5,-412 382.5,-376 501.5,-376 501.5,-412"/>
<text text-anchor="middle" x="442" y="-390.3" font-family="Times,serif" font-size="14.00">fn_client_hello</text>
</g>
<!-- f_0_3622030588 -->
<g id="node2" class="node">
<title>f_0_3622030588</title>
<polygon fill="#1b9e77" stroke="black" points="189.5,-340 16.5,-340 16.5,-304 189.5,-304 189.5,-340"/>
<text text-anchor="middle" x="103" y="-318.3" font-family="Times,serif" font-size="14.00">fn_protocol_version12</text>
</g>
<!-- f_0_2401771486&#45;&gt;f_0_3622030588 -->
<g id="edge1" class="edge">
<title>f_0_2401771486&#45;&gt;f_0_3622030588</title>
<path fill="none" stroke="black" d="M382.17,-380.65C330.51,-369.98 255.04,-354.39 195.58,-342.12"/>
<polygon fill="black" stroke="black" points="195.93,-338.62 185.43,-340.02 194.52,-345.47 195.93,-338.62"/>
</g>
<!-- f_0_1120998039 -->
<g id="node3" class="node">
<title>f_0_1120998039</title>
<polygon fill="#1b9e77" stroke="black" points="300,-340 208,-340 208,-304 300,-304 300,-340"/>
<text text-anchor="middle" x="254" y="-318.3" font-family="Times,serif" font-size="14.00">fn_random</text>
</g>
<!-- f_0_2401771486&#45;&gt;f_0_1120998039 -->
<g id="edge2" class="edge">
<title>f_0_2401771486&#45;&gt;f_0_1120998039</title>
<path fill="none" stroke="black" d="M396.01,-375.88C369.85,-366.14 336.91,-353.87 309.35,-343.61"/>
<polygon fill="black" stroke="black" points="310.43,-340.28 299.84,-340.07 307.99,-346.84 310.43,-340.28"/>
</g>
<!-- f_0_3737680406 -->
<g id="node4" class="node">
<title>f_0_3737680406</title>
<polygon fill="#1b9e77" stroke="black" points="428,-340 318,-340 318,-304 428,-304 428,-340"/>
<text text-anchor="middle" x="373" y="-318.3" font-family="Times,serif" font-size="14.00">fn_session_id</text>
</g>
<!-- f_0_2401771486&#45;&gt;f_0_3737680406 -->
<g id="edge3" class="edge">
<title>f_0_2401771486&#45;&gt;f_0_3737680406</title>
<path fill="none" stroke="black" d="M424.94,-375.7C416.5,-367.14 406.18,-356.66 396.96,-347.3"/>
<polygon fill="black" stroke="black" points="399.37,-344.77 389.86,-340.1 394.39,-349.68 399.37,-344.77"/>
</g>
<!-- f_0_2513576250 -->
<g id="node5" class="node">
<title>f_0_2513576250</title>
<polygon fill="#1b9e77" stroke="black" points="578,-340 446,-340 446,-304 578,-304 578,-340"/>
<text text-anchor="middle" x="512" y="-318.3" font-family="Times,serif" font-size="14.00">fn_cipher_suites</text>
</g>
<!-- f_0_2401771486&#45;&gt;f_0_2513576250 -->
<g id="edge4" class="edge">
<title>f_0_2401771486&#45;&gt;f_0_2513576250</title>
<path fill="none" stroke="black" d="M459.3,-375.7C467.86,-367.14 478.34,-356.66 487.7,-347.3"/>
<polygon fill="black" stroke="black" points="490.3,-349.65 494.9,-340.1 485.35,-344.7 490.3,-349.65"/>
</g>
<!-- f_0_1556733868 -->
<g id="node6" class="node">
<title>f_0_1556733868</title>
<polygon fill="#1b9e77" stroke="black" points="731.5,-340 596.5,-340 596.5,-304 731.5,-304 731.5,-340"/>
<text text-anchor="middle" x="664" y="-318.3" font-family="Times,serif" font-size="14.00">fn_compressions</text>
</g>
<!-- f_0_2401771486&#45;&gt;f_0_1556733868 -->
<g id="edge5" class="edge">
<title>f_0_2401771486&#45;&gt;f_0_1556733868</title>
<path fill="none" stroke="black" d="M496.02,-375.97C527.45,-366.06 567.23,-353.51 600.19,-343.12"/>
<polygon fill="black" stroke="black" points="601.25,-346.46 609.73,-340.11 599.14,-339.78 601.25,-346.46"/>
</g>
<!-- f_0_329772956 -->
<g id="node7" class="node">
<title>f_0_329772956</title>
<polygon fill="#d95f02" stroke="black" points="922.5,-340 749.5,-340 749.5,-304 922.5,-304 922.5,-340"/>
<text text-anchor="middle" x="836" y="-318.3" font-family="Times,serif" font-size="14.00">fn_extensions_append</text>
</g>
<!-- f_0_2401771486&#45;&gt;f_0_329772956 -->
<g id="edge6" class="edge">
<title>f_0_2401771486&#45;&gt;f_0_329772956</title>
<path fill="none" stroke="black" d="M501.57,-382.47C559.74,-372.18 651.06,-356.01 739.36,-340.29"/>
<polygon fill="black" stroke="black" points="740.05,-343.72 749.28,-338.52 738.82,-336.83 740.05,-343.72"/>
</g>
<!-- f_0_3145924620 -->
<g id="node8" class="node">
<title>f_0_3145924620</title>
<polygon fill="#d95f02" stroke="black" points="651.5,-268 478.5,-268 478.5,-232 651.5,-232 651.5,-268"/>
<text text-anchor="middle" x="565" y="-246.3" font-family="Times,serif" font-size="14.00">fn_extensions_append</text>
</g>
<!-- f_0_329772956&#45;&gt;f_0_3145924620 -->
<g id="edge7" class="edge">
<title>f_0_329772956&#45;&gt;f_0_3145924620</title>
<path fill="none" stroke="black" d="M770.05,-303.97C731.12,-293.91 681.67,-281.14 641.09,-270.65"/>
<polygon fill="black" stroke="black" points="641.8,-267.22 631.24,-268.11 640.05,-274 641.8,-267.22"/>
</g>
<!-- f_0_650311415 -->
<g id="node15" class="node">
<title>f_0_650311415</title>
<polygon fill="#1b9e77" stroke="black" points="922.5,-268 669.5,-268 669.5,-232 922.5,-232 922.5,-268"/>
<text text-anchor="middle" x="796" y="-246.3" font-family="Times,serif" font-size="14.00">fn_supported_versions_extension</text>
</g>
<!-- f_0_329772956&#45;&gt;f_0_650311415 -->
<g id="edge14" class="edge">
<title>f_0_329772956&#45;&gt;f_0_650311415</title>
<path fill="none" stroke="black" d="M826.11,-303.7C821.51,-295.64 815.94,-285.89 810.85,-276.98"/>
<polygon fill="black" stroke="black" points="813.77,-275.05 805.77,-268.1 807.7,-278.52 813.77,-275.05"/>
</g>
<!-- f_0_1158570566 -->
<g id="node9" class="node">
<title>f_0_1158570566</title>
<polygon fill="#d95f02" stroke="black" points="592.5,-196 419.5,-196 419.5,-160 592.5,-160 592.5,-196"/>
<text text-anchor="middle" x="506" y="-174.3" font-family="Times,serif" font-size="14.00">fn_extensions_append</text>
</g>
<!-- f_0_3145924620&#45;&gt;f_0_1158570566 -->
<g id="edge8" class="edge">
<title>f_0_3145924620&#45;&gt;f_0_1158570566</title>
<path fill="none" stroke="black" d="M550.42,-231.7C543.34,-223.3 534.72,-213.07 526.95,-203.86"/>
<polygon fill="black" stroke="black" points="529.54,-201.49 520.42,-196.1 524.19,-206.01 529.54,-201.49"/>
</g>
<!-- f_0_2726664740 -->
<g id="node14" class="node">
<title>f_0_2726664740</title>
<polygon fill="#1b9e77" stroke="black" points="795.5,-196 610.5,-196 610.5,-160 795.5,-160 795.5,-196"/>
<text text-anchor="middle" x="703" y="-174.3" font-family="Times,serif" font-size="14.00">fn_key_share_extension</text>
</g>
<!-- f_0_3145924620&#45;&gt;f_0_2726664740 -->
<g id="edge13" class="edge">
<title>f_0_3145924620&#45;&gt;f_0_2726664740</title>
<path fill="none" stroke="black" d="M598.76,-231.88C617.22,-222.51 640.28,-210.81 660.02,-200.8"/>
<polygon fill="black" stroke="black" points="661.78,-203.83 669.11,-196.19 658.61,-197.59 661.78,-203.83"/>
</g>
<!-- f_0_2882348947 -->
<g id="node10" class="node">
<title>f_0_2882348947</title>
<polygon fill="#d95f02" stroke="black" points="532.5,-124 359.5,-124 359.5,-88 532.5,-88 532.5,-124"/>
<text text-anchor="middle" x="446" y="-102.3" font-family="Times,serif" font-size="14.00">fn_extensions_append</text>
</g>
<!-- f_0_1158570566&#45;&gt;f_0_2882348947 -->
<g id="edge9" class="edge">
<title>f_0_1158570566&#45;&gt;f_0_2882348947</title>
<path fill="none" stroke="black" d="M491.17,-159.7C483.98,-151.3 475.2,-141.07 467.31,-131.86"/>
<polygon fill="black" stroke="black" points="469.83,-129.42 460.66,-124.1 464.51,-133.97 469.83,-129.42"/>
</g>
<!-- f_0_1705639067 -->
<g id="node13" class="node">
<title>f_0_1705639067</title>
<polygon fill="#1b9e77" stroke="black" points="809,-124 551,-124 551,-88 809,-88 809,-124"/>
<text text-anchor="middle" x="680" y="-102.3" font-family="Times,serif" font-size="14.00">fn_signature_algorithm_extension</text>
</g>
<!-- f_0_1158570566&#45;&gt;f_0_1705639067 -->
<g id="edge12" class="edge">
<title>f_0_1158570566&#45;&gt;f_0_1705639067</title>
<path fill="none" stroke="black" d="M548.57,-159.88C572.56,-150.22 602.73,-138.09 628.1,-127.88"/>
<polygon fill="black" stroke="black" points="629.6,-131.05 637.57,-124.07 626.99,-124.55 629.6,-131.05"/>
</g>
<!-- f_0_694672047 -->
<g id="node11" class="node">
<title>f_0_694672047</title>
<polygon fill="#1b9e77" stroke="black" points="401,-52 251,-52 251,-16 401,-16 401,-52"/>
<text text-anchor="middle" x="326" y="-30.3" font-family="Times,serif" font-size="14.00">fn_extensions_new</text>
</g>
<!-- f_0_2882348947&#45;&gt;f_0_694672047 -->
<g id="edge10" class="edge">
<title>f_0_2882348947&#45;&gt;f_0_694672047</title>
<path fill="none" stroke="black" d="M416.64,-87.88C400.95,-78.72 381.44,-67.34 364.55,-57.48"/>
<polygon fill="black" stroke="black" points="365.87,-54.21 355.47,-52.19 362.34,-60.25 365.87,-54.21"/>
</g>
<!-- f_0_1056952357 -->
<g id="node12" class="node">
<title>f_0_1056952357</title>
<polygon fill="#1b9e77" stroke="black" points="697,-52 419,-52 419,-16 697,-16 697,-52"/>
<text text-anchor="middle" x="558" y="-30.3" font-family="Times,serif" font-size="14.00">fn_x25519_support_group_extension</text>
</g>
<!-- f_0_2882348947&#45;&gt;f_0_1056952357 -->
<g id="edge11" class="edge">
<title>f_0_2882348947&#45;&gt;f_0_1056952357</title>
<path fill="none" stroke="black" d="M473.4,-87.88C487.91,-78.81 505.92,-67.55 521.59,-57.76"/>
<polygon fill="black" stroke="black" points="523.87,-60.46 530.5,-52.19 520.16,-54.52 523.87,-60.46"/>
</g>
</g>
</svg>
