<?xml version="1.0" encoding="UTF-8" standalone="no"?>
<!DOCTYPE svg PUBLIC "-//W3C//DTD SVG 1.1//EN"
 "http://www.w3.org/Graphics/SVG/1.1/DTD/svg11.dtd">
<!-- Generated by graphviz version 2.47.2 (0)
 -->
<!-- Pages: 1 -->
<svg width="1140pt" height="1395pt"
 viewBox="0.00 0.00 1140.00 1395.00" xmlns="http://www.w3.org/2000/svg" xmlns:xlink="http://www.w3.org/1999/xlink">
<g id="graph0" class="graph" transform="scale(1 1) rotate(0) translate(4 1391)">
<polygon fill="white" stroke="transparent" points="-4,4 -4,-1391 1136,-1391 1136,4 -4,4"/>
<g id="clust1" class="cluster">
<title>cluster6</title>
<polygon fill="none" stroke="black" points="8,-8 8,-1379 1124,-1379 1124,-8 8,-8"/>
<text text-anchor="middle" x="566" y="-1363.8" font-family="Times,serif" font-size="14.00">Step #6 (Agent &#160;1)</text>
</g>
<!-- func_6_2751447030 -->
<g id="node1" class="node">
<title>func_6_2751447030</title>
<polygon fill="#d95f02" stroke="black" points="853,-1348 743,-1348 743,-1312 853,-1312 853,-1348"/>
<text text-anchor="middle" x="798" y="-1326.3" font-family="Times,serif" font-size="14.00">fn_encrypt12</text>
</g>
<!-- func_6_3792443847 -->
<g id="node2" class="node">
<title>func_6_3792443847</title>
<polygon fill="#d95f02" stroke="black" points="580.5,-1276 461.5,-1276 461.5,-1240 580.5,-1240 580.5,-1276"/>
<text text-anchor="middle" x="521" y="-1254.3" font-family="Times,serif" font-size="14.00">fn_client_hello</text>
</g>
<!-- func_6_2751447030&#45;&#45;func_6_3792443847 -->
<g id="edge1" class="edge">
<title>func_6_2751447030&#45;&#45;func_6_3792443847</title>
<path fill="none" stroke="black" d="M742.94,-1315.09C696.08,-1303.24 628.91,-1286.27 580.75,-1274.1"/>
</g>
<!-- var_6_2736721330 -->
<g id="node56" class="node">
<title>var_6_2736721330</title>
<ellipse fill="#1b9e77" stroke="black" cx="706" cy="-1258" rx="73.39" ry="18"/>
<text text-anchor="middle" x="706" y="-1254.3" font-family="Times,serif" font-size="14.00">(0,0)/Random</text>
</g>
<!-- func_6_2751447030&#45;&#45;var_6_2736721330 -->
<g id="edge55" class="edge">
<title>func_6_2751447030&#45;&#45;var_6_2736721330</title>
<path fill="none" stroke="black" d="M775.26,-1311.7C760.68,-1300.6 741.87,-1286.29 727.53,-1275.38"/>
</g>
<!-- func_6_1798159670 -->
<g id="node57" class="node">
<title>func_6_1798159670</title>
<polygon fill="#d95f02" stroke="black" points="985,-1276 797,-1276 797,-1240 985,-1240 985,-1276"/>
<text text-anchor="middle" x="891" y="-1254.3" font-family="Times,serif" font-size="14.00">fn_decode_ecdh_params</text>
</g>
<!-- func_6_2751447030&#45;&#45;func_6_1798159670 -->
<g id="edge56" class="edge">
<title>func_6_2751447030&#45;&#45;func_6_1798159670</title>
<path fill="none" stroke="black" d="M820.99,-1311.7C835.4,-1300.85 853.91,-1286.92 868.28,-1276.1"/>
</g>
<!-- func_6_3166921671 -->
<g id="node59" class="node">
<title>func_6_3166921671</title>
<polygon fill="#1b9e77" stroke="black" points="1081,-1276 1003,-1276 1003,-1240 1081,-1240 1081,-1276"/>
<text text-anchor="middle" x="1042" y="-1254.3" font-family="Times,serif" font-size="14.00">fn_seq_1</text>
</g>
<!-- func_6_2751447030&#45;&#45;func_6_3166921671 -->
<g id="edge58" class="edge">
<title>func_6_2751447030&#45;&#45;func_6_3166921671</title>
<path fill="none" stroke="black" d="M853.06,-1313.2C898.6,-1300.14 962.17,-1281.9 1002.71,-1270.27"/>
</g>
<!-- func_6_2270974120 -->
<g id="node3" class="node">
<title>func_6_2270974120</title>
<polygon fill="#1b9e77" stroke="black" points="189.5,-1204 16.5,-1204 16.5,-1168 189.5,-1168 189.5,-1204"/>
<text text-anchor="middle" x="103" y="-1182.3" font-family="Times,serif" font-size="14.00">fn_protocol_version12</text>
</g>
<!-- func_6_3792443847&#45;&#45;func_6_2270974120 -->
<g id="edge2" class="edge">
<title>func_6_3792443847&#45;&#45;func_6_2270974120</title>
<path fill="none" stroke="black" d="M461.11,-1246.97C390,-1235.06 270.84,-1215.11 189.67,-1201.51"/>
</g>
<!-- func_6_3815295540 -->
<g id="node4" class="node">
<title>func_6_3815295540</title>
<polygon fill="#1b9e77" stroke="black" points="300,-1204 208,-1204 208,-1168 300,-1168 300,-1204"/>
<text text-anchor="middle" x="254" y="-1182.3" font-family="Times,serif" font-size="14.00">fn_random</text>
</g>
<!-- func_6_3792443847&#45;&#45;func_6_3815295540 -->
<g id="edge3" class="edge">
<title>func_6_3792443847&#45;&#45;func_6_3815295540</title>
<path fill="none" stroke="black" d="M461.41,-1241.38C412.69,-1228.6 344.79,-1210.8 300.14,-1199.1"/>
</g>
<!-- func_6_476192992 -->
<g id="node5" class="node">
<title>func_6_476192992</title>
<polygon fill="#1b9e77" stroke="black" points="428,-1204 318,-1204 318,-1168 428,-1168 428,-1204"/>
<text text-anchor="middle" x="373" y="-1182.3" font-family="Times,serif" font-size="14.00">fn_session_id</text>
</g>
<!-- func_6_3792443847&#45;&#45;func_6_476192992 -->
<g id="edge4" class="edge">
<title>func_6_3792443847&#45;&#45;func_6_476192992</title>
<path fill="none" stroke="black" d="M484.8,-1239.88C461.78,-1228.99 432.08,-1214.95 409.09,-1204.07"/>
</g>
<!-- func_6_2288918734 -->
<g id="node6" class="node">
<title>func_6_2288918734</title>
<polygon fill="#1b9e77" stroke="black" points="596,-1204 446,-1204 446,-1168 596,-1168 596,-1204"/>
<text text-anchor="middle" x="521" y="-1182.3" font-family="Times,serif" font-size="14.00">fn_cipher_suites12</text>
</g>
<!-- func_6_3792443847&#45;&#45;func_6_2288918734 -->
<g id="edge5" class="edge">
<title>func_6_3792443847&#45;&#45;func_6_2288918734</title>
<path fill="none" stroke="black" d="M521,-1239.7C521,-1228.85 521,-1214.92 521,-1204.1"/>
</g>
<!-- func_6_4044773284 -->
<g id="node7" class="node">
<title>func_6_4044773284</title>
<polygon fill="#1b9e77" stroke="black" points="749.5,-1204 614.5,-1204 614.5,-1168 749.5,-1168 749.5,-1204"/>
<text text-anchor="middle" x="682" y="-1182.3" font-family="Times,serif" font-size="14.00">fn_compressions</text>
</g>
<!-- func_6_3792443847&#45;&#45;func_6_4044773284 -->
<g id="edge6" class="edge">
<title>func_6_3792443847&#45;&#45;func_6_4044773284</title>
<path fill="none" stroke="black" d="M560.39,-1239.88C585.43,-1228.99 617.73,-1214.95 642.74,-1204.07"/>
</g>
<!-- func_6_1574384554 -->
<g id="node8" class="node">
<title>func_6_1574384554</title>
<polygon fill="#d95f02" stroke="black" points="940.5,-1204 767.5,-1204 767.5,-1168 940.5,-1168 940.5,-1204"/>
<text text-anchor="middle" x="854" y="-1182.3" font-family="Times,serif" font-size="14.00">fn_extensions_append</text>
</g>
<!-- func_6_3792443847&#45;&#45;func_6_1574384554 -->
<g id="edge7" class="edge">
<title>func_6_3792443847&#45;&#45;func_6_1574384554</title>
<path fill="none" stroke="black" d="M580.53,-1244.49C634.22,-1233.2 713.65,-1216.5 773.09,-1204.01"/>
</g>
<!-- func_6_756724149 -->
<g id="node9" class="node">
<title>func_6_756724149</title>
<polygon fill="#d95f02" stroke="black" points="702.5,-1132 529.5,-1132 529.5,-1096 702.5,-1096 702.5,-1132"/>
<text text-anchor="middle" x="616" y="-1110.3" font-family="Times,serif" font-size="14.00">fn_extensions_append</text>
</g>
<!-- func_6_1574384554&#45;&#45;func_6_756724149 -->
<g id="edge8" class="edge">
<title>func_6_1574384554&#45;&#45;func_6_756724149</title>
<path fill="none" stroke="black" d="M796.08,-1167.97C759.07,-1157.08 711.24,-1143.01 674.18,-1132.11"/>
</g>
<!-- func_6_197398732 -->
<g id="node16" class="node">
<title>func_6_197398732</title>
<polygon fill="#d95f02" stroke="black" points="937.5,-1132 770.5,-1132 770.5,-1096 937.5,-1096 937.5,-1132"/>
<text text-anchor="middle" x="854" y="-1110.3" font-family="Times,serif" font-size="14.00">fn_renegotiation_info</text>
</g>
<!-- func_6_1574384554&#45;&#45;func_6_197398732 -->
<g id="edge15" class="edge">
<title>func_6_1574384554&#45;&#45;func_6_197398732</title>
<path fill="none" stroke="black" d="M854,-1167.7C854,-1156.85 854,-1142.92 854,-1132.1"/>
</g>
<!-- func_6_1467583269 -->
<g id="node10" class="node">
<title>func_6_1467583269</title>
<polygon fill="#d95f02" stroke="black" points="451.5,-1060 278.5,-1060 278.5,-1024 451.5,-1024 451.5,-1060"/>
<text text-anchor="middle" x="365" y="-1038.3" font-family="Times,serif" font-size="14.00">fn_extensions_append</text>
</g>
<!-- func_6_756724149&#45;&#45;func_6_1467583269 -->
<g id="edge9" class="edge">
<title>func_6_756724149&#45;&#45;func_6_1467583269</title>
<path fill="none" stroke="black" d="M554.92,-1095.97C515.88,-1085.08 465.44,-1071.01 426.35,-1060.11"/>
</g>
<!-- func_6_1764711411 -->
<g id="node15" class="node">
<title>func_6_1764711411</title>
<polygon fill="#1b9e77" stroke="black" points="762.5,-1060 469.5,-1060 469.5,-1024 762.5,-1024 762.5,-1060"/>
<text text-anchor="middle" x="616" y="-1038.3" font-family="Times,serif" font-size="14.00">fn_signature_algorithm_cert_extension</text>
</g>
<!-- func_6_756724149&#45;&#45;func_6_1764711411 -->
<g id="edge14" class="edge">
<title>func_6_756724149&#45;&#45;func_6_1764711411</title>
<path fill="none" stroke="black" d="M616,-1095.7C616,-1084.85 616,-1070.92 616,-1060.1"/>
</g>
<!-- func_6_3990785396 -->
<g id="node11" class="node">
<title>func_6_3990785396</title>
<polygon fill="#d95f02" stroke="black" points="293.5,-988 120.5,-988 120.5,-952 293.5,-952 293.5,-988"/>
<text text-anchor="middle" x="207" y="-966.3" font-family="Times,serif" font-size="14.00">fn_extensions_append</text>
</g>
<!-- func_6_1467583269&#45;&#45;func_6_3990785396 -->
<g id="edge10" class="edge">
<title>func_6_1467583269&#45;&#45;func_6_3990785396</title>
<path fill="none" stroke="black" d="M326.35,-1023.88C301.77,-1012.99 270.08,-998.95 245.53,-988.07"/>
</g>
<!-- func_6_2755672630 -->
<g id="node14" class="node">
<title>func_6_2755672630</title>
<polygon fill="#1b9e77" stroke="black" points="470.5,-988 311.5,-988 311.5,-952 470.5,-952 470.5,-988"/>
<text text-anchor="middle" x="391" y="-966.3" font-family="Times,serif" font-size="14.00">fn_ec_point_formats</text>
</g>
<!-- func_6_1467583269&#45;&#45;func_6_2755672630 -->
<g id="edge13" class="edge">
<title>func_6_1467583269&#45;&#45;func_6_2755672630</title>
<path fill="none" stroke="black" d="M371.43,-1023.7C375.46,-1012.85 380.63,-998.92 384.65,-988.1"/>
</g>
<!-- func_6_3853517029 -->
<g id="node12" class="node">
<title>func_6_3853517029</title>
<polygon fill="#1b9e77" stroke="black" points="211,-916 61,-916 61,-880 211,-880 211,-916"/>
<text text-anchor="middle" x="136" y="-894.3" font-family="Times,serif" font-size="14.00">fn_extensions_new</text>
</g>
<!-- func_6_3990785396&#45;&#45;func_6_3853517029 -->
<g id="edge11" class="edge">
<title>func_6_3990785396&#45;&#45;func_6_3853517029</title>
<path fill="none" stroke="black" d="M189.45,-951.7C178.44,-940.85 164.32,-926.92 153.35,-916.1"/>
</g>
<!-- func_6_3636315403 -->
<g id="node13" class="node">
<title>func_6_3636315403</title>
<polygon fill="#1b9e77" stroke="black" points="507,-916 229,-916 229,-880 507,-880 507,-916"/>
<text text-anchor="middle" x="368" y="-894.3" font-family="Times,serif" font-size="14.00">fn_x25519_support_group_extension</text>
</g>
<!-- func_6_3990785396&#45;&#45;func_6_3636315403 -->
<g id="edge12" class="edge">
<title>func_6_3990785396&#45;&#45;func_6_3636315403</title>
<path fill="none" stroke="black" d="M246.39,-951.88C271.43,-940.99 303.73,-926.95 328.74,-916.07"/>
</g>
<!-- func_6_78527209 -->
<g id="node17" class="node">
<title>func_6_78527209</title>
<polygon fill="#d95f02" stroke="black" points="927,-1060 781,-1060 781,-1024 927,-1024 927,-1060"/>
<text text-anchor="middle" x="854" y="-1038.3" font-family="Times,serif" font-size="14.00">fn_sign_transcript</text>
</g>
<!-- func_6_197398732&#45;&#45;func_6_78527209 -->
<g id="edge16" class="edge">
<title>func_6_197398732&#45;&#45;func_6_78527209</title>
<path fill="none" stroke="black" d="M854,-1095.7C854,-1084.85 854,-1070.92 854,-1060.1"/>
</g>
<!-- var_6_2982316696 -->
<g id="node18" class="node">
<title>var_6_2982316696</title>
<ellipse fill="#1b9e77" stroke="black" cx="589" cy="-970" rx="73.39" ry="18"/>
<text text-anchor="middle" x="589" y="-966.3" font-family="Times,serif" font-size="14.00">(0,0)/Random</text>
</g>
<!-- func_6_78527209&#45;&#45;var_6_2982316696 -->
<g id="edge17" class="edge">
<title>func_6_78527209&#45;&#45;var_6_2982316696</title>
<path fill="none" stroke="black" d="M789.51,-1023.97C742.48,-1011.54 679.76,-994.97 637.07,-983.7"/>
</g>
<!-- func_6_4072053624 -->
<g id="node19" class="node">
<title>func_6_4072053624</title>
<polygon fill="#d95f02" stroke="black" points="868,-988 680,-988 680,-952 868,-952 868,-988"/>
<text text-anchor="middle" x="774" y="-966.3" font-family="Times,serif" font-size="14.00">fn_decode_ecdh_params</text>
</g>
<!-- func_6_78527209&#45;&#45;func_6_4072053624 -->
<g id="edge18" class="edge">
<title>func_6_78527209&#45;&#45;func_6_4072053624</title>
<path fill="none" stroke="black" d="M834.22,-1023.7C821.82,-1012.85 805.9,-998.92 793.55,-988.1"/>
</g>
<!-- func_6_3130288749 -->
<g id="node21" class="node">
<title>func_6_3130288749</title>
<polygon fill="#d95f02" stroke="black" points="1054,-988 886,-988 886,-952 1054,-952 1054,-988"/>
<text text-anchor="middle" x="970" y="-966.3" font-family="Times,serif" font-size="14.00">fn_append_transcript</text>
</g>
<!-- func_6_78527209&#45;&#45;func_6_3130288749 -->
<g id="edge20" class="edge">
<title>func_6_78527209&#45;&#45;func_6_3130288749</title>
<path fill="none" stroke="black" d="M882.38,-1023.88C900.35,-1013.03 923.52,-999.05 941.51,-988.19"/>
</g>
<!-- var_6_2510132611 -->
<g id="node20" class="node">
<title>var_6_2510132611</title>
<ellipse fill="#1b9e77" stroke="black" cx="648" cy="-898" rx="78.79" ry="18"/>
<text text-anchor="middle" x="648" y="-894.3" font-family="Times,serif" font-size="14.00">(0,2)/Vec&lt;u8&gt;</text>
</g>
<!-- func_6_4072053624&#45;&#45;var_6_2510132611 -->
<g id="edge19" class="edge">
<title>func_6_4072053624&#45;&#45;var_6_2510132611</title>
<path fill="none" stroke="black" d="M743.18,-951.88C722.92,-940.62 696.6,-926 676.78,-914.99"/>
</g>
<!-- func_6_160713951 -->
<g id="node22" class="node">
<title>func_6_160713951</title>
<polygon fill="#d95f02" stroke="black" points="913,-916 745,-916 745,-880 913,-880 913,-916"/>
<text text-anchor="middle" x="829" y="-894.3" font-family="Times,serif" font-size="14.00">fn_append_transcript</text>
</g>
<!-- func_6_3130288749&#45;&#45;func_6_160713951 -->
<g id="edge21" class="edge">
<title>func_6_3130288749&#45;&#45;func_6_160713951</title>
<path fill="none" stroke="black" d="M935.51,-951.88C913.66,-941.03 885.5,-927.05 863.63,-916.19"/>
</g>
<!-- func_6_82692369 -->
<g id="node52" class="node">
<title>func_6_82692369</title>
<polygon fill="#d95f02" stroke="black" points="1114.5,-916 931.5,-916 931.5,-880 1114.5,-880 1114.5,-916"/>
<text text-anchor="middle" x="1023" y="-894.3" font-family="Times,serif" font-size="14.00">fn_client_key_exchange</text>
</g>
<!-- func_6_3130288749&#45;&#45;func_6_82692369 -->
<g id="edge51" class="edge">
<title>func_6_3130288749&#45;&#45;func_6_82692369</title>
<path fill="none" stroke="black" d="M983.1,-951.7C991.32,-940.85 1001.86,-926.92 1010.05,-916.1"/>
</g>
<!-- func_6_2896477797 -->
<g id="node23" class="node">
<title>func_6_2896477797</title>
<polygon fill="#d95f02" stroke="black" points="748,-844 580,-844 580,-808 748,-808 748,-844"/>
<text text-anchor="middle" x="664" y="-822.3" font-family="Times,serif" font-size="14.00">fn_append_transcript</text>
</g>
<!-- func_6_160713951&#45;&#45;func_6_2896477797 -->
<g id="edge22" class="edge">
<title>func_6_160713951&#45;&#45;func_6_2896477797</title>
<path fill="none" stroke="black" d="M788.64,-879.88C762.97,-868.99 729.87,-854.95 704.23,-844.07"/>
</g>
<!-- var_6_3020318872 -->
<g id="node51" class="node">
<title>var_6_3020318872</title>
<ellipse fill="#1b9e77" stroke="black" cx="842" cy="-826" rx="76.09" ry="18"/>
<text text-anchor="middle" x="842" y="-822.3" font-family="Times,serif" font-size="14.00">(0,3)/Message</text>
</g>
<!-- func_6_160713951&#45;&#45;var_6_3020318872 -->
<g id="edge50" class="edge">
<title>func_6_160713951&#45;&#45;var_6_3020318872</title>
<path fill="none" stroke="black" d="M832.21,-879.7C834.23,-868.85 836.82,-854.92 838.82,-844.1"/>
</g>
<!-- func_6_704970961 -->
<g id="node24" class="node">
<title>func_6_704970961</title>
<polygon fill="#d95f02" stroke="black" points="683,-772 515,-772 515,-736 683,-736 683,-772"/>
<text text-anchor="middle" x="599" y="-750.3" font-family="Times,serif" font-size="14.00">fn_append_transcript</text>
</g>
<!-- func_6_2896477797&#45;&#45;func_6_704970961 -->
<g id="edge23" class="edge">
<title>func_6_2896477797&#45;&#45;func_6_704970961</title>
<path fill="none" stroke="black" d="M647.93,-807.7C637.86,-796.85 624.92,-782.92 614.88,-772.1"/>
</g>
<!-- var_6_64779906 -->
<g id="node50" class="node">
<title>var_6_64779906</title>
<ellipse fill="#1b9e77" stroke="black" cx="777" cy="-754" rx="76.09" ry="18"/>
<text text-anchor="middle" x="777" y="-750.3" font-family="Times,serif" font-size="14.00">(0,2)/Message</text>
</g>
<!-- func_6_2896477797&#45;&#45;var_6_64779906 -->
<g id="edge49" class="edge">
<title>func_6_2896477797&#45;&#45;var_6_64779906</title>
<path fill="none" stroke="black" d="M691.64,-807.88C709.81,-796.62 733.41,-782 751.19,-770.99"/>
</g>
<!-- func_6_4067848525 -->
<g id="node25" class="node">
<title>func_6_4067848525</title>
<polygon fill="#d95f02" stroke="black" points="624,-700 456,-700 456,-664 624,-664 624,-700"/>
<text text-anchor="middle" x="540" y="-678.3" font-family="Times,serif" font-size="14.00">fn_append_transcript</text>
</g>
<!-- func_6_704970961&#45;&#45;func_6_4067848525 -->
<g id="edge24" class="edge">
<title>func_6_704970961&#45;&#45;func_6_4067848525</title>
<path fill="none" stroke="black" d="M584.42,-735.7C575.27,-724.85 563.53,-710.92 554.42,-700.1"/>
</g>
<!-- var_6_3544759772 -->
<g id="node49" class="node">
<title>var_6_3544759772</title>
<ellipse fill="#1b9e77" stroke="black" cx="718" cy="-682" rx="76.09" ry="18"/>
<text text-anchor="middle" x="718" y="-678.3" font-family="Times,serif" font-size="14.00">(0,1)/Message</text>
</g>
<!-- func_6_704970961&#45;&#45;var_6_3544759772 -->
<g id="edge48" class="edge">
<title>func_6_704970961&#45;&#45;var_6_3544759772</title>
<path fill="none" stroke="black" d="M628.11,-735.88C647.24,-724.62 672.1,-710 690.82,-698.99"/>
</g>
<!-- func_6_1003384924 -->
<g id="node26" class="node">
<title>func_6_1003384924</title>
<polygon fill="#d95f02" stroke="black" points="551,-628 383,-628 383,-592 551,-592 551,-628"/>
<text text-anchor="middle" x="467" y="-606.3" font-family="Times,serif" font-size="14.00">fn_append_transcript</text>
</g>
<!-- func_6_4067848525&#45;&#45;func_6_1003384924 -->
<g id="edge25" class="edge">
<title>func_6_4067848525&#45;&#45;func_6_1003384924</title>
<path fill="none" stroke="black" d="M521.96,-663.7C510.64,-652.85 496.11,-638.92 484.84,-628.1"/>
</g>
<!-- var_6_105599736 -->
<g id="node48" class="node">
<title>var_6_105599736</title>
<ellipse fill="#1b9e77" stroke="black" cx="645" cy="-610" rx="76.09" ry="18"/>
<text text-anchor="middle" x="645" y="-606.3" font-family="Times,serif" font-size="14.00">(0,0)/Message</text>
</g>
<!-- func_6_4067848525&#45;&#45;var_6_105599736 -->
<g id="edge47" class="edge">
<title>func_6_4067848525&#45;&#45;var_6_105599736</title>
<path fill="none" stroke="black" d="M565.69,-663.88C582.44,-652.7 604.18,-638.21 620.66,-627.23"/>
</g>
<!-- func_6_1290566703 -->
<g id="node27" class="node">
<title>func_6_1290566703</title>
<polygon fill="#1b9e77" stroke="black" points="445.5,-556 282.5,-556 282.5,-520 445.5,-520 445.5,-556"/>
<text text-anchor="middle" x="364" y="-534.3" font-family="Times,serif" font-size="14.00">fn_new_transcript12</text>
</g>
<!-- func_6_1003384924&#45;&#45;func_6_1290566703 -->
<g id="edge26" class="edge">
<title>func_6_1003384924&#45;&#45;func_6_1290566703</title>
<path fill="none" stroke="black" d="M441.8,-591.88C425.84,-581.03 405.27,-567.05 389.29,-556.19"/>
</g>
<!-- func_6_3618665394 -->
<g id="node28" class="node">
<title>func_6_3618665394</title>
<polygon fill="#d95f02" stroke="black" points="582.5,-556 463.5,-556 463.5,-520 582.5,-520 582.5,-556"/>
<text text-anchor="middle" x="523" y="-534.3" font-family="Times,serif" font-size="14.00">fn_client_hello</text>
</g>
<!-- func_6_1003384924&#45;&#45;func_6_3618665394 -->
<g id="edge27" class="edge">
<title>func_6_1003384924&#45;&#45;func_6_3618665394</title>
<path fill="none" stroke="black" d="M480.84,-591.7C489.52,-580.85 500.67,-566.92 509.32,-556.1"/>
</g>
<!-- func_6_2708740264 -->
<g id="node29" class="node">
<title>func_6_2708740264</title>
<polygon fill="#1b9e77" stroke="black" points="249.5,-484 76.5,-484 76.5,-448 249.5,-448 249.5,-484"/>
<text text-anchor="middle" x="163" y="-462.3" font-family="Times,serif" font-size="14.00">fn_protocol_version12</text>
</g>
<!-- func_6_3618665394&#45;&#45;func_6_2708740264 -->
<g id="edge28" class="edge">
<title>func_6_3618665394&#45;&#45;func_6_2708740264</title>
<path fill="none" stroke="black" d="M463.15,-525.36C404.87,-514.03 315.66,-496.68 249.63,-483.84"/>
</g>
<!-- func_6_4220362386 -->
<g id="node30" class="node">
<title>func_6_4220362386</title>
<polygon fill="#1b9e77" stroke="black" points="360,-484 268,-484 268,-448 360,-448 360,-484"/>
<text text-anchor="middle" x="314" y="-462.3" font-family="Times,serif" font-size="14.00">fn_random</text>
</g>
<!-- func_6_3618665394&#45;&#45;func_6_4220362386 -->
<g id="edge29" class="edge">
<title>func_6_3618665394&#45;&#45;func_6_4220362386</title>
<path fill="none" stroke="black" d="M472.14,-519.97C437.95,-508.51 393.24,-493.54 360.09,-482.44"/>
</g>
<!-- func_6_805158134 -->
<g id="node31" class="node">
<title>func_6_805158134</title>
<polygon fill="#1b9e77" stroke="black" points="488,-484 378,-484 378,-448 488,-448 488,-484"/>
<text text-anchor="middle" x="433" y="-462.3" font-family="Times,serif" font-size="14.00">fn_session_id</text>
</g>
<!-- func_6_3618665394&#45;&#45;func_6_805158134 -->
<g id="edge30" class="edge">
<title>func_6_3618665394&#45;&#45;func_6_805158134</title>
<path fill="none" stroke="black" d="M500.75,-519.7C486.8,-508.85 468.89,-494.92 454.99,-484.1"/>
</g>
<!-- func_6_2139655824 -->
<g id="node32" class="node">
<title>func_6_2139655824</title>
<polygon fill="#1b9e77" stroke="black" points="656,-484 506,-484 506,-448 656,-448 656,-484"/>
<text text-anchor="middle" x="581" y="-462.3" font-family="Times,serif" font-size="14.00">fn_cipher_suites12</text>
</g>
<!-- func_6_3618665394&#45;&#45;func_6_2139655824 -->
<g id="edge31" class="edge">
<title>func_6_3618665394&#45;&#45;func_6_2139655824</title>
<path fill="none" stroke="black" d="M537.34,-519.7C546.33,-508.85 557.87,-494.92 566.83,-484.1"/>
</g>
<!-- func_6_1130198561 -->
<g id="node33" class="node">
<title>func_6_1130198561</title>
<polygon fill="#1b9e77" stroke="black" points="809.5,-484 674.5,-484 674.5,-448 809.5,-448 809.5,-484"/>
<text text-anchor="middle" x="742" y="-462.3" font-family="Times,serif" font-size="14.00">fn_compressions</text>
</g>
<!-- func_6_3618665394&#45;&#45;func_6_1130198561 -->
<g id="edge32" class="edge">
<title>func_6_3618665394&#45;&#45;func_6_1130198561</title>
<path fill="none" stroke="black" d="M576.29,-519.97C610.35,-509.08 654.36,-495.01 688.47,-484.11"/>
</g>
<!-- func_6_3678668574 -->
<g id="node34" class="node">
<title>func_6_3678668574</title>
<polygon fill="#d95f02" stroke="black" points="1000.5,-484 827.5,-484 827.5,-448 1000.5,-448 1000.5,-484"/>
<text text-anchor="middle" x="914" y="-462.3" font-family="Times,serif" font-size="14.00">fn_extensions_append</text>
</g>
<!-- func_6_3618665394&#45;&#45;func_6_3678668574 -->
<g id="edge33" class="edge">
<title>func_6_3618665394&#45;&#45;func_6_3678668574</title>
<path fill="none" stroke="black" d="M582.81,-526.29C648.06,-514.61 753.1,-495.81 827.36,-482.51"/>
</g>
<!-- func_6_2596360131 -->
<g id="node35" class="node">
<title>func_6_2596360131</title>
<polygon fill="#d95f02" stroke="black" points="848.5,-412 675.5,-412 675.5,-376 848.5,-376 848.5,-412"/>
<text text-anchor="middle" x="762" y="-390.3" font-family="Times,serif" font-size="14.00">fn_extensions_append</text>
</g>
<!-- func_6_3678668574&#45;&#45;func_6_2596360131 -->
<g id="edge34" class="edge">
<title>func_6_3678668574&#45;&#45;func_6_2596360131</title>
<path fill="none" stroke="black" d="M876.82,-447.88C853.17,-436.99 822.68,-422.95 799.06,-412.07"/>
</g>
<!-- func_6_1405294569 -->
<g id="node46" class="node">
<title>func_6_1405294569</title>
<polygon fill="#d95f02" stroke="black" points="1050.5,-412 883.5,-412 883.5,-376 1050.5,-376 1050.5,-412"/>
<text text-anchor="middle" x="967" y="-390.3" font-family="Times,serif" font-size="14.00">fn_renegotiation_info</text>
</g>
<!-- func_6_3678668574&#45;&#45;func_6_1405294569 -->
<g id="edge45" class="edge">
<title>func_6_3678668574&#45;&#45;func_6_1405294569</title>
<path fill="none" stroke="black" d="M927.1,-447.7C935.32,-436.85 945.86,-422.92 954.05,-412.1"/>
</g>
<!-- func_6_3185397302 -->
<g id="node36" class="node">
<title>func_6_3185397302</title>
<polygon fill="#d95f02" stroke="black" points="619.5,-340 446.5,-340 446.5,-304 619.5,-304 619.5,-340"/>
<text text-anchor="middle" x="533" y="-318.3" font-family="Times,serif" font-size="14.00">fn_extensions_append</text>
</g>
<!-- func_6_2596360131&#45;&#45;func_6_3185397302 -->
<g id="edge35" class="edge">
<title>func_6_2596360131&#45;&#45;func_6_3185397302</title>
<path fill="none" stroke="black" d="M706.27,-375.97C670.66,-365.08 624.64,-351.01 588.98,-340.11"/>
</g>
<!-- func_6_3877069730 -->
<g id="node45" class="node">
<title>func_6_3877069730</title>
<polygon fill="#1b9e77" stroke="black" points="886,-340 638,-340 638,-304 886,-304 886,-340"/>
<text text-anchor="middle" x="762" y="-318.3" font-family="Times,serif" font-size="14.00">fn_signed_certificate_timestamp</text>
</g>
<!-- func_6_2596360131&#45;&#45;func_6_3877069730 -->
<g id="edge44" class="edge">
<title>func_6_2596360131&#45;&#45;func_6_3877069730</title>
<path fill="none" stroke="black" d="M762,-375.7C762,-364.85 762,-350.92 762,-340.1"/>
</g>
<!-- func_6_3058289366 -->
<g id="node37" class="node">
<title>func_6_3058289366</title>
<polygon fill="#d95f02" stroke="black" points="580.5,-268 407.5,-268 407.5,-232 580.5,-232 580.5,-268"/>
<text text-anchor="middle" x="494" y="-246.3" font-family="Times,serif" font-size="14.00">fn_extensions_append</text>
</g>
<!-- func_6_3185397302&#45;&#45;func_6_3058289366 -->
<g id="edge36" class="edge">
<title>func_6_3185397302&#45;&#45;func_6_3058289366</title>
<path fill="none" stroke="black" d="M523.36,-303.7C517.31,-292.85 509.55,-278.92 503.53,-268.1"/>
</g>
<!-- func_6_4236323035 -->
<g id="node44" class="node">
<title>func_6_4236323035</title>
<polygon fill="#1b9e77" stroke="black" points="891.5,-268 598.5,-268 598.5,-232 891.5,-232 891.5,-268"/>
<text text-anchor="middle" x="745" y="-246.3" font-family="Times,serif" font-size="14.00">fn_signature_algorithm_cert_extension</text>
</g>
<!-- func_6_3185397302&#45;&#45;func_6_4236323035 -->
<g id="edge43" class="edge">
<title>func_6_3185397302&#45;&#45;func_6_4236323035</title>
<path fill="none" stroke="black" d="M584.59,-303.97C617.56,-293.08 660.16,-279.01 693.18,-268.11"/>
</g>
<!-- func_6_3258110264 -->
<g id="node38" class="node">
<title>func_6_3258110264</title>
<polygon fill="#d95f02" stroke="black" points="502.5,-196 329.5,-196 329.5,-160 502.5,-160 502.5,-196"/>
<text text-anchor="middle" x="416" y="-174.3" font-family="Times,serif" font-size="14.00">fn_extensions_append</text>
</g>
<!-- func_6_3058289366&#45;&#45;func_6_3258110264 -->
<g id="edge37" class="edge">
<title>func_6_3058289366&#45;&#45;func_6_3258110264</title>
<path fill="none" stroke="black" d="M474.72,-231.7C462.63,-220.85 447.11,-206.92 435.06,-196.1"/>
</g>
<!-- func_6_2266666056 -->
<g id="node43" class="node">
<title>func_6_2266666056</title>
<polygon fill="#1b9e77" stroke="black" points="679.5,-196 520.5,-196 520.5,-160 679.5,-160 679.5,-196"/>
<text text-anchor="middle" x="600" y="-174.3" font-family="Times,serif" font-size="14.00">fn_ec_point_formats</text>
</g>
<!-- func_6_3058289366&#45;&#45;func_6_2266666056 -->
<g id="edge42" class="edge">
<title>func_6_3058289366&#45;&#45;func_6_2266666056</title>
<path fill="none" stroke="black" d="M519.93,-231.88C536.36,-221.03 557.52,-207.05 573.97,-196.19"/>
</g>
<!-- func_6_2091750571 -->
<g id="node39" class="node">
<title>func_6_2091750571</title>
<polygon fill="#d95f02" stroke="black" points="385.5,-124 212.5,-124 212.5,-88 385.5,-88 385.5,-124"/>
<text text-anchor="middle" x="299" y="-102.3" font-family="Times,serif" font-size="14.00">fn_extensions_append</text>
</g>
<!-- func_6_3258110264&#45;&#45;func_6_2091750571 -->
<g id="edge38" class="edge">
<title>func_6_3258110264&#45;&#45;func_6_2091750571</title>
<path fill="none" stroke="black" d="M387.38,-159.88C369.25,-149.03 345.88,-135.05 327.73,-124.19"/>
</g>
<!-- func_6_4136143889 -->
<g id="node42" class="node">
<title>func_6_4136143889</title>
<polygon fill="#1b9e77" stroke="black" points="662,-124 404,-124 404,-88 662,-88 662,-124"/>
<text text-anchor="middle" x="533" y="-102.3" font-family="Times,serif" font-size="14.00">fn_signature_algorithm_extension</text>
</g>
<!-- func_6_3258110264&#45;&#45;func_6_4136143889 -->
<g id="edge41" class="edge">
<title>func_6_3258110264&#45;&#45;func_6_4136143889</title>
<path fill="none" stroke="black" d="M444.62,-159.88C462.75,-149.03 486.12,-135.05 504.27,-124.19"/>
</g>
<!-- func_6_3870435709 -->
<g id="node40" class="node">
<title>func_6_3870435709</title>
<polygon fill="#1b9e77" stroke="black" points="258,-52 108,-52 108,-16 258,-16 258,-52"/>
<text text-anchor="middle" x="183" y="-30.3" font-family="Times,serif" font-size="14.00">fn_extensions_new</text>
</g>
<!-- func_6_2091750571&#45;&#45;func_6_3870435709 -->
<g id="edge39" class="edge">
<title>func_6_2091750571&#45;&#45;func_6_3870435709</title>
<path fill="none" stroke="black" d="M270.62,-87.88C252.65,-77.03 229.48,-63.05 211.49,-52.19"/>
</g>
<!-- func_6_204800444 -->
<g id="node41" class="node">
<title>func_6_204800444</title>
<polygon fill="#1b9e77" stroke="black" points="554,-52 276,-52 276,-16 554,-16 554,-52"/>
<text text-anchor="middle" x="415" y="-30.3" font-family="Times,serif" font-size="14.00">fn_x25519_support_group_extension</text>
</g>
<!-- func_6_2091750571&#45;&#45;func_6_204800444 -->
<g id="edge40" class="edge">
<title>func_6_2091750571&#45;&#45;func_6_204800444</title>
<path fill="none" stroke="black" d="M327.38,-87.88C345.35,-77.03 368.52,-63.05 386.51,-52.19"/>
</g>
<!-- func_6_1134846420 -->
<g id="node47" class="node">
<title>func_6_1134846420</title>
<polygon fill="#1b9e77" stroke="black" points="1063.5,-340 904.5,-340 904.5,-304 1063.5,-304 1063.5,-340"/>
<text text-anchor="middle" x="984" y="-318.3" font-family="Times,serif" font-size="14.00">fn_empty_bytes_vec</text>
</g>
<!-- func_6_1405294569&#45;&#45;func_6_1134846420 -->
<g id="edge46" class="edge">
<title>func_6_1405294569&#45;&#45;func_6_1134846420</title>
<path fill="none" stroke="black" d="M971.2,-375.7C973.84,-364.85 977.22,-350.92 979.85,-340.1"/>
</g>
<!-- func_6_3802675400 -->
<g id="node53" class="node">
<title>func_6_3802675400</title>
<polygon fill="#d95f02" stroke="black" points="1093.5,-844 950.5,-844 950.5,-808 1093.5,-808 1093.5,-844"/>
<text text-anchor="middle" x="1022" y="-822.3" font-family="Times,serif" font-size="14.00">fn_new_pubkey12</text>
</g>
<!-- func_6_82692369&#45;&#45;func_6_3802675400 -->
<g id="edge52" class="edge">
<title>func_6_82692369&#45;&#45;func_6_3802675400</title>
<path fill="none" stroke="black" d="M1022.75,-879.7C1022.6,-868.85 1022.4,-854.92 1022.24,-844.1"/>
</g>
<!-- func_6_1746473605 -->
<g id="node54" class="node">
<title>func_6_1746473605</title>
<polygon fill="#d95f02" stroke="black" points="1116,-772 928,-772 928,-736 1116,-736 1116,-772"/>
<text text-anchor="middle" x="1022" y="-750.3" font-family="Times,serif" font-size="14.00">fn_decode_ecdh_params</text>
</g>
<!-- func_6_3802675400&#45;&#45;func_6_1746473605 -->
<g id="edge53" class="edge">
<title>func_6_3802675400&#45;&#45;func_6_1746473605</title>
<path fill="none" stroke="black" d="M1022,-807.7C1022,-796.85 1022,-782.92 1022,-772.1"/>
</g>
<!-- var_6_210840353 -->
<g id="node55" class="node">
<title>var_6_210840353</title>
<ellipse fill="#1b9e77" stroke="black" cx="1022" cy="-682" rx="78.79" ry="18"/>
<text text-anchor="middle" x="1022" y="-678.3" font-family="Times,serif" font-size="14.00">(0,2)/Vec&lt;u8&gt;</text>
</g>
<!-- func_6_1746473605&#45;&#45;var_6_210840353 -->
<g id="edge54" class="edge">
<title>func_6_1746473605&#45;&#45;var_6_210840353</title>
<path fill="none" stroke="black" d="M1022,-735.7C1022,-724.85 1022,-710.92 1022,-700.1"/>
</g>
<!-- var_6_909896447 -->
<g id="node58" class="node">
<title>var_6_909896447</title>
<ellipse fill="#1b9e77" stroke="black" cx="1037" cy="-1186" rx="78.79" ry="18"/>
<text text-anchor="middle" x="1037" y="-1182.3" font-family="Times,serif" font-size="14.00">(0,2)/Vec&lt;u8&gt;</text>
</g>
<!-- func_6_1798159670&#45;&#45;var_6_909896447 -->
<g id="edge57" class="edge">
<title>func_6_1798159670&#45;&#45;var_6_909896447</title>
<path fill="none" stroke="black" d="M926.72,-1239.88C950.52,-1228.46 981.56,-1213.58 1004.64,-1202.51"/>
</g>
</g>
</svg>
