<?xml version="1.0" encoding="UTF-8" standalone="no"?>
<!DOCTYPE svg PUBLIC "-//W3C//DTD SVG 1.1//EN"
 "http://www.w3.org/Graphics/SVG/1.1/DTD/svg11.dtd">
<!-- Generated by graphviz version 2.47.3 (0)
 -->
<!-- Pages: 1 -->
<svg width="1118pt" height="1251pt"
 viewBox="0.00 0.00 1118.00 1251.00" xmlns="http://www.w3.org/2000/svg" xmlns:xlink="http://www.w3.org/1999/xlink">
<g id="graph0" class="graph" transform="scale(1 1) rotate(0) translate(4 1247)">
<polygon fill="white" stroke="transparent" points="-4,4 -4,-1247 1114,-1247 1114,4 -4,4"/>
<g id="clust1" class="cluster">
<title>cluster4</title>
<polygon fill="none" stroke="black" points="8,-8 8,-1235 1102,-1235 1102,-8 8,-8"/>
<text text-anchor="middle" x="555" y="-1219.8" font-family="Times,serif" font-size="14.00">Step #4 (Agent &#160;1)</text>
</g>
<!-- f_4_232089064 -->
<g id="node1" class="node">
<title>f_4_232089064</title>
<polygon fill="#d95f02" stroke="black" points="635,-1204 525,-1204 525,-1168 635,-1168 635,-1204"/>
<text text-anchor="middle" x="580" y="-1182.3" font-family="Times,serif" font-size="14.00">fn_encrypt12</text>
</g>
<!-- f_4_2394191602 -->
<g id="node2" class="node">
<title>f_4_2394191602</title>
<polygon fill="#d95f02" stroke="black" points="396.5,-1132 301.5,-1132 301.5,-1096 396.5,-1096 396.5,-1132"/>
<text text-anchor="middle" x="349" y="-1110.3" font-family="Times,serif" font-size="14.00">fn_finished</text>
</g>
<!-- f_4_232089064&#45;&gt;f_4_2394191602 -->
<g id="edge1" class="edge">
<title>f_4_232089064&#45;&gt;f_4_2394191602</title>
<path fill="none" stroke="black" d="M524.96,-1168.32C489.22,-1157.49 442.73,-1143.4 406.51,-1132.43"/>
<polygon fill="black" stroke="black" points="407.16,-1128.97 396.58,-1129.42 405.13,-1135.67 407.16,-1128.97"/>
</g>
<!-- v_4_208626559 -->
<g id="node44" class="node">
<title>v_4_208626559</title>
<ellipse fill="#1b9e77" stroke="black" cx="488" cy="-1114" rx="73.39" ry="18"/>
<text text-anchor="middle" x="488" y="-1110.3" font-family="Times,serif" font-size="14.00">(0,0)/Random</text>
</g>
<!-- f_4_232089064&#45;&gt;v_4_208626559 -->
<g id="edge43" class="edge">
<title>f_4_232089064&#45;&gt;v_4_208626559</title>
<path fill="none" stroke="black" d="M557.26,-1167.7C545.3,-1158.6 530.49,-1147.33 517.64,-1137.55"/>
<polygon fill="black" stroke="black" points="519.61,-1134.65 509.53,-1131.38 515.37,-1140.22 519.61,-1134.65"/>
</g>
<!-- f_4_1634648318 -->
<g id="node45" class="node">
<title>f_4_1634648318</title>
<polygon fill="#d95f02" stroke="black" points="767,-1132 579,-1132 579,-1096 767,-1096 767,-1132"/>
<text text-anchor="middle" x="673" y="-1110.3" font-family="Times,serif" font-size="14.00">fn_decode_ecdh_params</text>
</g>
<!-- f_4_232089064&#45;&gt;f_4_1634648318 -->
<g id="edge44" class="edge">
<title>f_4_232089064&#45;&gt;f_4_1634648318</title>
<path fill="none" stroke="black" d="M602.99,-1167.7C614.81,-1158.8 629.39,-1147.82 642.18,-1138.2"/>
<polygon fill="black" stroke="black" points="644.39,-1140.91 650.28,-1132.1 640.18,-1135.32 644.39,-1140.91"/>
</g>
<!-- f_4_4007117590 -->
<g id="node47" class="node">
<title>f_4_4007117590</title>
<polygon fill="#1b9e77" stroke="black" points="863,-1132 785,-1132 785,-1096 863,-1096 863,-1132"/>
<text text-anchor="middle" x="824" y="-1110.3" font-family="Times,serif" font-size="14.00">fn_seq_0</text>
</g>
<!-- f_4_232089064&#45;&gt;f_4_4007117590 -->
<g id="edge46" class="edge">
<title>f_4_232089064&#45;&gt;f_4_4007117590</title>
<path fill="none" stroke="black" d="M635.24,-1171.26C672.37,-1161.75 722.59,-1148.37 774.98,-1132.21"/>
<polygon fill="black" stroke="black" points="776.28,-1135.47 784.79,-1129.16 774.2,-1128.79 776.28,-1135.47"/>
</g>
<!-- f_4_183034668 -->
<g id="node3" class="node">
<title>f_4_183034668</title>
<polygon fill="#d95f02" stroke="black" points="422,-1060 276,-1060 276,-1024 422,-1024 422,-1060"/>
<text text-anchor="middle" x="349" y="-1038.3" font-family="Times,serif" font-size="14.00">fn_sign_transcript</text>
</g>
<!-- f_4_2394191602&#45;&gt;f_4_183034668 -->
<g id="edge2" class="edge">
<title>f_4_2394191602&#45;&gt;f_4_183034668</title>
<path fill="none" stroke="black" d="M349,-1095.7C349,-1087.98 349,-1078.71 349,-1070.11"/>
<polygon fill="black" stroke="black" points="352.5,-1070.1 349,-1060.1 345.5,-1070.1 352.5,-1070.1"/>
</g>
<!-- v_4_3401181599 -->
<g id="node4" class="node">
<title>v_4_3401181599</title>
<ellipse fill="#1b9e77" stroke="black" cx="164" cy="-970" rx="73.39" ry="18"/>
<text text-anchor="middle" x="164" y="-966.3" font-family="Times,serif" font-size="14.00">(0,0)/Random</text>
</g>
<!-- f_4_183034668&#45;&gt;v_4_3401181599 -->
<g id="edge3" class="edge">
<title>f_4_183034668&#45;&gt;v_4_3401181599</title>
<path fill="none" stroke="black" d="M303.74,-1023.88C275.9,-1013.34 240.25,-999.85 211.92,-989.13"/>
<polygon fill="black" stroke="black" points="212.82,-985.73 202.23,-985.47 210.35,-992.28 212.82,-985.73"/>
</g>
<!-- f_4_4109024355 -->
<g id="node5" class="node">
<title>f_4_4109024355</title>
<polygon fill="#d95f02" stroke="black" points="443,-988 255,-988 255,-952 443,-952 443,-988"/>
<text text-anchor="middle" x="349" y="-966.3" font-family="Times,serif" font-size="14.00">fn_decode_ecdh_params</text>
</g>
<!-- f_4_183034668&#45;&gt;f_4_4109024355 -->
<g id="edge4" class="edge">
<title>f_4_183034668&#45;&gt;f_4_4109024355</title>
<path fill="none" stroke="black" d="M349,-1023.7C349,-1015.98 349,-1006.71 349,-998.11"/>
<polygon fill="black" stroke="black" points="352.5,-998.1 349,-988.1 345.5,-998.1 352.5,-998.1"/>
</g>
<!-- f_4_3232430937 -->
<g id="node7" class="node">
<title>f_4_3232430937</title>
<polygon fill="#d95f02" stroke="black" points="629,-988 461,-988 461,-952 629,-952 629,-988"/>
<text text-anchor="middle" x="545" y="-966.3" font-family="Times,serif" font-size="14.00">fn_append_transcript</text>
</g>
<!-- f_4_183034668&#45;&gt;f_4_3232430937 -->
<g id="edge6" class="edge">
<title>f_4_183034668&#45;&gt;f_4_3232430937</title>
<path fill="none" stroke="black" d="M396.7,-1023.97C424.08,-1014.19 458.66,-1001.84 487.53,-991.52"/>
<polygon fill="black" stroke="black" points="488.85,-994.77 497.09,-988.11 486.5,-988.18 488.85,-994.77"/>
</g>
<!-- v_4_2279589025 -->
<g id="node6" class="node">
<title>v_4_2279589025</title>
<ellipse fill="#1b9e77" stroke="black" cx="349" cy="-898" rx="78.79" ry="18"/>
<text text-anchor="middle" x="349" y="-894.3" font-family="Times,serif" font-size="14.00">(0,2)/Vec&lt;u8&gt;</text>
</g>
<!-- f_4_4109024355&#45;&gt;v_4_2279589025 -->
<g id="edge5" class="edge">
<title>f_4_4109024355&#45;&gt;v_4_2279589025</title>
<path fill="none" stroke="black" d="M349,-951.7C349,-943.98 349,-934.71 349,-926.11"/>
<polygon fill="black" stroke="black" points="352.5,-926.1 349,-916.1 345.5,-926.1 352.5,-926.1"/>
</g>
<!-- f_4_671095872 -->
<g id="node8" class="node">
<title>f_4_671095872</title>
<polygon fill="#d95f02" stroke="black" points="621,-916 453,-916 453,-880 621,-880 621,-916"/>
<text text-anchor="middle" x="537" y="-894.3" font-family="Times,serif" font-size="14.00">fn_append_transcript</text>
</g>
<!-- f_4_3232430937&#45;&gt;f_4_671095872 -->
<g id="edge7" class="edge">
<title>f_4_3232430937&#45;&gt;f_4_671095872</title>
<path fill="none" stroke="black" d="M543.02,-951.7C542.14,-943.98 541.08,-934.71 540.1,-926.11"/>
<polygon fill="black" stroke="black" points="543.57,-925.64 538.95,-916.1 536.61,-926.44 543.57,-925.64"/>
</g>
<!-- f_4_3952195210 -->
<g id="node40" class="node">
<title>f_4_3952195210</title>
<polygon fill="#d95f02" stroke="black" points="822.5,-916 639.5,-916 639.5,-880 822.5,-880 822.5,-916"/>
<text text-anchor="middle" x="731" y="-894.3" font-family="Times,serif" font-size="14.00">fn_client_key_exchange</text>
</g>
<!-- f_4_3232430937&#45;&gt;f_4_3952195210 -->
<g id="edge39" class="edge">
<title>f_4_3232430937&#45;&gt;f_4_3952195210</title>
<path fill="none" stroke="black" d="M590.5,-951.88C616.38,-942.14 648.97,-929.87 676.24,-919.61"/>
<polygon fill="black" stroke="black" points="677.52,-922.87 685.65,-916.07 675.06,-916.31 677.52,-922.87"/>
</g>
<!-- f_4_2368105182 -->
<g id="node9" class="node">
<title>f_4_2368105182</title>
<polygon fill="#d95f02" stroke="black" points="446,-844 278,-844 278,-808 446,-808 446,-844"/>
<text text-anchor="middle" x="362" y="-822.3" font-family="Times,serif" font-size="14.00">fn_append_transcript</text>
</g>
<!-- f_4_671095872&#45;&gt;f_4_2368105182 -->
<g id="edge8" class="edge">
<title>f_4_671095872&#45;&gt;f_4_2368105182</title>
<path fill="none" stroke="black" d="M494.19,-879.88C470.05,-870.22 439.72,-858.09 414.19,-847.88"/>
<polygon fill="black" stroke="black" points="415.26,-844.53 404.67,-844.07 412.66,-851.03 415.26,-844.53"/>
</g>
<!-- v_4_943855343 -->
<g id="node39" class="node">
<title>v_4_943855343</title>
<ellipse fill="#1b9e77" stroke="black" cx="540" cy="-826" rx="76.09" ry="18"/>
<text text-anchor="middle" x="540" y="-822.3" font-family="Times,serif" font-size="14.00">(0,3)/Message</text>
</g>
<!-- f_4_671095872&#45;&gt;v_4_943855343 -->
<g id="edge38" class="edge">
<title>f_4_671095872&#45;&gt;v_4_943855343</title>
<path fill="none" stroke="black" d="M537.74,-879.7C538.07,-871.98 538.47,-862.71 538.84,-854.11"/>
<polygon fill="black" stroke="black" points="542.34,-854.25 539.27,-844.1 535.34,-853.95 542.34,-854.25"/>
</g>
<!-- f_4_521581030 -->
<g id="node10" class="node">
<title>f_4_521581030</title>
<polygon fill="#d95f02" stroke="black" points="440,-772 272,-772 272,-736 440,-736 440,-772"/>
<text text-anchor="middle" x="356" y="-750.3" font-family="Times,serif" font-size="14.00">fn_append_transcript</text>
</g>
<!-- f_4_2368105182&#45;&gt;f_4_521581030 -->
<g id="edge9" class="edge">
<title>f_4_2368105182&#45;&gt;f_4_521581030</title>
<path fill="none" stroke="black" d="M360.52,-807.7C359.86,-799.98 359.06,-790.71 358.32,-782.11"/>
<polygon fill="black" stroke="black" points="361.81,-781.77 357.47,-772.1 354.83,-782.37 361.81,-781.77"/>
</g>
<!-- v_4_800725335 -->
<g id="node38" class="node">
<title>v_4_800725335</title>
<ellipse fill="#1b9e77" stroke="black" cx="534" cy="-754" rx="76.09" ry="18"/>
<text text-anchor="middle" x="534" y="-750.3" font-family="Times,serif" font-size="14.00">(0,2)/Message</text>
</g>
<!-- f_4_2368105182&#45;&gt;v_4_800725335 -->
<g id="edge37" class="edge">
<title>f_4_2368105182&#45;&gt;v_4_800725335</title>
<path fill="none" stroke="black" d="M404.08,-807.88C429.59,-797.49 462.14,-784.24 488.29,-773.6"/>
<polygon fill="black" stroke="black" points="489.66,-776.82 497.6,-769.81 487.02,-770.34 489.66,-776.82"/>
</g>
<!-- f_4_291649246 -->
<g id="node11" class="node">
<title>f_4_291649246</title>
<polygon fill="#d95f02" stroke="black" points="428,-700 260,-700 260,-664 428,-664 428,-700"/>
<text text-anchor="middle" x="344" y="-678.3" font-family="Times,serif" font-size="14.00">fn_append_transcript</text>
</g>
<!-- f_4_521581030&#45;&gt;f_4_291649246 -->
<g id="edge10" class="edge">
<title>f_4_521581030&#45;&gt;f_4_291649246</title>
<path fill="none" stroke="black" d="M353.03,-735.7C351.71,-727.98 350.12,-718.71 348.65,-710.11"/>
<polygon fill="black" stroke="black" points="352.07,-709.37 346.93,-700.1 345.17,-710.55 352.07,-709.37"/>
</g>
<!-- v_4_580951095 -->
<g id="node37" class="node">
<title>v_4_580951095</title>
<ellipse fill="#1b9e77" stroke="black" cx="522" cy="-682" rx="76.09" ry="18"/>
<text text-anchor="middle" x="522" y="-678.3" font-family="Times,serif" font-size="14.00">(0,1)/Message</text>
</g>
<!-- f_4_521581030&#45;&gt;v_4_580951095 -->
<g id="edge36" class="edge">
<title>f_4_521581030&#45;&gt;v_4_580951095</title>
<path fill="none" stroke="black" d="M396.61,-735.88C420.95,-725.61 451.94,-712.54 477.02,-701.97"/>
<polygon fill="black" stroke="black" points="478.47,-705.16 486.32,-698.05 475.75,-698.71 478.47,-705.16"/>
</g>
<!-- f_4_3027206607 -->
<g id="node12" class="node">
<title>f_4_3027206607</title>
<polygon fill="#d95f02" stroke="black" points="405,-628 237,-628 237,-592 405,-592 405,-628"/>
<text text-anchor="middle" x="321" y="-606.3" font-family="Times,serif" font-size="14.00">fn_append_transcript</text>
</g>
<!-- f_4_291649246&#45;&gt;f_4_3027206607 -->
<g id="edge11" class="edge">
<title>f_4_291649246&#45;&gt;f_4_3027206607</title>
<path fill="none" stroke="black" d="M338.31,-663.7C335.75,-655.9 332.67,-646.51 329.82,-637.83"/>
<polygon fill="black" stroke="black" points="333.07,-636.51 326.62,-628.1 326.42,-638.7 333.07,-636.51"/>
</g>
<!-- v_4_1854053321 -->
<g id="node36" class="node">
<title>v_4_1854053321</title>
<ellipse fill="#1b9e77" stroke="black" cx="499" cy="-610" rx="76.09" ry="18"/>
<text text-anchor="middle" x="499" y="-606.3" font-family="Times,serif" font-size="14.00">(0,0)/Message</text>
</g>
<!-- f_4_291649246&#45;&gt;v_4_1854053321 -->
<g id="edge35" class="edge">
<title>f_4_291649246&#45;&gt;v_4_1854053321</title>
<path fill="none" stroke="black" d="M381.92,-663.88C404.37,-653.74 432.87,-640.86 456.14,-630.36"/>
<polygon fill="black" stroke="black" points="457.75,-633.47 465.43,-626.16 454.87,-627.09 457.75,-633.47"/>
</g>
<!-- f_4_1056478656 -->
<g id="node13" class="node">
<title>f_4_1056478656</title>
<polygon fill="#1b9e77" stroke="black" points="396.5,-556 233.5,-556 233.5,-520 396.5,-520 396.5,-556"/>
<text text-anchor="middle" x="315" y="-534.3" font-family="Times,serif" font-size="14.00">fn_new_transcript12</text>
</g>
<!-- f_4_3027206607&#45;&gt;f_4_1056478656 -->
<g id="edge12" class="edge">
<title>f_4_3027206607&#45;&gt;f_4_1056478656</title>
<path fill="none" stroke="black" d="M319.52,-591.7C318.86,-583.98 318.06,-574.71 317.32,-566.11"/>
<polygon fill="black" stroke="black" points="320.81,-565.77 316.47,-556.1 313.83,-566.37 320.81,-565.77"/>
</g>
<!-- f_4_4233225338 -->
<g id="node14" class="node">
<title>f_4_4233225338</title>
<polygon fill="#d95f02" stroke="black" points="533.5,-556 414.5,-556 414.5,-520 533.5,-520 533.5,-556"/>
<text text-anchor="middle" x="474" y="-534.3" font-family="Times,serif" font-size="14.00">fn_client_hello</text>
</g>
<!-- f_4_3027206607&#45;&gt;f_4_4233225338 -->
<g id="edge13" class="edge">
<title>f_4_3027206607&#45;&gt;f_4_4233225338</title>
<path fill="none" stroke="black" d="M358.43,-591.88C379.25,-582.35 405.35,-570.41 427.48,-560.28"/>
<polygon fill="black" stroke="black" points="429.06,-563.41 436.69,-556.07 426.14,-557.05 429.06,-563.41"/>
</g>
<!-- f_4_3883833414 -->
<g id="node15" class="node">
<title>f_4_3883833414</title>
<polygon fill="#1b9e77" stroke="black" points="189.5,-484 16.5,-484 16.5,-448 189.5,-448 189.5,-484"/>
<text text-anchor="middle" x="103" y="-462.3" font-family="Times,serif" font-size="14.00">fn_protocol_version12</text>
</g>
<!-- f_4_4233225338&#45;&gt;f_4_3883833414 -->
<g id="edge14" class="edge">
<title>f_4_4233225338&#45;&gt;f_4_3883833414</title>
<path fill="none" stroke="black" d="M414.35,-521.83C411.53,-521.19 408.74,-520.58 406,-520 317.77,-501.32 292.67,-500.2 199.73,-484.11"/>
<polygon fill="black" stroke="black" points="200.06,-480.62 189.6,-482.35 198.86,-487.51 200.06,-480.62"/>
</g>
<!-- f_4_1830152439 -->
<g id="node16" class="node">
<title>f_4_1830152439</title>
<polygon fill="#1b9e77" stroke="black" points="336,-484 208,-484 208,-448 336,-448 336,-484"/>
<text text-anchor="middle" x="272" y="-462.3" font-family="Times,serif" font-size="14.00">fn_new_random</text>
</g>
<!-- f_4_4233225338&#45;&gt;f_4_1830152439 -->
<g id="edge15" class="edge">
<title>f_4_4233225338&#45;&gt;f_4_1830152439</title>
<path fill="none" stroke="black" d="M424.84,-519.97C396.5,-510.14 360.68,-497.73 330.84,-487.39"/>
<polygon fill="black" stroke="black" points="331.97,-484.08 321.38,-484.11 329.68,-490.69 331.97,-484.08"/>
</g>
<!-- f_4_1637895161 -->
<g id="node17" class="node">
<title>f_4_1637895161</title>
<polygon fill="#1b9e77" stroke="black" points="500,-484 354,-484 354,-448 500,-448 500,-484"/>
<text text-anchor="middle" x="427" y="-462.3" font-family="Times,serif" font-size="14.00">fn_new_session_id</text>
</g>
<!-- f_4_4233225338&#45;&gt;f_4_1637895161 -->
<g id="edge16" class="edge">
<title>f_4_4233225338&#45;&gt;f_4_1637895161</title>
<path fill="none" stroke="black" d="M462.38,-519.7C456.86,-511.47 450.15,-501.48 444.07,-492.42"/>
<polygon fill="black" stroke="black" points="446.96,-490.46 438.48,-484.1 441.15,-494.36 446.96,-490.46"/>
</g>
<!-- f_4_288942960 -->
<g id="node18" class="node">
<title>f_4_288942960</title>
<polygon fill="#d95f02" stroke="black" points="702,-484 518,-484 518,-448 702,-448 702,-484"/>
<text text-anchor="middle" x="610" y="-462.3" font-family="Times,serif" font-size="14.00">fn_append_cipher_suite</text>
</g>
<!-- f_4_4233225338&#45;&gt;f_4_288942960 -->
<g id="edge17" class="edge">
<title>f_4_4233225338&#45;&gt;f_4_288942960</title>
<path fill="none" stroke="black" d="M507.27,-519.88C525.46,-510.51 548.19,-498.81 567.64,-488.8"/>
<polygon fill="black" stroke="black" points="569.31,-491.88 576.6,-484.19 566.11,-485.65 569.31,-491.88"/>
</g>
<!-- f_4_3603136453 -->
<g id="node21" class="node">
<title>f_4_3603136453</title>
<polygon fill="#1b9e77" stroke="black" points="855.5,-484 720.5,-484 720.5,-448 855.5,-448 855.5,-484"/>
<text text-anchor="middle" x="788" y="-462.3" font-family="Times,serif" font-size="14.00">fn_compressions</text>
</g>
<!-- f_4_4233225338&#45;&gt;f_4_3603136453 -->
<g id="edge20" class="edge">
<title>f_4_4233225338&#45;&gt;f_4_3603136453</title>
<path fill="none" stroke="black" d="M533.8,-523.67C583.89,-512.5 655.73,-496.49 710.27,-484.33"/>
<polygon fill="black" stroke="black" points="711.25,-487.7 720.25,-482.1 709.72,-480.86 711.25,-487.7"/>
</g>
<!-- f_4_726491551 -->
<g id="node22" class="node">
<title>f_4_726491551</title>
<polygon fill="#d95f02" stroke="black" points="1094,-484 874,-484 874,-448 1094,-448 1094,-484"/>
<text text-anchor="middle" x="984" y="-462.3" font-family="Times,serif" font-size="14.00">fn_client_extensions_append</text>
</g>
<!-- f_4_4233225338&#45;&gt;f_4_726491551 -->
<g id="edge21" class="edge">
<title>f_4_4233225338&#45;&gt;f_4_726491551</title>
<path fill="none" stroke="black" d="M533.64,-529.05C608.3,-519.07 740.42,-501.31 863.78,-484.16"/>
<polygon fill="black" stroke="black" points="864.36,-487.62 873.79,-482.77 863.4,-480.68 864.36,-487.62"/>
</g>
<!-- f_4_1633326048 -->
<g id="node19" class="node">
<title>f_4_1633326048</title>
<polygon fill="#1b9e77" stroke="black" points="382,-412 214,-412 214,-376 382,-376 382,-412"/>
<text text-anchor="middle" x="298" y="-390.3" font-family="Times,serif" font-size="14.00">fn_new_cipher_suites</text>
</g>
<!-- f_4_288942960&#45;&gt;f_4_1633326048 -->
<g id="edge18" class="edge">
<title>f_4_288942960&#45;&gt;f_4_1633326048</title>
<path fill="none" stroke="black" d="M534.08,-447.97C488.69,-437.78 430.9,-424.82 383.86,-414.26"/>
<polygon fill="black" stroke="black" points="384.52,-410.82 373.99,-412.05 382.99,-417.65 384.52,-410.82"/>
</g>
<!-- f_4_1447107464 -->
<g id="node20" class="node">
<title>f_4_1447107464</title>
<polygon fill="#1b9e77" stroke="black" points="543.5,-412 400.5,-412 400.5,-376 543.5,-376 543.5,-412"/>
<text text-anchor="middle" x="472" y="-390.3" font-family="Times,serif" font-size="14.00">fn_cipher_suite12</text>
</g>
<!-- f_4_288942960&#45;&gt;f_4_1447107464 -->
<g id="edge19" class="edge">
<title>f_4_288942960&#45;&gt;f_4_1447107464</title>
<path fill="none" stroke="black" d="M576.24,-447.88C557.78,-438.51 534.72,-426.81 514.98,-416.8"/>
<polygon fill="black" stroke="black" points="516.39,-413.59 505.89,-412.19 513.22,-419.83 516.39,-413.59"/>
</g>
<!-- f_4_2715306660 -->
<g id="node23" class="node">
<title>f_4_2715306660</title>
<polygon fill="#d95f02" stroke="black" points="782,-412 562,-412 562,-376 782,-376 782,-412"/>
<text text-anchor="middle" x="672" y="-390.3" font-family="Times,serif" font-size="14.00">fn_client_extensions_append</text>
</g>
<!-- f_4_726491551&#45;&gt;f_4_2715306660 -->
<g id="edge22" class="edge">
<title>f_4_726491551&#45;&gt;f_4_2715306660</title>
<path fill="none" stroke="black" d="M908.08,-447.97C862.69,-437.78 804.9,-424.82 757.86,-414.26"/>
<polygon fill="black" stroke="black" points="758.52,-410.82 747.99,-412.05 756.99,-417.65 758.52,-410.82"/>
</g>
<!-- f_4_3932863453 -->
<g id="node35" class="node">
<title>f_4_3932863453</title>
<polygon fill="#1b9e77" stroke="black" points="1093.5,-412 800.5,-412 800.5,-376 1093.5,-376 1093.5,-412"/>
<text text-anchor="middle" x="947" y="-390.3" font-family="Times,serif" font-size="14.00">fn_signature_algorithm_cert_extension</text>
</g>
<!-- f_4_726491551&#45;&gt;f_4_3932863453 -->
<g id="edge34" class="edge">
<title>f_4_726491551&#45;&gt;f_4_3932863453</title>
<path fill="none" stroke="black" d="M974.85,-447.7C970.6,-439.64 965.44,-429.89 960.73,-420.98"/>
<polygon fill="black" stroke="black" points="963.81,-419.31 956.04,-412.1 957.62,-422.58 963.81,-419.31"/>
</g>
<!-- f_4_2249181527 -->
<g id="node24" class="node">
<title>f_4_2249181527</title>
<polygon fill="#d95f02" stroke="black" points="657,-340 437,-340 437,-304 657,-304 657,-340"/>
<text text-anchor="middle" x="547" y="-318.3" font-family="Times,serif" font-size="14.00">fn_client_extensions_append</text>
</g>
<!-- f_4_2715306660&#45;&gt;f_4_2249181527 -->
<g id="edge23" class="edge">
<title>f_4_2715306660&#45;&gt;f_4_2249181527</title>
<path fill="none" stroke="black" d="M641.42,-375.88C624.93,-366.64 604.38,-355.13 586.66,-345.21"/>
<polygon fill="black" stroke="black" points="588.13,-342.02 577.7,-340.19 584.71,-348.13 588.13,-342.02"/>
</g>
<!-- f_4_968496986 -->
<g id="node33" class="node">
<title>f_4_968496986</title>
<polygon fill="#d95f02" stroke="black" points="918.5,-340 675.5,-340 675.5,-304 918.5,-304 918.5,-340"/>
<text text-anchor="middle" x="797" y="-318.3" font-family="Times,serif" font-size="14.00">fn_renegotiation_info_extension</text>
</g>
<!-- f_4_2715306660&#45;&gt;f_4_968496986 -->
<g id="edge32" class="edge">
<title>f_4_2715306660&#45;&gt;f_4_968496986</title>
<path fill="none" stroke="black" d="M702.58,-375.88C719.07,-366.64 739.62,-355.13 757.34,-345.21"/>
<polygon fill="black" stroke="black" points="759.29,-348.13 766.3,-340.19 755.87,-342.02 759.29,-348.13"/>
</g>
<!-- f_4_2550168159 -->
<g id="node25" class="node">
<title>f_4_2550168159</title>
<polygon fill="#d95f02" stroke="black" points="419,-268 199,-268 199,-232 419,-232 419,-268"/>
<text text-anchor="middle" x="309" y="-246.3" font-family="Times,serif" font-size="14.00">fn_client_extensions_append</text>
</g>
<!-- f_4_2249181527&#45;&gt;f_4_2550168159 -->
<g id="edge24" class="edge">
<title>f_4_2249181527&#45;&gt;f_4_2550168159</title>
<path fill="none" stroke="black" d="M489.08,-303.97C455.25,-294.01 412.38,-281.41 376.96,-270.99"/>
<polygon fill="black" stroke="black" points="377.76,-267.57 367.18,-268.11 375.78,-274.29 377.76,-267.57"/>
</g>
<!-- f_4_444040803 -->
<g id="node32" class="node">
<title>f_4_444040803</title>
<polygon fill="#1b9e77" stroke="black" points="685,-268 437,-268 437,-232 685,-232 685,-268"/>
<text text-anchor="middle" x="561" y="-246.3" font-family="Times,serif" font-size="14.00">fn_signed_certificate_timestamp</text>
</g>
<!-- f_4_2249181527&#45;&gt;f_4_444040803 -->
<g id="edge31" class="edge">
<title>f_4_2249181527&#45;&gt;f_4_444040803</title>
<path fill="none" stroke="black" d="M550.46,-303.7C552,-295.98 553.86,-286.71 555.58,-278.11"/>
<polygon fill="black" stroke="black" points="559.05,-278.6 557.58,-268.1 552.19,-277.22 559.05,-278.6"/>
</g>
<!-- f_4_91660691 -->
<g id="node26" class="node">
<title>f_4_91660691</title>
<polygon fill="#d95f02" stroke="black" points="410,-196 190,-196 190,-160 410,-160 410,-196"/>
<text text-anchor="middle" x="300" y="-174.3" font-family="Times,serif" font-size="14.00">fn_client_extensions_append</text>
</g>
<!-- f_4_2550168159&#45;&gt;f_4_91660691 -->
<g id="edge25" class="edge">
<title>f_4_2550168159&#45;&gt;f_4_91660691</title>
<path fill="none" stroke="black" d="M306.78,-231.7C305.78,-223.98 304.59,-214.71 303.49,-206.11"/>
<polygon fill="black" stroke="black" points="306.95,-205.58 302.2,-196.1 300,-206.47 306.95,-205.58"/>
</g>
<!-- f_4_3758808524 -->
<g id="node31" class="node">
<title>f_4_3758808524</title>
<polygon fill="#1b9e77" stroke="black" points="663.5,-196 428.5,-196 428.5,-160 663.5,-160 663.5,-196"/>
<text text-anchor="middle" x="546" y="-174.3" font-family="Times,serif" font-size="14.00">fn_ec_point_formats_extension</text>
</g>
<!-- f_4_2550168159&#45;&gt;f_4_3758808524 -->
<g id="edge30" class="edge">
<title>f_4_2550168159&#45;&gt;f_4_3758808524</title>
<path fill="none" stroke="black" d="M366.67,-231.97C400.36,-222.01 443.05,-209.41 478.33,-198.99"/>
<polygon fill="black" stroke="black" points="479.47,-202.3 488.07,-196.11 477.49,-195.59 479.47,-202.3"/>
</g>
<!-- f_4_4105392615 -->
<g id="node27" class="node">
<title>f_4_4105392615</title>
<polygon fill="#d95f02" stroke="black" points="393,-124 173,-124 173,-88 393,-88 393,-124"/>
<text text-anchor="middle" x="283" y="-102.3" font-family="Times,serif" font-size="14.00">fn_client_extensions_append</text>
</g>
<!-- f_4_91660691&#45;&gt;f_4_4105392615 -->
<g id="edge26" class="edge">
<title>f_4_91660691&#45;&gt;f_4_4105392615</title>
<path fill="none" stroke="black" d="M295.8,-159.7C293.9,-151.9 291.62,-142.51 289.52,-133.83"/>
<polygon fill="black" stroke="black" points="292.92,-133 287.15,-124.1 286.11,-134.65 292.92,-133"/>
</g>
<!-- f_4_2226499418 -->
<g id="node30" class="node">
<title>f_4_2226499418</title>
<polygon fill="#1b9e77" stroke="black" points="669,-124 411,-124 411,-88 669,-88 669,-124"/>
<text text-anchor="middle" x="540" y="-102.3" font-family="Times,serif" font-size="14.00">fn_signature_algorithm_extension</text>
</g>
<!-- f_4_91660691&#45;&gt;f_4_2226499418 -->
<g id="edge29" class="edge">
<title>f_4_91660691&#45;&gt;f_4_2226499418</title>
<path fill="none" stroke="black" d="M358.4,-159.97C392.52,-150.01 435.75,-137.41 471.47,-126.99"/>
<polygon fill="black" stroke="black" points="472.71,-130.27 481.33,-124.11 470.75,-123.55 472.71,-130.27"/>
</g>
<!-- f_4_3382004456 -->
<g id="node28" class="node">
<title>f_4_3382004456</title>
<polygon fill="#1b9e77" stroke="black" points="247.5,-52 50.5,-52 50.5,-16 247.5,-16 247.5,-52"/>
<text text-anchor="middle" x="149" y="-30.3" font-family="Times,serif" font-size="14.00">fn_client_extensions_new</text>
</g>
<!-- f_4_4105392615&#45;&gt;f_4_3382004456 -->
<g id="edge27" class="edge">
<title>f_4_4105392615&#45;&gt;f_4_3382004456</title>
<path fill="none" stroke="black" d="M250.22,-87.88C232.37,-78.55 210.1,-66.92 191,-56.94"/>
<polygon fill="black" stroke="black" points="192.39,-53.72 181.91,-52.19 189.15,-59.92 192.39,-53.72"/>
</g>
<!-- f_4_2683564946 -->
<g id="node29" class="node">
<title>f_4_2683564946</title>
<polygon fill="#1b9e77" stroke="black" points="564.5,-52 265.5,-52 265.5,-16 564.5,-16 564.5,-52"/>
<text text-anchor="middle" x="415" y="-30.3" font-family="Times,serif" font-size="14.00">fn_secp384r1_support_group_extension</text>
</g>
<!-- f_4_4105392615&#45;&gt;f_4_2683564946 -->
<g id="edge28" class="edge">
<title>f_4_4105392615&#45;&gt;f_4_2683564946</title>
<path fill="none" stroke="black" d="M315.29,-87.88C332.87,-78.55 354.81,-66.92 373.63,-56.94"/>
<polygon fill="black" stroke="black" points="375.39,-59.97 382.59,-52.19 372.11,-53.78 375.39,-59.97"/>
</g>
<!-- f_4_4183499798 -->
<g id="node34" class="node">
<title>f_4_4183499798</title>
<polygon fill="#1b9e77" stroke="black" points="876.5,-268 717.5,-268 717.5,-232 876.5,-232 876.5,-268"/>
<text text-anchor="middle" x="797" y="-246.3" font-family="Times,serif" font-size="14.00">fn_empty_bytes_vec</text>
</g>
<!-- f_4_968496986&#45;&gt;f_4_4183499798 -->
<g id="edge33" class="edge">
<title>f_4_968496986&#45;&gt;f_4_4183499798</title>
<path fill="none" stroke="black" d="M797,-303.7C797,-295.98 797,-286.71 797,-278.11"/>
<polygon fill="black" stroke="black" points="800.5,-278.1 797,-268.1 793.5,-278.1 800.5,-278.1"/>
</g>
<!-- f_4_1706409094 -->
<g id="node41" class="node">
<title>f_4_1706409094</title>
<polygon fill="#d95f02" stroke="black" points="802.5,-844 659.5,-844 659.5,-808 802.5,-808 802.5,-844"/>
<text text-anchor="middle" x="731" y="-822.3" font-family="Times,serif" font-size="14.00">fn_new_pubkey12</text>
</g>
<!-- f_4_3952195210&#45;&gt;f_4_1706409094 -->
<g id="edge40" class="edge">
<title>f_4_3952195210&#45;&gt;f_4_1706409094</title>
<path fill="none" stroke="black" d="M731,-879.7C731,-871.98 731,-862.71 731,-854.11"/>
<polygon fill="black" stroke="black" points="734.5,-854.1 731,-844.1 727.5,-854.1 734.5,-854.1"/>
</g>
<!-- f_4_1815741702 -->
<g id="node42" class="node">
<title>f_4_1815741702</title>
<polygon fill="#d95f02" stroke="black" points="825,-772 637,-772 637,-736 825,-736 825,-772"/>
<text text-anchor="middle" x="731" y="-750.3" font-family="Times,serif" font-size="14.00">fn_decode_ecdh_params</text>
</g>
<!-- f_4_1706409094&#45;&gt;f_4_1815741702 -->
<g id="edge41" class="edge">
<title>f_4_1706409094&#45;&gt;f_4_1815741702</title>
<path fill="none" stroke="black" d="M731,-807.7C731,-799.98 731,-790.71 731,-782.11"/>
<polygon fill="black" stroke="black" points="734.5,-782.1 731,-772.1 727.5,-782.1 734.5,-782.1"/>
</g>
<!-- v_4_439538850 -->
<g id="node43" class="node">
<title>v_4_439538850</title>
<ellipse fill="#1b9e77" stroke="black" cx="731" cy="-682" rx="78.79" ry="18"/>
<text text-anchor="middle" x="731" y="-678.3" font-family="Times,serif" font-size="14.00">(0,2)/Vec&lt;u8&gt;</text>
</g>
<!-- f_4_1815741702&#45;&gt;v_4_439538850 -->
<g id="edge42" class="edge">
<title>f_4_1815741702&#45;&gt;v_4_439538850</title>
<path fill="none" stroke="black" d="M731,-735.7C731,-727.98 731,-718.71 731,-710.11"/>
<polygon fill="black" stroke="black" points="734.5,-710.1 731,-700.1 727.5,-710.1 734.5,-710.1"/>
</g>
<!-- v_4_2626561442 -->
<g id="node46" class="node">
<title>v_4_2626561442</title>
<ellipse fill="#1b9e77" stroke="black" cx="673" cy="-1042" rx="78.79" ry="18"/>
<text text-anchor="middle" x="673" y="-1038.3" font-family="Times,serif" font-size="14.00">(0,2)/Vec&lt;u8&gt;</text>
</g>
<!-- f_4_1634648318&#45;&gt;v_4_2626561442 -->
<g id="edge45" class="edge">
<title>f_4_1634648318&#45;&gt;v_4_2626561442</title>
<path fill="none" stroke="black" d="M673,-1095.7C673,-1087.98 673,-1078.71 673,-1070.11"/>
<polygon fill="black" stroke="black" points="676.5,-1070.1 673,-1060.1 669.5,-1070.1 676.5,-1070.1"/>
</g>
</g>
</svg>
