<?xml version="1.0" encoding="UTF-8" standalone="no"?>
<!DOCTYPE svg PUBLIC "-//W3C//DTD SVG 1.1//EN"
 "http://www.w3.org/Graphics/SVG/1.1/DTD/svg11.dtd">
<!-- Generated by graphviz version 2.48.0 (0)
 -->
<!-- Title: Trace Pages: 1 -->
<svg width="3334pt" height="1251pt"
 viewBox="0.00 0.00 3334.00 1251.00" xmlns="http://www.w3.org/2000/svg" xmlns:xlink="http://www.w3.org/1999/xlink">
<g id="graph0" class="graph" transform="scale(1 1) rotate(0) translate(4 1247)">
<title>Trace</title>
<polygon fill="white" stroke="transparent" points="-4,4 -4,-1247 3330,-1247 3330,4 -4,4"/>
<g id="clust1" class="cluster">
<title>cluster0</title>
<polygon fill="none" stroke="black" points="8,-656 8,-1235 1102,-1235 1102,-656 8,-656"/>
<text text-anchor="middle" x="555" y="-1219.8" font-family="Times,serif" font-size="14.00">Step #0 (Agent &#160;0)</text>
</g>
<g id="clust2" class="cluster">
<title>cluster1</title>
<polygon fill="none" stroke="black" points="1110,-944 1110,-1235 1744,-1235 1744,-944 1110,-944"/>
<text text-anchor="middle" x="1427" y="-1219.8" font-family="Times,serif" font-size="14.00">Step #1 (Agent &#160;0)</text>
</g>
<g id="clust3" class="cluster">
<title>cluster2</title>
<polygon fill="none" stroke="black" points="1752,-1160 1752,-1235 1948,-1235 1948,-1160 1752,-1160"/>
<text text-anchor="middle" x="1850" y="-1219.8" font-family="Times,serif" font-size="14.00">Step #2 (Agent &#160;0)</text>
</g>
<g id="clust4" class="cluster">
<title>cluster3</title>
<polygon fill="none" stroke="black" points="1956,-8 1956,-1235 3318,-1235 3318,-8 1956,-8"/>
<text text-anchor="middle" x="2637" y="-1219.8" font-family="Times,serif" font-size="14.00">Step #3 (Agent &#160;0)</text>
</g>
<!-- f_0_4056939166 -->
<g id="node1" class="node">
<title>f_0_4056939166</title>
<polygon fill="#d95f02" stroke="black" points="577.5,-1204 458.5,-1204 458.5,-1168 577.5,-1168 577.5,-1204"/>
<text text-anchor="middle" x="518" y="-1182.3" font-family="Times,serif" font-size="14.00">fn_client_hello</text>
</g>
<!-- f_0_691467019 -->
<g id="node2" class="node">
<title>f_0_691467019</title>
<polygon fill="#1b9e77" stroke="black" points="189.5,-1132 16.5,-1132 16.5,-1096 189.5,-1096 189.5,-1132"/>
<text text-anchor="middle" x="103" y="-1110.3" font-family="Times,serif" font-size="14.00">fn_protocol_version12</text>
</g>
<!-- f_0_4056939166&#45;&gt;f_0_691467019 -->
<g id="edge1" class="edge">
<title>f_0_4056939166&#45;&gt;f_0_691467019</title>
<path fill="none" stroke="black" d="M458.29,-1175.27C396.31,-1165.13 296.25,-1148.64 199.55,-1132.08"/>
<polygon fill="black" stroke="black" points="200.05,-1128.62 189.6,-1130.38 198.86,-1135.52 200.05,-1128.62"/>
</g>
<!-- f_0_1651566142 -->
<g id="node3" class="node">
<title>f_0_1651566142</title>
<polygon fill="#1b9e77" stroke="black" points="336,-1132 208,-1132 208,-1096 336,-1096 336,-1132"/>
<text text-anchor="middle" x="272" y="-1110.3" font-family="Times,serif" font-size="14.00">fn_new_random</text>
</g>
<!-- f_0_4056939166&#45;&gt;f_0_1651566142 -->
<g id="edge2" class="edge">
<title>f_0_4056939166&#45;&gt;f_0_1651566142</title>
<path fill="none" stroke="black" d="M458.45,-1168.05C423.21,-1158.03 378.39,-1145.27 341.53,-1134.79"/>
<polygon fill="black" stroke="black" points="342.43,-1131.4 331.85,-1132.03 340.51,-1138.13 342.43,-1131.4"/>
</g>
<!-- f_0_1107166958 -->
<g id="node4" class="node">
<title>f_0_1107166958</title>
<polygon fill="#1b9e77" stroke="black" points="500,-1132 354,-1132 354,-1096 500,-1096 500,-1132"/>
<text text-anchor="middle" x="427" y="-1110.3" font-family="Times,serif" font-size="14.00">fn_new_session_id</text>
</g>
<!-- f_0_4056939166&#45;&gt;f_0_1107166958 -->
<g id="edge3" class="edge">
<title>f_0_4056939166&#45;&gt;f_0_1107166958</title>
<path fill="none" stroke="black" d="M495.51,-1167.7C484.04,-1158.88 469.94,-1148.03 457.52,-1138.47"/>
<polygon fill="black" stroke="black" points="459.3,-1135.43 449.24,-1132.1 455.03,-1140.98 459.3,-1135.43"/>
</g>
<!-- f_0_3180819577 -->
<g id="node5" class="node">
<title>f_0_3180819577</title>
<polygon fill="#d95f02" stroke="black" points="702,-1132 518,-1132 518,-1096 702,-1096 702,-1132"/>
<text text-anchor="middle" x="610" y="-1110.3" font-family="Times,serif" font-size="14.00">fn_append_cipher_suite</text>
</g>
<!-- f_0_4056939166&#45;&gt;f_0_3180819577 -->
<g id="edge4" class="edge">
<title>f_0_4056939166&#45;&gt;f_0_3180819577</title>
<path fill="none" stroke="black" d="M540.74,-1167.7C552.44,-1158.8 566.86,-1147.82 579.51,-1138.2"/>
<polygon fill="black" stroke="black" points="581.68,-1140.94 587.52,-1132.1 577.44,-1135.37 581.68,-1140.94"/>
</g>
<!-- f_0_3323791058 -->
<g id="node8" class="node">
<title>f_0_3323791058</title>
<polygon fill="#1b9e77" stroke="black" points="855.5,-1132 720.5,-1132 720.5,-1096 855.5,-1096 855.5,-1132"/>
<text text-anchor="middle" x="788" y="-1110.3" font-family="Times,serif" font-size="14.00">fn_compressions</text>
</g>
<!-- f_0_4056939166&#45;&gt;f_0_3323791058 -->
<g id="edge7" class="edge">
<title>f_0_4056939166&#45;&gt;f_0_3323791058</title>
<path fill="none" stroke="black" d="M577.59,-1169.55C617.35,-1159.24 669.97,-1145.6 712.64,-1134.54"/>
<polygon fill="black" stroke="black" points="713.62,-1137.9 722.42,-1132 711.86,-1131.12 713.62,-1137.9"/>
</g>
<!-- f_0_2924157938 -->
<g id="node9" class="node">
<title>f_0_2924157938</title>
<polygon fill="#d95f02" stroke="black" points="1094,-1132 874,-1132 874,-1096 1094,-1096 1094,-1132"/>
<text text-anchor="middle" x="984" y="-1110.3" font-family="Times,serif" font-size="14.00">fn_client_extensions_append</text>
</g>
<!-- f_0_4056939166&#45;&gt;f_0_2924157938 -->
<g id="edge8" class="edge">
<title>f_0_4056939166&#45;&gt;f_0_2924157938</title>
<path fill="none" stroke="black" d="M577.97,-1175.99C649.95,-1165.18 772.41,-1146.78 864.06,-1133.02"/>
<polygon fill="black" stroke="black" points="864.59,-1136.48 873.96,-1131.53 863.55,-1129.55 864.59,-1136.48"/>
</g>
<!-- f_0_2777092338 -->
<g id="node6" class="node">
<title>f_0_2777092338</title>
<polygon fill="#1b9e77" stroke="black" points="382,-1060 214,-1060 214,-1024 382,-1024 382,-1060"/>
<text text-anchor="middle" x="298" y="-1038.3" font-family="Times,serif" font-size="14.00">fn_new_cipher_suites</text>
</g>
<!-- f_0_3180819577&#45;&gt;f_0_2777092338 -->
<g id="edge5" class="edge">
<title>f_0_3180819577&#45;&gt;f_0_2777092338</title>
<path fill="none" stroke="black" d="M534.08,-1095.97C488.69,-1085.78 430.9,-1072.82 383.86,-1062.26"/>
<polygon fill="black" stroke="black" points="384.52,-1058.82 373.99,-1060.05 382.99,-1065.65 384.52,-1058.82"/>
</g>
<!-- f_0_368879269 -->
<g id="node7" class="node">
<title>f_0_368879269</title>
<polygon fill="#1b9e77" stroke="black" points="543.5,-1060 400.5,-1060 400.5,-1024 543.5,-1024 543.5,-1060"/>
<text text-anchor="middle" x="472" y="-1038.3" font-family="Times,serif" font-size="14.00">fn_cipher_suite12</text>
</g>
<!-- f_0_3180819577&#45;&gt;f_0_368879269 -->
<g id="edge6" class="edge">
<title>f_0_3180819577&#45;&gt;f_0_368879269</title>
<path fill="none" stroke="black" d="M576.24,-1095.88C557.78,-1086.51 534.72,-1074.81 514.98,-1064.8"/>
<polygon fill="black" stroke="black" points="516.39,-1061.59 505.89,-1060.19 513.22,-1067.83 516.39,-1061.59"/>
</g>
<!-- f_0_4192298484 -->
<g id="node10" class="node">
<title>f_0_4192298484</title>
<polygon fill="#d95f02" stroke="black" points="782,-1060 562,-1060 562,-1024 782,-1024 782,-1060"/>
<text text-anchor="middle" x="672" y="-1038.3" font-family="Times,serif" font-size="14.00">fn_client_extensions_append</text>
</g>
<!-- f_0_2924157938&#45;&gt;f_0_4192298484 -->
<g id="edge9" class="edge">
<title>f_0_2924157938&#45;&gt;f_0_4192298484</title>
<path fill="none" stroke="black" d="M908.08,-1095.97C862.69,-1085.78 804.9,-1072.82 757.86,-1062.26"/>
<polygon fill="black" stroke="black" points="758.52,-1058.82 747.99,-1060.05 756.99,-1065.65 758.52,-1058.82"/>
</g>
<!-- f_0_1287791559 -->
<g id="node22" class="node">
<title>f_0_1287791559</title>
<polygon fill="#1b9e77" stroke="black" points="1093.5,-1060 800.5,-1060 800.5,-1024 1093.5,-1024 1093.5,-1060"/>
<text text-anchor="middle" x="947" y="-1038.3" font-family="Times,serif" font-size="14.00">fn_signature_algorithm_cert_extension</text>
</g>
<!-- f_0_2924157938&#45;&gt;f_0_1287791559 -->
<g id="edge21" class="edge">
<title>f_0_2924157938&#45;&gt;f_0_1287791559</title>
<path fill="none" stroke="black" d="M974.85,-1095.7C970.6,-1087.64 965.44,-1077.89 960.73,-1068.98"/>
<polygon fill="black" stroke="black" points="963.81,-1067.31 956.04,-1060.1 957.62,-1070.58 963.81,-1067.31"/>
</g>
<!-- f_0_810334014 -->
<g id="node11" class="node">
<title>f_0_810334014</title>
<polygon fill="#d95f02" stroke="black" points="531,-988 311,-988 311,-952 531,-952 531,-988"/>
<text text-anchor="middle" x="421" y="-966.3" font-family="Times,serif" font-size="14.00">fn_client_extensions_append</text>
</g>
<!-- f_0_4192298484&#45;&gt;f_0_810334014 -->
<g id="edge10" class="edge">
<title>f_0_4192298484&#45;&gt;f_0_810334014</title>
<path fill="none" stroke="black" d="M610.92,-1023.97C575.09,-1013.97 529.64,-1001.3 492.19,-990.85"/>
<polygon fill="black" stroke="black" points="492.93,-987.43 482.35,-988.11 491.05,-994.17 492.93,-987.43"/>
</g>
<!-- f_0_3358811160 -->
<g id="node20" class="node">
<title>f_0_3358811160</title>
<polygon fill="#d95f02" stroke="black" points="797.5,-988 554.5,-988 554.5,-952 797.5,-952 797.5,-988"/>
<text text-anchor="middle" x="676" y="-966.3" font-family="Times,serif" font-size="14.00">fn_renegotiation_info_extension</text>
</g>
<!-- f_0_4192298484&#45;&gt;f_0_3358811160 -->
<g id="edge19" class="edge">
<title>f_0_4192298484&#45;&gt;f_0_3358811160</title>
<path fill="none" stroke="black" d="M672.99,-1023.7C673.43,-1015.98 673.96,-1006.71 674.45,-998.11"/>
<polygon fill="black" stroke="black" points="677.95,-998.29 675.02,-988.1 670.96,-997.89 677.95,-998.29"/>
</g>
<!-- f_0_3906737958 -->
<g id="node12" class="node">
<title>f_0_3906737958</title>
<polygon fill="#d95f02" stroke="black" points="241,-916 21,-916 21,-880 241,-880 241,-916"/>
<text text-anchor="middle" x="131" y="-894.3" font-family="Times,serif" font-size="14.00">fn_client_extensions_append</text>
</g>
<!-- f_0_810334014&#45;&gt;f_0_3906737958 -->
<g id="edge11" class="edge">
<title>f_0_810334014&#45;&gt;f_0_3906737958</title>
<path fill="none" stroke="black" d="M350.43,-951.97C308.51,-941.85 255.21,-928.98 211.63,-918.46"/>
<polygon fill="black" stroke="black" points="212.18,-914.99 201.64,-916.05 210.54,-921.8 212.18,-914.99"/>
</g>
<!-- f_0_2787585604 -->
<g id="node19" class="node">
<title>f_0_2787585604</title>
<polygon fill="#1b9e77" stroke="black" points="582.5,-916 259.5,-916 259.5,-880 582.5,-880 582.5,-916"/>
<text text-anchor="middle" x="421" y="-894.3" font-family="Times,serif" font-size="14.00">fn_signed_certificate_timestamp_extension</text>
</g>
<!-- f_0_810334014&#45;&gt;f_0_2787585604 -->
<g id="edge18" class="edge">
<title>f_0_810334014&#45;&gt;f_0_2787585604</title>
<path fill="none" stroke="black" d="M421,-951.7C421,-943.98 421,-934.71 421,-926.11"/>
<polygon fill="black" stroke="black" points="424.5,-926.1 421,-916.1 417.5,-926.1 424.5,-926.1"/>
</g>
<!-- f_0_3080313745 -->
<g id="node13" class="node">
<title>f_0_3080313745</title>
<polygon fill="#d95f02" stroke="black" points="240,-844 20,-844 20,-808 240,-808 240,-844"/>
<text text-anchor="middle" x="130" y="-822.3" font-family="Times,serif" font-size="14.00">fn_client_extensions_append</text>
</g>
<!-- f_0_3906737958&#45;&gt;f_0_3080313745 -->
<g id="edge12" class="edge">
<title>f_0_3906737958&#45;&gt;f_0_3080313745</title>
<path fill="none" stroke="black" d="M130.75,-879.7C130.64,-871.98 130.51,-862.71 130.39,-854.11"/>
<polygon fill="black" stroke="black" points="133.89,-854.05 130.24,-844.1 126.89,-854.15 133.89,-854.05"/>
</g>
<!-- f_0_4058656977 -->
<g id="node18" class="node">
<title>f_0_4058656977</title>
<polygon fill="#1b9e77" stroke="black" points="493.5,-844 258.5,-844 258.5,-808 493.5,-808 493.5,-844"/>
<text text-anchor="middle" x="376" y="-822.3" font-family="Times,serif" font-size="14.00">fn_ec_point_formats_extension</text>
</g>
<!-- f_0_3906737958&#45;&gt;f_0_4058656977 -->
<g id="edge17" class="edge">
<title>f_0_3906737958&#45;&gt;f_0_4058656977</title>
<path fill="none" stroke="black" d="M190.62,-879.97C225.45,-870.01 269.58,-857.41 306.04,-846.99"/>
<polygon fill="black" stroke="black" points="307.46,-850.22 316.11,-844.11 305.54,-843.49 307.46,-850.22"/>
</g>
<!-- f_0_2802141545 -->
<g id="node14" class="node">
<title>f_0_2802141545</title>
<polygon fill="#d95f02" stroke="black" points="239,-772 19,-772 19,-736 239,-736 239,-772"/>
<text text-anchor="middle" x="129" y="-750.3" font-family="Times,serif" font-size="14.00">fn_client_extensions_append</text>
</g>
<!-- f_0_3080313745&#45;&gt;f_0_2802141545 -->
<g id="edge13" class="edge">
<title>f_0_3080313745&#45;&gt;f_0_2802141545</title>
<path fill="none" stroke="black" d="M129.75,-807.7C129.64,-799.98 129.51,-790.71 129.39,-782.11"/>
<polygon fill="black" stroke="black" points="132.89,-782.05 129.24,-772.1 125.89,-782.15 132.89,-782.05"/>
</g>
<!-- f_0_1650904801 -->
<g id="node17" class="node">
<title>f_0_1650904801</title>
<polygon fill="#1b9e77" stroke="black" points="515,-772 257,-772 257,-736 515,-736 515,-772"/>
<text text-anchor="middle" x="386" y="-750.3" font-family="Times,serif" font-size="14.00">fn_signature_algorithm_extension</text>
</g>
<!-- f_0_3080313745&#45;&gt;f_0_1650904801 -->
<g id="edge16" class="edge">
<title>f_0_3080313745&#45;&gt;f_0_1650904801</title>
<path fill="none" stroke="black" d="M192.3,-807.97C228.84,-797.97 275.19,-785.3 313.39,-774.85"/>
<polygon fill="black" stroke="black" points="314.7,-778.12 323.42,-772.11 312.85,-771.37 314.7,-778.12"/>
</g>
<!-- f_0_3017259595 -->
<g id="node15" class="node">
<title>f_0_3017259595</title>
<polygon fill="#1b9e77" stroke="black" points="220.5,-700 23.5,-700 23.5,-664 220.5,-664 220.5,-700"/>
<text text-anchor="middle" x="122" y="-678.3" font-family="Times,serif" font-size="14.00">fn_client_extensions_new</text>
</g>
<!-- f_0_2802141545&#45;&gt;f_0_3017259595 -->
<g id="edge14" class="edge">
<title>f_0_2802141545&#45;&gt;f_0_3017259595</title>
<path fill="none" stroke="black" d="M127.27,-735.7C126.5,-727.98 125.57,-718.71 124.71,-710.11"/>
<polygon fill="black" stroke="black" points="128.19,-709.71 123.71,-700.1 121.22,-710.4 128.19,-709.71"/>
</g>
<!-- f_0_1970188133 -->
<g id="node16" class="node">
<title>f_0_1970188133</title>
<polygon fill="#1b9e77" stroke="black" points="537.5,-700 238.5,-700 238.5,-664 537.5,-664 537.5,-700"/>
<text text-anchor="middle" x="388" y="-678.3" font-family="Times,serif" font-size="14.00">fn_secp384r1_support_group_extension</text>
</g>
<!-- f_0_2802141545&#45;&gt;f_0_1970188133 -->
<g id="edge15" class="edge">
<title>f_0_2802141545&#45;&gt;f_0_1970188133</title>
<path fill="none" stroke="black" d="M192.03,-735.97C229.16,-725.93 276.3,-713.19 315.03,-702.72"/>
<polygon fill="black" stroke="black" points="315.95,-706.1 324.69,-700.11 314.12,-699.34 315.95,-706.1"/>
</g>
<!-- f_0_2084824484 -->
<g id="node21" class="node">
<title>f_0_2084824484</title>
<polygon fill="#1b9e77" stroke="black" points="759.5,-916 600.5,-916 600.5,-880 759.5,-880 759.5,-916"/>
<text text-anchor="middle" x="680" y="-894.3" font-family="Times,serif" font-size="14.00">fn_empty_bytes_vec</text>
</g>
<!-- f_0_3358811160&#45;&gt;f_0_2084824484 -->
<g id="edge20" class="edge">
<title>f_0_3358811160&#45;&gt;f_0_2084824484</title>
<path fill="none" stroke="black" d="M676.99,-951.7C677.43,-943.98 677.96,-934.71 678.45,-926.11"/>
<polygon fill="black" stroke="black" points="681.95,-926.29 679.02,-916.1 674.96,-925.89 681.95,-926.29"/>
</g>
<!-- f_1_2615484179 -->
<g id="node23" class="node">
<title>f_1_2615484179</title>
<polygon fill="#d95f02" stroke="black" points="1518.5,-1204 1335.5,-1204 1335.5,-1168 1518.5,-1168 1518.5,-1204"/>
<text text-anchor="middle" x="1427" y="-1182.3" font-family="Times,serif" font-size="14.00">fn_client_key_exchange</text>
</g>
<!-- f_1_2300873380 -->
<g id="node24" class="node">
<title>f_1_2300873380</title>
<polygon fill="#d95f02" stroke="black" points="1498.5,-1132 1355.5,-1132 1355.5,-1096 1498.5,-1096 1498.5,-1132"/>
<text text-anchor="middle" x="1427" y="-1110.3" font-family="Times,serif" font-size="14.00">fn_new_pubkey12</text>
</g>
<!-- f_1_2615484179&#45;&gt;f_1_2300873380 -->
<g id="edge22" class="edge">
<title>f_1_2615484179&#45;&gt;f_1_2300873380</title>
<path fill="none" stroke="black" d="M1427,-1167.7C1427,-1159.98 1427,-1150.71 1427,-1142.11"/>
<polygon fill="black" stroke="black" points="1430.5,-1142.1 1427,-1132.1 1423.5,-1142.1 1430.5,-1142.1"/>
</g>
<!-- f_1_1785736590 -->
<g id="node25" class="node">
<title>f_1_1785736590</title>
<polygon fill="#d95f02" stroke="black" points="1521,-1060 1333,-1060 1333,-1024 1521,-1024 1521,-1060"/>
<text text-anchor="middle" x="1427" y="-1038.3" font-family="Times,serif" font-size="14.00">fn_decode_ecdh_params</text>
</g>
<!-- f_1_2300873380&#45;&gt;f_1_1785736590 -->
<g id="edge23" class="edge">
<title>f_1_2300873380&#45;&gt;f_1_1785736590</title>
<path fill="none" stroke="black" d="M1427,-1095.7C1427,-1087.98 1427,-1078.71 1427,-1070.11"/>
<polygon fill="black" stroke="black" points="1430.5,-1070.1 1427,-1060.1 1423.5,-1070.1 1430.5,-1070.1"/>
</g>
<!-- v_1_3824358577 -->
<g id="node26" class="node">
<title>v_1_3824358577</title>
<ellipse fill="#1b9e77" stroke="black" cx="1427" cy="-970" rx="309.25" ry="18"/>
<text text-anchor="middle" x="1427" y="-966.3" font-family="Times,serif" font-size="14.00">[(0, 0)/Some(Handshake(Some(ServerKeyExchange)))]/Vec&lt;u8&gt;</text>
</g>
<!-- f_1_1785736590&#45;&gt;v_1_3824358577 -->
<g id="edge24" class="edge">
<title>f_1_1785736590&#45;&gt;v_1_3824358577</title>
<path fill="none" stroke="black" d="M1427,-1023.7C1427,-1015.98 1427,-1006.71 1427,-998.11"/>
<polygon fill="black" stroke="black" points="1430.5,-998.1 1427,-988.1 1423.5,-998.1 1430.5,-998.1"/>
</g>
<!-- f_2_2062292445 -->
<g id="node27" class="node">
<title>f_2_2062292445</title>
<polygon fill="#1b9e77" stroke="black" points="1939.5,-1204 1760.5,-1204 1760.5,-1168 1939.5,-1168 1939.5,-1204"/>
<text text-anchor="middle" x="1850" y="-1182.3" font-family="Times,serif" font-size="14.00">fn_change_cipher_spec</text>
</g>
<!-- f_3_2227812161 -->
<g id="node28" class="node">
<title>f_3_2227812161</title>
<polygon fill="#d95f02" stroke="black" points="2913,-1204 2803,-1204 2803,-1168 2913,-1168 2913,-1204"/>
<text text-anchor="middle" x="2858" y="-1182.3" font-family="Times,serif" font-size="14.00">fn_encrypt12</text>
</g>
<!-- f_3_2447144226 -->
<g id="node29" class="node">
<title>f_3_2447144226</title>
<polygon fill="#d95f02" stroke="black" points="2482.5,-1132 2387.5,-1132 2387.5,-1096 2482.5,-1096 2482.5,-1132"/>
<text text-anchor="middle" x="2435" y="-1110.3" font-family="Times,serif" font-size="14.00">fn_finished</text>
</g>
<!-- f_3_2227812161&#45;&gt;f_3_2447144226 -->
<g id="edge25" class="edge">
<title>f_3_2227812161&#45;&gt;f_3_2447144226</title>
<path fill="none" stroke="black" d="M2802.98,-1179.57C2733.01,-1172.1 2608.41,-1156.92 2492.84,-1132"/>
<polygon fill="black" stroke="black" points="2493.28,-1128.51 2482.76,-1129.8 2491.78,-1135.35 2493.28,-1128.51"/>
</g>
<!-- v_3_3766747859 -->
<g id="node71" class="node">
<title>v_3_3766747859</title>
<ellipse fill="#1b9e77" stroke="black" cx="2702" cy="-1114" rx="201.46" ry="18"/>
<text text-anchor="middle" x="2702" y="-1110.3" font-family="Times,serif" font-size="14.00">[(0, 0)/Some(Handshake(None))]/Random</text>
</g>
<!-- f_3_2227812161&#45;&gt;v_3_3766747859 -->
<g id="edge67" class="edge">
<title>f_3_2227812161&#45;&gt;v_3_3766747859</title>
<path fill="none" stroke="black" d="M2819.84,-1167.88C2798.27,-1158.2 2771.16,-1146.03 2748.37,-1135.81"/>
<polygon fill="black" stroke="black" points="2749.79,-1132.61 2739.23,-1131.71 2746.92,-1138.99 2749.79,-1132.61"/>
</g>
<!-- f_3_1464761120 -->
<g id="node72" class="node">
<title>f_3_1464761120</title>
<polygon fill="#d95f02" stroke="black" points="3109,-1132 2921,-1132 2921,-1096 3109,-1096 3109,-1132"/>
<text text-anchor="middle" x="3015" y="-1110.3" font-family="Times,serif" font-size="14.00">fn_decode_ecdh_params</text>
</g>
<!-- f_3_2227812161&#45;&gt;f_3_1464761120 -->
<g id="edge68" class="edge">
<title>f_3_2227812161&#45;&gt;f_3_1464761120</title>
<path fill="none" stroke="black" d="M2896.41,-1167.88C2917.87,-1158.31 2944.8,-1146.3 2967.57,-1136.15"/>
<polygon fill="black" stroke="black" points="2969.01,-1139.34 2976.72,-1132.07 2966.16,-1132.94 2969.01,-1139.34"/>
</g>
<!-- f_3_971584766 -->
<g id="node74" class="node">
<title>f_3_971584766</title>
<polygon fill="#1b9e77" stroke="black" points="3205,-1132 3127,-1132 3127,-1096 3205,-1096 3205,-1132"/>
<text text-anchor="middle" x="3166" y="-1110.3" font-family="Times,serif" font-size="14.00">fn_seq_0</text>
</g>
<!-- f_3_2227812161&#45;&gt;f_3_971584766 -->
<g id="edge70" class="edge">
<title>f_3_2227812161&#45;&gt;f_3_971584766</title>
<path fill="none" stroke="black" d="M2913.06,-1176.07C2963.87,-1167.32 3041.51,-1152.64 3117.16,-1132.04"/>
<polygon fill="black" stroke="black" points="3118.14,-1135.4 3126.85,-1129.37 3116.28,-1128.65 3118.14,-1135.4"/>
</g>
<!-- f_3_2426886555 -->
<g id="node30" class="node">
<title>f_3_2426886555</title>
<polygon fill="#d95f02" stroke="black" points="2536,-1060 2390,-1060 2390,-1024 2536,-1024 2536,-1060"/>
<text text-anchor="middle" x="2463" y="-1038.3" font-family="Times,serif" font-size="14.00">fn_sign_transcript</text>
</g>
<!-- f_3_2447144226&#45;&gt;f_3_2426886555 -->
<g id="edge26" class="edge">
<title>f_3_2447144226&#45;&gt;f_3_2426886555</title>
<path fill="none" stroke="black" d="M2441.92,-1095.7C2445.07,-1087.81 2448.88,-1078.3 2452.38,-1069.55"/>
<polygon fill="black" stroke="black" points="2455.69,-1070.69 2456.16,-1060.1 2449.19,-1068.09 2455.69,-1070.69"/>
</g>
<!-- v_3_465895338 -->
<g id="node31" class="node">
<title>v_3_465895338</title>
<ellipse fill="#1b9e77" stroke="black" cx="2165" cy="-970" rx="201.46" ry="18"/>
<text text-anchor="middle" x="2165" y="-966.3" font-family="Times,serif" font-size="14.00">[(0, 0)/Some(Handshake(None))]/Random</text>
</g>
<!-- f_3_2426886555&#45;&gt;v_3_465895338 -->
<g id="edge27" class="edge">
<title>f_3_2426886555&#45;&gt;v_3_465895338</title>
<path fill="none" stroke="black" d="M2390.48,-1023.97C2345.78,-1013.47 2288.48,-1000.01 2242.83,-989.28"/>
<polygon fill="black" stroke="black" points="2243.51,-985.85 2232.98,-986.97 2241.91,-992.66 2243.51,-985.85"/>
</g>
<!-- f_3_3701803598 -->
<g id="node32" class="node">
<title>f_3_3701803598</title>
<polygon fill="#d95f02" stroke="black" points="2572,-988 2384,-988 2384,-952 2572,-952 2572,-988"/>
<text text-anchor="middle" x="2478" y="-966.3" font-family="Times,serif" font-size="14.00">fn_decode_ecdh_params</text>
</g>
<!-- f_3_2426886555&#45;&gt;f_3_3701803598 -->
<g id="edge28" class="edge">
<title>f_3_2426886555&#45;&gt;f_3_3701803598</title>
<path fill="none" stroke="black" d="M2466.71,-1023.7C2468.36,-1015.98 2470.35,-1006.71 2472.19,-998.11"/>
<polygon fill="black" stroke="black" points="2475.66,-998.62 2474.33,-988.1 2468.82,-997.15 2475.66,-998.62"/>
</g>
<!-- f_3_483124311 -->
<g id="node34" class="node">
<title>f_3_483124311</title>
<polygon fill="#d95f02" stroke="black" points="2768,-988 2600,-988 2600,-952 2768,-952 2768,-988"/>
<text text-anchor="middle" x="2684" y="-966.3" font-family="Times,serif" font-size="14.00">fn_append_transcript</text>
</g>
<!-- f_3_2426886555&#45;&gt;f_3_483124311 -->
<g id="edge30" class="edge">
<title>f_3_2426886555&#45;&gt;f_3_483124311</title>
<path fill="none" stroke="black" d="M2516.78,-1023.97C2547.93,-1014.1 2587.32,-1001.62 2620.05,-991.25"/>
<polygon fill="black" stroke="black" points="2621.5,-994.47 2629.98,-988.11 2619.39,-987.79 2621.5,-994.47"/>
</g>
<!-- v_3_3633532490 -->
<g id="node33" class="node">
<title>v_3_3633532490</title>
<ellipse fill="#1b9e77" stroke="black" cx="2273" cy="-898" rx="309.25" ry="18"/>
<text text-anchor="middle" x="2273" y="-894.3" font-family="Times,serif" font-size="14.00">[(0, 0)/Some(Handshake(Some(ServerKeyExchange)))]/Vec&lt;u8&gt;</text>
</g>
<!-- f_3_3701803598&#45;&gt;v_3_3633532490 -->
<g id="edge29" class="edge">
<title>f_3_3701803598&#45;&gt;v_3_3633532490</title>
<path fill="none" stroke="black" d="M2428.11,-951.97C2399.13,-942.07 2362.45,-929.54 2332.04,-919.16"/>
<polygon fill="black" stroke="black" points="2332.99,-915.79 2322.4,-915.87 2330.73,-922.41 2332.99,-915.79"/>
</g>
<!-- f_3_3774482312 -->
<g id="node35" class="node">
<title>f_3_3774482312</title>
<polygon fill="#d95f02" stroke="black" points="2768,-916 2600,-916 2600,-880 2768,-880 2768,-916"/>
<text text-anchor="middle" x="2684" y="-894.3" font-family="Times,serif" font-size="14.00">fn_append_transcript</text>
</g>
<!-- f_3_483124311&#45;&gt;f_3_3774482312 -->
<g id="edge31" class="edge">
<title>f_3_483124311&#45;&gt;f_3_3774482312</title>
<path fill="none" stroke="black" d="M2684,-951.7C2684,-943.98 2684,-934.71 2684,-926.11"/>
<polygon fill="black" stroke="black" points="2687.5,-926.1 2684,-916.1 2680.5,-926.1 2687.5,-926.1"/>
</g>
<!-- f_3_2575941269 -->
<g id="node67" class="node">
<title>f_3_2575941269</title>
<polygon fill="#d95f02" stroke="black" points="3055.5,-916 2872.5,-916 2872.5,-880 3055.5,-880 3055.5,-916"/>
<text text-anchor="middle" x="2964" y="-894.3" font-family="Times,serif" font-size="14.00">fn_client_key_exchange</text>
</g>
<!-- f_3_483124311&#45;&gt;f_3_2575941269 -->
<g id="edge63" class="edge">
<title>f_3_483124311&#45;&gt;f_3_2575941269</title>
<path fill="none" stroke="black" d="M2752.14,-951.97C2792.45,-941.89 2843.67,-929.08 2885.65,-918.59"/>
<polygon fill="black" stroke="black" points="2886.7,-921.93 2895.56,-916.11 2885.01,-915.14 2886.7,-921.93"/>
</g>
<!-- f_3_2970231237 -->
<g id="node36" class="node">
<title>f_3_2970231237</title>
<polygon fill="#d95f02" stroke="black" points="2358,-844 2190,-844 2190,-808 2358,-808 2358,-844"/>
<text text-anchor="middle" x="2274" y="-822.3" font-family="Times,serif" font-size="14.00">fn_append_transcript</text>
</g>
<!-- f_3_3774482312&#45;&gt;f_3_2970231237 -->
<g id="edge32" class="edge">
<title>f_3_3774482312&#45;&gt;f_3_2970231237</title>
<path fill="none" stroke="black" d="M2599.86,-881.54C2596.87,-881.01 2593.91,-880.5 2591,-880 2494.73,-863.47 2468.03,-861.2 2368.04,-844.16"/>
<polygon fill="black" stroke="black" points="2368.58,-840.7 2358.14,-842.46 2367.4,-847.6 2368.58,-840.7"/>
</g>
<!-- v_3_2916884447 -->
<g id="node66" class="node">
<title>v_3_2916884447</title>
<ellipse fill="#1b9e77" stroke="black" cx="2668" cy="-826" rx="291.65" ry="18"/>
<text text-anchor="middle" x="2668" y="-822.3" font-family="Times,serif" font-size="14.00">[(0, 0)/Some(Handshake(Some(ServerHelloDone)))]/Message</text>
</g>
<!-- f_3_3774482312&#45;&gt;v_3_2916884447 -->
<g id="edge62" class="edge">
<title>f_3_3774482312&#45;&gt;v_3_2916884447</title>
<path fill="none" stroke="black" d="M2680.04,-879.7C2678.28,-871.98 2676.16,-862.71 2674.2,-854.11"/>
<polygon fill="black" stroke="black" points="2677.55,-853.07 2671.91,-844.1 2670.73,-854.63 2677.55,-853.07"/>
</g>
<!-- f_3_546868242 -->
<g id="node37" class="node">
<title>f_3_546868242</title>
<polygon fill="#d95f02" stroke="black" points="2227,-772 2059,-772 2059,-736 2227,-736 2227,-772"/>
<text text-anchor="middle" x="2143" y="-750.3" font-family="Times,serif" font-size="14.00">fn_append_transcript</text>
</g>
<!-- f_3_2970231237&#45;&gt;f_3_546868242 -->
<g id="edge33" class="edge">
<title>f_3_2970231237&#45;&gt;f_3_546868242</title>
<path fill="none" stroke="black" d="M2241.95,-807.88C2224.51,-798.55 2202.73,-786.92 2184.06,-776.94"/>
<polygon fill="black" stroke="black" points="2185.64,-773.82 2175.17,-772.19 2182.34,-779.99 2185.64,-773.82"/>
</g>
<!-- v_3_3981105451 -->
<g id="node65" class="node">
<title>v_3_3981105451</title>
<ellipse fill="#1b9e77" stroke="black" cx="2552" cy="-754" rx="306.55" ry="18"/>
<text text-anchor="middle" x="2552" y="-750.3" font-family="Times,serif" font-size="14.00">[(0, 0)/Some(Handshake(Some(ServerKeyExchange)))]/Message</text>
</g>
<!-- f_3_2970231237&#45;&gt;v_3_3981105451 -->
<g id="edge61" class="edge">
<title>f_3_2970231237&#45;&gt;v_3_3981105451</title>
<path fill="none" stroke="black" d="M2341.65,-807.97C2382.27,-797.74 2434.04,-784.7 2476.06,-774.12"/>
<polygon fill="black" stroke="black" points="2477.13,-777.46 2485.97,-771.63 2475.42,-770.67 2477.13,-777.46"/>
</g>
<!-- f_3_438770980 -->
<g id="node38" class="node">
<title>f_3_438770980</title>
<polygon fill="#d95f02" stroke="black" points="2132,-700 1964,-700 1964,-664 2132,-664 2132,-700"/>
<text text-anchor="middle" x="2048" y="-678.3" font-family="Times,serif" font-size="14.00">fn_append_transcript</text>
</g>
<!-- f_3_546868242&#45;&gt;f_3_438770980 -->
<g id="edge34" class="edge">
<title>f_3_546868242&#45;&gt;f_3_438770980</title>
<path fill="none" stroke="black" d="M2119.52,-735.7C2107.44,-726.8 2092.55,-715.82 2079.48,-706.2"/>
<polygon fill="black" stroke="black" points="2081.34,-703.22 2071.21,-700.1 2077.19,-708.85 2081.34,-703.22"/>
</g>
<!-- v_3_2714974882 -->
<g id="node64" class="node">
<title>v_3_2714974882</title>
<ellipse fill="#1b9e77" stroke="black" cx="2412" cy="-682" rx="261.85" ry="18"/>
<text text-anchor="middle" x="2412" y="-678.3" font-family="Times,serif" font-size="14.00">[(0, 0)/Some(Handshake(Some(Certificate)))]/Message</text>
</g>
<!-- f_3_546868242&#45;&gt;v_3_2714974882 -->
<g id="edge60" class="edge">
<title>f_3_546868242&#45;&gt;v_3_2714974882</title>
<path fill="none" stroke="black" d="M2208.46,-735.97C2247.83,-725.72 2298.02,-712.66 2338.71,-702.07"/>
<polygon fill="black" stroke="black" points="2339.77,-705.41 2348.57,-699.51 2338.01,-698.64 2339.77,-705.41"/>
</g>
<!-- f_3_2471662931 -->
<g id="node39" class="node">
<title>f_3_2471662931</title>
<polygon fill="#d95f02" stroke="black" points="2132,-628 1964,-628 1964,-592 2132,-592 2132,-628"/>
<text text-anchor="middle" x="2048" y="-606.3" font-family="Times,serif" font-size="14.00">fn_append_transcript</text>
</g>
<!-- f_3_438770980&#45;&gt;f_3_2471662931 -->
<g id="edge35" class="edge">
<title>f_3_438770980&#45;&gt;f_3_2471662931</title>
<path fill="none" stroke="black" d="M2048,-663.7C2048,-655.98 2048,-646.71 2048,-638.11"/>
<polygon fill="black" stroke="black" points="2051.5,-638.1 2048,-628.1 2044.5,-638.1 2051.5,-638.1"/>
</g>
<!-- v_3_3021986382 -->
<g id="node63" class="node">
<title>v_3_3021986382</title>
<ellipse fill="#1b9e77" stroke="black" cx="2418" cy="-610" rx="268.35" ry="18"/>
<text text-anchor="middle" x="2418" y="-606.3" font-family="Times,serif" font-size="14.00">[(0, 0)/Some(Handshake(Some(ServerHello)))]/Message</text>
</g>
<!-- f_3_438770980&#45;&gt;v_3_3021986382 -->
<g id="edge59" class="edge">
<title>f_3_438770980&#45;&gt;v_3_3021986382</title>
<path fill="none" stroke="black" d="M2107.82,-663.96C2118.81,-661.11 2130.21,-658.32 2141,-656 2191.8,-645.08 2248.35,-635.44 2297.04,-627.92"/>
<polygon fill="black" stroke="black" points="2297.63,-631.37 2306.99,-626.4 2296.57,-624.45 2297.63,-631.37"/>
</g>
<!-- f_3_3186329206 -->
<g id="node40" class="node">
<title>f_3_3186329206</title>
<polygon fill="#1b9e77" stroke="black" points="2129.5,-556 1966.5,-556 1966.5,-520 2129.5,-520 2129.5,-556"/>
<text text-anchor="middle" x="2048" y="-534.3" font-family="Times,serif" font-size="14.00">fn_new_transcript12</text>
</g>
<!-- f_3_2471662931&#45;&gt;f_3_3186329206 -->
<g id="edge36" class="edge">
<title>f_3_2471662931&#45;&gt;f_3_3186329206</title>
<path fill="none" stroke="black" d="M2048,-591.7C2048,-583.98 2048,-574.71 2048,-566.11"/>
<polygon fill="black" stroke="black" points="2051.5,-566.1 2048,-556.1 2044.5,-566.1 2051.5,-566.1"/>
</g>
<!-- f_3_2190793183 -->
<g id="node41" class="node">
<title>f_3_2190793183</title>
<polygon fill="#d95f02" stroke="black" points="2434.5,-556 2315.5,-556 2315.5,-520 2434.5,-520 2434.5,-556"/>
<text text-anchor="middle" x="2375" y="-534.3" font-family="Times,serif" font-size="14.00">fn_client_hello</text>
</g>
<!-- f_3_2471662931&#45;&gt;f_3_2190793183 -->
<g id="edge37" class="edge">
<title>f_3_2471662931&#45;&gt;f_3_2190793183</title>
<path fill="none" stroke="black" d="M2127.58,-591.97C2182.01,-580.31 2253.47,-565.01 2305.6,-553.86"/>
<polygon fill="black" stroke="black" points="2306.38,-557.27 2315.42,-551.75 2304.91,-550.42 2306.38,-557.27"/>
</g>
<!-- f_3_2555531583 -->
<g id="node42" class="node">
<title>f_3_2555531583</title>
<polygon fill="#1b9e77" stroke="black" points="2137.5,-484 1964.5,-484 1964.5,-448 2137.5,-448 2137.5,-484"/>
<text text-anchor="middle" x="2051" y="-462.3" font-family="Times,serif" font-size="14.00">fn_protocol_version12</text>
</g>
<!-- f_3_2190793183&#45;&gt;f_3_2555531583 -->
<g id="edge38" class="edge">
<title>f_3_2190793183&#45;&gt;f_3_2555531583</title>
<path fill="none" stroke="black" d="M2315.2,-524.08C2265.95,-513.44 2195.41,-498.2 2139.6,-486.14"/>
<polygon fill="black" stroke="black" points="2140.23,-482.7 2129.72,-484.01 2138.75,-489.54 2140.23,-482.7"/>
</g>
<!-- f_3_1358970423 -->
<g id="node43" class="node">
<title>f_3_1358970423</title>
<polygon fill="#1b9e77" stroke="black" points="2284,-484 2156,-484 2156,-448 2284,-448 2284,-484"/>
<text text-anchor="middle" x="2220" y="-462.3" font-family="Times,serif" font-size="14.00">fn_new_random</text>
</g>
<!-- f_3_2190793183&#45;&gt;f_3_1358970423 -->
<g id="edge39" class="edge">
<title>f_3_2190793183&#45;&gt;f_3_1358970423</title>
<path fill="none" stroke="black" d="M2337.08,-519.88C2315.99,-510.35 2289.54,-498.41 2267.13,-488.28"/>
<polygon fill="black" stroke="black" points="2268.35,-484.99 2257.79,-484.07 2265.47,-491.37 2268.35,-484.99"/>
</g>
<!-- f_3_2260107109 -->
<g id="node44" class="node">
<title>f_3_2260107109</title>
<polygon fill="#1b9e77" stroke="black" points="2448,-484 2302,-484 2302,-448 2448,-448 2448,-484"/>
<text text-anchor="middle" x="2375" y="-462.3" font-family="Times,serif" font-size="14.00">fn_new_session_id</text>
</g>
<!-- f_3_2190793183&#45;&gt;f_3_2260107109 -->
<g id="edge40" class="edge">
<title>f_3_2190793183&#45;&gt;f_3_2260107109</title>
<path fill="none" stroke="black" d="M2375,-519.7C2375,-511.98 2375,-502.71 2375,-494.11"/>
<polygon fill="black" stroke="black" points="2378.5,-494.1 2375,-484.1 2371.5,-494.1 2378.5,-494.1"/>
</g>
<!-- f_3_3719699122 -->
<g id="node45" class="node">
<title>f_3_3719699122</title>
<polygon fill="#d95f02" stroke="black" points="2650,-484 2466,-484 2466,-448 2650,-448 2650,-484"/>
<text text-anchor="middle" x="2558" y="-462.3" font-family="Times,serif" font-size="14.00">fn_append_cipher_suite</text>
</g>
<!-- f_3_2190793183&#45;&gt;f_3_3719699122 -->
<g id="edge41" class="edge">
<title>f_3_2190793183&#45;&gt;f_3_3719699122</title>
<path fill="none" stroke="black" d="M2419.77,-519.88C2445.12,-510.18 2477.01,-497.98 2503.77,-487.74"/>
<polygon fill="black" stroke="black" points="2505.29,-490.91 2513.38,-484.07 2502.79,-484.37 2505.29,-490.91"/>
</g>
<!-- f_3_3792112382 -->
<g id="node48" class="node">
<title>f_3_3792112382</title>
<polygon fill="#1b9e77" stroke="black" points="2803.5,-484 2668.5,-484 2668.5,-448 2803.5,-448 2803.5,-484"/>
<text text-anchor="middle" x="2736" y="-462.3" font-family="Times,serif" font-size="14.00">fn_compressions</text>
</g>
<!-- f_3_2190793183&#45;&gt;f_3_3792112382 -->
<g id="edge44" class="edge">
<title>f_3_2190793183&#45;&gt;f_3_3792112382</title>
<path fill="none" stroke="black" d="M2434.67,-526.45C2490.03,-516.53 2574.94,-500.98 2658.5,-484.07"/>
<polygon fill="black" stroke="black" points="2659.32,-487.47 2668.42,-482.05 2657.92,-480.61 2659.32,-487.47"/>
</g>
<!-- f_3_1393937776 -->
<g id="node49" class="node">
<title>f_3_1393937776</title>
<polygon fill="#d95f02" stroke="black" points="3042,-484 2822,-484 2822,-448 3042,-448 3042,-484"/>
<text text-anchor="middle" x="2932" y="-462.3" font-family="Times,serif" font-size="14.00">fn_client_extensions_append</text>
</g>
<!-- f_3_2190793183&#45;&gt;f_3_1393937776 -->
<g id="edge45" class="edge">
<title>f_3_2190793183&#45;&gt;f_3_1393937776</title>
<path fill="none" stroke="black" d="M2434.56,-530.2C2516.9,-520.72 2670.42,-502.7 2811.65,-484.16"/>
<polygon fill="black" stroke="black" points="2812.34,-487.6 2821.79,-482.83 2811.42,-480.66 2812.34,-487.6"/>
</g>
<!-- f_3_2725091992 -->
<g id="node46" class="node">
<title>f_3_2725091992</title>
<polygon fill="#1b9e77" stroke="black" points="2503,-412 2335,-412 2335,-376 2503,-376 2503,-412"/>
<text text-anchor="middle" x="2419" y="-390.3" font-family="Times,serif" font-size="14.00">fn_new_cipher_suites</text>
</g>
<!-- f_3_3719699122&#45;&gt;f_3_2725091992 -->
<g id="edge42" class="edge">
<title>f_3_3719699122&#45;&gt;f_3_2725091992</title>
<path fill="none" stroke="black" d="M2524,-447.88C2505.4,-438.51 2482.17,-426.81 2462.29,-416.8"/>
<polygon fill="black" stroke="black" points="2463.64,-413.56 2453.13,-412.19 2460.49,-419.81 2463.64,-413.56"/>
</g>
<!-- f_3_1808689175 -->
<g id="node47" class="node">
<title>f_3_1808689175</title>
<polygon fill="#1b9e77" stroke="black" points="2664.5,-412 2521.5,-412 2521.5,-376 2664.5,-376 2664.5,-412"/>
<text text-anchor="middle" x="2593" y="-390.3" font-family="Times,serif" font-size="14.00">fn_cipher_suite12</text>
</g>
<!-- f_3_3719699122&#45;&gt;f_3_1808689175 -->
<g id="edge43" class="edge">
<title>f_3_3719699122&#45;&gt;f_3_1808689175</title>
<path fill="none" stroke="black" d="M2566.65,-447.7C2570.64,-439.73 2575.45,-430.1 2579.87,-421.26"/>
<polygon fill="black" stroke="black" points="2583.11,-422.61 2584.45,-412.1 2576.85,-419.48 2583.11,-422.61"/>
</g>
<!-- f_3_3483714483 -->
<g id="node50" class="node">
<title>f_3_3483714483</title>
<polygon fill="#d95f02" stroke="black" points="2963,-412 2743,-412 2743,-376 2963,-376 2963,-412"/>
<text text-anchor="middle" x="2853" y="-390.3" font-family="Times,serif" font-size="14.00">fn_client_extensions_append</text>
</g>
<!-- f_3_1393937776&#45;&gt;f_3_3483714483 -->
<g id="edge46" class="edge">
<title>f_3_1393937776&#45;&gt;f_3_3483714483</title>
<path fill="none" stroke="black" d="M2912.47,-447.7C2902.62,-438.97 2890.51,-428.24 2879.8,-418.75"/>
<polygon fill="black" stroke="black" points="2882.11,-416.12 2872.3,-412.1 2877.47,-421.36 2882.11,-416.12"/>
</g>
<!-- f_3_2778729993 -->
<g id="node62" class="node">
<title>f_3_2778729993</title>
<polygon fill="#1b9e77" stroke="black" points="3274.5,-412 2981.5,-412 2981.5,-376 3274.5,-376 3274.5,-412"/>
<text text-anchor="middle" x="3128" y="-390.3" font-family="Times,serif" font-size="14.00">fn_signature_algorithm_cert_extension</text>
</g>
<!-- f_3_1393937776&#45;&gt;f_3_2778729993 -->
<g id="edge58" class="edge">
<title>f_3_1393937776&#45;&gt;f_3_2778729993</title>
<path fill="none" stroke="black" d="M2979.7,-447.97C3007.08,-438.19 3041.66,-425.84 3070.53,-415.52"/>
<polygon fill="black" stroke="black" points="3071.85,-418.77 3080.09,-412.11 3069.5,-412.18 3071.85,-418.77"/>
</g>
<!-- f_3_1909524611 -->
<g id="node51" class="node">
<title>f_3_1909524611</title>
<polygon fill="#d95f02" stroke="black" points="2827,-340 2607,-340 2607,-304 2827,-304 2827,-340"/>
<text text-anchor="middle" x="2717" y="-318.3" font-family="Times,serif" font-size="14.00">fn_client_extensions_append</text>
</g>
<!-- f_3_3483714483&#45;&gt;f_3_1909524611 -->
<g id="edge47" class="edge">
<title>f_3_3483714483&#45;&gt;f_3_1909524611</title>
<path fill="none" stroke="black" d="M2819.73,-375.88C2801.54,-366.51 2778.81,-354.81 2759.36,-344.8"/>
<polygon fill="black" stroke="black" points="2760.89,-341.65 2750.4,-340.19 2757.69,-347.88 2760.89,-341.65"/>
</g>
<!-- f_3_433850795 -->
<g id="node60" class="node">
<title>f_3_433850795</title>
<polygon fill="#d95f02" stroke="black" points="3093.5,-340 2850.5,-340 2850.5,-304 3093.5,-304 3093.5,-340"/>
<text text-anchor="middle" x="2972" y="-318.3" font-family="Times,serif" font-size="14.00">fn_renegotiation_info_extension</text>
</g>
<!-- f_3_3483714483&#45;&gt;f_3_433850795 -->
<g id="edge56" class="edge">
<title>f_3_3483714483&#45;&gt;f_3_433850795</title>
<path fill="none" stroke="black" d="M2882.11,-375.88C2897.67,-366.72 2917.02,-355.34 2933.78,-345.48"/>
<polygon fill="black" stroke="black" points="2935.93,-348.28 2942.78,-340.19 2932.38,-342.24 2935.93,-348.28"/>
</g>
<!-- f_3_125175854 -->
<g id="node52" class="node">
<title>f_3_125175854</title>
<polygon fill="#d95f02" stroke="black" points="2537,-268 2317,-268 2317,-232 2537,-232 2537,-268"/>
<text text-anchor="middle" x="2427" y="-246.3" font-family="Times,serif" font-size="14.00">fn_client_extensions_append</text>
</g>
<!-- f_3_1909524611&#45;&gt;f_3_125175854 -->
<g id="edge48" class="edge">
<title>f_3_1909524611&#45;&gt;f_3_125175854</title>
<path fill="none" stroke="black" d="M2646.43,-303.97C2604.51,-293.85 2551.21,-280.98 2507.63,-270.46"/>
<polygon fill="black" stroke="black" points="2508.18,-266.99 2497.64,-268.05 2506.54,-273.8 2508.18,-266.99"/>
</g>
<!-- f_3_479481879 -->
<g id="node59" class="node">
<title>f_3_479481879</title>
<polygon fill="#1b9e77" stroke="black" points="2878.5,-268 2555.5,-268 2555.5,-232 2878.5,-232 2878.5,-268"/>
<text text-anchor="middle" x="2717" y="-246.3" font-family="Times,serif" font-size="14.00">fn_signed_certificate_timestamp_extension</text>
</g>
<!-- f_3_1909524611&#45;&gt;f_3_479481879 -->
<g id="edge55" class="edge">
<title>f_3_1909524611&#45;&gt;f_3_479481879</title>
<path fill="none" stroke="black" d="M2717,-303.7C2717,-295.98 2717,-286.71 2717,-278.11"/>
<polygon fill="black" stroke="black" points="2720.5,-278.1 2717,-268.1 2713.5,-278.1 2720.5,-278.1"/>
</g>
<!-- f_3_3402728237 -->
<g id="node53" class="node">
<title>f_3_3402728237</title>
<polygon fill="#d95f02" stroke="black" points="2511,-196 2291,-196 2291,-160 2511,-160 2511,-196"/>
<text text-anchor="middle" x="2401" y="-174.3" font-family="Times,serif" font-size="14.00">fn_client_extensions_append</text>
</g>
<!-- f_3_125175854&#45;&gt;f_3_3402728237 -->
<g id="edge49" class="edge">
<title>f_3_125175854&#45;&gt;f_3_3402728237</title>
<path fill="none" stroke="black" d="M2420.57,-231.7C2417.64,-223.81 2414.11,-214.3 2410.86,-205.55"/>
<polygon fill="black" stroke="black" points="2414.12,-204.26 2407.35,-196.1 2407.55,-206.7 2414.12,-204.26"/>
</g>
<!-- f_3_1631266588 -->
<g id="node58" class="node">
<title>f_3_1631266588</title>
<polygon fill="#1b9e77" stroke="black" points="2764.5,-196 2529.5,-196 2529.5,-160 2764.5,-160 2764.5,-196"/>
<text text-anchor="middle" x="2647" y="-174.3" font-family="Times,serif" font-size="14.00">fn_ec_point_formats_extension</text>
</g>
<!-- f_3_125175854&#45;&gt;f_3_1631266588 -->
<g id="edge54" class="edge">
<title>f_3_125175854&#45;&gt;f_3_1631266588</title>
<path fill="none" stroke="black" d="M2480.54,-231.97C2511.54,-222.1 2550.76,-209.62 2583.34,-199.25"/>
<polygon fill="black" stroke="black" points="2584.76,-202.48 2593.22,-196.11 2582.63,-195.81 2584.76,-202.48"/>
</g>
<!-- f_3_510374479 -->
<g id="node54" class="node">
<title>f_3_510374479</title>
<polygon fill="#d95f02" stroke="black" points="2459,-124 2239,-124 2239,-88 2459,-88 2459,-124"/>
<text text-anchor="middle" x="2349" y="-102.3" font-family="Times,serif" font-size="14.00">fn_client_extensions_append</text>
</g>
<!-- f_3_3402728237&#45;&gt;f_3_510374479 -->
<g id="edge50" class="edge">
<title>f_3_3402728237&#45;&gt;f_3_510374479</title>
<path fill="none" stroke="black" d="M2388.15,-159.7C2381.97,-151.39 2374.46,-141.28 2367.68,-132.14"/>
<polygon fill="black" stroke="black" points="2370.48,-130.04 2361.71,-124.1 2364.86,-134.22 2370.48,-130.04"/>
</g>
<!-- f_3_319459529 -->
<g id="node57" class="node">
<title>f_3_319459529</title>
<polygon fill="#1b9e77" stroke="black" points="2735,-124 2477,-124 2477,-88 2735,-88 2735,-124"/>
<text text-anchor="middle" x="2606" y="-102.3" font-family="Times,serif" font-size="14.00">fn_signature_algorithm_extension</text>
</g>
<!-- f_3_3402728237&#45;&gt;f_3_319459529 -->
<g id="edge53" class="edge">
<title>f_3_3402728237&#45;&gt;f_3_319459529</title>
<path fill="none" stroke="black" d="M2450.89,-159.97C2479.65,-150.14 2516.01,-137.73 2546.29,-127.39"/>
<polygon fill="black" stroke="black" points="2547.56,-130.65 2555.89,-124.11 2545.3,-124.03 2547.56,-130.65"/>
</g>
<!-- f_3_2560338275 -->
<g id="node55" class="node">
<title>f_3_2560338275</title>
<polygon fill="#1b9e77" stroke="black" points="2266.5,-52 2069.5,-52 2069.5,-16 2266.5,-16 2266.5,-52"/>
<text text-anchor="middle" x="2168" y="-30.3" font-family="Times,serif" font-size="14.00">fn_client_extensions_new</text>
</g>
<!-- f_3_510374479&#45;&gt;f_3_2560338275 -->
<g id="edge51" class="edge">
<title>f_3_510374479&#45;&gt;f_3_2560338275</title>
<path fill="none" stroke="black" d="M2304.72,-87.88C2279.65,-78.18 2248.1,-65.98 2221.63,-55.74"/>
<polygon fill="black" stroke="black" points="2222.72,-52.41 2212.13,-52.07 2220.2,-58.94 2222.72,-52.41"/>
</g>
<!-- f_3_3325049236 -->
<g id="node56" class="node">
<title>f_3_3325049236</title>
<polygon fill="#1b9e77" stroke="black" points="2583.5,-52 2284.5,-52 2284.5,-16 2583.5,-16 2583.5,-52"/>
<text text-anchor="middle" x="2434" y="-30.3" font-family="Times,serif" font-size="14.00">fn_secp384r1_support_group_extension</text>
</g>
<!-- f_3_510374479&#45;&gt;f_3_3325049236 -->
<g id="edge52" class="edge">
<title>f_3_510374479&#45;&gt;f_3_3325049236</title>
<path fill="none" stroke="black" d="M2370.01,-87.7C2380.72,-78.88 2393.89,-68.03 2405.5,-58.47"/>
<polygon fill="black" stroke="black" points="2407.74,-61.16 2413.23,-52.1 2403.29,-55.76 2407.74,-61.16"/>
</g>
<!-- f_3_2764465457 -->
<g id="node61" class="node">
<title>f_3_2764465457</title>
<polygon fill="#1b9e77" stroke="black" points="3055.5,-268 2896.5,-268 2896.5,-232 3055.5,-232 3055.5,-268"/>
<text text-anchor="middle" x="2976" y="-246.3" font-family="Times,serif" font-size="14.00">fn_empty_bytes_vec</text>
</g>
<!-- f_3_433850795&#45;&gt;f_3_2764465457 -->
<g id="edge57" class="edge">
<title>f_3_433850795&#45;&gt;f_3_2764465457</title>
<path fill="none" stroke="black" d="M2972.99,-303.7C2973.43,-295.98 2973.96,-286.71 2974.45,-278.11"/>
<polygon fill="black" stroke="black" points="2977.95,-278.29 2975.02,-268.1 2970.96,-277.89 2977.95,-278.29"/>
</g>
<!-- f_3_1956483262 -->
<g id="node68" class="node">
<title>f_3_1956483262</title>
<polygon fill="#d95f02" stroke="black" points="3120.5,-844 2977.5,-844 2977.5,-808 3120.5,-808 3120.5,-844"/>
<text text-anchor="middle" x="3049" y="-822.3" font-family="Times,serif" font-size="14.00">fn_new_pubkey12</text>
</g>
<!-- f_3_2575941269&#45;&gt;f_3_1956483262 -->
<g id="edge64" class="edge">
<title>f_3_2575941269&#45;&gt;f_3_1956483262</title>
<path fill="none" stroke="black" d="M2985.01,-879.7C2995.72,-870.88 3008.89,-860.03 3020.5,-850.47"/>
<polygon fill="black" stroke="black" points="3022.74,-853.16 3028.23,-844.1 3018.29,-847.76 3022.74,-853.16"/>
</g>
<!-- f_3_3496845394 -->
<g id="node69" class="node">
<title>f_3_3496845394</title>
<polygon fill="#d95f02" stroke="black" points="3127,-772 2939,-772 2939,-736 3127,-736 3127,-772"/>
<text text-anchor="middle" x="3033" y="-750.3" font-family="Times,serif" font-size="14.00">fn_decode_ecdh_params</text>
</g>
<!-- f_3_1956483262&#45;&gt;f_3_3496845394 -->
<g id="edge65" class="edge">
<title>f_3_1956483262&#45;&gt;f_3_3496845394</title>
<path fill="none" stroke="black" d="M3045.04,-807.7C3043.28,-799.98 3041.16,-790.71 3039.2,-782.11"/>
<polygon fill="black" stroke="black" points="3042.55,-781.07 3036.91,-772.1 3035.73,-782.63 3042.55,-781.07"/>
</g>
<!-- v_3_1481458056 -->
<g id="node70" class="node">
<title>v_3_1481458056</title>
<ellipse fill="#1b9e77" stroke="black" cx="3001" cy="-682" rx="309.25" ry="18"/>
<text text-anchor="middle" x="3001" y="-678.3" font-family="Times,serif" font-size="14.00">[(0, 0)/Some(Handshake(Some(ServerKeyExchange)))]/Vec&lt;u8&gt;</text>
</g>
<!-- f_3_3496845394&#45;&gt;v_3_1481458056 -->
<g id="edge66" class="edge">
<title>f_3_3496845394&#45;&gt;v_3_1481458056</title>
<path fill="none" stroke="black" d="M3025.09,-735.7C3021.45,-727.73 3017.05,-718.1 3013.01,-709.26"/>
<polygon fill="black" stroke="black" points="3016.16,-707.74 3008.82,-700.1 3009.79,-710.65 3016.16,-707.74"/>
</g>
<!-- v_3_1092373116 -->
<g id="node73" class="node">
<title>v_3_1092373116</title>
<ellipse fill="#1b9e77" stroke="black" cx="3001" cy="-1042" rx="309.25" ry="18"/>
<text text-anchor="middle" x="3001" y="-1038.3" font-family="Times,serif" font-size="14.00">[(0, 0)/Some(Handshake(Some(ServerKeyExchange)))]/Vec&lt;u8&gt;</text>
</g>
<!-- f_3_1464761120&#45;&gt;v_3_1092373116 -->
<g id="edge69" class="edge">
<title>f_3_1464761120&#45;&gt;v_3_1092373116</title>
<path fill="none" stroke="black" d="M3011.54,-1095.7C3010,-1087.98 3008.14,-1078.71 3006.42,-1070.11"/>
<polygon fill="black" stroke="black" points="3009.81,-1069.22 3004.42,-1060.1 3002.95,-1070.6 3009.81,-1069.22"/>
</g>
</g>
</svg>
