<?xml version="1.0" encoding="UTF-8" standalone="no"?>
<!DOCTYPE svg PUBLIC "-//W3C//DTD SVG 1.1//EN"
 "http://www.w3.org/Graphics/SVG/1.1/DTD/svg11.dtd">
<!-- Generated by graphviz version 2.48.0 (0)
 -->
<!-- Title: Trace Pages: 1 -->
<svg width="2982pt" height="459pt"
 viewBox="0.00 0.00 2982.00 459.00" xmlns="http://www.w3.org/2000/svg" xmlns:xlink="http://www.w3.org/1999/xlink">
<g id="graph0" class="graph" transform="scale(1 1) rotate(0) translate(4 455)">
<title>Trace</title>
<polygon fill="white" stroke="transparent" points="-4,4 -4,-455 2978,-455 2978,4 -4,4"/>
<g id="clust1" class="cluster">
<title>cluster0</title>
<polygon fill="none" stroke="black" points="8,-8 8,-443 1102,-443 1102,-8 8,-8"/>
<text text-anchor="middle" x="555" y="-427.8" font-family="Times,serif" font-size="14.00">Step #0 (Agent &#160;0)</text>
</g>
<g id="clust2" class="cluster">
<title>cluster1</title>
<polygon fill="none" stroke="black" points="1110,-368 1110,-443 1260,-443 1260,-368 1110,-368"/>
<text text-anchor="middle" x="1185" y="-427.8" font-family="Times,serif" font-size="14.00">Step #1 (Agent &#160;0)</text>
</g>
<g id="clust3" class="cluster">
<title>cluster2</title>
<polygon fill="none" stroke="black" points="1268,-80 1268,-443 2966,-443 2966,-80 1268,-80"/>
<text text-anchor="middle" x="2117" y="-427.8" font-family="Times,serif" font-size="14.00">Step #2 (Agent &#160;0)</text>
</g>
<!-- f_0_2623591042 -->
<g id="node1" class="node">
<title>f_0_2623591042</title>
<polygon fill="#d95f02" stroke="black" points="577.5,-412 458.5,-412 458.5,-376 577.5,-376 577.5,-412"/>
<text text-anchor="middle" x="518" y="-390.3" font-family="Times,serif" font-size="14.00">fn_client_hello</text>
</g>
<!-- f_0_560189674 -->
<g id="node2" class="node">
<title>f_0_560189674</title>
<polygon fill="#1b9e77" stroke="black" points="189.5,-340 16.5,-340 16.5,-304 189.5,-304 189.5,-340"/>
<text text-anchor="middle" x="103" y="-318.3" font-family="Times,serif" font-size="14.00">fn_protocol_version12</text>
</g>
<!-- f_0_2623591042&#45;&gt;f_0_560189674 -->
<g id="edge1" class="edge">
<title>f_0_2623591042&#45;&gt;f_0_560189674</title>
<path fill="none" stroke="black" d="M458.29,-383.27C396.31,-373.13 296.25,-356.64 199.55,-340.08"/>
<polygon fill="black" stroke="black" points="200.05,-336.62 189.6,-338.38 198.86,-343.52 200.05,-336.62"/>
</g>
<!-- f_0_97314859 -->
<g id="node3" class="node">
<title>f_0_97314859</title>
<polygon fill="#1b9e77" stroke="black" points="336,-340 208,-340 208,-304 336,-304 336,-340"/>
<text text-anchor="middle" x="272" y="-318.3" font-family="Times,serif" font-size="14.00">fn_new_random</text>
</g>
<!-- f_0_2623591042&#45;&gt;f_0_97314859 -->
<g id="edge2" class="edge">
<title>f_0_2623591042&#45;&gt;f_0_97314859</title>
<path fill="none" stroke="black" d="M458.45,-376.05C423.21,-366.03 378.39,-353.27 341.53,-342.79"/>
<polygon fill="black" stroke="black" points="342.43,-339.4 331.85,-340.03 340.51,-346.13 342.43,-339.4"/>
</g>
<!-- f_0_1531826966 -->
<g id="node4" class="node">
<title>f_0_1531826966</title>
<polygon fill="#1b9e77" stroke="black" points="500,-340 354,-340 354,-304 500,-304 500,-340"/>
<text text-anchor="middle" x="427" y="-318.3" font-family="Times,serif" font-size="14.00">fn_new_session_id</text>
</g>
<!-- f_0_2623591042&#45;&gt;f_0_1531826966 -->
<g id="edge3" class="edge">
<title>f_0_2623591042&#45;&gt;f_0_1531826966</title>
<path fill="none" stroke="black" d="M495.51,-375.7C484.04,-366.88 469.94,-356.03 457.52,-346.47"/>
<polygon fill="black" stroke="black" points="459.3,-343.43 449.24,-340.1 455.03,-348.98 459.3,-343.43"/>
</g>
<!-- f_0_4146621022 -->
<g id="node5" class="node">
<title>f_0_4146621022</title>
<polygon fill="#d95f02" stroke="black" points="702,-340 518,-340 518,-304 702,-304 702,-340"/>
<text text-anchor="middle" x="610" y="-318.3" font-family="Times,serif" font-size="14.00">fn_append_cipher_suite</text>
</g>
<!-- f_0_2623591042&#45;&gt;f_0_4146621022 -->
<g id="edge4" class="edge">
<title>f_0_2623591042&#45;&gt;f_0_4146621022</title>
<path fill="none" stroke="black" d="M540.74,-375.7C552.44,-366.8 566.86,-355.82 579.51,-346.2"/>
<polygon fill="black" stroke="black" points="581.68,-348.94 587.52,-340.1 577.44,-343.37 581.68,-348.94"/>
</g>
<!-- f_0_1400724518 -->
<g id="node8" class="node">
<title>f_0_1400724518</title>
<polygon fill="#1b9e77" stroke="black" points="855.5,-340 720.5,-340 720.5,-304 855.5,-304 855.5,-340"/>
<text text-anchor="middle" x="788" y="-318.3" font-family="Times,serif" font-size="14.00">fn_compressions</text>
</g>
<!-- f_0_2623591042&#45;&gt;f_0_1400724518 -->
<g id="edge7" class="edge">
<title>f_0_2623591042&#45;&gt;f_0_1400724518</title>
<path fill="none" stroke="black" d="M577.59,-377.55C617.35,-367.24 669.97,-353.6 712.64,-342.54"/>
<polygon fill="black" stroke="black" points="713.62,-345.9 722.42,-340 711.86,-339.12 713.62,-345.9"/>
</g>
<!-- f_0_1373976190 -->
<g id="node9" class="node">
<title>f_0_1373976190</title>
<polygon fill="#d95f02" stroke="black" points="1094,-340 874,-340 874,-304 1094,-304 1094,-340"/>
<text text-anchor="middle" x="984" y="-318.3" font-family="Times,serif" font-size="14.00">fn_client_extensions_append</text>
</g>
<!-- f_0_2623591042&#45;&gt;f_0_1373976190 -->
<g id="edge8" class="edge">
<title>f_0_2623591042&#45;&gt;f_0_1373976190</title>
<path fill="none" stroke="black" d="M577.97,-383.99C649.95,-373.18 772.41,-354.78 864.06,-341.02"/>
<polygon fill="black" stroke="black" points="864.59,-344.48 873.96,-339.53 863.55,-337.55 864.59,-344.48"/>
</g>
<!-- f_0_2187372308 -->
<g id="node6" class="node">
<title>f_0_2187372308</title>
<polygon fill="#1b9e77" stroke="black" points="246,-268 78,-268 78,-232 246,-232 246,-268"/>
<text text-anchor="middle" x="162" y="-246.3" font-family="Times,serif" font-size="14.00">fn_new_cipher_suites</text>
</g>
<!-- f_0_4146621022&#45;&gt;f_0_2187372308 -->
<g id="edge5" class="edge">
<title>f_0_4146621022&#45;&gt;f_0_2187372308</title>
<path fill="none" stroke="black" d="M517.82,-305.38C514.84,-304.91 511.9,-304.45 509,-304 399.52,-287.03 369.24,-286.28 256.22,-268.16"/>
<polygon fill="black" stroke="black" points="256.55,-264.67 246.12,-266.53 255.44,-271.58 256.55,-264.67"/>
</g>
<!-- f_0_1744014115 -->
<g id="node7" class="node">
<title>f_0_1744014115</title>
<polygon fill="#1b9e77" stroke="black" points="566,-268 264,-268 264,-232 566,-232 566,-268"/>
<text text-anchor="middle" x="415" y="-246.3" font-family="Times,serif" font-size="14.00">fn_cipher_suite13_aes_128_gcm_sha256</text>
</g>
<!-- f_0_4146621022&#45;&gt;f_0_1744014115 -->
<g id="edge6" class="edge">
<title>f_0_4146621022&#45;&gt;f_0_1744014115</title>
<path fill="none" stroke="black" d="M562.3,-303.88C535.05,-294.09 500.7,-281.77 472.03,-271.47"/>
<polygon fill="black" stroke="black" points="473.14,-268.15 462.55,-268.07 470.78,-274.74 473.14,-268.15"/>
</g>
<!-- f_0_4109889945 -->
<g id="node10" class="node">
<title>f_0_4109889945</title>
<polygon fill="#d95f02" stroke="black" points="804,-268 584,-268 584,-232 804,-232 804,-268"/>
<text text-anchor="middle" x="694" y="-246.3" font-family="Times,serif" font-size="14.00">fn_client_extensions_append</text>
</g>
<!-- f_0_1373976190&#45;&gt;f_0_4109889945 -->
<g id="edge9" class="edge">
<title>f_0_1373976190&#45;&gt;f_0_4109889945</title>
<path fill="none" stroke="black" d="M913.43,-303.97C871.51,-293.85 818.21,-280.98 774.63,-270.46"/>
<polygon fill="black" stroke="black" points="775.18,-266.99 764.64,-268.05 773.54,-273.8 775.18,-266.99"/>
</g>
<!-- f_0_2438957701 -->
<g id="node17" class="node">
<title>f_0_2438957701</title>
<polygon fill="#1b9e77" stroke="black" points="1093.5,-268 822.5,-268 822.5,-232 1093.5,-232 1093.5,-268"/>
<text text-anchor="middle" x="958" y="-246.3" font-family="Times,serif" font-size="14.00">fn_supported_versions13_extension</text>
</g>
<!-- f_0_1373976190&#45;&gt;f_0_2438957701 -->
<g id="edge16" class="edge">
<title>f_0_1373976190&#45;&gt;f_0_2438957701</title>
<path fill="none" stroke="black" d="M977.57,-303.7C974.64,-295.81 971.11,-286.3 967.86,-277.55"/>
<polygon fill="black" stroke="black" points="971.12,-276.26 964.35,-268.1 964.55,-278.7 971.12,-276.26"/>
</g>
<!-- f_0_4237530684 -->
<g id="node11" class="node">
<title>f_0_4237530684</title>
<polygon fill="#d95f02" stroke="black" points="660,-196 440,-196 440,-160 660,-160 660,-196"/>
<text text-anchor="middle" x="550" y="-174.3" font-family="Times,serif" font-size="14.00">fn_client_extensions_append</text>
</g>
<!-- f_0_4109889945&#45;&gt;f_0_4237530684 -->
<g id="edge10" class="edge">
<title>f_0_4109889945&#45;&gt;f_0_4237530684</title>
<path fill="none" stroke="black" d="M658.77,-231.88C639.42,-222.47 615.23,-210.71 594.57,-200.67"/>
<polygon fill="black" stroke="black" points="595.89,-197.41 585.36,-196.19 592.83,-203.71 595.89,-197.41"/>
</g>
<!-- f_0_1218207562 -->
<g id="node16" class="node">
<title>f_0_1218207562</title>
<polygon fill="#1b9e77" stroke="black" points="965.5,-196 678.5,-196 678.5,-160 965.5,-160 965.5,-196"/>
<text text-anchor="middle" x="822" y="-174.3" font-family="Times,serif" font-size="14.00">fn_key_share_deterministic_extension</text>
</g>
<!-- f_0_4109889945&#45;&gt;f_0_1218207562 -->
<g id="edge15" class="edge">
<title>f_0_4109889945&#45;&gt;f_0_1218207562</title>
<path fill="none" stroke="black" d="M725.31,-231.88C742.2,-222.64 763.25,-211.13 781.38,-201.21"/>
<polygon fill="black" stroke="black" points="783.47,-204.06 790.57,-196.19 780.11,-197.92 783.47,-204.06"/>
</g>
<!-- f_0_2807374411 -->
<g id="node12" class="node">
<title>f_0_2807374411</title>
<polygon fill="#d95f02" stroke="black" points="573,-124 353,-124 353,-88 573,-88 573,-124"/>
<text text-anchor="middle" x="463" y="-102.3" font-family="Times,serif" font-size="14.00">fn_client_extensions_append</text>
</g>
<!-- f_0_4237530684&#45;&gt;f_0_2807374411 -->
<g id="edge11" class="edge">
<title>f_0_4237530684&#45;&gt;f_0_2807374411</title>
<path fill="none" stroke="black" d="M528.49,-159.7C517.54,-150.88 504.05,-140.03 492.18,-130.47"/>
<polygon fill="black" stroke="black" points="494.24,-127.65 484.26,-124.1 489.86,-133.1 494.24,-127.65"/>
</g>
<!-- f_0_4105107425 -->
<g id="node15" class="node">
<title>f_0_4105107425</title>
<polygon fill="#1b9e77" stroke="black" points="849,-124 591,-124 591,-88 849,-88 849,-124"/>
<text text-anchor="middle" x="720" y="-102.3" font-family="Times,serif" font-size="14.00">fn_signature_algorithm_extension</text>
</g>
<!-- f_0_4237530684&#45;&gt;f_0_4105107425 -->
<g id="edge14" class="edge">
<title>f_0_4237530684&#45;&gt;f_0_4105107425</title>
<path fill="none" stroke="black" d="M591.59,-159.88C615.03,-150.22 644.5,-138.09 669.3,-127.88"/>
<polygon fill="black" stroke="black" points="670.63,-131.11 678.55,-124.07 667.97,-124.64 670.63,-131.11"/>
</g>
<!-- f_0_234094166 -->
<g id="node13" class="node">
<title>f_0_234094166</title>
<polygon fill="#1b9e77" stroke="black" points="428.5,-52 231.5,-52 231.5,-16 428.5,-16 428.5,-52"/>
<text text-anchor="middle" x="330" y="-30.3" font-family="Times,serif" font-size="14.00">fn_client_extensions_new</text>
</g>
<!-- f_0_2807374411&#45;&gt;f_0_234094166 -->
<g id="edge12" class="edge">
<title>f_0_2807374411&#45;&gt;f_0_234094166</title>
<path fill="none" stroke="black" d="M430.46,-87.88C412.75,-78.55 390.65,-66.92 371.68,-56.94"/>
<polygon fill="black" stroke="black" points="373.14,-53.75 362.66,-52.19 369.88,-59.94 373.14,-53.75"/>
</g>
<!-- f_0_106983727 -->
<g id="node14" class="node">
<title>f_0_106983727</title>
<polygon fill="#1b9e77" stroke="black" points="745.5,-52 446.5,-52 446.5,-16 745.5,-16 745.5,-52"/>
<text text-anchor="middle" x="596" y="-30.3" font-family="Times,serif" font-size="14.00">fn_secp384r1_support_group_extension</text>
</g>
<!-- f_0_2807374411&#45;&gt;f_0_106983727 -->
<g id="edge13" class="edge">
<title>f_0_2807374411&#45;&gt;f_0_106983727</title>
<path fill="none" stroke="black" d="M495.54,-87.88C513.25,-78.55 535.35,-66.92 554.32,-56.94"/>
<polygon fill="black" stroke="black" points="556.12,-59.94 563.34,-52.19 552.86,-53.75 556.12,-59.94"/>
</g>
<g id="node18" class="node">
<title></title>
<ellipse fill="none" stroke="transparent" cx="1185" cy="-394" rx="27" ry="18"/>
</g>
<!-- f_2_1564878418 -->
<g id="node19" class="node">
<title>f_2_1564878418</title>
<polygon fill="#d95f02" stroke="black" points="2245,-412 2069,-412 2069,-376 2245,-376 2245,-412"/>
<text text-anchor="middle" x="2157" y="-390.3" font-family="Times,serif" font-size="14.00">fn_encrypt_handshake</text>
</g>
<!-- f_2_1015928078 -->
<g id="node20" class="node">
<title>f_2_1015928078</title>
<polygon fill="#d95f02" stroke="black" points="1759.5,-340 1664.5,-340 1664.5,-304 1759.5,-304 1759.5,-340"/>
<text text-anchor="middle" x="1712" y="-318.3" font-family="Times,serif" font-size="14.00">fn_finished</text>
</g>
<!-- f_2_1564878418&#45;&gt;f_2_1015928078 -->
<g id="edge17" class="edge">
<title>f_2_1564878418&#45;&gt;f_2_1015928078</title>
<path fill="none" stroke="black" d="M2068.82,-379.13C1980.12,-365.18 1845.93,-344.07 1769.9,-332.11"/>
<polygon fill="black" stroke="black" points="1769.99,-328.58 1759.57,-330.48 1768.91,-335.49 1769.99,-328.58"/>
</g>
<!-- f_2_3672724334 -->
<g id="node29" class="node">
<title>f_2_3672724334</title>
<polygon fill="#d95f02" stroke="black" points="2043.5,-340 1840.5,-340 1840.5,-304 2043.5,-304 2043.5,-340"/>
<text text-anchor="middle" x="1942" y="-318.3" font-family="Times,serif" font-size="14.00">fn_server_hello_transcript</text>
</g>
<!-- f_2_1564878418&#45;&gt;f_2_3672724334 -->
<g id="edge26" class="edge">
<title>f_2_1564878418&#45;&gt;f_2_3672724334</title>
<path fill="none" stroke="black" d="M2104.68,-375.97C2074.38,-366.1 2036.05,-353.62 2004.21,-343.25"/>
<polygon fill="black" stroke="black" points="2005.15,-339.88 1994.55,-340.11 2002.98,-346.53 2005.15,-339.88"/>
</g>
<!-- f_2_2155927335 -->
<g id="node31" class="node">
<title>f_2_2155927335</title>
<polygon fill="#d95f02" stroke="black" points="2252.5,-340 2061.5,-340 2061.5,-304 2252.5,-304 2252.5,-340"/>
<text text-anchor="middle" x="2157" y="-318.3" font-family="Times,serif" font-size="14.00">fn_get_server_key_share</text>
</g>
<!-- f_2_1564878418&#45;&gt;f_2_2155927335 -->
<g id="edge28" class="edge">
<title>f_2_1564878418&#45;&gt;f_2_2155927335</title>
<path fill="none" stroke="black" d="M2157,-375.7C2157,-367.98 2157,-358.71 2157,-350.11"/>
<polygon fill="black" stroke="black" points="2160.5,-350.1 2157,-340.1 2153.5,-350.1 2160.5,-350.1"/>
</g>
<!-- f_2_4155456135 -->
<g id="node33" class="node">
<title>f_2_4155456135</title>
<polygon fill="#1b9e77" stroke="black" points="2357,-340 2271,-340 2271,-304 2357,-304 2357,-340"/>
<text text-anchor="middle" x="2314" y="-318.3" font-family="Times,serif" font-size="14.00">fn_no_psk</text>
</g>
<!-- f_2_1564878418&#45;&gt;f_2_4155456135 -->
<g id="edge30" class="edge">
<title>f_2_1564878418&#45;&gt;f_2_4155456135</title>
<path fill="none" stroke="black" d="M2195.41,-375.88C2216.87,-366.31 2243.8,-354.3 2266.57,-344.15"/>
<polygon fill="black" stroke="black" points="2268.01,-347.34 2275.72,-340.07 2265.16,-340.94 2268.01,-347.34"/>
</g>
<!-- f_2_721929822 -->
<g id="node34" class="node">
<title>f_2_721929822</title>
<polygon fill="#1b9e77" stroke="black" points="2453,-340 2375,-340 2375,-304 2453,-304 2453,-340"/>
<text text-anchor="middle" x="2414" y="-318.3" font-family="Times,serif" font-size="14.00">fn_seq_0</text>
</g>
<!-- f_2_1564878418&#45;&gt;f_2_721929822 -->
<g id="edge31" class="edge">
<title>f_2_1564878418&#45;&gt;f_2_721929822</title>
<path fill="none" stroke="black" d="M2230.97,-376C2268.72,-366.91 2315.51,-355.01 2365.17,-340.13"/>
<polygon fill="black" stroke="black" points="2366.25,-343.46 2374.8,-337.21 2364.22,-336.76 2366.25,-343.46"/>
</g>
<!-- f_2_569216875 -->
<g id="node21" class="node">
<title>f_2_569216875</title>
<polygon fill="#d95f02" stroke="black" points="1708.5,-268 1591.5,-268 1591.5,-232 1708.5,-232 1708.5,-268"/>
<text text-anchor="middle" x="1650" y="-246.3" font-family="Times,serif" font-size="14.00">fn_verify_data</text>
</g>
<!-- f_2_1015928078&#45;&gt;f_2_569216875 -->
<g id="edge18" class="edge">
<title>f_2_1015928078&#45;&gt;f_2_569216875</title>
<path fill="none" stroke="black" d="M1696.67,-303.7C1689.24,-295.3 1680.18,-285.07 1672.02,-275.86"/>
<polygon fill="black" stroke="black" points="1674.4,-273.27 1665.15,-268.1 1669.16,-277.91 1674.4,-273.27"/>
</g>
<!-- f_2_2698037985 -->
<g id="node22" class="node">
<title>f_2_2698037985</title>
<polygon fill="#d95f02" stroke="black" points="1604.5,-196 1379.5,-196 1379.5,-160 1604.5,-160 1604.5,-196"/>
<text text-anchor="middle" x="1492" y="-174.3" font-family="Times,serif" font-size="14.00">fn_server_finished_transcript</text>
</g>
<!-- f_2_569216875&#45;&gt;f_2_2698037985 -->
<g id="edge19" class="edge">
<title>f_2_569216875&#45;&gt;f_2_2698037985</title>
<path fill="none" stroke="black" d="M1611.35,-231.88C1589.75,-222.31 1562.65,-210.3 1539.73,-200.15"/>
<polygon fill="black" stroke="black" points="1541.09,-196.92 1530.53,-196.07 1538.25,-203.32 1541.09,-196.92"/>
</g>
<!-- f_2_2276503418 -->
<g id="node24" class="node">
<title>f_2_2276503418</title>
<polygon fill="#d95f02" stroke="black" points="1825.5,-196 1622.5,-196 1622.5,-160 1825.5,-160 1825.5,-196"/>
<text text-anchor="middle" x="1724" y="-174.3" font-family="Times,serif" font-size="14.00">fn_server_hello_transcript</text>
</g>
<!-- f_2_569216875&#45;&gt;f_2_2276503418 -->
<g id="edge21" class="edge">
<title>f_2_569216875&#45;&gt;f_2_2276503418</title>
<path fill="none" stroke="black" d="M1668.29,-231.7C1677.43,-223.05 1688.64,-212.45 1698.6,-203.03"/>
<polygon fill="black" stroke="black" points="1701.06,-205.52 1705.92,-196.1 1696.25,-200.43 1701.06,-205.52"/>
</g>
<!-- f_2_3664542163 -->
<g id="node26" class="node">
<title>f_2_3664542163</title>
<polygon fill="#d95f02" stroke="black" points="2034.5,-196 1843.5,-196 1843.5,-160 2034.5,-160 2034.5,-196"/>
<text text-anchor="middle" x="1939" y="-174.3" font-family="Times,serif" font-size="14.00">fn_get_server_key_share</text>
</g>
<!-- f_2_569216875&#45;&gt;f_2_3664542163 -->
<g id="edge23" class="edge">
<title>f_2_569216875&#45;&gt;f_2_3664542163</title>
<path fill="none" stroke="black" d="M1708.81,-234.03C1711.58,-233.34 1714.32,-232.66 1717,-232 1763.13,-220.64 1814.74,-208.3 1856.58,-198.38"/>
<polygon fill="black" stroke="black" points="1857.53,-201.76 1866.45,-196.05 1855.91,-194.95 1857.53,-201.76"/>
</g>
<!-- f_2_403657852 -->
<g id="node28" class="node">
<title>f_2_403657852</title>
<polygon fill="#1b9e77" stroke="black" points="2139,-196 2053,-196 2053,-160 2139,-160 2139,-196"/>
<text text-anchor="middle" x="2096" y="-174.3" font-family="Times,serif" font-size="14.00">fn_no_psk</text>
</g>
<!-- f_2_569216875&#45;&gt;f_2_403657852 -->
<g id="edge25" class="edge">
<title>f_2_569216875&#45;&gt;f_2_403657852</title>
<path fill="none" stroke="black" d="M1708.73,-233.61C1711.52,-233.03 1714.28,-232.49 1717,-232 1857.64,-206.54 1899.23,-225.96 2042.72,-196.02"/>
<polygon fill="black" stroke="black" points="2043.72,-199.38 2052.77,-193.87 2042.26,-192.53 2043.72,-199.38"/>
</g>
<!-- v_2_3832960670 -->
<g id="node23" class="node">
<title>v_2_3832960670</title>
<ellipse fill="#1b9e77" stroke="black" cx="1492" cy="-106" rx="215.56" ry="18"/>
<text text-anchor="middle" x="1492" y="-102.3" font-family="Times,serif" font-size="14.00">[(0, 0)/Some(Handshake(None))]/VecClaimer</text>
</g>
<!-- f_2_2698037985&#45;&gt;v_2_3832960670 -->
<g id="edge20" class="edge">
<title>f_2_2698037985&#45;&gt;v_2_3832960670</title>
<path fill="none" stroke="black" d="M1492,-159.7C1492,-151.98 1492,-142.71 1492,-134.11"/>
<polygon fill="black" stroke="black" points="1495.5,-134.1 1492,-124.1 1488.5,-134.1 1495.5,-134.1"/>
</g>
<!-- v_2_311590781 -->
<g id="node25" class="node">
<title>v_2_311590781</title>
<ellipse fill="#1b9e77" stroke="black" cx="1942" cy="-106" rx="215.56" ry="18"/>
<text text-anchor="middle" x="1942" y="-102.3" font-family="Times,serif" font-size="14.00">[(0, 0)/Some(Handshake(None))]/VecClaimer</text>
</g>
<!-- f_2_2276503418&#45;&gt;v_2_311590781 -->
<g id="edge22" class="edge">
<title>f_2_2276503418&#45;&gt;v_2_311590781</title>
<path fill="none" stroke="black" d="M1777.05,-159.97C1808.35,-149.92 1848.08,-137.16 1880.71,-126.68"/>
<polygon fill="black" stroke="black" points="1882.14,-129.9 1890.59,-123.51 1880,-123.23 1882.14,-129.9"/>
</g>
<!-- v_2_1768046993 -->
<g id="node27" class="node">
<title>v_2_1768046993</title>
<ellipse fill="#1b9e77" stroke="black" cx="2567" cy="-106" rx="391.03" ry="18"/>
<text text-anchor="middle" x="2567" y="-102.3" font-family="Times,serif" font-size="14.00">[(0, 0)/Some(Handshake(None))]/Vec&lt;rustls::msgs::handshake::ServerExtension&gt;</text>
</g>
<!-- f_2_3664542163&#45;&gt;v_2_1768046993 -->
<g id="edge24" class="edge">
<title>f_2_3664542163&#45;&gt;v_2_1768046993</title>
<path fill="none" stroke="black" d="M2034.53,-161.29C2037.73,-160.84 2040.89,-160.41 2044,-160 2155.87,-145.29 2281.66,-132.43 2381.84,-123.06"/>
<polygon fill="black" stroke="black" points="2382.43,-126.52 2392.07,-122.1 2381.79,-119.55 2382.43,-126.52"/>
</g>
<!-- v_2_2838153217 -->
<g id="node30" class="node">
<title>v_2_2838153217</title>
<ellipse fill="#1b9e77" stroke="black" cx="1942" cy="-250" rx="215.56" ry="18"/>
<text text-anchor="middle" x="1942" y="-246.3" font-family="Times,serif" font-size="14.00">[(0, 0)/Some(Handshake(None))]/VecClaimer</text>
</g>
<!-- f_2_3672724334&#45;&gt;v_2_2838153217 -->
<g id="edge27" class="edge">
<title>f_2_3672724334&#45;&gt;v_2_2838153217</title>
<path fill="none" stroke="black" d="M1942,-303.7C1942,-295.98 1942,-286.71 1942,-278.11"/>
<polygon fill="black" stroke="black" points="1945.5,-278.1 1942,-268.1 1938.5,-278.1 1945.5,-278.1"/>
</g>
<!-- v_2_683691499 -->
<g id="node32" class="node">
<title>v_2_683691499</title>
<ellipse fill="#1b9e77" stroke="black" cx="2567" cy="-250" rx="391.03" ry="18"/>
<text text-anchor="middle" x="2567" y="-246.3" font-family="Times,serif" font-size="14.00">[(0, 0)/Some(Handshake(None))]/Vec&lt;rustls::msgs::handshake::ServerExtension&gt;</text>
</g>
<!-- f_2_2155927335&#45;&gt;v_2_683691499 -->
<g id="edge29" class="edge">
<title>f_2_2155927335&#45;&gt;v_2_683691499</title>
<path fill="none" stroke="black" d="M2252.61,-304.68C2314.83,-294.05 2396.05,-280.19 2460.36,-269.21"/>
<polygon fill="black" stroke="black" points="2461.26,-272.6 2470.53,-267.47 2460.08,-265.7 2461.26,-272.6"/>
</g>
</g>
</svg>
