<?xml version="1.0" encoding="UTF-8" standalone="no"?>
<!DOCTYPE svg PUBLIC "-//W3C//DTD SVG 1.1//EN"
 "http://www.w3.org/Graphics/SVG/1.1/DTD/svg11.dtd">
<!-- Generated by graphviz version 2.48.0 (0)
 -->
<!-- Title: Trace Pages: 1 -->
<svg width="3359pt" height="1251pt"
 viewBox="0.00 0.00 3359.00 1251.00" xmlns="http://www.w3.org/2000/svg" xmlns:xlink="http://www.w3.org/1999/xlink">
<g id="graph0" class="graph" transform="scale(1 1) rotate(0) translate(4 1247)">
<title>Trace</title>
<polygon fill="white" stroke="transparent" points="-4,4 -4,-1247 3355,-1247 3355,4 -4,4"/>
<g id="clust1" class="cluster">
<title>cluster0</title>
<polygon fill="none" stroke="black" points="8,-656 8,-1235 1102,-1235 1102,-656 8,-656"/>
<text text-anchor="middle" x="555" y="-1219.8" font-family="Times,serif" font-size="14.00">Step #0 (Agent &#160;0)</text>
</g>
<g id="clust2" class="cluster">
<title>cluster1</title>
<polygon fill="none" stroke="black" points="1110,-944 1110,-1235 1752,-1235 1752,-944 1110,-944"/>
<text text-anchor="middle" x="1431" y="-1219.8" font-family="Times,serif" font-size="14.00">Step #1 (Agent &#160;0)</text>
</g>
<g id="clust3" class="cluster">
<title>cluster2</title>
<polygon fill="none" stroke="black" points="1760,-1160 1760,-1235 1956,-1235 1956,-1160 1760,-1160"/>
<text text-anchor="middle" x="1858" y="-1219.8" font-family="Times,serif" font-size="14.00">Step #2 (Agent &#160;0)</text>
</g>
<g id="clust4" class="cluster">
<title>cluster3</title>
<polygon fill="none" stroke="black" points="1964,-8 1964,-1235 3343,-1235 3343,-8 1964,-8"/>
<text text-anchor="middle" x="2653.5" y="-1219.8" font-family="Times,serif" font-size="14.00">Step #3 (Agent &#160;0)</text>
</g>
<!-- f_0_726207081 -->
<g id="node1" class="node">
<title>f_0_726207081</title>
<polygon fill="#d95f02" stroke="black" points="577.5,-1204 458.5,-1204 458.5,-1168 577.5,-1168 577.5,-1204"/>
<text text-anchor="middle" x="518" y="-1182.3" font-family="Times,serif" font-size="14.00">fn_client_hello</text>
</g>
<!-- f_0_2890011186 -->
<g id="node2" class="node">
<title>f_0_2890011186</title>
<polygon fill="#1b9e77" stroke="black" points="189.5,-1132 16.5,-1132 16.5,-1096 189.5,-1096 189.5,-1132"/>
<text text-anchor="middle" x="103" y="-1110.3" font-family="Times,serif" font-size="14.00">fn_protocol_version12</text>
</g>
<!-- f_0_726207081&#45;&gt;f_0_2890011186 -->
<g id="edge1" class="edge">
<title>f_0_726207081&#45;&gt;f_0_2890011186</title>
<path fill="none" stroke="black" d="M458.29,-1175.27C396.31,-1165.13 296.25,-1148.64 199.55,-1132.08"/>
<polygon fill="black" stroke="black" points="200.05,-1128.62 189.6,-1130.38 198.86,-1135.52 200.05,-1128.62"/>
</g>
<!-- f_0_877157617 -->
<g id="node3" class="node">
<title>f_0_877157617</title>
<polygon fill="#1b9e77" stroke="black" points="336,-1132 208,-1132 208,-1096 336,-1096 336,-1132"/>
<text text-anchor="middle" x="272" y="-1110.3" font-family="Times,serif" font-size="14.00">fn_new_random</text>
</g>
<!-- f_0_726207081&#45;&gt;f_0_877157617 -->
<g id="edge2" class="edge">
<title>f_0_726207081&#45;&gt;f_0_877157617</title>
<path fill="none" stroke="black" d="M458.45,-1168.05C423.21,-1158.03 378.39,-1145.27 341.53,-1134.79"/>
<polygon fill="black" stroke="black" points="342.43,-1131.4 331.85,-1132.03 340.51,-1138.13 342.43,-1131.4"/>
</g>
<!-- f_0_1315278738 -->
<g id="node4" class="node">
<title>f_0_1315278738</title>
<polygon fill="#1b9e77" stroke="black" points="500,-1132 354,-1132 354,-1096 500,-1096 500,-1132"/>
<text text-anchor="middle" x="427" y="-1110.3" font-family="Times,serif" font-size="14.00">fn_new_session_id</text>
</g>
<!-- f_0_726207081&#45;&gt;f_0_1315278738 -->
<g id="edge3" class="edge">
<title>f_0_726207081&#45;&gt;f_0_1315278738</title>
<path fill="none" stroke="black" d="M495.51,-1167.7C484.04,-1158.88 469.94,-1148.03 457.52,-1138.47"/>
<polygon fill="black" stroke="black" points="459.3,-1135.43 449.24,-1132.1 455.03,-1140.98 459.3,-1135.43"/>
</g>
<!-- f_0_282519763 -->
<g id="node5" class="node">
<title>f_0_282519763</title>
<polygon fill="#d95f02" stroke="black" points="702,-1132 518,-1132 518,-1096 702,-1096 702,-1132"/>
<text text-anchor="middle" x="610" y="-1110.3" font-family="Times,serif" font-size="14.00">fn_append_cipher_suite</text>
</g>
<!-- f_0_726207081&#45;&gt;f_0_282519763 -->
<g id="edge4" class="edge">
<title>f_0_726207081&#45;&gt;f_0_282519763</title>
<path fill="none" stroke="black" d="M540.74,-1167.7C552.44,-1158.8 566.86,-1147.82 579.51,-1138.2"/>
<polygon fill="black" stroke="black" points="581.68,-1140.94 587.52,-1132.1 577.44,-1135.37 581.68,-1140.94"/>
</g>
<!-- f_0_3758561294 -->
<g id="node8" class="node">
<title>f_0_3758561294</title>
<polygon fill="#1b9e77" stroke="black" points="855.5,-1132 720.5,-1132 720.5,-1096 855.5,-1096 855.5,-1132"/>
<text text-anchor="middle" x="788" y="-1110.3" font-family="Times,serif" font-size="14.00">fn_compressions</text>
</g>
<!-- f_0_726207081&#45;&gt;f_0_3758561294 -->
<g id="edge7" class="edge">
<title>f_0_726207081&#45;&gt;f_0_3758561294</title>
<path fill="none" stroke="black" d="M577.59,-1169.55C617.35,-1159.24 669.97,-1145.6 712.64,-1134.54"/>
<polygon fill="black" stroke="black" points="713.62,-1137.9 722.42,-1132 711.86,-1131.12 713.62,-1137.9"/>
</g>
<!-- f_0_174878079 -->
<g id="node9" class="node">
<title>f_0_174878079</title>
<polygon fill="#d95f02" stroke="black" points="1094,-1132 874,-1132 874,-1096 1094,-1096 1094,-1132"/>
<text text-anchor="middle" x="984" y="-1110.3" font-family="Times,serif" font-size="14.00">fn_client_extensions_append</text>
</g>
<!-- f_0_726207081&#45;&gt;f_0_174878079 -->
<g id="edge8" class="edge">
<title>f_0_726207081&#45;&gt;f_0_174878079</title>
<path fill="none" stroke="black" d="M577.97,-1175.99C649.95,-1165.18 772.41,-1146.78 864.06,-1133.02"/>
<polygon fill="black" stroke="black" points="864.59,-1136.48 873.96,-1131.53 863.55,-1129.55 864.59,-1136.48"/>
</g>
<!-- f_0_3274885013 -->
<g id="node6" class="node">
<title>f_0_3274885013</title>
<polygon fill="#1b9e77" stroke="black" points="382,-1060 214,-1060 214,-1024 382,-1024 382,-1060"/>
<text text-anchor="middle" x="298" y="-1038.3" font-family="Times,serif" font-size="14.00">fn_new_cipher_suites</text>
</g>
<!-- f_0_282519763&#45;&gt;f_0_3274885013 -->
<g id="edge5" class="edge">
<title>f_0_282519763&#45;&gt;f_0_3274885013</title>
<path fill="none" stroke="black" d="M534.08,-1095.97C488.69,-1085.78 430.9,-1072.82 383.86,-1062.26"/>
<polygon fill="black" stroke="black" points="384.52,-1058.82 373.99,-1060.05 382.99,-1065.65 384.52,-1058.82"/>
</g>
<!-- f_0_1518039309 -->
<g id="node7" class="node">
<title>f_0_1518039309</title>
<polygon fill="#1b9e77" stroke="black" points="543.5,-1060 400.5,-1060 400.5,-1024 543.5,-1024 543.5,-1060"/>
<text text-anchor="middle" x="472" y="-1038.3" font-family="Times,serif" font-size="14.00">fn_cipher_suite12</text>
</g>
<!-- f_0_282519763&#45;&gt;f_0_1518039309 -->
<g id="edge6" class="edge">
<title>f_0_282519763&#45;&gt;f_0_1518039309</title>
<path fill="none" stroke="black" d="M576.24,-1095.88C557.78,-1086.51 534.72,-1074.81 514.98,-1064.8"/>
<polygon fill="black" stroke="black" points="516.39,-1061.59 505.89,-1060.19 513.22,-1067.83 516.39,-1061.59"/>
</g>
<!-- f_0_3957914554 -->
<g id="node10" class="node">
<title>f_0_3957914554</title>
<polygon fill="#d95f02" stroke="black" points="782,-1060 562,-1060 562,-1024 782,-1024 782,-1060"/>
<text text-anchor="middle" x="672" y="-1038.3" font-family="Times,serif" font-size="14.00">fn_client_extensions_append</text>
</g>
<!-- f_0_174878079&#45;&gt;f_0_3957914554 -->
<g id="edge9" class="edge">
<title>f_0_174878079&#45;&gt;f_0_3957914554</title>
<path fill="none" stroke="black" d="M908.08,-1095.97C862.69,-1085.78 804.9,-1072.82 757.86,-1062.26"/>
<polygon fill="black" stroke="black" points="758.52,-1058.82 747.99,-1060.05 756.99,-1065.65 758.52,-1058.82"/>
</g>
<!-- f_0_839219826 -->
<g id="node22" class="node">
<title>f_0_839219826</title>
<polygon fill="#1b9e77" stroke="black" points="1093.5,-1060 800.5,-1060 800.5,-1024 1093.5,-1024 1093.5,-1060"/>
<text text-anchor="middle" x="947" y="-1038.3" font-family="Times,serif" font-size="14.00">fn_signature_algorithm_cert_extension</text>
</g>
<!-- f_0_174878079&#45;&gt;f_0_839219826 -->
<g id="edge21" class="edge">
<title>f_0_174878079&#45;&gt;f_0_839219826</title>
<path fill="none" stroke="black" d="M974.85,-1095.7C970.6,-1087.64 965.44,-1077.89 960.73,-1068.98"/>
<polygon fill="black" stroke="black" points="963.81,-1067.31 956.04,-1060.1 957.62,-1070.58 963.81,-1067.31"/>
</g>
<!-- f_0_814774466 -->
<g id="node11" class="node">
<title>f_0_814774466</title>
<polygon fill="#d95f02" stroke="black" points="531,-988 311,-988 311,-952 531,-952 531,-988"/>
<text text-anchor="middle" x="421" y="-966.3" font-family="Times,serif" font-size="14.00">fn_client_extensions_append</text>
</g>
<!-- f_0_3957914554&#45;&gt;f_0_814774466 -->
<g id="edge10" class="edge">
<title>f_0_3957914554&#45;&gt;f_0_814774466</title>
<path fill="none" stroke="black" d="M610.92,-1023.97C575.09,-1013.97 529.64,-1001.3 492.19,-990.85"/>
<polygon fill="black" stroke="black" points="492.93,-987.43 482.35,-988.11 491.05,-994.17 492.93,-987.43"/>
</g>
<!-- f_0_3374766641 -->
<g id="node20" class="node">
<title>f_0_3374766641</title>
<polygon fill="#d95f02" stroke="black" points="797.5,-988 554.5,-988 554.5,-952 797.5,-952 797.5,-988"/>
<text text-anchor="middle" x="676" y="-966.3" font-family="Times,serif" font-size="14.00">fn_renegotiation_info_extension</text>
</g>
<!-- f_0_3957914554&#45;&gt;f_0_3374766641 -->
<g id="edge19" class="edge">
<title>f_0_3957914554&#45;&gt;f_0_3374766641</title>
<path fill="none" stroke="black" d="M672.99,-1023.7C673.43,-1015.98 673.96,-1006.71 674.45,-998.11"/>
<polygon fill="black" stroke="black" points="677.95,-998.29 675.02,-988.1 670.96,-997.89 677.95,-998.29"/>
</g>
<!-- f_0_3784349730 -->
<g id="node12" class="node">
<title>f_0_3784349730</title>
<polygon fill="#d95f02" stroke="black" points="241,-916 21,-916 21,-880 241,-880 241,-916"/>
<text text-anchor="middle" x="131" y="-894.3" font-family="Times,serif" font-size="14.00">fn_client_extensions_append</text>
</g>
<!-- f_0_814774466&#45;&gt;f_0_3784349730 -->
<g id="edge11" class="edge">
<title>f_0_814774466&#45;&gt;f_0_3784349730</title>
<path fill="none" stroke="black" d="M350.43,-951.97C308.51,-941.85 255.21,-928.98 211.63,-918.46"/>
<polygon fill="black" stroke="black" points="212.18,-914.99 201.64,-916.05 210.54,-921.8 212.18,-914.99"/>
</g>
<!-- f_0_1103220437 -->
<g id="node19" class="node">
<title>f_0_1103220437</title>
<polygon fill="#1b9e77" stroke="black" points="582.5,-916 259.5,-916 259.5,-880 582.5,-880 582.5,-916"/>
<text text-anchor="middle" x="421" y="-894.3" font-family="Times,serif" font-size="14.00">fn_signed_certificate_timestamp_extension</text>
</g>
<!-- f_0_814774466&#45;&gt;f_0_1103220437 -->
<g id="edge18" class="edge">
<title>f_0_814774466&#45;&gt;f_0_1103220437</title>
<path fill="none" stroke="black" d="M421,-951.7C421,-943.98 421,-934.71 421,-926.11"/>
<polygon fill="black" stroke="black" points="424.5,-926.1 421,-916.1 417.5,-926.1 424.5,-926.1"/>
</g>
<!-- f_0_1165875517 -->
<g id="node13" class="node">
<title>f_0_1165875517</title>
<polygon fill="#d95f02" stroke="black" points="240,-844 20,-844 20,-808 240,-808 240,-844"/>
<text text-anchor="middle" x="130" y="-822.3" font-family="Times,serif" font-size="14.00">fn_client_extensions_append</text>
</g>
<!-- f_0_3784349730&#45;&gt;f_0_1165875517 -->
<g id="edge12" class="edge">
<title>f_0_3784349730&#45;&gt;f_0_1165875517</title>
<path fill="none" stroke="black" d="M130.75,-879.7C130.64,-871.98 130.51,-862.71 130.39,-854.11"/>
<polygon fill="black" stroke="black" points="133.89,-854.05 130.24,-844.1 126.89,-854.15 133.89,-854.05"/>
</g>
<!-- f_0_2604143052 -->
<g id="node18" class="node">
<title>f_0_2604143052</title>
<polygon fill="#1b9e77" stroke="black" points="493.5,-844 258.5,-844 258.5,-808 493.5,-808 493.5,-844"/>
<text text-anchor="middle" x="376" y="-822.3" font-family="Times,serif" font-size="14.00">fn_ec_point_formats_extension</text>
</g>
<!-- f_0_3784349730&#45;&gt;f_0_2604143052 -->
<g id="edge17" class="edge">
<title>f_0_3784349730&#45;&gt;f_0_2604143052</title>
<path fill="none" stroke="black" d="M190.62,-879.97C225.45,-870.01 269.58,-857.41 306.04,-846.99"/>
<polygon fill="black" stroke="black" points="307.46,-850.22 316.11,-844.11 305.54,-843.49 307.46,-850.22"/>
</g>
<!-- f_0_4019001366 -->
<g id="node14" class="node">
<title>f_0_4019001366</title>
<polygon fill="#d95f02" stroke="black" points="239,-772 19,-772 19,-736 239,-736 239,-772"/>
<text text-anchor="middle" x="129" y="-750.3" font-family="Times,serif" font-size="14.00">fn_client_extensions_append</text>
</g>
<!-- f_0_1165875517&#45;&gt;f_0_4019001366 -->
<g id="edge13" class="edge">
<title>f_0_1165875517&#45;&gt;f_0_4019001366</title>
<path fill="none" stroke="black" d="M129.75,-807.7C129.64,-799.98 129.51,-790.71 129.39,-782.11"/>
<polygon fill="black" stroke="black" points="132.89,-782.05 129.24,-772.1 125.89,-782.15 132.89,-782.05"/>
</g>
<!-- f_0_2283367821 -->
<g id="node17" class="node">
<title>f_0_2283367821</title>
<polygon fill="#1b9e77" stroke="black" points="515,-772 257,-772 257,-736 515,-736 515,-772"/>
<text text-anchor="middle" x="386" y="-750.3" font-family="Times,serif" font-size="14.00">fn_signature_algorithm_extension</text>
</g>
<!-- f_0_1165875517&#45;&gt;f_0_2283367821 -->
<g id="edge16" class="edge">
<title>f_0_1165875517&#45;&gt;f_0_2283367821</title>
<path fill="none" stroke="black" d="M192.3,-807.97C228.84,-797.97 275.19,-785.3 313.39,-774.85"/>
<polygon fill="black" stroke="black" points="314.7,-778.12 323.42,-772.11 312.85,-771.37 314.7,-778.12"/>
</g>
<!-- f_0_311529677 -->
<g id="node15" class="node">
<title>f_0_311529677</title>
<polygon fill="#1b9e77" stroke="black" points="220.5,-700 23.5,-700 23.5,-664 220.5,-664 220.5,-700"/>
<text text-anchor="middle" x="122" y="-678.3" font-family="Times,serif" font-size="14.00">fn_client_extensions_new</text>
</g>
<!-- f_0_4019001366&#45;&gt;f_0_311529677 -->
<g id="edge14" class="edge">
<title>f_0_4019001366&#45;&gt;f_0_311529677</title>
<path fill="none" stroke="black" d="M127.27,-735.7C126.5,-727.98 125.57,-718.71 124.71,-710.11"/>
<polygon fill="black" stroke="black" points="128.19,-709.71 123.71,-700.1 121.22,-710.4 128.19,-709.71"/>
</g>
<!-- f_0_1233563431 -->
<g id="node16" class="node">
<title>f_0_1233563431</title>
<polygon fill="#1b9e77" stroke="black" points="537.5,-700 238.5,-700 238.5,-664 537.5,-664 537.5,-700"/>
<text text-anchor="middle" x="388" y="-678.3" font-family="Times,serif" font-size="14.00">fn_secp384r1_support_group_extension</text>
</g>
<!-- f_0_4019001366&#45;&gt;f_0_1233563431 -->
<g id="edge15" class="edge">
<title>f_0_4019001366&#45;&gt;f_0_1233563431</title>
<path fill="none" stroke="black" d="M192.03,-735.97C229.16,-725.93 276.3,-713.19 315.03,-702.72"/>
<polygon fill="black" stroke="black" points="315.95,-706.1 324.69,-700.11 314.12,-699.34 315.95,-706.1"/>
</g>
<!-- f_0_2195777420 -->
<g id="node21" class="node">
<title>f_0_2195777420</title>
<polygon fill="#1b9e77" stroke="black" points="759.5,-916 600.5,-916 600.5,-880 759.5,-880 759.5,-916"/>
<text text-anchor="middle" x="680" y="-894.3" font-family="Times,serif" font-size="14.00">fn_empty_bytes_vec</text>
</g>
<!-- f_0_3374766641&#45;&gt;f_0_2195777420 -->
<g id="edge20" class="edge">
<title>f_0_3374766641&#45;&gt;f_0_2195777420</title>
<path fill="none" stroke="black" d="M676.99,-951.7C677.43,-943.98 677.96,-934.71 678.45,-926.11"/>
<polygon fill="black" stroke="black" points="681.95,-926.29 679.02,-916.1 674.96,-925.89 681.95,-926.29"/>
</g>
<!-- f_1_4016363772 -->
<g id="node23" class="node">
<title>f_1_4016363772</title>
<polygon fill="#d95f02" stroke="black" points="1522.5,-1204 1339.5,-1204 1339.5,-1168 1522.5,-1168 1522.5,-1204"/>
<text text-anchor="middle" x="1431" y="-1182.3" font-family="Times,serif" font-size="14.00">fn_client_key_exchange</text>
</g>
<!-- f_1_240995190 -->
<g id="node24" class="node">
<title>f_1_240995190</title>
<polygon fill="#d95f02" stroke="black" points="1502.5,-1132 1359.5,-1132 1359.5,-1096 1502.5,-1096 1502.5,-1132"/>
<text text-anchor="middle" x="1431" y="-1110.3" font-family="Times,serif" font-size="14.00">fn_new_pubkey12</text>
</g>
<!-- f_1_4016363772&#45;&gt;f_1_240995190 -->
<g id="edge22" class="edge">
<title>f_1_4016363772&#45;&gt;f_1_240995190</title>
<path fill="none" stroke="black" d="M1431,-1167.7C1431,-1159.98 1431,-1150.71 1431,-1142.11"/>
<polygon fill="black" stroke="black" points="1434.5,-1142.1 1431,-1132.1 1427.5,-1142.1 1434.5,-1142.1"/>
</g>
<!-- f_1_1780453026 -->
<g id="node25" class="node">
<title>f_1_1780453026</title>
<polygon fill="#d95f02" stroke="black" points="1525,-1060 1337,-1060 1337,-1024 1525,-1024 1525,-1060"/>
<text text-anchor="middle" x="1431" y="-1038.3" font-family="Times,serif" font-size="14.00">fn_decode_ecdh_params</text>
</g>
<!-- f_1_240995190&#45;&gt;f_1_1780453026 -->
<g id="edge23" class="edge">
<title>f_1_240995190&#45;&gt;f_1_1780453026</title>
<path fill="none" stroke="black" d="M1431,-1095.7C1431,-1087.98 1431,-1078.71 1431,-1070.11"/>
<polygon fill="black" stroke="black" points="1434.5,-1070.1 1431,-1060.1 1427.5,-1070.1 1434.5,-1070.1"/>
</g>
<!-- v_1_3293992990 -->
<g id="node26" class="node">
<title>v_1_3293992990</title>
<ellipse fill="#1b9e77" stroke="black" cx="1431" cy="-970" rx="313.04" ry="18"/>
<text text-anchor="middle" x="1431" y="-966.3" font-family="Times,serif" font-size="14.00">[@0:Some(Handshake(Some(ServerKeyExchange)))#0]/Vec&lt;u8&gt;</text>
</g>
<!-- f_1_1780453026&#45;&gt;v_1_3293992990 -->
<g id="edge24" class="edge">
<title>f_1_1780453026&#45;&gt;v_1_3293992990</title>
<path fill="none" stroke="black" d="M1431,-1023.7C1431,-1015.98 1431,-1006.71 1431,-998.11"/>
<polygon fill="black" stroke="black" points="1434.5,-998.1 1431,-988.1 1427.5,-998.1 1434.5,-998.1"/>
</g>
<!-- f_2_3148274734 -->
<g id="node27" class="node">
<title>f_2_3148274734</title>
<polygon fill="#1b9e77" stroke="black" points="1947.5,-1204 1768.5,-1204 1768.5,-1168 1947.5,-1168 1947.5,-1204"/>
<text text-anchor="middle" x="1858" y="-1182.3" font-family="Times,serif" font-size="14.00">fn_change_cipher_spec</text>
</g>
<!-- f_3_3135171391 -->
<g id="node28" class="node">
<title>f_3_3135171391</title>
<polygon fill="#d95f02" stroke="black" points="2986,-1204 2876,-1204 2876,-1168 2986,-1168 2986,-1204"/>
<text text-anchor="middle" x="2931" y="-1182.3" font-family="Times,serif" font-size="14.00">fn_encrypt12</text>
</g>
<!-- f_3_2932150696 -->
<g id="node29" class="node">
<title>f_3_2932150696</title>
<polygon fill="#d95f02" stroke="black" points="2547.5,-1132 2452.5,-1132 2452.5,-1096 2547.5,-1096 2547.5,-1132"/>
<text text-anchor="middle" x="2500" y="-1110.3" font-family="Times,serif" font-size="14.00">fn_finished</text>
</g>
<!-- f_3_3135171391&#45;&gt;f_3_2932150696 -->
<g id="edge25" class="edge">
<title>f_3_3135171391&#45;&gt;f_3_2932150696</title>
<path fill="none" stroke="black" d="M2875.72,-1179.77C2804.34,-1172.44 2676.2,-1157.34 2557.73,-1131.97"/>
<polygon fill="black" stroke="black" points="2558.27,-1128.51 2547.76,-1129.81 2556.79,-1135.35 2558.27,-1128.51"/>
</g>
<!-- v_3_1559071042 -->
<g id="node71" class="node">
<title>v_3_1559071042</title>
<ellipse fill="#1b9e77" stroke="black" cx="2772" cy="-1114" rx="206.06" ry="18"/>
<text text-anchor="middle" x="2772" y="-1110.3" font-family="Times,serif" font-size="14.00">[@0:Some(Handshake(None))#0]/Random</text>
</g>
<!-- f_3_3135171391&#45;&gt;v_3_1559071042 -->
<g id="edge67" class="edge">
<title>f_3_3135171391&#45;&gt;v_3_1559071042</title>
<path fill="none" stroke="black" d="M2892.1,-1167.88C2870.13,-1158.2 2842.49,-1146.03 2819.27,-1135.81"/>
<polygon fill="black" stroke="black" points="2820.51,-1132.53 2809.95,-1131.71 2817.69,-1138.94 2820.51,-1132.53"/>
</g>
<!-- f_3_3335562843 -->
<g id="node72" class="node">
<title>f_3_3335562843</title>
<polygon fill="#d95f02" stroke="black" points="3184,-1132 2996,-1132 2996,-1096 3184,-1096 3184,-1132"/>
<text text-anchor="middle" x="3090" y="-1110.3" font-family="Times,serif" font-size="14.00">fn_decode_ecdh_params</text>
</g>
<!-- f_3_3135171391&#45;&gt;f_3_3335562843 -->
<g id="edge68" class="edge">
<title>f_3_3135171391&#45;&gt;f_3_3335562843</title>
<path fill="none" stroke="black" d="M2969.9,-1167.88C2991.63,-1158.31 3018.9,-1146.3 3041.96,-1136.15"/>
<polygon fill="black" stroke="black" points="3043.49,-1139.3 3051.23,-1132.07 3040.67,-1132.89 3043.49,-1139.3"/>
</g>
<!-- f_3_1002144542 -->
<g id="node74" class="node">
<title>f_3_1002144542</title>
<polygon fill="#1b9e77" stroke="black" points="3280,-1132 3202,-1132 3202,-1096 3280,-1096 3280,-1132"/>
<text text-anchor="middle" x="3241" y="-1110.3" font-family="Times,serif" font-size="14.00">fn_seq_0</text>
</g>
<!-- f_3_3135171391&#45;&gt;f_3_1002144542 -->
<g id="edge70" class="edge">
<title>f_3_3135171391&#45;&gt;f_3_1002144542</title>
<path fill="none" stroke="black" d="M2986.23,-1176.16C3037.43,-1167.44 3115.8,-1152.76 3192.08,-1132.06"/>
<polygon fill="black" stroke="black" points="3193.14,-1135.4 3201.85,-1129.37 3191.28,-1128.65 3193.14,-1135.4"/>
</g>
<!-- f_3_3556388057 -->
<g id="node30" class="node">
<title>f_3_3556388057</title>
<polygon fill="#d95f02" stroke="black" points="2573,-1060 2427,-1060 2427,-1024 2573,-1024 2573,-1060"/>
<text text-anchor="middle" x="2500" y="-1038.3" font-family="Times,serif" font-size="14.00">fn_sign_transcript</text>
</g>
<!-- f_3_2932150696&#45;&gt;f_3_3556388057 -->
<g id="edge26" class="edge">
<title>f_3_2932150696&#45;&gt;f_3_3556388057</title>
<path fill="none" stroke="black" d="M2500,-1095.7C2500,-1087.98 2500,-1078.71 2500,-1070.11"/>
<polygon fill="black" stroke="black" points="2503.5,-1070.1 2500,-1060.1 2496.5,-1070.1 2503.5,-1070.1"/>
</g>
<!-- v_3_965804666 -->
<g id="node31" class="node">
<title>v_3_965804666</title>
<ellipse fill="#1b9e77" stroke="black" cx="2182" cy="-970" rx="206.06" ry="18"/>
<text text-anchor="middle" x="2182" y="-966.3" font-family="Times,serif" font-size="14.00">[@0:Some(Handshake(None))#0]/Random</text>
</g>
<!-- f_3_3556388057&#45;&gt;v_3_965804666 -->
<g id="edge27" class="edge">
<title>f_3_3556388057&#45;&gt;v_3_965804666</title>
<path fill="none" stroke="black" d="M2426.65,-1024.85C2378.07,-1014.16 2314.28,-1000.12 2264.03,-989.06"/>
<polygon fill="black" stroke="black" points="2264.68,-985.62 2254.16,-986.89 2263.18,-992.45 2264.68,-985.62"/>
</g>
<!-- f_3_2404916821 -->
<g id="node32" class="node">
<title>f_3_2404916821</title>
<polygon fill="#d95f02" stroke="black" points="2594,-988 2406,-988 2406,-952 2594,-952 2594,-988"/>
<text text-anchor="middle" x="2500" y="-966.3" font-family="Times,serif" font-size="14.00">fn_decode_ecdh_params</text>
</g>
<!-- f_3_3556388057&#45;&gt;f_3_2404916821 -->
<g id="edge28" class="edge">
<title>f_3_3556388057&#45;&gt;f_3_2404916821</title>
<path fill="none" stroke="black" d="M2500,-1023.7C2500,-1015.98 2500,-1006.71 2500,-998.11"/>
<polygon fill="black" stroke="black" points="2503.5,-998.1 2500,-988.1 2496.5,-998.1 2503.5,-998.1"/>
</g>
<!-- f_3_2952994817 -->
<g id="node34" class="node">
<title>f_3_2952994817</title>
<polygon fill="#d95f02" stroke="black" points="2784,-988 2616,-988 2616,-952 2784,-952 2784,-988"/>
<text text-anchor="middle" x="2700" y="-966.3" font-family="Times,serif" font-size="14.00">fn_append_transcript</text>
</g>
<!-- f_3_3556388057&#45;&gt;f_3_2952994817 -->
<g id="edge30" class="edge">
<title>f_3_3556388057&#45;&gt;f_3_2952994817</title>
<path fill="none" stroke="black" d="M2548.67,-1023.97C2576.61,-1014.19 2611.9,-1001.84 2641.36,-991.52"/>
<polygon fill="black" stroke="black" points="2642.83,-994.72 2651.11,-988.11 2640.52,-988.11 2642.83,-994.72"/>
</g>
<!-- v_3_2720671337 -->
<g id="node33" class="node">
<title>v_3_2720671337</title>
<ellipse fill="#1b9e77" stroke="black" cx="2285" cy="-898" rx="313.04" ry="18"/>
<text text-anchor="middle" x="2285" y="-894.3" font-family="Times,serif" font-size="14.00">[@0:Some(Handshake(Some(ServerKeyExchange)))#0]/Vec&lt;u8&gt;</text>
</g>
<!-- f_3_2404916821&#45;&gt;v_3_2720671337 -->
<g id="edge29" class="edge">
<title>f_3_2404916821&#45;&gt;v_3_2720671337</title>
<path fill="none" stroke="black" d="M2447.68,-951.97C2417.15,-942.03 2378.48,-929.44 2346.5,-919.02"/>
<polygon fill="black" stroke="black" points="2347.4,-915.64 2336.81,-915.87 2345.23,-922.29 2347.4,-915.64"/>
</g>
<!-- f_3_580916046 -->
<g id="node35" class="node">
<title>f_3_580916046</title>
<polygon fill="#d95f02" stroke="black" points="2784,-916 2616,-916 2616,-880 2784,-880 2784,-916"/>
<text text-anchor="middle" x="2700" y="-894.3" font-family="Times,serif" font-size="14.00">fn_append_transcript</text>
</g>
<!-- f_3_2952994817&#45;&gt;f_3_580916046 -->
<g id="edge31" class="edge">
<title>f_3_2952994817&#45;&gt;f_3_580916046</title>
<path fill="none" stroke="black" d="M2700,-951.7C2700,-943.98 2700,-934.71 2700,-926.11"/>
<polygon fill="black" stroke="black" points="2703.5,-926.1 2700,-916.1 2696.5,-926.1 2703.5,-926.1"/>
</g>
<!-- f_3_3822798657 -->
<g id="node67" class="node">
<title>f_3_3822798657</title>
<polygon fill="#d95f02" stroke="black" points="3073.5,-916 2890.5,-916 2890.5,-880 3073.5,-880 3073.5,-916"/>
<text text-anchor="middle" x="2982" y="-894.3" font-family="Times,serif" font-size="14.00">fn_client_key_exchange</text>
</g>
<!-- f_3_2952994817&#45;&gt;f_3_3822798657 -->
<g id="edge63" class="edge">
<title>f_3_2952994817&#45;&gt;f_3_3822798657</title>
<path fill="none" stroke="black" d="M2768.62,-951.97C2809.31,-941.87 2861.03,-929.03 2903.36,-918.52"/>
<polygon fill="black" stroke="black" points="2904.21,-921.92 2913.07,-916.11 2902.52,-915.12 2904.21,-921.92"/>
</g>
<!-- f_3_2723470615 -->
<g id="node36" class="node">
<title>f_3_2723470615</title>
<polygon fill="#d95f02" stroke="black" points="2370,-844 2202,-844 2202,-808 2370,-808 2370,-844"/>
<text text-anchor="middle" x="2286" y="-822.3" font-family="Times,serif" font-size="14.00">fn_append_transcript</text>
</g>
<!-- f_3_580916046&#45;&gt;f_3_2723470615 -->
<g id="edge32" class="edge">
<title>f_3_580916046&#45;&gt;f_3_2723470615</title>
<path fill="none" stroke="black" d="M2615.87,-881.53C2612.88,-881.01 2609.91,-880.5 2607,-880 2509.03,-863.31 2481.81,-861.34 2380.2,-844.18"/>
<polygon fill="black" stroke="black" points="2380.58,-840.7 2370.13,-842.47 2379.41,-847.6 2380.58,-840.7"/>
</g>
<!-- v_3_79429963 -->
<g id="node66" class="node">
<title>v_3_79429963</title>
<ellipse fill="#1b9e77" stroke="black" cx="2684" cy="-826" rx="296.25" ry="18"/>
<text text-anchor="middle" x="2684" y="-822.3" font-family="Times,serif" font-size="14.00">[@0:Some(Handshake(Some(ServerHelloDone)))#0]/Message</text>
</g>
<!-- f_3_580916046&#45;&gt;v_3_79429963 -->
<g id="edge62" class="edge">
<title>f_3_580916046&#45;&gt;v_3_79429963</title>
<path fill="none" stroke="black" d="M2696.04,-879.7C2694.28,-871.98 2692.16,-862.71 2690.2,-854.11"/>
<polygon fill="black" stroke="black" points="2693.55,-853.07 2687.91,-844.1 2686.73,-854.63 2693.55,-853.07"/>
</g>
<!-- f_3_839809889 -->
<g id="node37" class="node">
<title>f_3_839809889</title>
<polygon fill="#d95f02" stroke="black" points="2237,-772 2069,-772 2069,-736 2237,-736 2237,-772"/>
<text text-anchor="middle" x="2153" y="-750.3" font-family="Times,serif" font-size="14.00">fn_append_transcript</text>
</g>
<!-- f_3_2723470615&#45;&gt;f_3_839809889 -->
<g id="edge33" class="edge">
<title>f_3_2723470615&#45;&gt;f_3_839809889</title>
<path fill="none" stroke="black" d="M2253.46,-807.88C2235.75,-798.55 2213.65,-786.92 2194.68,-776.94"/>
<polygon fill="black" stroke="black" points="2196.14,-773.75 2185.66,-772.19 2192.88,-779.94 2196.14,-773.75"/>
</g>
<!-- v_3_147516760 -->
<g id="node65" class="node">
<title>v_3_147516760</title>
<ellipse fill="#1b9e77" stroke="black" cx="2566" cy="-754" rx="311.14" ry="18"/>
<text text-anchor="middle" x="2566" y="-750.3" font-family="Times,serif" font-size="14.00">[@0:Some(Handshake(Some(ServerKeyExchange)))#0]/Message</text>
</g>
<!-- f_3_2723470615&#45;&gt;v_3_147516760 -->
<g id="edge61" class="edge">
<title>f_3_2723470615&#45;&gt;v_3_147516760</title>
<path fill="none" stroke="black" d="M2354.14,-807.97C2395.14,-797.72 2447.42,-784.65 2489.78,-774.05"/>
<polygon fill="black" stroke="black" points="2490.64,-777.45 2499.49,-771.63 2488.94,-770.66 2490.64,-777.45"/>
</g>
<!-- f_3_2195810300 -->
<g id="node38" class="node">
<title>f_3_2195810300</title>
<polygon fill="#d95f02" stroke="black" points="2140,-700 1972,-700 1972,-664 2140,-664 2140,-700"/>
<text text-anchor="middle" x="2056" y="-678.3" font-family="Times,serif" font-size="14.00">fn_append_transcript</text>
</g>
<!-- f_3_839809889&#45;&gt;f_3_2195810300 -->
<g id="edge34" class="edge">
<title>f_3_839809889&#45;&gt;f_3_2195810300</title>
<path fill="none" stroke="black" d="M2129.02,-735.7C2116.69,-726.8 2101.48,-715.82 2088.15,-706.2"/>
<polygon fill="black" stroke="black" points="2089.86,-703.12 2079.7,-700.1 2085.76,-708.79 2089.86,-703.12"/>
</g>
<!-- v_3_2388351083 -->
<g id="node64" class="node">
<title>v_3_2388351083</title>
<ellipse fill="#1b9e77" stroke="black" cx="2424" cy="-682" rx="266.45" ry="18"/>
<text text-anchor="middle" x="2424" y="-678.3" font-family="Times,serif" font-size="14.00">[@0:Some(Handshake(Some(Certificate)))#0]/Message</text>
</g>
<!-- f_3_839809889&#45;&gt;v_3_2388351083 -->
<g id="edge60" class="edge">
<title>f_3_839809889&#45;&gt;v_3_2388351083</title>
<path fill="none" stroke="black" d="M2218.95,-735.97C2258.61,-725.72 2309.17,-712.66 2350.16,-702.07"/>
<polygon fill="black" stroke="black" points="2351.29,-705.4 2360.1,-699.51 2349.54,-698.62 2351.29,-705.4"/>
</g>
<!-- f_3_3493224718 -->
<g id="node39" class="node">
<title>f_3_3493224718</title>
<polygon fill="#d95f02" stroke="black" points="2140,-628 1972,-628 1972,-592 2140,-592 2140,-628"/>
<text text-anchor="middle" x="2056" y="-606.3" font-family="Times,serif" font-size="14.00">fn_append_transcript</text>
</g>
<!-- f_3_2195810300&#45;&gt;f_3_3493224718 -->
<g id="edge35" class="edge">
<title>f_3_2195810300&#45;&gt;f_3_3493224718</title>
<path fill="none" stroke="black" d="M2056,-663.7C2056,-655.98 2056,-646.71 2056,-638.11"/>
<polygon fill="black" stroke="black" points="2059.5,-638.1 2056,-628.1 2052.5,-638.1 2059.5,-638.1"/>
</g>
<!-- v_3_416863737 -->
<g id="node63" class="node">
<title>v_3_416863737</title>
<ellipse fill="#1b9e77" stroke="black" cx="2430" cy="-610" rx="272.15" ry="18"/>
<text text-anchor="middle" x="2430" y="-606.3" font-family="Times,serif" font-size="14.00">[@0:Some(Handshake(Some(ServerHello)))#0]/Message</text>
</g>
<!-- f_3_2195810300&#45;&gt;v_3_416863737 -->
<g id="edge59" class="edge">
<title>f_3_2195810300&#45;&gt;v_3_416863737</title>
<path fill="none" stroke="black" d="M2115.81,-663.94C2126.8,-661.09 2138.21,-658.31 2149,-656 2200.3,-645.03 2257.39,-635.42 2306.64,-627.92"/>
<polygon fill="black" stroke="black" points="2307.33,-631.36 2316.7,-626.41 2306.29,-624.44 2307.33,-631.36"/>
</g>
<!-- f_3_1695864070 -->
<g id="node40" class="node">
<title>f_3_1695864070</title>
<polygon fill="#1b9e77" stroke="black" points="2137.5,-556 1974.5,-556 1974.5,-520 2137.5,-520 2137.5,-556"/>
<text text-anchor="middle" x="2056" y="-534.3" font-family="Times,serif" font-size="14.00">fn_new_transcript12</text>
</g>
<!-- f_3_3493224718&#45;&gt;f_3_1695864070 -->
<g id="edge36" class="edge">
<title>f_3_3493224718&#45;&gt;f_3_1695864070</title>
<path fill="none" stroke="black" d="M2056,-591.7C2056,-583.98 2056,-574.71 2056,-566.11"/>
<polygon fill="black" stroke="black" points="2059.5,-566.1 2056,-556.1 2052.5,-566.1 2059.5,-566.1"/>
</g>
<!-- f_3_792503451 -->
<g id="node41" class="node">
<title>f_3_792503451</title>
<polygon fill="#d95f02" stroke="black" points="2442.5,-556 2323.5,-556 2323.5,-520 2442.5,-520 2442.5,-556"/>
<text text-anchor="middle" x="2383" y="-534.3" font-family="Times,serif" font-size="14.00">fn_client_hello</text>
</g>
<!-- f_3_3493224718&#45;&gt;f_3_792503451 -->
<g id="edge37" class="edge">
<title>f_3_3493224718&#45;&gt;f_3_792503451</title>
<path fill="none" stroke="black" d="M2135.58,-591.97C2190.01,-580.31 2261.47,-565.01 2313.6,-553.86"/>
<polygon fill="black" stroke="black" points="2314.38,-557.27 2323.42,-551.75 2312.91,-550.42 2314.38,-557.27"/>
</g>
<!-- f_3_2220637008 -->
<g id="node42" class="node">
<title>f_3_2220637008</title>
<polygon fill="#1b9e77" stroke="black" points="2145.5,-484 1972.5,-484 1972.5,-448 2145.5,-448 2145.5,-484"/>
<text text-anchor="middle" x="2059" y="-462.3" font-family="Times,serif" font-size="14.00">fn_protocol_version12</text>
</g>
<!-- f_3_792503451&#45;&gt;f_3_2220637008 -->
<g id="edge38" class="edge">
<title>f_3_792503451&#45;&gt;f_3_2220637008</title>
<path fill="none" stroke="black" d="M2323.2,-524.08C2273.95,-513.44 2203.41,-498.2 2147.6,-486.14"/>
<polygon fill="black" stroke="black" points="2148.23,-482.7 2137.72,-484.01 2146.75,-489.54 2148.23,-482.7"/>
</g>
<!-- f_3_1311512934 -->
<g id="node43" class="node">
<title>f_3_1311512934</title>
<polygon fill="#1b9e77" stroke="black" points="2292,-484 2164,-484 2164,-448 2292,-448 2292,-484"/>
<text text-anchor="middle" x="2228" y="-462.3" font-family="Times,serif" font-size="14.00">fn_new_random</text>
</g>
<!-- f_3_792503451&#45;&gt;f_3_1311512934 -->
<g id="edge39" class="edge">
<title>f_3_792503451&#45;&gt;f_3_1311512934</title>
<path fill="none" stroke="black" d="M2345.08,-519.88C2323.99,-510.35 2297.54,-498.41 2275.13,-488.28"/>
<polygon fill="black" stroke="black" points="2276.35,-484.99 2265.79,-484.07 2273.47,-491.37 2276.35,-484.99"/>
</g>
<!-- f_3_2176458420 -->
<g id="node44" class="node">
<title>f_3_2176458420</title>
<polygon fill="#1b9e77" stroke="black" points="2456,-484 2310,-484 2310,-448 2456,-448 2456,-484"/>
<text text-anchor="middle" x="2383" y="-462.3" font-family="Times,serif" font-size="14.00">fn_new_session_id</text>
</g>
<!-- f_3_792503451&#45;&gt;f_3_2176458420 -->
<g id="edge40" class="edge">
<title>f_3_792503451&#45;&gt;f_3_2176458420</title>
<path fill="none" stroke="black" d="M2383,-519.7C2383,-511.98 2383,-502.71 2383,-494.11"/>
<polygon fill="black" stroke="black" points="2386.5,-494.1 2383,-484.1 2379.5,-494.1 2386.5,-494.1"/>
</g>
<!-- f_3_4294395433 -->
<g id="node45" class="node">
<title>f_3_4294395433</title>
<polygon fill="#d95f02" stroke="black" points="2658,-484 2474,-484 2474,-448 2658,-448 2658,-484"/>
<text text-anchor="middle" x="2566" y="-462.3" font-family="Times,serif" font-size="14.00">fn_append_cipher_suite</text>
</g>
<!-- f_3_792503451&#45;&gt;f_3_4294395433 -->
<g id="edge41" class="edge">
<title>f_3_792503451&#45;&gt;f_3_4294395433</title>
<path fill="none" stroke="black" d="M2427.77,-519.88C2453.12,-510.18 2485.01,-497.98 2511.77,-487.74"/>
<polygon fill="black" stroke="black" points="2513.29,-490.91 2521.38,-484.07 2510.79,-484.37 2513.29,-490.91"/>
</g>
<!-- f_3_3717923200 -->
<g id="node48" class="node">
<title>f_3_3717923200</title>
<polygon fill="#1b9e77" stroke="black" points="2811.5,-484 2676.5,-484 2676.5,-448 2811.5,-448 2811.5,-484"/>
<text text-anchor="middle" x="2744" y="-462.3" font-family="Times,serif" font-size="14.00">fn_compressions</text>
</g>
<!-- f_3_792503451&#45;&gt;f_3_3717923200 -->
<g id="edge44" class="edge">
<title>f_3_792503451&#45;&gt;f_3_3717923200</title>
<path fill="none" stroke="black" d="M2442.67,-526.45C2498.03,-516.53 2582.94,-500.98 2666.5,-484.07"/>
<polygon fill="black" stroke="black" points="2667.32,-487.47 2676.42,-482.05 2665.92,-480.61 2667.32,-487.47"/>
</g>
<!-- f_3_1779974941 -->
<g id="node49" class="node">
<title>f_3_1779974941</title>
<polygon fill="#d95f02" stroke="black" points="3050,-484 2830,-484 2830,-448 3050,-448 3050,-484"/>
<text text-anchor="middle" x="2940" y="-462.3" font-family="Times,serif" font-size="14.00">fn_client_extensions_append</text>
</g>
<!-- f_3_792503451&#45;&gt;f_3_1779974941 -->
<g id="edge45" class="edge">
<title>f_3_792503451&#45;&gt;f_3_1779974941</title>
<path fill="none" stroke="black" d="M2442.56,-530.2C2524.9,-520.72 2678.42,-502.7 2819.65,-484.16"/>
<polygon fill="black" stroke="black" points="2820.34,-487.6 2829.79,-482.83 2819.42,-480.66 2820.34,-487.6"/>
</g>
<!-- f_3_459385429 -->
<g id="node46" class="node">
<title>f_3_459385429</title>
<polygon fill="#1b9e77" stroke="black" points="2519,-412 2351,-412 2351,-376 2519,-376 2519,-412"/>
<text text-anchor="middle" x="2435" y="-390.3" font-family="Times,serif" font-size="14.00">fn_new_cipher_suites</text>
</g>
<!-- f_3_4294395433&#45;&gt;f_3_459385429 -->
<g id="edge42" class="edge">
<title>f_3_4294395433&#45;&gt;f_3_459385429</title>
<path fill="none" stroke="black" d="M2533.95,-447.88C2516.51,-438.55 2494.73,-426.92 2476.06,-416.94"/>
<polygon fill="black" stroke="black" points="2477.64,-413.82 2467.17,-412.19 2474.34,-419.99 2477.64,-413.82"/>
</g>
<!-- f_3_421016911 -->
<g id="node47" class="node">
<title>f_3_421016911</title>
<polygon fill="#1b9e77" stroke="black" points="2680.5,-412 2537.5,-412 2537.5,-376 2680.5,-376 2680.5,-412"/>
<text text-anchor="middle" x="2609" y="-390.3" font-family="Times,serif" font-size="14.00">fn_cipher_suite12</text>
</g>
<!-- f_3_4294395433&#45;&gt;f_3_421016911 -->
<g id="edge43" class="edge">
<title>f_3_4294395433&#45;&gt;f_3_421016911</title>
<path fill="none" stroke="black" d="M2576.63,-447.7C2581.63,-439.56 2587.69,-429.69 2593.21,-420.7"/>
<polygon fill="black" stroke="black" points="2596.24,-422.46 2598.49,-412.1 2590.28,-418.79 2596.24,-422.46"/>
</g>
<!-- f_3_2604078203 -->
<g id="node50" class="node">
<title>f_3_2604078203</title>
<polygon fill="#d95f02" stroke="black" points="2979,-412 2759,-412 2759,-376 2979,-376 2979,-412"/>
<text text-anchor="middle" x="2869" y="-390.3" font-family="Times,serif" font-size="14.00">fn_client_extensions_append</text>
</g>
<!-- f_3_1779974941&#45;&gt;f_3_2604078203 -->
<g id="edge46" class="edge">
<title>f_3_1779974941&#45;&gt;f_3_2604078203</title>
<path fill="none" stroke="black" d="M2922.45,-447.7C2913.77,-439.14 2903.14,-428.66 2893.65,-419.3"/>
<polygon fill="black" stroke="black" points="2895.93,-416.63 2886.35,-412.1 2891.01,-421.62 2895.93,-416.63"/>
</g>
<!-- f_3_4140102923 -->
<g id="node62" class="node">
<title>f_3_4140102923</title>
<polygon fill="#1b9e77" stroke="black" points="3290.5,-412 2997.5,-412 2997.5,-376 3290.5,-376 3290.5,-412"/>
<text text-anchor="middle" x="3144" y="-390.3" font-family="Times,serif" font-size="14.00">fn_signature_algorithm_cert_extension</text>
</g>
<!-- f_3_1779974941&#45;&gt;f_3_4140102923 -->
<g id="edge58" class="edge">
<title>f_3_1779974941&#45;&gt;f_3_4140102923</title>
<path fill="none" stroke="black" d="M2989.64,-447.97C3018.27,-438.14 3054.45,-425.73 3084.58,-415.39"/>
<polygon fill="black" stroke="black" points="3085.81,-418.67 3094.13,-412.11 3083.54,-412.05 3085.81,-418.67"/>
</g>
<!-- f_3_2457629467 -->
<g id="node51" class="node">
<title>f_3_2457629467</title>
<polygon fill="#d95f02" stroke="black" points="2843,-340 2623,-340 2623,-304 2843,-304 2843,-340"/>
<text text-anchor="middle" x="2733" y="-318.3" font-family="Times,serif" font-size="14.00">fn_client_extensions_append</text>
</g>
<!-- f_3_2604078203&#45;&gt;f_3_2457629467 -->
<g id="edge47" class="edge">
<title>f_3_2604078203&#45;&gt;f_3_2457629467</title>
<path fill="none" stroke="black" d="M2835.73,-375.88C2817.54,-366.51 2794.81,-354.81 2775.36,-344.8"/>
<polygon fill="black" stroke="black" points="2776.89,-341.65 2766.4,-340.19 2773.69,-347.88 2776.89,-341.65"/>
</g>
<!-- f_3_46955638 -->
<g id="node60" class="node">
<title>f_3_46955638</title>
<polygon fill="#d95f02" stroke="black" points="3109.5,-340 2866.5,-340 2866.5,-304 3109.5,-304 3109.5,-340"/>
<text text-anchor="middle" x="2988" y="-318.3" font-family="Times,serif" font-size="14.00">fn_renegotiation_info_extension</text>
</g>
<!-- f_3_2604078203&#45;&gt;f_3_46955638 -->
<g id="edge56" class="edge">
<title>f_3_2604078203&#45;&gt;f_3_46955638</title>
<path fill="none" stroke="black" d="M2898.11,-375.88C2913.67,-366.72 2933.02,-355.34 2949.78,-345.48"/>
<polygon fill="black" stroke="black" points="2951.93,-348.28 2958.78,-340.19 2948.38,-342.24 2951.93,-348.28"/>
</g>
<!-- f_3_2314756696 -->
<g id="node52" class="node">
<title>f_3_2314756696</title>
<polygon fill="#d95f02" stroke="black" points="2553,-268 2333,-268 2333,-232 2553,-232 2553,-268"/>
<text text-anchor="middle" x="2443" y="-246.3" font-family="Times,serif" font-size="14.00">fn_client_extensions_append</text>
</g>
<!-- f_3_2457629467&#45;&gt;f_3_2314756696 -->
<g id="edge48" class="edge">
<title>f_3_2457629467&#45;&gt;f_3_2314756696</title>
<path fill="none" stroke="black" d="M2662.43,-303.97C2620.51,-293.85 2567.21,-280.98 2523.63,-270.46"/>
<polygon fill="black" stroke="black" points="2524.18,-266.99 2513.64,-268.05 2522.54,-273.8 2524.18,-266.99"/>
</g>
<!-- f_3_3083039963 -->
<g id="node59" class="node">
<title>f_3_3083039963</title>
<polygon fill="#1b9e77" stroke="black" points="2894.5,-268 2571.5,-268 2571.5,-232 2894.5,-232 2894.5,-268"/>
<text text-anchor="middle" x="2733" y="-246.3" font-family="Times,serif" font-size="14.00">fn_signed_certificate_timestamp_extension</text>
</g>
<!-- f_3_2457629467&#45;&gt;f_3_3083039963 -->
<g id="edge55" class="edge">
<title>f_3_2457629467&#45;&gt;f_3_3083039963</title>
<path fill="none" stroke="black" d="M2733,-303.7C2733,-295.98 2733,-286.71 2733,-278.11"/>
<polygon fill="black" stroke="black" points="2736.5,-278.1 2733,-268.1 2729.5,-278.1 2736.5,-278.1"/>
</g>
<!-- f_3_1420444779 -->
<g id="node53" class="node">
<title>f_3_1420444779</title>
<polygon fill="#d95f02" stroke="black" points="2527,-196 2307,-196 2307,-160 2527,-160 2527,-196"/>
<text text-anchor="middle" x="2417" y="-174.3" font-family="Times,serif" font-size="14.00">fn_client_extensions_append</text>
</g>
<!-- f_3_2314756696&#45;&gt;f_3_1420444779 -->
<g id="edge49" class="edge">
<title>f_3_2314756696&#45;&gt;f_3_1420444779</title>
<path fill="none" stroke="black" d="M2436.57,-231.7C2433.64,-223.81 2430.11,-214.3 2426.86,-205.55"/>
<polygon fill="black" stroke="black" points="2430.12,-204.26 2423.35,-196.1 2423.55,-206.7 2430.12,-204.26"/>
</g>
<!-- f_3_1366841769 -->
<g id="node58" class="node">
<title>f_3_1366841769</title>
<polygon fill="#1b9e77" stroke="black" points="2780.5,-196 2545.5,-196 2545.5,-160 2780.5,-160 2780.5,-196"/>
<text text-anchor="middle" x="2663" y="-174.3" font-family="Times,serif" font-size="14.00">fn_ec_point_formats_extension</text>
</g>
<!-- f_3_2314756696&#45;&gt;f_3_1366841769 -->
<g id="edge54" class="edge">
<title>f_3_2314756696&#45;&gt;f_3_1366841769</title>
<path fill="none" stroke="black" d="M2496.54,-231.97C2527.54,-222.1 2566.76,-209.62 2599.34,-199.25"/>
<polygon fill="black" stroke="black" points="2600.76,-202.48 2609.22,-196.11 2598.63,-195.81 2600.76,-202.48"/>
</g>
<!-- f_3_823874538 -->
<g id="node54" class="node">
<title>f_3_823874538</title>
<polygon fill="#d95f02" stroke="black" points="2475,-124 2255,-124 2255,-88 2475,-88 2475,-124"/>
<text text-anchor="middle" x="2365" y="-102.3" font-family="Times,serif" font-size="14.00">fn_client_extensions_append</text>
</g>
<!-- f_3_1420444779&#45;&gt;f_3_823874538 -->
<g id="edge50" class="edge">
<title>f_3_1420444779&#45;&gt;f_3_823874538</title>
<path fill="none" stroke="black" d="M2404.15,-159.7C2397.97,-151.39 2390.46,-141.28 2383.68,-132.14"/>
<polygon fill="black" stroke="black" points="2386.48,-130.04 2377.71,-124.1 2380.86,-134.22 2386.48,-130.04"/>
</g>
<!-- f_3_3389681640 -->
<g id="node57" class="node">
<title>f_3_3389681640</title>
<polygon fill="#1b9e77" stroke="black" points="2751,-124 2493,-124 2493,-88 2751,-88 2751,-124"/>
<text text-anchor="middle" x="2622" y="-102.3" font-family="Times,serif" font-size="14.00">fn_signature_algorithm_extension</text>
</g>
<!-- f_3_1420444779&#45;&gt;f_3_3389681640 -->
<g id="edge53" class="edge">
<title>f_3_1420444779&#45;&gt;f_3_3389681640</title>
<path fill="none" stroke="black" d="M2466.89,-159.97C2495.65,-150.14 2532.01,-137.73 2562.29,-127.39"/>
<polygon fill="black" stroke="black" points="2563.56,-130.65 2571.89,-124.11 2561.3,-124.03 2563.56,-130.65"/>
</g>
<!-- f_3_1464681693 -->
<g id="node55" class="node">
<title>f_3_1464681693</title>
<polygon fill="#1b9e77" stroke="black" points="2274.5,-52 2077.5,-52 2077.5,-16 2274.5,-16 2274.5,-52"/>
<text text-anchor="middle" x="2176" y="-30.3" font-family="Times,serif" font-size="14.00">fn_client_extensions_new</text>
</g>
<!-- f_3_823874538&#45;&gt;f_3_1464681693 -->
<g id="edge51" class="edge">
<title>f_3_823874538&#45;&gt;f_3_1464681693</title>
<path fill="none" stroke="black" d="M2318.77,-87.88C2292.47,-78.14 2259.36,-65.87 2231.64,-55.61"/>
<polygon fill="black" stroke="black" points="2232.68,-52.26 2222.08,-52.07 2230.25,-58.82 2232.68,-52.26"/>
</g>
<!-- f_3_1801862433 -->
<g id="node56" class="node">
<title>f_3_1801862433</title>
<polygon fill="#1b9e77" stroke="black" points="2591.5,-52 2292.5,-52 2292.5,-16 2591.5,-16 2591.5,-52"/>
<text text-anchor="middle" x="2442" y="-30.3" font-family="Times,serif" font-size="14.00">fn_secp384r1_support_group_extension</text>
</g>
<!-- f_3_823874538&#45;&gt;f_3_1801862433 -->
<g id="edge52" class="edge">
<title>f_3_823874538&#45;&gt;f_3_1801862433</title>
<path fill="none" stroke="black" d="M2384.03,-87.7C2393.54,-79.05 2405.21,-68.45 2415.57,-59.03"/>
<polygon fill="black" stroke="black" points="2418.14,-61.42 2423.19,-52.1 2413.43,-56.24 2418.14,-61.42"/>
</g>
<!-- f_3_3643133828 -->
<g id="node61" class="node">
<title>f_3_3643133828</title>
<polygon fill="#1b9e77" stroke="black" points="3071.5,-268 2912.5,-268 2912.5,-232 3071.5,-232 3071.5,-268"/>
<text text-anchor="middle" x="2992" y="-246.3" font-family="Times,serif" font-size="14.00">fn_empty_bytes_vec</text>
</g>
<!-- f_3_46955638&#45;&gt;f_3_3643133828 -->
<g id="edge57" class="edge">
<title>f_3_46955638&#45;&gt;f_3_3643133828</title>
<path fill="none" stroke="black" d="M2988.99,-303.7C2989.43,-295.98 2989.96,-286.71 2990.45,-278.11"/>
<polygon fill="black" stroke="black" points="2993.95,-278.29 2991.02,-268.1 2986.96,-277.89 2993.95,-278.29"/>
</g>
<!-- f_3_989816779 -->
<g id="node68" class="node">
<title>f_3_989816779</title>
<polygon fill="#d95f02" stroke="black" points="3141.5,-844 2998.5,-844 2998.5,-808 3141.5,-808 3141.5,-844"/>
<text text-anchor="middle" x="3070" y="-822.3" font-family="Times,serif" font-size="14.00">fn_new_pubkey12</text>
</g>
<!-- f_3_3822798657&#45;&gt;f_3_989816779 -->
<g id="edge64" class="edge">
<title>f_3_3822798657&#45;&gt;f_3_989816779</title>
<path fill="none" stroke="black" d="M3003.75,-879.7C3014.84,-870.88 3028.47,-860.03 3040.49,-850.47"/>
<polygon fill="black" stroke="black" points="3042.85,-853.07 3048.5,-844.1 3038.49,-847.59 3042.85,-853.07"/>
</g>
<!-- f_3_4245950176 -->
<g id="node69" class="node">
<title>f_3_4245950176</title>
<polygon fill="#d95f02" stroke="black" points="3148,-772 2960,-772 2960,-736 3148,-736 3148,-772"/>
<text text-anchor="middle" x="3054" y="-750.3" font-family="Times,serif" font-size="14.00">fn_decode_ecdh_params</text>
</g>
<!-- f_3_989816779&#45;&gt;f_3_4245950176 -->
<g id="edge65" class="edge">
<title>f_3_989816779&#45;&gt;f_3_4245950176</title>
<path fill="none" stroke="black" d="M3066.04,-807.7C3064.28,-799.98 3062.16,-790.71 3060.2,-782.11"/>
<polygon fill="black" stroke="black" points="3063.55,-781.07 3057.91,-772.1 3056.73,-782.63 3063.55,-781.07"/>
</g>
<!-- v_3_1031760432 -->
<g id="node70" class="node">
<title>v_3_1031760432</title>
<ellipse fill="#1b9e77" stroke="black" cx="3022" cy="-682" rx="313.04" ry="18"/>
<text text-anchor="middle" x="3022" y="-678.3" font-family="Times,serif" font-size="14.00">[@0:Some(Handshake(Some(ServerKeyExchange)))#0]/Vec&lt;u8&gt;</text>
</g>
<!-- f_3_4245950176&#45;&gt;v_3_1031760432 -->
<g id="edge66" class="edge">
<title>f_3_4245950176&#45;&gt;v_3_1031760432</title>
<path fill="none" stroke="black" d="M3046.09,-735.7C3042.45,-727.73 3038.05,-718.1 3034.01,-709.26"/>
<polygon fill="black" stroke="black" points="3037.16,-707.74 3029.82,-700.1 3030.79,-710.65 3037.16,-707.74"/>
</g>
<!-- v_3_3164886636 -->
<g id="node73" class="node">
<title>v_3_3164886636</title>
<ellipse fill="#1b9e77" stroke="black" cx="3090" cy="-1042" rx="211.46" ry="18"/>
<text text-anchor="middle" x="3090" y="-1038.3" font-family="Times,serif" font-size="14.00">[@0:Some(Handshake(None))#0]/Vec&lt;u8&gt;</text>
</g>
<!-- f_3_3335562843&#45;&gt;v_3_3164886636 -->
<g id="edge69" class="edge">
<title>f_3_3335562843&#45;&gt;v_3_3164886636</title>
<path fill="none" stroke="black" d="M3090,-1095.7C3090,-1087.98 3090,-1078.71 3090,-1070.11"/>
<polygon fill="black" stroke="black" points="3093.5,-1070.1 3090,-1060.1 3086.5,-1070.1 3093.5,-1070.1"/>
</g>
</g>
</svg>
