<?xml version="1.0" encoding="UTF-8" standalone="no"?>
<!DOCTYPE svg PUBLIC "-//W3C//DTD SVG 1.1//EN"
 "http://www.w3.org/Graphics/SVG/1.1/DTD/svg11.dtd">
<!-- Generated by graphviz version 2.48.0 (0)
 -->
<!-- Title: Trace Pages: 1 -->
<svg width="10989pt" height="171pt"
 viewBox="0.00 0.00 10989.00 171.00" xmlns="http://www.w3.org/2000/svg" xmlns:xlink="http://www.w3.org/1999/xlink">
<g id="graph0" class="graph" transform="scale(1 1) rotate(0) translate(4 167)">
<title>Trace</title>
<polygon fill="white" stroke="transparent" points="-4,4 -4,-167 10985,-167 10985,4 -4,4"/>
<g id="clust1" class="cluster">
<title>cluster0</title>
<polygon fill="none" stroke="black" points="8,-80 8,-155 158,-155 158,-80 8,-80"/>
<text text-anchor="middle" x="83" y="-139.8" font-family="Times,serif" font-size="14.00">Step #0 (Agent &#160;0)</text>
</g>
<g id="clust2" class="cluster">
<title>cluster1</title>
<polygon fill="none" stroke="black" points="166,-8 166,-155 3752,-155 3752,-8 166,-8"/>
<text text-anchor="middle" x="1959" y="-139.8" font-family="Times,serif" font-size="14.00">Step #1 (Agent &#160;1)</text>
</g>
<g id="clust3" class="cluster">
<title>cluster2</title>
<polygon fill="none" stroke="black" points="3760,-8 3760,-155 6830,-155 6830,-8 3760,-8"/>
<text text-anchor="middle" x="5295" y="-139.8" font-family="Times,serif" font-size="14.00">Step #2 (Agent &#160;0)</text>
</g>
<g id="clust4" class="cluster">
<title>cluster3</title>
<polygon fill="none" stroke="black" points="6838,-8 6838,-155 7452,-155 7452,-8 6838,-8"/>
<text text-anchor="middle" x="7145" y="-139.8" font-family="Times,serif" font-size="14.00">Step #3 (Agent &#160;0)</text>
</g>
<g id="clust5" class="cluster">
<title>cluster4</title>
<polygon fill="none" stroke="black" points="7460,-8 7460,-155 8094,-155 8094,-8 7460,-8"/>
<text text-anchor="middle" x="7777" y="-139.8" font-family="Times,serif" font-size="14.00">Step #4 (Agent &#160;0)</text>
</g>
<g id="clust6" class="cluster">
<title>cluster5</title>
<polygon fill="none" stroke="black" points="8102,-80 8102,-155 8284,-155 8284,-80 8102,-80"/>
<text text-anchor="middle" x="8193" y="-139.8" font-family="Times,serif" font-size="14.00">Step #5 (Agent &#160;0)</text>
</g>
<g id="clust7" class="cluster">
<title>cluster6</title>
<polygon fill="none" stroke="black" points="8292,-8 8292,-155 8918,-155 8918,-8 8292,-8"/>
<text text-anchor="middle" x="8605" y="-139.8" font-family="Times,serif" font-size="14.00">Step #6 (Agent &#160;1)</text>
</g>
<g id="clust8" class="cluster">
<title>cluster7</title>
<polygon fill="none" stroke="black" points="8926,-80 8926,-155 9122,-155 9122,-80 8926,-80"/>
<text text-anchor="middle" x="9024" y="-139.8" font-family="Times,serif" font-size="14.00">Step #7 (Agent &#160;1)</text>
</g>
<g id="clust9" class="cluster">
<title>cluster8</title>
<polygon fill="none" stroke="black" points="9130,-8 9130,-155 9444,-155 9444,-8 9130,-8"/>
<text text-anchor="middle" x="9287" y="-139.8" font-family="Times,serif" font-size="14.00">Step #8 (Agent &#160;1)</text>
</g>
<g id="clust10" class="cluster">
<title>cluster9</title>
<polygon fill="none" stroke="black" points="9452,-8 9452,-155 10447,-155 10447,-8 9452,-8"/>
<text text-anchor="middle" x="9949.5" y="-139.8" font-family="Times,serif" font-size="14.00">Step #9 (Agent &#160;0)</text>
</g>
<g id="clust11" class="cluster">
<title>cluster10</title>
<polygon fill="none" stroke="black" points="10455,-80 10455,-155 10651,-155 10651,-80 10455,-80"/>
<text text-anchor="middle" x="10553" y="-139.8" font-family="Times,serif" font-size="14.00">Step #10 (Agent &#160;0)</text>
</g>
<g id="clust12" class="cluster">
<title>cluster11</title>
<polygon fill="none" stroke="black" points="10659,-8 10659,-155 10973,-155 10973,-8 10659,-8"/>
<text text-anchor="middle" x="10816" y="-139.8" font-family="Times,serif" font-size="14.00">Step #11 (Agent &#160;0)</text>
</g>
<g id="node1" class="node">
<title></title>
<ellipse fill="none" stroke="transparent" cx="83" cy="-106" rx="27" ry="18"/>
</g>
<!-- f_1_1755947383 -->
<g id="node2" class="node">
<title>f_1_1755947383</title>
<polygon fill="#d95f02" stroke="black" points="1644.5,-124 1525.5,-124 1525.5,-88 1644.5,-88 1644.5,-124"/>
<text text-anchor="middle" x="1585" y="-102.3" font-family="Times,serif" font-size="14.00">fn_client_hello</text>
</g>
<!-- v_1_776138536 -->
<g id="node3" class="node">
<title>v_1_776138536</title>
<ellipse fill="#1b9e77" stroke="black" cx="411" cy="-34" rx="236.66" ry="18"/>
<text text-anchor="middle" x="411" y="-30.3" font-family="Times,serif" font-size="14.00">[(0, 0)/Some(Handshake(None))]/ProtocolVersion</text>
</g>
<!-- f_1_1755947383&#45;&gt;v_1_776138536 -->
<g id="edge1" class="edge">
<title>f_1_1755947383&#45;&gt;v_1_776138536</title>
<path fill="none" stroke="black" d="M1525.27,-101.84C1377.83,-93.97 984.74,-72.68 657,-52 634.67,-50.59 611.2,-49.05 588,-47.49"/>
<polygon fill="black" stroke="black" points="587.93,-43.97 577.71,-46.79 587.46,-50.96 587.93,-43.97"/>
</g>
<!-- v_1_1349254037 -->
<g id="node4" class="node">
<title>v_1_1349254037</title>
<ellipse fill="#1b9e77" stroke="black" cx="867" cy="-34" rx="201.46" ry="18"/>
<text text-anchor="middle" x="867" y="-30.3" font-family="Times,serif" font-size="14.00">[(0, 0)/Some(Handshake(None))]/Random</text>
</g>
<!-- f_1_1755947383&#45;&gt;v_1_1349254037 -->
<g id="edge2" class="edge">
<title>f_1_1755947383&#45;&gt;v_1_1349254037</title>
<path fill="none" stroke="black" d="M1525.33,-99.18C1412.55,-88.19 1165.34,-64.09 1008.02,-48.75"/>
<polygon fill="black" stroke="black" points="1008.08,-45.24 997.79,-47.75 1007.4,-52.2 1008.08,-45.24"/>
</g>
<!-- v_1_323630972 -->
<g id="node5" class="node">
<title>v_1_323630972</title>
<ellipse fill="#1b9e77" stroke="black" cx="1296" cy="-34" rx="209.86" ry="18"/>
<text text-anchor="middle" x="1296" y="-30.3" font-family="Times,serif" font-size="14.00">[(0, 0)/Some(Handshake(None))]/SessionID</text>
</g>
<!-- f_1_1755947383&#45;&gt;v_1_323630972 -->
<g id="edge3" class="edge">
<title>f_1_1755947383&#45;&gt;v_1_323630972</title>
<path fill="none" stroke="black" d="M1525.47,-90.58C1481.2,-79.86 1420.42,-65.14 1372.53,-53.54"/>
<polygon fill="black" stroke="black" points="1373.06,-50.06 1362.52,-51.11 1371.42,-56.87 1373.06,-50.06"/>
</g>
<!-- v_1_521095832 -->
<g id="node6" class="node">
<title>v_1_521095832</title>
<ellipse fill="#1b9e77" stroke="black" cx="1874" cy="-34" rx="350.14" ry="18"/>
<text text-anchor="middle" x="1874" y="-30.3" font-family="Times,serif" font-size="14.00">[(0, 0)/Some(Handshake(None))]/Vec&lt;rustls::msgs::enums::CipherSuite&gt;</text>
</g>
<!-- f_1_1755947383&#45;&gt;v_1_521095832 -->
<g id="edge4" class="edge">
<title>f_1_1755947383&#45;&gt;v_1_521095832</title>
<path fill="none" stroke="black" d="M1644.53,-90.58C1688.11,-80.03 1747.68,-65.6 1795.21,-54.09"/>
<polygon fill="black" stroke="black" points="1796.26,-57.43 1805.15,-51.68 1794.61,-50.63 1796.26,-57.43"/>
</g>
<!-- v_1_2486495798 -->
<g id="node7" class="node">
<title>v_1_2486495798</title>
<ellipse fill="#1b9e77" stroke="black" cx="2597" cy="-34" rx="354.74" ry="18"/>
<text text-anchor="middle" x="2597" y="-30.3" font-family="Times,serif" font-size="14.00">[(0, 0)/Some(Handshake(None))]/Vec&lt;rustls::msgs::enums::Compression&gt;</text>
</g>
<!-- f_1_1755947383&#45;&gt;v_1_2486495798 -->
<g id="edge5" class="edge">
<title>f_1_1755947383&#45;&gt;v_1_2486495798</title>
<path fill="none" stroke="black" d="M1644.53,-100.88C1786.75,-91.04 2151.9,-65.79 2386.52,-49.56"/>
<polygon fill="black" stroke="black" points="2386.82,-53.05 2396.55,-48.86 2386.33,-46.06 2386.82,-53.05"/>
</g>
<!-- v_1_435032693 -->
<g id="node8" class="node">
<title>v_1_435032693</title>
<ellipse fill="#1b9e77" stroke="black" cx="3357" cy="-34" rx="387.23" ry="18"/>
<text text-anchor="middle" x="3357" y="-30.3" font-family="Times,serif" font-size="14.00">[(0, 0)/Some(Handshake(None))]/Vec&lt;rustls::msgs::handshake::ClientExtension&gt;</text>
</g>
<!-- f_1_1755947383&#45;&gt;v_1_435032693 -->
<g id="edge6" class="edge">
<title>f_1_1755947383&#45;&gt;v_1_435032693</title>
<path fill="none" stroke="black" d="M1644.68,-102.8C1836.06,-95.7 2451.61,-72.74 2961,-52 2997.84,-50.5 3036.61,-48.88 3074.89,-47.26"/>
<polygon fill="black" stroke="black" points="3075.3,-50.75 3085.14,-46.83 3075,-43.76 3075.3,-50.75"/>
</g>
<!-- f_2_2300463262 -->
<g id="node9" class="node">
<title>f_2_2300463262</title>
<polygon fill="#d95f02" stroke="black" points="5175.5,-124 5050.5,-124 5050.5,-88 5175.5,-88 5175.5,-124"/>
<text text-anchor="middle" x="5113" y="-102.3" font-family="Times,serif" font-size="14.00">fn_server_hello</text>
</g>
<!-- v_2_3400149010 -->
<g id="node10" class="node">
<title>v_2_3400149010</title>
<ellipse fill="#1b9e77" stroke="black" cx="4005" cy="-34" rx="236.66" ry="18"/>
<text text-anchor="middle" x="4005" y="-30.3" font-family="Times,serif" font-size="14.00">[(1, 0)/Some(Handshake(None))]/ProtocolVersion</text>
</g>
<!-- f_2_2300463262&#45;&gt;v_2_3400149010 -->
<g id="edge7" class="edge">
<title>f_2_2300463262&#45;&gt;v_2_3400149010</title>
<path fill="none" stroke="black" d="M5050.26,-101.31C4908.04,-92.9 4550.23,-71.54 4251,-52 4228.86,-50.55 4205.6,-49 4182.58,-47.43"/>
<polygon fill="black" stroke="black" points="4182.6,-43.93 4172.38,-46.74 4182.12,-50.91 4182.6,-43.93"/>
</g>
<!-- v_2_688583046 -->
<g id="node11" class="node">
<title>v_2_688583046</title>
<ellipse fill="#1b9e77" stroke="black" cx="4461" cy="-34" rx="201.46" ry="18"/>
<text text-anchor="middle" x="4461" y="-30.3" font-family="Times,serif" font-size="14.00">[(1, 0)/Some(Handshake(None))]/Random</text>
</g>
<!-- f_2_2300463262&#45;&gt;v_2_688583046 -->
<g id="edge8" class="edge">
<title>f_2_2300463262&#45;&gt;v_2_688583046</title>
<path fill="none" stroke="black" d="M5050.48,-98.29C4946.08,-87.08 4734,-64.31 4594.74,-49.36"/>
<polygon fill="black" stroke="black" points="4594.74,-45.84 4584.43,-48.25 4593.99,-52.8 4594.74,-45.84"/>
</g>
<!-- v_2_2753087891 -->
<g id="node12" class="node">
<title>v_2_2753087891</title>
<ellipse fill="#1b9e77" stroke="black" cx="4890" cy="-34" rx="209.86" ry="18"/>
<text text-anchor="middle" x="4890" y="-30.3" font-family="Times,serif" font-size="14.00">[(1, 0)/Some(Handshake(None))]/SessionID</text>
</g>
<!-- f_2_2300463262&#45;&gt;v_2_2753087891 -->
<g id="edge9" class="edge">
<title>f_2_2300463262&#45;&gt;v_2_2753087891</title>
<path fill="none" stroke="black" d="M5058.73,-87.97C5026.58,-77.87 4985.72,-65.05 4952.26,-54.54"/>
<polygon fill="black" stroke="black" points="4953.17,-51.16 4942.58,-51.51 4951.08,-57.84 4953.17,-51.16"/>
</g>
<!-- v_2_2409615139 -->
<g id="node13" class="node">
<title>v_2_2409615139</title>
<ellipse fill="#1b9e77" stroke="black" cx="5337" cy="-34" rx="219.06" ry="18"/>
<text text-anchor="middle" x="5337" y="-30.3" font-family="Times,serif" font-size="14.00">[(1, 0)/Some(Handshake(None))]/CipherSuite</text>
</g>
<!-- f_2_2300463262&#45;&gt;v_2_2409615139 -->
<g id="edge10" class="edge">
<title>f_2_2300463262&#45;&gt;v_2_2409615139</title>
<path fill="none" stroke="black" d="M5167.51,-87.97C5199.81,-77.87 5240.85,-65.05 5274.46,-54.54"/>
<polygon fill="black" stroke="black" points="5275.68,-57.83 5284.18,-51.51 5273.59,-51.15 5275.68,-57.83"/>
</g>
<!-- v_2_135351248 -->
<g id="node14" class="node">
<title>v_2_135351248</title>
<ellipse fill="#1b9e77" stroke="black" cx="5798" cy="-34" rx="223.66" ry="18"/>
<text text-anchor="middle" x="5798" y="-30.3" font-family="Times,serif" font-size="14.00">[(1, 0)/Some(Handshake(None))]/Compression</text>
</g>
<!-- f_2_2300463262&#45;&gt;v_2_135351248 -->
<g id="edge11" class="edge">
<title>f_2_2300463262&#45;&gt;v_2_135351248</title>
<path fill="none" stroke="black" d="M5175.61,-98.6C5283.68,-87.56 5507.84,-64.65 5655.56,-49.56"/>
<polygon fill="black" stroke="black" points="5656.03,-53.03 5665.62,-48.53 5655.31,-46.06 5656.03,-53.03"/>
</g>
<!-- v_2_3931466898 -->
<g id="node15" class="node">
<title>v_2_3931466898</title>
<ellipse fill="#1b9e77" stroke="black" cx="6431" cy="-34" rx="391.03" ry="18"/>
<text text-anchor="middle" x="6431" y="-30.3" font-family="Times,serif" font-size="14.00">[(1, 0)/Some(Handshake(None))]/Vec&lt;rustls::msgs::handshake::ServerExtension&gt;</text>
</g>
<!-- f_2_2300463262&#45;&gt;v_2_3931466898 -->
<g id="edge12" class="edge">
<title>f_2_2300463262&#45;&gt;v_2_3931466898</title>
<path fill="none" stroke="black" d="M5175.68,-101.67C5352.5,-92.28 5862.62,-65.19 6175.49,-48.57"/>
<polygon fill="black" stroke="black" points="6175.81,-52.06 6185.61,-48.03 6175.44,-45.07 6175.81,-52.06"/>
</g>
<!-- f_3_3406411300 -->
<g id="node16" class="node">
<title>f_3_3406411300</title>
<polygon fill="#d95f02" stroke="black" points="7200,-124 7090,-124 7090,-88 7200,-88 7200,-124"/>
<text text-anchor="middle" x="7145" y="-102.3" font-family="Times,serif" font-size="14.00">fn_certificate</text>
</g>
<!-- v_3_2153089419 -->
<g id="node17" class="node">
<title>v_3_2153089419</title>
<ellipse fill="#1b9e77" stroke="black" cx="7145" cy="-34" rx="298.95" ry="18"/>
<text text-anchor="middle" x="7145" y="-30.3" font-family="Times,serif" font-size="14.00">[(1, 0)/Some(Handshake(None))]/Vec&lt;rustls::key::Certificate&gt;</text>
</g>
<!-- f_3_3406411300&#45;&gt;v_3_2153089419 -->
<g id="edge13" class="edge">
<title>f_3_3406411300&#45;&gt;v_3_2153089419</title>
<path fill="none" stroke="black" d="M7145,-87.7C7145,-79.98 7145,-70.71 7145,-62.11"/>
<polygon fill="black" stroke="black" points="7148.5,-62.1 7145,-52.1 7141.5,-62.1 7148.5,-62.1"/>
</g>
<!-- f_4_3119242611 -->
<g id="node18" class="node">
<title>f_4_3119242611</title>
<polygon fill="#d95f02" stroke="black" points="7871.5,-124 7682.5,-124 7682.5,-88 7871.5,-88 7871.5,-124"/>
<text text-anchor="middle" x="7777" y="-102.3" font-family="Times,serif" font-size="14.00">fn_server_key_exchange</text>
</g>
<!-- v_4_1606506244 -->
<g id="node19" class="node">
<title>v_4_1606506244</title>
<ellipse fill="#1b9e77" stroke="black" cx="7777" cy="-34" rx="309.25" ry="18"/>
<text text-anchor="middle" x="7777" y="-30.3" font-family="Times,serif" font-size="14.00">[(1, 0)/Some(Handshake(Some(ServerKeyExchange)))]/Vec&lt;u8&gt;</text>
</g>
<!-- f_4_3119242611&#45;&gt;v_4_1606506244 -->
<g id="edge14" class="edge">
<title>f_4_3119242611&#45;&gt;v_4_1606506244</title>
<path fill="none" stroke="black" d="M7777,-87.7C7777,-79.98 7777,-70.71 7777,-62.11"/>
<polygon fill="black" stroke="black" points="7780.5,-62.1 7777,-52.1 7773.5,-62.1 7780.5,-62.1"/>
</g>
<!-- f_5_3243220966 -->
<g id="node20" class="node">
<title>f_5_3243220966</title>
<polygon fill="#1b9e77" stroke="black" points="8276,-124 8110,-124 8110,-88 8276,-88 8276,-124"/>
<text text-anchor="middle" x="8193" y="-102.3" font-family="Times,serif" font-size="14.00">fn_server_hello_done</text>
</g>
<!-- f_6_1295298856 -->
<g id="node21" class="node">
<title>f_6_1295298856</title>
<polygon fill="#d95f02" stroke="black" points="8696.5,-124 8513.5,-124 8513.5,-88 8696.5,-88 8696.5,-124"/>
<text text-anchor="middle" x="8605" y="-102.3" font-family="Times,serif" font-size="14.00">fn_client_key_exchange</text>
</g>
<!-- v_6_2749285598 -->
<g id="node22" class="node">
<title>v_6_2749285598</title>
<ellipse fill="#1b9e77" stroke="black" cx="8605" cy="-34" rx="305.45" ry="18"/>
<text text-anchor="middle" x="8605" y="-30.3" font-family="Times,serif" font-size="14.00">[(0, 0)/Some(Handshake(Some(ClientKeyExchange)))]/Vec&lt;u8&gt;</text>
</g>
<!-- f_6_1295298856&#45;&gt;v_6_2749285598 -->
<g id="edge15" class="edge">
<title>f_6_1295298856&#45;&gt;v_6_2749285598</title>
<path fill="none" stroke="black" d="M8605,-87.7C8605,-79.98 8605,-70.71 8605,-62.11"/>
<polygon fill="black" stroke="black" points="8608.5,-62.1 8605,-52.1 8601.5,-62.1 8608.5,-62.1"/>
</g>
<!-- f_7_2519514374 -->
<g id="node23" class="node">
<title>f_7_2519514374</title>
<polygon fill="#1b9e77" stroke="black" points="9113.5,-124 8934.5,-124 8934.5,-88 9113.5,-88 9113.5,-124"/>
<text text-anchor="middle" x="9024" y="-102.3" font-family="Times,serif" font-size="14.00">fn_change_cipher_spec</text>
</g>
<!-- f_8_1990735857 -->
<g id="node24" class="node">
<title>f_8_1990735857</title>
<polygon fill="#d95f02" stroke="black" points="9366,-124 9208,-124 9208,-88 9366,-88 9366,-124"/>
<text text-anchor="middle" x="9287" y="-102.3" font-family="Times,serif" font-size="14.00">fn_opaque_message</text>
</g>
<!-- v_8_3067010627 -->
<g id="node25" class="node">
<title>v_8_3067010627</title>
<ellipse fill="#1b9e77" stroke="black" cx="9287" cy="-34" rx="148.67" ry="18"/>
<text text-anchor="middle" x="9287" y="-30.3" font-family="Times,serif" font-size="14.00">[(0, 3)/None]/OpaqueMessage</text>
</g>
<!-- f_8_1990735857&#45;&gt;v_8_3067010627 -->
<g id="edge16" class="edge">
<title>f_8_1990735857&#45;&gt;v_8_3067010627</title>
<path fill="none" stroke="black" d="M9287,-87.7C9287,-79.98 9287,-70.71 9287,-62.11"/>
<polygon fill="black" stroke="black" points="9290.5,-62.1 9287,-52.1 9283.5,-62.1 9290.5,-62.1"/>
</g>
<!-- f_9_2339295512 -->
<g id="node26" class="node">
<title>f_9_2339295512</title>
<polygon fill="#d95f02" stroke="black" points="9976.5,-124 9803.5,-124 9803.5,-88 9976.5,-88 9976.5,-124"/>
<text text-anchor="middle" x="9890" y="-102.3" font-family="Times,serif" font-size="14.00">fn_new_session_ticket</text>
</g>
<!-- v_9_2111209047 -->
<g id="node27" class="node">
<title>v_9_2111209047</title>
<ellipse fill="#1b9e77" stroke="black" cx="9641" cy="-34" rx="180.87" ry="18"/>
<text text-anchor="middle" x="9641" y="-30.3" font-family="Times,serif" font-size="14.00">[(1, 0)/Some(Handshake(None))]/u64</text>
</g>
<!-- f_9_2339295512&#45;&gt;v_9_2111209047 -->
<g id="edge17" class="edge">
<title>f_9_2339295512&#45;&gt;v_9_2111209047</title>
<path fill="none" stroke="black" d="M9829.41,-87.97C9792.8,-77.68 9746.09,-64.54 9708.33,-53.93"/>
<polygon fill="black" stroke="black" points="9709.01,-50.48 9698.44,-51.15 9707.12,-57.22 9709.01,-50.48"/>
</g>
<!-- v_9_3022339263 -->
<g id="node28" class="node">
<title>v_9_3022339263</title>
<ellipse fill="#1b9e77" stroke="black" cx="10139" cy="-34" rx="299.75" ry="18"/>
<text text-anchor="middle" x="10139" y="-30.3" font-family="Times,serif" font-size="14.00">[(1, 0)/Some(Handshake(Some(NewSessionTicket)))]/Vec&lt;u8&gt;</text>
</g>
<!-- f_9_2339295512&#45;&gt;v_9_3022339263 -->
<g id="edge18" class="edge">
<title>f_9_2339295512&#45;&gt;v_9_3022339263</title>
<path fill="none" stroke="black" d="M9950.59,-87.97C9986.54,-77.86 10032.23,-65.02 10069.62,-54.51"/>
<polygon fill="black" stroke="black" points="10070.75,-57.82 10079.43,-51.75 10068.85,-51.08 10070.75,-57.82"/>
</g>
<!-- f_10_1204089383 -->
<g id="node29" class="node">
<title>f_10_1204089383</title>
<polygon fill="#1b9e77" stroke="black" points="10642.5,-124 10463.5,-124 10463.5,-88 10642.5,-88 10642.5,-124"/>
<text text-anchor="middle" x="10553" y="-102.3" font-family="Times,serif" font-size="14.00">fn_change_cipher_spec</text>
</g>
<!-- f_11_782533765 -->
<g id="node30" class="node">
<title>f_11_782533765</title>
<polygon fill="#d95f02" stroke="black" points="10895,-124 10737,-124 10737,-88 10895,-88 10895,-124"/>
<text text-anchor="middle" x="10816" y="-102.3" font-family="Times,serif" font-size="14.00">fn_opaque_message</text>
</g>
<!-- v_11_2473549495 -->
<g id="node31" class="node">
<title>v_11_2473549495</title>
<ellipse fill="#1b9e77" stroke="black" cx="10816" cy="-34" rx="148.67" ry="18"/>
<text text-anchor="middle" x="10816" y="-30.3" font-family="Times,serif" font-size="14.00">[(1, 6)/None]/OpaqueMessage</text>
</g>
<!-- f_11_782533765&#45;&gt;v_11_2473549495 -->
<g id="edge19" class="edge">
<title>f_11_782533765&#45;&gt;v_11_2473549495</title>
<path fill="none" stroke="black" d="M10816,-87.7C10816,-79.98 10816,-70.71 10816,-62.11"/>
<polygon fill="black" stroke="black" points="10819.5,-62.1 10816,-52.1 10812.5,-62.1 10819.5,-62.1"/>
</g>
</g>
</svg>
