<?xml version="1.0" encoding="UTF-8" standalone="no"?>
<!DOCTYPE svg PUBLIC "-//W3C//DTD SVG 1.1//EN"
 "http://www.w3.org/Graphics/SVG/1.1/DTD/svg11.dtd">
<!-- Generated by graphviz version 2.47.2 (0)
 -->
<!-- Pages: 1 -->
<svg width="965pt" height="1251pt"
 viewBox="0.00 0.00 965.00 1251.00" xmlns="http://www.w3.org/2000/svg" xmlns:xlink="http://www.w3.org/1999/xlink">
<g id="graph0" class="graph" transform="scale(1 1) rotate(0) translate(4 1247)">
<polygon fill="white" stroke="transparent" points="-4,4 -4,-1247 961,-1247 961,4 -4,4"/>
<g id="clust1" class="cluster">
<title>cluster4</title>
<polygon fill="none" stroke="black" points="8,-8 8,-1235 949,-1235 949,-8 8,-8"/>
<text text-anchor="middle" x="478.5" y="-1219.8" font-family="Times,serif" font-size="14.00">Step #4 (Agent &#160;1)</text>
</g>
<!-- func_4_3075183477 -->
<g id="node1" class="node">
<title>func_4_3075183477</title>
<polygon fill="#d95f02" stroke="black" points="617,-1204 507,-1204 507,-1168 617,-1168 617,-1204"/>
<text text-anchor="middle" x="562" y="-1182.3" font-family="Times,serif" font-size="14.00">fn_encrypt12</text>
</g>
<!-- func_4_1367395122 -->
<g id="node2" class="node">
<title>func_4_1367395122</title>
<polygon fill="#d95f02" stroke="black" points="378.5,-1132 265.5,-1132 265.5,-1096 378.5,-1096 378.5,-1132"/>
<text text-anchor="middle" x="322" y="-1110.3" font-family="Times,serif" font-size="14.00">fn_finished12</text>
</g>
<!-- func_4_3075183477&#45;&#45;func_4_1367395122 -->
<g id="edge1" class="edge">
<title>func_4_3075183477&#45;&#45;func_4_1367395122</title>
<path fill="none" stroke="black" d="M506.94,-1168.94C468.6,-1157.76 417.62,-1142.89 378.89,-1131.59"/>
</g>
<!-- var_4_2848828724 -->
<g id="node42" class="node">
<title>var_4_2848828724</title>
<ellipse fill="#1b9e77" stroke="black" cx="470" cy="-1114" rx="73.39" ry="18"/>
<text text-anchor="middle" x="470" y="-1110.3" font-family="Times,serif" font-size="14.00">(0,0)/Random</text>
</g>
<!-- func_4_3075183477&#45;&#45;var_4_2848828724 -->
<g id="edge41" class="edge">
<title>func_4_3075183477&#45;&#45;var_4_2848828724</title>
<path fill="none" stroke="black" d="M539.26,-1167.7C524.68,-1156.6 505.87,-1142.29 491.53,-1131.38"/>
</g>
<!-- func_4_1969400578 -->
<g id="node43" class="node">
<title>func_4_1969400578</title>
<polygon fill="#d95f02" stroke="black" points="749,-1132 561,-1132 561,-1096 749,-1096 749,-1132"/>
<text text-anchor="middle" x="655" y="-1110.3" font-family="Times,serif" font-size="14.00">fn_decode_ecdh_params</text>
</g>
<!-- func_4_3075183477&#45;&#45;func_4_1969400578 -->
<g id="edge42" class="edge">
<title>func_4_3075183477&#45;&#45;func_4_1969400578</title>
<path fill="none" stroke="black" d="M584.99,-1167.7C599.4,-1156.85 617.91,-1142.92 632.28,-1132.1"/>
</g>
<!-- func_4_1161727986 -->
<g id="node45" class="node">
<title>func_4_1161727986</title>
<polygon fill="#1b9e77" stroke="black" points="845,-1132 767,-1132 767,-1096 845,-1096 845,-1132"/>
<text text-anchor="middle" x="806" y="-1110.3" font-family="Times,serif" font-size="14.00">fn_seq_0</text>
</g>
<!-- func_4_3075183477&#45;&#45;func_4_1161727986 -->
<g id="edge44" class="edge">
<title>func_4_3075183477&#45;&#45;func_4_1161727986</title>
<path fill="none" stroke="black" d="M617.06,-1169.2C662.6,-1156.14 726.17,-1137.9 766.71,-1126.27"/>
</g>
<!-- func_4_1065610793 -->
<g id="node3" class="node">
<title>func_4_1065610793</title>
<polygon fill="#d95f02" stroke="black" points="395,-1060 249,-1060 249,-1024 395,-1024 395,-1060"/>
<text text-anchor="middle" x="322" y="-1038.3" font-family="Times,serif" font-size="14.00">fn_sign_transcript</text>
</g>
<!-- func_4_1367395122&#45;&#45;func_4_1065610793 -->
<g id="edge2" class="edge">
<title>func_4_1367395122&#45;&#45;func_4_1065610793</title>
<path fill="none" stroke="black" d="M322,-1095.7C322,-1084.85 322,-1070.92 322,-1060.1"/>
</g>
<!-- var_4_3597757268 -->
<g id="node4" class="node">
<title>var_4_3597757268</title>
<ellipse fill="#1b9e77" stroke="black" cx="137" cy="-970" rx="73.39" ry="18"/>
<text text-anchor="middle" x="137" y="-966.3" font-family="Times,serif" font-size="14.00">(0,0)/Random</text>
</g>
<!-- func_4_1065610793&#45;&#45;var_4_3597757268 -->
<g id="edge3" class="edge">
<title>func_4_1065610793&#45;&#45;var_4_3597757268</title>
<path fill="none" stroke="black" d="M276.74,-1023.88C245.62,-1012.1 204.73,-996.63 175.23,-985.47"/>
</g>
<!-- func_4_399085404 -->
<g id="node5" class="node">
<title>func_4_399085404</title>
<polygon fill="#d95f02" stroke="black" points="416,-988 228,-988 228,-952 416,-952 416,-988"/>
<text text-anchor="middle" x="322" y="-966.3" font-family="Times,serif" font-size="14.00">fn_decode_ecdh_params</text>
</g>
<!-- func_4_1065610793&#45;&#45;func_4_399085404 -->
<g id="edge4" class="edge">
<title>func_4_1065610793&#45;&#45;func_4_399085404</title>
<path fill="none" stroke="black" d="M322,-1023.7C322,-1012.85 322,-998.92 322,-988.1"/>
</g>
<!-- func_4_4153951276 -->
<g id="node7" class="node">
<title>func_4_4153951276</title>
<polygon fill="#d95f02" stroke="black" points="602,-988 434,-988 434,-952 602,-952 602,-988"/>
<text text-anchor="middle" x="518" y="-966.3" font-family="Times,serif" font-size="14.00">fn_append_transcript</text>
</g>
<!-- func_4_1065610793&#45;&#45;func_4_4153951276 -->
<g id="edge6" class="edge">
<title>func_4_1065610793&#45;&#45;func_4_4153951276</title>
<path fill="none" stroke="black" d="M369.7,-1023.97C400.18,-1013.08 439.57,-999.01 470.09,-988.11"/>
</g>
<!-- var_4_2930159928 -->
<g id="node6" class="node">
<title>var_4_2930159928</title>
<ellipse fill="#1b9e77" stroke="black" cx="322" cy="-898" rx="78.79" ry="18"/>
<text text-anchor="middle" x="322" y="-894.3" font-family="Times,serif" font-size="14.00">(0,2)/Vec&lt;u8&gt;</text>
</g>
<!-- func_4_399085404&#45;&#45;var_4_2930159928 -->
<g id="edge5" class="edge">
<title>func_4_399085404&#45;&#45;var_4_2930159928</title>
<path fill="none" stroke="black" d="M322,-951.7C322,-940.85 322,-926.92 322,-916.1"/>
</g>
<!-- func_4_1511626411 -->
<g id="node8" class="node">
<title>func_4_1511626411</title>
<polygon fill="#d95f02" stroke="black" points="594,-916 426,-916 426,-880 594,-880 594,-916"/>
<text text-anchor="middle" x="510" y="-894.3" font-family="Times,serif" font-size="14.00">fn_append_transcript</text>
</g>
<!-- func_4_4153951276&#45;&#45;func_4_1511626411 -->
<g id="edge7" class="edge">
<title>func_4_4153951276&#45;&#45;func_4_1511626411</title>
<path fill="none" stroke="black" d="M516.02,-951.7C514.78,-940.85 513.19,-926.92 511.95,-916.1"/>
</g>
<!-- func_4_3197890503 -->
<g id="node38" class="node">
<title>func_4_3197890503</title>
<polygon fill="#d95f02" stroke="black" points="795.5,-916 612.5,-916 612.5,-880 795.5,-880 795.5,-916"/>
<text text-anchor="middle" x="704" y="-894.3" font-family="Times,serif" font-size="14.00">fn_client_key_exchange</text>
</g>
<!-- func_4_4153951276&#45;&#45;func_4_3197890503 -->
<g id="edge37" class="edge">
<title>func_4_4153951276&#45;&#45;func_4_3197890503</title>
<path fill="none" stroke="black" d="M563.5,-951.88C592.43,-940.99 629.75,-926.95 658.65,-916.07"/>
</g>
<!-- func_4_4202485787 -->
<g id="node9" class="node">
<title>func_4_4202485787</title>
<polygon fill="#d95f02" stroke="black" points="419,-844 251,-844 251,-808 419,-808 419,-844"/>
<text text-anchor="middle" x="335" y="-822.3" font-family="Times,serif" font-size="14.00">fn_append_transcript</text>
</g>
<!-- func_4_1511626411&#45;&#45;func_4_4202485787 -->
<g id="edge8" class="edge">
<title>func_4_1511626411&#45;&#45;func_4_4202485787</title>
<path fill="none" stroke="black" d="M467.19,-879.88C439.97,-868.99 404.86,-854.95 377.67,-844.07"/>
</g>
<!-- var_4_912120442 -->
<g id="node37" class="node">
<title>var_4_912120442</title>
<ellipse fill="#1b9e77" stroke="black" cx="513" cy="-826" rx="76.09" ry="18"/>
<text text-anchor="middle" x="513" y="-822.3" font-family="Times,serif" font-size="14.00">(0,3)/Message</text>
</g>
<!-- func_4_1511626411&#45;&#45;var_4_912120442 -->
<g id="edge36" class="edge">
<title>func_4_1511626411&#45;&#45;var_4_912120442</title>
<path fill="none" stroke="black" d="M510.74,-879.7C511.21,-868.85 511.8,-854.92 512.27,-844.1"/>
</g>
<!-- func_4_2698147968 -->
<g id="node10" class="node">
<title>func_4_2698147968</title>
<polygon fill="#d95f02" stroke="black" points="411,-772 243,-772 243,-736 411,-736 411,-772"/>
<text text-anchor="middle" x="327" y="-750.3" font-family="Times,serif" font-size="14.00">fn_append_transcript</text>
</g>
<!-- func_4_4202485787&#45;&#45;func_4_2698147968 -->
<g id="edge9" class="edge">
<title>func_4_4202485787&#45;&#45;func_4_2698147968</title>
<path fill="none" stroke="black" d="M333.02,-807.7C331.78,-796.85 330.19,-782.92 328.95,-772.1"/>
</g>
<!-- var_4_4265868665 -->
<g id="node36" class="node">
<title>var_4_4265868665</title>
<ellipse fill="#1b9e77" stroke="black" cx="505" cy="-754" rx="76.09" ry="18"/>
<text text-anchor="middle" x="505" y="-750.3" font-family="Times,serif" font-size="14.00">(0,2)/Message</text>
</g>
<!-- func_4_4202485787&#45;&#45;var_4_4265868665 -->
<g id="edge35" class="edge">
<title>func_4_4202485787&#45;&#45;var_4_4265868665</title>
<path fill="none" stroke="black" d="M376.59,-807.88C404.8,-796.26 441.73,-781.05 468.74,-769.93"/>
</g>
<!-- func_4_1759007371 -->
<g id="node11" class="node">
<title>func_4_1759007371</title>
<polygon fill="#d95f02" stroke="black" points="396,-700 228,-700 228,-664 396,-664 396,-700"/>
<text text-anchor="middle" x="312" y="-678.3" font-family="Times,serif" font-size="14.00">fn_append_transcript</text>
</g>
<!-- func_4_2698147968&#45;&#45;func_4_1759007371 -->
<g id="edge10" class="edge">
<title>func_4_2698147968&#45;&#45;func_4_1759007371</title>
<path fill="none" stroke="black" d="M323.29,-735.7C320.97,-724.85 317.98,-710.92 315.67,-700.1"/>
</g>
<!-- var_4_3140614369 -->
<g id="node35" class="node">
<title>var_4_3140614369</title>
<ellipse fill="#1b9e77" stroke="black" cx="490" cy="-682" rx="76.09" ry="18"/>
<text text-anchor="middle" x="490" y="-678.3" font-family="Times,serif" font-size="14.00">(0,1)/Message</text>
</g>
<!-- func_4_2698147968&#45;&#45;var_4_3140614369 -->
<g id="edge34" class="edge">
<title>func_4_2698147968&#45;&#45;var_4_3140614369</title>
<path fill="none" stroke="black" d="M366.87,-735.88C393.83,-724.3 429.09,-709.16 454.97,-698.05"/>
</g>
<!-- func_4_3356850879 -->
<g id="node12" class="node">
<title>func_4_3356850879</title>
<polygon fill="#d95f02" stroke="black" points="366,-628 198,-628 198,-592 366,-592 366,-628"/>
<text text-anchor="middle" x="282" y="-606.3" font-family="Times,serif" font-size="14.00">fn_append_transcript</text>
</g>
<!-- func_4_1759007371&#45;&#45;func_4_3356850879 -->
<g id="edge11" class="edge">
<title>func_4_1759007371&#45;&#45;func_4_3356850879</title>
<path fill="none" stroke="black" d="M304.58,-663.7C299.93,-652.85 293.96,-638.92 289.33,-628.1"/>
</g>
<!-- var_4_1420718665 -->
<g id="node34" class="node">
<title>var_4_1420718665</title>
<ellipse fill="#1b9e77" stroke="black" cx="460" cy="-610" rx="76.09" ry="18"/>
<text text-anchor="middle" x="460" y="-606.3" font-family="Times,serif" font-size="14.00">(0,0)/Message</text>
</g>
<!-- func_4_1759007371&#45;&#45;var_4_1420718665 -->
<g id="edge33" class="edge">
<title>func_4_1759007371&#45;&#45;var_4_1420718665</title>
<path fill="none" stroke="black" d="M348.2,-663.88C372.34,-652.46 403.8,-637.58 427.2,-626.51"/>
</g>
<!-- func_4_2828001162 -->
<g id="node13" class="node">
<title>func_4_2828001162</title>
<polygon fill="#1b9e77" stroke="black" points="355.5,-556 192.5,-556 192.5,-520 355.5,-520 355.5,-556"/>
<text text-anchor="middle" x="274" y="-534.3" font-family="Times,serif" font-size="14.00">fn_new_transcript12</text>
</g>
<!-- func_4_3356850879&#45;&#45;func_4_2828001162 -->
<g id="edge12" class="edge">
<title>func_4_3356850879&#45;&#45;func_4_2828001162</title>
<path fill="none" stroke="black" d="M280.02,-591.7C278.78,-580.85 277.19,-566.92 275.95,-556.1"/>
</g>
<!-- func_4_2751834820 -->
<g id="node14" class="node">
<title>func_4_2751834820</title>
<polygon fill="#d95f02" stroke="black" points="492.5,-556 373.5,-556 373.5,-520 492.5,-520 492.5,-556"/>
<text text-anchor="middle" x="433" y="-534.3" font-family="Times,serif" font-size="14.00">fn_client_hello</text>
</g>
<!-- func_4_3356850879&#45;&#45;func_4_2751834820 -->
<g id="edge13" class="edge">
<title>func_4_3356850879&#45;&#45;func_4_2751834820</title>
<path fill="none" stroke="black" d="M318.94,-591.88C342.43,-580.99 372.72,-566.95 396.18,-556.07"/>
</g>
<!-- func_4_2669378838 -->
<g id="node15" class="node">
<title>func_4_2669378838</title>
<polygon fill="#1b9e77" stroke="black" points="189.5,-484 16.5,-484 16.5,-448 189.5,-448 189.5,-484"/>
<text text-anchor="middle" x="103" y="-462.3" font-family="Times,serif" font-size="14.00">fn_protocol_version12</text>
</g>
<!-- func_4_2751834820&#45;&#45;func_4_2669378838 -->
<g id="edge14" class="edge">
<title>func_4_2751834820&#45;&#45;func_4_2669378838</title>
<path fill="none" stroke="black" d="M373.24,-524.32C320.12,-513.06 242.02,-496.49 183.43,-484.06"/>
</g>
<!-- func_4_1829665493 -->
<g id="node16" class="node">
<title>func_4_1829665493</title>
<polygon fill="#1b9e77" stroke="black" points="300,-484 208,-484 208,-448 300,-448 300,-484"/>
<text text-anchor="middle" x="254" y="-462.3" font-family="Times,serif" font-size="14.00">fn_random</text>
</g>
<!-- func_4_2751834820&#45;&#45;func_4_1829665493 -->
<g id="edge15" class="edge">
<title>func_4_2751834820&#45;&#45;func_4_1829665493</title>
<path fill="none" stroke="black" d="M389.21,-519.88C361.37,-508.99 325.46,-494.95 297.65,-484.07"/>
</g>
<!-- func_4_3617800263 -->
<g id="node17" class="node">
<title>func_4_3617800263</title>
<polygon fill="#1b9e77" stroke="black" points="428,-484 318,-484 318,-448 428,-448 428,-484"/>
<text text-anchor="middle" x="373" y="-462.3" font-family="Times,serif" font-size="14.00">fn_session_id</text>
</g>
<!-- func_4_2751834820&#45;&#45;func_4_3617800263 -->
<g id="edge16" class="edge">
<title>func_4_2751834820&#45;&#45;func_4_3617800263</title>
<path fill="none" stroke="black" d="M418.17,-519.7C408.87,-508.85 396.93,-494.92 387.66,-484.1"/>
</g>
<!-- func_4_2373821002 -->
<g id="node18" class="node">
<title>func_4_2373821002</title>
<polygon fill="#1b9e77" stroke="black" points="596,-484 446,-484 446,-448 596,-448 596,-484"/>
<text text-anchor="middle" x="521" y="-462.3" font-family="Times,serif" font-size="14.00">fn_cipher_suites12</text>
</g>
<!-- func_4_2751834820&#45;&#45;func_4_2373821002 -->
<g id="edge17" class="edge">
<title>func_4_2751834820&#45;&#45;func_4_2373821002</title>
<path fill="none" stroke="black" d="M454.75,-519.7C468.39,-508.85 485.9,-494.92 499.5,-484.1"/>
</g>
<!-- func_4_3616540300 -->
<g id="node19" class="node">
<title>func_4_3616540300</title>
<polygon fill="#1b9e77" stroke="black" points="749.5,-484 614.5,-484 614.5,-448 749.5,-448 749.5,-484"/>
<text text-anchor="middle" x="682" y="-462.3" font-family="Times,serif" font-size="14.00">fn_compressions</text>
</g>
<!-- func_4_2751834820&#45;&#45;func_4_3616540300 -->
<g id="edge18" class="edge">
<title>func_4_2751834820&#45;&#45;func_4_3616540300</title>
<path fill="none" stroke="black" d="M492.64,-520.23C531.49,-509.31 582.02,-495.11 621.12,-484.12"/>
</g>
<!-- func_4_379245746 -->
<g id="node20" class="node">
<title>func_4_379245746</title>
<polygon fill="#d95f02" stroke="black" points="940.5,-484 767.5,-484 767.5,-448 940.5,-448 940.5,-484"/>
<text text-anchor="middle" x="854" y="-462.3" font-family="Times,serif" font-size="14.00">fn_extensions_append</text>
</g>
<!-- func_4_2751834820&#45;&#45;func_4_379245746 -->
<g id="edge19" class="edge">
<title>func_4_2751834820&#45;&#45;func_4_379245746</title>
<path fill="none" stroke="black" d="M492.87,-527.05C564.61,-515.12 685.36,-495.04 767.29,-481.42"/>
</g>
<!-- func_4_1600367888 -->
<g id="node21" class="node">
<title>func_4_1600367888</title>
<polygon fill="#d95f02" stroke="black" points="724.5,-412 551.5,-412 551.5,-376 724.5,-376 724.5,-412"/>
<text text-anchor="middle" x="638" y="-390.3" font-family="Times,serif" font-size="14.00">fn_extensions_append</text>
</g>
<!-- func_4_379245746&#45;&#45;func_4_1600367888 -->
<g id="edge20" class="edge">
<title>func_4_379245746&#45;&#45;func_4_1600367888</title>
<path fill="none" stroke="black" d="M801.44,-447.97C767.84,-437.08 724.44,-423.01 690.8,-412.11"/>
</g>
<!-- func_4_1607765758 -->
<g id="node32" class="node">
<title>func_4_1607765758</title>
<polygon fill="#d95f02" stroke="black" points="939.5,-412 772.5,-412 772.5,-376 939.5,-376 939.5,-412"/>
<text text-anchor="middle" x="856" y="-390.3" font-family="Times,serif" font-size="14.00">fn_renegotiation_info</text>
</g>
<!-- func_4_379245746&#45;&#45;func_4_1607765758 -->
<g id="edge31" class="edge">
<title>func_4_379245746&#45;&#45;func_4_1607765758</title>
<path fill="none" stroke="black" d="M854.49,-447.7C854.8,-436.85 855.2,-422.92 855.51,-412.1"/>
</g>
<!-- func_4_208917954 -->
<g id="node22" class="node">
<title>func_4_208917954</title>
<polygon fill="#d95f02" stroke="black" points="495.5,-340 322.5,-340 322.5,-304 495.5,-304 495.5,-340"/>
<text text-anchor="middle" x="409" y="-318.3" font-family="Times,serif" font-size="14.00">fn_extensions_append</text>
</g>
<!-- func_4_1600367888&#45;&#45;func_4_208917954 -->
<g id="edge21" class="edge">
<title>func_4_1600367888&#45;&#45;func_4_208917954</title>
<path fill="none" stroke="black" d="M582.27,-375.97C546.66,-365.08 500.64,-351.01 464.98,-340.11"/>
</g>
<!-- func_4_3555885385 -->
<g id="node31" class="node">
<title>func_4_3555885385</title>
<polygon fill="#1b9e77" stroke="black" points="762,-340 514,-340 514,-304 762,-304 762,-340"/>
<text text-anchor="middle" x="638" y="-318.3" font-family="Times,serif" font-size="14.00">fn_signed_certificate_timestamp</text>
</g>
<!-- func_4_1600367888&#45;&#45;func_4_3555885385 -->
<g id="edge30" class="edge">
<title>func_4_1600367888&#45;&#45;func_4_3555885385</title>
<path fill="none" stroke="black" d="M638,-375.7C638,-364.85 638,-350.92 638,-340.1"/>
</g>
<!-- func_4_1428417595 -->
<g id="node23" class="node">
<title>func_4_1428417595</title>
<polygon fill="#d95f02" stroke="black" points="470.5,-268 297.5,-268 297.5,-232 470.5,-232 470.5,-268"/>
<text text-anchor="middle" x="384" y="-246.3" font-family="Times,serif" font-size="14.00">fn_extensions_append</text>
</g>
<!-- func_4_208917954&#45;&#45;func_4_1428417595 -->
<g id="edge22" class="edge">
<title>func_4_208917954&#45;&#45;func_4_1428417595</title>
<path fill="none" stroke="black" d="M402.82,-303.7C398.95,-292.85 393.97,-278.92 390.11,-268.1"/>
</g>
<!-- func_4_2746745173 -->
<g id="node30" class="node">
<title>func_4_2746745173</title>
<polygon fill="#1b9e77" stroke="black" points="781.5,-268 488.5,-268 488.5,-232 781.5,-232 781.5,-268"/>
<text text-anchor="middle" x="635" y="-246.3" font-family="Times,serif" font-size="14.00">fn_signature_algorithm_cert_extension</text>
</g>
<!-- func_4_208917954&#45;&#45;func_4_2746745173 -->
<g id="edge29" class="edge">
<title>func_4_208917954&#45;&#45;func_4_2746745173</title>
<path fill="none" stroke="black" d="M464,-303.97C499.14,-293.08 544.56,-279.01 579.76,-268.11"/>
</g>
<!-- func_4_2505301265 -->
<g id="node24" class="node">
<title>func_4_2505301265</title>
<polygon fill="#d95f02" stroke="black" points="420.5,-196 247.5,-196 247.5,-160 420.5,-160 420.5,-196"/>
<text text-anchor="middle" x="334" y="-174.3" font-family="Times,serif" font-size="14.00">fn_extensions_append</text>
</g>
<!-- func_4_1428417595&#45;&#45;func_4_2505301265 -->
<g id="edge23" class="edge">
<title>func_4_1428417595&#45;&#45;func_4_2505301265</title>
<path fill="none" stroke="black" d="M371.64,-231.7C363.89,-220.85 353.94,-206.92 346.22,-196.1"/>
</g>
<!-- func_4_4052466164 -->
<g id="node29" class="node">
<title>func_4_4052466164</title>
<polygon fill="#1b9e77" stroke="black" points="597.5,-196 438.5,-196 438.5,-160 597.5,-160 597.5,-196"/>
<text text-anchor="middle" x="518" y="-174.3" font-family="Times,serif" font-size="14.00">fn_ec_point_formats</text>
</g>
<!-- func_4_1428417595&#45;&#45;func_4_4052466164 -->
<g id="edge28" class="edge">
<title>func_4_1428417595&#45;&#45;func_4_4052466164</title>
<path fill="none" stroke="black" d="M416.78,-231.88C437.55,-221.03 464.3,-207.05 485.09,-196.19"/>
</g>
<!-- func_4_4173285304 -->
<g id="node25" class="node">
<title>func_4_4173285304</title>
<polygon fill="#d95f02" stroke="black" points="320.5,-124 147.5,-124 147.5,-88 320.5,-88 320.5,-124"/>
<text text-anchor="middle" x="234" y="-102.3" font-family="Times,serif" font-size="14.00">fn_extensions_append</text>
</g>
<!-- func_4_2505301265&#45;&#45;func_4_4173285304 -->
<g id="edge24" class="edge">
<title>func_4_2505301265&#45;&#45;func_4_4173285304</title>
<path fill="none" stroke="black" d="M309.54,-159.88C294.04,-149.03 274.07,-135.05 258.56,-124.19"/>
</g>
<!-- func_4_4188977138 -->
<g id="node28" class="node">
<title>func_4_4188977138</title>
<polygon fill="#1b9e77" stroke="black" points="597,-124 339,-124 339,-88 597,-88 597,-124"/>
<text text-anchor="middle" x="468" y="-102.3" font-family="Times,serif" font-size="14.00">fn_signature_algorithm_extension</text>
</g>
<!-- func_4_2505301265&#45;&#45;func_4_4188977138 -->
<g id="edge27" class="edge">
<title>func_4_2505301265&#45;&#45;func_4_4188977138</title>
<path fill="none" stroke="black" d="M366.78,-159.88C387.55,-149.03 414.3,-135.05 435.09,-124.19"/>
</g>
<!-- func_4_3985263748 -->
<g id="node26" class="node">
<title>func_4_3985263748</title>
<polygon fill="#1b9e77" stroke="black" points="193,-52 43,-52 43,-16 193,-16 193,-52"/>
<text text-anchor="middle" x="118" y="-30.3" font-family="Times,serif" font-size="14.00">fn_extensions_new</text>
</g>
<!-- func_4_4173285304&#45;&#45;func_4_3985263748 -->
<g id="edge25" class="edge">
<title>func_4_4173285304&#45;&#45;func_4_3985263748</title>
<path fill="none" stroke="black" d="M205.62,-87.88C187.65,-77.03 164.48,-63.05 146.49,-52.19"/>
</g>
<!-- func_4_2295848249 -->
<g id="node27" class="node">
<title>func_4_2295848249</title>
<polygon fill="#1b9e77" stroke="black" points="489,-52 211,-52 211,-16 489,-16 489,-52"/>
<text text-anchor="middle" x="350" y="-30.3" font-family="Times,serif" font-size="14.00">fn_x25519_support_group_extension</text>
</g>
<!-- func_4_4173285304&#45;&#45;func_4_2295848249 -->
<g id="edge26" class="edge">
<title>func_4_4173285304&#45;&#45;func_4_2295848249</title>
<path fill="none" stroke="black" d="M262.38,-87.88C280.35,-77.03 303.52,-63.05 321.51,-52.19"/>
</g>
<!-- func_4_2987085728 -->
<g id="node33" class="node">
<title>func_4_2987085728</title>
<polygon fill="#1b9e77" stroke="black" points="939.5,-340 780.5,-340 780.5,-304 939.5,-304 939.5,-340"/>
<text text-anchor="middle" x="860" y="-318.3" font-family="Times,serif" font-size="14.00">fn_empty_bytes_vec</text>
</g>
<!-- func_4_1607765758&#45;&#45;func_4_2987085728 -->
<g id="edge32" class="edge">
<title>func_4_1607765758&#45;&#45;func_4_2987085728</title>
<path fill="none" stroke="black" d="M856.99,-375.7C857.61,-364.85 858.4,-350.92 859.02,-340.1"/>
</g>
<!-- func_4_1981320412 -->
<g id="node39" class="node">
<title>func_4_1981320412</title>
<polygon fill="#d95f02" stroke="black" points="775.5,-844 632.5,-844 632.5,-808 775.5,-808 775.5,-844"/>
<text text-anchor="middle" x="704" y="-822.3" font-family="Times,serif" font-size="14.00">fn_new_pubkey12</text>
</g>
<!-- func_4_3197890503&#45;&#45;func_4_1981320412 -->
<g id="edge38" class="edge">
<title>func_4_3197890503&#45;&#45;func_4_1981320412</title>
<path fill="none" stroke="black" d="M704,-879.7C704,-868.85 704,-854.92 704,-844.1"/>
</g>
<!-- func_4_1037613358 -->
<g id="node40" class="node">
<title>func_4_1037613358</title>
<polygon fill="#d95f02" stroke="black" points="798,-772 610,-772 610,-736 798,-736 798,-772"/>
<text text-anchor="middle" x="704" y="-750.3" font-family="Times,serif" font-size="14.00">fn_decode_ecdh_params</text>
</g>
<!-- func_4_1981320412&#45;&#45;func_4_1037613358 -->
<g id="edge39" class="edge">
<title>func_4_1981320412&#45;&#45;func_4_1037613358</title>
<path fill="none" stroke="black" d="M704,-807.7C704,-796.85 704,-782.92 704,-772.1"/>
</g>
<!-- var_4_3309996701 -->
<g id="node41" class="node">
<title>var_4_3309996701</title>
<ellipse fill="#1b9e77" stroke="black" cx="704" cy="-682" rx="78.79" ry="18"/>
<text text-anchor="middle" x="704" y="-678.3" font-family="Times,serif" font-size="14.00">(0,2)/Vec&lt;u8&gt;</text>
</g>
<!-- func_4_1037613358&#45;&#45;var_4_3309996701 -->
<g id="edge40" class="edge">
<title>func_4_1037613358&#45;&#45;var_4_3309996701</title>
<path fill="none" stroke="black" d="M704,-735.7C704,-724.85 704,-710.92 704,-700.1"/>
</g>
<!-- var_4_3410763280 -->
<g id="node44" class="node">
<title>var_4_3410763280</title>
<ellipse fill="#1b9e77" stroke="black" cx="655" cy="-1042" rx="78.79" ry="18"/>
<text text-anchor="middle" x="655" y="-1038.3" font-family="Times,serif" font-size="14.00">(0,2)/Vec&lt;u8&gt;</text>
</g>
<!-- func_4_1969400578&#45;&#45;var_4_3410763280 -->
<g id="edge43" class="edge">
<title>func_4_1969400578&#45;&#45;var_4_3410763280</title>
<path fill="none" stroke="black" d="M655,-1095.7C655,-1084.85 655,-1070.92 655,-1060.1"/>
</g>
</g>
</svg>
