<?xml version="1.0" encoding="UTF-8" standalone="no"?>
<!DOCTYPE svg PUBLIC "-//W3C//DTD SVG 1.1//EN"
 "http://www.w3.org/Graphics/SVG/1.1/DTD/svg11.dtd">
<!-- Generated by graphviz version 2.47.2 (0)
 -->
<!-- Pages: 1 -->
<svg width="228pt" height="315pt"
 viewBox="0.00 0.00 228.00 315.00" xmlns="http://www.w3.org/2000/svg" xmlns:xlink="http://www.w3.org/1999/xlink">
<g id="graph0" class="graph" transform="scale(1 1) rotate(0) translate(4 311)">
<polygon fill="white" stroke="transparent" points="-4,4 -4,-311 224,-311 224,4 -4,4"/>
<g id="clust1" class="cluster">
<title>cluster2</title>
<polygon fill="none" stroke="black" points="8,-8 8,-299 212,-299 212,-8 8,-8"/>
<text text-anchor="middle" x="110" y="-283.8" font-family="Times,serif" font-size="14.00">Step #2 (Agent &#160;1)</text>
</g>
<!-- f_2_3855993061 -->
<g id="node1" class="node">
<title>f_2_3855993061</title>
<polygon fill="#d95f02" stroke="black" points="201.5,-268 18.5,-268 18.5,-232 201.5,-232 201.5,-268"/>
<text text-anchor="middle" x="110" y="-246.3" font-family="Times,serif" font-size="14.00">fn_client_key_exchange</text>
</g>
<!-- f_2_926082171 -->
<g id="node2" class="node">
<title>f_2_926082171</title>
<polygon fill="#d95f02" stroke="black" points="181.5,-196 38.5,-196 38.5,-160 181.5,-160 181.5,-196"/>
<text text-anchor="middle" x="110" y="-174.3" font-family="Times,serif" font-size="14.00">fn_new_pubkey12</text>
</g>
<!-- f_2_3855993061&#45;&gt;f_2_926082171 -->
<g id="edge1" class="edge">
<title>f_2_3855993061&#45;&gt;f_2_926082171</title>
<path fill="none" stroke="black" d="M110,-231.7C110,-223.98 110,-214.71 110,-206.11"/>
<polygon fill="black" stroke="black" points="113.5,-206.1 110,-196.1 106.5,-206.1 113.5,-206.1"/>
</g>
<!-- f_2_282847701 -->
<g id="node3" class="node">
<title>f_2_282847701</title>
<polygon fill="#d95f02" stroke="black" points="204,-124 16,-124 16,-88 204,-88 204,-124"/>
<text text-anchor="middle" x="110" y="-102.3" font-family="Times,serif" font-size="14.00">fn_decode_ecdh_params</text>
</g>
<!-- f_2_926082171&#45;&gt;f_2_282847701 -->
<g id="edge2" class="edge">
<title>f_2_926082171&#45;&gt;f_2_282847701</title>
<path fill="none" stroke="black" d="M110,-159.7C110,-151.98 110,-142.71 110,-134.11"/>
<polygon fill="black" stroke="black" points="113.5,-134.1 110,-124.1 106.5,-134.1 113.5,-134.1"/>
</g>
<!-- v_2_2152777567 -->
<g id="node4" class="node">
<title>v_2_2152777567</title>
<ellipse fill="#1b9e77" stroke="black" cx="110" cy="-34" rx="78.79" ry="18"/>
<text text-anchor="middle" x="110" y="-30.3" font-family="Times,serif" font-size="14.00">(0,2)/Vec&lt;u8&gt;</text>
</g>
<!-- f_2_282847701&#45;&gt;v_2_2152777567 -->
<g id="edge3" class="edge">
<title>f_2_282847701&#45;&gt;v_2_2152777567</title>
<path fill="none" stroke="black" d="M110,-87.7C110,-79.98 110,-70.71 110,-62.11"/>
<polygon fill="black" stroke="black" points="113.5,-62.1 110,-52.1 106.5,-62.1 113.5,-62.1"/>
</g>
</g>
</svg>
