<?xml version="1.0" encoding="UTF-8" standalone="no"?>
<!DOCTYPE svg PUBLIC "-//W3C//DTD SVG 1.1//EN"
 "http://www.w3.org/Graphics/SVG/1.1/DTD/svg11.dtd">
<!-- Generated by graphviz version 2.49.0 (0)
 -->
<!-- Title: Trace Pages: 1 -->
<svg width="7743pt" height="148pt"
 viewBox="0.00 0.00 7743.00 148.00" xmlns="http://www.w3.org/2000/svg" xmlns:xlink="http://www.w3.org/1999/xlink">
<g id="graph0" class="graph" transform="scale(1 1) rotate(0) translate(4 144)">
<title>Trace</title>
<polygon fill="white" stroke="transparent" points="-4,4 -4,-144 7739,-144 7739,4 -4,4"/>
<g id="clust1" class="cluster">
<title>cluster0</title>
<polygon fill="none" stroke="transparent" points="8,-80 8,-132 78,-132 78,-80 8,-80"/>
</g>
<g id="clust2" class="cluster">
<title>cluster1</title>
<polygon fill="none" stroke="transparent" points="86,-8 86,-132 2784,-132 2784,-8 86,-8"/>
</g>
<g id="clust3" class="cluster">
<title>cluster2</title>
<polygon fill="none" stroke="transparent" points="2792,-8 2792,-132 5097,-132 5097,-8 2792,-8"/>
</g>
<g id="clust4" class="cluster">
<title>cluster3</title>
<polygon fill="none" stroke="transparent" points="5105,-80 5105,-132 5299,-132 5299,-80 5105,-80"/>
</g>
<g id="clust5" class="cluster">
<title>cluster4</title>
<polygon fill="none" stroke="transparent" points="5307,-8 5307,-132 5617,-132 5617,-8 5307,-8"/>
</g>
<g id="clust6" class="cluster">
<title>cluster5</title>
<polygon fill="none" stroke="transparent" points="5625,-8 5625,-132 5935,-132 5935,-8 5625,-8"/>
</g>
<g id="clust7" class="cluster">
<title>cluster6</title>
<polygon fill="none" stroke="transparent" points="5943,-8 5943,-132 6253,-132 6253,-8 5943,-8"/>
</g>
<g id="clust8" class="cluster">
<title>cluster7</title>
<polygon fill="none" stroke="transparent" points="6261,-8 6261,-132 6571,-132 6571,-8 6261,-8"/>
</g>
<g id="clust9" class="cluster">
<title>cluster8</title>
<polygon fill="none" stroke="transparent" points="6579,-80 6579,-132 6773,-132 6773,-80 6579,-80"/>
</g>
<g id="clust10" class="cluster">
<title>cluster9</title>
<polygon fill="none" stroke="transparent" points="6781,-8 6781,-132 7091,-132 7091,-8 6781,-8"/>
</g>
<g id="clust12" class="cluster">
<title>cluster11</title>
<polygon fill="none" stroke="transparent" points="7099,-8 7099,-132 7409,-132 7409,-8 7099,-8"/>
</g>
<g id="clust13" class="cluster">
<title>cluster12</title>
<polygon fill="none" stroke="transparent" points="7417,-8 7417,-132 7727,-132 7727,-8 7417,-8"/>
</g>
<g id="node1" class="node">
<title></title>
<ellipse fill="none" stroke="transparent" cx="43" cy="-106" rx="27" ry="18"/>
</g>
<!-- f_1_3851064298 -->
<g id="node2" class="node">
<title>f_1_3851064298</title>
<text text-anchor="middle" x="1151" y="-102.3" font-family="Latin Modern Roman" font-size="14.00">fn_client_hello</text>
</g>
<!-- v_1_2323293095 -->
<g id="node3" class="node">
<title>v_1_2323293095</title>
<text text-anchor="middle" x="268" y="-30.3" font-family="Latin Modern Roman" font-size="14.00">(0, 0)[Some(Handshake(None))]/ProtocolVersion</text>
</g>
<!-- f_1_3851064298&#45;&gt;v_1_2323293095 -->
<g id="edge1" class="edge">
<title>f_1_3851064298&#45;&gt;v_1_2323293095</title>
<path fill="none" stroke="black" d="M1093.4,-100.43C965.65,-90.31 653.94,-65.6 452.24,-49.61"/>
<polygon fill="black" stroke="black" points="452.36,-46.1 442.12,-48.8 451.81,-53.08 452.36,-46.1"/>
</g>
<!-- v_1_3286751038 -->
<g id="node4" class="node">
<title>v_1_3286751038</title>
<text text-anchor="middle" x="610" y="-30.3" font-family="Latin Modern Roman" font-size="14.00">(0, 0)[Some(Handshake(None))]/Random</text>
</g>
<!-- f_1_3851064298&#45;&gt;v_1_3286751038 -->
<g id="edge2" class="edge">
<title>f_1_3851064298&#45;&gt;v_1_3286751038</title>
<path fill="none" stroke="black" d="M1093.36,-97.54C1012.55,-87.09 863.01,-67.74 751.57,-53.32"/>
<polygon fill="black" stroke="black" points="751.96,-49.84 741.59,-52.03 751.06,-56.78 751.96,-49.84"/>
</g>
<!-- v_1_3145880034 -->
<g id="node5" class="node">
<title>v_1_3145880034</title>
<text text-anchor="middle" x="934" y="-30.3" font-family="Latin Modern Roman" font-size="14.00">(0, 0)[Some(Handshake(None))]/SessionID</text>
</g>
<!-- f_1_3851064298&#45;&gt;v_1_3145880034 -->
<g id="edge3" class="edge">
<title>f_1_3851064298&#45;&gt;v_1_3145880034</title>
<path fill="none" stroke="black" d="M1098.19,-87.97C1067.61,-78.1 1028.93,-65.62 996.79,-55.25"/>
<polygon fill="black" stroke="black" points="997.64,-51.85 987.04,-52.11 995.49,-58.51 997.64,-51.85"/>
</g>
<!-- v_1_303030712 -->
<g id="node6" class="node">
<title>v_1_303030712</title>
<text text-anchor="middle" x="1369" y="-30.3" font-family="Latin Modern Roman" font-size="14.00">(0, 0)[Some(Handshake(None))]/Vec&lt;rustls::msgs::enums::CipherSuite&gt;</text>
</g>
<!-- f_1_3851064298&#45;&gt;v_1_303030712 -->
<g id="edge4" class="edge">
<title>f_1_3851064298&#45;&gt;v_1_303030712</title>
<path fill="none" stroke="black" d="M1204.05,-87.97C1234.77,-78.1 1273.64,-65.62 1305.92,-55.25"/>
<polygon fill="black" stroke="black" points="1307.26,-58.5 1315.71,-52.11 1305.12,-51.84 1307.26,-58.5"/>
</g>
<!-- v_1_2627181434 -->
<g id="node7" class="node">
<title>v_1_2627181434</title>
<text text-anchor="middle" x="1914" y="-30.3" font-family="Latin Modern Roman" font-size="14.00">(0, 0)[Some(Handshake(None))]/Vec&lt;rustls::msgs::enums::Compression&gt;</text>
</g>
<!-- f_1_3851064298&#45;&gt;v_1_2627181434 -->
<g id="edge5" class="edge">
<title>f_1_3851064298&#45;&gt;v_1_2627181434</title>
<path fill="none" stroke="black" d="M1208.66,-99.71C1315.63,-89.9 1549.29,-68.46 1718.42,-52.94"/>
<polygon fill="black" stroke="black" points="1718.81,-56.42 1728.45,-52.02 1718.17,-49.45 1718.81,-56.42"/>
</g>
<!-- v_1_2240088793 -->
<g id="node8" class="node">
<title>v_1_2240088793</title>
<text text-anchor="middle" x="2487" y="-30.3" font-family="Latin Modern Roman" font-size="14.00">(0, 0)[Some(Handshake(None))]/Vec&lt;rustls::msgs::handshake::ClientExtension&gt;</text>
</g>
<!-- f_1_3851064298&#45;&gt;v_1_2240088793 -->
<g id="edge6" class="edge">
<title>f_1_3851064298&#45;&gt;v_1_2240088793</title>
<path fill="none" stroke="black" d="M1208.84,-101.97C1375.37,-93.24 1864.69,-67.61 2187.3,-50.7"/>
<polygon fill="black" stroke="black" points="2187.95,-54.17 2197.75,-50.16 2187.58,-47.18 2187.95,-54.17"/>
</g>
<!-- f_2_2935366179 -->
<g id="node9" class="node">
<title>f_2_2935366179</title>
<text text-anchor="middle" x="3807" y="-102.3" font-family="Latin Modern Roman" font-size="14.00">fn_server_hello</text>
</g>
<!-- v_2_3205490527 -->
<g id="node10" class="node">
<title>v_2_3205490527</title>
<text text-anchor="middle" x="2974" y="-30.3" font-family="Latin Modern Roman" font-size="14.00">(1, 0)[Some(Handshake(None))]/ProtocolVersion</text>
</g>
<!-- f_2_2935366179&#45;&gt;v_2_3205490527 -->
<g id="edge7" class="edge">
<title>f_2_2935366179&#45;&gt;v_2_3205490527</title>
<path fill="none" stroke="black" d="M3745.75,-99.85C3623.54,-89.58 3345.14,-66.19 3158.32,-50.49"/>
<polygon fill="black" stroke="black" points="3158.36,-46.98 3148.1,-49.63 3157.77,-53.96 3158.36,-46.98"/>
</g>
<!-- v_2_3628681378 -->
<g id="node11" class="node">
<title>v_2_3628681378</title>
<text text-anchor="middle" x="3316" y="-30.3" font-family="Latin Modern Roman" font-size="14.00">(1, 0)[Some(Handshake(None))]/Random</text>
</g>
<!-- f_2_2935366179&#45;&gt;v_2_3628681378 -->
<g id="edge8" class="edge">
<title>f_2_2935366179&#45;&gt;v_2_3628681378</title>
<path fill="none" stroke="black" d="M3745.81,-96.28C3671.07,-85.62 3542.64,-67.31 3445.58,-53.47"/>
<polygon fill="black" stroke="black" points="3445.79,-49.97 3435.4,-52.02 3444.8,-56.9 3445.79,-49.97"/>
</g>
<!-- v_2_4111484974 -->
<g id="node12" class="node">
<title>v_2_4111484974</title>
<text text-anchor="middle" x="3640" y="-30.3" font-family="Latin Modern Roman" font-size="14.00">(1, 0)[Some(Handshake(None))]/SessionID</text>
</g>
<!-- f_2_2935366179&#45;&gt;v_2_4111484974 -->
<g id="edge9" class="edge">
<title>f_2_2935366179&#45;&gt;v_2_4111484974</title>
<path fill="none" stroke="black" d="M3766.15,-87.88C3743.22,-78.26 3714.42,-66.19 3690.13,-56.01"/>
<polygon fill="black" stroke="black" points="3691.3,-52.71 3680.72,-52.07 3688.59,-59.16 3691.3,-52.71"/>
</g>
<!-- v_2_3236441489 -->
<g id="node13" class="node">
<title>v_2_3236441489</title>
<text text-anchor="middle" x="3975" y="-30.3" font-family="Latin Modern Roman" font-size="14.00">(1, 0)[Some(Handshake(None))]/CipherSuite</text>
</g>
<!-- f_2_2935366179&#45;&gt;v_2_3236441489 -->
<g id="edge10" class="edge">
<title>f_2_2935366179&#45;&gt;v_2_3236441489</title>
<path fill="none" stroke="black" d="M3848.1,-87.88C3871.17,-78.26 3900.14,-66.19 3924.57,-56.01"/>
<polygon fill="black" stroke="black" points="3926.15,-59.15 3934.04,-52.07 3923.46,-52.68 3926.15,-59.15"/>
</g>
<!-- v_2_6103085 -->
<g id="node14" class="node">
<title>v_2_6103085</title>
<text text-anchor="middle" x="4321" y="-30.3" font-family="Latin Modern Roman" font-size="14.00">(1, 0)[Some(Handshake(None))]/Compression</text>
</g>
<!-- f_2_2935366179&#45;&gt;v_2_6103085 -->
<g id="edge11" class="edge">
<title>f_2_2935366179&#45;&gt;v_2_6103085</title>
<path fill="none" stroke="black" d="M3868.24,-96.66C3946.16,-86.05 4083,-67.41 4185.9,-53.4"/>
<polygon fill="black" stroke="black" points="4186.63,-56.83 4196.07,-52.01 4185.69,-49.9 4186.63,-56.83"/>
</g>
<!-- v_2_3188213909 -->
<g id="node15" class="node">
<title>v_2_3188213909</title>
<text text-anchor="middle" x="4797" y="-30.3" font-family="Latin Modern Roman" font-size="14.00">(1, 0)[Some(Handshake(None))]/Vec&lt;rustls::msgs::handshake::ServerExtension&gt;</text>
</g>
<!-- f_2_2935366179&#45;&gt;v_2_3188213909 -->
<g id="edge12" class="edge">
<title>f_2_2935366179&#45;&gt;v_2_3188213909</title>
<path fill="none" stroke="black" d="M3868.18,-100.67C4000.43,-91.32 4319.32,-68.78 4546.48,-52.71"/>
<polygon fill="black" stroke="black" points="4546.82,-56.2 4556.55,-52 4546.33,-49.22 4546.82,-56.2"/>
</g>
<!-- f_3_1663857417 -->
<g id="node16" class="node">
<title>f_3_1663857417</title>
<text text-anchor="middle" x="5202" y="-102.3" font-family="Latin Modern Roman" font-size="14.00">fn_change_cipher_spec</text>
</g>
<!-- f_4_1095810747 -->
<g id="node17" class="node">
<title>f_4_1095810747</title>
<text text-anchor="middle" x="5462" y="-102.3" font-family="Latin Modern Roman" font-size="14.00">fn_application_data</text>
</g>
<!-- v_4_611759070 -->
<g id="node18" class="node">
<title>v_4_611759070</title>
<text text-anchor="middle" x="5462" y="-30.3" font-family="Latin Modern Roman" font-size="14.00">(1, 0)[Some(ApplicationData)]/Vec&lt;u8&gt;</text>
</g>
<!-- f_4_1095810747&#45;&gt;v_4_611759070 -->
<g id="edge13" class="edge">
<title>f_4_1095810747&#45;&gt;v_4_611759070</title>
<path fill="none" stroke="black" d="M5462,-87.7C5462,-79.98 5462,-70.71 5462,-62.11"/>
<polygon fill="black" stroke="black" points="5465.5,-62.1 5462,-52.1 5458.5,-62.1 5465.5,-62.1"/>
</g>
<!-- f_5_1547598166 -->
<g id="node19" class="node">
<title>f_5_1547598166</title>
<text text-anchor="middle" x="5780" y="-102.3" font-family="Latin Modern Roman" font-size="14.00">fn_application_data</text>
</g>
<!-- v_5_2744444284 -->
<g id="node20" class="node">
<title>v_5_2744444284</title>
<text text-anchor="middle" x="5780" y="-30.3" font-family="Latin Modern Roman" font-size="14.00">(1, 1)[Some(ApplicationData)]/Vec&lt;u8&gt;</text>
</g>
<!-- f_5_1547598166&#45;&gt;v_5_2744444284 -->
<g id="edge14" class="edge">
<title>f_5_1547598166&#45;&gt;v_5_2744444284</title>
<path fill="none" stroke="black" d="M5780,-87.7C5780,-79.98 5780,-70.71 5780,-62.11"/>
<polygon fill="black" stroke="black" points="5783.5,-62.1 5780,-52.1 5776.5,-62.1 5783.5,-62.1"/>
</g>
<!-- f_6_1529372727 -->
<g id="node21" class="node">
<title>f_6_1529372727</title>
<text text-anchor="middle" x="6098" y="-102.3" font-family="Latin Modern Roman" font-size="14.00">fn_application_data</text>
</g>
<!-- v_6_237755149 -->
<g id="node22" class="node">
<title>v_6_237755149</title>
<text text-anchor="middle" x="6098" y="-30.3" font-family="Latin Modern Roman" font-size="14.00">(1, 2)[Some(ApplicationData)]/Vec&lt;u8&gt;</text>
</g>
<!-- f_6_1529372727&#45;&gt;v_6_237755149 -->
<g id="edge15" class="edge">
<title>f_6_1529372727&#45;&gt;v_6_237755149</title>
<path fill="none" stroke="black" d="M6098,-87.7C6098,-79.98 6098,-70.71 6098,-62.11"/>
<polygon fill="black" stroke="black" points="6101.5,-62.1 6098,-52.1 6094.5,-62.1 6101.5,-62.1"/>
</g>
<!-- f_7_3161992230 -->
<g id="node23" class="node">
<title>f_7_3161992230</title>
<text text-anchor="middle" x="6416" y="-102.3" font-family="Latin Modern Roman" font-size="14.00">fn_application_data</text>
</g>
<!-- v_7_254730073 -->
<g id="node24" class="node">
<title>v_7_254730073</title>
<text text-anchor="middle" x="6416" y="-30.3" font-family="Latin Modern Roman" font-size="14.00">(1, 3)[Some(ApplicationData)]/Vec&lt;u8&gt;</text>
</g>
<!-- f_7_3161992230&#45;&gt;v_7_254730073 -->
<g id="edge16" class="edge">
<title>f_7_3161992230&#45;&gt;v_7_254730073</title>
<path fill="none" stroke="black" d="M6416,-87.7C6416,-79.98 6416,-70.71 6416,-62.11"/>
<polygon fill="black" stroke="black" points="6419.5,-62.1 6416,-52.1 6412.5,-62.1 6419.5,-62.1"/>
</g>
<!-- f_8_3593250539 -->
<g id="node25" class="node">
<title>f_8_3593250539</title>
<text text-anchor="middle" x="6676" y="-102.3" font-family="Latin Modern Roman" font-size="14.00">fn_change_cipher_spec</text>
</g>
<!-- f_9_3915384832 -->
<g id="node26" class="node">
<title>f_9_3915384832</title>
<text text-anchor="middle" x="6936" y="-102.3" font-family="Latin Modern Roman" font-size="14.00">fn_application_data</text>
</g>
<!-- v_9_1876739819 -->
<g id="node27" class="node">
<title>v_9_1876739819</title>
<text text-anchor="middle" x="6936" y="-30.3" font-family="Latin Modern Roman" font-size="14.00">(0, 0)[Some(ApplicationData)]/Vec&lt;u8&gt;</text>
</g>
<!-- f_9_3915384832&#45;&gt;v_9_1876739819 -->
<g id="edge17" class="edge">
<title>f_9_3915384832&#45;&gt;v_9_1876739819</title>
<path fill="none" stroke="black" d="M6936,-87.7C6936,-79.98 6936,-70.71 6936,-62.11"/>
<polygon fill="black" stroke="black" points="6939.5,-62.1 6936,-52.1 6932.5,-62.1 6939.5,-62.1"/>
</g>
<!-- f_11_3875992565 -->
<g id="node28" class="node">
<title>f_11_3875992565</title>
<text text-anchor="middle" x="7254" y="-102.3" font-family="Latin Modern Roman" font-size="14.00">fn_application_data</text>
</g>
<!-- v_11_4249741942 -->
<g id="node29" class="node">
<title>v_11_4249741942</title>
<text text-anchor="middle" x="7254" y="-30.3" font-family="Latin Modern Roman" font-size="14.00">(1, 4)[Some(ApplicationData)]/Vec&lt;u8&gt;</text>
</g>
<!-- f_11_3875992565&#45;&gt;v_11_4249741942 -->
<g id="edge18" class="edge">
<title>f_11_3875992565&#45;&gt;v_11_4249741942</title>
<path fill="none" stroke="black" d="M7254,-87.7C7254,-79.98 7254,-70.71 7254,-62.11"/>
<polygon fill="black" stroke="black" points="7257.5,-62.1 7254,-52.1 7250.5,-62.1 7257.5,-62.1"/>
</g>
<!-- f_12_1930090950 -->
<g id="node30" class="node">
<title>f_12_1930090950</title>
<text text-anchor="middle" x="7572" y="-102.3" font-family="Latin Modern Roman" font-size="14.00">fn_application_data</text>
</g>
<!-- v_12_2292426798 -->
<g id="node31" class="node">
<title>v_12_2292426798</title>
<text text-anchor="middle" x="7572" y="-30.3" font-family="Latin Modern Roman" font-size="14.00">(1, 5)[Some(ApplicationData)]/Vec&lt;u8&gt;</text>
</g>
<!-- f_12_1930090950&#45;&gt;v_12_2292426798 -->
<g id="edge19" class="edge">
<title>f_12_1930090950&#45;&gt;v_12_2292426798</title>
<path fill="none" stroke="black" d="M7572,-87.7C7572,-79.98 7572,-70.71 7572,-62.11"/>
<polygon fill="black" stroke="black" points="7575.5,-62.1 7572,-52.1 7568.5,-62.1 7575.5,-62.1"/>
</g>
</g>
</svg>
