<?xml version="1.0" encoding="UTF-8" standalone="no"?>
<!DOCTYPE svg PUBLIC "-//W3C//DTD SVG 1.1//EN"
 "http://www.w3.org/Graphics/SVG/1.1/DTD/svg11.dtd">
<!-- Generated by graphviz version 2.49.0 (0)
 -->
<!-- Title: Trace Pages: 1 -->
<svg width="6703pt" height="148pt"
 viewBox="0.00 0.00 6703.00 148.00" xmlns="http://www.w3.org/2000/svg" xmlns:xlink="http://www.w3.org/1999/xlink">
<g id="graph0" class="graph" transform="scale(1 1) rotate(0) translate(4 144)">
<title>Trace</title>
<polygon fill="white" stroke="transparent" points="-4,4 -4,-144 6699,-144 6699,4 -4,4"/>
<g id="clust1" class="cluster">
<title>cluster0</title>
<polygon fill="none" stroke="transparent" points="8,-80 8,-132 78,-132 78,-80 8,-80"/>
</g>
<g id="clust2" class="cluster">
<title>cluster1</title>
<polygon fill="none" stroke="transparent" points="86,-8 86,-132 2784,-132 2784,-8 86,-8"/>
</g>
<g id="clust3" class="cluster">
<title>cluster2</title>
<polygon fill="none" stroke="transparent" points="2792,-8 2792,-132 5097,-132 5097,-8 2792,-8"/>
</g>
<g id="clust4" class="cluster">
<title>cluster3</title>
<polygon fill="none" stroke="transparent" points="5105,-8 5105,-132 5415,-132 5415,-8 5105,-8"/>
</g>
<g id="clust5" class="cluster">
<title>cluster4</title>
<polygon fill="none" stroke="transparent" points="5423,-8 5423,-132 5733,-132 5733,-8 5423,-8"/>
</g>
<g id="clust6" class="cluster">
<title>cluster5</title>
<polygon fill="none" stroke="transparent" points="5741,-8 5741,-132 6051,-132 6051,-8 5741,-8"/>
</g>
<g id="clust7" class="cluster">
<title>cluster6</title>
<polygon fill="none" stroke="transparent" points="6059,-8 6059,-132 6369,-132 6369,-8 6059,-8"/>
</g>
<g id="clust8" class="cluster">
<title>cluster7</title>
<polygon fill="none" stroke="transparent" points="6377,-8 6377,-132 6687,-132 6687,-8 6377,-8"/>
</g>
<g id="node1" class="node">
<title></title>
<ellipse fill="none" stroke="transparent" cx="43" cy="-106" rx="27" ry="18"/>
</g>
<!-- f_1_856747004 -->
<g id="node2" class="node">
<title>f_1_856747004</title>
<text text-anchor="middle" x="1151" y="-102.3" font-family="Latin Modern Roman" font-size="14.00">fn_client_hello</text>
</g>
<!-- v_1_2968087692 -->
<g id="node3" class="node">
<title>v_1_2968087692</title>
<text text-anchor="middle" x="268" y="-30.3" font-family="Latin Modern Roman" font-size="14.00">(0, 0)[Some(Handshake(None))]/ProtocolVersion</text>
</g>
<!-- f_1_856747004&#45;&gt;v_1_2968087692 -->
<g id="edge1" class="edge">
<title>f_1_856747004&#45;&gt;v_1_2968087692</title>
<path fill="none" stroke="black" d="M1093.4,-100.43C965.65,-90.31 653.94,-65.6 452.24,-49.61"/>
<polygon fill="black" stroke="black" points="452.36,-46.1 442.12,-48.8 451.81,-53.08 452.36,-46.1"/>
</g>
<!-- v_1_2803062717 -->
<g id="node4" class="node">
<title>v_1_2803062717</title>
<text text-anchor="middle" x="610" y="-30.3" font-family="Latin Modern Roman" font-size="14.00">(0, 0)[Some(Handshake(None))]/Random</text>
</g>
<!-- f_1_856747004&#45;&gt;v_1_2803062717 -->
<g id="edge2" class="edge">
<title>f_1_856747004&#45;&gt;v_1_2803062717</title>
<path fill="none" stroke="black" d="M1093.36,-97.54C1012.55,-87.09 863.01,-67.74 751.57,-53.32"/>
<polygon fill="black" stroke="black" points="751.96,-49.84 741.59,-52.03 751.06,-56.78 751.96,-49.84"/>
</g>
<!-- v_1_718819063 -->
<g id="node5" class="node">
<title>v_1_718819063</title>
<text text-anchor="middle" x="934" y="-30.3" font-family="Latin Modern Roman" font-size="14.00">(0, 0)[Some(Handshake(None))]/SessionID</text>
</g>
<!-- f_1_856747004&#45;&gt;v_1_718819063 -->
<g id="edge3" class="edge">
<title>f_1_856747004&#45;&gt;v_1_718819063</title>
<path fill="none" stroke="black" d="M1098.19,-87.97C1067.61,-78.1 1028.93,-65.62 996.79,-55.25"/>
<polygon fill="black" stroke="black" points="997.64,-51.85 987.04,-52.11 995.49,-58.51 997.64,-51.85"/>
</g>
<!-- v_1_3533938432 -->
<g id="node6" class="node">
<title>v_1_3533938432</title>
<text text-anchor="middle" x="1369" y="-30.3" font-family="Latin Modern Roman" font-size="14.00">(0, 0)[Some(Handshake(None))]/Vec&lt;rustls::msgs::enums::CipherSuite&gt;</text>
</g>
<!-- f_1_856747004&#45;&gt;v_1_3533938432 -->
<g id="edge4" class="edge">
<title>f_1_856747004&#45;&gt;v_1_3533938432</title>
<path fill="none" stroke="black" d="M1204.05,-87.97C1234.77,-78.1 1273.64,-65.62 1305.92,-55.25"/>
<polygon fill="black" stroke="black" points="1307.26,-58.5 1315.71,-52.11 1305.12,-51.84 1307.26,-58.5"/>
</g>
<!-- v_1_3882658774 -->
<g id="node7" class="node">
<title>v_1_3882658774</title>
<text text-anchor="middle" x="1914" y="-30.3" font-family="Latin Modern Roman" font-size="14.00">(0, 0)[Some(Handshake(None))]/Vec&lt;rustls::msgs::enums::Compression&gt;</text>
</g>
<!-- f_1_856747004&#45;&gt;v_1_3882658774 -->
<g id="edge5" class="edge">
<title>f_1_856747004&#45;&gt;v_1_3882658774</title>
<path fill="none" stroke="black" d="M1208.66,-99.71C1315.63,-89.9 1549.29,-68.46 1718.42,-52.94"/>
<polygon fill="black" stroke="black" points="1718.81,-56.42 1728.45,-52.02 1718.17,-49.45 1718.81,-56.42"/>
</g>
<!-- v_1_3207679691 -->
<g id="node8" class="node">
<title>v_1_3207679691</title>
<text text-anchor="middle" x="2487" y="-30.3" font-family="Latin Modern Roman" font-size="14.00">(0, 0)[Some(Handshake(None))]/Vec&lt;rustls::msgs::handshake::ClientExtension&gt;</text>
</g>
<!-- f_1_856747004&#45;&gt;v_1_3207679691 -->
<g id="edge6" class="edge">
<title>f_1_856747004&#45;&gt;v_1_3207679691</title>
<path fill="none" stroke="black" d="M1208.84,-101.97C1375.37,-93.24 1864.69,-67.61 2187.3,-50.7"/>
<polygon fill="black" stroke="black" points="2187.95,-54.17 2197.75,-50.16 2187.58,-47.18 2187.95,-54.17"/>
</g>
<!-- f_2_375330675 -->
<g id="node9" class="node">
<title>f_2_375330675</title>
<text text-anchor="middle" x="3807" y="-102.3" font-family="Latin Modern Roman" font-size="14.00">fn_server_hello</text>
</g>
<!-- v_2_2823166431 -->
<g id="node10" class="node">
<title>v_2_2823166431</title>
<text text-anchor="middle" x="2974" y="-30.3" font-family="Latin Modern Roman" font-size="14.00">(1, 0)[Some(Handshake(None))]/ProtocolVersion</text>
</g>
<!-- f_2_375330675&#45;&gt;v_2_2823166431 -->
<g id="edge7" class="edge">
<title>f_2_375330675&#45;&gt;v_2_2823166431</title>
<path fill="none" stroke="black" d="M3745.75,-99.85C3623.54,-89.58 3345.14,-66.19 3158.32,-50.49"/>
<polygon fill="black" stroke="black" points="3158.36,-46.98 3148.1,-49.63 3157.77,-53.96 3158.36,-46.98"/>
</g>
<!-- v_2_2720489083 -->
<g id="node11" class="node">
<title>v_2_2720489083</title>
<text text-anchor="middle" x="3316" y="-30.3" font-family="Latin Modern Roman" font-size="14.00">(1, 0)[Some(Handshake(None))]/Random</text>
</g>
<!-- f_2_375330675&#45;&gt;v_2_2720489083 -->
<g id="edge8" class="edge">
<title>f_2_375330675&#45;&gt;v_2_2720489083</title>
<path fill="none" stroke="black" d="M3745.81,-96.28C3671.07,-85.62 3542.64,-67.31 3445.58,-53.47"/>
<polygon fill="black" stroke="black" points="3445.79,-49.97 3435.4,-52.02 3444.8,-56.9 3445.79,-49.97"/>
</g>
<!-- v_2_1791366286 -->
<g id="node12" class="node">
<title>v_2_1791366286</title>
<text text-anchor="middle" x="3640" y="-30.3" font-family="Latin Modern Roman" font-size="14.00">(1, 0)[Some(Handshake(None))]/SessionID</text>
</g>
<!-- f_2_375330675&#45;&gt;v_2_1791366286 -->
<g id="edge9" class="edge">
<title>f_2_375330675&#45;&gt;v_2_1791366286</title>
<path fill="none" stroke="black" d="M3766.15,-87.88C3743.22,-78.26 3714.42,-66.19 3690.13,-56.01"/>
<polygon fill="black" stroke="black" points="3691.3,-52.71 3680.72,-52.07 3688.59,-59.16 3691.3,-52.71"/>
</g>
<!-- v_2_3662253507 -->
<g id="node13" class="node">
<title>v_2_3662253507</title>
<text text-anchor="middle" x="3975" y="-30.3" font-family="Latin Modern Roman" font-size="14.00">(1, 0)[Some(Handshake(None))]/CipherSuite</text>
</g>
<!-- f_2_375330675&#45;&gt;v_2_3662253507 -->
<g id="edge10" class="edge">
<title>f_2_375330675&#45;&gt;v_2_3662253507</title>
<path fill="none" stroke="black" d="M3848.1,-87.88C3871.17,-78.26 3900.14,-66.19 3924.57,-56.01"/>
<polygon fill="black" stroke="black" points="3926.15,-59.15 3934.04,-52.07 3923.46,-52.68 3926.15,-59.15"/>
</g>
<!-- v_2_4114970103 -->
<g id="node14" class="node">
<title>v_2_4114970103</title>
<text text-anchor="middle" x="4321" y="-30.3" font-family="Latin Modern Roman" font-size="14.00">(1, 0)[Some(Handshake(None))]/Compression</text>
</g>
<!-- f_2_375330675&#45;&gt;v_2_4114970103 -->
<g id="edge11" class="edge">
<title>f_2_375330675&#45;&gt;v_2_4114970103</title>
<path fill="none" stroke="black" d="M3868.24,-96.66C3946.16,-86.05 4083,-67.41 4185.9,-53.4"/>
<polygon fill="black" stroke="black" points="4186.63,-56.83 4196.07,-52.01 4185.69,-49.9 4186.63,-56.83"/>
</g>
<!-- v_2_4181510533 -->
<g id="node15" class="node">
<title>v_2_4181510533</title>
<text text-anchor="middle" x="4797" y="-30.3" font-family="Latin Modern Roman" font-size="14.00">(1, 0)[Some(Handshake(None))]/Vec&lt;rustls::msgs::handshake::ServerExtension&gt;</text>
</g>
<!-- f_2_375330675&#45;&gt;v_2_4181510533 -->
<g id="edge12" class="edge">
<title>f_2_375330675&#45;&gt;v_2_4181510533</title>
<path fill="none" stroke="black" d="M3868.18,-100.67C4000.43,-91.32 4319.32,-68.78 4546.48,-52.71"/>
<polygon fill="black" stroke="black" points="4546.82,-56.2 4556.55,-52 4546.33,-49.22 4546.82,-56.2"/>
</g>
<!-- f_3_1137498067 -->
<g id="node16" class="node">
<title>f_3_1137498067</title>
<text text-anchor="middle" x="5260" y="-102.3" font-family="Latin Modern Roman" font-size="14.00">fn_application_data</text>
</g>
<!-- v_3_1703986303 -->
<g id="node17" class="node">
<title>v_3_1703986303</title>
<text text-anchor="middle" x="5260" y="-30.3" font-family="Latin Modern Roman" font-size="14.00">(1, 0)[Some(ApplicationData)]/Vec&lt;u8&gt;</text>
</g>
<!-- f_3_1137498067&#45;&gt;v_3_1703986303 -->
<g id="edge13" class="edge">
<title>f_3_1137498067&#45;&gt;v_3_1703986303</title>
<path fill="none" stroke="black" d="M5260,-87.7C5260,-79.98 5260,-70.71 5260,-62.11"/>
<polygon fill="black" stroke="black" points="5263.5,-62.1 5260,-52.1 5256.5,-62.1 5263.5,-62.1"/>
</g>
<!-- f_4_3861561931 -->
<g id="node18" class="node">
<title>f_4_3861561931</title>
<text text-anchor="middle" x="5578" y="-102.3" font-family="Latin Modern Roman" font-size="14.00">fn_application_data</text>
</g>
<!-- v_4_2644955821 -->
<g id="node19" class="node">
<title>v_4_2644955821</title>
<text text-anchor="middle" x="5578" y="-30.3" font-family="Latin Modern Roman" font-size="14.00">(1, 1)[Some(ApplicationData)]/Vec&lt;u8&gt;</text>
</g>
<!-- f_4_3861561931&#45;&gt;v_4_2644955821 -->
<g id="edge14" class="edge">
<title>f_4_3861561931&#45;&gt;v_4_2644955821</title>
<path fill="none" stroke="black" d="M5578,-87.7C5578,-79.98 5578,-70.71 5578,-62.11"/>
<polygon fill="black" stroke="black" points="5581.5,-62.1 5578,-52.1 5574.5,-62.1 5581.5,-62.1"/>
</g>
<!-- f_5_4294932762 -->
<g id="node20" class="node">
<title>f_5_4294932762</title>
<text text-anchor="middle" x="5896" y="-102.3" font-family="Latin Modern Roman" font-size="14.00">fn_application_data</text>
</g>
<!-- v_5_1616675137 -->
<g id="node21" class="node">
<title>v_5_1616675137</title>
<text text-anchor="middle" x="5896" y="-30.3" font-family="Latin Modern Roman" font-size="14.00">(1, 2)[Some(ApplicationData)]/Vec&lt;u8&gt;</text>
</g>
<!-- f_5_4294932762&#45;&gt;v_5_1616675137 -->
<g id="edge15" class="edge">
<title>f_5_4294932762&#45;&gt;v_5_1616675137</title>
<path fill="none" stroke="black" d="M5896,-87.7C5896,-79.98 5896,-70.71 5896,-62.11"/>
<polygon fill="black" stroke="black" points="5899.5,-62.1 5896,-52.1 5892.5,-62.1 5899.5,-62.1"/>
</g>
<!-- f_6_4006461282 -->
<g id="node22" class="node">
<title>f_6_4006461282</title>
<text text-anchor="middle" x="6214" y="-102.3" font-family="Latin Modern Roman" font-size="14.00">fn_application_data</text>
</g>
<!-- v_6_3851921786 -->
<g id="node23" class="node">
<title>v_6_3851921786</title>
<text text-anchor="middle" x="6214" y="-30.3" font-family="Latin Modern Roman" font-size="14.00">(1, 3)[Some(ApplicationData)]/Vec&lt;u8&gt;</text>
</g>
<!-- f_6_4006461282&#45;&gt;v_6_3851921786 -->
<g id="edge16" class="edge">
<title>f_6_4006461282&#45;&gt;v_6_3851921786</title>
<path fill="none" stroke="black" d="M6214,-87.7C6214,-79.98 6214,-70.71 6214,-62.11"/>
<polygon fill="black" stroke="black" points="6217.5,-62.1 6214,-52.1 6210.5,-62.1 6217.5,-62.1"/>
</g>
<!-- f_7_166320418 -->
<g id="node24" class="node">
<title>f_7_166320418</title>
<text text-anchor="middle" x="6532" y="-102.3" font-family="Latin Modern Roman" font-size="14.00">fn_application_data</text>
</g>
<!-- v_7_266517409 -->
<g id="node25" class="node">
<title>v_7_266517409</title>
<text text-anchor="middle" x="6532" y="-30.3" font-family="Latin Modern Roman" font-size="14.00">(0, 0)[Some(ApplicationData)]/Vec&lt;u8&gt;</text>
</g>
<!-- f_7_166320418&#45;&gt;v_7_266517409 -->
<g id="edge17" class="edge">
<title>f_7_166320418&#45;&gt;v_7_266517409</title>
<path fill="none" stroke="black" d="M6532,-87.7C6532,-79.98 6532,-70.71 6532,-62.11"/>
<polygon fill="black" stroke="black" points="6535.5,-62.1 6532,-52.1 6528.5,-62.1 6535.5,-62.1"/>
</g>
</g>
</svg>
