<?xml version="1.0" encoding="UTF-8" standalone="no"?>
<!DOCTYPE svg PUBLIC "-//W3C//DTD SVG 1.1//EN"
 "http://www.w3.org/Graphics/SVG/1.1/DTD/svg11.dtd">
<!-- Generated by graphviz version 2.47.2 (0)
 -->
<!-- Pages: 1 -->
<svg width="1140pt" height="1395pt"
 viewBox="0.00 0.00 1140.00 1395.00" xmlns="http://www.w3.org/2000/svg" xmlns:xlink="http://www.w3.org/1999/xlink">
<g id="graph0" class="graph" transform="scale(1 1) rotate(0) translate(4 1391)">
<polygon fill="white" stroke="transparent" points="-4,4 -4,-1391 1136,-1391 1136,4 -4,4"/>
<g id="clust1" class="cluster">
<title>cluster5</title>
<polygon fill="none" stroke="black" points="8,-8 8,-1379 1124,-1379 1124,-8 8,-8"/>
<text text-anchor="middle" x="566" y="-1363.8" font-family="Times,serif" font-size="14.00">Step #5 (Agent &#160;1)</text>
</g>
<!-- f_5_45729961 -->
<g id="node1" class="node">
<title>f_5_45729961</title>
<polygon fill="#d95f02" stroke="black" points="853,-1348 743,-1348 743,-1312 853,-1312 853,-1348"/>
<text text-anchor="middle" x="798" y="-1326.3" font-family="Times,serif" font-size="14.00">fn_encrypt12</text>
</g>
<!-- f_5_3514266270 -->
<g id="node2" class="node">
<title>f_5_3514266270</title>
<polygon fill="#d95f02" stroke="black" points="580.5,-1276 461.5,-1276 461.5,-1240 580.5,-1240 580.5,-1276"/>
<text text-anchor="middle" x="521" y="-1254.3" font-family="Times,serif" font-size="14.00">fn_client_hello</text>
</g>
<!-- f_5_45729961&#45;&gt;f_5_3514266270 -->
<g id="edge1" class="edge">
<title>f_5_45729961&#45;&gt;f_5_3514266270</title>
<path fill="none" stroke="black" d="M742.94,-1315.09C699.19,-1304.03 637.74,-1288.5 590.58,-1276.58"/>
<polygon fill="black" stroke="black" points="591.3,-1273.16 580.75,-1274.1 589.59,-1279.94 591.3,-1273.16"/>
</g>
<!-- v_5_1021220723 -->
<g id="node56" class="node">
<title>v_5_1021220723</title>
<ellipse fill="#1b9e77" stroke="black" cx="706" cy="-1258" rx="73.39" ry="18"/>
<text text-anchor="middle" x="706" y="-1254.3" font-family="Times,serif" font-size="14.00">(0,0)/Random</text>
</g>
<!-- f_5_45729961&#45;&gt;v_5_1021220723 -->
<g id="edge55" class="edge">
<title>f_5_45729961&#45;&gt;v_5_1021220723</title>
<path fill="none" stroke="black" d="M775.26,-1311.7C763.3,-1302.6 748.49,-1291.33 735.64,-1281.55"/>
<polygon fill="black" stroke="black" points="737.61,-1278.65 727.53,-1275.38 733.37,-1284.22 737.61,-1278.65"/>
</g>
<!-- f_5_3096879376 -->
<g id="node57" class="node">
<title>f_5_3096879376</title>
<polygon fill="#d95f02" stroke="black" points="985,-1276 797,-1276 797,-1240 985,-1240 985,-1276"/>
<text text-anchor="middle" x="891" y="-1254.3" font-family="Times,serif" font-size="14.00">fn_decode_ecdh_params</text>
</g>
<!-- f_5_45729961&#45;&gt;f_5_3096879376 -->
<g id="edge56" class="edge">
<title>f_5_45729961&#45;&gt;f_5_3096879376</title>
<path fill="none" stroke="black" d="M820.99,-1311.7C832.81,-1302.8 847.39,-1291.82 860.18,-1282.2"/>
<polygon fill="black" stroke="black" points="862.39,-1284.91 868.28,-1276.1 858.18,-1279.32 862.39,-1284.91"/>
</g>
<!-- f_5_2835899251 -->
<g id="node59" class="node">
<title>f_5_2835899251</title>
<polygon fill="#1b9e77" stroke="black" points="1081,-1276 1003,-1276 1003,-1240 1081,-1240 1081,-1276"/>
<text text-anchor="middle" x="1042" y="-1254.3" font-family="Times,serif" font-size="14.00">fn_seq_1</text>
</g>
<!-- f_5_45729961&#45;&gt;f_5_2835899251 -->
<g id="edge58" class="edge">
<title>f_5_45729961&#45;&gt;f_5_2835899251</title>
<path fill="none" stroke="black" d="M853.24,-1315.26C890.37,-1305.75 940.59,-1292.37 992.98,-1276.21"/>
<polygon fill="black" stroke="black" points="994.28,-1279.47 1002.79,-1273.16 992.2,-1272.79 994.28,-1279.47"/>
</g>
<!-- f_5_4049292577 -->
<g id="node3" class="node">
<title>f_5_4049292577</title>
<polygon fill="#1b9e77" stroke="black" points="189.5,-1204 16.5,-1204 16.5,-1168 189.5,-1168 189.5,-1204"/>
<text text-anchor="middle" x="103" y="-1182.3" font-family="Times,serif" font-size="14.00">fn_protocol_version12</text>
</g>
<!-- f_5_3514266270&#45;&gt;f_5_4049292577 -->
<g id="edge2" class="edge">
<title>f_5_3514266270&#45;&gt;f_5_4049292577</title>
<path fill="none" stroke="black" d="M461.32,-1247.4C398.8,-1237.29 297.45,-1220.77 199.66,-1204.1"/>
<polygon fill="black" stroke="black" points="200.04,-1200.62 189.6,-1202.38 198.87,-1207.52 200.04,-1200.62"/>
</g>
<!-- f_5_2233309200 -->
<g id="node4" class="node">
<title>f_5_2233309200</title>
<polygon fill="#1b9e77" stroke="black" points="300,-1204 208,-1204 208,-1168 300,-1168 300,-1204"/>
<text text-anchor="middle" x="254" y="-1182.3" font-family="Times,serif" font-size="14.00">fn_random</text>
</g>
<!-- f_5_3514266270&#45;&gt;f_5_2233309200 -->
<g id="edge3" class="edge">
<title>f_5_3514266270&#45;&gt;f_5_2233309200</title>
<path fill="none" stroke="black" d="M461.37,-1243.02C421.09,-1233.36 366.52,-1219.86 309.99,-1204.21"/>
<polygon fill="black" stroke="black" points="310.73,-1200.78 300.16,-1201.47 308.85,-1207.52 310.73,-1200.78"/>
</g>
<!-- f_5_643191679 -->
<g id="node5" class="node">
<title>f_5_643191679</title>
<polygon fill="#1b9e77" stroke="black" points="428,-1204 318,-1204 318,-1168 428,-1168 428,-1204"/>
<text text-anchor="middle" x="373" y="-1182.3" font-family="Times,serif" font-size="14.00">fn_session_id</text>
</g>
<!-- f_5_3514266270&#45;&gt;f_5_643191679 -->
<g id="edge4" class="edge">
<title>f_5_3514266270&#45;&gt;f_5_643191679</title>
<path fill="none" stroke="black" d="M484.8,-1239.88C464.74,-1230.39 439.63,-1218.51 418.29,-1208.42"/>
<polygon fill="black" stroke="black" points="419.62,-1205.18 409.09,-1204.07 416.63,-1211.51 419.62,-1205.18"/>
</g>
<!-- f_5_124992425 -->
<g id="node6" class="node">
<title>f_5_124992425</title>
<polygon fill="#1b9e77" stroke="black" points="596,-1204 446,-1204 446,-1168 596,-1168 596,-1204"/>
<text text-anchor="middle" x="521" y="-1182.3" font-family="Times,serif" font-size="14.00">fn_cipher_suites12</text>
</g>
<!-- f_5_3514266270&#45;&gt;f_5_124992425 -->
<g id="edge5" class="edge">
<title>f_5_3514266270&#45;&gt;f_5_124992425</title>
<path fill="none" stroke="black" d="M521,-1239.7C521,-1231.98 521,-1222.71 521,-1214.11"/>
<polygon fill="black" stroke="black" points="524.5,-1214.1 521,-1204.1 517.5,-1214.1 524.5,-1214.1"/>
</g>
<!-- f_5_3821687318 -->
<g id="node7" class="node">
<title>f_5_3821687318</title>
<polygon fill="#1b9e77" stroke="black" points="749.5,-1204 614.5,-1204 614.5,-1168 749.5,-1168 749.5,-1204"/>
<text text-anchor="middle" x="682" y="-1182.3" font-family="Times,serif" font-size="14.00">fn_compressions</text>
</g>
<!-- f_5_3514266270&#45;&gt;f_5_3821687318 -->
<g id="edge6" class="edge">
<title>f_5_3514266270&#45;&gt;f_5_3821687318</title>
<path fill="none" stroke="black" d="M560.39,-1239.88C582.39,-1230.31 610.01,-1218.3 633.36,-1208.15"/>
<polygon fill="black" stroke="black" points="634.97,-1211.27 642.74,-1204.07 632.18,-1204.85 634.97,-1211.27"/>
</g>
<!-- f_5_1501484242 -->
<g id="node8" class="node">
<title>f_5_1501484242</title>
<polygon fill="#d95f02" stroke="black" points="940.5,-1204 767.5,-1204 767.5,-1168 940.5,-1168 940.5,-1204"/>
<text text-anchor="middle" x="854" y="-1182.3" font-family="Times,serif" font-size="14.00">fn_extensions_append</text>
</g>
<!-- f_5_3514266270&#45;&gt;f_5_1501484242 -->
<g id="edge7" class="edge">
<title>f_5_3514266270&#45;&gt;f_5_1501484242</title>
<path fill="none" stroke="black" d="M580.53,-1244.49C631.29,-1233.82 705.04,-1218.31 763.16,-1206.09"/>
<polygon fill="black" stroke="black" points="764.02,-1209.49 773.09,-1204.01 762.58,-1202.64 764.02,-1209.49"/>
</g>
<!-- f_5_1430565282 -->
<g id="node9" class="node">
<title>f_5_1430565282</title>
<polygon fill="#d95f02" stroke="black" points="702.5,-1132 529.5,-1132 529.5,-1096 702.5,-1096 702.5,-1132"/>
<text text-anchor="middle" x="616" y="-1110.3" font-family="Times,serif" font-size="14.00">fn_extensions_append</text>
</g>
<!-- f_5_1501484242&#45;&gt;f_5_1430565282 -->
<g id="edge8" class="edge">
<title>f_5_1501484242&#45;&gt;f_5_1430565282</title>
<path fill="none" stroke="black" d="M796.08,-1167.97C762.25,-1158.01 719.38,-1145.41 683.96,-1134.99"/>
<polygon fill="black" stroke="black" points="684.76,-1131.57 674.18,-1132.11 682.78,-1138.29 684.76,-1131.57"/>
</g>
<!-- f_5_4211501821 -->
<g id="node16" class="node">
<title>f_5_4211501821</title>
<polygon fill="#d95f02" stroke="black" points="937.5,-1132 770.5,-1132 770.5,-1096 937.5,-1096 937.5,-1132"/>
<text text-anchor="middle" x="854" y="-1110.3" font-family="Times,serif" font-size="14.00">fn_renegotiation_info</text>
</g>
<!-- f_5_1501484242&#45;&gt;f_5_4211501821 -->
<g id="edge15" class="edge">
<title>f_5_1501484242&#45;&gt;f_5_4211501821</title>
<path fill="none" stroke="black" d="M854,-1167.7C854,-1159.98 854,-1150.71 854,-1142.11"/>
<polygon fill="black" stroke="black" points="857.5,-1142.1 854,-1132.1 850.5,-1142.1 857.5,-1142.1"/>
</g>
<!-- f_5_891726004 -->
<g id="node10" class="node">
<title>f_5_891726004</title>
<polygon fill="#d95f02" stroke="black" points="451.5,-1060 278.5,-1060 278.5,-1024 451.5,-1024 451.5,-1060"/>
<text text-anchor="middle" x="365" y="-1038.3" font-family="Times,serif" font-size="14.00">fn_extensions_append</text>
</g>
<!-- f_5_1430565282&#45;&gt;f_5_891726004 -->
<g id="edge9" class="edge">
<title>f_5_1430565282&#45;&gt;f_5_891726004</title>
<path fill="none" stroke="black" d="M554.92,-1095.97C519.09,-1085.97 473.64,-1073.3 436.19,-1062.85"/>
<polygon fill="black" stroke="black" points="436.93,-1059.43 426.35,-1060.11 435.05,-1066.17 436.93,-1059.43"/>
</g>
<!-- f_5_1468172819 -->
<g id="node15" class="node">
<title>f_5_1468172819</title>
<polygon fill="#1b9e77" stroke="black" points="762.5,-1060 469.5,-1060 469.5,-1024 762.5,-1024 762.5,-1060"/>
<text text-anchor="middle" x="616" y="-1038.3" font-family="Times,serif" font-size="14.00">fn_signature_algorithm_cert_extension</text>
</g>
<!-- f_5_1430565282&#45;&gt;f_5_1468172819 -->
<g id="edge14" class="edge">
<title>f_5_1430565282&#45;&gt;f_5_1468172819</title>
<path fill="none" stroke="black" d="M616,-1095.7C616,-1087.98 616,-1078.71 616,-1070.11"/>
<polygon fill="black" stroke="black" points="619.5,-1070.1 616,-1060.1 612.5,-1070.1 619.5,-1070.1"/>
</g>
<!-- f_5_3598559200 -->
<g id="node11" class="node">
<title>f_5_3598559200</title>
<polygon fill="#d95f02" stroke="black" points="293.5,-988 120.5,-988 120.5,-952 293.5,-952 293.5,-988"/>
<text text-anchor="middle" x="207" y="-966.3" font-family="Times,serif" font-size="14.00">fn_extensions_append</text>
</g>
<!-- f_5_891726004&#45;&gt;f_5_3598559200 -->
<g id="edge10" class="edge">
<title>f_5_891726004&#45;&gt;f_5_3598559200</title>
<path fill="none" stroke="black" d="M326.35,-1023.88C304.75,-1014.31 277.65,-1002.3 254.73,-992.15"/>
<polygon fill="black" stroke="black" points="256.09,-988.92 245.53,-988.07 253.25,-995.32 256.09,-988.92"/>
</g>
<!-- f_5_3601976480 -->
<g id="node14" class="node">
<title>f_5_3601976480</title>
<polygon fill="#1b9e77" stroke="black" points="470.5,-988 311.5,-988 311.5,-952 470.5,-952 470.5,-988"/>
<text text-anchor="middle" x="391" y="-966.3" font-family="Times,serif" font-size="14.00">fn_ec_point_formats</text>
</g>
<!-- f_5_891726004&#45;&gt;f_5_3601976480 -->
<g id="edge13" class="edge">
<title>f_5_891726004&#45;&gt;f_5_3601976480</title>
<path fill="none" stroke="black" d="M371.43,-1023.7C374.36,-1015.81 377.89,-1006.3 381.14,-997.55"/>
<polygon fill="black" stroke="black" points="384.45,-998.7 384.65,-988.1 377.88,-996.26 384.45,-998.7"/>
</g>
<!-- f_5_301668130 -->
<g id="node12" class="node">
<title>f_5_301668130</title>
<polygon fill="#1b9e77" stroke="black" points="211,-916 61,-916 61,-880 211,-880 211,-916"/>
<text text-anchor="middle" x="136" y="-894.3" font-family="Times,serif" font-size="14.00">fn_extensions_new</text>
</g>
<!-- f_5_3598559200&#45;&gt;f_5_301668130 -->
<g id="edge11" class="edge">
<title>f_5_3598559200&#45;&gt;f_5_301668130</title>
<path fill="none" stroke="black" d="M189.45,-951.7C180.77,-943.14 170.14,-932.66 160.65,-923.3"/>
<polygon fill="black" stroke="black" points="162.93,-920.63 153.35,-916.1 158.01,-925.62 162.93,-920.63"/>
</g>
<!-- f_5_1105220282 -->
<g id="node13" class="node">
<title>f_5_1105220282</title>
<polygon fill="#1b9e77" stroke="black" points="507,-916 229,-916 229,-880 507,-880 507,-916"/>
<text text-anchor="middle" x="368" y="-894.3" font-family="Times,serif" font-size="14.00">fn_x25519_support_group_extension</text>
</g>
<!-- f_5_3598559200&#45;&gt;f_5_1105220282 -->
<g id="edge12" class="edge">
<title>f_5_3598559200&#45;&gt;f_5_1105220282</title>
<path fill="none" stroke="black" d="M246.39,-951.88C268.39,-942.31 296.01,-930.3 319.36,-920.15"/>
<polygon fill="black" stroke="black" points="320.97,-923.27 328.74,-916.07 318.18,-916.85 320.97,-923.27"/>
</g>
<!-- f_5_2613316900 -->
<g id="node17" class="node">
<title>f_5_2613316900</title>
<polygon fill="#d95f02" stroke="black" points="927,-1060 781,-1060 781,-1024 927,-1024 927,-1060"/>
<text text-anchor="middle" x="854" y="-1038.3" font-family="Times,serif" font-size="14.00">fn_sign_transcript</text>
</g>
<!-- f_5_4211501821&#45;&gt;f_5_2613316900 -->
<g id="edge16" class="edge">
<title>f_5_4211501821&#45;&gt;f_5_2613316900</title>
<path fill="none" stroke="black" d="M854,-1095.7C854,-1087.98 854,-1078.71 854,-1070.11"/>
<polygon fill="black" stroke="black" points="857.5,-1070.1 854,-1060.1 850.5,-1070.1 857.5,-1070.1"/>
</g>
<!-- v_5_3772152260 -->
<g id="node18" class="node">
<title>v_5_3772152260</title>
<ellipse fill="#1b9e77" stroke="black" cx="589" cy="-970" rx="73.39" ry="18"/>
<text text-anchor="middle" x="589" y="-966.3" font-family="Times,serif" font-size="14.00">(0,0)/Random</text>
</g>
<!-- f_5_2613316900&#45;&gt;v_5_3772152260 -->
<g id="edge17" class="edge">
<title>f_5_2613316900&#45;&gt;v_5_3772152260</title>
<path fill="none" stroke="black" d="M789.51,-1023.97C745.97,-1012.46 688.98,-997.41 646.89,-986.29"/>
<polygon fill="black" stroke="black" points="647.64,-982.87 637.07,-983.7 645.85,-989.64 647.64,-982.87"/>
</g>
<!-- f_5_990682105 -->
<g id="node19" class="node">
<title>f_5_990682105</title>
<polygon fill="#d95f02" stroke="black" points="868,-988 680,-988 680,-952 868,-952 868,-988"/>
<text text-anchor="middle" x="774" y="-966.3" font-family="Times,serif" font-size="14.00">fn_decode_ecdh_params</text>
</g>
<!-- f_5_2613316900&#45;&gt;f_5_990682105 -->
<g id="edge18" class="edge">
<title>f_5_2613316900&#45;&gt;f_5_990682105</title>
<path fill="none" stroke="black" d="M834.22,-1023.7C824.25,-1014.97 811.99,-1004.24 801.14,-994.75"/>
<polygon fill="black" stroke="black" points="803.38,-992.06 793.55,-988.1 798.77,-997.32 803.38,-992.06"/>
</g>
<!-- f_5_3589923106 -->
<g id="node21" class="node">
<title>f_5_3589923106</title>
<polygon fill="#d95f02" stroke="black" points="1054,-988 886,-988 886,-952 1054,-952 1054,-988"/>
<text text-anchor="middle" x="970" y="-966.3" font-family="Times,serif" font-size="14.00">fn_append_transcript</text>
</g>
<!-- f_5_2613316900&#45;&gt;f_5_3589923106 -->
<g id="edge20" class="edge">
<title>f_5_2613316900&#45;&gt;f_5_3589923106</title>
<path fill="none" stroke="black" d="M882.38,-1023.88C897.54,-1014.72 916.41,-1003.34 932.74,-993.48"/>
<polygon fill="black" stroke="black" points="934.76,-996.35 941.51,-988.19 931.14,-990.36 934.76,-996.35"/>
</g>
<!-- v_5_3329238649 -->
<g id="node20" class="node">
<title>v_5_3329238649</title>
<ellipse fill="#1b9e77" stroke="black" cx="648" cy="-898" rx="78.79" ry="18"/>
<text text-anchor="middle" x="648" y="-894.3" font-family="Times,serif" font-size="14.00">(0,2)/Vec&lt;u8&gt;</text>
</g>
<!-- f_5_990682105&#45;&gt;v_5_3329238649 -->
<g id="edge19" class="edge">
<title>f_5_990682105&#45;&gt;v_5_3329238649</title>
<path fill="none" stroke="black" d="M743.18,-951.88C725.85,-942.25 704.09,-930.16 685.74,-919.97"/>
<polygon fill="black" stroke="black" points="687.22,-916.78 676.78,-914.99 683.82,-922.9 687.22,-916.78"/>
</g>
<!-- f_5_1909798885 -->
<g id="node22" class="node">
<title>f_5_1909798885</title>
<polygon fill="#d95f02" stroke="black" points="913,-916 745,-916 745,-880 913,-880 913,-916"/>
<text text-anchor="middle" x="829" y="-894.3" font-family="Times,serif" font-size="14.00">fn_append_transcript</text>
</g>
<!-- f_5_3589923106&#45;&gt;f_5_1909798885 -->
<g id="edge21" class="edge">
<title>f_5_3589923106&#45;&gt;f_5_1909798885</title>
<path fill="none" stroke="black" d="M935.51,-951.88C916.56,-942.47 892.87,-930.71 872.64,-920.67"/>
<polygon fill="black" stroke="black" points="874.14,-917.5 863.63,-916.19 871.03,-923.77 874.14,-917.5"/>
</g>
<!-- f_5_2819178487 -->
<g id="node52" class="node">
<title>f_5_2819178487</title>
<polygon fill="#d95f02" stroke="black" points="1114.5,-916 931.5,-916 931.5,-880 1114.5,-880 1114.5,-916"/>
<text text-anchor="middle" x="1023" y="-894.3" font-family="Times,serif" font-size="14.00">fn_client_key_exchange</text>
</g>
<!-- f_5_3589923106&#45;&gt;f_5_2819178487 -->
<g id="edge51" class="edge">
<title>f_5_3589923106&#45;&gt;f_5_2819178487</title>
<path fill="none" stroke="black" d="M983.1,-951.7C989.39,-943.39 997.05,-933.28 1003.96,-924.14"/>
<polygon fill="black" stroke="black" points="1006.8,-926.19 1010.05,-916.1 1001.22,-921.96 1006.8,-926.19"/>
</g>
<!-- f_5_1834310240 -->
<g id="node23" class="node">
<title>f_5_1834310240</title>
<polygon fill="#d95f02" stroke="black" points="748,-844 580,-844 580,-808 748,-808 748,-844"/>
<text text-anchor="middle" x="664" y="-822.3" font-family="Times,serif" font-size="14.00">fn_append_transcript</text>
</g>
<!-- f_5_1909798885&#45;&gt;f_5_1834310240 -->
<g id="edge22" class="edge">
<title>f_5_1909798885&#45;&gt;f_5_1834310240</title>
<path fill="none" stroke="black" d="M788.64,-879.88C765.98,-870.26 737.53,-858.19 713.53,-848.01"/>
<polygon fill="black" stroke="black" points="714.81,-844.75 704.23,-844.07 712.07,-851.2 714.81,-844.75"/>
</g>
<!-- v_5_2211151889 -->
<g id="node51" class="node">
<title>v_5_2211151889</title>
<ellipse fill="#1b9e77" stroke="black" cx="842" cy="-826" rx="76.09" ry="18"/>
<text text-anchor="middle" x="842" y="-822.3" font-family="Times,serif" font-size="14.00">(0,3)/Message</text>
</g>
<!-- f_5_1909798885&#45;&gt;v_5_2211151889 -->
<g id="edge50" class="edge">
<title>f_5_1909798885&#45;&gt;v_5_2211151889</title>
<path fill="none" stroke="black" d="M832.21,-879.7C833.65,-871.98 835.37,-862.71 836.96,-854.11"/>
<polygon fill="black" stroke="black" points="840.44,-854.58 838.82,-844.1 833.56,-853.3 840.44,-854.58"/>
</g>
<!-- f_5_1827494277 -->
<g id="node24" class="node">
<title>f_5_1827494277</title>
<polygon fill="#d95f02" stroke="black" points="683,-772 515,-772 515,-736 683,-736 683,-772"/>
<text text-anchor="middle" x="599" y="-750.3" font-family="Times,serif" font-size="14.00">fn_append_transcript</text>
</g>
<!-- f_5_1834310240&#45;&gt;f_5_1827494277 -->
<g id="edge23" class="edge">
<title>f_5_1834310240&#45;&gt;f_5_1827494277</title>
<path fill="none" stroke="black" d="M647.93,-807.7C640.06,-799.22 630.44,-788.86 621.83,-779.58"/>
<polygon fill="black" stroke="black" points="624.25,-777.05 614.88,-772.1 619.12,-781.81 624.25,-777.05"/>
</g>
<!-- v_5_3437157149 -->
<g id="node50" class="node">
<title>v_5_3437157149</title>
<ellipse fill="#1b9e77" stroke="black" cx="777" cy="-754" rx="76.09" ry="18"/>
<text text-anchor="middle" x="777" y="-750.3" font-family="Times,serif" font-size="14.00">(0,2)/Message</text>
</g>
<!-- f_5_1834310240&#45;&gt;v_5_3437157149 -->
<g id="edge49" class="edge">
<title>f_5_1834310240&#45;&gt;v_5_3437157149</title>
<path fill="none" stroke="black" d="M691.64,-807.88C706.97,-798.38 726.17,-786.49 742.47,-776.39"/>
<polygon fill="black" stroke="black" points="744.53,-779.23 751.19,-770.99 740.85,-773.28 744.53,-779.23"/>
</g>
<!-- f_5_273695222 -->
<g id="node25" class="node">
<title>f_5_273695222</title>
<polygon fill="#d95f02" stroke="black" points="624,-700 456,-700 456,-664 624,-664 624,-700"/>
<text text-anchor="middle" x="540" y="-678.3" font-family="Times,serif" font-size="14.00">fn_append_transcript</text>
</g>
<!-- f_5_1827494277&#45;&gt;f_5_273695222 -->
<g id="edge24" class="edge">
<title>f_5_1827494277&#45;&gt;f_5_273695222</title>
<path fill="none" stroke="black" d="M584.42,-735.7C577.34,-727.3 568.72,-717.07 560.95,-707.86"/>
<polygon fill="black" stroke="black" points="563.54,-705.49 554.42,-700.1 558.19,-710.01 563.54,-705.49"/>
</g>
<!-- v_5_3985498094 -->
<g id="node49" class="node">
<title>v_5_3985498094</title>
<ellipse fill="#1b9e77" stroke="black" cx="718" cy="-682" rx="76.09" ry="18"/>
<text text-anchor="middle" x="718" y="-678.3" font-family="Times,serif" font-size="14.00">(0,1)/Message</text>
</g>
<!-- f_5_1827494277&#45;&gt;v_5_3985498094 -->
<g id="edge48" class="edge">
<title>f_5_1827494277&#45;&gt;v_5_3985498094</title>
<path fill="none" stroke="black" d="M628.11,-735.88C644.4,-726.29 664.84,-714.27 682.12,-704.11"/>
<polygon fill="black" stroke="black" points="683.98,-707.07 690.82,-698.99 680.43,-701.04 683.98,-707.07"/>
</g>
<!-- f_5_1114130232 -->
<g id="node26" class="node">
<title>f_5_1114130232</title>
<polygon fill="#d95f02" stroke="black" points="551,-628 383,-628 383,-592 551,-592 551,-628"/>
<text text-anchor="middle" x="467" y="-606.3" font-family="Times,serif" font-size="14.00">fn_append_transcript</text>
</g>
<!-- f_5_273695222&#45;&gt;f_5_1114130232 -->
<g id="edge25" class="edge">
<title>f_5_273695222&#45;&gt;f_5_1114130232</title>
<path fill="none" stroke="black" d="M521.96,-663.7C512.94,-655.05 501.88,-644.45 492.06,-635.03"/>
<polygon fill="black" stroke="black" points="494.48,-632.5 484.84,-628.1 489.63,-637.55 494.48,-632.5"/>
</g>
<!-- v_5_1094954189 -->
<g id="node48" class="node">
<title>v_5_1094954189</title>
<ellipse fill="#1b9e77" stroke="black" cx="645" cy="-610" rx="76.09" ry="18"/>
<text text-anchor="middle" x="645" y="-606.3" font-family="Times,serif" font-size="14.00">(0,0)/Message</text>
</g>
<!-- f_5_273695222&#45;&gt;v_5_1094954189 -->
<g id="edge47" class="edge">
<title>f_5_273695222&#45;&gt;v_5_1094954189</title>
<path fill="none" stroke="black" d="M565.69,-663.88C579.69,-654.54 597.18,-642.88 612.17,-632.89"/>
<polygon fill="black" stroke="black" points="614.28,-635.68 620.66,-627.23 610.4,-629.86 614.28,-635.68"/>
</g>
<!-- f_5_749013013 -->
<g id="node27" class="node">
<title>f_5_749013013</title>
<polygon fill="#1b9e77" stroke="black" points="445.5,-556 282.5,-556 282.5,-520 445.5,-520 445.5,-556"/>
<text text-anchor="middle" x="364" y="-534.3" font-family="Times,serif" font-size="14.00">fn_new_transcript12</text>
</g>
<!-- f_5_1114130232&#45;&gt;f_5_749013013 -->
<g id="edge26" class="edge">
<title>f_5_1114130232&#45;&gt;f_5_749013013</title>
<path fill="none" stroke="black" d="M441.8,-591.88C428.59,-582.89 412.21,-571.76 397.89,-562.03"/>
<polygon fill="black" stroke="black" points="399.53,-558.92 389.29,-556.19 395.6,-564.71 399.53,-558.92"/>
</g>
<!-- f_5_3801844146 -->
<g id="node28" class="node">
<title>f_5_3801844146</title>
<polygon fill="#d95f02" stroke="black" points="582.5,-556 463.5,-556 463.5,-520 582.5,-520 582.5,-556"/>
<text text-anchor="middle" x="523" y="-534.3" font-family="Times,serif" font-size="14.00">fn_client_hello</text>
</g>
<!-- f_5_1114130232&#45;&gt;f_5_3801844146 -->
<g id="edge27" class="edge">
<title>f_5_1114130232&#45;&gt;f_5_3801844146</title>
<path fill="none" stroke="black" d="M480.84,-591.7C487.49,-583.39 495.58,-573.28 502.89,-564.14"/>
<polygon fill="black" stroke="black" points="505.8,-566.1 509.32,-556.1 500.34,-561.73 505.8,-566.1"/>
</g>
<!-- f_5_3885876281 -->
<g id="node29" class="node">
<title>f_5_3885876281</title>
<polygon fill="#1b9e77" stroke="black" points="249.5,-484 76.5,-484 76.5,-448 249.5,-448 249.5,-484"/>
<text text-anchor="middle" x="163" y="-462.3" font-family="Times,serif" font-size="14.00">fn_protocol_version12</text>
</g>
<!-- f_5_3801844146&#45;&gt;f_5_3885876281 -->
<g id="edge28" class="edge">
<title>f_5_3801844146&#45;&gt;f_5_3885876281</title>
<path fill="none" stroke="black" d="M463.35,-521.85C460.53,-521.21 457.74,-520.59 455,-520 435.96,-515.9 337.54,-498.15 260.15,-484.31"/>
<polygon fill="black" stroke="black" points="260.33,-480.78 249.87,-482.47 259.09,-487.67 260.33,-480.78"/>
</g>
<!-- f_5_1084341198 -->
<g id="node30" class="node">
<title>f_5_1084341198</title>
<polygon fill="#1b9e77" stroke="black" points="360,-484 268,-484 268,-448 360,-448 360,-484"/>
<text text-anchor="middle" x="314" y="-462.3" font-family="Times,serif" font-size="14.00">fn_random</text>
</g>
<!-- f_5_3801844146&#45;&gt;f_5_1084341198 -->
<g id="edge29" class="edge">
<title>f_5_3801844146&#45;&gt;f_5_1084341198</title>
<path fill="none" stroke="black" d="M472.14,-519.97C441.15,-509.59 401.53,-496.32 369.7,-485.65"/>
<polygon fill="black" stroke="black" points="370.68,-482.29 360.09,-482.44 368.46,-488.93 370.68,-482.29"/>
</g>
<!-- f_5_2812909827 -->
<g id="node31" class="node">
<title>f_5_2812909827</title>
<polygon fill="#1b9e77" stroke="black" points="488,-484 378,-484 378,-448 488,-448 488,-484"/>
<text text-anchor="middle" x="433" y="-462.3" font-family="Times,serif" font-size="14.00">fn_session_id</text>
</g>
<!-- f_5_3801844146&#45;&gt;f_5_2812909827 -->
<g id="edge30" class="edge">
<title>f_5_3801844146&#45;&gt;f_5_2812909827</title>
<path fill="none" stroke="black" d="M500.75,-519.7C489.42,-510.88 475.47,-500.03 463.18,-490.47"/>
<polygon fill="black" stroke="black" points="465.03,-487.48 454.99,-484.1 460.74,-493.01 465.03,-487.48"/>
</g>
<!-- f_5_2962036467 -->
<g id="node32" class="node">
<title>f_5_2962036467</title>
<polygon fill="#1b9e77" stroke="black" points="656,-484 506,-484 506,-448 656,-448 656,-484"/>
<text text-anchor="middle" x="581" y="-462.3" font-family="Times,serif" font-size="14.00">fn_cipher_suites12</text>
</g>
<!-- f_5_3801844146&#45;&gt;f_5_2962036467 -->
<g id="edge31" class="edge">
<title>f_5_3801844146&#45;&gt;f_5_2962036467</title>
<path fill="none" stroke="black" d="M537.34,-519.7C544.29,-511.3 552.77,-501.07 560.4,-491.86"/>
<polygon fill="black" stroke="black" points="563.14,-494.04 566.83,-484.1 557.75,-489.57 563.14,-494.04"/>
</g>
<!-- f_5_1057475532 -->
<g id="node33" class="node">
<title>f_5_1057475532</title>
<polygon fill="#1b9e77" stroke="black" points="809.5,-484 674.5,-484 674.5,-448 809.5,-448 809.5,-484"/>
<text text-anchor="middle" x="742" y="-462.3" font-family="Times,serif" font-size="14.00">fn_compressions</text>
</g>
<!-- f_5_3801844146&#45;&gt;f_5_1057475532 -->
<g id="edge32" class="edge">
<title>f_5_3801844146&#45;&gt;f_5_1057475532</title>
<path fill="none" stroke="black" d="M576.29,-519.97C607.16,-510.1 646.2,-497.62 678.63,-487.25"/>
<polygon fill="black" stroke="black" points="680.01,-490.49 688.47,-484.11 677.88,-483.82 680.01,-490.49"/>
</g>
<!-- f_5_3924793568 -->
<g id="node34" class="node">
<title>f_5_3924793568</title>
<polygon fill="#d95f02" stroke="black" points="1000.5,-484 827.5,-484 827.5,-448 1000.5,-448 1000.5,-484"/>
<text text-anchor="middle" x="914" y="-462.3" font-family="Times,serif" font-size="14.00">fn_extensions_append</text>
</g>
<!-- f_5_3801844146&#45;&gt;f_5_3924793568 -->
<g id="edge33" class="edge">
<title>f_5_3801844146&#45;&gt;f_5_3924793568</title>
<path fill="none" stroke="black" d="M582.81,-526.29C645.13,-515.14 743.74,-497.48 817.18,-484.33"/>
<polygon fill="black" stroke="black" points="818.14,-487.72 827.36,-482.51 816.9,-480.83 818.14,-487.72"/>
</g>
<!-- f_5_564983714 -->
<g id="node35" class="node">
<title>f_5_564983714</title>
<polygon fill="#d95f02" stroke="black" points="848.5,-412 675.5,-412 675.5,-376 848.5,-376 848.5,-412"/>
<text text-anchor="middle" x="762" y="-390.3" font-family="Times,serif" font-size="14.00">fn_extensions_append</text>
</g>
<!-- f_5_3924793568&#45;&gt;f_5_564983714 -->
<g id="edge34" class="edge">
<title>f_5_3924793568&#45;&gt;f_5_564983714</title>
<path fill="none" stroke="black" d="M876.82,-447.88C856.13,-438.35 830.2,-426.41 808.22,-416.28"/>
<polygon fill="black" stroke="black" points="809.61,-413.07 799.06,-412.07 806.68,-419.43 809.61,-413.07"/>
</g>
<!-- f_5_1500549107 -->
<g id="node46" class="node">
<title>f_5_1500549107</title>
<polygon fill="#d95f02" stroke="black" points="1050.5,-412 883.5,-412 883.5,-376 1050.5,-376 1050.5,-412"/>
<text text-anchor="middle" x="967" y="-390.3" font-family="Times,serif" font-size="14.00">fn_renegotiation_info</text>
</g>
<!-- f_5_3924793568&#45;&gt;f_5_1500549107 -->
<g id="edge45" class="edge">
<title>f_5_3924793568&#45;&gt;f_5_1500549107</title>
<path fill="none" stroke="black" d="M927.1,-447.7C933.39,-439.39 941.05,-429.28 947.96,-420.14"/>
<polygon fill="black" stroke="black" points="950.8,-422.19 954.05,-412.1 945.22,-417.96 950.8,-422.19"/>
</g>
<!-- f_5_3683618858 -->
<g id="node36" class="node">
<title>f_5_3683618858</title>
<polygon fill="#d95f02" stroke="black" points="619.5,-340 446.5,-340 446.5,-304 619.5,-304 619.5,-340"/>
<text text-anchor="middle" x="533" y="-318.3" font-family="Times,serif" font-size="14.00">fn_extensions_append</text>
</g>
<!-- f_5_564983714&#45;&gt;f_5_3683618858 -->
<g id="edge35" class="edge">
<title>f_5_564983714&#45;&gt;f_5_3683618858</title>
<path fill="none" stroke="black" d="M706.27,-375.97C673.86,-366.06 632.82,-353.51 598.82,-343.12"/>
<polygon fill="black" stroke="black" points="599.56,-339.69 588.98,-340.11 597.52,-346.38 599.56,-339.69"/>
</g>
<!-- f_5_629399720 -->
<g id="node45" class="node">
<title>f_5_629399720</title>
<polygon fill="#1b9e77" stroke="black" points="886,-340 638,-340 638,-304 886,-304 886,-340"/>
<text text-anchor="middle" x="762" y="-318.3" font-family="Times,serif" font-size="14.00">fn_signed_certificate_timestamp</text>
</g>
<!-- f_5_564983714&#45;&gt;f_5_629399720 -->
<g id="edge44" class="edge">
<title>f_5_564983714&#45;&gt;f_5_629399720</title>
<path fill="none" stroke="black" d="M762,-375.7C762,-367.98 762,-358.71 762,-350.11"/>
<polygon fill="black" stroke="black" points="765.5,-350.1 762,-340.1 758.5,-350.1 765.5,-350.1"/>
</g>
<!-- f_5_1207620135 -->
<g id="node37" class="node">
<title>f_5_1207620135</title>
<polygon fill="#d95f02" stroke="black" points="580.5,-268 407.5,-268 407.5,-232 580.5,-232 580.5,-268"/>
<text text-anchor="middle" x="494" y="-246.3" font-family="Times,serif" font-size="14.00">fn_extensions_append</text>
</g>
<!-- f_5_3683618858&#45;&gt;f_5_1207620135 -->
<g id="edge36" class="edge">
<title>f_5_3683618858&#45;&gt;f_5_1207620135</title>
<path fill="none" stroke="black" d="M523.36,-303.7C518.87,-295.64 513.44,-285.89 508.48,-276.98"/>
<polygon fill="black" stroke="black" points="511.45,-275.14 503.53,-268.1 505.34,-278.54 511.45,-275.14"/>
</g>
<!-- f_5_57088643 -->
<g id="node44" class="node">
<title>f_5_57088643</title>
<polygon fill="#1b9e77" stroke="black" points="891.5,-268 598.5,-268 598.5,-232 891.5,-232 891.5,-268"/>
<text text-anchor="middle" x="745" y="-246.3" font-family="Times,serif" font-size="14.00">fn_signature_algorithm_cert_extension</text>
</g>
<!-- f_5_3683618858&#45;&gt;f_5_57088643 -->
<g id="edge43" class="edge">
<title>f_5_3683618858&#45;&gt;f_5_57088643</title>
<path fill="none" stroke="black" d="M584.59,-303.97C614.47,-294.1 652.26,-281.62 683.66,-271.25"/>
<polygon fill="black" stroke="black" points="684.78,-274.57 693.18,-268.11 682.59,-267.92 684.78,-274.57"/>
</g>
<!-- f_5_3626388575 -->
<g id="node38" class="node">
<title>f_5_3626388575</title>
<polygon fill="#d95f02" stroke="black" points="502.5,-196 329.5,-196 329.5,-160 502.5,-160 502.5,-196"/>
<text text-anchor="middle" x="416" y="-174.3" font-family="Times,serif" font-size="14.00">fn_extensions_append</text>
</g>
<!-- f_5_1207620135&#45;&gt;f_5_3626388575 -->
<g id="edge37" class="edge">
<title>f_5_1207620135&#45;&gt;f_5_3626388575</title>
<path fill="none" stroke="black" d="M474.72,-231.7C465.08,-223.05 453.27,-212.45 442.77,-203.03"/>
<polygon fill="black" stroke="black" points="444.84,-200.18 435.06,-196.1 440.16,-205.39 444.84,-200.18"/>
</g>
<!-- f_5_2777875284 -->
<g id="node43" class="node">
<title>f_5_2777875284</title>
<polygon fill="#1b9e77" stroke="black" points="679.5,-196 520.5,-196 520.5,-160 679.5,-160 679.5,-196"/>
<text text-anchor="middle" x="600" y="-174.3" font-family="Times,serif" font-size="14.00">fn_ec_point_formats</text>
</g>
<!-- f_5_1207620135&#45;&gt;f_5_2777875284 -->
<g id="edge42" class="edge">
<title>f_5_1207620135&#45;&gt;f_5_2777875284</title>
<path fill="none" stroke="black" d="M519.93,-231.88C533.66,-222.81 550.71,-211.55 565.54,-201.76"/>
<polygon fill="black" stroke="black" points="567.55,-204.62 573.97,-196.19 563.7,-198.78 567.55,-204.62"/>
</g>
<!-- f_5_2788189823 -->
<g id="node39" class="node">
<title>f_5_2788189823</title>
<polygon fill="#d95f02" stroke="black" points="385.5,-124 212.5,-124 212.5,-88 385.5,-88 385.5,-124"/>
<text text-anchor="middle" x="299" y="-102.3" font-family="Times,serif" font-size="14.00">fn_extensions_append</text>
</g>
<!-- f_5_3626388575&#45;&gt;f_5_2788189823 -->
<g id="edge38" class="edge">
<title>f_5_3626388575&#45;&gt;f_5_2788189823</title>
<path fill="none" stroke="black" d="M387.38,-159.88C372.08,-150.72 353.06,-139.34 336.58,-129.48"/>
<polygon fill="black" stroke="black" points="338.11,-126.32 327.73,-124.19 334.52,-132.33 338.11,-126.32"/>
</g>
<!-- f_5_198491356 -->
<g id="node42" class="node">
<title>f_5_198491356</title>
<polygon fill="#1b9e77" stroke="black" points="662,-124 404,-124 404,-88 662,-88 662,-124"/>
<text text-anchor="middle" x="533" y="-102.3" font-family="Times,serif" font-size="14.00">fn_signature_algorithm_extension</text>
</g>
<!-- f_5_3626388575&#45;&gt;f_5_198491356 -->
<g id="edge41" class="edge">
<title>f_5_3626388575&#45;&gt;f_5_198491356</title>
<path fill="none" stroke="black" d="M444.62,-159.88C459.92,-150.72 478.94,-139.34 495.42,-129.48"/>
<polygon fill="black" stroke="black" points="497.48,-132.33 504.27,-124.19 493.89,-126.32 497.48,-132.33"/>
</g>
<!-- f_5_886326357 -->
<g id="node40" class="node">
<title>f_5_886326357</title>
<polygon fill="#1b9e77" stroke="black" points="258,-52 108,-52 108,-16 258,-16 258,-52"/>
<text text-anchor="middle" x="183" y="-30.3" font-family="Times,serif" font-size="14.00">fn_extensions_new</text>
</g>
<!-- f_5_2788189823&#45;&gt;f_5_886326357 -->
<g id="edge39" class="edge">
<title>f_5_2788189823&#45;&gt;f_5_886326357</title>
<path fill="none" stroke="black" d="M270.62,-87.88C255.46,-78.72 236.59,-67.34 220.26,-57.48"/>
<polygon fill="black" stroke="black" points="221.86,-54.36 211.49,-52.19 218.24,-60.35 221.86,-54.36"/>
</g>
<!-- f_5_2764116414 -->
<g id="node41" class="node">
<title>f_5_2764116414</title>
<polygon fill="#1b9e77" stroke="black" points="554,-52 276,-52 276,-16 554,-16 554,-52"/>
<text text-anchor="middle" x="415" y="-30.3" font-family="Times,serif" font-size="14.00">fn_x25519_support_group_extension</text>
</g>
<!-- f_5_2788189823&#45;&gt;f_5_2764116414 -->
<g id="edge40" class="edge">
<title>f_5_2788189823&#45;&gt;f_5_2764116414</title>
<path fill="none" stroke="black" d="M327.38,-87.88C342.54,-78.72 361.41,-67.34 377.74,-57.48"/>
<polygon fill="black" stroke="black" points="379.76,-60.35 386.51,-52.19 376.14,-54.36 379.76,-60.35"/>
</g>
<!-- f_5_3224217690 -->
<g id="node47" class="node">
<title>f_5_3224217690</title>
<polygon fill="#1b9e77" stroke="black" points="1063.5,-340 904.5,-340 904.5,-304 1063.5,-304 1063.5,-340"/>
<text text-anchor="middle" x="984" y="-318.3" font-family="Times,serif" font-size="14.00">fn_empty_bytes_vec</text>
</g>
<!-- f_5_1500549107&#45;&gt;f_5_3224217690 -->
<g id="edge46" class="edge">
<title>f_5_1500549107&#45;&gt;f_5_3224217690</title>
<path fill="none" stroke="black" d="M971.2,-375.7C973.1,-367.9 975.38,-358.51 977.48,-349.83"/>
<polygon fill="black" stroke="black" points="980.89,-350.65 979.85,-340.1 974.08,-349 980.89,-350.65"/>
</g>
<!-- f_5_2184379049 -->
<g id="node53" class="node">
<title>f_5_2184379049</title>
<polygon fill="#d95f02" stroke="black" points="1093.5,-844 950.5,-844 950.5,-808 1093.5,-808 1093.5,-844"/>
<text text-anchor="middle" x="1022" y="-822.3" font-family="Times,serif" font-size="14.00">fn_new_pubkey12</text>
</g>
<!-- f_5_2819178487&#45;&gt;f_5_2184379049 -->
<g id="edge52" class="edge">
<title>f_5_2819178487&#45;&gt;f_5_2184379049</title>
<path fill="none" stroke="black" d="M1022.75,-879.7C1022.64,-871.98 1022.51,-862.71 1022.39,-854.11"/>
<polygon fill="black" stroke="black" points="1025.89,-854.05 1022.24,-844.1 1018.89,-854.15 1025.89,-854.05"/>
</g>
<!-- f_5_2137423583 -->
<g id="node54" class="node">
<title>f_5_2137423583</title>
<polygon fill="#d95f02" stroke="black" points="1116,-772 928,-772 928,-736 1116,-736 1116,-772"/>
<text text-anchor="middle" x="1022" y="-750.3" font-family="Times,serif" font-size="14.00">fn_decode_ecdh_params</text>
</g>
<!-- f_5_2184379049&#45;&gt;f_5_2137423583 -->
<g id="edge53" class="edge">
<title>f_5_2184379049&#45;&gt;f_5_2137423583</title>
<path fill="none" stroke="black" d="M1022,-807.7C1022,-799.98 1022,-790.71 1022,-782.11"/>
<polygon fill="black" stroke="black" points="1025.5,-782.1 1022,-772.1 1018.5,-782.1 1025.5,-782.1"/>
</g>
<!-- v_5_4239227431 -->
<g id="node55" class="node">
<title>v_5_4239227431</title>
<ellipse fill="#1b9e77" stroke="black" cx="1022" cy="-682" rx="78.79" ry="18"/>
<text text-anchor="middle" x="1022" y="-678.3" font-family="Times,serif" font-size="14.00">(0,2)/Vec&lt;u8&gt;</text>
</g>
<!-- f_5_2137423583&#45;&gt;v_5_4239227431 -->
<g id="edge54" class="edge">
<title>f_5_2137423583&#45;&gt;v_5_4239227431</title>
<path fill="none" stroke="black" d="M1022,-735.7C1022,-727.98 1022,-718.71 1022,-710.11"/>
<polygon fill="black" stroke="black" points="1025.5,-710.1 1022,-700.1 1018.5,-710.1 1025.5,-710.1"/>
</g>
<!-- v_5_1759138130 -->
<g id="node58" class="node">
<title>v_5_1759138130</title>
<ellipse fill="#1b9e77" stroke="black" cx="1037" cy="-1186" rx="78.79" ry="18"/>
<text text-anchor="middle" x="1037" y="-1182.3" font-family="Times,serif" font-size="14.00">(0,2)/Vec&lt;u8&gt;</text>
</g>
<!-- f_5_3096879376&#45;&gt;v_5_1759138130 -->
<g id="edge57" class="edge">
<title>f_5_3096879376&#45;&gt;v_5_1759138130</title>
<path fill="none" stroke="black" d="M926.72,-1239.88C947.45,-1229.93 973.68,-1217.36 995.35,-1206.97"/>
<polygon fill="black" stroke="black" points="997.14,-1209.99 1004.64,-1202.51 994.11,-1203.68 997.14,-1209.99"/>
</g>
</g>
</svg>
