<?xml version="1.0" encoding="UTF-8" standalone="no"?>
<!DOCTYPE svg PUBLIC "-//W3C//DTD SVG 1.1//EN"
 "http://www.w3.org/Graphics/SVG/1.1/DTD/svg11.dtd">
<!-- Generated by graphviz version 2.48.0 (0)
 -->
<!-- Title: Trace Pages: 1 -->
<svg width="9090pt" height="171pt"
 viewBox="0.00 0.00 9090.00 171.00" xmlns="http://www.w3.org/2000/svg" xmlns:xlink="http://www.w3.org/1999/xlink">
<g id="graph0" class="graph" transform="scale(1 1) rotate(0) translate(4 167)">
<title>Trace</title>
<polygon fill="white" stroke="transparent" points="-4,4 -4,-167 9086,-167 9086,4 -4,4"/>
<g id="clust1" class="cluster">
<title>cluster0</title>
<polygon fill="none" stroke="black" points="8,-80 8,-155 158,-155 158,-80 8,-80"/>
<text text-anchor="middle" x="83" y="-139.8" font-family="Times,serif" font-size="14.00">Step #0 (Agent &#160;0)</text>
</g>
<g id="clust2" class="cluster">
<title>cluster1</title>
<polygon fill="none" stroke="black" points="166,-8 166,-155 3805,-155 3805,-8 166,-8"/>
<text text-anchor="middle" x="1985.5" y="-139.8" font-family="Times,serif" font-size="14.00">Step #1 (Agent &#160;1)</text>
</g>
<g id="clust3" class="cluster">
<title>cluster2</title>
<polygon fill="none" stroke="black" points="3813,-8 3813,-155 6934,-155 6934,-8 3813,-8"/>
<text text-anchor="middle" x="5373.5" y="-139.8" font-family="Times,serif" font-size="14.00">Step #2 (Agent &#160;0)</text>
</g>
<g id="clust4" class="cluster">
<title>cluster3</title>
<polygon fill="none" stroke="black" points="6942,-8 6942,-155 7362,-155 7362,-8 6942,-8"/>
<text text-anchor="middle" x="7152" y="-139.8" font-family="Times,serif" font-size="14.00">Step #3 (Agent &#160;0)</text>
</g>
<g id="clust5" class="cluster">
<title>cluster4</title>
<polygon fill="none" stroke="black" points="7370,-8 7370,-155 7790,-155 7790,-8 7370,-8"/>
<text text-anchor="middle" x="7580" y="-139.8" font-family="Times,serif" font-size="14.00">Step #4 (Agent &#160;0)</text>
</g>
<g id="clust6" class="cluster">
<title>cluster5</title>
<polygon fill="none" stroke="black" points="7798,-8 7798,-155 8218,-155 8218,-8 7798,-8"/>
<text text-anchor="middle" x="8008" y="-139.8" font-family="Times,serif" font-size="14.00">Step #5 (Agent &#160;0)</text>
</g>
<g id="clust7" class="cluster">
<title>cluster6</title>
<polygon fill="none" stroke="black" points="8226,-8 8226,-155 8646,-155 8646,-8 8226,-8"/>
<text text-anchor="middle" x="8436" y="-139.8" font-family="Times,serif" font-size="14.00">Step #6 (Agent &#160;0)</text>
</g>
<g id="clust8" class="cluster">
<title>cluster7</title>
<polygon fill="none" stroke="black" points="8654,-8 8654,-155 9074,-155 9074,-8 8654,-8"/>
<text text-anchor="middle" x="8864" y="-139.8" font-family="Times,serif" font-size="14.00">Step #7 (Agent &#160;1)</text>
</g>
<g id="node1" class="node">
<title></title>
<ellipse fill="none" stroke="transparent" cx="83" cy="-106" rx="27" ry="18"/>
</g>
<!-- f_1_2030074730 -->
<g id="node2" class="node">
<title>f_1_2030074730</title>
<polygon fill="#d95f02" stroke="black" points="1670.5,-124 1551.5,-124 1551.5,-88 1670.5,-88 1670.5,-124"/>
<text text-anchor="middle" x="1611" y="-102.3" font-family="Times,serif" font-size="14.00">fn_client_hello</text>
</g>
<!-- v_1_1449736362 -->
<g id="node3" class="node">
<title>v_1_1449736362</title>
<ellipse fill="#1b9e77" stroke="black" cx="415" cy="-34" rx="241.26" ry="18"/>
<text text-anchor="middle" x="415" y="-30.3" font-family="Times,serif" font-size="14.00">[@0:Some(Handshake(None))#0]/ProtocolVersion</text>
</g>
<!-- f_1_2030074730&#45;&gt;v_1_1449736362 -->
<g id="edge1" class="edge">
<title>f_1_2030074730&#45;&gt;v_1_1449736362</title>
<path fill="none" stroke="black" d="M1551.49,-101.91C1402.27,-94.12 1000.13,-72.78 665,-52 642.3,-50.59 618.44,-49.05 594.85,-47.49"/>
<polygon fill="black" stroke="black" points="594.97,-43.99 584.76,-46.82 594.51,-50.97 594.97,-43.99"/>
</g>
<!-- v_1_2603277315 -->
<g id="node4" class="node">
<title>v_1_2603277315</title>
<ellipse fill="#1b9e77" stroke="black" cx="880" cy="-34" rx="206.06" ry="18"/>
<text text-anchor="middle" x="880" y="-30.3" font-family="Times,serif" font-size="14.00">[@0:Some(Handshake(None))#0]/Random</text>
</g>
<!-- f_1_2030074730&#45;&gt;v_1_2603277315 -->
<g id="edge2" class="edge">
<title>f_1_2030074730&#45;&gt;v_1_2603277315</title>
<path fill="none" stroke="black" d="M1551.49,-99.3C1437.2,-88.36 1184.08,-64.12 1023.34,-48.73"/>
<polygon fill="black" stroke="black" points="1023.65,-45.24 1013.37,-47.77 1022.99,-52.21 1023.65,-45.24"/>
</g>
<!-- v_1_1279629336 -->
<g id="node5" class="node">
<title>v_1_1279629336</title>
<ellipse fill="#1b9e77" stroke="black" cx="1318" cy="-34" rx="213.66" ry="18"/>
<text text-anchor="middle" x="1318" y="-30.3" font-family="Times,serif" font-size="14.00">[@0:Some(Handshake(None))#0]/SessionID</text>
</g>
<!-- f_1_2030074730&#45;&gt;v_1_1279629336 -->
<g id="edge3" class="edge">
<title>f_1_2030074730&#45;&gt;v_1_1279629336</title>
<path fill="none" stroke="black" d="M1551.35,-90.75C1506.35,-80 1444.23,-65.16 1395.4,-53.49"/>
<polygon fill="black" stroke="black" points="1396.04,-50.05 1385.5,-51.13 1394.42,-56.86 1396.04,-50.05"/>
</g>
<!-- v_1_3286657379 -->
<g id="node6" class="node">
<title>v_1_3286657379</title>
<ellipse fill="#1b9e77" stroke="black" cx="1904" cy="-34" rx="354.44" ry="18"/>
<text text-anchor="middle" x="1904" y="-30.3" font-family="Times,serif" font-size="14.00">[@0:Some(Handshake(None))#0]/Vec&lt;rustls::msgs::enums::CipherSuite&gt;</text>
</g>
<!-- f_1_2030074730&#45;&gt;v_1_3286657379 -->
<g id="edge4" class="edge">
<title>f_1_2030074730&#45;&gt;v_1_3286657379</title>
<path fill="none" stroke="black" d="M1670.65,-90.75C1714.95,-80.17 1775.83,-65.62 1824.3,-54.04"/>
<polygon fill="black" stroke="black" points="1825.22,-57.42 1834.13,-51.69 1823.59,-50.61 1825.22,-57.42"/>
</g>
<!-- v_1_3470344025 -->
<g id="node7" class="node">
<title>v_1_3470344025</title>
<ellipse fill="#1b9e77" stroke="black" cx="2636" cy="-34" rx="359.34" ry="18"/>
<text text-anchor="middle" x="2636" y="-30.3" font-family="Times,serif" font-size="14.00">[@0:Some(Handshake(None))#0]/Vec&lt;rustls::msgs::enums::Compression&gt;</text>
</g>
<!-- f_1_2030074730&#45;&gt;v_1_3470344025 -->
<g id="edge5" class="edge">
<title>f_1_2030074730&#45;&gt;v_1_3470344025</title>
<path fill="none" stroke="black" d="M1670.54,-100.93C1814.07,-91.13 2184.86,-65.81 2422.92,-49.55"/>
<polygon fill="black" stroke="black" points="2423.35,-53.03 2433.09,-48.86 2422.87,-46.05 2423.35,-53.03"/>
</g>
<!-- v_1_423694222 -->
<g id="node8" class="node">
<title>v_1_423694222</title>
<ellipse fill="#1b9e77" stroke="black" cx="3405" cy="-34" rx="391.83" ry="18"/>
<text text-anchor="middle" x="3405" y="-30.3" font-family="Times,serif" font-size="14.00">[@0:Some(Handshake(None))#0]/Vec&lt;rustls::msgs::handshake::ClientExtension&gt;</text>
</g>
<!-- f_1_2030074730&#45;&gt;v_1_423694222 -->
<g id="edge6" class="edge">
<title>f_1_2030074730&#45;&gt;v_1_423694222</title>
<path fill="none" stroke="black" d="M1670.74,-102.82C1863.7,-95.76 2487.71,-72.77 3004,-52 3041.31,-50.5 3080.57,-48.88 3119.33,-47.26"/>
<polygon fill="black" stroke="black" points="3119.86,-50.74 3129.71,-46.83 3119.57,-43.75 3119.86,-50.74"/>
</g>
<!-- f_2_1521434961 -->
<g id="node9" class="node">
<title>f_2_1521434961</title>
<polygon fill="#d95f02" stroke="black" points="5254.5,-124 5129.5,-124 5129.5,-88 5254.5,-88 5254.5,-124"/>
<text text-anchor="middle" x="5192" y="-102.3" font-family="Times,serif" font-size="14.00">fn_server_hello</text>
</g>
<!-- v_2_4285306627 -->
<g id="node10" class="node">
<title>v_2_4285306627</title>
<ellipse fill="#1b9e77" stroke="black" cx="4062" cy="-34" rx="241.26" ry="18"/>
<text text-anchor="middle" x="4062" y="-30.3" font-family="Times,serif" font-size="14.00">[@1:Some(Handshake(None))#0]/ProtocolVersion</text>
</g>
<!-- f_2_1521434961&#45;&gt;v_2_4285306627 -->
<g id="edge7" class="edge">
<title>f_2_1521434961&#45;&gt;v_2_4285306627</title>
<path fill="none" stroke="black" d="M5129.3,-101.39C4985.04,-93.05 4618.44,-71.65 4312,-52 4289.49,-50.56 4265.85,-49 4242.45,-47.44"/>
<polygon fill="black" stroke="black" points="4242.65,-43.94 4232.44,-46.77 4242.19,-50.93 4242.65,-43.94"/>
</g>
<!-- v_2_3111806178 -->
<g id="node11" class="node">
<title>v_2_3111806178</title>
<ellipse fill="#1b9e77" stroke="black" cx="4527" cy="-34" rx="206.06" ry="18"/>
<text text-anchor="middle" x="4527" y="-30.3" font-family="Times,serif" font-size="14.00">[@1:Some(Handshake(None))#0]/Random</text>
</g>
<!-- f_2_1521434961&#45;&gt;v_2_3111806178 -->
<g id="edge8" class="edge">
<title>f_2_1521434961&#45;&gt;v_2_3111806178</title>
<path fill="none" stroke="black" d="M5129.44,-98.41C5023.35,-87.25 4805.81,-64.35 4663.24,-49.34"/>
<polygon fill="black" stroke="black" points="4663.42,-45.84 4653.11,-48.27 4662.69,-52.8 4663.42,-45.84"/>
</g>
<!-- v_2_923736327 -->
<g id="node12" class="node">
<title>v_2_923736327</title>
<ellipse fill="#1b9e77" stroke="black" cx="4965" cy="-34" rx="213.66" ry="18"/>
<text text-anchor="middle" x="4965" y="-30.3" font-family="Times,serif" font-size="14.00">[@1:Some(Handshake(None))#0]/SessionID</text>
</g>
<!-- f_2_1521434961&#45;&gt;v_2_923736327 -->
<g id="edge9" class="edge">
<title>f_2_1521434961&#45;&gt;v_2_923736327</title>
<path fill="none" stroke="black" d="M5136.76,-87.97C5104.03,-77.87 5062.44,-65.05 5028.38,-54.54"/>
<polygon fill="black" stroke="black" points="5029.11,-51.11 5018.53,-51.51 5027.05,-57.8 5029.11,-51.11"/>
</g>
<!-- v_2_610392654 -->
<g id="node13" class="node">
<title>v_2_610392654</title>
<ellipse fill="#1b9e77" stroke="black" cx="5420" cy="-34" rx="223.66" ry="18"/>
<text text-anchor="middle" x="5420" y="-30.3" font-family="Times,serif" font-size="14.00">[@1:Some(Handshake(None))#0]/CipherSuite</text>
</g>
<!-- f_2_1521434961&#45;&gt;v_2_610392654 -->
<g id="edge10" class="edge">
<title>f_2_1521434961&#45;&gt;v_2_610392654</title>
<path fill="none" stroke="black" d="M5247.48,-87.97C5280.36,-77.87 5322.13,-65.05 5356.34,-54.54"/>
<polygon fill="black" stroke="black" points="5357.7,-57.79 5366.24,-51.51 5355.65,-51.1 5357.7,-57.79"/>
</g>
<!-- v_2_2753201861 -->
<g id="node14" class="node">
<title>v_2_2753201861</title>
<ellipse fill="#1b9e77" stroke="black" cx="5890" cy="-34" rx="228.26" ry="18"/>
<text text-anchor="middle" x="5890" y="-30.3" font-family="Times,serif" font-size="14.00">[@1:Some(Handshake(None))#0]/Compression</text>
</g>
<!-- f_2_1521434961&#45;&gt;v_2_2753201861 -->
<g id="edge11" class="edge">
<title>f_2_1521434961&#45;&gt;v_2_2753201861</title>
<path fill="none" stroke="black" d="M5254.56,-98.73C5364.14,-87.74 5593.49,-64.74 5744.58,-49.58"/>
<polygon fill="black" stroke="black" points="5745.27,-53.03 5754.87,-48.55 5744.57,-46.07 5745.27,-53.03"/>
</g>
<!-- v_2_3722739039 -->
<g id="node15" class="node">
<title>v_2_3722739039</title>
<ellipse fill="#1b9e77" stroke="black" cx="6531" cy="-34" rx="395.33" ry="18"/>
<text text-anchor="middle" x="6531" y="-30.3" font-family="Times,serif" font-size="14.00">[@1:Some(Handshake(None))#0]/Vec&lt;rustls::msgs::handshake::ServerExtension&gt;</text>
</g>
<!-- f_2_1521434961&#45;&gt;v_2_3722739039 -->
<g id="edge12" class="edge">
<title>f_2_1521434961&#45;&gt;v_2_3722739039</title>
<path fill="none" stroke="black" d="M5254.79,-101.72C5433.68,-92.37 5953.59,-65.19 6271.93,-48.54"/>
<polygon fill="black" stroke="black" points="6272.42,-52.02 6282.23,-48.01 6272.06,-45.03 6272.42,-52.02"/>
</g>
<!-- f_3_2440579068 -->
<g id="node16" class="node">
<title>f_3_2440579068</title>
<polygon fill="#d95f02" stroke="black" points="7229.5,-124 7074.5,-124 7074.5,-88 7229.5,-88 7229.5,-124"/>
<text text-anchor="middle" x="7152" y="-102.3" font-family="Times,serif" font-size="14.00">fn_application_data</text>
</g>
<!-- v_3_2829574926 -->
<g id="node17" class="node">
<title>v_3_2829574926</title>
<ellipse fill="#1b9e77" stroke="black" cx="7152" cy="-34" rx="202.26" ry="18"/>
<text text-anchor="middle" x="7152" y="-30.3" font-family="Times,serif" font-size="14.00">[@1:Some(ApplicationData)#0]/Vec&lt;u8&gt;</text>
</g>
<!-- f_3_2440579068&#45;&gt;v_3_2829574926 -->
<g id="edge13" class="edge">
<title>f_3_2440579068&#45;&gt;v_3_2829574926</title>
<path fill="none" stroke="black" d="M7152,-87.7C7152,-79.98 7152,-70.71 7152,-62.11"/>
<polygon fill="black" stroke="black" points="7155.5,-62.1 7152,-52.1 7148.5,-62.1 7155.5,-62.1"/>
</g>
<!-- f_4_1895096302 -->
<g id="node18" class="node">
<title>f_4_1895096302</title>
<polygon fill="#d95f02" stroke="black" points="7657.5,-124 7502.5,-124 7502.5,-88 7657.5,-88 7657.5,-124"/>
<text text-anchor="middle" x="7580" y="-102.3" font-family="Times,serif" font-size="14.00">fn_application_data</text>
</g>
<!-- v_4_2173134690 -->
<g id="node19" class="node">
<title>v_4_2173134690</title>
<ellipse fill="#1b9e77" stroke="black" cx="7580" cy="-34" rx="202.26" ry="18"/>
<text text-anchor="middle" x="7580" y="-30.3" font-family="Times,serif" font-size="14.00">[@1:Some(ApplicationData)#1]/Vec&lt;u8&gt;</text>
</g>
<!-- f_4_1895096302&#45;&gt;v_4_2173134690 -->
<g id="edge14" class="edge">
<title>f_4_1895096302&#45;&gt;v_4_2173134690</title>
<path fill="none" stroke="black" d="M7580,-87.7C7580,-79.98 7580,-70.71 7580,-62.11"/>
<polygon fill="black" stroke="black" points="7583.5,-62.1 7580,-52.1 7576.5,-62.1 7583.5,-62.1"/>
</g>
<!-- f_5_2597070310 -->
<g id="node20" class="node">
<title>f_5_2597070310</title>
<polygon fill="#d95f02" stroke="black" points="8085.5,-124 7930.5,-124 7930.5,-88 8085.5,-88 8085.5,-124"/>
<text text-anchor="middle" x="8008" y="-102.3" font-family="Times,serif" font-size="14.00">fn_application_data</text>
</g>
<!-- v_5_154147588 -->
<g id="node21" class="node">
<title>v_5_154147588</title>
<ellipse fill="#1b9e77" stroke="black" cx="8008" cy="-34" rx="202.26" ry="18"/>
<text text-anchor="middle" x="8008" y="-30.3" font-family="Times,serif" font-size="14.00">[@1:Some(ApplicationData)#2]/Vec&lt;u8&gt;</text>
</g>
<!-- f_5_2597070310&#45;&gt;v_5_154147588 -->
<g id="edge15" class="edge">
<title>f_5_2597070310&#45;&gt;v_5_154147588</title>
<path fill="none" stroke="black" d="M8008,-87.7C8008,-79.98 8008,-70.71 8008,-62.11"/>
<polygon fill="black" stroke="black" points="8011.5,-62.1 8008,-52.1 8004.5,-62.1 8011.5,-62.1"/>
</g>
<!-- f_6_2643326883 -->
<g id="node22" class="node">
<title>f_6_2643326883</title>
<polygon fill="#d95f02" stroke="black" points="8513.5,-124 8358.5,-124 8358.5,-88 8513.5,-88 8513.5,-124"/>
<text text-anchor="middle" x="8436" y="-102.3" font-family="Times,serif" font-size="14.00">fn_application_data</text>
</g>
<!-- v_6_3383919399 -->
<g id="node23" class="node">
<title>v_6_3383919399</title>
<ellipse fill="#1b9e77" stroke="black" cx="8436" cy="-34" rx="202.26" ry="18"/>
<text text-anchor="middle" x="8436" y="-30.3" font-family="Times,serif" font-size="14.00">[@1:Some(ApplicationData)#3]/Vec&lt;u8&gt;</text>
</g>
<!-- f_6_2643326883&#45;&gt;v_6_3383919399 -->
<g id="edge16" class="edge">
<title>f_6_2643326883&#45;&gt;v_6_3383919399</title>
<path fill="none" stroke="black" d="M8436,-87.7C8436,-79.98 8436,-70.71 8436,-62.11"/>
<polygon fill="black" stroke="black" points="8439.5,-62.1 8436,-52.1 8432.5,-62.1 8439.5,-62.1"/>
</g>
<!-- f_7_1490680835 -->
<g id="node24" class="node">
<title>f_7_1490680835</title>
<polygon fill="#d95f02" stroke="black" points="8941.5,-124 8786.5,-124 8786.5,-88 8941.5,-88 8941.5,-124"/>
<text text-anchor="middle" x="8864" y="-102.3" font-family="Times,serif" font-size="14.00">fn_application_data</text>
</g>
<!-- v_7_3265491712 -->
<g id="node25" class="node">
<title>v_7_3265491712</title>
<ellipse fill="#1b9e77" stroke="black" cx="8864" cy="-34" rx="202.26" ry="18"/>
<text text-anchor="middle" x="8864" y="-30.3" font-family="Times,serif" font-size="14.00">[@0:Some(ApplicationData)#0]/Vec&lt;u8&gt;</text>
</g>
<!-- f_7_1490680835&#45;&gt;v_7_3265491712 -->
<g id="edge17" class="edge">
<title>f_7_1490680835&#45;&gt;v_7_3265491712</title>
<path fill="none" stroke="black" d="M8864,-87.7C8864,-79.98 8864,-70.71 8864,-62.11"/>
<polygon fill="black" stroke="black" points="8867.5,-62.1 8864,-52.1 8860.5,-62.1 8867.5,-62.1"/>
</g>
</g>
</svg>
