<?xml version="1.0" encoding="UTF-8" standalone="no"?>
<!DOCTYPE svg PUBLIC "-//W3C//DTD SVG 1.1//EN"
 "http://www.w3.org/Graphics/SVG/1.1/DTD/svg11.dtd">
<!-- Generated by graphviz version 2.49.0 (0)
 -->
<!-- Title: Trace Pages: 1 -->
<svg width="8381pt" height="148pt"
 viewBox="0.00 0.00 8381.00 148.00" xmlns="http://www.w3.org/2000/svg" xmlns:xlink="http://www.w3.org/1999/xlink">
<g id="graph0" class="graph" transform="scale(1 1) rotate(0) translate(4 144)">
<title>Trace</title>
<polygon fill="white" stroke="transparent" points="-4,4 -4,-144 8377,-144 8377,4 -4,4"/>
<g id="clust1" class="cluster">
<title>cluster0</title>
<polygon fill="none" stroke="transparent" points="8,-80 8,-132 78,-132 78,-80 8,-80"/>
</g>
<g id="clust2" class="cluster">
<title>cluster1</title>
<polygon fill="none" stroke="transparent" points="86,-8 86,-132 2784,-132 2784,-8 86,-8"/>
</g>
<g id="clust3" class="cluster">
<title>cluster2</title>
<polygon fill="none" stroke="transparent" points="2792,-8 2792,-132 5097,-132 5097,-8 2792,-8"/>
</g>
<g id="clust4" class="cluster">
<title>cluster3</title>
<polygon fill="none" stroke="transparent" points="5105,-8 5105,-132 5563,-132 5563,-8 5105,-8"/>
</g>
<g id="clust5" class="cluster">
<title>cluster4</title>
<polygon fill="none" stroke="transparent" points="5571,-8 5571,-132 6049,-132 6049,-8 5571,-8"/>
</g>
<g id="clust6" class="cluster">
<title>cluster5</title>
<polygon fill="none" stroke="transparent" points="6057,-80 6057,-132 6237,-132 6237,-80 6057,-80"/>
</g>
<g id="clust7" class="cluster">
<title>cluster6</title>
<polygon fill="none" stroke="transparent" points="6245,-8 6245,-132 6715,-132 6715,-8 6245,-8"/>
</g>
<g id="clust8" class="cluster">
<title>cluster7</title>
<polygon fill="none" stroke="transparent" points="6723,-80 6723,-132 6917,-132 6917,-80 6723,-80"/>
</g>
<g id="clust9" class="cluster">
<title>cluster8</title>
<polygon fill="none" stroke="transparent" points="6925,-8 6925,-132 7161,-132 7161,-8 6925,-8"/>
</g>
<g id="clust10" class="cluster">
<title>cluster9</title>
<polygon fill="none" stroke="transparent" points="7169,-8 7169,-132 7919,-132 7919,-8 7169,-8"/>
</g>
<g id="clust11" class="cluster">
<title>cluster10</title>
<polygon fill="none" stroke="transparent" points="7927,-80 7927,-132 8121,-132 8121,-80 7927,-80"/>
</g>
<g id="clust12" class="cluster">
<title>cluster11</title>
<polygon fill="none" stroke="transparent" points="8129,-8 8129,-132 8365,-132 8365,-8 8129,-8"/>
</g>
<g id="node1" class="node">
<title></title>
<ellipse fill="none" stroke="transparent" cx="43" cy="-106" rx="27" ry="18"/>
</g>
<!-- f_1_12168759 -->
<g id="node2" class="node">
<title>f_1_12168759</title>
<text text-anchor="middle" x="1151" y="-102.3" font-family="Latin Modern Roman" font-size="14.00">fn_client_hello</text>
</g>
<!-- v_1_3735798506 -->
<g id="node3" class="node">
<title>v_1_3735798506</title>
<text text-anchor="middle" x="268" y="-30.3" font-family="Latin Modern Roman" font-size="14.00">(0, 0)[Some(Handshake(None))]/ProtocolVersion</text>
</g>
<!-- f_1_12168759&#45;&gt;v_1_3735798506 -->
<g id="edge1" class="edge">
<title>f_1_12168759&#45;&gt;v_1_3735798506</title>
<path fill="none" stroke="black" d="M1093.4,-100.43C965.65,-90.31 653.94,-65.6 452.24,-49.61"/>
<polygon fill="black" stroke="black" points="452.36,-46.1 442.12,-48.8 451.81,-53.08 452.36,-46.1"/>
</g>
<!-- v_1_918195847 -->
<g id="node4" class="node">
<title>v_1_918195847</title>
<text text-anchor="middle" x="610" y="-30.3" font-family="Latin Modern Roman" font-size="14.00">(0, 0)[Some(Handshake(None))]/Random</text>
</g>
<!-- f_1_12168759&#45;&gt;v_1_918195847 -->
<g id="edge2" class="edge">
<title>f_1_12168759&#45;&gt;v_1_918195847</title>
<path fill="none" stroke="black" d="M1093.36,-97.54C1012.55,-87.09 863.01,-67.74 751.57,-53.32"/>
<polygon fill="black" stroke="black" points="751.96,-49.84 741.59,-52.03 751.06,-56.78 751.96,-49.84"/>
</g>
<!-- v_1_1300096602 -->
<g id="node5" class="node">
<title>v_1_1300096602</title>
<text text-anchor="middle" x="934" y="-30.3" font-family="Latin Modern Roman" font-size="14.00">(0, 0)[Some(Handshake(None))]/SessionID</text>
</g>
<!-- f_1_12168759&#45;&gt;v_1_1300096602 -->
<g id="edge3" class="edge">
<title>f_1_12168759&#45;&gt;v_1_1300096602</title>
<path fill="none" stroke="black" d="M1098.19,-87.97C1067.61,-78.1 1028.93,-65.62 996.79,-55.25"/>
<polygon fill="black" stroke="black" points="997.64,-51.85 987.04,-52.11 995.49,-58.51 997.64,-51.85"/>
</g>
<!-- v_1_759610755 -->
<g id="node6" class="node">
<title>v_1_759610755</title>
<text text-anchor="middle" x="1369" y="-30.3" font-family="Latin Modern Roman" font-size="14.00">(0, 0)[Some(Handshake(None))]/Vec&lt;rustls::msgs::enums::CipherSuite&gt;</text>
</g>
<!-- f_1_12168759&#45;&gt;v_1_759610755 -->
<g id="edge4" class="edge">
<title>f_1_12168759&#45;&gt;v_1_759610755</title>
<path fill="none" stroke="black" d="M1204.05,-87.97C1234.77,-78.1 1273.64,-65.62 1305.92,-55.25"/>
<polygon fill="black" stroke="black" points="1307.26,-58.5 1315.71,-52.11 1305.12,-51.84 1307.26,-58.5"/>
</g>
<!-- v_1_3708287112 -->
<g id="node7" class="node">
<title>v_1_3708287112</title>
<text text-anchor="middle" x="1914" y="-30.3" font-family="Latin Modern Roman" font-size="14.00">(0, 0)[Some(Handshake(None))]/Vec&lt;rustls::msgs::enums::Compression&gt;</text>
</g>
<!-- f_1_12168759&#45;&gt;v_1_3708287112 -->
<g id="edge5" class="edge">
<title>f_1_12168759&#45;&gt;v_1_3708287112</title>
<path fill="none" stroke="black" d="M1208.66,-99.71C1315.63,-89.9 1549.29,-68.46 1718.42,-52.94"/>
<polygon fill="black" stroke="black" points="1718.81,-56.42 1728.45,-52.02 1718.17,-49.45 1718.81,-56.42"/>
</g>
<!-- v_1_3130045227 -->
<g id="node8" class="node">
<title>v_1_3130045227</title>
<text text-anchor="middle" x="2487" y="-30.3" font-family="Latin Modern Roman" font-size="14.00">(0, 0)[Some(Handshake(None))]/Vec&lt;rustls::msgs::handshake::ClientExtension&gt;</text>
</g>
<!-- f_1_12168759&#45;&gt;v_1_3130045227 -->
<g id="edge6" class="edge">
<title>f_1_12168759&#45;&gt;v_1_3130045227</title>
<path fill="none" stroke="black" d="M1208.84,-101.97C1375.37,-93.24 1864.69,-67.61 2187.3,-50.7"/>
<polygon fill="black" stroke="black" points="2187.95,-54.17 2197.75,-50.16 2187.58,-47.18 2187.95,-54.17"/>
</g>
<!-- f_2_4026867982 -->
<g id="node9" class="node">
<title>f_2_4026867982</title>
<text text-anchor="middle" x="3807" y="-102.3" font-family="Latin Modern Roman" font-size="14.00">fn_server_hello</text>
</g>
<!-- v_2_1358022734 -->
<g id="node10" class="node">
<title>v_2_1358022734</title>
<text text-anchor="middle" x="2974" y="-30.3" font-family="Latin Modern Roman" font-size="14.00">(1, 0)[Some(Handshake(None))]/ProtocolVersion</text>
</g>
<!-- f_2_4026867982&#45;&gt;v_2_1358022734 -->
<g id="edge7" class="edge">
<title>f_2_4026867982&#45;&gt;v_2_1358022734</title>
<path fill="none" stroke="black" d="M3745.75,-99.85C3623.54,-89.58 3345.14,-66.19 3158.32,-50.49"/>
<polygon fill="black" stroke="black" points="3158.36,-46.98 3148.1,-49.63 3157.77,-53.96 3158.36,-46.98"/>
</g>
<!-- v_2_3589489896 -->
<g id="node11" class="node">
<title>v_2_3589489896</title>
<text text-anchor="middle" x="3316" y="-30.3" font-family="Latin Modern Roman" font-size="14.00">(1, 0)[Some(Handshake(None))]/Random</text>
</g>
<!-- f_2_4026867982&#45;&gt;v_2_3589489896 -->
<g id="edge8" class="edge">
<title>f_2_4026867982&#45;&gt;v_2_3589489896</title>
<path fill="none" stroke="black" d="M3745.81,-96.28C3671.07,-85.62 3542.64,-67.31 3445.58,-53.47"/>
<polygon fill="black" stroke="black" points="3445.79,-49.97 3435.4,-52.02 3444.8,-56.9 3445.79,-49.97"/>
</g>
<!-- v_2_15621453 -->
<g id="node12" class="node">
<title>v_2_15621453</title>
<text text-anchor="middle" x="3640" y="-30.3" font-family="Latin Modern Roman" font-size="14.00">(1, 0)[Some(Handshake(None))]/SessionID</text>
</g>
<!-- f_2_4026867982&#45;&gt;v_2_15621453 -->
<g id="edge9" class="edge">
<title>f_2_4026867982&#45;&gt;v_2_15621453</title>
<path fill="none" stroke="black" d="M3766.15,-87.88C3743.22,-78.26 3714.42,-66.19 3690.13,-56.01"/>
<polygon fill="black" stroke="black" points="3691.3,-52.71 3680.72,-52.07 3688.59,-59.16 3691.3,-52.71"/>
</g>
<!-- v_2_1415239108 -->
<g id="node13" class="node">
<title>v_2_1415239108</title>
<text text-anchor="middle" x="3975" y="-30.3" font-family="Latin Modern Roman" font-size="14.00">(1, 0)[Some(Handshake(None))]/CipherSuite</text>
</g>
<!-- f_2_4026867982&#45;&gt;v_2_1415239108 -->
<g id="edge10" class="edge">
<title>f_2_4026867982&#45;&gt;v_2_1415239108</title>
<path fill="none" stroke="black" d="M3848.1,-87.88C3871.17,-78.26 3900.14,-66.19 3924.57,-56.01"/>
<polygon fill="black" stroke="black" points="3926.15,-59.15 3934.04,-52.07 3923.46,-52.68 3926.15,-59.15"/>
</g>
<!-- v_2_515440992 -->
<g id="node14" class="node">
<title>v_2_515440992</title>
<text text-anchor="middle" x="4321" y="-30.3" font-family="Latin Modern Roman" font-size="14.00">(1, 0)[Some(Handshake(None))]/Compression</text>
</g>
<!-- f_2_4026867982&#45;&gt;v_2_515440992 -->
<g id="edge11" class="edge">
<title>f_2_4026867982&#45;&gt;v_2_515440992</title>
<path fill="none" stroke="black" d="M3868.24,-96.66C3946.16,-86.05 4083,-67.41 4185.9,-53.4"/>
<polygon fill="black" stroke="black" points="4186.63,-56.83 4196.07,-52.01 4185.69,-49.9 4186.63,-56.83"/>
</g>
<!-- v_2_1480788920 -->
<g id="node15" class="node">
<title>v_2_1480788920</title>
<text text-anchor="middle" x="4797" y="-30.3" font-family="Latin Modern Roman" font-size="14.00">(1, 0)[Some(Handshake(None))]/Vec&lt;rustls::msgs::handshake::ServerExtension&gt;</text>
</g>
<!-- f_2_4026867982&#45;&gt;v_2_1480788920 -->
<g id="edge12" class="edge">
<title>f_2_4026867982&#45;&gt;v_2_1480788920</title>
<path fill="none" stroke="black" d="M3868.18,-100.67C4000.43,-91.32 4319.32,-68.78 4546.48,-52.71"/>
<polygon fill="black" stroke="black" points="4546.82,-56.2 4556.55,-52 4546.33,-49.22 4546.82,-56.2"/>
</g>
<!-- f_3_779705019 -->
<g id="node16" class="node">
<title>f_3_779705019</title>
<text text-anchor="middle" x="5334" y="-102.3" font-family="Latin Modern Roman" font-size="14.00">fn_certificate</text>
</g>
<!-- v_3_2136013948 -->
<g id="node17" class="node">
<title>v_3_2136013948</title>
<text text-anchor="middle" x="5334" y="-30.3" font-family="Latin Modern Roman" font-size="14.00">(1, 0)[Some(Handshake(None))]/Vec&lt;rustls::key::Certificate&gt;</text>
</g>
<!-- f_3_779705019&#45;&gt;v_3_2136013948 -->
<g id="edge13" class="edge">
<title>f_3_779705019&#45;&gt;v_3_2136013948</title>
<path fill="none" stroke="black" d="M5334,-87.7C5334,-79.98 5334,-70.71 5334,-62.11"/>
<polygon fill="black" stroke="black" points="5337.5,-62.1 5334,-52.1 5330.5,-62.1 5337.5,-62.1"/>
</g>
<!-- f_4_3339170637 -->
<g id="node18" class="node">
<title>f_4_3339170637</title>
<text text-anchor="middle" x="5810" y="-102.3" font-family="Latin Modern Roman" font-size="14.00">fn_server_key_exchange</text>
</g>
<!-- v_4_2345052072 -->
<g id="node19" class="node">
<title>v_4_2345052072</title>
<text text-anchor="middle" x="5810" y="-30.3" font-family="Latin Modern Roman" font-size="14.00">(1, 0)[Some(Handshake(Some(ServerKeyExchange)))]/Vec&lt;u8&gt;</text>
</g>
<!-- f_4_3339170637&#45;&gt;v_4_2345052072 -->
<g id="edge14" class="edge">
<title>f_4_3339170637&#45;&gt;v_4_2345052072</title>
<path fill="none" stroke="black" d="M5810,-87.7C5810,-79.98 5810,-70.71 5810,-62.11"/>
<polygon fill="black" stroke="black" points="5813.5,-62.1 5810,-52.1 5806.5,-62.1 5813.5,-62.1"/>
</g>
<!-- f_5_3594673411 -->
<g id="node20" class="node">
<title>f_5_3594673411</title>
<text text-anchor="middle" x="6147" y="-102.3" font-family="Latin Modern Roman" font-size="14.00">fn_server_hello_done</text>
</g>
<!-- f_6_1858024888 -->
<g id="node21" class="node">
<title>f_6_1858024888</title>
<text text-anchor="middle" x="6480" y="-102.3" font-family="Latin Modern Roman" font-size="14.00">fn_client_key_exchange</text>
</g>
<!-- v_6_2717532889 -->
<g id="node22" class="node">
<title>v_6_2717532889</title>
<text text-anchor="middle" x="6480" y="-30.3" font-family="Latin Modern Roman" font-size="14.00">(0, 0)[Some(Handshake(Some(ClientKeyExchange)))]/Vec&lt;u8&gt;</text>
</g>
<!-- f_6_1858024888&#45;&gt;v_6_2717532889 -->
<g id="edge15" class="edge">
<title>f_6_1858024888&#45;&gt;v_6_2717532889</title>
<path fill="none" stroke="black" d="M6480,-87.7C6480,-79.98 6480,-70.71 6480,-62.11"/>
<polygon fill="black" stroke="black" points="6483.5,-62.1 6480,-52.1 6476.5,-62.1 6483.5,-62.1"/>
</g>
<!-- f_7_378038208 -->
<g id="node23" class="node">
<title>f_7_378038208</title>
<text text-anchor="middle" x="6820" y="-102.3" font-family="Latin Modern Roman" font-size="14.00">fn_change_cipher_spec</text>
</g>
<!-- f_8_4066847812 -->
<g id="node24" class="node">
<title>f_8_4066847812</title>
<text text-anchor="middle" x="7043" y="-102.3" font-family="Latin Modern Roman" font-size="14.00">fn_opaque_message</text>
</g>
<!-- v_8_4012998713 -->
<g id="node25" class="node">
<title>v_8_4012998713</title>
<text text-anchor="middle" x="7043" y="-30.3" font-family="Latin Modern Roman" font-size="14.00">(0, 3)[None]/OpaqueMessage</text>
</g>
<!-- f_8_4066847812&#45;&gt;v_8_4012998713 -->
<g id="edge16" class="edge">
<title>f_8_4066847812&#45;&gt;v_8_4012998713</title>
<path fill="none" stroke="black" d="M7043,-87.7C7043,-79.98 7043,-70.71 7043,-62.11"/>
<polygon fill="black" stroke="black" points="7046.5,-62.1 7043,-52.1 7039.5,-62.1 7046.5,-62.1"/>
</g>
<!-- f_9_3887044972 -->
<g id="node26" class="node">
<title>f_9_3887044972</title>
<text text-anchor="middle" x="7500" y="-102.3" font-family="Latin Modern Roman" font-size="14.00">fn_new_session_ticket</text>
</g>
<!-- v_9_286828180 -->
<g id="node27" class="node">
<title>v_9_286828180</title>
<text text-anchor="middle" x="7312" y="-30.3" font-family="Latin Modern Roman" font-size="14.00">(1, 0)[Some(Handshake(None))]/u64</text>
</g>
<!-- f_9_3887044972&#45;&gt;v_9_286828180 -->
<g id="edge17" class="edge">
<title>f_9_3887044972&#45;&gt;v_9_286828180</title>
<path fill="none" stroke="black" d="M7454.01,-87.88C7427.85,-78.14 7394.91,-65.87 7367.35,-55.61"/>
<polygon fill="black" stroke="black" points="7368.43,-52.28 7357.84,-52.07 7365.99,-58.84 7368.43,-52.28"/>
</g>
<!-- v_9_82680431 -->
<g id="node28" class="node">
<title>v_9_82680431</title>
<text text-anchor="middle" x="7688" y="-30.3" font-family="Latin Modern Roman" font-size="14.00">(1, 0)[Some(Handshake(Some(NewSessionTicket)))]/Vec&lt;u8&gt;</text>
</g>
<!-- f_9_3887044972&#45;&gt;v_9_82680431 -->
<g id="edge18" class="edge">
<title>f_9_3887044972&#45;&gt;v_9_82680431</title>
<path fill="none" stroke="black" d="M7545.99,-87.88C7572.15,-78.14 7605.09,-65.87 7632.65,-55.61"/>
<polygon fill="black" stroke="black" points="7634.01,-58.84 7642.16,-52.07 7631.57,-52.28 7634.01,-58.84"/>
</g>
<!-- f_10_746339580 -->
<g id="node29" class="node">
<title>f_10_746339580</title>
<text text-anchor="middle" x="8024" y="-102.3" font-family="Latin Modern Roman" font-size="14.00">fn_change_cipher_spec</text>
</g>
<!-- f_11_2671831542 -->
<g id="node30" class="node">
<title>f_11_2671831542</title>
<text text-anchor="middle" x="8247" y="-102.3" font-family="Latin Modern Roman" font-size="14.00">fn_opaque_message</text>
</g>
<!-- v_11_1404915334 -->
<g id="node31" class="node">
<title>v_11_1404915334</title>
<text text-anchor="middle" x="8247" y="-30.3" font-family="Latin Modern Roman" font-size="14.00">(1, 6)[None]/OpaqueMessage</text>
</g>
<!-- f_11_2671831542&#45;&gt;v_11_1404915334 -->
<g id="edge19" class="edge">
<title>f_11_2671831542&#45;&gt;v_11_1404915334</title>
<path fill="none" stroke="black" d="M8247,-87.7C8247,-79.98 8247,-70.71 8247,-62.11"/>
<polygon fill="black" stroke="black" points="8250.5,-62.1 8247,-52.1 8243.5,-62.1 8250.5,-62.1"/>
</g>
</g>
</svg>
