<?xml version="1.0" encoding="UTF-8" standalone="no"?>
<!DOCTYPE svg PUBLIC "-//W3C//DTD SVG 1.1//EN"
 "http://www.w3.org/Graphics/SVG/1.1/DTD/svg11.dtd">
<!-- Generated by graphviz version 2.47.2 (0)
 -->
<!-- Pages: 1 -->
<svg width="947pt" height="459pt"
 viewBox="0.00 0.00 947.00 459.00" xmlns="http://www.w3.org/2000/svg" xmlns:xlink="http://www.w3.org/1999/xlink">
<g id="graph0" class="graph" transform="scale(1 1) rotate(0) translate(4 455)">
<polygon fill="white" stroke="transparent" points="-4,4 -4,-455 943,-455 943,4 -4,4"/>
<g id="clust1" class="cluster">
<title>cluster0</title>
<polygon fill="none" stroke="black" points="8,-8 8,-443 931,-443 931,-8 8,-8"/>
<text text-anchor="middle" x="469.5" y="-427.8" font-family="Times,serif" font-size="14.00">Step #0 (Agent &#160;1)</text>
</g>
<!-- f_0_2169144593 -->
<g id="node1" class="node">
<title>f_0_2169144593</title>
<polygon fill="#d95f02" stroke="black" points="501.5,-412 382.5,-412 382.5,-376 501.5,-376 501.5,-412"/>
<text text-anchor="middle" x="442" y="-390.3" font-family="Times,serif" font-size="14.00">fn_client_hello</text>
</g>
<!-- f_0_2842789872 -->
<g id="node2" class="node">
<title>f_0_2842789872</title>
<polygon fill="#1b9e77" stroke="black" points="189.5,-340 16.5,-340 16.5,-304 189.5,-304 189.5,-340"/>
<text text-anchor="middle" x="103" y="-318.3" font-family="Times,serif" font-size="14.00">fn_protocol_version12</text>
</g>
<!-- f_0_2169144593&#45;&#45;f_0_2842789872 -->
<g id="edge1" class="edge">
<title>f_0_2169144593&#45;&#45;f_0_2842789872</title>
<path fill="none" stroke="black" d="M382.17,-380.65C327.53,-369.36 246.22,-352.57 185.43,-340.02"/>
</g>
<!-- f_0_1998375268 -->
<g id="node3" class="node">
<title>f_0_1998375268</title>
<polygon fill="#1b9e77" stroke="black" points="300,-340 208,-340 208,-304 300,-304 300,-340"/>
<text text-anchor="middle" x="254" y="-318.3" font-family="Times,serif" font-size="14.00">fn_random</text>
</g>
<!-- f_0_2169144593&#45;&#45;f_0_1998375268 -->
<g id="edge2" class="edge">
<title>f_0_2169144593&#45;&#45;f_0_1998375268</title>
<path fill="none" stroke="black" d="M396.01,-375.88C366.77,-364.99 329.05,-350.95 299.84,-340.07"/>
</g>
<!-- f_0_2288395516 -->
<g id="node4" class="node">
<title>f_0_2288395516</title>
<polygon fill="#1b9e77" stroke="black" points="428,-340 318,-340 318,-304 428,-304 428,-340"/>
<text text-anchor="middle" x="373" y="-318.3" font-family="Times,serif" font-size="14.00">fn_session_id</text>
</g>
<!-- f_0_2169144593&#45;&#45;f_0_2288395516 -->
<g id="edge3" class="edge">
<title>f_0_2169144593&#45;&#45;f_0_2288395516</title>
<path fill="none" stroke="black" d="M424.94,-375.7C414.25,-364.85 400.52,-350.92 389.86,-340.1"/>
</g>
<!-- f_0_2501905400 -->
<g id="node5" class="node">
<title>f_0_2501905400</title>
<polygon fill="#1b9e77" stroke="black" points="578,-340 446,-340 446,-304 578,-304 578,-340"/>
<text text-anchor="middle" x="512" y="-318.3" font-family="Times,serif" font-size="14.00">fn_cipher_suites</text>
</g>
<!-- f_0_2169144593&#45;&#45;f_0_2501905400 -->
<g id="edge4" class="edge">
<title>f_0_2169144593&#45;&#45;f_0_2501905400</title>
<path fill="none" stroke="black" d="M459.3,-375.7C470.15,-364.85 484.08,-350.92 494.9,-340.1"/>
</g>
<!-- f_0_3599801262 -->
<g id="node6" class="node">
<title>f_0_3599801262</title>
<polygon fill="#1b9e77" stroke="black" points="731.5,-340 596.5,-340 596.5,-304 731.5,-304 731.5,-340"/>
<text text-anchor="middle" x="664" y="-318.3" font-family="Times,serif" font-size="14.00">fn_compressions</text>
</g>
<!-- f_0_2169144593&#45;&#45;f_0_3599801262 -->
<g id="edge5" class="edge">
<title>f_0_2169144593&#45;&#45;f_0_3599801262</title>
<path fill="none" stroke="black" d="M496.02,-375.97C530.55,-365.08 575.16,-351.01 609.73,-340.11"/>
</g>
<!-- f_0_4168295129 -->
<g id="node7" class="node">
<title>f_0_4168295129</title>
<polygon fill="#d95f02" stroke="black" points="922.5,-340 749.5,-340 749.5,-304 922.5,-304 922.5,-340"/>
<text text-anchor="middle" x="836" y="-318.3" font-family="Times,serif" font-size="14.00">fn_extensions_append</text>
</g>
<!-- f_0_2169144593&#45;&#45;f_0_4168295129 -->
<g id="edge6" class="edge">
<title>f_0_2169144593&#45;&#45;f_0_4168295129</title>
<path fill="none" stroke="black" d="M501.57,-382.47C561.92,-371.8 657.96,-354.79 741,-340 743.72,-339.52 746.49,-339.02 749.28,-338.52"/>
</g>
<!-- f_0_3197246371 -->
<g id="node8" class="node">
<title>f_0_3197246371</title>
<polygon fill="#d95f02" stroke="black" points="651.5,-268 478.5,-268 478.5,-232 651.5,-232 651.5,-268"/>
<text text-anchor="middle" x="565" y="-246.3" font-family="Times,serif" font-size="14.00">fn_extensions_append</text>
</g>
<!-- f_0_4168295129&#45;&#45;f_0_3197246371 -->
<g id="edge7" class="edge">
<title>f_0_4168295129&#45;&#45;f_0_3197246371</title>
<path fill="none" stroke="black" d="M770.05,-303.97C727.91,-293.08 673.45,-279.01 631.24,-268.11"/>
</g>
<!-- f_0_1849384816 -->
<g id="node15" class="node">
<title>f_0_1849384816</title>
<polygon fill="#1b9e77" stroke="black" points="922.5,-268 669.5,-268 669.5,-232 922.5,-232 922.5,-268"/>
<text text-anchor="middle" x="796" y="-246.3" font-family="Times,serif" font-size="14.00">fn_supported_versions_extension</text>
</g>
<!-- f_0_4168295129&#45;&#45;f_0_1849384816 -->
<g id="edge14" class="edge">
<title>f_0_4168295129&#45;&#45;f_0_1849384816</title>
<path fill="none" stroke="black" d="M826.11,-303.7C819.91,-292.85 811.95,-278.92 805.77,-268.1"/>
</g>
<!-- f_0_2381459143 -->
<g id="node9" class="node">
<title>f_0_2381459143</title>
<polygon fill="#d95f02" stroke="black" points="592.5,-196 419.5,-196 419.5,-160 592.5,-160 592.5,-196"/>
<text text-anchor="middle" x="506" y="-174.3" font-family="Times,serif" font-size="14.00">fn_extensions_append</text>
</g>
<!-- f_0_3197246371&#45;&#45;f_0_2381459143 -->
<g id="edge8" class="edge">
<title>f_0_3197246371&#45;&#45;f_0_2381459143</title>
<path fill="none" stroke="black" d="M550.42,-231.7C541.27,-220.85 529.53,-206.92 520.42,-196.1"/>
</g>
<!-- f_0_2578336336 -->
<g id="node14" class="node">
<title>f_0_2578336336</title>
<polygon fill="#1b9e77" stroke="black" points="795.5,-196 610.5,-196 610.5,-160 795.5,-160 795.5,-196"/>
<text text-anchor="middle" x="703" y="-174.3" font-family="Times,serif" font-size="14.00">fn_key_share_extension</text>
</g>
<!-- f_0_3197246371&#45;&#45;f_0_2578336336 -->
<g id="edge13" class="edge">
<title>f_0_3197246371&#45;&#45;f_0_2578336336</title>
<path fill="none" stroke="black" d="M598.76,-231.88C620.14,-221.03 647.7,-207.05 669.11,-196.19"/>
</g>
<!-- f_0_3543840855 -->
<g id="node10" class="node">
<title>f_0_3543840855</title>
<polygon fill="#d95f02" stroke="black" points="532.5,-124 359.5,-124 359.5,-88 532.5,-88 532.5,-124"/>
<text text-anchor="middle" x="446" y="-102.3" font-family="Times,serif" font-size="14.00">fn_extensions_append</text>
</g>
<!-- f_0_2381459143&#45;&#45;f_0_3543840855 -->
<g id="edge9" class="edge">
<title>f_0_2381459143&#45;&#45;f_0_3543840855</title>
<path fill="none" stroke="black" d="M491.17,-159.7C481.87,-148.85 469.93,-134.92 460.66,-124.1"/>
</g>
<!-- f_0_3988650242 -->
<g id="node13" class="node">
<title>f_0_3988650242</title>
<polygon fill="#1b9e77" stroke="black" points="809,-124 551,-124 551,-88 809,-88 809,-124"/>
<text text-anchor="middle" x="680" y="-102.3" font-family="Times,serif" font-size="14.00">fn_signature_algorithm_extension</text>
</g>
<!-- f_0_2381459143&#45;&#45;f_0_3988650242 -->
<g id="edge12" class="edge">
<title>f_0_2381459143&#45;&#45;f_0_3988650242</title>
<path fill="none" stroke="black" d="M548.57,-159.88C575.63,-148.99 610.54,-134.95 637.57,-124.07"/>
</g>
<!-- f_0_1216274154 -->
<g id="node11" class="node">
<title>f_0_1216274154</title>
<polygon fill="#1b9e77" stroke="black" points="401,-52 251,-52 251,-16 401,-16 401,-52"/>
<text text-anchor="middle" x="326" y="-30.3" font-family="Times,serif" font-size="14.00">fn_extensions_new</text>
</g>
<!-- f_0_3543840855&#45;&#45;f_0_1216274154 -->
<g id="edge10" class="edge">
<title>f_0_3543840855&#45;&#45;f_0_1216274154</title>
<path fill="none" stroke="black" d="M416.64,-87.88C398.05,-77.03 374.09,-63.05 355.47,-52.19"/>
</g>
<!-- f_0_620761692 -->
<g id="node12" class="node">
<title>f_0_620761692</title>
<polygon fill="#1b9e77" stroke="black" points="697,-52 419,-52 419,-16 697,-16 697,-52"/>
<text text-anchor="middle" x="558" y="-30.3" font-family="Times,serif" font-size="14.00">fn_x25519_support_group_extension</text>
</g>
<!-- f_0_3543840855&#45;&#45;f_0_620761692 -->
<g id="edge11" class="edge">
<title>f_0_3543840855&#45;&#45;f_0_620761692</title>
<path fill="none" stroke="black" d="M473.4,-87.88C490.75,-77.03 513.12,-63.05 530.5,-52.19"/>
</g>
</g>
</svg>
