<?xml version="1.0" encoding="UTF-8" standalone="no"?>
<!DOCTYPE svg PUBLIC "-//W3C//DTD SVG 1.1//EN"
 "http://www.w3.org/Graphics/SVG/1.1/DTD/svg11.dtd">
<!-- Generated by graphviz version 2.47.2 (0)
 -->
<!-- Title: Trace Pages: 1 -->
<svg width="1569pt" height="1257pt"
 viewBox="0.00 0.00 1569.00 1257.00" xmlns="http://www.w3.org/2000/svg" xmlns:xlink="http://www.w3.org/1999/xlink">
<g id="graph0" class="graph" transform="scale(1 1) rotate(0) translate(4 1253)">
<title>Trace</title>
<polygon fill="white" stroke="transparent" points="-4,4 -4,-1253 1565,-1253 1565,4 -4,4"/>
<g id="clust1" class="cluster">
<title>cluster0</title>
<polygon fill="none" stroke="black" points="612,-8 612,-587 1553,-587 1553,-8 612,-8"/>
<text text-anchor="middle" x="1082.5" y="-571.8" font-family="Times,serif" font-size="14.00">Step #0 (Agent &#160;1)</text>
</g>
<g id="clust2" class="cluster">
<title>cluster1</title>
<polygon fill="none" stroke="black" points="877,-1166 877,-1241 1065,-1241 1065,-1166 877,-1166"/>
<text text-anchor="middle" x="971" y="-1225.8" font-family="Times,serif" font-size="14.00">Step #1 (Agent &#160;1) &#45; (0,)</text>
</g>
<g id="clust3" class="cluster">
<title>cluster2</title>
<polygon fill="none" stroke="black" points="612,-659 612,-950 816,-950 816,-659 612,-659"/>
<text text-anchor="middle" x="714" y="-934.8" font-family="Times,serif" font-size="14.00">Step #2 (Agent &#160;1)</text>
</g>
<g id="clust4" class="cluster">
<title>cluster3</title>
<polygon fill="none" stroke="black" points="1206,-1166 1206,-1241 1420,-1241 1420,-1166 1206,-1166"/>
<text text-anchor="middle" x="1313" y="-1225.8" font-family="Times,serif" font-size="14.00">Step #3 (Agent &#160;1)</text>
</g>
<g id="clust5" class="cluster">
<title>cluster4</title>
<polygon fill="none" stroke="black" points="8,-512 8,-1241 604,-1241 604,-512 8,-512"/>
<text text-anchor="middle" x="306" y="-1225.8" font-family="Times,serif" font-size="14.00">Step #4 (Agent &#160;1)</text>
</g>
<!-- f_371079138 -->
<g id="node1" class="node">
<title>f_371079138</title>
<polygon fill="#d95f02" stroke="black" points="1036.5,-556 917.5,-556 917.5,-520 1036.5,-520 1036.5,-556"/>
<text text-anchor="middle" x="977" y="-534.3" font-family="Times,serif" font-size="14.00">fn_client_hello</text>
</g>
<!-- f_2223137136 -->
<g id="node2" class="node">
<title>f_2223137136</title>
<polygon fill="#1b9e77" stroke="black" points="793.5,-484 620.5,-484 620.5,-448 793.5,-448 793.5,-484"/>
<text text-anchor="middle" x="707" y="-462.3" font-family="Times,serif" font-size="14.00">fn_protocol_version12</text>
</g>
<!-- f_371079138&#45;&gt;f_2223137136 -->
<g id="edge1" class="edge">
<title>f_371079138&#45;&gt;f_2223137136</title>
<path fill="none" stroke="black" d="M917.41,-521.55C877.65,-511.24 825.03,-497.6 782.36,-486.54"/>
<polygon fill="black" stroke="black" points="783.14,-483.12 772.58,-484 781.38,-489.9 783.14,-483.12"/>
</g>
<!-- f_2776336236 -->
<g id="node3" class="node">
<title>f_2776336236</title>
<polygon fill="#1b9e77" stroke="black" points="904,-484 812,-484 812,-448 904,-448 904,-484"/>
<text text-anchor="middle" x="858" y="-462.3" font-family="Times,serif" font-size="14.00">fn_random</text>
</g>
<!-- f_371079138&#45;&gt;f_2776336236 -->
<g id="edge2" class="edge">
<title>f_371079138&#45;&gt;f_2776336236</title>
<path fill="none" stroke="black" d="M947.89,-519.88C932.33,-510.72 912.98,-499.34 896.22,-489.48"/>
<polygon fill="black" stroke="black" points="897.62,-486.24 887.22,-484.19 894.07,-492.28 897.62,-486.24"/>
</g>
<!-- f_3139773462 -->
<g id="node4" class="node">
<title>f_3139773462</title>
<polygon fill="#1b9e77" stroke="black" points="1032,-484 922,-484 922,-448 1032,-448 1032,-484"/>
<text text-anchor="middle" x="977" y="-462.3" font-family="Times,serif" font-size="14.00">fn_session_id</text>
</g>
<!-- f_371079138&#45;&gt;f_3139773462 -->
<g id="edge3" class="edge">
<title>f_371079138&#45;&gt;f_3139773462</title>
<path fill="none" stroke="black" d="M977,-519.7C977,-511.98 977,-502.71 977,-494.11"/>
<polygon fill="black" stroke="black" points="980.5,-494.1 977,-484.1 973.5,-494.1 980.5,-494.1"/>
</g>
<!-- f_4000095429 -->
<g id="node5" class="node">
<title>f_4000095429</title>
<polygon fill="#1b9e77" stroke="black" points="1200,-484 1050,-484 1050,-448 1200,-448 1200,-484"/>
<text text-anchor="middle" x="1125" y="-462.3" font-family="Times,serif" font-size="14.00">fn_cipher_suites12</text>
</g>
<!-- f_371079138&#45;&gt;f_4000095429 -->
<g id="edge4" class="edge">
<title>f_371079138&#45;&gt;f_4000095429</title>
<path fill="none" stroke="black" d="M1013.2,-519.88C1033.26,-510.39 1058.37,-498.51 1079.71,-488.42"/>
<polygon fill="black" stroke="black" points="1081.37,-491.51 1088.91,-484.07 1078.38,-485.18 1081.37,-491.51"/>
</g>
<!-- f_3791454469 -->
<g id="node6" class="node">
<title>f_3791454469</title>
<polygon fill="#1b9e77" stroke="black" points="1353.5,-484 1218.5,-484 1218.5,-448 1353.5,-448 1353.5,-484"/>
<text text-anchor="middle" x="1286" y="-462.3" font-family="Times,serif" font-size="14.00">fn_compressions</text>
</g>
<!-- f_371079138&#45;&gt;f_3791454469 -->
<g id="edge5" class="edge">
<title>f_371079138&#45;&gt;f_3791454469</title>
<path fill="none" stroke="black" d="M1036.58,-523.5C1085.43,-512.44 1154.95,-496.69 1208.19,-484.63"/>
<polygon fill="black" stroke="black" points="1209.29,-487.97 1218.27,-482.34 1207.75,-481.14 1209.29,-487.97"/>
</g>
<!-- f_3666206900 -->
<g id="node7" class="node">
<title>f_3666206900</title>
<polygon fill="#d95f02" stroke="black" points="1544.5,-484 1371.5,-484 1371.5,-448 1544.5,-448 1544.5,-484"/>
<text text-anchor="middle" x="1458" y="-462.3" font-family="Times,serif" font-size="14.00">fn_extensions_append</text>
</g>
<!-- f_371079138&#45;&gt;f_3666206900 -->
<g id="edge6" class="edge">
<title>f_371079138&#45;&gt;f_3666206900</title>
<path fill="none" stroke="black" d="M1036.62,-529.58C1110.48,-520.21 1240.4,-503.18 1361.14,-484.26"/>
<polygon fill="black" stroke="black" points="1361.97,-487.68 1371.3,-482.66 1360.88,-480.76 1361.97,-487.68"/>
</g>
<!-- f_3878548185 -->
<g id="node8" class="node">
<title>f_3878548185</title>
<polygon fill="#d95f02" stroke="black" points="1328.5,-412 1155.5,-412 1155.5,-376 1328.5,-376 1328.5,-412"/>
<text text-anchor="middle" x="1242" y="-390.3" font-family="Times,serif" font-size="14.00">fn_extensions_append</text>
</g>
<!-- f_3666206900&#45;&gt;f_3878548185 -->
<g id="edge7" class="edge">
<title>f_3666206900&#45;&gt;f_3878548185</title>
<path fill="none" stroke="black" d="M1405.44,-447.97C1374.99,-438.1 1336.49,-425.62 1304.5,-415.25"/>
<polygon fill="black" stroke="black" points="1305.39,-411.86 1294.8,-412.11 1303.23,-418.52 1305.39,-411.86"/>
</g>
<!-- f_2113894263 -->
<g id="node19" class="node">
<title>f_2113894263</title>
<polygon fill="#d95f02" stroke="black" points="1543.5,-412 1376.5,-412 1376.5,-376 1543.5,-376 1543.5,-412"/>
<text text-anchor="middle" x="1460" y="-390.3" font-family="Times,serif" font-size="14.00">fn_renegotiation_info</text>
</g>
<!-- f_3666206900&#45;&gt;f_2113894263 -->
<g id="edge18" class="edge">
<title>f_3666206900&#45;&gt;f_2113894263</title>
<path fill="none" stroke="black" d="M1458.49,-447.7C1458.71,-439.98 1458.98,-430.71 1459.23,-422.11"/>
<polygon fill="black" stroke="black" points="1462.72,-422.2 1459.51,-412.1 1455.73,-422 1462.72,-422.2"/>
</g>
<!-- f_4274004688 -->
<g id="node9" class="node">
<title>f_4274004688</title>
<polygon fill="#d95f02" stroke="black" points="1099.5,-340 926.5,-340 926.5,-304 1099.5,-304 1099.5,-340"/>
<text text-anchor="middle" x="1013" y="-318.3" font-family="Times,serif" font-size="14.00">fn_extensions_append</text>
</g>
<!-- f_3878548185&#45;&gt;f_4274004688 -->
<g id="edge8" class="edge">
<title>f_3878548185&#45;&gt;f_4274004688</title>
<path fill="none" stroke="black" d="M1186.27,-375.97C1153.86,-366.06 1112.82,-353.51 1078.82,-343.12"/>
<polygon fill="black" stroke="black" points="1079.56,-339.69 1068.98,-340.11 1077.52,-346.38 1079.56,-339.69"/>
</g>
<!-- f_1788030902 -->
<g id="node18" class="node">
<title>f_1788030902</title>
<polygon fill="#1b9e77" stroke="black" points="1366,-340 1118,-340 1118,-304 1366,-304 1366,-340"/>
<text text-anchor="middle" x="1242" y="-318.3" font-family="Times,serif" font-size="14.00">fn_signed_certificate_timestamp</text>
</g>
<!-- f_3878548185&#45;&gt;f_1788030902 -->
<g id="edge17" class="edge">
<title>f_3878548185&#45;&gt;f_1788030902</title>
<path fill="none" stroke="black" d="M1242,-375.7C1242,-367.98 1242,-358.71 1242,-350.11"/>
<polygon fill="black" stroke="black" points="1245.5,-350.1 1242,-340.1 1238.5,-350.1 1245.5,-350.1"/>
</g>
<!-- f_1868128528 -->
<g id="node10" class="node">
<title>f_1868128528</title>
<polygon fill="#d95f02" stroke="black" points="1074.5,-268 901.5,-268 901.5,-232 1074.5,-232 1074.5,-268"/>
<text text-anchor="middle" x="988" y="-246.3" font-family="Times,serif" font-size="14.00">fn_extensions_append</text>
</g>
<!-- f_4274004688&#45;&gt;f_1868128528 -->
<g id="edge9" class="edge">
<title>f_4274004688&#45;&gt;f_1868128528</title>
<path fill="none" stroke="black" d="M1006.82,-303.7C1004,-295.81 1000.61,-286.3 997.48,-277.55"/>
<polygon fill="black" stroke="black" points="1000.77,-276.34 994.11,-268.1 994.18,-278.7 1000.77,-276.34"/>
</g>
<!-- f_4240333517 -->
<g id="node17" class="node">
<title>f_4240333517</title>
<polygon fill="#1b9e77" stroke="black" points="1385.5,-268 1092.5,-268 1092.5,-232 1385.5,-232 1385.5,-268"/>
<text text-anchor="middle" x="1239" y="-246.3" font-family="Times,serif" font-size="14.00">fn_signature_algorithm_cert_extension</text>
</g>
<!-- f_4274004688&#45;&gt;f_4240333517 -->
<g id="edge16" class="edge">
<title>f_4274004688&#45;&gt;f_4240333517</title>
<path fill="none" stroke="black" d="M1068,-303.97C1099.99,-294.06 1140.48,-281.51 1174.04,-271.12"/>
<polygon fill="black" stroke="black" points="1175.24,-274.41 1183.76,-268.11 1173.17,-267.73 1175.24,-274.41"/>
</g>
<!-- f_2932593734 -->
<g id="node11" class="node">
<title>f_2932593734</title>
<polygon fill="#d95f02" stroke="black" points="1024.5,-196 851.5,-196 851.5,-160 1024.5,-160 1024.5,-196"/>
<text text-anchor="middle" x="938" y="-174.3" font-family="Times,serif" font-size="14.00">fn_extensions_append</text>
</g>
<!-- f_1868128528&#45;&gt;f_2932593734 -->
<g id="edge10" class="edge">
<title>f_1868128528&#45;&gt;f_2932593734</title>
<path fill="none" stroke="black" d="M975.64,-231.7C969.77,-223.47 962.63,-213.48 956.16,-204.42"/>
<polygon fill="black" stroke="black" points="958.88,-202.21 950.22,-196.1 953.18,-206.28 958.88,-202.21"/>
</g>
<!-- f_1951555308 -->
<g id="node16" class="node">
<title>f_1951555308</title>
<polygon fill="#1b9e77" stroke="black" points="1201.5,-196 1042.5,-196 1042.5,-160 1201.5,-160 1201.5,-196"/>
<text text-anchor="middle" x="1122" y="-174.3" font-family="Times,serif" font-size="14.00">fn_ec_point_formats</text>
</g>
<!-- f_1868128528&#45;&gt;f_1951555308 -->
<g id="edge15" class="edge">
<title>f_1868128528&#45;&gt;f_1951555308</title>
<path fill="none" stroke="black" d="M1020.78,-231.88C1038.63,-222.55 1060.9,-210.92 1080,-200.94"/>
<polygon fill="black" stroke="black" points="1081.85,-203.92 1089.09,-196.19 1078.61,-197.72 1081.85,-203.92"/>
</g>
<!-- f_4130933470 -->
<g id="node12" class="node">
<title>f_4130933470</title>
<polygon fill="#d95f02" stroke="black" points="924.5,-124 751.5,-124 751.5,-88 924.5,-88 924.5,-124"/>
<text text-anchor="middle" x="838" y="-102.3" font-family="Times,serif" font-size="14.00">fn_extensions_append</text>
</g>
<!-- f_2932593734&#45;&gt;f_4130933470 -->
<g id="edge11" class="edge">
<title>f_2932593734&#45;&gt;f_4130933470</title>
<path fill="none" stroke="black" d="M913.54,-159.88C900.7,-150.89 884.8,-139.76 870.91,-130.03"/>
<polygon fill="black" stroke="black" points="872.76,-127.06 862.56,-124.19 868.74,-132.79 872.76,-127.06"/>
</g>
<!-- f_757060872 -->
<g id="node15" class="node">
<title>f_757060872</title>
<polygon fill="#1b9e77" stroke="black" points="1201,-124 943,-124 943,-88 1201,-88 1201,-124"/>
<text text-anchor="middle" x="1072" y="-102.3" font-family="Times,serif" font-size="14.00">fn_signature_algorithm_extension</text>
</g>
<!-- f_2932593734&#45;&gt;f_757060872 -->
<g id="edge14" class="edge">
<title>f_2932593734&#45;&gt;f_757060872</title>
<path fill="none" stroke="black" d="M970.78,-159.88C988.63,-150.55 1010.9,-138.92 1030,-128.94"/>
<polygon fill="black" stroke="black" points="1031.85,-131.92 1039.09,-124.19 1028.61,-125.72 1031.85,-131.92"/>
</g>
<!-- f_1437797857 -->
<g id="node13" class="node">
<title>f_1437797857</title>
<polygon fill="#1b9e77" stroke="black" points="797,-52 647,-52 647,-16 797,-16 797,-52"/>
<text text-anchor="middle" x="722" y="-30.3" font-family="Times,serif" font-size="14.00">fn_extensions_new</text>
</g>
<!-- f_4130933470&#45;&gt;f_1437797857 -->
<g id="edge12" class="edge">
<title>f_4130933470&#45;&gt;f_1437797857</title>
<path fill="none" stroke="black" d="M809.62,-87.88C794.46,-78.72 775.59,-67.34 759.26,-57.48"/>
<polygon fill="black" stroke="black" points="760.86,-54.36 750.49,-52.19 757.24,-60.35 760.86,-54.36"/>
</g>
<!-- f_3927217951 -->
<g id="node14" class="node">
<title>f_3927217951</title>
<polygon fill="#1b9e77" stroke="black" points="1093,-52 815,-52 815,-16 1093,-16 1093,-52"/>
<text text-anchor="middle" x="954" y="-30.3" font-family="Times,serif" font-size="14.00">fn_x25519_support_group_extension</text>
</g>
<!-- f_4130933470&#45;&gt;f_3927217951 -->
<g id="edge13" class="edge">
<title>f_4130933470&#45;&gt;f_3927217951</title>
<path fill="none" stroke="black" d="M866.38,-87.88C881.54,-78.72 900.41,-67.34 916.74,-57.48"/>
<polygon fill="black" stroke="black" points="918.76,-60.35 925.51,-52.19 915.14,-54.36 918.76,-60.35"/>
</g>
<!-- f_3535368580 -->
<g id="node20" class="node">
<title>f_3535368580</title>
<polygon fill="#1b9e77" stroke="black" points="1543.5,-340 1384.5,-340 1384.5,-304 1543.5,-304 1543.5,-340"/>
<text text-anchor="middle" x="1464" y="-318.3" font-family="Times,serif" font-size="14.00">fn_empty_bytes_vec</text>
</g>
<!-- f_2113894263&#45;&gt;f_3535368580 -->
<g id="edge19" class="edge">
<title>f_2113894263&#45;&gt;f_3535368580</title>
<path fill="none" stroke="black" d="M1460.99,-375.7C1461.43,-367.98 1461.96,-358.71 1462.45,-350.11"/>
<polygon fill="black" stroke="black" points="1465.95,-350.29 1463.02,-340.1 1458.96,-349.89 1465.95,-350.29"/>
</g>
<g id="node21" class="node">
<title></title>
<ellipse fill="none" stroke="transparent" cx="971" cy="-1192" rx="27" ry="18"/>
</g>
<!-- f_2683478430 -->
<g id="node22" class="node">
<title>f_2683478430</title>
<polygon fill="#d95f02" stroke="black" points="804.5,-919 621.5,-919 621.5,-883 804.5,-883 804.5,-919"/>
<text text-anchor="middle" x="713" y="-897.3" font-family="Times,serif" font-size="14.00">fn_client_key_exchange</text>
</g>
<!-- f_2604878183 -->
<g id="node23" class="node">
<title>f_2604878183</title>
<polygon fill="#d95f02" stroke="black" points="784.5,-847 641.5,-847 641.5,-811 784.5,-811 784.5,-847"/>
<text text-anchor="middle" x="713" y="-825.3" font-family="Times,serif" font-size="14.00">fn_new_pubkey12</text>
</g>
<!-- f_2683478430&#45;&gt;f_2604878183 -->
<g id="edge20" class="edge">
<title>f_2683478430&#45;&gt;f_2604878183</title>
<path fill="none" stroke="black" d="M713,-882.7C713,-874.98 713,-865.71 713,-857.11"/>
<polygon fill="black" stroke="black" points="716.5,-857.1 713,-847.1 709.5,-857.1 716.5,-857.1"/>
</g>
<!-- f_3269002913 -->
<g id="node24" class="node">
<title>f_3269002913</title>
<polygon fill="#d95f02" stroke="black" points="808,-775 620,-775 620,-739 808,-739 808,-775"/>
<text text-anchor="middle" x="714" y="-753.3" font-family="Times,serif" font-size="14.00">fn_decode_ecdh_params</text>
</g>
<!-- f_2604878183&#45;&gt;f_3269002913 -->
<g id="edge21" class="edge">
<title>f_2604878183&#45;&gt;f_3269002913</title>
<path fill="none" stroke="black" d="M713.25,-810.7C713.36,-802.98 713.49,-793.71 713.61,-785.11"/>
<polygon fill="black" stroke="black" points="717.11,-785.15 713.76,-775.1 710.11,-785.05 717.11,-785.15"/>
</g>
<!-- v_2952013681 -->
<g id="node25" class="node">
<title>v_2952013681</title>
<ellipse fill="#1b9e77" stroke="black" cx="714" cy="-685" rx="78.79" ry="18"/>
<text text-anchor="middle" x="714" y="-681.3" font-family="Times,serif" font-size="14.00">(0,2)/Vec&lt;u8&gt;</text>
</g>
<!-- f_3269002913&#45;&gt;v_2952013681 -->
<g id="edge22" class="edge">
<title>f_3269002913&#45;&gt;v_2952013681</title>
<path fill="none" stroke="black" d="M714,-738.7C714,-730.98 714,-721.71 714,-713.11"/>
<polygon fill="black" stroke="black" points="717.5,-713.1 714,-703.1 710.5,-713.1 717.5,-713.1"/>
</g>
<!-- f_576018153 -->
<g id="node26" class="node">
<title>f_576018153</title>
<polygon fill="#1b9e77" stroke="black" points="1411.5,-1210 1214.5,-1210 1214.5,-1174 1411.5,-1174 1411.5,-1210"/>
<text text-anchor="middle" x="1313" y="-1188.3" font-family="Times,serif" font-size="14.00">fn_change_cipher_spec12</text>
</g>
<!-- f_962212182 -->
<g id="node27" class="node">
<title>f_962212182</title>
<polygon fill="#d95f02" stroke="black" points="368,-1210 258,-1210 258,-1174 368,-1174 368,-1210"/>
<text text-anchor="middle" x="313" y="-1188.3" font-family="Times,serif" font-size="14.00">fn_encrypt12</text>
</g>
<!-- f_2246020665 -->
<g id="node28" class="node">
<title>f_2246020665</title>
<polygon fill="#d95f02" stroke="black" points="129.5,-1138 16.5,-1138 16.5,-1102 129.5,-1102 129.5,-1138"/>
<text text-anchor="middle" x="73" y="-1116.3" font-family="Times,serif" font-size="14.00">fn_finished12</text>
</g>
<!-- f_962212182&#45;&gt;f_2246020665 -->
<g id="edge23" class="edge">
<title>f_962212182&#45;&gt;f_2246020665</title>
<path fill="none" stroke="black" d="M257.94,-1174.94C222.75,-1164.68 176.9,-1151.3 139.65,-1140.44"/>
<polygon fill="black" stroke="black" points="140.47,-1137.03 129.89,-1137.59 138.51,-1143.75 140.47,-1137.03"/>
</g>
<!-- v_2641194395 -->
<g id="node44" class="node">
<title>v_2641194395</title>
<ellipse fill="#1b9e77" stroke="black" cx="221" cy="-1120" rx="73.39" ry="18"/>
<text text-anchor="middle" x="221" y="-1116.3" font-family="Times,serif" font-size="14.00">(0,0)/Random</text>
</g>
<!-- f_962212182&#45;&gt;v_2641194395 -->
<g id="edge41" class="edge">
<title>f_962212182&#45;&gt;v_2641194395</title>
<path fill="none" stroke="black" d="M290.26,-1173.7C278.3,-1164.6 263.49,-1153.33 250.64,-1143.55"/>
<polygon fill="black" stroke="black" points="252.61,-1140.65 242.53,-1137.38 248.37,-1146.22 252.61,-1140.65"/>
</g>
<!-- f_1247890827 -->
<g id="node45" class="node">
<title>f_1247890827</title>
<polygon fill="#d95f02" stroke="black" points="500,-1138 312,-1138 312,-1102 500,-1102 500,-1138"/>
<text text-anchor="middle" x="406" y="-1116.3" font-family="Times,serif" font-size="14.00">fn_decode_ecdh_params</text>
</g>
<!-- f_962212182&#45;&gt;f_1247890827 -->
<g id="edge42" class="edge">
<title>f_962212182&#45;&gt;f_1247890827</title>
<path fill="none" stroke="black" d="M335.99,-1173.7C347.81,-1164.8 362.39,-1153.82 375.18,-1144.2"/>
<polygon fill="black" stroke="black" points="377.39,-1146.91 383.28,-1138.1 373.18,-1141.32 377.39,-1146.91"/>
</g>
<!-- f_3207913454 -->
<g id="node47" class="node">
<title>f_3207913454</title>
<polygon fill="#1b9e77" stroke="black" points="596,-1138 518,-1138 518,-1102 596,-1102 596,-1138"/>
<text text-anchor="middle" x="557" y="-1116.3" font-family="Times,serif" font-size="14.00">fn_seq_0</text>
</g>
<!-- f_962212182&#45;&gt;f_3207913454 -->
<g id="edge44" class="edge">
<title>f_962212182&#45;&gt;f_3207913454</title>
<path fill="none" stroke="black" d="M368.24,-1177.26C405.37,-1167.75 455.59,-1154.37 507.98,-1138.21"/>
<polygon fill="black" stroke="black" points="509.28,-1141.47 517.79,-1135.16 507.2,-1134.79 509.28,-1141.47"/>
</g>
<!-- f_585185835 -->
<g id="node29" class="node">
<title>f_585185835</title>
<polygon fill="#d95f02" stroke="black" points="241,-1066 95,-1066 95,-1030 241,-1030 241,-1066"/>
<text text-anchor="middle" x="168" y="-1044.3" font-family="Times,serif" font-size="14.00">fn_sign_transcript</text>
</g>
<!-- f_2246020665&#45;&gt;f_585185835 -->
<g id="edge24" class="edge">
<title>f_2246020665&#45;&gt;f_585185835</title>
<path fill="none" stroke="black" d="M96.48,-1101.7C108.56,-1092.8 123.45,-1081.82 136.52,-1072.2"/>
<polygon fill="black" stroke="black" points="138.81,-1074.85 144.79,-1066.1 134.66,-1069.22 138.81,-1074.85"/>
</g>
<!-- v_3936339806 -->
<g id="node30" class="node">
<title>v_3936339806</title>
<ellipse fill="#1b9e77" stroke="black" cx="100" cy="-976" rx="73.39" ry="18"/>
<text text-anchor="middle" x="100" y="-972.3" font-family="Times,serif" font-size="14.00">(0,0)/Random</text>
</g>
<!-- f_585185835&#45;&gt;v_3936339806 -->
<g id="edge25" class="edge">
<title>f_585185835&#45;&gt;v_3936339806</title>
<path fill="none" stroke="black" d="M151.19,-1029.7C142.75,-1021.01 132.39,-1010.34 123.2,-1000.89"/>
<polygon fill="black" stroke="black" points="125.63,-998.36 116.15,-993.62 120.6,-1003.23 125.63,-998.36"/>
</g>
<!-- f_1970612898 -->
<g id="node31" class="node">
<title>f_1970612898</title>
<polygon fill="#d95f02" stroke="black" points="379,-994 191,-994 191,-958 379,-958 379,-994"/>
<text text-anchor="middle" x="285" y="-972.3" font-family="Times,serif" font-size="14.00">fn_decode_ecdh_params</text>
</g>
<!-- f_585185835&#45;&gt;f_1970612898 -->
<g id="edge26" class="edge">
<title>f_585185835&#45;&gt;f_1970612898</title>
<path fill="none" stroke="black" d="M196.62,-1029.88C211.92,-1020.72 230.94,-1009.34 247.42,-999.48"/>
<polygon fill="black" stroke="black" points="249.48,-1002.33 256.27,-994.19 245.89,-996.32 249.48,-1002.33"/>
</g>
<!-- f_2358594103 -->
<g id="node33" class="node">
<title>f_2358594103</title>
<polygon fill="#d95f02" stroke="black" points="575,-994 407,-994 407,-958 575,-958 575,-994"/>
<text text-anchor="middle" x="491" y="-972.3" font-family="Times,serif" font-size="14.00">fn_append_transcript</text>
</g>
<!-- f_585185835&#45;&gt;f_2358594103 -->
<g id="edge28" class="edge">
<title>f_585185835&#45;&gt;f_2358594103</title>
<path fill="none" stroke="black" d="M241.29,-1031.12C289.11,-1020.75 351.8,-1007.17 402.4,-996.2"/>
<polygon fill="black" stroke="black" points="403.32,-999.58 412.35,-994.04 401.84,-992.74 403.32,-999.58"/>
</g>
<!-- v_3048893281 -->
<g id="node32" class="node">
<title>v_3048893281</title>
<ellipse fill="#1b9e77" stroke="black" cx="285" cy="-901" rx="78.79" ry="18"/>
<text text-anchor="middle" x="285" y="-897.3" font-family="Times,serif" font-size="14.00">(0,2)/Vec&lt;u8&gt;</text>
</g>
<!-- f_1970612898&#45;&gt;v_3048893281 -->
<g id="edge27" class="edge">
<title>f_1970612898&#45;&gt;v_3048893281</title>
<path fill="none" stroke="black" d="M285,-957.7C285,-949.25 285,-938.87 285,-929.37"/>
<polygon fill="black" stroke="black" points="288.5,-929.18 285,-919.18 281.5,-929.18 288.5,-929.18"/>
</g>
<!-- f_2358594103&#45;&gt;f_2683478430 -->
<g id="edge40" class="edge">
<title>f_2358594103&#45;&gt;f_2683478430</title>
<path fill="none" stroke="black" d="M575,-959.37C586.2,-956.62 597.45,-953.49 608,-950 629.59,-942.86 652.66,-932.62 671.66,-923.43"/>
<polygon fill="black" stroke="black" points="673.2,-926.57 680.64,-919.02 670.12,-920.29 673.2,-926.57"/>
</g>
<!-- f_2674353088 -->
<g id="node34" class="node">
<title>f_2674353088</title>
<polygon fill="#d95f02" stroke="black" points="575,-919 407,-919 407,-883 575,-883 575,-919"/>
<text text-anchor="middle" x="491" y="-897.3" font-family="Times,serif" font-size="14.00">fn_append_transcript</text>
</g>
<!-- f_2358594103&#45;&gt;f_2674353088 -->
<g id="edge29" class="edge">
<title>f_2358594103&#45;&gt;f_2674353088</title>
<path fill="none" stroke="black" d="M491,-957.7C491,-949.25 491,-938.87 491,-929.37"/>
<polygon fill="black" stroke="black" points="494.5,-929.18 491,-919.18 487.5,-929.18 494.5,-929.18"/>
</g>
<!-- f_4274457567 -->
<g id="node35" class="node">
<title>f_4274457567</title>
<polygon fill="#d95f02" stroke="black" points="426,-847 258,-847 258,-811 426,-811 426,-847"/>
<text text-anchor="middle" x="342" y="-825.3" font-family="Times,serif" font-size="14.00">fn_append_transcript</text>
</g>
<!-- f_2674353088&#45;&gt;f_4274457567 -->
<g id="edge30" class="edge">
<title>f_2674353088&#45;&gt;f_4274457567</title>
<path fill="none" stroke="black" d="M454.55,-882.88C434.36,-873.39 409.08,-861.51 387.59,-851.42"/>
<polygon fill="black" stroke="black" points="388.87,-848.15 378.33,-847.07 385.89,-854.49 388.87,-848.15"/>
</g>
<!-- v_4028793443 -->
<g id="node43" class="node">
<title>v_4028793443</title>
<ellipse fill="#1b9e77" stroke="black" cx="520" cy="-829" rx="76.09" ry="18"/>
<text text-anchor="middle" x="520" y="-825.3" font-family="Times,serif" font-size="14.00">(0,3)/Message</text>
</g>
<!-- f_2674353088&#45;&gt;v_4028793443 -->
<g id="edge39" class="edge">
<title>f_2674353088&#45;&gt;v_4028793443</title>
<path fill="none" stroke="black" d="M498.17,-882.7C501.43,-874.81 505.37,-865.3 509,-856.55"/>
<polygon fill="black" stroke="black" points="512.32,-857.68 512.91,-847.1 505.85,-855 512.32,-857.68"/>
</g>
<!-- f_423581753 -->
<g id="node36" class="node">
<title>f_423581753</title>
<polygon fill="#d95f02" stroke="black" points="426,-775 258,-775 258,-739 426,-739 426,-775"/>
<text text-anchor="middle" x="342" y="-753.3" font-family="Times,serif" font-size="14.00">fn_append_transcript</text>
</g>
<!-- f_4274457567&#45;&gt;f_423581753 -->
<g id="edge31" class="edge">
<title>f_4274457567&#45;&gt;f_423581753</title>
<path fill="none" stroke="black" d="M342,-810.7C342,-802.98 342,-793.71 342,-785.11"/>
<polygon fill="black" stroke="black" points="345.5,-785.1 342,-775.1 338.5,-785.1 345.5,-785.1"/>
</g>
<!-- v_2032766916 -->
<g id="node42" class="node">
<title>v_2032766916</title>
<ellipse fill="#1b9e77" stroke="black" cx="520" cy="-757" rx="76.09" ry="18"/>
<text text-anchor="middle" x="520" y="-753.3" font-family="Times,serif" font-size="14.00">(0,2)/Message</text>
</g>
<!-- f_4274457567&#45;&gt;v_2032766916 -->
<g id="edge38" class="edge">
<title>f_4274457567&#45;&gt;v_2032766916</title>
<path fill="none" stroke="black" d="M385.54,-810.88C412.04,-800.46 445.87,-787.15 472.97,-776.49"/>
<polygon fill="black" stroke="black" points="474.6,-779.61 482.63,-772.7 472.04,-773.1 474.6,-779.61"/>
</g>
<!-- f_4188432603 -->
<g id="node37" class="node">
<title>f_4188432603</title>
<polygon fill="#d95f02" stroke="black" points="426,-703 258,-703 258,-667 426,-667 426,-703"/>
<text text-anchor="middle" x="342" y="-681.3" font-family="Times,serif" font-size="14.00">fn_append_transcript</text>
</g>
<!-- f_423581753&#45;&gt;f_4188432603 -->
<g id="edge32" class="edge">
<title>f_423581753&#45;&gt;f_4188432603</title>
<path fill="none" stroke="black" d="M342,-738.7C342,-730.98 342,-721.71 342,-713.11"/>
<polygon fill="black" stroke="black" points="345.5,-713.1 342,-703.1 338.5,-713.1 345.5,-713.1"/>
</g>
<!-- v_1648720681 -->
<g id="node41" class="node">
<title>v_1648720681</title>
<ellipse fill="#1b9e77" stroke="black" cx="520" cy="-685" rx="76.09" ry="18"/>
<text text-anchor="middle" x="520" y="-681.3" font-family="Times,serif" font-size="14.00">(0,1)/Message</text>
</g>
<!-- f_423581753&#45;&gt;v_1648720681 -->
<g id="edge37" class="edge">
<title>f_423581753&#45;&gt;v_1648720681</title>
<path fill="none" stroke="black" d="M385.54,-738.88C412.04,-728.46 445.87,-715.15 472.97,-704.49"/>
<polygon fill="black" stroke="black" points="474.6,-707.61 482.63,-700.7 472.04,-701.1 474.6,-707.61"/>
</g>
<!-- f_2356586679 -->
<g id="node38" class="node">
<title>f_2356586679</title>
<polygon fill="#d95f02" stroke="black" points="426,-631 258,-631 258,-595 426,-595 426,-631"/>
<text text-anchor="middle" x="342" y="-609.3" font-family="Times,serif" font-size="14.00">fn_append_transcript</text>
</g>
<!-- f_4188432603&#45;&gt;f_2356586679 -->
<g id="edge33" class="edge">
<title>f_4188432603&#45;&gt;f_2356586679</title>
<path fill="none" stroke="black" d="M342,-666.7C342,-658.98 342,-649.71 342,-641.11"/>
<polygon fill="black" stroke="black" points="345.5,-641.1 342,-631.1 338.5,-641.1 345.5,-641.1"/>
</g>
<!-- v_1596137445 -->
<g id="node40" class="node">
<title>v_1596137445</title>
<ellipse fill="#1b9e77" stroke="black" cx="520" cy="-613" rx="76.09" ry="18"/>
<text text-anchor="middle" x="520" y="-609.3" font-family="Times,serif" font-size="14.00">(0,0)/Message</text>
</g>
<!-- f_4188432603&#45;&gt;v_1596137445 -->
<g id="edge36" class="edge">
<title>f_4188432603&#45;&gt;v_1596137445</title>
<path fill="none" stroke="black" d="M385.54,-666.88C412.04,-656.46 445.87,-643.15 472.97,-632.49"/>
<polygon fill="black" stroke="black" points="474.6,-635.61 482.63,-628.7 472.04,-629.1 474.6,-635.61"/>
</g>
<!-- f_2356586679&#45;&gt;f_371079138 -->
<g id="edge35" class="edge">
<title>f_2356586679&#45;&gt;f_371079138</title>
<path fill="none" stroke="black" d="M426.07,-596.11C429.08,-595.71 432.06,-595.33 435,-595 511.48,-586.28 531.33,-593.75 608,-587 712.64,-577.79 833.22,-560.92 907.28,-549.83"/>
<polygon fill="black" stroke="black" points="908.04,-553.25 917.41,-548.3 907,-546.33 908.04,-553.25"/>
</g>
<!-- f_3341123374 -->
<g id="node39" class="node">
<title>f_3341123374</title>
<polygon fill="#1b9e77" stroke="black" points="423.5,-556 260.5,-556 260.5,-520 423.5,-520 423.5,-556"/>
<text text-anchor="middle" x="342" y="-534.3" font-family="Times,serif" font-size="14.00">fn_new_transcript12</text>
</g>
<!-- f_2356586679&#45;&gt;f_3341123374 -->
<g id="edge34" class="edge">
<title>f_2356586679&#45;&gt;f_3341123374</title>
<path fill="none" stroke="black" d="M342,-594.7C342,-586.25 342,-575.87 342,-566.37"/>
<polygon fill="black" stroke="black" points="345.5,-566.18 342,-556.18 338.5,-566.18 345.5,-566.18"/>
</g>
<!-- v_2955986107 -->
<g id="node46" class="node">
<title>v_2955986107</title>
<ellipse fill="#1b9e77" stroke="black" cx="406" cy="-1048" rx="78.79" ry="18"/>
<text text-anchor="middle" x="406" y="-1044.3" font-family="Times,serif" font-size="14.00">(0,2)/Vec&lt;u8&gt;</text>
</g>
<!-- f_1247890827&#45;&gt;v_2955986107 -->
<g id="edge43" class="edge">
<title>f_1247890827&#45;&gt;v_2955986107</title>
<path fill="none" stroke="black" d="M406,-1101.7C406,-1093.98 406,-1084.71 406,-1076.11"/>
<polygon fill="black" stroke="black" points="409.5,-1076.1 406,-1066.1 402.5,-1076.1 409.5,-1076.1"/>
</g>
</g>
</svg>
