<?xml version="1.0" encoding="UTF-8" standalone="no"?>
<!DOCTYPE svg PUBLIC "-//W3C//DTD SVG 1.1//EN"
 "http://www.w3.org/Graphics/SVG/1.1/DTD/svg11.dtd">
<!-- Generated by graphviz version 2.47.2 (0)
 -->
<!-- Title: Trace Pages: 1 -->
<svg width="1569pt" height="1257pt"
 viewBox="0.00 0.00 1569.00 1257.00" xmlns="http://www.w3.org/2000/svg" xmlns:xlink="http://www.w3.org/1999/xlink">
<g id="graph0" class="graph" transform="scale(1 1) rotate(0) translate(4 1253)">
<title>Trace</title>
<polygon fill="white" stroke="transparent" points="-4,4 -4,-1253 1565,-1253 1565,4 -4,4"/>
<g id="clust1" class="cluster">
<title>cluster0</title>
<polygon fill="none" stroke="black" points="612,-8 612,-587 1553,-587 1553,-8 612,-8"/>
<text text-anchor="middle" x="1082.5" y="-571.8" font-family="Times,serif" font-size="14.00">Step #0 (Agent &#160;1)</text>
</g>
<g id="clust2" class="cluster">
<title>cluster1</title>
<polygon fill="none" stroke="black" points="877,-1166 877,-1241 1065,-1241 1065,-1166 877,-1166"/>
<text text-anchor="middle" x="971" y="-1225.8" font-family="Times,serif" font-size="14.00">Step #1 (Agent &#160;1) &#45; (0,)</text>
</g>
<g id="clust3" class="cluster">
<title>cluster2</title>
<polygon fill="none" stroke="black" points="612,-659 612,-950 816,-950 816,-659 612,-659"/>
<text text-anchor="middle" x="714" y="-934.8" font-family="Times,serif" font-size="14.00">Step #2 (Agent &#160;1)</text>
</g>
<g id="clust4" class="cluster">
<title>cluster3</title>
<polygon fill="none" stroke="black" points="1206,-1166 1206,-1241 1420,-1241 1420,-1166 1206,-1166"/>
<text text-anchor="middle" x="1313" y="-1225.8" font-family="Times,serif" font-size="14.00">Step #3 (Agent &#160;1)</text>
</g>
<g id="clust5" class="cluster">
<title>cluster4</title>
<polygon fill="none" stroke="black" points="8,-512 8,-1241 604,-1241 604,-512 8,-512"/>
<text text-anchor="middle" x="306" y="-1225.8" font-family="Times,serif" font-size="14.00">Step #4 (Agent &#160;1)</text>
</g>
<!-- f_3318105472 -->
<g id="node1" class="node">
<title>f_3318105472</title>
<polygon fill="#d95f02" stroke="black" points="1036.5,-556 917.5,-556 917.5,-520 1036.5,-520 1036.5,-556"/>
<text text-anchor="middle" x="977" y="-534.3" font-family="Times,serif" font-size="14.00">fn_client_hello</text>
</g>
<!-- f_2113446198 -->
<g id="node2" class="node">
<title>f_2113446198</title>
<polygon fill="#1b9e77" stroke="black" points="793.5,-484 620.5,-484 620.5,-448 793.5,-448 793.5,-484"/>
<text text-anchor="middle" x="707" y="-462.3" font-family="Times,serif" font-size="14.00">fn_protocol_version12</text>
</g>
<!-- f_3318105472&#45;&#45;f_2113446198 -->
<g id="edge1" class="edge">
<title>f_3318105472&#45;&#45;f_2113446198</title>
<path fill="none" stroke="black" d="M917.41,-521.55C874.55,-510.44 816.76,-495.46 772.58,-484"/>
</g>
<!-- f_2586114660 -->
<g id="node3" class="node">
<title>f_2586114660</title>
<polygon fill="#1b9e77" stroke="black" points="904,-484 812,-484 812,-448 904,-448 904,-484"/>
<text text-anchor="middle" x="858" y="-462.3" font-family="Times,serif" font-size="14.00">fn_random</text>
</g>
<!-- f_3318105472&#45;&#45;f_2586114660 -->
<g id="edge2" class="edge">
<title>f_3318105472&#45;&#45;f_2586114660</title>
<path fill="none" stroke="black" d="M947.89,-519.88C929.45,-509.03 905.68,-495.05 887.22,-484.19"/>
</g>
<!-- f_171421278 -->
<g id="node4" class="node">
<title>f_171421278</title>
<polygon fill="#1b9e77" stroke="black" points="1032,-484 922,-484 922,-448 1032,-448 1032,-484"/>
<text text-anchor="middle" x="977" y="-462.3" font-family="Times,serif" font-size="14.00">fn_session_id</text>
</g>
<!-- f_3318105472&#45;&#45;f_171421278 -->
<g id="edge3" class="edge">
<title>f_3318105472&#45;&#45;f_171421278</title>
<path fill="none" stroke="black" d="M977,-519.7C977,-508.85 977,-494.92 977,-484.1"/>
</g>
<!-- f_453100066 -->
<g id="node5" class="node">
<title>f_453100066</title>
<polygon fill="#1b9e77" stroke="black" points="1200,-484 1050,-484 1050,-448 1200,-448 1200,-484"/>
<text text-anchor="middle" x="1125" y="-462.3" font-family="Times,serif" font-size="14.00">fn_cipher_suites12</text>
</g>
<!-- f_3318105472&#45;&#45;f_453100066 -->
<g id="edge4" class="edge">
<title>f_3318105472&#45;&#45;f_453100066</title>
<path fill="none" stroke="black" d="M1013.2,-519.88C1036.22,-508.99 1065.92,-494.95 1088.91,-484.07"/>
</g>
<!-- f_934200414 -->
<g id="node6" class="node">
<title>f_934200414</title>
<polygon fill="#1b9e77" stroke="black" points="1353.5,-484 1218.5,-484 1218.5,-448 1353.5,-448 1353.5,-484"/>
<text text-anchor="middle" x="1286" y="-462.3" font-family="Times,serif" font-size="14.00">fn_compressions</text>
</g>
<!-- f_3318105472&#45;&#45;f_934200414 -->
<g id="edge5" class="edge">
<title>f_3318105472&#45;&#45;f_934200414</title>
<path fill="none" stroke="black" d="M1036.58,-523.5C1088.58,-511.72 1164,-494.64 1218.27,-482.34"/>
</g>
<!-- f_4287492189 -->
<g id="node7" class="node">
<title>f_4287492189</title>
<polygon fill="#d95f02" stroke="black" points="1544.5,-484 1371.5,-484 1371.5,-448 1544.5,-448 1544.5,-484"/>
<text text-anchor="middle" x="1458" y="-462.3" font-family="Times,serif" font-size="14.00">fn_extensions_append</text>
</g>
<!-- f_3318105472&#45;&#45;f_4287492189 -->
<g id="edge6" class="edge">
<title>f_3318105472&#45;&#45;f_4287492189</title>
<path fill="none" stroke="black" d="M1036.62,-529.58C1112.55,-519.95 1247.75,-502.22 1363,-484 1365.73,-483.57 1368.5,-483.12 1371.3,-482.66"/>
</g>
<!-- f_3245637221 -->
<g id="node8" class="node">
<title>f_3245637221</title>
<polygon fill="#d95f02" stroke="black" points="1328.5,-412 1155.5,-412 1155.5,-376 1328.5,-376 1328.5,-412"/>
<text text-anchor="middle" x="1242" y="-390.3" font-family="Times,serif" font-size="14.00">fn_extensions_append</text>
</g>
<!-- f_4287492189&#45;&#45;f_3245637221 -->
<g id="edge7" class="edge">
<title>f_4287492189&#45;&#45;f_3245637221</title>
<path fill="none" stroke="black" d="M1405.44,-447.97C1371.84,-437.08 1328.44,-423.01 1294.8,-412.11"/>
</g>
<!-- f_3336823843 -->
<g id="node19" class="node">
<title>f_3336823843</title>
<polygon fill="#d95f02" stroke="black" points="1543.5,-412 1376.5,-412 1376.5,-376 1543.5,-376 1543.5,-412"/>
<text text-anchor="middle" x="1460" y="-390.3" font-family="Times,serif" font-size="14.00">fn_renegotiation_info</text>
</g>
<!-- f_4287492189&#45;&#45;f_3336823843 -->
<g id="edge18" class="edge">
<title>f_4287492189&#45;&#45;f_3336823843</title>
<path fill="none" stroke="black" d="M1458.49,-447.7C1458.8,-436.85 1459.2,-422.92 1459.51,-412.1"/>
</g>
<!-- f_1050592479 -->
<g id="node9" class="node">
<title>f_1050592479</title>
<polygon fill="#d95f02" stroke="black" points="1099.5,-340 926.5,-340 926.5,-304 1099.5,-304 1099.5,-340"/>
<text text-anchor="middle" x="1013" y="-318.3" font-family="Times,serif" font-size="14.00">fn_extensions_append</text>
</g>
<!-- f_3245637221&#45;&#45;f_1050592479 -->
<g id="edge8" class="edge">
<title>f_3245637221&#45;&#45;f_1050592479</title>
<path fill="none" stroke="black" d="M1186.27,-375.97C1150.66,-365.08 1104.64,-351.01 1068.98,-340.11"/>
</g>
<!-- f_1823034457 -->
<g id="node18" class="node">
<title>f_1823034457</title>
<polygon fill="#1b9e77" stroke="black" points="1366,-340 1118,-340 1118,-304 1366,-304 1366,-340"/>
<text text-anchor="middle" x="1242" y="-318.3" font-family="Times,serif" font-size="14.00">fn_signed_certificate_timestamp</text>
</g>
<!-- f_3245637221&#45;&#45;f_1823034457 -->
<g id="edge17" class="edge">
<title>f_3245637221&#45;&#45;f_1823034457</title>
<path fill="none" stroke="black" d="M1242,-375.7C1242,-364.85 1242,-350.92 1242,-340.1"/>
</g>
<!-- f_2037554586 -->
<g id="node10" class="node">
<title>f_2037554586</title>
<polygon fill="#d95f02" stroke="black" points="1074.5,-268 901.5,-268 901.5,-232 1074.5,-232 1074.5,-268"/>
<text text-anchor="middle" x="988" y="-246.3" font-family="Times,serif" font-size="14.00">fn_extensions_append</text>
</g>
<!-- f_1050592479&#45;&#45;f_2037554586 -->
<g id="edge9" class="edge">
<title>f_1050592479&#45;&#45;f_2037554586</title>
<path fill="none" stroke="black" d="M1006.82,-303.7C1002.95,-292.85 997.97,-278.92 994.11,-268.1"/>
</g>
<!-- f_1891312776 -->
<g id="node17" class="node">
<title>f_1891312776</title>
<polygon fill="#1b9e77" stroke="black" points="1385.5,-268 1092.5,-268 1092.5,-232 1385.5,-232 1385.5,-268"/>
<text text-anchor="middle" x="1239" y="-246.3" font-family="Times,serif" font-size="14.00">fn_signature_algorithm_cert_extension</text>
</g>
<!-- f_1050592479&#45;&#45;f_1891312776 -->
<g id="edge16" class="edge">
<title>f_1050592479&#45;&#45;f_1891312776</title>
<path fill="none" stroke="black" d="M1068,-303.97C1103.14,-293.08 1148.56,-279.01 1183.76,-268.11"/>
</g>
<!-- f_634408162 -->
<g id="node11" class="node">
<title>f_634408162</title>
<polygon fill="#d95f02" stroke="black" points="1024.5,-196 851.5,-196 851.5,-160 1024.5,-160 1024.5,-196"/>
<text text-anchor="middle" x="938" y="-174.3" font-family="Times,serif" font-size="14.00">fn_extensions_append</text>
</g>
<!-- f_2037554586&#45;&#45;f_634408162 -->
<g id="edge10" class="edge">
<title>f_2037554586&#45;&#45;f_634408162</title>
<path fill="none" stroke="black" d="M975.64,-231.7C967.89,-220.85 957.94,-206.92 950.22,-196.1"/>
</g>
<!-- f_831617108 -->
<g id="node16" class="node">
<title>f_831617108</title>
<polygon fill="#1b9e77" stroke="black" points="1201.5,-196 1042.5,-196 1042.5,-160 1201.5,-160 1201.5,-196"/>
<text text-anchor="middle" x="1122" y="-174.3" font-family="Times,serif" font-size="14.00">fn_ec_point_formats</text>
</g>
<!-- f_2037554586&#45;&#45;f_831617108 -->
<g id="edge15" class="edge">
<title>f_2037554586&#45;&#45;f_831617108</title>
<path fill="none" stroke="black" d="M1020.78,-231.88C1041.55,-221.03 1068.3,-207.05 1089.09,-196.19"/>
</g>
<!-- f_1699584006 -->
<g id="node12" class="node">
<title>f_1699584006</title>
<polygon fill="#d95f02" stroke="black" points="924.5,-124 751.5,-124 751.5,-88 924.5,-88 924.5,-124"/>
<text text-anchor="middle" x="838" y="-102.3" font-family="Times,serif" font-size="14.00">fn_extensions_append</text>
</g>
<!-- f_634408162&#45;&#45;f_1699584006 -->
<g id="edge11" class="edge">
<title>f_634408162&#45;&#45;f_1699584006</title>
<path fill="none" stroke="black" d="M913.54,-159.88C898.04,-149.03 878.07,-135.05 862.56,-124.19"/>
</g>
<!-- f_3873922636 -->
<g id="node15" class="node">
<title>f_3873922636</title>
<polygon fill="#1b9e77" stroke="black" points="1201,-124 943,-124 943,-88 1201,-88 1201,-124"/>
<text text-anchor="middle" x="1072" y="-102.3" font-family="Times,serif" font-size="14.00">fn_signature_algorithm_extension</text>
</g>
<!-- f_634408162&#45;&#45;f_3873922636 -->
<g id="edge14" class="edge">
<title>f_634408162&#45;&#45;f_3873922636</title>
<path fill="none" stroke="black" d="M970.78,-159.88C991.55,-149.03 1018.3,-135.05 1039.09,-124.19"/>
</g>
<!-- f_1607888205 -->
<g id="node13" class="node">
<title>f_1607888205</title>
<polygon fill="#1b9e77" stroke="black" points="797,-52 647,-52 647,-16 797,-16 797,-52"/>
<text text-anchor="middle" x="722" y="-30.3" font-family="Times,serif" font-size="14.00">fn_extensions_new</text>
</g>
<!-- f_1699584006&#45;&#45;f_1607888205 -->
<g id="edge12" class="edge">
<title>f_1699584006&#45;&#45;f_1607888205</title>
<path fill="none" stroke="black" d="M809.62,-87.88C791.65,-77.03 768.48,-63.05 750.49,-52.19"/>
</g>
<!-- f_3449477773 -->
<g id="node14" class="node">
<title>f_3449477773</title>
<polygon fill="#1b9e77" stroke="black" points="1093,-52 815,-52 815,-16 1093,-16 1093,-52"/>
<text text-anchor="middle" x="954" y="-30.3" font-family="Times,serif" font-size="14.00">fn_x25519_support_group_extension</text>
</g>
<!-- f_1699584006&#45;&#45;f_3449477773 -->
<g id="edge13" class="edge">
<title>f_1699584006&#45;&#45;f_3449477773</title>
<path fill="none" stroke="black" d="M866.38,-87.88C884.35,-77.03 907.52,-63.05 925.51,-52.19"/>
</g>
<!-- f_3906763784 -->
<g id="node20" class="node">
<title>f_3906763784</title>
<polygon fill="#1b9e77" stroke="black" points="1543.5,-340 1384.5,-340 1384.5,-304 1543.5,-304 1543.5,-340"/>
<text text-anchor="middle" x="1464" y="-318.3" font-family="Times,serif" font-size="14.00">fn_empty_bytes_vec</text>
</g>
<!-- f_3336823843&#45;&#45;f_3906763784 -->
<g id="edge19" class="edge">
<title>f_3336823843&#45;&#45;f_3906763784</title>
<path fill="none" stroke="black" d="M1460.99,-375.7C1461.61,-364.85 1462.4,-350.92 1463.02,-340.1"/>
</g>
<g id="node21" class="node">
<title></title>
<ellipse fill="none" stroke="transparent" cx="971" cy="-1192" rx="27" ry="18"/>
</g>
<!-- f_2068557872 -->
<g id="node22" class="node">
<title>f_2068557872</title>
<polygon fill="#d95f02" stroke="black" points="804.5,-919 621.5,-919 621.5,-883 804.5,-883 804.5,-919"/>
<text text-anchor="middle" x="713" y="-897.3" font-family="Times,serif" font-size="14.00">fn_client_key_exchange</text>
</g>
<!-- f_779140501 -->
<g id="node23" class="node">
<title>f_779140501</title>
<polygon fill="#d95f02" stroke="black" points="784.5,-847 641.5,-847 641.5,-811 784.5,-811 784.5,-847"/>
<text text-anchor="middle" x="713" y="-825.3" font-family="Times,serif" font-size="14.00">fn_new_pubkey12</text>
</g>
<!-- f_2068557872&#45;&#45;f_779140501 -->
<g id="edge20" class="edge">
<title>f_2068557872&#45;&#45;f_779140501</title>
<path fill="none" stroke="black" d="M713,-882.7C713,-871.85 713,-857.92 713,-847.1"/>
</g>
<!-- f_2079199918 -->
<g id="node24" class="node">
<title>f_2079199918</title>
<polygon fill="#d95f02" stroke="black" points="808,-775 620,-775 620,-739 808,-739 808,-775"/>
<text text-anchor="middle" x="714" y="-753.3" font-family="Times,serif" font-size="14.00">fn_decode_ecdh_params</text>
</g>
<!-- f_779140501&#45;&#45;f_2079199918 -->
<g id="edge21" class="edge">
<title>f_779140501&#45;&#45;f_2079199918</title>
<path fill="none" stroke="black" d="M713.25,-810.7C713.4,-799.85 713.6,-785.92 713.76,-775.1"/>
</g>
<!-- v_5912648 -->
<g id="node25" class="node">
<title>v_5912648</title>
<ellipse fill="#1b9e77" stroke="black" cx="714" cy="-685" rx="78.79" ry="18"/>
<text text-anchor="middle" x="714" y="-681.3" font-family="Times,serif" font-size="14.00">(0,2)/Vec&lt;u8&gt;</text>
</g>
<!-- f_2079199918&#45;&#45;v_5912648 -->
<g id="edge22" class="edge">
<title>f_2079199918&#45;&#45;v_5912648</title>
<path fill="none" stroke="black" d="M714,-738.7C714,-727.85 714,-713.92 714,-703.1"/>
</g>
<!-- f_4100966217 -->
<g id="node26" class="node">
<title>f_4100966217</title>
<polygon fill="#1b9e77" stroke="black" points="1411.5,-1210 1214.5,-1210 1214.5,-1174 1411.5,-1174 1411.5,-1210"/>
<text text-anchor="middle" x="1313" y="-1188.3" font-family="Times,serif" font-size="14.00">fn_change_cipher_spec12</text>
</g>
<!-- f_2973164932 -->
<g id="node27" class="node">
<title>f_2973164932</title>
<polygon fill="#d95f02" stroke="black" points="368,-1210 258,-1210 258,-1174 368,-1174 368,-1210"/>
<text text-anchor="middle" x="313" y="-1188.3" font-family="Times,serif" font-size="14.00">fn_encrypt12</text>
</g>
<!-- f_3410920366 -->
<g id="node28" class="node">
<title>f_3410920366</title>
<polygon fill="#d95f02" stroke="black" points="129.5,-1138 16.5,-1138 16.5,-1102 129.5,-1102 129.5,-1138"/>
<text text-anchor="middle" x="73" y="-1116.3" font-family="Times,serif" font-size="14.00">fn_finished12</text>
</g>
<!-- f_2973164932&#45;&#45;f_3410920366 -->
<g id="edge23" class="edge">
<title>f_2973164932&#45;&#45;f_3410920366</title>
<path fill="none" stroke="black" d="M257.94,-1174.94C219.6,-1163.76 168.62,-1148.89 129.89,-1137.59"/>
</g>
<!-- v_1470708205 -->
<g id="node44" class="node">
<title>v_1470708205</title>
<ellipse fill="#1b9e77" stroke="black" cx="221" cy="-1120" rx="73.39" ry="18"/>
<text text-anchor="middle" x="221" y="-1116.3" font-family="Times,serif" font-size="14.00">(0,0)/Random</text>
</g>
<!-- f_2973164932&#45;&#45;v_1470708205 -->
<g id="edge41" class="edge">
<title>f_2973164932&#45;&#45;v_1470708205</title>
<path fill="none" stroke="black" d="M290.26,-1173.7C275.68,-1162.6 256.87,-1148.29 242.53,-1137.38"/>
</g>
<!-- f_528443068 -->
<g id="node45" class="node">
<title>f_528443068</title>
<polygon fill="#d95f02" stroke="black" points="500,-1138 312,-1138 312,-1102 500,-1102 500,-1138"/>
<text text-anchor="middle" x="406" y="-1116.3" font-family="Times,serif" font-size="14.00">fn_decode_ecdh_params</text>
</g>
<!-- f_2973164932&#45;&#45;f_528443068 -->
<g id="edge42" class="edge">
<title>f_2973164932&#45;&#45;f_528443068</title>
<path fill="none" stroke="black" d="M335.99,-1173.7C350.4,-1162.85 368.91,-1148.92 383.28,-1138.1"/>
</g>
<!-- f_1290607511 -->
<g id="node47" class="node">
<title>f_1290607511</title>
<polygon fill="#1b9e77" stroke="black" points="596,-1138 518,-1138 518,-1102 596,-1102 596,-1138"/>
<text text-anchor="middle" x="557" y="-1116.3" font-family="Times,serif" font-size="14.00">fn_seq_0</text>
</g>
<!-- f_2973164932&#45;&#45;f_1290607511 -->
<g id="edge44" class="edge">
<title>f_2973164932&#45;&#45;f_1290607511</title>
<path fill="none" stroke="black" d="M368.24,-1177.26C407.69,-1167.16 461.89,-1152.69 509,-1138 511.87,-1137.11 514.82,-1136.15 517.79,-1135.16"/>
</g>
<!-- f_1588566374 -->
<g id="node29" class="node">
<title>f_1588566374</title>
<polygon fill="#d95f02" stroke="black" points="241,-1066 95,-1066 95,-1030 241,-1030 241,-1066"/>
<text text-anchor="middle" x="168" y="-1044.3" font-family="Times,serif" font-size="14.00">fn_sign_transcript</text>
</g>
<!-- f_3410920366&#45;&#45;f_1588566374 -->
<g id="edge24" class="edge">
<title>f_3410920366&#45;&#45;f_1588566374</title>
<path fill="none" stroke="black" d="M96.48,-1101.7C111.21,-1090.85 130.11,-1076.92 144.79,-1066.1"/>
</g>
<!-- v_4285157635 -->
<g id="node30" class="node">
<title>v_4285157635</title>
<ellipse fill="#1b9e77" stroke="black" cx="100" cy="-976" rx="73.39" ry="18"/>
<text text-anchor="middle" x="100" y="-972.3" font-family="Times,serif" font-size="14.00">(0,0)/Random</text>
</g>
<!-- f_1588566374&#45;&#45;v_4285157635 -->
<g id="edge25" class="edge">
<title>f_1588566374&#45;&#45;v_4285157635</title>
<path fill="none" stroke="black" d="M151.19,-1029.7C140.49,-1018.68 126.71,-1004.5 116.15,-993.62"/>
</g>
<!-- f_1778594085 -->
<g id="node31" class="node">
<title>f_1778594085</title>
<polygon fill="#d95f02" stroke="black" points="379,-994 191,-994 191,-958 379,-958 379,-994"/>
<text text-anchor="middle" x="285" y="-972.3" font-family="Times,serif" font-size="14.00">fn_decode_ecdh_params</text>
</g>
<!-- f_1588566374&#45;&#45;f_1778594085 -->
<g id="edge26" class="edge">
<title>f_1588566374&#45;&#45;f_1778594085</title>
<path fill="none" stroke="black" d="M196.62,-1029.88C214.75,-1019.03 238.12,-1005.05 256.27,-994.19"/>
</g>
<!-- f_1981514167 -->
<g id="node33" class="node">
<title>f_1981514167</title>
<polygon fill="#d95f02" stroke="black" points="575,-994 407,-994 407,-958 575,-958 575,-994"/>
<text text-anchor="middle" x="491" y="-972.3" font-family="Times,serif" font-size="14.00">fn_append_transcript</text>
</g>
<!-- f_1588566374&#45;&#45;f_1981514167 -->
<g id="edge28" class="edge">
<title>f_1588566374&#45;&#45;f_1981514167</title>
<path fill="none" stroke="black" d="M241.29,-1031.12C292.29,-1020.06 360.22,-1005.34 412.35,-994.04"/>
</g>
<!-- v_129870302 -->
<g id="node32" class="node">
<title>v_129870302</title>
<ellipse fill="#1b9e77" stroke="black" cx="285" cy="-901" rx="78.79" ry="18"/>
<text text-anchor="middle" x="285" y="-897.3" font-family="Times,serif" font-size="14.00">(0,2)/Vec&lt;u8&gt;</text>
</g>
<!-- f_1778594085&#45;&#45;v_129870302 -->
<g id="edge27" class="edge">
<title>f_1778594085&#45;&#45;v_129870302</title>
<path fill="none" stroke="black" d="M285,-957.7C285,-946.06 285,-930.79 285,-919.18"/>
</g>
<!-- f_1981514167&#45;&#45;f_2068557872 -->
<g id="edge40" class="edge">
<title>f_1981514167&#45;&#45;f_2068557872</title>
<path fill="none" stroke="black" d="M575,-959.37C586.2,-956.62 597.45,-953.49 608,-950 633.12,-941.69 660.25,-929.18 680.64,-919.02"/>
</g>
<!-- f_558813128 -->
<g id="node34" class="node">
<title>f_558813128</title>
<polygon fill="#d95f02" stroke="black" points="575,-919 407,-919 407,-883 575,-883 575,-919"/>
<text text-anchor="middle" x="491" y="-897.3" font-family="Times,serif" font-size="14.00">fn_append_transcript</text>
</g>
<!-- f_1981514167&#45;&#45;f_558813128 -->
<g id="edge29" class="edge">
<title>f_1981514167&#45;&#45;f_558813128</title>
<path fill="none" stroke="black" d="M491,-957.7C491,-946.06 491,-930.79 491,-919.18"/>
</g>
<!-- f_2698280120 -->
<g id="node35" class="node">
<title>f_2698280120</title>
<polygon fill="#d95f02" stroke="black" points="426,-847 258,-847 258,-811 426,-811 426,-847"/>
<text text-anchor="middle" x="342" y="-825.3" font-family="Times,serif" font-size="14.00">fn_append_transcript</text>
</g>
<!-- f_558813128&#45;&#45;f_2698280120 -->
<g id="edge30" class="edge">
<title>f_558813128&#45;&#45;f_2698280120</title>
<path fill="none" stroke="black" d="M454.55,-882.88C431.37,-871.99 401.48,-857.95 378.33,-847.07"/>
</g>
<!-- v_1374643436 -->
<g id="node43" class="node">
<title>v_1374643436</title>
<ellipse fill="#1b9e77" stroke="black" cx="520" cy="-829" rx="76.09" ry="18"/>
<text text-anchor="middle" x="520" y="-825.3" font-family="Times,serif" font-size="14.00">(0,3)/Message</text>
</g>
<!-- f_558813128&#45;&#45;v_1374643436 -->
<g id="edge39" class="edge">
<title>f_558813128&#45;&#45;v_1374643436</title>
<path fill="none" stroke="black" d="M498.17,-882.7C502.66,-871.85 508.43,-857.92 512.91,-847.1"/>
</g>
<!-- f_2905951368 -->
<g id="node36" class="node">
<title>f_2905951368</title>
<polygon fill="#d95f02" stroke="black" points="426,-775 258,-775 258,-739 426,-739 426,-775"/>
<text text-anchor="middle" x="342" y="-753.3" font-family="Times,serif" font-size="14.00">fn_append_transcript</text>
</g>
<!-- f_2698280120&#45;&#45;f_2905951368 -->
<g id="edge31" class="edge">
<title>f_2698280120&#45;&#45;f_2905951368</title>
<path fill="none" stroke="black" d="M342,-810.7C342,-799.85 342,-785.92 342,-775.1"/>
</g>
<!-- v_619284472 -->
<g id="node42" class="node">
<title>v_619284472</title>
<ellipse fill="#1b9e77" stroke="black" cx="520" cy="-757" rx="76.09" ry="18"/>
<text text-anchor="middle" x="520" y="-753.3" font-family="Times,serif" font-size="14.00">(0,2)/Message</text>
</g>
<!-- f_2698280120&#45;&#45;v_619284472 -->
<g id="edge38" class="edge">
<title>f_2698280120&#45;&#45;v_619284472</title>
<path fill="none" stroke="black" d="M385.54,-810.88C415.29,-799.18 454.29,-783.84 482.63,-772.7"/>
</g>
<!-- f_3049917600 -->
<g id="node37" class="node">
<title>f_3049917600</title>
<polygon fill="#d95f02" stroke="black" points="426,-703 258,-703 258,-667 426,-667 426,-703"/>
<text text-anchor="middle" x="342" y="-681.3" font-family="Times,serif" font-size="14.00">fn_append_transcript</text>
</g>
<!-- f_2905951368&#45;&#45;f_3049917600 -->
<g id="edge32" class="edge">
<title>f_2905951368&#45;&#45;f_3049917600</title>
<path fill="none" stroke="black" d="M342,-738.7C342,-727.85 342,-713.92 342,-703.1"/>
</g>
<!-- v_612422983 -->
<g id="node41" class="node">
<title>v_612422983</title>
<ellipse fill="#1b9e77" stroke="black" cx="520" cy="-685" rx="76.09" ry="18"/>
<text text-anchor="middle" x="520" y="-681.3" font-family="Times,serif" font-size="14.00">(0,1)/Message</text>
</g>
<!-- f_2905951368&#45;&#45;v_612422983 -->
<g id="edge37" class="edge">
<title>f_2905951368&#45;&#45;v_612422983</title>
<path fill="none" stroke="black" d="M385.54,-738.88C415.29,-727.18 454.29,-711.84 482.63,-700.7"/>
</g>
<!-- f_2217144820 -->
<g id="node38" class="node">
<title>f_2217144820</title>
<polygon fill="#d95f02" stroke="black" points="426,-631 258,-631 258,-595 426,-595 426,-631"/>
<text text-anchor="middle" x="342" y="-609.3" font-family="Times,serif" font-size="14.00">fn_append_transcript</text>
</g>
<!-- f_3049917600&#45;&#45;f_2217144820 -->
<g id="edge33" class="edge">
<title>f_3049917600&#45;&#45;f_2217144820</title>
<path fill="none" stroke="black" d="M342,-666.7C342,-655.85 342,-641.92 342,-631.1"/>
</g>
<!-- v_3031617775 -->
<g id="node40" class="node">
<title>v_3031617775</title>
<ellipse fill="#1b9e77" stroke="black" cx="520" cy="-613" rx="76.09" ry="18"/>
<text text-anchor="middle" x="520" y="-609.3" font-family="Times,serif" font-size="14.00">(0,0)/Message</text>
</g>
<!-- f_3049917600&#45;&#45;v_3031617775 -->
<g id="edge36" class="edge">
<title>f_3049917600&#45;&#45;v_3031617775</title>
<path fill="none" stroke="black" d="M385.54,-666.88C415.29,-655.18 454.29,-639.84 482.63,-628.7"/>
</g>
<!-- f_2217144820&#45;&#45;f_3318105472 -->
<g id="edge35" class="edge">
<title>f_2217144820&#45;&#45;f_3318105472</title>
<path fill="none" stroke="black" d="M426.07,-596.11C429.08,-595.71 432.06,-595.33 435,-595 511.48,-586.28 531.33,-593.75 608,-587 717.56,-577.36 844.6,-559.31 917.41,-548.3"/>
</g>
<!-- f_2241644808 -->
<g id="node39" class="node">
<title>f_2241644808</title>
<polygon fill="#1b9e77" stroke="black" points="423.5,-556 260.5,-556 260.5,-520 423.5,-520 423.5,-556"/>
<text text-anchor="middle" x="342" y="-534.3" font-family="Times,serif" font-size="14.00">fn_new_transcript12</text>
</g>
<!-- f_2217144820&#45;&#45;f_2241644808 -->
<g id="edge34" class="edge">
<title>f_2217144820&#45;&#45;f_2241644808</title>
<path fill="none" stroke="black" d="M342,-594.7C342,-583.06 342,-567.79 342,-556.18"/>
</g>
<!-- v_3781039441 -->
<g id="node46" class="node">
<title>v_3781039441</title>
<ellipse fill="#1b9e77" stroke="black" cx="406" cy="-1048" rx="78.79" ry="18"/>
<text text-anchor="middle" x="406" y="-1044.3" font-family="Times,serif" font-size="14.00">(0,2)/Vec&lt;u8&gt;</text>
</g>
<!-- f_528443068&#45;&#45;v_3781039441 -->
<g id="edge43" class="edge">
<title>f_528443068&#45;&#45;v_3781039441</title>
<path fill="none" stroke="black" d="M406,-1101.7C406,-1090.85 406,-1076.92 406,-1066.1"/>
</g>
</g>
</svg>
