<?xml version="1.0" encoding="UTF-8" standalone="no"?>
<!DOCTYPE svg PUBLIC "-//W3C//DTD SVG 1.1//EN"
 "http://www.w3.org/Graphics/SVG/1.1/DTD/svg11.dtd">
<!-- Generated by graphviz version 2.47.2 (0)
 -->
<!-- Title: Trace Pages: 1 -->
<svg width="2139pt" height="1182pt"
 viewBox="0.00 0.00 2139.00 1182.00" xmlns="http://www.w3.org/2000/svg" xmlns:xlink="http://www.w3.org/1999/xlink">
<g id="graph0" class="graph" transform="scale(1 1) rotate(0) translate(4 1178)">
<title>Trace</title>
<polygon fill="white" stroke="transparent" points="-4,4 -4,-1178 2135,-1178 2135,4 -4,4"/>
<g id="clust1" class="cluster">
<title>cluster0</title>
<polygon fill="none" stroke="black" points="1200,-8 1200,-443 2123,-443 2123,-8 1200,-8"/>
<text text-anchor="middle" x="1661.5" y="-427.8" font-family="Times,serif" font-size="14.00">Step #0 (Agent &#160;1)</text>
</g>
<g id="clust2" class="cluster">
<title>cluster1</title>
<polygon fill="none" stroke="black" points="1567,-1091 1567,-1166 1755,-1166 1755,-1091 1567,-1091"/>
<text text-anchor="middle" x="1661" y="-1150.8" font-family="Times,serif" font-size="14.00">Step #1 (Agent &#160;1) &#45; (0,)</text>
</g>
<g id="clust3" class="cluster">
<title>cluster2</title>
<polygon fill="none" stroke="black" points="8,-368 8,-1166 1192,-1166 1192,-368 8,-368"/>
<text text-anchor="middle" x="600" y="-1150.8" font-family="Times,serif" font-size="14.00">Step #2 (Agent &#160;1)</text>
</g>
<!-- f_2685086899 -->
<g id="node1" class="node">
<title>f_2685086899</title>
<polygon fill="#d95f02" stroke="black" points="1624.5,-412 1505.5,-412 1505.5,-376 1624.5,-376 1624.5,-412"/>
<text text-anchor="middle" x="1565" y="-390.3" font-family="Times,serif" font-size="14.00">fn_client_hello</text>
</g>
<!-- f_3557994442 -->
<g id="node2" class="node">
<title>f_3557994442</title>
<polygon fill="#1b9e77" stroke="black" points="1381.5,-340 1208.5,-340 1208.5,-304 1381.5,-304 1381.5,-340"/>
<text text-anchor="middle" x="1295" y="-318.3" font-family="Times,serif" font-size="14.00">fn_protocol_version12</text>
</g>
<!-- f_2685086899&#45;&gt;f_3557994442 -->
<g id="edge1" class="edge">
<title>f_2685086899&#45;&gt;f_3557994442</title>
<path fill="none" stroke="black" d="M1505.41,-377.55C1465.65,-367.24 1413.03,-353.6 1370.36,-342.54"/>
<polygon fill="black" stroke="black" points="1371.14,-339.12 1360.58,-340 1369.38,-345.9 1371.14,-339.12"/>
</g>
<!-- f_1710965932 -->
<g id="node3" class="node">
<title>f_1710965932</title>
<polygon fill="#1b9e77" stroke="black" points="1492,-340 1400,-340 1400,-304 1492,-304 1492,-340"/>
<text text-anchor="middle" x="1446" y="-318.3" font-family="Times,serif" font-size="14.00">fn_random</text>
</g>
<!-- f_2685086899&#45;&gt;f_1710965932 -->
<g id="edge2" class="edge">
<title>f_2685086899&#45;&gt;f_1710965932</title>
<path fill="none" stroke="black" d="M1535.89,-375.88C1520.33,-366.72 1500.98,-355.34 1484.22,-345.48"/>
<polygon fill="black" stroke="black" points="1485.62,-342.24 1475.22,-340.19 1482.07,-348.28 1485.62,-342.24"/>
</g>
<!-- f_2671239437 -->
<g id="node4" class="node">
<title>f_2671239437</title>
<polygon fill="#1b9e77" stroke="black" points="1620,-340 1510,-340 1510,-304 1620,-304 1620,-340"/>
<text text-anchor="middle" x="1565" y="-318.3" font-family="Times,serif" font-size="14.00">fn_session_id</text>
</g>
<!-- f_2685086899&#45;&gt;f_2671239437 -->
<g id="edge3" class="edge">
<title>f_2685086899&#45;&gt;f_2671239437</title>
<path fill="none" stroke="black" d="M1565,-375.7C1565,-367.98 1565,-358.71 1565,-350.11"/>
<polygon fill="black" stroke="black" points="1568.5,-350.1 1565,-340.1 1561.5,-350.1 1568.5,-350.1"/>
</g>
<!-- f_2534260962 -->
<g id="node5" class="node">
<title>f_2534260962</title>
<polygon fill="#1b9e77" stroke="black" points="1770,-340 1638,-340 1638,-304 1770,-304 1770,-340"/>
<text text-anchor="middle" x="1704" y="-318.3" font-family="Times,serif" font-size="14.00">fn_cipher_suites</text>
</g>
<!-- f_2685086899&#45;&gt;f_2534260962 -->
<g id="edge4" class="edge">
<title>f_2685086899&#45;&gt;f_2534260962</title>
<path fill="none" stroke="black" d="M1599,-375.88C1617.6,-366.51 1640.83,-354.81 1660.71,-344.8"/>
<polygon fill="black" stroke="black" points="1662.51,-347.81 1669.87,-340.19 1659.36,-341.56 1662.51,-347.81"/>
</g>
<!-- f_2962232593 -->
<g id="node6" class="node">
<title>f_2962232593</title>
<polygon fill="#1b9e77" stroke="black" points="1923.5,-340 1788.5,-340 1788.5,-304 1923.5,-304 1923.5,-340"/>
<text text-anchor="middle" x="1856" y="-318.3" font-family="Times,serif" font-size="14.00">fn_compressions</text>
</g>
<!-- f_2685086899&#45;&gt;f_2962232593 -->
<g id="edge5" class="edge">
<title>f_2685086899&#45;&gt;f_2962232593</title>
<path fill="none" stroke="black" d="M1624.59,-378.67C1669.08,-367.96 1730.27,-353.24 1778.55,-341.63"/>
<polygon fill="black" stroke="black" points="1779.43,-345.02 1788.34,-339.28 1777.8,-338.21 1779.43,-345.02"/>
</g>
<!-- f_853738601 -->
<g id="node7" class="node">
<title>f_853738601</title>
<polygon fill="#d95f02" stroke="black" points="2114.5,-340 1941.5,-340 1941.5,-304 2114.5,-304 2114.5,-340"/>
<text text-anchor="middle" x="2028" y="-318.3" font-family="Times,serif" font-size="14.00">fn_extensions_append</text>
</g>
<!-- f_2685086899&#45;&gt;f_853738601 -->
<g id="edge6" class="edge">
<title>f_2685086899&#45;&gt;f_853738601</title>
<path fill="none" stroke="black" d="M1624.69,-385.04C1695.5,-375.45 1817.36,-358.51 1931.35,-340.24"/>
<polygon fill="black" stroke="black" points="1931.98,-343.68 1941.3,-338.64 1930.87,-336.77 1931.98,-343.68"/>
</g>
<!-- f_3906346883 -->
<g id="node8" class="node">
<title>f_3906346883</title>
<polygon fill="#d95f02" stroke="black" points="1843.5,-268 1670.5,-268 1670.5,-232 1843.5,-232 1843.5,-268"/>
<text text-anchor="middle" x="1757" y="-246.3" font-family="Times,serif" font-size="14.00">fn_extensions_append</text>
</g>
<!-- f_853738601&#45;&gt;f_3906346883 -->
<g id="edge7" class="edge">
<title>f_853738601&#45;&gt;f_3906346883</title>
<path fill="none" stroke="black" d="M1962.05,-303.97C1923.12,-293.91 1873.67,-281.14 1833.09,-270.65"/>
<polygon fill="black" stroke="black" points="1833.8,-267.22 1823.24,-268.11 1832.05,-274 1833.8,-267.22"/>
</g>
<!-- f_1163398897 -->
<g id="node15" class="node">
<title>f_1163398897</title>
<polygon fill="#1b9e77" stroke="black" points="2114.5,-268 1861.5,-268 1861.5,-232 2114.5,-232 2114.5,-268"/>
<text text-anchor="middle" x="1988" y="-246.3" font-family="Times,serif" font-size="14.00">fn_supported_versions_extension</text>
</g>
<!-- f_853738601&#45;&gt;f_1163398897 -->
<g id="edge14" class="edge">
<title>f_853738601&#45;&gt;f_1163398897</title>
<path fill="none" stroke="black" d="M2018.11,-303.7C2013.51,-295.64 2007.94,-285.89 2002.85,-276.98"/>
<polygon fill="black" stroke="black" points="2005.77,-275.05 1997.77,-268.1 1999.7,-278.52 2005.77,-275.05"/>
</g>
<!-- f_3175154310 -->
<g id="node9" class="node">
<title>f_3175154310</title>
<polygon fill="#d95f02" stroke="black" points="1784.5,-196 1611.5,-196 1611.5,-160 1784.5,-160 1784.5,-196"/>
<text text-anchor="middle" x="1698" y="-174.3" font-family="Times,serif" font-size="14.00">fn_extensions_append</text>
</g>
<!-- f_3906346883&#45;&gt;f_3175154310 -->
<g id="edge8" class="edge">
<title>f_3906346883&#45;&gt;f_3175154310</title>
<path fill="none" stroke="black" d="M1742.42,-231.7C1735.34,-223.3 1726.72,-213.07 1718.95,-203.86"/>
<polygon fill="black" stroke="black" points="1721.54,-201.49 1712.42,-196.1 1716.19,-206.01 1721.54,-201.49"/>
</g>
<!-- f_832987664 -->
<g id="node14" class="node">
<title>f_832987664</title>
<polygon fill="#1b9e77" stroke="black" points="1987.5,-196 1802.5,-196 1802.5,-160 1987.5,-160 1987.5,-196"/>
<text text-anchor="middle" x="1895" y="-174.3" font-family="Times,serif" font-size="14.00">fn_key_share_extension</text>
</g>
<!-- f_3906346883&#45;&gt;f_832987664 -->
<g id="edge13" class="edge">
<title>f_3906346883&#45;&gt;f_832987664</title>
<path fill="none" stroke="black" d="M1790.76,-231.88C1809.22,-222.51 1832.28,-210.81 1852.02,-200.8"/>
<polygon fill="black" stroke="black" points="1853.78,-203.83 1861.11,-196.19 1850.61,-197.59 1853.78,-203.83"/>
</g>
<!-- f_3612611471 -->
<g id="node10" class="node">
<title>f_3612611471</title>
<polygon fill="#d95f02" stroke="black" points="1724.5,-124 1551.5,-124 1551.5,-88 1724.5,-88 1724.5,-124"/>
<text text-anchor="middle" x="1638" y="-102.3" font-family="Times,serif" font-size="14.00">fn_extensions_append</text>
</g>
<!-- f_3175154310&#45;&gt;f_3612611471 -->
<g id="edge9" class="edge">
<title>f_3175154310&#45;&gt;f_3612611471</title>
<path fill="none" stroke="black" d="M1683.17,-159.7C1675.98,-151.3 1667.2,-141.07 1659.31,-131.86"/>
<polygon fill="black" stroke="black" points="1661.83,-129.42 1652.66,-124.1 1656.51,-133.97 1661.83,-129.42"/>
</g>
<!-- f_1373290869 -->
<g id="node13" class="node">
<title>f_1373290869</title>
<polygon fill="#1b9e77" stroke="black" points="2001,-124 1743,-124 1743,-88 2001,-88 2001,-124"/>
<text text-anchor="middle" x="1872" y="-102.3" font-family="Times,serif" font-size="14.00">fn_signature_algorithm_extension</text>
</g>
<!-- f_3175154310&#45;&gt;f_1373290869 -->
<g id="edge12" class="edge">
<title>f_3175154310&#45;&gt;f_1373290869</title>
<path fill="none" stroke="black" d="M1740.57,-159.88C1764.56,-150.22 1794.73,-138.09 1820.1,-127.88"/>
<polygon fill="black" stroke="black" points="1821.6,-131.05 1829.57,-124.07 1818.99,-124.55 1821.6,-131.05"/>
</g>
<!-- f_1327374318 -->
<g id="node11" class="node">
<title>f_1327374318</title>
<polygon fill="#1b9e77" stroke="black" points="1593,-52 1443,-52 1443,-16 1593,-16 1593,-52"/>
<text text-anchor="middle" x="1518" y="-30.3" font-family="Times,serif" font-size="14.00">fn_extensions_new</text>
</g>
<!-- f_3612611471&#45;&gt;f_1327374318 -->
<g id="edge10" class="edge">
<title>f_3612611471&#45;&gt;f_1327374318</title>
<path fill="none" stroke="black" d="M1608.64,-87.88C1592.95,-78.72 1573.44,-67.34 1556.55,-57.48"/>
<polygon fill="black" stroke="black" points="1557.87,-54.21 1547.47,-52.19 1554.34,-60.25 1557.87,-54.21"/>
</g>
<!-- f_296084623 -->
<g id="node12" class="node">
<title>f_296084623</title>
<polygon fill="#1b9e77" stroke="black" points="1889,-52 1611,-52 1611,-16 1889,-16 1889,-52"/>
<text text-anchor="middle" x="1750" y="-30.3" font-family="Times,serif" font-size="14.00">fn_x25519_support_group_extension</text>
</g>
<!-- f_3612611471&#45;&gt;f_296084623 -->
<g id="edge11" class="edge">
<title>f_3612611471&#45;&gt;f_296084623</title>
<path fill="none" stroke="black" d="M1665.4,-87.88C1679.91,-78.81 1697.92,-67.55 1713.59,-57.76"/>
<polygon fill="black" stroke="black" points="1715.87,-60.46 1722.5,-52.19 1712.16,-54.52 1715.87,-60.46"/>
</g>
<g id="node16" class="node">
<title></title>
<ellipse fill="none" stroke="transparent" cx="1661" cy="-1117" rx="27" ry="18"/>
</g>
<!-- f_3945378221 -->
<g id="node17" class="node">
<title>f_3945378221</title>
<polygon fill="#d95f02" stroke="black" points="730,-1135 638,-1135 638,-1099 730,-1099 730,-1135"/>
<text text-anchor="middle" x="684" y="-1113.3" font-family="Times,serif" font-size="14.00">fn_encrypt</text>
</g>
<!-- f_1823343268 -->
<g id="node18" class="node">
<title>f_1823343268</title>
<polygon fill="#d95f02" stroke="black" points="518.5,-1063 423.5,-1063 423.5,-1027 518.5,-1027 518.5,-1063"/>
<text text-anchor="middle" x="471" y="-1041.3" font-family="Times,serif" font-size="14.00">fn_finished</text>
</g>
<!-- f_3945378221&#45;&gt;f_1823343268 -->
<g id="edge15" class="edge">
<title>f_3945378221&#45;&gt;f_1823343268</title>
<path fill="none" stroke="black" d="M637.78,-1100.81C605.71,-1090.27 562.76,-1076.16 528.48,-1064.89"/>
<polygon fill="black" stroke="black" points="529.2,-1061.44 518.6,-1061.64 527.01,-1068.09 529.2,-1061.44"/>
</g>
<!-- f_3410788491 -->
<g id="node25" class="node">
<title>f_3410788491</title>
<polygon fill="#d95f02" stroke="black" points="1004,-559 836,-559 836,-523 1004,-523 1004,-559"/>
<text text-anchor="middle" x="920" y="-537.3" font-family="Times,serif" font-size="14.00">fn_append_transcript</text>
</g>
<!-- f_3945378221&#45;&gt;f_3410788491 -->
<g id="edge49" class="edge">
<title>f_3945378221&#45;&gt;f_3410788491</title>
<path fill="none" stroke="black" d="M637.9,-1110.42C608.25,-1104.19 571.86,-1090.97 553,-1063 544.06,-1049.73 544.07,-1040.28 553,-1027 623.96,-921.45 700.3,-967.2 818,-919 973.66,-855.26 1074.38,-914.75 1168,-775 1215.17,-704.58 1176.38,-640.7 1105,-595 1077.83,-577.61 1044.84,-565.8 1014.29,-557.83"/>
<polygon fill="black" stroke="black" points="1015.01,-554.4 1004.46,-555.37 1013.32,-561.19 1015.01,-554.4"/>
</g>
<!-- v_3432532773 -->
<g id="node45" class="node">
<title>v_3432532773</title>
<ellipse fill="#1b9e77" stroke="black" cx="825" cy="-1045" rx="262.65" ry="18"/>
<text text-anchor="middle" x="825" y="-1041.3" font-family="Times,serif" font-size="14.00">(0,0)/Vec&lt;rustls::msgs::handshake::ServerExtension&gt;</text>
</g>
<!-- f_3945378221&#45;&gt;v_3432532773 -->
<g id="edge48" class="edge">
<title>f_3945378221&#45;&gt;v_3432532773</title>
<path fill="none" stroke="black" d="M718.49,-1098.88C737.58,-1089.4 761.49,-1077.53 781.81,-1067.44"/>
<polygon fill="black" stroke="black" points="783.46,-1070.53 790.86,-1062.95 780.35,-1064.26 783.46,-1070.53"/>
</g>
<!-- f_2484050951 -->
<g id="node46" class="node">
<title>f_2484050951</title>
<polygon fill="#1b9e77" stroke="black" points="1184,-1063 1106,-1063 1106,-1027 1184,-1027 1184,-1063"/>
<text text-anchor="middle" x="1145" y="-1041.3" font-family="Times,serif" font-size="14.00">fn_seq_0</text>
</g>
<!-- f_3945378221&#45;&gt;f_2484050951 -->
<g id="edge50" class="edge">
<title>f_3945378221&#45;&gt;f_2484050951</title>
<path fill="none" stroke="black" d="M730.1,-1113.29C805.22,-1108.19 958.62,-1094.86 1096.05,-1062.94"/>
<polygon fill="black" stroke="black" points="1096.98,-1066.31 1105.91,-1060.61 1095.37,-1059.5 1096.98,-1066.31"/>
</g>
<!-- f_2868882725 -->
<g id="node19" class="node">
<title>f_2868882725</title>
<polygon fill="#d95f02" stroke="black" points="474.5,-991 357.5,-991 357.5,-955 474.5,-955 474.5,-991"/>
<text text-anchor="middle" x="416" y="-969.3" font-family="Times,serif" font-size="14.00">fn_verify_data</text>
</g>
<!-- f_1823343268&#45;&gt;f_2868882725 -->
<g id="edge16" class="edge">
<title>f_1823343268&#45;&gt;f_2868882725</title>
<path fill="none" stroke="black" d="M457.4,-1026.7C450.88,-1018.39 442.93,-1008.28 435.75,-999.14"/>
<polygon fill="black" stroke="black" points="438.37,-996.81 429.44,-991.1 432.87,-1001.13 438.37,-996.81"/>
</g>
<!-- v_3932080733 -->
<g id="node20" class="node">
<title>v_3932080733</title>
<ellipse fill="#1b9e77" stroke="black" cx="360" cy="-901" rx="262.65" ry="18"/>
<text text-anchor="middle" x="360" y="-897.3" font-family="Times,serif" font-size="14.00">(0,0)/Vec&lt;rustls::msgs::handshake::ServerExtension&gt;</text>
</g>
<!-- f_2868882725&#45;&gt;v_3932080733 -->
<g id="edge17" class="edge">
<title>f_2868882725&#45;&gt;v_3932080733</title>
<path fill="none" stroke="black" d="M402.16,-954.7C395.51,-946.39 387.42,-936.28 380.11,-927.14"/>
<polygon fill="black" stroke="black" points="382.66,-924.73 373.68,-919.1 377.2,-929.1 382.66,-924.73"/>
</g>
<!-- f_279182605 -->
<g id="node21" class="node">
<title>f_279182605</title>
<polygon fill="#d95f02" stroke="black" points="809,-919 641,-919 641,-883 809,-883 809,-919"/>
<text text-anchor="middle" x="725" y="-897.3" font-family="Times,serif" font-size="14.00">fn_append_transcript</text>
</g>
<!-- f_2868882725&#45;&gt;f_279182605 -->
<g id="edge18" class="edge">
<title>f_2868882725&#45;&gt;f_279182605</title>
<path fill="none" stroke="black" d="M474.85,-958.67C521.57,-948.09 587.52,-933.14 639.98,-921.26"/>
<polygon fill="black" stroke="black" points="640.97,-924.63 649.95,-919 639.42,-917.8 640.97,-924.63"/>
</g>
<!-- f_2868882725&#45;&gt;f_3410788491 -->
<g id="edge47" class="edge">
<title>f_2868882725&#45;&gt;f_3410788491</title>
<path fill="none" stroke="black" d="M357.27,-967.6C275.57,-960.62 132.64,-945.08 88,-919 44.31,-893.47 17,-880.6 17,-830 17,-830 17,-830 17,-756 17,-716.2 2.88,-698.66 27,-667 53.11,-632.73 85.63,-660.53 117,-631 129.89,-618.87 119.31,-604.86 134,-595 197.1,-552.65 741.45,-567.2 817,-559 819.87,-558.69 822.78,-558.35 825.72,-557.99"/>
<polygon fill="black" stroke="black" points="826.32,-561.44 835.79,-556.68 825.42,-554.5 826.32,-561.44"/>
</g>
<!-- f_3382021585 -->
<g id="node22" class="node">
<title>f_3382021585</title>
<polygon fill="#d95f02" stroke="black" points="372,-847 204,-847 204,-811 372,-811 372,-847"/>
<text text-anchor="middle" x="288" y="-825.3" font-family="Times,serif" font-size="14.00">fn_append_transcript</text>
</g>
<!-- f_279182605&#45;&gt;f_3382021585 -->
<g id="edge19" class="edge">
<title>f_279182605&#45;&gt;f_3382021585</title>
<path fill="none" stroke="black" d="M640.87,-884.51C637.88,-884 634.91,-883.49 632,-883 547.66,-868.8 451.43,-854.1 382.23,-843.79"/>
<polygon fill="black" stroke="black" points="382.63,-840.31 372.22,-842.31 381.6,-847.24 382.63,-840.31"/>
</g>
<!-- f_3421951957 -->
<g id="node41" class="node">
<title>f_3421951957</title>
<polygon fill="#d95f02" stroke="black" points="831,-847 739,-847 739,-811 831,-811 831,-847"/>
<text text-anchor="middle" x="785" y="-825.3" font-family="Times,serif" font-size="14.00">fn_decrypt</text>
</g>
<!-- f_279182605&#45;&gt;f_3421951957 -->
<g id="edge42" class="edge">
<title>f_279182605&#45;&gt;f_3421951957</title>
<path fill="none" stroke="black" d="M739.83,-882.7C747.02,-874.3 755.8,-864.07 763.69,-854.86"/>
<polygon fill="black" stroke="black" points="766.49,-856.97 770.34,-847.1 761.17,-852.42 766.49,-856.97"/>
</g>
<!-- f_2925530152 -->
<g id="node23" class="node">
<title>f_2925530152</title>
<polygon fill="#d95f02" stroke="black" points="224,-775 56,-775 56,-739 224,-739 224,-775"/>
<text text-anchor="middle" x="140" y="-753.3" font-family="Times,serif" font-size="14.00">fn_append_transcript</text>
</g>
<!-- f_3382021585&#45;&gt;f_2925530152 -->
<g id="edge20" class="edge">
<title>f_3382021585&#45;&gt;f_2925530152</title>
<path fill="none" stroke="black" d="M251.8,-810.88C231.74,-801.39 206.63,-789.51 185.29,-779.42"/>
<polygon fill="black" stroke="black" points="186.62,-776.18 176.09,-775.07 183.63,-782.51 186.62,-776.18"/>
</g>
<!-- f_739702591 -->
<g id="node37" class="node">
<title>f_739702591</title>
<polygon fill="#d95f02" stroke="black" points="334,-775 242,-775 242,-739 334,-739 334,-775"/>
<text text-anchor="middle" x="288" y="-753.3" font-family="Times,serif" font-size="14.00">fn_decrypt</text>
</g>
<!-- f_3382021585&#45;&gt;f_739702591 -->
<g id="edge37" class="edge">
<title>f_3382021585&#45;&gt;f_739702591</title>
<path fill="none" stroke="black" d="M288,-810.7C288,-802.98 288,-793.71 288,-785.11"/>
<polygon fill="black" stroke="black" points="291.5,-785.1 288,-775.1 284.5,-785.1 291.5,-785.1"/>
</g>
<!-- f_2589457509 -->
<g id="node24" class="node">
<title>f_2589457509</title>
<polygon fill="#d95f02" stroke="black" points="204,-703 36,-703 36,-667 204,-667 204,-703"/>
<text text-anchor="middle" x="120" y="-681.3" font-family="Times,serif" font-size="14.00">fn_append_transcript</text>
</g>
<!-- f_2925530152&#45;&gt;f_2589457509 -->
<g id="edge21" class="edge">
<title>f_2925530152&#45;&gt;f_2589457509</title>
<path fill="none" stroke="black" d="M135.06,-738.7C132.83,-730.9 130.15,-721.51 127.67,-712.83"/>
<polygon fill="black" stroke="black" points="131,-711.76 124.89,-703.1 124.27,-713.68 131,-711.76"/>
</g>
<!-- f_1923565145 -->
<g id="node33" class="node">
<title>f_1923565145</title>
<polygon fill="#d95f02" stroke="black" points="314,-703 222,-703 222,-667 314,-667 314,-703"/>
<text text-anchor="middle" x="268" y="-681.3" font-family="Times,serif" font-size="14.00">fn_decrypt</text>
</g>
<!-- f_2925530152&#45;&gt;f_1923565145 -->
<g id="edge32" class="edge">
<title>f_2925530152&#45;&gt;f_1923565145</title>
<path fill="none" stroke="black" d="M171.31,-738.88C188.2,-729.64 209.25,-718.13 227.38,-708.21"/>
<polygon fill="black" stroke="black" points="229.47,-711.06 236.57,-703.19 226.11,-704.92 229.47,-711.06"/>
</g>
<!-- f_2589457509&#45;&gt;f_3410788491 -->
<g id="edge22" class="edge">
<title>f_2589457509&#45;&gt;f_3410788491</title>
<path fill="none" stroke="black" d="M124.83,-666.64C131.7,-643.27 144.84,-603.6 157,-595 216.96,-552.59 743.99,-566.99 817,-559 819.87,-558.69 822.78,-558.34 825.72,-557.98"/>
<polygon fill="black" stroke="black" points="826.32,-561.43 835.79,-556.67 825.42,-554.49 826.32,-561.43"/>
</g>
<!-- f_2570110367 -->
<g id="node29" class="node">
<title>f_2570110367</title>
<polygon fill="#d95f02" stroke="black" points="108,-631 16,-631 16,-595 108,-595 108,-631"/>
<text text-anchor="middle" x="62" y="-609.3" font-family="Times,serif" font-size="14.00">fn_decrypt</text>
</g>
<!-- f_2589457509&#45;&gt;f_2570110367 -->
<g id="edge27" class="edge">
<title>f_2589457509&#45;&gt;f_2570110367</title>
<path fill="none" stroke="black" d="M105.66,-666.7C98.71,-658.3 90.23,-648.07 82.6,-638.86"/>
<polygon fill="black" stroke="black" points="85.25,-636.57 76.17,-631.1 79.86,-641.04 85.25,-636.57"/>
</g>
<!-- f_3895948538 -->
<g id="node26" class="node">
<title>f_3895948538</title>
<polygon fill="#d95f02" stroke="black" points="1004,-487 836,-487 836,-451 1004,-451 1004,-487"/>
<text text-anchor="middle" x="920" y="-465.3" font-family="Times,serif" font-size="14.00">fn_append_transcript</text>
</g>
<!-- f_3410788491&#45;&gt;f_3895948538 -->
<g id="edge23" class="edge">
<title>f_3410788491&#45;&gt;f_3895948538</title>
<path fill="none" stroke="black" d="M920,-522.7C920,-514.98 920,-505.71 920,-497.11"/>
<polygon fill="black" stroke="black" points="923.5,-497.1 920,-487.1 916.5,-497.1 923.5,-497.1"/>
</g>
<!-- v_1341207815 -->
<g id="node28" class="node">
<title>v_1341207815</title>
<ellipse fill="#1b9e77" stroke="black" cx="1098" cy="-469" rx="76.09" ry="18"/>
<text text-anchor="middle" x="1098" y="-465.3" font-family="Times,serif" font-size="14.00">(0,0)/Message</text>
</g>
<!-- f_3410788491&#45;&gt;v_1341207815 -->
<g id="edge26" class="edge">
<title>f_3410788491&#45;&gt;v_1341207815</title>
<path fill="none" stroke="black" d="M963.54,-522.88C990.04,-512.46 1023.87,-499.15 1050.97,-488.49"/>
<polygon fill="black" stroke="black" points="1052.6,-491.61 1060.63,-484.7 1050.04,-485.1 1052.6,-491.61"/>
</g>
<!-- f_3895948538&#45;&gt;f_2685086899 -->
<g id="edge25" class="edge">
<title>f_3895948538&#45;&gt;f_2685086899</title>
<path fill="none" stroke="black" d="M1004.07,-452.1C1007.08,-451.7 1010.06,-451.33 1013,-451 1093.9,-441.88 1114.89,-450.04 1196,-443 1300.65,-433.92 1421.23,-417.01 1495.28,-405.88"/>
<polygon fill="black" stroke="black" points="1496.05,-409.3 1505.41,-404.35 1495,-402.38 1496.05,-409.3"/>
</g>
<!-- f_2371876056 -->
<g id="node27" class="node">
<title>f_2371876056</title>
<polygon fill="#1b9e77" stroke="black" points="992.5,-412 847.5,-412 847.5,-376 992.5,-376 992.5,-412"/>
<text text-anchor="middle" x="920" y="-390.3" font-family="Times,serif" font-size="14.00">fn_new_transcript</text>
</g>
<!-- f_3895948538&#45;&gt;f_2371876056 -->
<g id="edge24" class="edge">
<title>f_3895948538&#45;&gt;f_2371876056</title>
<path fill="none" stroke="black" d="M920,-450.7C920,-442.25 920,-431.87 920,-422.37"/>
<polygon fill="black" stroke="black" points="923.5,-422.18 920,-412.18 916.5,-422.18 923.5,-422.18"/>
</g>
<!-- f_2570110367&#45;&gt;f_3410788491 -->
<g id="edge30" class="edge">
<title>f_2570110367&#45;&gt;f_3410788491</title>
<path fill="none" stroke="black" d="M108.28,-597.78C112.88,-596.7 117.51,-595.74 122,-595 427.16,-544.52 509.49,-592.24 817,-559 819.87,-558.69 822.79,-558.35 825.72,-557.99"/>
<polygon fill="black" stroke="black" points="826.32,-561.44 835.79,-556.69 825.42,-554.5 826.32,-561.44"/>
</g>
<!-- v_726901790 -->
<g id="node30" class="node">
<title>v_726901790</title>
<ellipse fill="#1b9e77" stroke="black" cx="732" cy="-541" rx="76.09" ry="18"/>
<text text-anchor="middle" x="732" y="-537.3" font-family="Times,serif" font-size="14.00">(0,2)/Message</text>
</g>
<!-- f_2570110367&#45;&gt;v_726901790 -->
<g id="edge28" class="edge">
<title>f_2570110367&#45;&gt;v_726901790</title>
<path fill="none" stroke="black" d="M108.29,-597.86C112.9,-596.76 117.52,-595.78 122,-595 352.42,-554.91 415.18,-590 647,-559 653.81,-558.09 660.9,-556.96 667.95,-555.72"/>
<polygon fill="black" stroke="black" points="669.01,-559.09 678.22,-553.84 667.75,-552.2 669.01,-559.09"/>
</g>
<!-- v_2636545416 -->
<g id="node31" class="node">
<title>v_2636545416</title>
<ellipse fill="#1b9e77" stroke="black" cx="279" cy="-541" rx="262.65" ry="18"/>
<text text-anchor="middle" x="279" y="-537.3" font-family="Times,serif" font-size="14.00">(0,0)/Vec&lt;rustls::msgs::handshake::ServerExtension&gt;</text>
</g>
<!-- f_2570110367&#45;&gt;v_2636545416 -->
<g id="edge29" class="edge">
<title>f_2570110367&#45;&gt;v_2636545416</title>
<path fill="none" stroke="black" d="M108.02,-597.15C139.98,-586.85 182.9,-573 217.74,-561.76"/>
<polygon fill="black" stroke="black" points="218.9,-565.07 227.34,-558.66 216.75,-558.4 218.9,-565.07"/>
</g>
<!-- f_3190334841 -->
<g id="node32" class="node">
<title>f_3190334841</title>
<polygon fill="#1b9e77" stroke="black" points="638,-559 560,-559 560,-523 638,-523 638,-559"/>
<text text-anchor="middle" x="599" y="-537.3" font-family="Times,serif" font-size="14.00">fn_seq_0</text>
</g>
<!-- f_2570110367&#45;&gt;f_3190334841 -->
<g id="edge31" class="edge">
<title>f_2570110367&#45;&gt;f_3190334841</title>
<path fill="none" stroke="black" d="M108.31,-597.93C112.91,-596.82 117.53,-595.81 122,-595 307.03,-561.35 362.07,-597.97 550.02,-558.86"/>
<polygon fill="black" stroke="black" points="550.89,-562.26 559.94,-556.75 549.44,-555.41 550.89,-562.26"/>
</g>
<!-- f_1923565145&#45;&gt;f_3410788491 -->
<g id="edge35" class="edge">
<title>f_1923565145&#45;&gt;f_3410788491</title>
<path fill="none" stroke="black" d="M263.05,-666.95C258.36,-646.81 254.49,-613.7 273,-595 315.62,-551.95 756.82,-565.94 817,-559 819.87,-558.67 822.78,-558.31 825.72,-557.94"/>
<polygon fill="black" stroke="black" points="826.33,-561.39 835.78,-556.59 825.4,-554.45 826.33,-561.39"/>
</g>
<!-- v_3410194042 -->
<g id="node34" class="node">
<title>v_3410194042</title>
<ellipse fill="#1b9e77" stroke="black" cx="358" cy="-613" rx="76.09" ry="18"/>
<text text-anchor="middle" x="358" y="-609.3" font-family="Times,serif" font-size="14.00">(0,3)/Message</text>
</g>
<!-- f_1923565145&#45;&gt;v_3410194042 -->
<g id="edge33" class="edge">
<title>f_1923565145&#45;&gt;v_3410194042</title>
<path fill="none" stroke="black" d="M290.25,-666.7C301.95,-657.6 316.43,-646.33 329,-636.55"/>
<polygon fill="black" stroke="black" points="331.19,-639.29 336.94,-630.38 326.89,-633.76 331.19,-639.29"/>
</g>
<!-- v_532857444 -->
<g id="node35" class="node">
<title>v_532857444</title>
<ellipse fill="#1b9e77" stroke="black" cx="715" cy="-613" rx="262.65" ry="18"/>
<text text-anchor="middle" x="715" y="-609.3" font-family="Times,serif" font-size="14.00">(0,0)/Vec&lt;rustls::msgs::handshake::ServerExtension&gt;</text>
</g>
<!-- f_1923565145&#45;&gt;v_532857444 -->
<g id="edge34" class="edge">
<title>f_1923565145&#45;&gt;v_532857444</title>
<path fill="none" stroke="black" d="M314.07,-669.16C317.08,-668.37 320.07,-667.65 323,-667 399.86,-650.05 486.47,-637.65 558.69,-629.13"/>
<polygon fill="black" stroke="black" points="559.26,-632.59 568.79,-627.95 558.45,-625.63 559.26,-632.59"/>
</g>
<!-- f_3843450530 -->
<g id="node36" class="node">
<title>f_3843450530</title>
<polygon fill="#1b9e77" stroke="black" points="244,-631 166,-631 166,-595 244,-595 244,-631"/>
<text text-anchor="middle" x="205" y="-609.3" font-family="Times,serif" font-size="14.00">fn_seq_1</text>
</g>
<!-- f_1923565145&#45;&gt;f_3843450530 -->
<g id="edge36" class="edge">
<title>f_1923565145&#45;&gt;f_3843450530</title>
<path fill="none" stroke="black" d="M252.43,-666.7C244.8,-658.22 235.48,-647.86 227.12,-638.58"/>
<polygon fill="black" stroke="black" points="229.69,-636.2 220.39,-631.1 224.48,-640.88 229.69,-636.2"/>
</g>
<!-- f_739702591&#45;&gt;f_3410788491 -->
<g id="edge40" class="edge">
<title>f_739702591&#45;&gt;f_3410788491</title>
<path fill="none" stroke="black" d="M334.01,-740.89C337.04,-740.18 340.05,-739.53 343,-739 410.9,-726.72 908.21,-744.95 963,-703 982.52,-688.05 997.71,-617.13 987,-595 981.24,-583.1 971.36,-573.06 960.94,-565.02"/>
<polygon fill="black" stroke="black" points="962.7,-561.98 952.53,-559.02 958.63,-567.68 962.7,-561.98"/>
</g>
<!-- v_1092376125 -->
<g id="node38" class="node">
<title>v_1092376125</title>
<ellipse fill="#1b9e77" stroke="black" cx="1068" cy="-685" rx="76.09" ry="18"/>
<text text-anchor="middle" x="1068" y="-681.3" font-family="Times,serif" font-size="14.00">(0,4)/Message</text>
</g>
<!-- f_739702591&#45;&gt;v_1092376125 -->
<g id="edge38" class="edge">
<title>f_739702591&#45;&gt;v_1092376125</title>
<path fill="none" stroke="black" d="M334.01,-740.89C337.03,-740.17 340.05,-739.53 343,-739 621.2,-688.89 697.41,-737.31 978,-703 986.08,-702.01 994.53,-700.74 1002.87,-699.34"/>
<polygon fill="black" stroke="black" points="1003.72,-702.74 1012.97,-697.57 1002.51,-695.85 1003.72,-702.74"/>
</g>
<!-- v_511494226 -->
<g id="node39" class="node">
<title>v_511494226</title>
<ellipse fill="#1b9e77" stroke="black" cx="595" cy="-685" rx="262.65" ry="18"/>
<text text-anchor="middle" x="595" y="-681.3" font-family="Times,serif" font-size="14.00">(0,0)/Vec&lt;rustls::msgs::handshake::ServerExtension&gt;</text>
</g>
<!-- f_739702591&#45;&gt;v_511494226 -->
<g id="edge39" class="edge">
<title>f_739702591&#45;&gt;v_511494226</title>
<path fill="none" stroke="black" d="M334.12,-741.4C337.12,-740.56 340.1,-739.75 343,-739 394.21,-725.73 451.92,-713.4 499.18,-703.98"/>
<polygon fill="black" stroke="black" points="499.97,-707.4 509.1,-702.02 498.61,-700.53 499.97,-707.4"/>
</g>
<!-- f_3710986959 -->
<g id="node40" class="node">
<title>f_3710986959</title>
<polygon fill="#1b9e77" stroke="black" points="954,-703 876,-703 876,-667 954,-667 954,-703"/>
<text text-anchor="middle" x="915" y="-681.3" font-family="Times,serif" font-size="14.00">fn_seq_2</text>
</g>
<!-- f_739702591&#45;&gt;f_3710986959 -->
<g id="edge41" class="edge">
<title>f_739702591&#45;&gt;f_3710986959</title>
<path fill="none" stroke="black" d="M334.02,-740.93C337.04,-740.2 340.05,-739.55 343,-739 569.24,-696.85 636.53,-748.89 865.97,-702.85"/>
<polygon fill="black" stroke="black" points="866.86,-706.24 875.96,-700.8 865.46,-699.38 866.86,-706.24"/>
</g>
<!-- f_3421951957&#45;&gt;f_3410788491 -->
<g id="edge45" class="edge">
<title>f_3421951957&#45;&gt;f_3410788491</title>
<path fill="none" stroke="black" d="M831.05,-828.51C920.33,-828.41 1111.85,-822.51 1153,-775 1184.43,-738.72 1177.65,-708.19 1153,-667 1120.27,-612.3 1054.5,-580.16 1001.15,-562.21"/>
<polygon fill="black" stroke="black" points="1001.94,-558.78 991.35,-559.02 999.78,-565.44 1001.94,-558.78"/>
</g>
<!-- v_1825840084 -->
<g id="node42" class="node">
<title>v_1825840084</title>
<ellipse fill="#1b9e77" stroke="black" cx="428" cy="-757" rx="76.09" ry="18"/>
<text text-anchor="middle" x="428" y="-753.3" font-family="Times,serif" font-size="14.00">(0,5)/Message</text>
</g>
<!-- f_3421951957&#45;&gt;v_1825840084 -->
<g id="edge43" class="edge">
<title>f_3421951957&#45;&gt;v_1825840084</title>
<path fill="none" stroke="black" d="M738.78,-819.07C684.66,-808.59 592.29,-790.65 513,-775 506.9,-773.79 500.55,-772.54 494.19,-771.27"/>
<polygon fill="black" stroke="black" points="494.72,-767.81 484.23,-769.29 493.35,-774.67 494.72,-767.81"/>
</g>
<!-- v_1709836421 -->
<g id="node43" class="node">
<title>v_1709836421</title>
<ellipse fill="#1b9e77" stroke="black" cx="785" cy="-757" rx="262.65" ry="18"/>
<text text-anchor="middle" x="785" y="-753.3" font-family="Times,serif" font-size="14.00">(0,0)/Vec&lt;rustls::msgs::handshake::ServerExtension&gt;</text>
</g>
<!-- f_3421951957&#45;&gt;v_1709836421 -->
<g id="edge44" class="edge">
<title>f_3421951957&#45;&gt;v_1709836421</title>
<path fill="none" stroke="black" d="M785,-810.7C785,-802.98 785,-793.71 785,-785.11"/>
<polygon fill="black" stroke="black" points="788.5,-785.1 785,-775.1 781.5,-785.1 788.5,-785.1"/>
</g>
<!-- f_1117816231 -->
<g id="node44" class="node">
<title>f_1117816231</title>
<polygon fill="#1b9e77" stroke="black" points="1144,-775 1066,-775 1066,-739 1144,-739 1144,-775"/>
<text text-anchor="middle" x="1105" y="-753.3" font-family="Times,serif" font-size="14.00">fn_seq_3</text>
</g>
<!-- f_3421951957&#45;&gt;f_1117816231 -->
<g id="edge46" class="edge">
<title>f_3421951957&#45;&gt;f_1117816231</title>
<path fill="none" stroke="black" d="M831.2,-821.14C883.68,-812.87 971.94,-797.53 1056.14,-775.03"/>
<polygon fill="black" stroke="black" points="1057.12,-778.39 1065.86,-772.39 1055.29,-771.63 1057.12,-778.39"/>
</g>
</g>
</svg>
