<?xml version="1.0" encoding="UTF-8" standalone="no"?>
<!DOCTYPE svg PUBLIC "-//W3C//DTD SVG 1.1//EN"
 "http://www.w3.org/Graphics/SVG/1.1/DTD/svg11.dtd">
<!-- Generated by graphviz version 2.47.2 (0)
 -->
<!-- Pages: 1 -->
<svg width="965pt" height="603pt"
 viewBox="0.00 0.00 965.00 603.00" xmlns="http://www.w3.org/2000/svg" xmlns:xlink="http://www.w3.org/1999/xlink">
<g id="graph0" class="graph" transform="scale(1 1) rotate(0) translate(4 599)">
<polygon fill="white" stroke="transparent" points="-4,4 -4,-599 961,-599 961,4 -4,4"/>
<g id="clust1" class="cluster">
<title>cluster0</title>
<polygon fill="none" stroke="black" points="8,-8 8,-587 949,-587 949,-8 8,-8"/>
<text text-anchor="middle" x="478.5" y="-571.8" font-family="Times,serif" font-size="14.00">Step #0 (Agent &#160;1)</text>
</g>
<!-- func_0_2239591648 -->
<g id="node1" class="node">
<title>func_0_2239591648</title>
<polygon fill="#d95f02" stroke="black" points="506.5,-556 387.5,-556 387.5,-520 506.5,-520 506.5,-556"/>
<text text-anchor="middle" x="447" y="-534.3" font-family="Times,serif" font-size="14.00">fn_client_hello</text>
</g>
<!-- func_0_914420429 -->
<g id="node2" class="node">
<title>func_0_914420429</title>
<polygon fill="#1b9e77" stroke="black" points="189.5,-484 16.5,-484 16.5,-448 189.5,-448 189.5,-484"/>
<text text-anchor="middle" x="103" y="-462.3" font-family="Times,serif" font-size="14.00">fn_protocol_version12</text>
</g>
<!-- func_0_2239591648&#45;&#45;func_0_914420429 -->
<g id="edge1" class="edge">
<title>func_0_2239591648&#45;&#45;func_0_914420429</title>
<path fill="none" stroke="black" d="M387.47,-524.89C331.99,-513.6 248.72,-496.65 186.58,-484.01"/>
</g>
<!-- func_0_642876691 -->
<g id="node3" class="node">
<title>func_0_642876691</title>
<polygon fill="#1b9e77" stroke="black" points="300,-484 208,-484 208,-448 300,-448 300,-484"/>
<text text-anchor="middle" x="254" y="-462.3" font-family="Times,serif" font-size="14.00">fn_random</text>
</g>
<!-- func_0_2239591648&#45;&#45;func_0_642876691 -->
<g id="edge2" class="edge">
<title>func_0_2239591648&#45;&#45;func_0_642876691</title>
<path fill="none" stroke="black" d="M399.79,-519.88C369.43,-508.87 330.18,-494.63 300.06,-483.71"/>
</g>
<!-- func_0_3082381575 -->
<g id="node4" class="node">
<title>func_0_3082381575</title>
<polygon fill="#1b9e77" stroke="black" points="428,-484 318,-484 318,-448 428,-448 428,-484"/>
<text text-anchor="middle" x="373" y="-462.3" font-family="Times,serif" font-size="14.00">fn_session_id</text>
</g>
<!-- func_0_2239591648&#45;&#45;func_0_3082381575 -->
<g id="edge3" class="edge">
<title>func_0_2239591648&#45;&#45;func_0_3082381575</title>
<path fill="none" stroke="black" d="M428.71,-519.7C417.24,-508.85 402.51,-494.92 391.08,-484.1"/>
</g>
<!-- func_0_2258858467 -->
<g id="node5" class="node">
<title>func_0_2258858467</title>
<polygon fill="#1b9e77" stroke="black" points="596,-484 446,-484 446,-448 596,-448 596,-484"/>
<text text-anchor="middle" x="521" y="-462.3" font-family="Times,serif" font-size="14.00">fn_cipher_suites12</text>
</g>
<!-- func_0_2239591648&#45;&#45;func_0_2258858467 -->
<g id="edge4" class="edge">
<title>func_0_2239591648&#45;&#45;func_0_2258858467</title>
<path fill="none" stroke="black" d="M465.29,-519.7C476.76,-508.85 491.49,-494.92 502.92,-484.1"/>
</g>
<!-- func_0_235622073 -->
<g id="node6" class="node">
<title>func_0_235622073</title>
<polygon fill="#1b9e77" stroke="black" points="749.5,-484 614.5,-484 614.5,-448 749.5,-448 749.5,-484"/>
<text text-anchor="middle" x="682" y="-462.3" font-family="Times,serif" font-size="14.00">fn_compressions</text>
</g>
<!-- func_0_2239591648&#45;&#45;func_0_235622073 -->
<g id="edge5" class="edge">
<title>func_0_2239591648&#45;&#45;func_0_235622073</title>
<path fill="none" stroke="black" d="M504.19,-519.97C540.73,-509.08 587.96,-495.01 624.56,-484.11"/>
</g>
<!-- func_0_3171392492 -->
<g id="node7" class="node">
<title>func_0_3171392492</title>
<polygon fill="#d95f02" stroke="black" points="940.5,-484 767.5,-484 767.5,-448 940.5,-448 940.5,-484"/>
<text text-anchor="middle" x="854" y="-462.3" font-family="Times,serif" font-size="14.00">fn_extensions_append</text>
</g>
<!-- func_0_2239591648&#45;&#45;func_0_3171392492 -->
<g id="edge6" class="edge">
<title>func_0_2239591648&#45;&#45;func_0_3171392492</title>
<path fill="none" stroke="black" d="M506.62,-526.75C575.29,-514.94 688.7,-495.43 767.17,-481.93"/>
</g>
<!-- func_0_1888125051 -->
<g id="node8" class="node">
<title>func_0_1888125051</title>
<polygon fill="#d95f02" stroke="black" points="724.5,-412 551.5,-412 551.5,-376 724.5,-376 724.5,-412"/>
<text text-anchor="middle" x="638" y="-390.3" font-family="Times,serif" font-size="14.00">fn_extensions_append</text>
</g>
<!-- func_0_3171392492&#45;&#45;func_0_1888125051 -->
<g id="edge7" class="edge">
<title>func_0_3171392492&#45;&#45;func_0_1888125051</title>
<path fill="none" stroke="black" d="M801.44,-447.97C767.84,-437.08 724.44,-423.01 690.8,-412.11"/>
</g>
<!-- func_0_1331943644 -->
<g id="node19" class="node">
<title>func_0_1331943644</title>
<polygon fill="#d95f02" stroke="black" points="939.5,-412 772.5,-412 772.5,-376 939.5,-376 939.5,-412"/>
<text text-anchor="middle" x="856" y="-390.3" font-family="Times,serif" font-size="14.00">fn_renegotiation_info</text>
</g>
<!-- func_0_3171392492&#45;&#45;func_0_1331943644 -->
<g id="edge18" class="edge">
<title>func_0_3171392492&#45;&#45;func_0_1331943644</title>
<path fill="none" stroke="black" d="M854.49,-447.7C854.8,-436.85 855.2,-422.92 855.51,-412.1"/>
</g>
<!-- func_0_3108917396 -->
<g id="node9" class="node">
<title>func_0_3108917396</title>
<polygon fill="#d95f02" stroke="black" points="495.5,-340 322.5,-340 322.5,-304 495.5,-304 495.5,-340"/>
<text text-anchor="middle" x="409" y="-318.3" font-family="Times,serif" font-size="14.00">fn_extensions_append</text>
</g>
<!-- func_0_1888125051&#45;&#45;func_0_3108917396 -->
<g id="edge8" class="edge">
<title>func_0_1888125051&#45;&#45;func_0_3108917396</title>
<path fill="none" stroke="black" d="M582.27,-375.97C546.66,-365.08 500.64,-351.01 464.98,-340.11"/>
</g>
<!-- func_0_2922163864 -->
<g id="node18" class="node">
<title>func_0_2922163864</title>
<polygon fill="#1b9e77" stroke="black" points="762,-340 514,-340 514,-304 762,-304 762,-340"/>
<text text-anchor="middle" x="638" y="-318.3" font-family="Times,serif" font-size="14.00">fn_signed_certificate_timestamp</text>
</g>
<!-- func_0_1888125051&#45;&#45;func_0_2922163864 -->
<g id="edge17" class="edge">
<title>func_0_1888125051&#45;&#45;func_0_2922163864</title>
<path fill="none" stroke="black" d="M638,-375.7C638,-364.85 638,-350.92 638,-340.1"/>
</g>
<!-- func_0_3364013482 -->
<g id="node10" class="node">
<title>func_0_3364013482</title>
<polygon fill="#d95f02" stroke="black" points="470.5,-268 297.5,-268 297.5,-232 470.5,-232 470.5,-268"/>
<text text-anchor="middle" x="384" y="-246.3" font-family="Times,serif" font-size="14.00">fn_extensions_append</text>
</g>
<!-- func_0_3108917396&#45;&#45;func_0_3364013482 -->
<g id="edge9" class="edge">
<title>func_0_3108917396&#45;&#45;func_0_3364013482</title>
<path fill="none" stroke="black" d="M402.82,-303.7C398.95,-292.85 393.97,-278.92 390.11,-268.1"/>
</g>
<!-- func_0_3096060353 -->
<g id="node17" class="node">
<title>func_0_3096060353</title>
<polygon fill="#1b9e77" stroke="black" points="781.5,-268 488.5,-268 488.5,-232 781.5,-232 781.5,-268"/>
<text text-anchor="middle" x="635" y="-246.3" font-family="Times,serif" font-size="14.00">fn_signature_algorithm_cert_extension</text>
</g>
<!-- func_0_3108917396&#45;&#45;func_0_3096060353 -->
<g id="edge16" class="edge">
<title>func_0_3108917396&#45;&#45;func_0_3096060353</title>
<path fill="none" stroke="black" d="M464,-303.97C499.14,-293.08 544.56,-279.01 579.76,-268.11"/>
</g>
<!-- func_0_901087608 -->
<g id="node11" class="node">
<title>func_0_901087608</title>
<polygon fill="#d95f02" stroke="black" points="420.5,-196 247.5,-196 247.5,-160 420.5,-160 420.5,-196"/>
<text text-anchor="middle" x="334" y="-174.3" font-family="Times,serif" font-size="14.00">fn_extensions_append</text>
</g>
<!-- func_0_3364013482&#45;&#45;func_0_901087608 -->
<g id="edge10" class="edge">
<title>func_0_3364013482&#45;&#45;func_0_901087608</title>
<path fill="none" stroke="black" d="M371.64,-231.7C363.89,-220.85 353.94,-206.92 346.22,-196.1"/>
</g>
<!-- func_0_497107333 -->
<g id="node16" class="node">
<title>func_0_497107333</title>
<polygon fill="#1b9e77" stroke="black" points="597.5,-196 438.5,-196 438.5,-160 597.5,-160 597.5,-196"/>
<text text-anchor="middle" x="518" y="-174.3" font-family="Times,serif" font-size="14.00">fn_ec_point_formats</text>
</g>
<!-- func_0_3364013482&#45;&#45;func_0_497107333 -->
<g id="edge15" class="edge">
<title>func_0_3364013482&#45;&#45;func_0_497107333</title>
<path fill="none" stroke="black" d="M416.78,-231.88C437.55,-221.03 464.3,-207.05 485.09,-196.19"/>
</g>
<!-- func_0_3053621033 -->
<g id="node12" class="node">
<title>func_0_3053621033</title>
<polygon fill="#d95f02" stroke="black" points="320.5,-124 147.5,-124 147.5,-88 320.5,-88 320.5,-124"/>
<text text-anchor="middle" x="234" y="-102.3" font-family="Times,serif" font-size="14.00">fn_extensions_append</text>
</g>
<!-- func_0_901087608&#45;&#45;func_0_3053621033 -->
<g id="edge11" class="edge">
<title>func_0_901087608&#45;&#45;func_0_3053621033</title>
<path fill="none" stroke="black" d="M309.54,-159.88C294.04,-149.03 274.07,-135.05 258.56,-124.19"/>
</g>
<!-- func_0_3355021646 -->
<g id="node15" class="node">
<title>func_0_3355021646</title>
<polygon fill="#1b9e77" stroke="black" points="597,-124 339,-124 339,-88 597,-88 597,-124"/>
<text text-anchor="middle" x="468" y="-102.3" font-family="Times,serif" font-size="14.00">fn_signature_algorithm_extension</text>
</g>
<!-- func_0_901087608&#45;&#45;func_0_3355021646 -->
<g id="edge14" class="edge">
<title>func_0_901087608&#45;&#45;func_0_3355021646</title>
<path fill="none" stroke="black" d="M366.78,-159.88C387.55,-149.03 414.3,-135.05 435.09,-124.19"/>
</g>
<!-- func_0_3286324503 -->
<g id="node13" class="node">
<title>func_0_3286324503</title>
<polygon fill="#1b9e77" stroke="black" points="193,-52 43,-52 43,-16 193,-16 193,-52"/>
<text text-anchor="middle" x="118" y="-30.3" font-family="Times,serif" font-size="14.00">fn_extensions_new</text>
</g>
<!-- func_0_3053621033&#45;&#45;func_0_3286324503 -->
<g id="edge12" class="edge">
<title>func_0_3053621033&#45;&#45;func_0_3286324503</title>
<path fill="none" stroke="black" d="M205.62,-87.88C187.65,-77.03 164.48,-63.05 146.49,-52.19"/>
</g>
<!-- func_0_2320766406 -->
<g id="node14" class="node">
<title>func_0_2320766406</title>
<polygon fill="#1b9e77" stroke="black" points="489,-52 211,-52 211,-16 489,-16 489,-52"/>
<text text-anchor="middle" x="350" y="-30.3" font-family="Times,serif" font-size="14.00">fn_x25519_support_group_extension</text>
</g>
<!-- func_0_3053621033&#45;&#45;func_0_2320766406 -->
<g id="edge13" class="edge">
<title>func_0_3053621033&#45;&#45;func_0_2320766406</title>
<path fill="none" stroke="black" d="M262.38,-87.88C280.35,-77.03 303.52,-63.05 321.51,-52.19"/>
</g>
<!-- func_0_720481032 -->
<g id="node20" class="node">
<title>func_0_720481032</title>
<polygon fill="#1b9e77" stroke="black" points="939.5,-340 780.5,-340 780.5,-304 939.5,-304 939.5,-340"/>
<text text-anchor="middle" x="860" y="-318.3" font-family="Times,serif" font-size="14.00">fn_empty_bytes_vec</text>
</g>
<!-- func_0_1331943644&#45;&#45;func_0_720481032 -->
<g id="edge19" class="edge">
<title>func_0_1331943644&#45;&#45;func_0_720481032</title>
<path fill="none" stroke="black" d="M856.99,-375.7C857.61,-364.85 858.4,-350.92 859.02,-340.1"/>
</g>
</g>
</svg>
