<?xml version="1.0" encoding="UTF-8" standalone="no"?>
<!DOCTYPE svg PUBLIC "-//W3C//DTD SVG 1.1//EN"
 "http://www.w3.org/Graphics/SVG/1.1/DTD/svg11.dtd">
<!-- Generated by graphviz version 2.47.3 (0)
 -->
<!-- Pages: 1 -->
<svg width="1118pt" height="459pt"
 viewBox="0.00 0.00 1118.00 459.00" xmlns="http://www.w3.org/2000/svg" xmlns:xlink="http://www.w3.org/1999/xlink">
<g id="graph0" class="graph" transform="scale(1 1) rotate(0) translate(4 455)">
<polygon fill="white" stroke="transparent" points="-4,4 -4,-455 1114,-455 1114,4 -4,4"/>
<g id="clust1" class="cluster">
<title>cluster0</title>
<polygon fill="none" stroke="black" points="8,-8 8,-443 1102,-443 1102,-8 8,-8"/>
<text text-anchor="middle" x="555" y="-427.8" font-family="Times,serif" font-size="14.00">Step #0 (Agent &#160;1)</text>
</g>
<!-- f_0_3501109591 -->
<g id="node1" class="node">
<title>f_0_3501109591</title>
<polygon fill="#d95f02" stroke="black" points="577.5,-412 458.5,-412 458.5,-376 577.5,-376 577.5,-412"/>
<text text-anchor="middle" x="518" y="-390.3" font-family="Times,serif" font-size="14.00">fn_client_hello</text>
</g>
<!-- f_0_2802230363 -->
<g id="node2" class="node">
<title>f_0_2802230363</title>
<polygon fill="#1b9e77" stroke="black" points="189.5,-340 16.5,-340 16.5,-304 189.5,-304 189.5,-340"/>
<text text-anchor="middle" x="103" y="-318.3" font-family="Times,serif" font-size="14.00">fn_protocol_version12</text>
</g>
<!-- f_0_3501109591&#45;&gt;f_0_2802230363 -->
<g id="edge1" class="edge">
<title>f_0_3501109591&#45;&gt;f_0_2802230363</title>
<path fill="none" stroke="black" d="M458.29,-383.27C396.31,-373.13 296.25,-356.64 199.55,-340.08"/>
<polygon fill="black" stroke="black" points="200.05,-336.62 189.6,-338.38 198.86,-343.52 200.05,-336.62"/>
</g>
<!-- f_0_1334510436 -->
<g id="node3" class="node">
<title>f_0_1334510436</title>
<polygon fill="#1b9e77" stroke="black" points="336,-340 208,-340 208,-304 336,-304 336,-340"/>
<text text-anchor="middle" x="272" y="-318.3" font-family="Times,serif" font-size="14.00">fn_new_random</text>
</g>
<!-- f_0_3501109591&#45;&gt;f_0_1334510436 -->
<g id="edge2" class="edge">
<title>f_0_3501109591&#45;&gt;f_0_1334510436</title>
<path fill="none" stroke="black" d="M458.45,-376.05C423.21,-366.03 378.39,-353.27 341.53,-342.79"/>
<polygon fill="black" stroke="black" points="342.43,-339.4 331.85,-340.03 340.51,-346.13 342.43,-339.4"/>
</g>
<!-- f_0_2701380342 -->
<g id="node4" class="node">
<title>f_0_2701380342</title>
<polygon fill="#1b9e77" stroke="black" points="500,-340 354,-340 354,-304 500,-304 500,-340"/>
<text text-anchor="middle" x="427" y="-318.3" font-family="Times,serif" font-size="14.00">fn_new_session_id</text>
</g>
<!-- f_0_3501109591&#45;&gt;f_0_2701380342 -->
<g id="edge3" class="edge">
<title>f_0_3501109591&#45;&gt;f_0_2701380342</title>
<path fill="none" stroke="black" d="M495.51,-375.7C484.04,-366.88 469.94,-356.03 457.52,-346.47"/>
<polygon fill="black" stroke="black" points="459.3,-343.43 449.24,-340.1 455.03,-348.98 459.3,-343.43"/>
</g>
<!-- f_0_832704911 -->
<g id="node5" class="node">
<title>f_0_832704911</title>
<polygon fill="#d95f02" stroke="black" points="702,-340 518,-340 518,-304 702,-304 702,-340"/>
<text text-anchor="middle" x="610" y="-318.3" font-family="Times,serif" font-size="14.00">fn_append_cipher_suite</text>
</g>
<!-- f_0_3501109591&#45;&gt;f_0_832704911 -->
<g id="edge4" class="edge">
<title>f_0_3501109591&#45;&gt;f_0_832704911</title>
<path fill="none" stroke="black" d="M540.74,-375.7C552.44,-366.8 566.86,-355.82 579.51,-346.2"/>
<polygon fill="black" stroke="black" points="581.68,-348.94 587.52,-340.1 577.44,-343.37 581.68,-348.94"/>
</g>
<!-- f_0_844786284 -->
<g id="node8" class="node">
<title>f_0_844786284</title>
<polygon fill="#1b9e77" stroke="black" points="855.5,-340 720.5,-340 720.5,-304 855.5,-304 855.5,-340"/>
<text text-anchor="middle" x="788" y="-318.3" font-family="Times,serif" font-size="14.00">fn_compressions</text>
</g>
<!-- f_0_3501109591&#45;&gt;f_0_844786284 -->
<g id="edge7" class="edge">
<title>f_0_3501109591&#45;&gt;f_0_844786284</title>
<path fill="none" stroke="black" d="M577.59,-377.55C617.35,-367.24 669.97,-353.6 712.64,-342.54"/>
<polygon fill="black" stroke="black" points="713.62,-345.9 722.42,-340 711.86,-339.12 713.62,-345.9"/>
</g>
<!-- f_0_4271881242 -->
<g id="node9" class="node">
<title>f_0_4271881242</title>
<polygon fill="#d95f02" stroke="black" points="1094,-340 874,-340 874,-304 1094,-304 1094,-340"/>
<text text-anchor="middle" x="984" y="-318.3" font-family="Times,serif" font-size="14.00">fn_client_extensions_append</text>
</g>
<!-- f_0_3501109591&#45;&gt;f_0_4271881242 -->
<g id="edge8" class="edge">
<title>f_0_3501109591&#45;&gt;f_0_4271881242</title>
<path fill="none" stroke="black" d="M577.97,-383.99C649.95,-373.18 772.41,-354.78 864.06,-341.02"/>
<polygon fill="black" stroke="black" points="864.59,-344.48 873.96,-339.53 863.55,-337.55 864.59,-344.48"/>
</g>
<!-- f_0_826002517 -->
<g id="node6" class="node">
<title>f_0_826002517</title>
<polygon fill="#1b9e77" stroke="black" points="404,-268 236,-268 236,-232 404,-232 404,-268"/>
<text text-anchor="middle" x="320" y="-246.3" font-family="Times,serif" font-size="14.00">fn_new_cipher_suites</text>
</g>
<!-- f_0_832704911&#45;&gt;f_0_826002517 -->
<g id="edge5" class="edge">
<title>f_0_832704911&#45;&gt;f_0_826002517</title>
<path fill="none" stroke="black" d="M539.43,-303.97C497.51,-293.85 444.21,-280.98 400.63,-270.46"/>
<polygon fill="black" stroke="black" points="401.18,-266.99 390.64,-268.05 399.54,-273.8 401.18,-266.99"/>
</g>
<!-- f_0_1769361525 -->
<g id="node7" class="node">
<title>f_0_1769361525</title>
<polygon fill="#1b9e77" stroke="black" points="565.5,-268 422.5,-268 422.5,-232 565.5,-232 565.5,-268"/>
<text text-anchor="middle" x="494" y="-246.3" font-family="Times,serif" font-size="14.00">fn_cipher_suite13</text>
</g>
<!-- f_0_832704911&#45;&gt;f_0_1769361525 -->
<g id="edge6" class="edge">
<title>f_0_832704911&#45;&gt;f_0_1769361525</title>
<path fill="none" stroke="black" d="M581.62,-303.88C566.46,-294.72 547.59,-283.34 531.26,-273.48"/>
<polygon fill="black" stroke="black" points="532.86,-270.36 522.49,-268.19 529.24,-276.35 532.86,-270.36"/>
</g>
<!-- f_0_353746323 -->
<g id="node10" class="node">
<title>f_0_353746323</title>
<polygon fill="#d95f02" stroke="black" points="804,-268 584,-268 584,-232 804,-232 804,-268"/>
<text text-anchor="middle" x="694" y="-246.3" font-family="Times,serif" font-size="14.00">fn_client_extensions_append</text>
</g>
<!-- f_0_4271881242&#45;&gt;f_0_353746323 -->
<g id="edge9" class="edge">
<title>f_0_4271881242&#45;&gt;f_0_353746323</title>
<path fill="none" stroke="black" d="M913.43,-303.97C871.51,-293.85 818.21,-280.98 774.63,-270.46"/>
<polygon fill="black" stroke="black" points="775.18,-266.99 764.64,-268.05 773.54,-273.8 775.18,-266.99"/>
</g>
<!-- f_0_1982939270 -->
<g id="node17" class="node">
<title>f_0_1982939270</title>
<polygon fill="#1b9e77" stroke="black" points="1093.5,-268 822.5,-268 822.5,-232 1093.5,-232 1093.5,-268"/>
<text text-anchor="middle" x="958" y="-246.3" font-family="Times,serif" font-size="14.00">fn_supported_versions13_extension</text>
</g>
<!-- f_0_4271881242&#45;&gt;f_0_1982939270 -->
<g id="edge16" class="edge">
<title>f_0_4271881242&#45;&gt;f_0_1982939270</title>
<path fill="none" stroke="black" d="M977.57,-303.7C974.64,-295.81 971.11,-286.3 967.86,-277.55"/>
<polygon fill="black" stroke="black" points="971.12,-276.26 964.35,-268.1 964.55,-278.7 971.12,-276.26"/>
</g>
<!-- f_0_278421940 -->
<g id="node11" class="node">
<title>f_0_278421940</title>
<polygon fill="#d95f02" stroke="black" points="693,-196 473,-196 473,-160 693,-160 693,-196"/>
<text text-anchor="middle" x="583" y="-174.3" font-family="Times,serif" font-size="14.00">fn_client_extensions_append</text>
</g>
<!-- f_0_353746323&#45;&gt;f_0_278421940 -->
<g id="edge10" class="edge">
<title>f_0_353746323&#45;&gt;f_0_278421940</title>
<path fill="none" stroke="black" d="M666.85,-231.88C652.47,-222.81 634.62,-211.55 619.09,-201.76"/>
<polygon fill="black" stroke="black" points="620.58,-198.56 610.26,-196.19 616.85,-204.48 620.58,-198.56"/>
</g>
<!-- f_0_4092719076 -->
<g id="node16" class="node">
<title>f_0_4092719076</title>
<polygon fill="#1b9e77" stroke="black" points="896.5,-196 711.5,-196 711.5,-160 896.5,-160 896.5,-196"/>
<text text-anchor="middle" x="804" y="-174.3" font-family="Times,serif" font-size="14.00">fn_key_share_extension</text>
</g>
<!-- f_0_353746323&#45;&gt;f_0_4092719076 -->
<g id="edge15" class="edge">
<title>f_0_353746323&#45;&gt;f_0_4092719076</title>
<path fill="none" stroke="black" d="M720.91,-231.88C735.16,-222.81 752.85,-211.55 768.24,-201.76"/>
<polygon fill="black" stroke="black" points="770.43,-204.51 776.99,-196.19 766.67,-198.61 770.43,-204.51"/>
</g>
<!-- f_0_483366865 -->
<g id="node12" class="node">
<title>f_0_483366865</title>
<polygon fill="#d95f02" stroke="black" points="581,-124 361,-124 361,-88 581,-88 581,-124"/>
<text text-anchor="middle" x="471" y="-102.3" font-family="Times,serif" font-size="14.00">fn_client_extensions_append</text>
</g>
<!-- f_0_278421940&#45;&gt;f_0_483366865 -->
<g id="edge11" class="edge">
<title>f_0_278421940&#45;&gt;f_0_483366865</title>
<path fill="none" stroke="black" d="M555.6,-159.88C541.09,-150.81 523.08,-139.55 507.41,-129.76"/>
<polygon fill="black" stroke="black" points="508.84,-126.52 498.5,-124.19 505.13,-132.46 508.84,-126.52"/>
</g>
<!-- f_0_508535778 -->
<g id="node15" class="node">
<title>f_0_508535778</title>
<polygon fill="#1b9e77" stroke="black" points="857,-124 599,-124 599,-88 857,-88 857,-124"/>
<text text-anchor="middle" x="728" y="-102.3" font-family="Times,serif" font-size="14.00">fn_signature_algorithm_extension</text>
</g>
<!-- f_0_278421940&#45;&gt;f_0_508535778 -->
<g id="edge14" class="edge">
<title>f_0_278421940&#45;&gt;f_0_508535778</title>
<path fill="none" stroke="black" d="M618.47,-159.88C638.12,-150.39 662.72,-138.51 683.63,-128.42"/>
<polygon fill="black" stroke="black" points="685.16,-131.57 692.64,-124.07 682.12,-125.26 685.16,-131.57"/>
</g>
<!-- f_0_1121862089 -->
<g id="node13" class="node">
<title>f_0_1121862089</title>
<polygon fill="#1b9e77" stroke="black" points="436.5,-52 239.5,-52 239.5,-16 436.5,-16 436.5,-52"/>
<text text-anchor="middle" x="338" y="-30.3" font-family="Times,serif" font-size="14.00">fn_client_extensions_new</text>
</g>
<!-- f_0_483366865&#45;&gt;f_0_1121862089 -->
<g id="edge12" class="edge">
<title>f_0_483366865&#45;&gt;f_0_1121862089</title>
<path fill="none" stroke="black" d="M438.46,-87.88C420.75,-78.55 398.65,-66.92 379.68,-56.94"/>
<polygon fill="black" stroke="black" points="381.14,-53.75 370.66,-52.19 377.88,-59.94 381.14,-53.75"/>
</g>
<!-- f_0_2496857680 -->
<g id="node14" class="node">
<title>f_0_2496857680</title>
<polygon fill="#1b9e77" stroke="black" points="753.5,-52 454.5,-52 454.5,-16 753.5,-16 753.5,-52"/>
<text text-anchor="middle" x="604" y="-30.3" font-family="Times,serif" font-size="14.00">fn_secp384r1_support_group_extension</text>
</g>
<!-- f_0_483366865&#45;&gt;f_0_2496857680 -->
<g id="edge13" class="edge">
<title>f_0_483366865&#45;&gt;f_0_2496857680</title>
<path fill="none" stroke="black" d="M503.54,-87.88C521.25,-78.55 543.35,-66.92 562.32,-56.94"/>
<polygon fill="black" stroke="black" points="564.12,-59.94 571.34,-52.19 560.86,-53.75 564.12,-59.94"/>
</g>
</g>
</svg>
