<?xml version="1.0" encoding="UTF-8" standalone="no"?>
<!DOCTYPE svg PUBLIC "-//W3C//DTD SVG 1.1//EN"
 "http://www.w3.org/Graphics/SVG/1.1/DTD/svg11.dtd">
<!-- Generated by graphviz version 2.47.2 (0)
 -->
<!-- Title: Trace Pages: 1 -->
<svg width="2544pt" height="1251pt"
 viewBox="0.00 0.00 2544.00 1251.00" xmlns="http://www.w3.org/2000/svg" xmlns:xlink="http://www.w3.org/1999/xlink">
<g id="graph0" class="graph" transform="scale(1 1) rotate(0) translate(4 1247)">
<title>Trace</title>
<polygon fill="white" stroke="transparent" points="-4,4 -4,-1247 2540,-1247 2540,4 -4,4"/>
<g id="clust1" class="cluster">
<title>cluster0</title>
<polygon fill="none" stroke="black" points="8,-656 8,-1235 949,-1235 949,-656 8,-656"/>
<text text-anchor="middle" x="478.5" y="-1219.8" font-family="Times,serif" font-size="14.00">Step #0 (Agent &#160;1)</text>
</g>
<g id="clust2" class="cluster">
<title>cluster1</title>
<polygon fill="none" stroke="black" points="957,-1160 957,-1235 1145,-1235 1145,-1160 957,-1160"/>
<text text-anchor="middle" x="1051" y="-1219.8" font-family="Times,serif" font-size="14.00">Step #1 (Agent &#160;1) &#45; (0,)</text>
</g>
<g id="clust3" class="cluster">
<title>cluster2</title>
<polygon fill="none" stroke="black" points="1153,-944 1153,-1235 1357,-1235 1357,-944 1153,-944"/>
<text text-anchor="middle" x="1255" y="-1219.8" font-family="Times,serif" font-size="14.00">Step #2 (Agent &#160;1)</text>
</g>
<g id="clust4" class="cluster">
<title>cluster3</title>
<polygon fill="none" stroke="black" points="1365,-1160 1365,-1235 1579,-1235 1579,-1160 1365,-1160"/>
<text text-anchor="middle" x="1472" y="-1219.8" font-family="Times,serif" font-size="14.00">Step #3 (Agent &#160;1)</text>
</g>
<g id="clust5" class="cluster">
<title>cluster4</title>
<polygon fill="none" stroke="black" points="1587,-8 1587,-1235 2528,-1235 2528,-8 1587,-8"/>
<text text-anchor="middle" x="2057.5" y="-1219.8" font-family="Times,serif" font-size="14.00">Step #4 (Agent &#160;1)</text>
</g>
<!-- func_0_2239591648 -->
<g id="node1" class="node">
<title>func_0_2239591648</title>
<polygon fill="#d95f02" stroke="black" points="506.5,-1204 387.5,-1204 387.5,-1168 506.5,-1168 506.5,-1204"/>
<text text-anchor="middle" x="447" y="-1182.3" font-family="Times,serif" font-size="14.00">fn_client_hello</text>
</g>
<!-- func_0_914420429 -->
<g id="node2" class="node">
<title>func_0_914420429</title>
<polygon fill="#1b9e77" stroke="black" points="189.5,-1132 16.5,-1132 16.5,-1096 189.5,-1096 189.5,-1132"/>
<text text-anchor="middle" x="103" y="-1110.3" font-family="Times,serif" font-size="14.00">fn_protocol_version12</text>
</g>
<!-- func_0_2239591648&#45;&#45;func_0_914420429 -->
<g id="edge1" class="edge">
<title>func_0_2239591648&#45;&#45;func_0_914420429</title>
<path fill="none" stroke="black" d="M387.47,-1172.89C331.99,-1161.6 248.72,-1144.65 186.58,-1132.01"/>
</g>
<!-- func_0_642876691 -->
<g id="node3" class="node">
<title>func_0_642876691</title>
<polygon fill="#1b9e77" stroke="black" points="300,-1132 208,-1132 208,-1096 300,-1096 300,-1132"/>
<text text-anchor="middle" x="254" y="-1110.3" font-family="Times,serif" font-size="14.00">fn_random</text>
</g>
<!-- func_0_2239591648&#45;&#45;func_0_642876691 -->
<g id="edge2" class="edge">
<title>func_0_2239591648&#45;&#45;func_0_642876691</title>
<path fill="none" stroke="black" d="M399.79,-1167.88C369.43,-1156.87 330.18,-1142.63 300.06,-1131.71"/>
</g>
<!-- func_0_3082381575 -->
<g id="node4" class="node">
<title>func_0_3082381575</title>
<polygon fill="#1b9e77" stroke="black" points="428,-1132 318,-1132 318,-1096 428,-1096 428,-1132"/>
<text text-anchor="middle" x="373" y="-1110.3" font-family="Times,serif" font-size="14.00">fn_session_id</text>
</g>
<!-- func_0_2239591648&#45;&#45;func_0_3082381575 -->
<g id="edge3" class="edge">
<title>func_0_2239591648&#45;&#45;func_0_3082381575</title>
<path fill="none" stroke="black" d="M428.71,-1167.7C417.24,-1156.85 402.51,-1142.92 391.08,-1132.1"/>
</g>
<!-- func_0_2258858467 -->
<g id="node5" class="node">
<title>func_0_2258858467</title>
<polygon fill="#1b9e77" stroke="black" points="596,-1132 446,-1132 446,-1096 596,-1096 596,-1132"/>
<text text-anchor="middle" x="521" y="-1110.3" font-family="Times,serif" font-size="14.00">fn_cipher_suites12</text>
</g>
<!-- func_0_2239591648&#45;&#45;func_0_2258858467 -->
<g id="edge4" class="edge">
<title>func_0_2239591648&#45;&#45;func_0_2258858467</title>
<path fill="none" stroke="black" d="M465.29,-1167.7C476.76,-1156.85 491.49,-1142.92 502.92,-1132.1"/>
</g>
<!-- func_0_235622073 -->
<g id="node6" class="node">
<title>func_0_235622073</title>
<polygon fill="#1b9e77" stroke="black" points="749.5,-1132 614.5,-1132 614.5,-1096 749.5,-1096 749.5,-1132"/>
<text text-anchor="middle" x="682" y="-1110.3" font-family="Times,serif" font-size="14.00">fn_compressions</text>
</g>
<!-- func_0_2239591648&#45;&#45;func_0_235622073 -->
<g id="edge5" class="edge">
<title>func_0_2239591648&#45;&#45;func_0_235622073</title>
<path fill="none" stroke="black" d="M504.19,-1167.97C540.73,-1157.08 587.96,-1143.01 624.56,-1132.11"/>
</g>
<!-- func_0_3171392492 -->
<g id="node7" class="node">
<title>func_0_3171392492</title>
<polygon fill="#d95f02" stroke="black" points="940.5,-1132 767.5,-1132 767.5,-1096 940.5,-1096 940.5,-1132"/>
<text text-anchor="middle" x="854" y="-1110.3" font-family="Times,serif" font-size="14.00">fn_extensions_append</text>
</g>
<!-- func_0_2239591648&#45;&#45;func_0_3171392492 -->
<g id="edge6" class="edge">
<title>func_0_2239591648&#45;&#45;func_0_3171392492</title>
<path fill="none" stroke="black" d="M506.62,-1174.75C575.29,-1162.94 688.7,-1143.43 767.17,-1129.93"/>
</g>
<!-- func_0_1888125051 -->
<g id="node8" class="node">
<title>func_0_1888125051</title>
<polygon fill="#d95f02" stroke="black" points="724.5,-1060 551.5,-1060 551.5,-1024 724.5,-1024 724.5,-1060"/>
<text text-anchor="middle" x="638" y="-1038.3" font-family="Times,serif" font-size="14.00">fn_extensions_append</text>
</g>
<!-- func_0_3171392492&#45;&#45;func_0_1888125051 -->
<g id="edge7" class="edge">
<title>func_0_3171392492&#45;&#45;func_0_1888125051</title>
<path fill="none" stroke="black" d="M801.44,-1095.97C767.84,-1085.08 724.44,-1071.01 690.8,-1060.11"/>
</g>
<!-- func_0_1331943644 -->
<g id="node19" class="node">
<title>func_0_1331943644</title>
<polygon fill="#d95f02" stroke="black" points="939.5,-1060 772.5,-1060 772.5,-1024 939.5,-1024 939.5,-1060"/>
<text text-anchor="middle" x="856" y="-1038.3" font-family="Times,serif" font-size="14.00">fn_renegotiation_info</text>
</g>
<!-- func_0_3171392492&#45;&#45;func_0_1331943644 -->
<g id="edge18" class="edge">
<title>func_0_3171392492&#45;&#45;func_0_1331943644</title>
<path fill="none" stroke="black" d="M854.49,-1095.7C854.8,-1084.85 855.2,-1070.92 855.51,-1060.1"/>
</g>
<!-- func_0_3108917396 -->
<g id="node9" class="node">
<title>func_0_3108917396</title>
<polygon fill="#d95f02" stroke="black" points="495.5,-988 322.5,-988 322.5,-952 495.5,-952 495.5,-988"/>
<text text-anchor="middle" x="409" y="-966.3" font-family="Times,serif" font-size="14.00">fn_extensions_append</text>
</g>
<!-- func_0_1888125051&#45;&#45;func_0_3108917396 -->
<g id="edge8" class="edge">
<title>func_0_1888125051&#45;&#45;func_0_3108917396</title>
<path fill="none" stroke="black" d="M582.27,-1023.97C546.66,-1013.08 500.64,-999.01 464.98,-988.11"/>
</g>
<!-- func_0_2922163864 -->
<g id="node18" class="node">
<title>func_0_2922163864</title>
<polygon fill="#1b9e77" stroke="black" points="762,-988 514,-988 514,-952 762,-952 762,-988"/>
<text text-anchor="middle" x="638" y="-966.3" font-family="Times,serif" font-size="14.00">fn_signed_certificate_timestamp</text>
</g>
<!-- func_0_1888125051&#45;&#45;func_0_2922163864 -->
<g id="edge17" class="edge">
<title>func_0_1888125051&#45;&#45;func_0_2922163864</title>
<path fill="none" stroke="black" d="M638,-1023.7C638,-1012.85 638,-998.92 638,-988.1"/>
</g>
<!-- func_0_3364013482 -->
<g id="node10" class="node">
<title>func_0_3364013482</title>
<polygon fill="#d95f02" stroke="black" points="470.5,-916 297.5,-916 297.5,-880 470.5,-880 470.5,-916"/>
<text text-anchor="middle" x="384" y="-894.3" font-family="Times,serif" font-size="14.00">fn_extensions_append</text>
</g>
<!-- func_0_3108917396&#45;&#45;func_0_3364013482 -->
<g id="edge9" class="edge">
<title>func_0_3108917396&#45;&#45;func_0_3364013482</title>
<path fill="none" stroke="black" d="M402.82,-951.7C398.95,-940.85 393.97,-926.92 390.11,-916.1"/>
</g>
<!-- func_0_3096060353 -->
<g id="node17" class="node">
<title>func_0_3096060353</title>
<polygon fill="#1b9e77" stroke="black" points="781.5,-916 488.5,-916 488.5,-880 781.5,-880 781.5,-916"/>
<text text-anchor="middle" x="635" y="-894.3" font-family="Times,serif" font-size="14.00">fn_signature_algorithm_cert_extension</text>
</g>
<!-- func_0_3108917396&#45;&#45;func_0_3096060353 -->
<g id="edge16" class="edge">
<title>func_0_3108917396&#45;&#45;func_0_3096060353</title>
<path fill="none" stroke="black" d="M464,-951.97C499.14,-941.08 544.56,-927.01 579.76,-916.11"/>
</g>
<!-- func_0_901087608 -->
<g id="node11" class="node">
<title>func_0_901087608</title>
<polygon fill="#d95f02" stroke="black" points="420.5,-844 247.5,-844 247.5,-808 420.5,-808 420.5,-844"/>
<text text-anchor="middle" x="334" y="-822.3" font-family="Times,serif" font-size="14.00">fn_extensions_append</text>
</g>
<!-- func_0_3364013482&#45;&#45;func_0_901087608 -->
<g id="edge10" class="edge">
<title>func_0_3364013482&#45;&#45;func_0_901087608</title>
<path fill="none" stroke="black" d="M371.64,-879.7C363.89,-868.85 353.94,-854.92 346.22,-844.1"/>
</g>
<!-- func_0_497107333 -->
<g id="node16" class="node">
<title>func_0_497107333</title>
<polygon fill="#1b9e77" stroke="black" points="597.5,-844 438.5,-844 438.5,-808 597.5,-808 597.5,-844"/>
<text text-anchor="middle" x="518" y="-822.3" font-family="Times,serif" font-size="14.00">fn_ec_point_formats</text>
</g>
<!-- func_0_3364013482&#45;&#45;func_0_497107333 -->
<g id="edge15" class="edge">
<title>func_0_3364013482&#45;&#45;func_0_497107333</title>
<path fill="none" stroke="black" d="M416.78,-879.88C437.55,-869.03 464.3,-855.05 485.09,-844.19"/>
</g>
<!-- func_0_3053621033 -->
<g id="node12" class="node">
<title>func_0_3053621033</title>
<polygon fill="#d95f02" stroke="black" points="320.5,-772 147.5,-772 147.5,-736 320.5,-736 320.5,-772"/>
<text text-anchor="middle" x="234" y="-750.3" font-family="Times,serif" font-size="14.00">fn_extensions_append</text>
</g>
<!-- func_0_901087608&#45;&#45;func_0_3053621033 -->
<g id="edge11" class="edge">
<title>func_0_901087608&#45;&#45;func_0_3053621033</title>
<path fill="none" stroke="black" d="M309.54,-807.88C294.04,-797.03 274.07,-783.05 258.56,-772.19"/>
</g>
<!-- func_0_3355021646 -->
<g id="node15" class="node">
<title>func_0_3355021646</title>
<polygon fill="#1b9e77" stroke="black" points="597,-772 339,-772 339,-736 597,-736 597,-772"/>
<text text-anchor="middle" x="468" y="-750.3" font-family="Times,serif" font-size="14.00">fn_signature_algorithm_extension</text>
</g>
<!-- func_0_901087608&#45;&#45;func_0_3355021646 -->
<g id="edge14" class="edge">
<title>func_0_901087608&#45;&#45;func_0_3355021646</title>
<path fill="none" stroke="black" d="M366.78,-807.88C387.55,-797.03 414.3,-783.05 435.09,-772.19"/>
</g>
<!-- func_0_3286324503 -->
<g id="node13" class="node">
<title>func_0_3286324503</title>
<polygon fill="#1b9e77" stroke="black" points="193,-700 43,-700 43,-664 193,-664 193,-700"/>
<text text-anchor="middle" x="118" y="-678.3" font-family="Times,serif" font-size="14.00">fn_extensions_new</text>
</g>
<!-- func_0_3053621033&#45;&#45;func_0_3286324503 -->
<g id="edge12" class="edge">
<title>func_0_3053621033&#45;&#45;func_0_3286324503</title>
<path fill="none" stroke="black" d="M205.62,-735.88C187.65,-725.03 164.48,-711.05 146.49,-700.19"/>
</g>
<!-- func_0_2320766406 -->
<g id="node14" class="node">
<title>func_0_2320766406</title>
<polygon fill="#1b9e77" stroke="black" points="489,-700 211,-700 211,-664 489,-664 489,-700"/>
<text text-anchor="middle" x="350" y="-678.3" font-family="Times,serif" font-size="14.00">fn_x25519_support_group_extension</text>
</g>
<!-- func_0_3053621033&#45;&#45;func_0_2320766406 -->
<g id="edge13" class="edge">
<title>func_0_3053621033&#45;&#45;func_0_2320766406</title>
<path fill="none" stroke="black" d="M262.38,-735.88C280.35,-725.03 303.52,-711.05 321.51,-700.19"/>
</g>
<!-- func_0_720481032 -->
<g id="node20" class="node">
<title>func_0_720481032</title>
<polygon fill="#1b9e77" stroke="black" points="939.5,-988 780.5,-988 780.5,-952 939.5,-952 939.5,-988"/>
<text text-anchor="middle" x="860" y="-966.3" font-family="Times,serif" font-size="14.00">fn_empty_bytes_vec</text>
</g>
<!-- func_0_1331943644&#45;&#45;func_0_720481032 -->
<g id="edge19" class="edge">
<title>func_0_1331943644&#45;&#45;func_0_720481032</title>
<path fill="none" stroke="black" d="M856.99,-1023.7C857.61,-1012.85 858.4,-998.92 859.02,-988.1"/>
</g>
<g id="node21" class="node">
<title></title>
<ellipse fill="none" stroke="transparent" cx="1051" cy="-1186" rx="27" ry="18"/>
</g>
<!-- func_2_1779755967 -->
<g id="node22" class="node">
<title>func_2_1779755967</title>
<polygon fill="#d95f02" stroke="black" points="1346.5,-1204 1163.5,-1204 1163.5,-1168 1346.5,-1168 1346.5,-1204"/>
<text text-anchor="middle" x="1255" y="-1182.3" font-family="Times,serif" font-size="14.00">fn_client_key_exchange</text>
</g>
<!-- func_2_3259410374 -->
<g id="node23" class="node">
<title>func_2_3259410374</title>
<polygon fill="#d95f02" stroke="black" points="1326.5,-1132 1183.5,-1132 1183.5,-1096 1326.5,-1096 1326.5,-1132"/>
<text text-anchor="middle" x="1255" y="-1110.3" font-family="Times,serif" font-size="14.00">fn_new_pubkey12</text>
</g>
<!-- func_2_1779755967&#45;&#45;func_2_3259410374 -->
<g id="edge20" class="edge">
<title>func_2_1779755967&#45;&#45;func_2_3259410374</title>
<path fill="none" stroke="black" d="M1255,-1167.7C1255,-1156.85 1255,-1142.92 1255,-1132.1"/>
</g>
<!-- func_2_866953466 -->
<g id="node24" class="node">
<title>func_2_866953466</title>
<polygon fill="#d95f02" stroke="black" points="1349,-1060 1161,-1060 1161,-1024 1349,-1024 1349,-1060"/>
<text text-anchor="middle" x="1255" y="-1038.3" font-family="Times,serif" font-size="14.00">fn_decode_ecdh_params</text>
</g>
<!-- func_2_3259410374&#45;&#45;func_2_866953466 -->
<g id="edge21" class="edge">
<title>func_2_3259410374&#45;&#45;func_2_866953466</title>
<path fill="none" stroke="black" d="M1255,-1095.7C1255,-1084.85 1255,-1070.92 1255,-1060.1"/>
</g>
<!-- var_2_3456240155 -->
<g id="node25" class="node">
<title>var_2_3456240155</title>
<ellipse fill="#1b9e77" stroke="black" cx="1255" cy="-970" rx="78.79" ry="18"/>
<text text-anchor="middle" x="1255" y="-966.3" font-family="Times,serif" font-size="14.00">(0,2)/Vec&lt;u8&gt;</text>
</g>
<!-- func_2_866953466&#45;&#45;var_2_3456240155 -->
<g id="edge22" class="edge">
<title>func_2_866953466&#45;&#45;var_2_3456240155</title>
<path fill="none" stroke="black" d="M1255,-1023.7C1255,-1012.85 1255,-998.92 1255,-988.1"/>
</g>
<!-- func_3_1353761725 -->
<g id="node26" class="node">
<title>func_3_1353761725</title>
<polygon fill="#1b9e77" stroke="black" points="1570.5,-1204 1373.5,-1204 1373.5,-1168 1570.5,-1168 1570.5,-1204"/>
<text text-anchor="middle" x="1472" y="-1182.3" font-family="Times,serif" font-size="14.00">fn_change_cipher_spec12</text>
</g>
<!-- func_4_1883721883 -->
<g id="node27" class="node">
<title>func_4_1883721883</title>
<polygon fill="#d95f02" stroke="black" points="2196,-1204 2086,-1204 2086,-1168 2196,-1168 2196,-1204"/>
<text text-anchor="middle" x="2141" y="-1182.3" font-family="Times,serif" font-size="14.00">fn_encrypt12</text>
</g>
<!-- func_4_3123440279 -->
<g id="node28" class="node">
<title>func_4_3123440279</title>
<polygon fill="#d95f02" stroke="black" points="1957.5,-1132 1844.5,-1132 1844.5,-1096 1957.5,-1096 1957.5,-1132"/>
<text text-anchor="middle" x="1901" y="-1110.3" font-family="Times,serif" font-size="14.00">fn_finished12</text>
</g>
<!-- func_4_1883721883&#45;&#45;func_4_3123440279 -->
<g id="edge23" class="edge">
<title>func_4_1883721883&#45;&#45;func_4_3123440279</title>
<path fill="none" stroke="black" d="M2085.94,-1168.94C2047.6,-1157.76 1996.62,-1142.89 1957.89,-1131.59"/>
</g>
<!-- var_4_984252926 -->
<g id="node68" class="node">
<title>var_4_984252926</title>
<ellipse fill="#1b9e77" stroke="black" cx="2049" cy="-1114" rx="73.39" ry="18"/>
<text text-anchor="middle" x="2049" y="-1110.3" font-family="Times,serif" font-size="14.00">(0,0)/Random</text>
</g>
<!-- func_4_1883721883&#45;&#45;var_4_984252926 -->
<g id="edge63" class="edge">
<title>func_4_1883721883&#45;&#45;var_4_984252926</title>
<path fill="none" stroke="black" d="M2118.26,-1167.7C2103.68,-1156.6 2084.87,-1142.29 2070.53,-1131.38"/>
</g>
<!-- func_4_1369504059 -->
<g id="node69" class="node">
<title>func_4_1369504059</title>
<polygon fill="#d95f02" stroke="black" points="2328,-1132 2140,-1132 2140,-1096 2328,-1096 2328,-1132"/>
<text text-anchor="middle" x="2234" y="-1110.3" font-family="Times,serif" font-size="14.00">fn_decode_ecdh_params</text>
</g>
<!-- func_4_1883721883&#45;&#45;func_4_1369504059 -->
<g id="edge64" class="edge">
<title>func_4_1883721883&#45;&#45;func_4_1369504059</title>
<path fill="none" stroke="black" d="M2163.99,-1167.7C2178.4,-1156.85 2196.91,-1142.92 2211.28,-1132.1"/>
</g>
<!-- func_4_1363831451 -->
<g id="node71" class="node">
<title>func_4_1363831451</title>
<polygon fill="#1b9e77" stroke="black" points="2424,-1132 2346,-1132 2346,-1096 2424,-1096 2424,-1132"/>
<text text-anchor="middle" x="2385" y="-1110.3" font-family="Times,serif" font-size="14.00">fn_seq_0</text>
</g>
<!-- func_4_1883721883&#45;&#45;func_4_1363831451 -->
<g id="edge66" class="edge">
<title>func_4_1883721883&#45;&#45;func_4_1363831451</title>
<path fill="none" stroke="black" d="M2196.06,-1169.2C2241.6,-1156.14 2305.17,-1137.9 2345.71,-1126.27"/>
</g>
<!-- func_4_849540766 -->
<g id="node29" class="node">
<title>func_4_849540766</title>
<polygon fill="#d95f02" stroke="black" points="1974,-1060 1828,-1060 1828,-1024 1974,-1024 1974,-1060"/>
<text text-anchor="middle" x="1901" y="-1038.3" font-family="Times,serif" font-size="14.00">fn_sign_transcript</text>
</g>
<!-- func_4_3123440279&#45;&#45;func_4_849540766 -->
<g id="edge24" class="edge">
<title>func_4_3123440279&#45;&#45;func_4_849540766</title>
<path fill="none" stroke="black" d="M1901,-1095.7C1901,-1084.85 1901,-1070.92 1901,-1060.1"/>
</g>
<!-- var_4_2628153553 -->
<g id="node30" class="node">
<title>var_4_2628153553</title>
<ellipse fill="#1b9e77" stroke="black" cx="1716" cy="-970" rx="73.39" ry="18"/>
<text text-anchor="middle" x="1716" y="-966.3" font-family="Times,serif" font-size="14.00">(0,0)/Random</text>
</g>
<!-- func_4_849540766&#45;&#45;var_4_2628153553 -->
<g id="edge25" class="edge">
<title>func_4_849540766&#45;&#45;var_4_2628153553</title>
<path fill="none" stroke="black" d="M1855.74,-1023.88C1824.62,-1012.1 1783.73,-996.63 1754.23,-985.47"/>
</g>
<!-- func_4_1588239537 -->
<g id="node31" class="node">
<title>func_4_1588239537</title>
<polygon fill="#d95f02" stroke="black" points="1995,-988 1807,-988 1807,-952 1995,-952 1995,-988"/>
<text text-anchor="middle" x="1901" y="-966.3" font-family="Times,serif" font-size="14.00">fn_decode_ecdh_params</text>
</g>
<!-- func_4_849540766&#45;&#45;func_4_1588239537 -->
<g id="edge26" class="edge">
<title>func_4_849540766&#45;&#45;func_4_1588239537</title>
<path fill="none" stroke="black" d="M1901,-1023.7C1901,-1012.85 1901,-998.92 1901,-988.1"/>
</g>
<!-- func_4_3424539065 -->
<g id="node33" class="node">
<title>func_4_3424539065</title>
<polygon fill="#d95f02" stroke="black" points="2181,-988 2013,-988 2013,-952 2181,-952 2181,-988"/>
<text text-anchor="middle" x="2097" y="-966.3" font-family="Times,serif" font-size="14.00">fn_append_transcript</text>
</g>
<!-- func_4_849540766&#45;&#45;func_4_3424539065 -->
<g id="edge28" class="edge">
<title>func_4_849540766&#45;&#45;func_4_3424539065</title>
<path fill="none" stroke="black" d="M1948.7,-1023.97C1979.18,-1013.08 2018.57,-999.01 2049.09,-988.11"/>
</g>
<!-- var_4_3918696096 -->
<g id="node32" class="node">
<title>var_4_3918696096</title>
<ellipse fill="#1b9e77" stroke="black" cx="1901" cy="-898" rx="78.79" ry="18"/>
<text text-anchor="middle" x="1901" y="-894.3" font-family="Times,serif" font-size="14.00">(0,2)/Vec&lt;u8&gt;</text>
</g>
<!-- func_4_1588239537&#45;&#45;var_4_3918696096 -->
<g id="edge27" class="edge">
<title>func_4_1588239537&#45;&#45;var_4_3918696096</title>
<path fill="none" stroke="black" d="M1901,-951.7C1901,-940.85 1901,-926.92 1901,-916.1"/>
</g>
<!-- func_4_3834327547 -->
<g id="node34" class="node">
<title>func_4_3834327547</title>
<polygon fill="#d95f02" stroke="black" points="2173,-916 2005,-916 2005,-880 2173,-880 2173,-916"/>
<text text-anchor="middle" x="2089" y="-894.3" font-family="Times,serif" font-size="14.00">fn_append_transcript</text>
</g>
<!-- func_4_3424539065&#45;&#45;func_4_3834327547 -->
<g id="edge29" class="edge">
<title>func_4_3424539065&#45;&#45;func_4_3834327547</title>
<path fill="none" stroke="black" d="M2095.02,-951.7C2093.78,-940.85 2092.19,-926.92 2090.95,-916.1"/>
</g>
<!-- func_4_1600573893 -->
<g id="node64" class="node">
<title>func_4_1600573893</title>
<polygon fill="#d95f02" stroke="black" points="2374.5,-916 2191.5,-916 2191.5,-880 2374.5,-880 2374.5,-916"/>
<text text-anchor="middle" x="2283" y="-894.3" font-family="Times,serif" font-size="14.00">fn_client_key_exchange</text>
</g>
<!-- func_4_3424539065&#45;&#45;func_4_1600573893 -->
<g id="edge59" class="edge">
<title>func_4_3424539065&#45;&#45;func_4_1600573893</title>
<path fill="none" stroke="black" d="M2142.5,-951.88C2171.43,-940.99 2208.75,-926.95 2237.65,-916.07"/>
</g>
<!-- func_4_3479221792 -->
<g id="node35" class="node">
<title>func_4_3479221792</title>
<polygon fill="#d95f02" stroke="black" points="1998,-844 1830,-844 1830,-808 1998,-808 1998,-844"/>
<text text-anchor="middle" x="1914" y="-822.3" font-family="Times,serif" font-size="14.00">fn_append_transcript</text>
</g>
<!-- func_4_3834327547&#45;&#45;func_4_3479221792 -->
<g id="edge30" class="edge">
<title>func_4_3834327547&#45;&#45;func_4_3479221792</title>
<path fill="none" stroke="black" d="M2046.19,-879.88C2018.97,-868.99 1983.86,-854.95 1956.67,-844.07"/>
</g>
<!-- var_4_3946139663 -->
<g id="node63" class="node">
<title>var_4_3946139663</title>
<ellipse fill="#1b9e77" stroke="black" cx="2092" cy="-826" rx="76.09" ry="18"/>
<text text-anchor="middle" x="2092" y="-822.3" font-family="Times,serif" font-size="14.00">(0,3)/Message</text>
</g>
<!-- func_4_3834327547&#45;&#45;var_4_3946139663 -->
<g id="edge58" class="edge">
<title>func_4_3834327547&#45;&#45;var_4_3946139663</title>
<path fill="none" stroke="black" d="M2089.74,-879.7C2090.21,-868.85 2090.8,-854.92 2091.27,-844.1"/>
</g>
<!-- func_4_1646405339 -->
<g id="node36" class="node">
<title>func_4_1646405339</title>
<polygon fill="#d95f02" stroke="black" points="1990,-772 1822,-772 1822,-736 1990,-736 1990,-772"/>
<text text-anchor="middle" x="1906" y="-750.3" font-family="Times,serif" font-size="14.00">fn_append_transcript</text>
</g>
<!-- func_4_3479221792&#45;&#45;func_4_1646405339 -->
<g id="edge31" class="edge">
<title>func_4_3479221792&#45;&#45;func_4_1646405339</title>
<path fill="none" stroke="black" d="M1912.02,-807.7C1910.78,-796.85 1909.19,-782.92 1907.95,-772.1"/>
</g>
<!-- var_4_1409831091 -->
<g id="node62" class="node">
<title>var_4_1409831091</title>
<ellipse fill="#1b9e77" stroke="black" cx="2084" cy="-754" rx="76.09" ry="18"/>
<text text-anchor="middle" x="2084" y="-750.3" font-family="Times,serif" font-size="14.00">(0,2)/Message</text>
</g>
<!-- func_4_3479221792&#45;&#45;var_4_1409831091 -->
<g id="edge57" class="edge">
<title>func_4_3479221792&#45;&#45;var_4_1409831091</title>
<path fill="none" stroke="black" d="M1955.59,-807.88C1983.8,-796.26 2020.73,-781.05 2047.74,-769.93"/>
</g>
<!-- func_4_2970924952 -->
<g id="node37" class="node">
<title>func_4_2970924952</title>
<polygon fill="#d95f02" stroke="black" points="1975,-700 1807,-700 1807,-664 1975,-664 1975,-700"/>
<text text-anchor="middle" x="1891" y="-678.3" font-family="Times,serif" font-size="14.00">fn_append_transcript</text>
</g>
<!-- func_4_1646405339&#45;&#45;func_4_2970924952 -->
<g id="edge32" class="edge">
<title>func_4_1646405339&#45;&#45;func_4_2970924952</title>
<path fill="none" stroke="black" d="M1902.29,-735.7C1899.97,-724.85 1896.98,-710.92 1894.67,-700.1"/>
</g>
<!-- var_4_807024760 -->
<g id="node61" class="node">
<title>var_4_807024760</title>
<ellipse fill="#1b9e77" stroke="black" cx="2069" cy="-682" rx="76.09" ry="18"/>
<text text-anchor="middle" x="2069" y="-678.3" font-family="Times,serif" font-size="14.00">(0,1)/Message</text>
</g>
<!-- func_4_1646405339&#45;&#45;var_4_807024760 -->
<g id="edge56" class="edge">
<title>func_4_1646405339&#45;&#45;var_4_807024760</title>
<path fill="none" stroke="black" d="M1945.87,-735.88C1972.83,-724.3 2008.09,-709.16 2033.97,-698.05"/>
</g>
<!-- func_4_2343402043 -->
<g id="node38" class="node">
<title>func_4_2343402043</title>
<polygon fill="#d95f02" stroke="black" points="1945,-628 1777,-628 1777,-592 1945,-592 1945,-628"/>
<text text-anchor="middle" x="1861" y="-606.3" font-family="Times,serif" font-size="14.00">fn_append_transcript</text>
</g>
<!-- func_4_2970924952&#45;&#45;func_4_2343402043 -->
<g id="edge33" class="edge">
<title>func_4_2970924952&#45;&#45;func_4_2343402043</title>
<path fill="none" stroke="black" d="M1883.58,-663.7C1878.93,-652.85 1872.96,-638.92 1868.33,-628.1"/>
</g>
<!-- var_4_2897363836 -->
<g id="node60" class="node">
<title>var_4_2897363836</title>
<ellipse fill="#1b9e77" stroke="black" cx="2039" cy="-610" rx="76.09" ry="18"/>
<text text-anchor="middle" x="2039" y="-606.3" font-family="Times,serif" font-size="14.00">(0,0)/Message</text>
</g>
<!-- func_4_2970924952&#45;&#45;var_4_2897363836 -->
<g id="edge55" class="edge">
<title>func_4_2970924952&#45;&#45;var_4_2897363836</title>
<path fill="none" stroke="black" d="M1927.2,-663.88C1951.34,-652.46 1982.8,-637.58 2006.2,-626.51"/>
</g>
<!-- func_4_1661579958 -->
<g id="node39" class="node">
<title>func_4_1661579958</title>
<polygon fill="#1b9e77" stroke="black" points="1934.5,-556 1771.5,-556 1771.5,-520 1934.5,-520 1934.5,-556"/>
<text text-anchor="middle" x="1853" y="-534.3" font-family="Times,serif" font-size="14.00">fn_new_transcript12</text>
</g>
<!-- func_4_2343402043&#45;&#45;func_4_1661579958 -->
<g id="edge34" class="edge">
<title>func_4_2343402043&#45;&#45;func_4_1661579958</title>
<path fill="none" stroke="black" d="M1859.02,-591.7C1857.78,-580.85 1856.19,-566.92 1854.95,-556.1"/>
</g>
<!-- func_4_4120113842 -->
<g id="node40" class="node">
<title>func_4_4120113842</title>
<polygon fill="#d95f02" stroke="black" points="2071.5,-556 1952.5,-556 1952.5,-520 2071.5,-520 2071.5,-556"/>
<text text-anchor="middle" x="2012" y="-534.3" font-family="Times,serif" font-size="14.00">fn_client_hello</text>
</g>
<!-- func_4_2343402043&#45;&#45;func_4_4120113842 -->
<g id="edge35" class="edge">
<title>func_4_2343402043&#45;&#45;func_4_4120113842</title>
<path fill="none" stroke="black" d="M1897.94,-591.88C1921.43,-580.99 1951.72,-566.95 1975.18,-556.07"/>
</g>
<!-- func_4_2362393546 -->
<g id="node41" class="node">
<title>func_4_2362393546</title>
<polygon fill="#1b9e77" stroke="black" points="1768.5,-484 1595.5,-484 1595.5,-448 1768.5,-448 1768.5,-484"/>
<text text-anchor="middle" x="1682" y="-462.3" font-family="Times,serif" font-size="14.00">fn_protocol_version12</text>
</g>
<!-- func_4_4120113842&#45;&#45;func_4_2362393546 -->
<g id="edge36" class="edge">
<title>func_4_4120113842&#45;&#45;func_4_2362393546</title>
<path fill="none" stroke="black" d="M1952.24,-524.32C1899.12,-513.06 1821.02,-496.49 1762.43,-484.06"/>
</g>
<!-- func_4_2338399430 -->
<g id="node42" class="node">
<title>func_4_2338399430</title>
<polygon fill="#1b9e77" stroke="black" points="1879,-484 1787,-484 1787,-448 1879,-448 1879,-484"/>
<text text-anchor="middle" x="1833" y="-462.3" font-family="Times,serif" font-size="14.00">fn_random</text>
</g>
<!-- func_4_4120113842&#45;&#45;func_4_2338399430 -->
<g id="edge37" class="edge">
<title>func_4_4120113842&#45;&#45;func_4_2338399430</title>
<path fill="none" stroke="black" d="M1968.21,-519.88C1940.37,-508.99 1904.46,-494.95 1876.65,-484.07"/>
</g>
<!-- func_4_4219110925 -->
<g id="node43" class="node">
<title>func_4_4219110925</title>
<polygon fill="#1b9e77" stroke="black" points="2007,-484 1897,-484 1897,-448 2007,-448 2007,-484"/>
<text text-anchor="middle" x="1952" y="-462.3" font-family="Times,serif" font-size="14.00">fn_session_id</text>
</g>
<!-- func_4_4120113842&#45;&#45;func_4_4219110925 -->
<g id="edge38" class="edge">
<title>func_4_4120113842&#45;&#45;func_4_4219110925</title>
<path fill="none" stroke="black" d="M1997.17,-519.7C1987.87,-508.85 1975.93,-494.92 1966.66,-484.1"/>
</g>
<!-- func_4_50273469 -->
<g id="node44" class="node">
<title>func_4_50273469</title>
<polygon fill="#1b9e77" stroke="black" points="2175,-484 2025,-484 2025,-448 2175,-448 2175,-484"/>
<text text-anchor="middle" x="2100" y="-462.3" font-family="Times,serif" font-size="14.00">fn_cipher_suites12</text>
</g>
<!-- func_4_4120113842&#45;&#45;func_4_50273469 -->
<g id="edge39" class="edge">
<title>func_4_4120113842&#45;&#45;func_4_50273469</title>
<path fill="none" stroke="black" d="M2033.75,-519.7C2047.39,-508.85 2064.9,-494.92 2078.5,-484.1"/>
</g>
<!-- func_4_3337344755 -->
<g id="node45" class="node">
<title>func_4_3337344755</title>
<polygon fill="#1b9e77" stroke="black" points="2328.5,-484 2193.5,-484 2193.5,-448 2328.5,-448 2328.5,-484"/>
<text text-anchor="middle" x="2261" y="-462.3" font-family="Times,serif" font-size="14.00">fn_compressions</text>
</g>
<!-- func_4_4120113842&#45;&#45;func_4_3337344755 -->
<g id="edge40" class="edge">
<title>func_4_4120113842&#45;&#45;func_4_3337344755</title>
<path fill="none" stroke="black" d="M2071.64,-520.23C2110.49,-509.31 2161.02,-495.11 2200.12,-484.12"/>
</g>
<!-- func_4_3064354890 -->
<g id="node46" class="node">
<title>func_4_3064354890</title>
<polygon fill="#d95f02" stroke="black" points="2519.5,-484 2346.5,-484 2346.5,-448 2519.5,-448 2519.5,-484"/>
<text text-anchor="middle" x="2433" y="-462.3" font-family="Times,serif" font-size="14.00">fn_extensions_append</text>
</g>
<!-- func_4_4120113842&#45;&#45;func_4_3064354890 -->
<g id="edge41" class="edge">
<title>func_4_4120113842&#45;&#45;func_4_3064354890</title>
<path fill="none" stroke="black" d="M2071.87,-527.05C2143.61,-515.12 2264.36,-495.04 2346.29,-481.42"/>
</g>
<!-- func_4_1395481766 -->
<g id="node47" class="node">
<title>func_4_1395481766</title>
<polygon fill="#d95f02" stroke="black" points="2303.5,-412 2130.5,-412 2130.5,-376 2303.5,-376 2303.5,-412"/>
<text text-anchor="middle" x="2217" y="-390.3" font-family="Times,serif" font-size="14.00">fn_extensions_append</text>
</g>
<!-- func_4_3064354890&#45;&#45;func_4_1395481766 -->
<g id="edge42" class="edge">
<title>func_4_3064354890&#45;&#45;func_4_1395481766</title>
<path fill="none" stroke="black" d="M2380.44,-447.97C2346.84,-437.08 2303.44,-423.01 2269.8,-412.11"/>
</g>
<!-- func_4_3787239046 -->
<g id="node58" class="node">
<title>func_4_3787239046</title>
<polygon fill="#d95f02" stroke="black" points="2518.5,-412 2351.5,-412 2351.5,-376 2518.5,-376 2518.5,-412"/>
<text text-anchor="middle" x="2435" y="-390.3" font-family="Times,serif" font-size="14.00">fn_renegotiation_info</text>
</g>
<!-- func_4_3064354890&#45;&#45;func_4_3787239046 -->
<g id="edge53" class="edge">
<title>func_4_3064354890&#45;&#45;func_4_3787239046</title>
<path fill="none" stroke="black" d="M2433.49,-447.7C2433.8,-436.85 2434.2,-422.92 2434.51,-412.1"/>
</g>
<!-- func_4_259143909 -->
<g id="node48" class="node">
<title>func_4_259143909</title>
<polygon fill="#d95f02" stroke="black" points="2074.5,-340 1901.5,-340 1901.5,-304 2074.5,-304 2074.5,-340"/>
<text text-anchor="middle" x="1988" y="-318.3" font-family="Times,serif" font-size="14.00">fn_extensions_append</text>
</g>
<!-- func_4_1395481766&#45;&#45;func_4_259143909 -->
<g id="edge43" class="edge">
<title>func_4_1395481766&#45;&#45;func_4_259143909</title>
<path fill="none" stroke="black" d="M2161.27,-375.97C2125.66,-365.08 2079.64,-351.01 2043.98,-340.11"/>
</g>
<!-- func_4_1903976012 -->
<g id="node57" class="node">
<title>func_4_1903976012</title>
<polygon fill="#1b9e77" stroke="black" points="2341,-340 2093,-340 2093,-304 2341,-304 2341,-340"/>
<text text-anchor="middle" x="2217" y="-318.3" font-family="Times,serif" font-size="14.00">fn_signed_certificate_timestamp</text>
</g>
<!-- func_4_1395481766&#45;&#45;func_4_1903976012 -->
<g id="edge52" class="edge">
<title>func_4_1395481766&#45;&#45;func_4_1903976012</title>
<path fill="none" stroke="black" d="M2217,-375.7C2217,-364.85 2217,-350.92 2217,-340.1"/>
</g>
<!-- func_4_2878468447 -->
<g id="node49" class="node">
<title>func_4_2878468447</title>
<polygon fill="#d95f02" stroke="black" points="2049.5,-268 1876.5,-268 1876.5,-232 2049.5,-232 2049.5,-268"/>
<text text-anchor="middle" x="1963" y="-246.3" font-family="Times,serif" font-size="14.00">fn_extensions_append</text>
</g>
<!-- func_4_259143909&#45;&#45;func_4_2878468447 -->
<g id="edge44" class="edge">
<title>func_4_259143909&#45;&#45;func_4_2878468447</title>
<path fill="none" stroke="black" d="M1981.82,-303.7C1977.95,-292.85 1972.97,-278.92 1969.11,-268.1"/>
</g>
<!-- func_4_2598575104 -->
<g id="node56" class="node">
<title>func_4_2598575104</title>
<polygon fill="#1b9e77" stroke="black" points="2360.5,-268 2067.5,-268 2067.5,-232 2360.5,-232 2360.5,-268"/>
<text text-anchor="middle" x="2214" y="-246.3" font-family="Times,serif" font-size="14.00">fn_signature_algorithm_cert_extension</text>
</g>
<!-- func_4_259143909&#45;&#45;func_4_2598575104 -->
<g id="edge51" class="edge">
<title>func_4_259143909&#45;&#45;func_4_2598575104</title>
<path fill="none" stroke="black" d="M2043,-303.97C2078.14,-293.08 2123.56,-279.01 2158.76,-268.11"/>
</g>
<!-- func_4_633998635 -->
<g id="node50" class="node">
<title>func_4_633998635</title>
<polygon fill="#d95f02" stroke="black" points="1999.5,-196 1826.5,-196 1826.5,-160 1999.5,-160 1999.5,-196"/>
<text text-anchor="middle" x="1913" y="-174.3" font-family="Times,serif" font-size="14.00">fn_extensions_append</text>
</g>
<!-- func_4_2878468447&#45;&#45;func_4_633998635 -->
<g id="edge45" class="edge">
<title>func_4_2878468447&#45;&#45;func_4_633998635</title>
<path fill="none" stroke="black" d="M1950.64,-231.7C1942.89,-220.85 1932.94,-206.92 1925.22,-196.1"/>
</g>
<!-- func_4_3293171752 -->
<g id="node55" class="node">
<title>func_4_3293171752</title>
<polygon fill="#1b9e77" stroke="black" points="2176.5,-196 2017.5,-196 2017.5,-160 2176.5,-160 2176.5,-196"/>
<text text-anchor="middle" x="2097" y="-174.3" font-family="Times,serif" font-size="14.00">fn_ec_point_formats</text>
</g>
<!-- func_4_2878468447&#45;&#45;func_4_3293171752 -->
<g id="edge50" class="edge">
<title>func_4_2878468447&#45;&#45;func_4_3293171752</title>
<path fill="none" stroke="black" d="M1995.78,-231.88C2016.55,-221.03 2043.3,-207.05 2064.09,-196.19"/>
</g>
<!-- func_4_3178171460 -->
<g id="node51" class="node">
<title>func_4_3178171460</title>
<polygon fill="#d95f02" stroke="black" points="1899.5,-124 1726.5,-124 1726.5,-88 1899.5,-88 1899.5,-124"/>
<text text-anchor="middle" x="1813" y="-102.3" font-family="Times,serif" font-size="14.00">fn_extensions_append</text>
</g>
<!-- func_4_633998635&#45;&#45;func_4_3178171460 -->
<g id="edge46" class="edge">
<title>func_4_633998635&#45;&#45;func_4_3178171460</title>
<path fill="none" stroke="black" d="M1888.54,-159.88C1873.04,-149.03 1853.07,-135.05 1837.56,-124.19"/>
</g>
<!-- func_4_1540465192 -->
<g id="node54" class="node">
<title>func_4_1540465192</title>
<polygon fill="#1b9e77" stroke="black" points="2176,-124 1918,-124 1918,-88 2176,-88 2176,-124"/>
<text text-anchor="middle" x="2047" y="-102.3" font-family="Times,serif" font-size="14.00">fn_signature_algorithm_extension</text>
</g>
<!-- func_4_633998635&#45;&#45;func_4_1540465192 -->
<g id="edge49" class="edge">
<title>func_4_633998635&#45;&#45;func_4_1540465192</title>
<path fill="none" stroke="black" d="M1945.78,-159.88C1966.55,-149.03 1993.3,-135.05 2014.09,-124.19"/>
</g>
<!-- func_4_1913064103 -->
<g id="node52" class="node">
<title>func_4_1913064103</title>
<polygon fill="#1b9e77" stroke="black" points="1772,-52 1622,-52 1622,-16 1772,-16 1772,-52"/>
<text text-anchor="middle" x="1697" y="-30.3" font-family="Times,serif" font-size="14.00">fn_extensions_new</text>
</g>
<!-- func_4_3178171460&#45;&#45;func_4_1913064103 -->
<g id="edge47" class="edge">
<title>func_4_3178171460&#45;&#45;func_4_1913064103</title>
<path fill="none" stroke="black" d="M1784.62,-87.88C1766.65,-77.03 1743.48,-63.05 1725.49,-52.19"/>
</g>
<!-- func_4_2247187202 -->
<g id="node53" class="node">
<title>func_4_2247187202</title>
<polygon fill="#1b9e77" stroke="black" points="2068,-52 1790,-52 1790,-16 2068,-16 2068,-52"/>
<text text-anchor="middle" x="1929" y="-30.3" font-family="Times,serif" font-size="14.00">fn_x25519_support_group_extension</text>
</g>
<!-- func_4_3178171460&#45;&#45;func_4_2247187202 -->
<g id="edge48" class="edge">
<title>func_4_3178171460&#45;&#45;func_4_2247187202</title>
<path fill="none" stroke="black" d="M1841.38,-87.88C1859.35,-77.03 1882.52,-63.05 1900.51,-52.19"/>
</g>
<!-- func_4_3869024568 -->
<g id="node59" class="node">
<title>func_4_3869024568</title>
<polygon fill="#1b9e77" stroke="black" points="2518.5,-340 2359.5,-340 2359.5,-304 2518.5,-304 2518.5,-340"/>
<text text-anchor="middle" x="2439" y="-318.3" font-family="Times,serif" font-size="14.00">fn_empty_bytes_vec</text>
</g>
<!-- func_4_3787239046&#45;&#45;func_4_3869024568 -->
<g id="edge54" class="edge">
<title>func_4_3787239046&#45;&#45;func_4_3869024568</title>
<path fill="none" stroke="black" d="M2435.99,-375.7C2436.61,-364.85 2437.4,-350.92 2438.02,-340.1"/>
</g>
<!-- func_4_2378582725 -->
<g id="node65" class="node">
<title>func_4_2378582725</title>
<polygon fill="#d95f02" stroke="black" points="2354.5,-844 2211.5,-844 2211.5,-808 2354.5,-808 2354.5,-844"/>
<text text-anchor="middle" x="2283" y="-822.3" font-family="Times,serif" font-size="14.00">fn_new_pubkey12</text>
</g>
<!-- func_4_1600573893&#45;&#45;func_4_2378582725 -->
<g id="edge60" class="edge">
<title>func_4_1600573893&#45;&#45;func_4_2378582725</title>
<path fill="none" stroke="black" d="M2283,-879.7C2283,-868.85 2283,-854.92 2283,-844.1"/>
</g>
<!-- func_4_3710416451 -->
<g id="node66" class="node">
<title>func_4_3710416451</title>
<polygon fill="#d95f02" stroke="black" points="2377,-772 2189,-772 2189,-736 2377,-736 2377,-772"/>
<text text-anchor="middle" x="2283" y="-750.3" font-family="Times,serif" font-size="14.00">fn_decode_ecdh_params</text>
</g>
<!-- func_4_2378582725&#45;&#45;func_4_3710416451 -->
<g id="edge61" class="edge">
<title>func_4_2378582725&#45;&#45;func_4_3710416451</title>
<path fill="none" stroke="black" d="M2283,-807.7C2283,-796.85 2283,-782.92 2283,-772.1"/>
</g>
<!-- var_4_3961359709 -->
<g id="node67" class="node">
<title>var_4_3961359709</title>
<ellipse fill="#1b9e77" stroke="black" cx="2283" cy="-682" rx="78.79" ry="18"/>
<text text-anchor="middle" x="2283" y="-678.3" font-family="Times,serif" font-size="14.00">(0,2)/Vec&lt;u8&gt;</text>
</g>
<!-- func_4_3710416451&#45;&#45;var_4_3961359709 -->
<g id="edge62" class="edge">
<title>func_4_3710416451&#45;&#45;var_4_3961359709</title>
<path fill="none" stroke="black" d="M2283,-735.7C2283,-724.85 2283,-710.92 2283,-700.1"/>
</g>
<!-- var_4_1939685418 -->
<g id="node70" class="node">
<title>var_4_1939685418</title>
<ellipse fill="#1b9e77" stroke="black" cx="2234" cy="-1042" rx="78.79" ry="18"/>
<text text-anchor="middle" x="2234" y="-1038.3" font-family="Times,serif" font-size="14.00">(0,2)/Vec&lt;u8&gt;</text>
</g>
<!-- func_4_1369504059&#45;&#45;var_4_1939685418 -->
<g id="edge65" class="edge">
<title>func_4_1369504059&#45;&#45;var_4_1939685418</title>
<path fill="none" stroke="black" d="M2234,-1095.7C2234,-1084.85 2234,-1070.92 2234,-1060.1"/>
</g>
</g>
</svg>
