<?xml version="1.0" encoding="UTF-8" standalone="no"?>
<!DOCTYPE svg PUBLIC "-//W3C//DTD SVG 1.1//EN"
 "http://www.w3.org/Graphics/SVG/1.1/DTD/svg11.dtd">
<!-- Generated by graphviz version 2.47.2 (0)
 -->
<!-- Title: Trace Pages: 1 -->
<svg width="2373pt" height="1404pt"
 viewBox="0.00 0.00 2373.00 1404.00" xmlns="http://www.w3.org/2000/svg" xmlns:xlink="http://www.w3.org/1999/xlink">
<g id="graph0" class="graph" transform="scale(1 1) rotate(0) translate(4 1400)">
<title>Trace</title>
<polygon fill="white" stroke="transparent" points="-4,4 -4,-1400 2369,-1400 2369,4 -4,4"/>
<g id="clust1" class="cluster">
<title>cluster0</title>
<polygon fill="none" stroke="black" points="612,-8 612,-587 1553,-587 1553,-8 612,-8"/>
<text text-anchor="middle" x="1082.5" y="-571.8" font-family="Times,serif" font-size="14.00">Step #0 (Agent &#160;1)</text>
</g>
<g id="clust2" class="cluster">
<title>cluster1</title>
<polygon fill="none" stroke="black" points="1947,-1313 1947,-1388 2135,-1388 2135,-1313 1947,-1313"/>
<text text-anchor="middle" x="2041" y="-1372.8" font-family="Times,serif" font-size="14.00">Step #1 (Agent &#160;1) &#45; (0,)</text>
</g>
<g id="clust3" class="cluster">
<title>cluster2</title>
<polygon fill="none" stroke="black" points="612,-659 612,-950 816,-950 816,-659 612,-659"/>
<text text-anchor="middle" x="714" y="-934.8" font-family="Times,serif" font-size="14.00">Step #2 (Agent &#160;1)</text>
</g>
<g id="clust4" class="cluster">
<title>cluster3</title>
<polygon fill="none" stroke="black" points="2143,-1313 2143,-1388 2357,-1388 2357,-1313 2143,-1313"/>
<text text-anchor="middle" x="2250" y="-1372.8" font-family="Times,serif" font-size="14.00">Step #3 (Agent &#160;1)</text>
</g>
<g id="clust5" class="cluster">
<title>cluster4</title>
<polygon fill="none" stroke="black" points="8,-512 8,-1241 604,-1241 604,-512 8,-512"/>
<text text-anchor="middle" x="306" y="-1225.8" font-family="Times,serif" font-size="14.00">Step #4 (Agent &#160;1)</text>
</g>
<g id="clust6" class="cluster">
<title>cluster5</title>
<polygon fill="none" stroke="black" points="824,-875 824,-1388 1939,-1388 1939,-875 824,-875"/>
<text text-anchor="middle" x="1381.5" y="-1372.8" font-family="Times,serif" font-size="14.00">Step #5 (Agent &#160;1)</text>
</g>
<!-- f_112552174 -->
<g id="node1" class="node">
<title>f_112552174</title>
<polygon fill="#d95f02" stroke="black" points="1036.5,-556 917.5,-556 917.5,-520 1036.5,-520 1036.5,-556"/>
<text text-anchor="middle" x="977" y="-534.3" font-family="Times,serif" font-size="14.00">fn_client_hello</text>
</g>
<!-- f_3216111233 -->
<g id="node2" class="node">
<title>f_3216111233</title>
<polygon fill="#1b9e77" stroke="black" points="793.5,-484 620.5,-484 620.5,-448 793.5,-448 793.5,-484"/>
<text text-anchor="middle" x="707" y="-462.3" font-family="Times,serif" font-size="14.00">fn_protocol_version12</text>
</g>
<!-- f_112552174&#45;&gt;f_3216111233 -->
<g id="edge1" class="edge">
<title>f_112552174&#45;&gt;f_3216111233</title>
<path fill="none" stroke="black" d="M917.41,-521.55C877.65,-511.24 825.03,-497.6 782.36,-486.54"/>
<polygon fill="black" stroke="black" points="783.14,-483.12 772.58,-484 781.38,-489.9 783.14,-483.12"/>
</g>
<!-- f_3226026185 -->
<g id="node3" class="node">
<title>f_3226026185</title>
<polygon fill="#1b9e77" stroke="black" points="904,-484 812,-484 812,-448 904,-448 904,-484"/>
<text text-anchor="middle" x="858" y="-462.3" font-family="Times,serif" font-size="14.00">fn_random</text>
</g>
<!-- f_112552174&#45;&gt;f_3226026185 -->
<g id="edge2" class="edge">
<title>f_112552174&#45;&gt;f_3226026185</title>
<path fill="none" stroke="black" d="M947.89,-519.88C932.33,-510.72 912.98,-499.34 896.22,-489.48"/>
<polygon fill="black" stroke="black" points="897.62,-486.24 887.22,-484.19 894.07,-492.28 897.62,-486.24"/>
</g>
<!-- f_2494975757 -->
<g id="node4" class="node">
<title>f_2494975757</title>
<polygon fill="#1b9e77" stroke="black" points="1032,-484 922,-484 922,-448 1032,-448 1032,-484"/>
<text text-anchor="middle" x="977" y="-462.3" font-family="Times,serif" font-size="14.00">fn_session_id</text>
</g>
<!-- f_112552174&#45;&gt;f_2494975757 -->
<g id="edge3" class="edge">
<title>f_112552174&#45;&gt;f_2494975757</title>
<path fill="none" stroke="black" d="M977,-519.7C977,-511.98 977,-502.71 977,-494.11"/>
<polygon fill="black" stroke="black" points="980.5,-494.1 977,-484.1 973.5,-494.1 980.5,-494.1"/>
</g>
<!-- f_3166677689 -->
<g id="node5" class="node">
<title>f_3166677689</title>
<polygon fill="#1b9e77" stroke="black" points="1200,-484 1050,-484 1050,-448 1200,-448 1200,-484"/>
<text text-anchor="middle" x="1125" y="-462.3" font-family="Times,serif" font-size="14.00">fn_cipher_suites12</text>
</g>
<!-- f_112552174&#45;&gt;f_3166677689 -->
<g id="edge4" class="edge">
<title>f_112552174&#45;&gt;f_3166677689</title>
<path fill="none" stroke="black" d="M1013.2,-519.88C1033.26,-510.39 1058.37,-498.51 1079.71,-488.42"/>
<polygon fill="black" stroke="black" points="1081.37,-491.51 1088.91,-484.07 1078.38,-485.18 1081.37,-491.51"/>
</g>
<!-- f_1287724725 -->
<g id="node6" class="node">
<title>f_1287724725</title>
<polygon fill="#1b9e77" stroke="black" points="1353.5,-484 1218.5,-484 1218.5,-448 1353.5,-448 1353.5,-484"/>
<text text-anchor="middle" x="1286" y="-462.3" font-family="Times,serif" font-size="14.00">fn_compressions</text>
</g>
<!-- f_112552174&#45;&gt;f_1287724725 -->
<g id="edge5" class="edge">
<title>f_112552174&#45;&gt;f_1287724725</title>
<path fill="none" stroke="black" d="M1036.58,-523.5C1085.43,-512.44 1154.95,-496.69 1208.19,-484.63"/>
<polygon fill="black" stroke="black" points="1209.29,-487.97 1218.27,-482.34 1207.75,-481.14 1209.29,-487.97"/>
</g>
<!-- f_3862676648 -->
<g id="node7" class="node">
<title>f_3862676648</title>
<polygon fill="#d95f02" stroke="black" points="1544.5,-484 1371.5,-484 1371.5,-448 1544.5,-448 1544.5,-484"/>
<text text-anchor="middle" x="1458" y="-462.3" font-family="Times,serif" font-size="14.00">fn_extensions_append</text>
</g>
<!-- f_112552174&#45;&gt;f_3862676648 -->
<g id="edge6" class="edge">
<title>f_112552174&#45;&gt;f_3862676648</title>
<path fill="none" stroke="black" d="M1036.62,-529.58C1110.48,-520.21 1240.4,-503.18 1361.14,-484.26"/>
<polygon fill="black" stroke="black" points="1361.97,-487.68 1371.3,-482.66 1360.88,-480.76 1361.97,-487.68"/>
</g>
<!-- f_2729300861 -->
<g id="node8" class="node">
<title>f_2729300861</title>
<polygon fill="#d95f02" stroke="black" points="1328.5,-412 1155.5,-412 1155.5,-376 1328.5,-376 1328.5,-412"/>
<text text-anchor="middle" x="1242" y="-390.3" font-family="Times,serif" font-size="14.00">fn_extensions_append</text>
</g>
<!-- f_3862676648&#45;&gt;f_2729300861 -->
<g id="edge7" class="edge">
<title>f_3862676648&#45;&gt;f_2729300861</title>
<path fill="none" stroke="black" d="M1405.44,-447.97C1374.99,-438.1 1336.49,-425.62 1304.5,-415.25"/>
<polygon fill="black" stroke="black" points="1305.39,-411.86 1294.8,-412.11 1303.23,-418.52 1305.39,-411.86"/>
</g>
<!-- f_1056593716 -->
<g id="node19" class="node">
<title>f_1056593716</title>
<polygon fill="#d95f02" stroke="black" points="1543.5,-412 1376.5,-412 1376.5,-376 1543.5,-376 1543.5,-412"/>
<text text-anchor="middle" x="1460" y="-390.3" font-family="Times,serif" font-size="14.00">fn_renegotiation_info</text>
</g>
<!-- f_3862676648&#45;&gt;f_1056593716 -->
<g id="edge18" class="edge">
<title>f_3862676648&#45;&gt;f_1056593716</title>
<path fill="none" stroke="black" d="M1458.49,-447.7C1458.71,-439.98 1458.98,-430.71 1459.23,-422.11"/>
<polygon fill="black" stroke="black" points="1462.72,-422.2 1459.51,-412.1 1455.73,-422 1462.72,-422.2"/>
</g>
<!-- f_3592735535 -->
<g id="node9" class="node">
<title>f_3592735535</title>
<polygon fill="#d95f02" stroke="black" points="1099.5,-340 926.5,-340 926.5,-304 1099.5,-304 1099.5,-340"/>
<text text-anchor="middle" x="1013" y="-318.3" font-family="Times,serif" font-size="14.00">fn_extensions_append</text>
</g>
<!-- f_2729300861&#45;&gt;f_3592735535 -->
<g id="edge8" class="edge">
<title>f_2729300861&#45;&gt;f_3592735535</title>
<path fill="none" stroke="black" d="M1186.27,-375.97C1153.86,-366.06 1112.82,-353.51 1078.82,-343.12"/>
<polygon fill="black" stroke="black" points="1079.56,-339.69 1068.98,-340.11 1077.52,-346.38 1079.56,-339.69"/>
</g>
<!-- f_3116048237 -->
<g id="node18" class="node">
<title>f_3116048237</title>
<polygon fill="#1b9e77" stroke="black" points="1366,-340 1118,-340 1118,-304 1366,-304 1366,-340"/>
<text text-anchor="middle" x="1242" y="-318.3" font-family="Times,serif" font-size="14.00">fn_signed_certificate_timestamp</text>
</g>
<!-- f_2729300861&#45;&gt;f_3116048237 -->
<g id="edge17" class="edge">
<title>f_2729300861&#45;&gt;f_3116048237</title>
<path fill="none" stroke="black" d="M1242,-375.7C1242,-367.98 1242,-358.71 1242,-350.11"/>
<polygon fill="black" stroke="black" points="1245.5,-350.1 1242,-340.1 1238.5,-350.1 1245.5,-350.1"/>
</g>
<!-- f_1319769484 -->
<g id="node10" class="node">
<title>f_1319769484</title>
<polygon fill="#d95f02" stroke="black" points="1074.5,-268 901.5,-268 901.5,-232 1074.5,-232 1074.5,-268"/>
<text text-anchor="middle" x="988" y="-246.3" font-family="Times,serif" font-size="14.00">fn_extensions_append</text>
</g>
<!-- f_3592735535&#45;&gt;f_1319769484 -->
<g id="edge9" class="edge">
<title>f_3592735535&#45;&gt;f_1319769484</title>
<path fill="none" stroke="black" d="M1006.82,-303.7C1004,-295.81 1000.61,-286.3 997.48,-277.55"/>
<polygon fill="black" stroke="black" points="1000.77,-276.34 994.11,-268.1 994.18,-278.7 1000.77,-276.34"/>
</g>
<!-- f_1446290375 -->
<g id="node17" class="node">
<title>f_1446290375</title>
<polygon fill="#1b9e77" stroke="black" points="1385.5,-268 1092.5,-268 1092.5,-232 1385.5,-232 1385.5,-268"/>
<text text-anchor="middle" x="1239" y="-246.3" font-family="Times,serif" font-size="14.00">fn_signature_algorithm_cert_extension</text>
</g>
<!-- f_3592735535&#45;&gt;f_1446290375 -->
<g id="edge16" class="edge">
<title>f_3592735535&#45;&gt;f_1446290375</title>
<path fill="none" stroke="black" d="M1068,-303.97C1099.99,-294.06 1140.48,-281.51 1174.04,-271.12"/>
<polygon fill="black" stroke="black" points="1175.24,-274.41 1183.76,-268.11 1173.17,-267.73 1175.24,-274.41"/>
</g>
<!-- f_1923065132 -->
<g id="node11" class="node">
<title>f_1923065132</title>
<polygon fill="#d95f02" stroke="black" points="1024.5,-196 851.5,-196 851.5,-160 1024.5,-160 1024.5,-196"/>
<text text-anchor="middle" x="938" y="-174.3" font-family="Times,serif" font-size="14.00">fn_extensions_append</text>
</g>
<!-- f_1319769484&#45;&gt;f_1923065132 -->
<g id="edge10" class="edge">
<title>f_1319769484&#45;&gt;f_1923065132</title>
<path fill="none" stroke="black" d="M975.64,-231.7C969.77,-223.47 962.63,-213.48 956.16,-204.42"/>
<polygon fill="black" stroke="black" points="958.88,-202.21 950.22,-196.1 953.18,-206.28 958.88,-202.21"/>
</g>
<!-- f_2658357313 -->
<g id="node16" class="node">
<title>f_2658357313</title>
<polygon fill="#1b9e77" stroke="black" points="1201.5,-196 1042.5,-196 1042.5,-160 1201.5,-160 1201.5,-196"/>
<text text-anchor="middle" x="1122" y="-174.3" font-family="Times,serif" font-size="14.00">fn_ec_point_formats</text>
</g>
<!-- f_1319769484&#45;&gt;f_2658357313 -->
<g id="edge15" class="edge">
<title>f_1319769484&#45;&gt;f_2658357313</title>
<path fill="none" stroke="black" d="M1020.78,-231.88C1038.63,-222.55 1060.9,-210.92 1080,-200.94"/>
<polygon fill="black" stroke="black" points="1081.85,-203.92 1089.09,-196.19 1078.61,-197.72 1081.85,-203.92"/>
</g>
<!-- f_870877441 -->
<g id="node12" class="node">
<title>f_870877441</title>
<polygon fill="#d95f02" stroke="black" points="924.5,-124 751.5,-124 751.5,-88 924.5,-88 924.5,-124"/>
<text text-anchor="middle" x="838" y="-102.3" font-family="Times,serif" font-size="14.00">fn_extensions_append</text>
</g>
<!-- f_1923065132&#45;&gt;f_870877441 -->
<g id="edge11" class="edge">
<title>f_1923065132&#45;&gt;f_870877441</title>
<path fill="none" stroke="black" d="M913.54,-159.88C900.7,-150.89 884.8,-139.76 870.91,-130.03"/>
<polygon fill="black" stroke="black" points="872.76,-127.06 862.56,-124.19 868.74,-132.79 872.76,-127.06"/>
</g>
<!-- f_2277506732 -->
<g id="node15" class="node">
<title>f_2277506732</title>
<polygon fill="#1b9e77" stroke="black" points="1201,-124 943,-124 943,-88 1201,-88 1201,-124"/>
<text text-anchor="middle" x="1072" y="-102.3" font-family="Times,serif" font-size="14.00">fn_signature_algorithm_extension</text>
</g>
<!-- f_1923065132&#45;&gt;f_2277506732 -->
<g id="edge14" class="edge">
<title>f_1923065132&#45;&gt;f_2277506732</title>
<path fill="none" stroke="black" d="M970.78,-159.88C988.63,-150.55 1010.9,-138.92 1030,-128.94"/>
<polygon fill="black" stroke="black" points="1031.85,-131.92 1039.09,-124.19 1028.61,-125.72 1031.85,-131.92"/>
</g>
<!-- f_2881821122 -->
<g id="node13" class="node">
<title>f_2881821122</title>
<polygon fill="#1b9e77" stroke="black" points="797,-52 647,-52 647,-16 797,-16 797,-52"/>
<text text-anchor="middle" x="722" y="-30.3" font-family="Times,serif" font-size="14.00">fn_extensions_new</text>
</g>
<!-- f_870877441&#45;&gt;f_2881821122 -->
<g id="edge12" class="edge">
<title>f_870877441&#45;&gt;f_2881821122</title>
<path fill="none" stroke="black" d="M809.62,-87.88C794.46,-78.72 775.59,-67.34 759.26,-57.48"/>
<polygon fill="black" stroke="black" points="760.86,-54.36 750.49,-52.19 757.24,-60.35 760.86,-54.36"/>
</g>
<!-- f_1929530820 -->
<g id="node14" class="node">
<title>f_1929530820</title>
<polygon fill="#1b9e77" stroke="black" points="1093,-52 815,-52 815,-16 1093,-16 1093,-52"/>
<text text-anchor="middle" x="954" y="-30.3" font-family="Times,serif" font-size="14.00">fn_x25519_support_group_extension</text>
</g>
<!-- f_870877441&#45;&gt;f_1929530820 -->
<g id="edge13" class="edge">
<title>f_870877441&#45;&gt;f_1929530820</title>
<path fill="none" stroke="black" d="M866.38,-87.88C881.54,-78.72 900.41,-67.34 916.74,-57.48"/>
<polygon fill="black" stroke="black" points="918.76,-60.35 925.51,-52.19 915.14,-54.36 918.76,-60.35"/>
</g>
<!-- f_2143678908 -->
<g id="node20" class="node">
<title>f_2143678908</title>
<polygon fill="#1b9e77" stroke="black" points="1543.5,-340 1384.5,-340 1384.5,-304 1543.5,-304 1543.5,-340"/>
<text text-anchor="middle" x="1464" y="-318.3" font-family="Times,serif" font-size="14.00">fn_empty_bytes_vec</text>
</g>
<!-- f_1056593716&#45;&gt;f_2143678908 -->
<g id="edge19" class="edge">
<title>f_1056593716&#45;&gt;f_2143678908</title>
<path fill="none" stroke="black" d="M1460.99,-375.7C1461.43,-367.98 1461.96,-358.71 1462.45,-350.11"/>
<polygon fill="black" stroke="black" points="1465.95,-350.29 1463.02,-340.1 1458.96,-349.89 1465.95,-350.29"/>
</g>
<g id="node21" class="node">
<title></title>
<ellipse fill="none" stroke="transparent" cx="2041" cy="-1339" rx="27" ry="18"/>
</g>
<!-- f_407188307 -->
<g id="node22" class="node">
<title>f_407188307</title>
<polygon fill="#d95f02" stroke="black" points="804.5,-919 621.5,-919 621.5,-883 804.5,-883 804.5,-919"/>
<text text-anchor="middle" x="713" y="-897.3" font-family="Times,serif" font-size="14.00">fn_client_key_exchange</text>
</g>
<!-- f_2944745009 -->
<g id="node23" class="node">
<title>f_2944745009</title>
<polygon fill="#d95f02" stroke="black" points="784.5,-847 641.5,-847 641.5,-811 784.5,-811 784.5,-847"/>
<text text-anchor="middle" x="713" y="-825.3" font-family="Times,serif" font-size="14.00">fn_new_pubkey12</text>
</g>
<!-- f_407188307&#45;&gt;f_2944745009 -->
<g id="edge20" class="edge">
<title>f_407188307&#45;&gt;f_2944745009</title>
<path fill="none" stroke="black" d="M713,-882.7C713,-874.98 713,-865.71 713,-857.11"/>
<polygon fill="black" stroke="black" points="716.5,-857.1 713,-847.1 709.5,-857.1 716.5,-857.1"/>
</g>
<!-- f_1602933337 -->
<g id="node24" class="node">
<title>f_1602933337</title>
<polygon fill="#d95f02" stroke="black" points="808,-775 620,-775 620,-739 808,-739 808,-775"/>
<text text-anchor="middle" x="714" y="-753.3" font-family="Times,serif" font-size="14.00">fn_decode_ecdh_params</text>
</g>
<!-- f_2944745009&#45;&gt;f_1602933337 -->
<g id="edge21" class="edge">
<title>f_2944745009&#45;&gt;f_1602933337</title>
<path fill="none" stroke="black" d="M713.25,-810.7C713.36,-802.98 713.49,-793.71 713.61,-785.11"/>
<polygon fill="black" stroke="black" points="717.11,-785.15 713.76,-775.1 710.11,-785.05 717.11,-785.15"/>
</g>
<!-- v_700738722 -->
<g id="node25" class="node">
<title>v_700738722</title>
<ellipse fill="#1b9e77" stroke="black" cx="714" cy="-685" rx="78.79" ry="18"/>
<text text-anchor="middle" x="714" y="-681.3" font-family="Times,serif" font-size="14.00">(0,2)/Vec&lt;u8&gt;</text>
</g>
<!-- f_1602933337&#45;&gt;v_700738722 -->
<g id="edge22" class="edge">
<title>f_1602933337&#45;&gt;v_700738722</title>
<path fill="none" stroke="black" d="M714,-738.7C714,-730.98 714,-721.71 714,-713.11"/>
<polygon fill="black" stroke="black" points="717.5,-713.1 714,-703.1 710.5,-713.1 717.5,-713.1"/>
</g>
<!-- f_537230960 -->
<g id="node26" class="node">
<title>f_537230960</title>
<polygon fill="#1b9e77" stroke="black" points="2348.5,-1357 2151.5,-1357 2151.5,-1321 2348.5,-1321 2348.5,-1357"/>
<text text-anchor="middle" x="2250" y="-1335.3" font-family="Times,serif" font-size="14.00">fn_change_cipher_spec12</text>
</g>
<!-- f_4286659428 -->
<g id="node27" class="node">
<title>f_4286659428</title>
<polygon fill="#d95f02" stroke="black" points="424,-1210 314,-1210 314,-1174 424,-1174 424,-1210"/>
<text text-anchor="middle" x="369" y="-1188.3" font-family="Times,serif" font-size="14.00">fn_encrypt12</text>
</g>
<!-- f_3507313606 -->
<g id="node28" class="node">
<title>f_3507313606</title>
<polygon fill="#d95f02" stroke="black" points="499.5,-1138 386.5,-1138 386.5,-1102 499.5,-1102 499.5,-1138"/>
<text text-anchor="middle" x="443" y="-1116.3" font-family="Times,serif" font-size="14.00">fn_finished12</text>
</g>
<!-- f_4286659428&#45;&gt;f_3507313606 -->
<g id="edge23" class="edge">
<title>f_4286659428&#45;&gt;f_3507313606</title>
<path fill="none" stroke="black" d="M387.29,-1173.7C396.43,-1165.05 407.64,-1154.45 417.6,-1145.03"/>
<polygon fill="black" stroke="black" points="420.06,-1147.52 424.92,-1138.1 415.25,-1142.43 420.06,-1147.52"/>
</g>
<!-- v_2253091118 -->
<g id="node44" class="node">
<title>v_2253091118</title>
<ellipse fill="#1b9e77" stroke="black" cx="295" cy="-1120" rx="73.39" ry="18"/>
<text text-anchor="middle" x="295" y="-1116.3" font-family="Times,serif" font-size="14.00">(0,0)/Random</text>
</g>
<!-- f_4286659428&#45;&gt;v_2253091118 -->
<g id="edge41" class="edge">
<title>f_4286659428&#45;&gt;v_2253091118</title>
<path fill="none" stroke="black" d="M350.71,-1173.7C341.43,-1164.92 330.02,-1154.13 319.95,-1144.61"/>
<polygon fill="black" stroke="black" points="322.24,-1141.95 312.57,-1137.62 317.43,-1147.04 322.24,-1141.95"/>
</g>
<!-- f_2715667435 -->
<g id="node45" class="node">
<title>f_2715667435</title>
<polygon fill="#d95f02" stroke="black" points="204,-1138 16,-1138 16,-1102 204,-1102 204,-1138"/>
<text text-anchor="middle" x="110" y="-1116.3" font-family="Times,serif" font-size="14.00">fn_decode_ecdh_params</text>
</g>
<!-- f_4286659428&#45;&gt;f_2715667435 -->
<g id="edge42" class="edge">
<title>f_4286659428&#45;&gt;f_2715667435</title>
<path fill="none" stroke="black" d="M313.76,-1176.07C275.66,-1165.77 224.61,-1151.98 183.14,-1140.77"/>
<polygon fill="black" stroke="black" points="183.93,-1137.36 173.36,-1138.12 182.1,-1144.11 183.93,-1137.36"/>
</g>
<!-- f_1295775785 -->
<g id="node47" class="node">
<title>f_1295775785</title>
<polygon fill="#1b9e77" stroke="black" points="596,-1138 518,-1138 518,-1102 596,-1102 596,-1138"/>
<text text-anchor="middle" x="557" y="-1116.3" font-family="Times,serif" font-size="14.00">fn_seq_0</text>
</g>
<!-- f_4286659428&#45;&gt;f_1295775785 -->
<g id="edge44" class="edge">
<title>f_4286659428&#45;&gt;f_1295775785</title>
<path fill="none" stroke="black" d="M414.99,-1173.88C443.31,-1163.33 479.58,-1149.82 508.38,-1139.1"/>
<polygon fill="black" stroke="black" points="509.69,-1142.35 517.84,-1135.58 507.24,-1135.79 509.69,-1142.35"/>
</g>
<!-- f_3573054214 -->
<g id="node29" class="node">
<title>f_3573054214</title>
<polygon fill="#d95f02" stroke="black" points="516,-1066 370,-1066 370,-1030 516,-1030 516,-1066"/>
<text text-anchor="middle" x="443" y="-1044.3" font-family="Times,serif" font-size="14.00">fn_sign_transcript</text>
</g>
<!-- f_3507313606&#45;&gt;f_3573054214 -->
<g id="edge24" class="edge">
<title>f_3507313606&#45;&gt;f_3573054214</title>
<path fill="none" stroke="black" d="M443,-1101.7C443,-1093.98 443,-1084.71 443,-1076.11"/>
<polygon fill="black" stroke="black" points="446.5,-1076.1 443,-1066.1 439.5,-1076.1 446.5,-1076.1"/>
</g>
<!-- v_4031799518 -->
<g id="node30" class="node">
<title>v_4031799518</title>
<ellipse fill="#1b9e77" stroke="black" cx="131" cy="-976" rx="73.39" ry="18"/>
<text text-anchor="middle" x="131" y="-972.3" font-family="Times,serif" font-size="14.00">(0,0)/Random</text>
</g>
<!-- f_3573054214&#45;&gt;v_4031799518 -->
<g id="edge25" class="edge">
<title>f_3573054214&#45;&gt;v_4031799518</title>
<path fill="none" stroke="black" d="M369.85,-1030.59C316.15,-1018.54 244.01,-1002.35 193.1,-990.93"/>
<polygon fill="black" stroke="black" points="193.74,-987.49 183.22,-988.72 192.21,-994.32 193.74,-987.49"/>
</g>
<!-- f_1969351101 -->
<g id="node31" class="node">
<title>f_1969351101</title>
<polygon fill="#d95f02" stroke="black" points="410,-994 222,-994 222,-958 410,-958 410,-994"/>
<text text-anchor="middle" x="316" y="-972.3" font-family="Times,serif" font-size="14.00">fn_decode_ecdh_params</text>
</g>
<!-- f_3573054214&#45;&gt;f_1969351101 -->
<g id="edge26" class="edge">
<title>f_3573054214&#45;&gt;f_1969351101</title>
<path fill="none" stroke="black" d="M411.93,-1029.88C395.17,-1020.64 374.29,-1009.13 356.3,-999.21"/>
<polygon fill="black" stroke="black" points="357.63,-995.95 347.19,-994.19 354.26,-1002.08 357.63,-995.95"/>
</g>
<!-- f_845992967 -->
<g id="node33" class="node">
<title>f_845992967</title>
<polygon fill="#d95f02" stroke="black" points="596,-994 428,-994 428,-958 596,-958 596,-994"/>
<text text-anchor="middle" x="512" y="-972.3" font-family="Times,serif" font-size="14.00">fn_append_transcript</text>
</g>
<!-- f_3573054214&#45;&gt;f_845992967 -->
<g id="edge28" class="edge">
<title>f_3573054214&#45;&gt;f_845992967</title>
<path fill="none" stroke="black" d="M460.06,-1029.7C468.5,-1021.14 478.82,-1010.66 488.04,-1001.3"/>
<polygon fill="black" stroke="black" points="490.61,-1003.68 495.14,-994.1 485.63,-998.77 490.61,-1003.68"/>
</g>
<!-- v_2444941615 -->
<g id="node32" class="node">
<title>v_2444941615</title>
<ellipse fill="#1b9e77" stroke="black" cx="316" cy="-901" rx="78.79" ry="18"/>
<text text-anchor="middle" x="316" y="-897.3" font-family="Times,serif" font-size="14.00">(0,2)/Vec&lt;u8&gt;</text>
</g>
<!-- f_1969351101&#45;&gt;v_2444941615 -->
<g id="edge27" class="edge">
<title>f_1969351101&#45;&gt;v_2444941615</title>
<path fill="none" stroke="black" d="M316,-957.7C316,-949.25 316,-938.87 316,-929.37"/>
<polygon fill="black" stroke="black" points="319.5,-929.18 316,-919.18 312.5,-929.18 319.5,-929.18"/>
</g>
<!-- f_845992967&#45;&gt;f_407188307 -->
<g id="edge40" class="edge">
<title>f_845992967&#45;&gt;f_407188307</title>
<path fill="none" stroke="black" d="M583.2,-957.94C591.62,-955.49 600.05,-952.83 608,-950 629,-942.53 651.57,-932.49 670.38,-923.53"/>
<polygon fill="black" stroke="black" points="672.09,-926.59 679.57,-919.09 669.04,-920.29 672.09,-926.59"/>
</g>
<!-- f_3242968370 -->
<g id="node34" class="node">
<title>f_3242968370</title>
<polygon fill="#d95f02" stroke="black" points="596,-919 428,-919 428,-883 596,-883 596,-919"/>
<text text-anchor="middle" x="512" y="-897.3" font-family="Times,serif" font-size="14.00">fn_append_transcript</text>
</g>
<!-- f_845992967&#45;&gt;f_3242968370 -->
<g id="edge29" class="edge">
<title>f_845992967&#45;&gt;f_3242968370</title>
<path fill="none" stroke="black" d="M512,-957.7C512,-949.25 512,-938.87 512,-929.37"/>
<polygon fill="black" stroke="black" points="515.5,-929.18 512,-919.18 508.5,-929.18 515.5,-929.18"/>
</g>
<!-- f_1703400672 -->
<g id="node35" class="node">
<title>f_1703400672</title>
<polygon fill="#d95f02" stroke="black" points="426,-847 258,-847 258,-811 426,-811 426,-847"/>
<text text-anchor="middle" x="342" y="-825.3" font-family="Times,serif" font-size="14.00">fn_append_transcript</text>
</g>
<!-- f_3242968370&#45;&gt;f_1703400672 -->
<g id="edge30" class="edge">
<title>f_3242968370&#45;&gt;f_1703400672</title>
<path fill="none" stroke="black" d="M470.41,-882.88C446.97,-873.22 417.5,-861.09 392.7,-850.88"/>
<polygon fill="black" stroke="black" points="394.03,-847.64 383.45,-847.07 391.37,-854.11 394.03,-847.64"/>
</g>
<!-- v_2998564992 -->
<g id="node43" class="node">
<title>v_2998564992</title>
<ellipse fill="#1b9e77" stroke="black" cx="520" cy="-829" rx="76.09" ry="18"/>
<text text-anchor="middle" x="520" y="-825.3" font-family="Times,serif" font-size="14.00">(0,3)/Message</text>
</g>
<!-- f_3242968370&#45;&gt;v_2998564992 -->
<g id="edge39" class="edge">
<title>f_3242968370&#45;&gt;v_2998564992</title>
<path fill="none" stroke="black" d="M513.98,-882.7C514.86,-874.98 515.92,-865.71 516.9,-857.11"/>
<polygon fill="black" stroke="black" points="520.39,-857.44 518.05,-847.1 513.43,-856.64 520.39,-857.44"/>
</g>
<!-- f_185370691 -->
<g id="node36" class="node">
<title>f_185370691</title>
<polygon fill="#d95f02" stroke="black" points="426,-775 258,-775 258,-739 426,-739 426,-775"/>
<text text-anchor="middle" x="342" y="-753.3" font-family="Times,serif" font-size="14.00">fn_append_transcript</text>
</g>
<!-- f_1703400672&#45;&gt;f_185370691 -->
<g id="edge31" class="edge">
<title>f_1703400672&#45;&gt;f_185370691</title>
<path fill="none" stroke="black" d="M342,-810.7C342,-802.98 342,-793.71 342,-785.11"/>
<polygon fill="black" stroke="black" points="345.5,-785.1 342,-775.1 338.5,-785.1 345.5,-785.1"/>
</g>
<!-- v_2790391487 -->
<g id="node42" class="node">
<title>v_2790391487</title>
<ellipse fill="#1b9e77" stroke="black" cx="520" cy="-757" rx="76.09" ry="18"/>
<text text-anchor="middle" x="520" y="-753.3" font-family="Times,serif" font-size="14.00">(0,2)/Message</text>
</g>
<!-- f_1703400672&#45;&gt;v_2790391487 -->
<g id="edge38" class="edge">
<title>f_1703400672&#45;&gt;v_2790391487</title>
<path fill="none" stroke="black" d="M385.54,-810.88C412.04,-800.46 445.87,-787.15 472.97,-776.49"/>
<polygon fill="black" stroke="black" points="474.6,-779.61 482.63,-772.7 472.04,-773.1 474.6,-779.61"/>
</g>
<!-- f_4251684531 -->
<g id="node37" class="node">
<title>f_4251684531</title>
<polygon fill="#d95f02" stroke="black" points="426,-703 258,-703 258,-667 426,-667 426,-703"/>
<text text-anchor="middle" x="342" y="-681.3" font-family="Times,serif" font-size="14.00">fn_append_transcript</text>
</g>
<!-- f_185370691&#45;&gt;f_4251684531 -->
<g id="edge32" class="edge">
<title>f_185370691&#45;&gt;f_4251684531</title>
<path fill="none" stroke="black" d="M342,-738.7C342,-730.98 342,-721.71 342,-713.11"/>
<polygon fill="black" stroke="black" points="345.5,-713.1 342,-703.1 338.5,-713.1 345.5,-713.1"/>
</g>
<!-- v_1482232499 -->
<g id="node41" class="node">
<title>v_1482232499</title>
<ellipse fill="#1b9e77" stroke="black" cx="520" cy="-685" rx="76.09" ry="18"/>
<text text-anchor="middle" x="520" y="-681.3" font-family="Times,serif" font-size="14.00">(0,1)/Message</text>
</g>
<!-- f_185370691&#45;&gt;v_1482232499 -->
<g id="edge37" class="edge">
<title>f_185370691&#45;&gt;v_1482232499</title>
<path fill="none" stroke="black" d="M385.54,-738.88C412.04,-728.46 445.87,-715.15 472.97,-704.49"/>
<polygon fill="black" stroke="black" points="474.6,-707.61 482.63,-700.7 472.04,-701.1 474.6,-707.61"/>
</g>
<!-- f_2316490487 -->
<g id="node38" class="node">
<title>f_2316490487</title>
<polygon fill="#d95f02" stroke="black" points="426,-631 258,-631 258,-595 426,-595 426,-631"/>
<text text-anchor="middle" x="342" y="-609.3" font-family="Times,serif" font-size="14.00">fn_append_transcript</text>
</g>
<!-- f_4251684531&#45;&gt;f_2316490487 -->
<g id="edge33" class="edge">
<title>f_4251684531&#45;&gt;f_2316490487</title>
<path fill="none" stroke="black" d="M342,-666.7C342,-658.98 342,-649.71 342,-641.11"/>
<polygon fill="black" stroke="black" points="345.5,-641.1 342,-631.1 338.5,-641.1 345.5,-641.1"/>
</g>
<!-- v_2753744784 -->
<g id="node40" class="node">
<title>v_2753744784</title>
<ellipse fill="#1b9e77" stroke="black" cx="520" cy="-613" rx="76.09" ry="18"/>
<text text-anchor="middle" x="520" y="-609.3" font-family="Times,serif" font-size="14.00">(0,0)/Message</text>
</g>
<!-- f_4251684531&#45;&gt;v_2753744784 -->
<g id="edge36" class="edge">
<title>f_4251684531&#45;&gt;v_2753744784</title>
<path fill="none" stroke="black" d="M385.54,-666.88C412.04,-656.46 445.87,-643.15 472.97,-632.49"/>
<polygon fill="black" stroke="black" points="474.6,-635.61 482.63,-628.7 472.04,-629.1 474.6,-635.61"/>
</g>
<!-- f_2316490487&#45;&gt;f_112552174 -->
<g id="edge35" class="edge">
<title>f_2316490487&#45;&gt;f_112552174</title>
<path fill="none" stroke="black" d="M426.07,-596.11C429.08,-595.71 432.06,-595.33 435,-595 511.48,-586.28 531.33,-593.75 608,-587 712.64,-577.79 833.22,-560.92 907.28,-549.83"/>
<polygon fill="black" stroke="black" points="908.04,-553.25 917.41,-548.3 907,-546.33 908.04,-553.25"/>
</g>
<!-- f_820535290 -->
<g id="node39" class="node">
<title>f_820535290</title>
<polygon fill="#1b9e77" stroke="black" points="423.5,-556 260.5,-556 260.5,-520 423.5,-520 423.5,-556"/>
<text text-anchor="middle" x="342" y="-534.3" font-family="Times,serif" font-size="14.00">fn_new_transcript12</text>
</g>
<!-- f_2316490487&#45;&gt;f_820535290 -->
<g id="edge34" class="edge">
<title>f_2316490487&#45;&gt;f_820535290</title>
<path fill="none" stroke="black" d="M342,-594.7C342,-586.25 342,-575.87 342,-566.37"/>
<polygon fill="black" stroke="black" points="345.5,-566.18 342,-556.18 338.5,-566.18 345.5,-566.18"/>
</g>
<!-- v_183970243 -->
<g id="node46" class="node">
<title>v_183970243</title>
<ellipse fill="#1b9e77" stroke="black" cx="110" cy="-1048" rx="78.79" ry="18"/>
<text text-anchor="middle" x="110" y="-1044.3" font-family="Times,serif" font-size="14.00">(0,2)/Vec&lt;u8&gt;</text>
</g>
<!-- f_2715667435&#45;&gt;v_183970243 -->
<g id="edge43" class="edge">
<title>f_2715667435&#45;&gt;v_183970243</title>
<path fill="none" stroke="black" d="M110,-1101.7C110,-1093.98 110,-1084.71 110,-1076.11"/>
<polygon fill="black" stroke="black" points="113.5,-1076.1 110,-1066.1 106.5,-1076.1 113.5,-1076.1"/>
</g>
<!-- f_695258213 -->
<g id="node48" class="node">
<title>f_695258213</title>
<polygon fill="#d95f02" stroke="black" points="1653,-1357 1543,-1357 1543,-1321 1653,-1321 1653,-1357"/>
<text text-anchor="middle" x="1598" y="-1335.3" font-family="Times,serif" font-size="14.00">fn_encrypt12</text>
</g>
<!-- f_1822567486 -->
<g id="node49" class="node">
<title>f_1822567486</title>
<polygon fill="#d95f02" stroke="black" points="1365.5,-1285 1246.5,-1285 1246.5,-1249 1365.5,-1249 1365.5,-1285"/>
<text text-anchor="middle" x="1306" y="-1263.3" font-family="Times,serif" font-size="14.00">fn_client_hello</text>
</g>
<!-- f_695258213&#45;&gt;f_1822567486 -->
<g id="edge45" class="edge">
<title>f_695258213&#45;&gt;f_1822567486</title>
<path fill="none" stroke="black" d="M1542.73,-1324.75C1495.3,-1313.38 1426.7,-1296.94 1375.55,-1284.67"/>
<polygon fill="black" stroke="black" points="1376.1,-1281.21 1365.56,-1282.28 1374.47,-1288.01 1376.1,-1281.21"/>
</g>
<!-- v_4008523074 -->
<g id="node64" class="node">
<title>v_4008523074</title>
<ellipse fill="#1b9e77" stroke="black" cx="1506" cy="-1267" rx="73.39" ry="18"/>
<text text-anchor="middle" x="1506" y="-1263.3" font-family="Times,serif" font-size="14.00">(0,0)/Random</text>
</g>
<!-- f_695258213&#45;&gt;v_4008523074 -->
<g id="edge61" class="edge">
<title>f_695258213&#45;&gt;v_4008523074</title>
<path fill="none" stroke="black" d="M1575.26,-1320.7C1563.3,-1311.6 1548.49,-1300.33 1535.64,-1290.55"/>
<polygon fill="black" stroke="black" points="1537.61,-1287.65 1527.53,-1284.38 1533.37,-1293.22 1537.61,-1287.65"/>
</g>
<!-- f_2341157568 -->
<g id="node65" class="node">
<title>f_2341157568</title>
<polygon fill="#d95f02" stroke="black" points="1785,-1285 1597,-1285 1597,-1249 1785,-1249 1785,-1285"/>
<text text-anchor="middle" x="1691" y="-1263.3" font-family="Times,serif" font-size="14.00">fn_decode_ecdh_params</text>
</g>
<!-- f_695258213&#45;&gt;f_2341157568 -->
<g id="edge62" class="edge">
<title>f_695258213&#45;&gt;f_2341157568</title>
<path fill="none" stroke="black" d="M1620.99,-1320.7C1632.81,-1311.8 1647.39,-1300.82 1660.18,-1291.2"/>
<polygon fill="black" stroke="black" points="1662.39,-1293.91 1668.28,-1285.1 1658.18,-1288.32 1662.39,-1293.91"/>
</g>
<!-- f_3542202493 -->
<g id="node67" class="node">
<title>f_3542202493</title>
<polygon fill="#1b9e77" stroke="black" points="1881,-1285 1803,-1285 1803,-1249 1881,-1249 1881,-1285"/>
<text text-anchor="middle" x="1842" y="-1263.3" font-family="Times,serif" font-size="14.00">fn_seq_1</text>
</g>
<!-- f_695258213&#45;&gt;f_3542202493 -->
<g id="edge64" class="edge">
<title>f_695258213&#45;&gt;f_3542202493</title>
<path fill="none" stroke="black" d="M1653.24,-1324.26C1690.37,-1314.75 1740.59,-1301.37 1792.98,-1285.21"/>
<polygon fill="black" stroke="black" points="1794.28,-1288.47 1802.79,-1282.16 1792.2,-1281.79 1794.28,-1288.47"/>
</g>
<!-- f_3876343264 -->
<g id="node50" class="node">
<title>f_3876343264</title>
<polygon fill="#1b9e77" stroke="black" points="1755.5,-1210 1582.5,-1210 1582.5,-1174 1755.5,-1174 1755.5,-1210"/>
<text text-anchor="middle" x="1669" y="-1188.3" font-family="Times,serif" font-size="14.00">fn_protocol_version12</text>
</g>
<!-- f_1822567486&#45;&gt;f_3876343264 -->
<g id="edge46" class="edge">
<title>f_1822567486&#45;&gt;f_3876343264</title>
<path fill="none" stroke="black" d="M1365.6,-1256.35C1384.26,-1253.62 1404.95,-1250.88 1424,-1249 1457.22,-1245.73 1541.75,-1249.6 1574,-1241 1594.98,-1235.41 1616.72,-1224.83 1634.1,-1215.03"/>
<polygon fill="black" stroke="black" points="1635.87,-1218.05 1642.76,-1210.01 1632.35,-1212 1635.87,-1218.05"/>
</g>
<!-- f_1991431053 -->
<g id="node51" class="node">
<title>f_1991431053</title>
<polygon fill="#1b9e77" stroke="black" points="924,-1210 832,-1210 832,-1174 924,-1174 924,-1210"/>
<text text-anchor="middle" x="878" y="-1188.3" font-family="Times,serif" font-size="14.00">fn_random</text>
</g>
<!-- f_1822567486&#45;&gt;f_1991431053 -->
<g id="edge47" class="edge">
<title>f_1822567486&#45;&gt;f_1991431053</title>
<path fill="none" stroke="black" d="M1246.44,-1266.6C1155.81,-1266.74 988.03,-1263.76 933,-1241 920.56,-1235.85 908.97,-1226.71 899.67,-1217.77"/>
<polygon fill="black" stroke="black" points="901.93,-1215.09 892.43,-1210.41 896.94,-1219.99 901.93,-1215.09"/>
</g>
<!-- f_4110719473 -->
<g id="node52" class="node">
<title>f_4110719473</title>
<polygon fill="#1b9e77" stroke="black" points="1052,-1210 942,-1210 942,-1174 1052,-1174 1052,-1210"/>
<text text-anchor="middle" x="997" y="-1188.3" font-family="Times,serif" font-size="14.00">fn_session_id</text>
</g>
<!-- f_1822567486&#45;&gt;f_4110719473 -->
<g id="edge48" class="edge">
<title>f_1822567486&#45;&gt;f_4110719473</title>
<path fill="none" stroke="black" d="M1246.47,-1263.58C1185.02,-1260.43 1093.65,-1253.76 1061,-1241 1046.84,-1235.47 1033.09,-1225.89 1021.99,-1216.74"/>
<polygon fill="black" stroke="black" points="1024.27,-1214.09 1014.41,-1210.22 1019.71,-1219.39 1024.27,-1214.09"/>
</g>
<!-- f_702520053 -->
<g id="node53" class="node">
<title>f_702520053</title>
<polygon fill="#1b9e77" stroke="black" points="1220,-1210 1070,-1210 1070,-1174 1220,-1174 1220,-1210"/>
<text text-anchor="middle" x="1145" y="-1188.3" font-family="Times,serif" font-size="14.00">fn_cipher_suites12</text>
</g>
<!-- f_1822567486&#45;&gt;f_702520053 -->
<g id="edge49" class="edge">
<title>f_1822567486&#45;&gt;f_702520053</title>
<path fill="none" stroke="black" d="M1249.91,-1248.94C1243.12,-1246.47 1236.35,-1243.81 1230,-1241 1213.44,-1233.69 1195.9,-1224.12 1181.08,-1215.45"/>
<polygon fill="black" stroke="black" points="1182.62,-1212.29 1172.24,-1210.2 1179.05,-1218.31 1182.62,-1212.29"/>
</g>
<!-- f_4187719768 -->
<g id="node54" class="node">
<title>f_4187719768</title>
<polygon fill="#1b9e77" stroke="black" points="1373.5,-1210 1238.5,-1210 1238.5,-1174 1373.5,-1174 1373.5,-1210"/>
<text text-anchor="middle" x="1306" y="-1188.3" font-family="Times,serif" font-size="14.00">fn_compressions</text>
</g>
<!-- f_1822567486&#45;&gt;f_4187719768 -->
<g id="edge50" class="edge">
<title>f_1822567486&#45;&gt;f_4187719768</title>
<path fill="none" stroke="black" d="M1306,-1248.7C1306,-1240.25 1306,-1229.87 1306,-1220.37"/>
<polygon fill="black" stroke="black" points="1309.5,-1220.18 1306,-1210.18 1302.5,-1220.18 1309.5,-1220.18"/>
</g>
<!-- f_3158298090 -->
<g id="node55" class="node">
<title>f_3158298090</title>
<polygon fill="#d95f02" stroke="black" points="1564.5,-1210 1391.5,-1210 1391.5,-1174 1564.5,-1174 1564.5,-1210"/>
<text text-anchor="middle" x="1478" y="-1188.3" font-family="Times,serif" font-size="14.00">fn_extensions_append</text>
</g>
<!-- f_1822567486&#45;&gt;f_3158298090 -->
<g id="edge51" class="edge">
<title>f_1822567486&#45;&gt;f_3158298090</title>
<path fill="none" stroke="black" d="M1361.89,-1248.98C1369.05,-1246.47 1376.24,-1243.78 1383,-1241 1401.6,-1233.34 1421.55,-1223.51 1438.35,-1214.75"/>
<polygon fill="black" stroke="black" points="1440.12,-1217.78 1447.33,-1210.01 1436.85,-1211.58 1440.12,-1217.78"/>
</g>
<!-- f_1869610305 -->
<g id="node56" class="node">
<title>f_1869610305</title>
<polygon fill="#d95f02" stroke="black" points="1564.5,-1138 1391.5,-1138 1391.5,-1102 1564.5,-1102 1564.5,-1138"/>
<text text-anchor="middle" x="1478" y="-1116.3" font-family="Times,serif" font-size="14.00">fn_extensions_append</text>
</g>
<!-- f_3158298090&#45;&gt;f_1869610305 -->
<g id="edge52" class="edge">
<title>f_3158298090&#45;&gt;f_1869610305</title>
<path fill="none" stroke="black" d="M1478,-1173.7C1478,-1165.98 1478,-1156.71 1478,-1148.11"/>
<polygon fill="black" stroke="black" points="1481.5,-1148.1 1478,-1138.1 1474.5,-1148.1 1481.5,-1148.1"/>
</g>
<!-- f_1872361897 -->
<g id="node63" class="node">
<title>f_1872361897</title>
<polygon fill="#d95f02" stroke="black" points="1186.5,-1138 1019.5,-1138 1019.5,-1102 1186.5,-1102 1186.5,-1138"/>
<text text-anchor="middle" x="1103" y="-1116.3" font-family="Times,serif" font-size="14.00">fn_renegotiation_info</text>
</g>
<!-- f_3158298090&#45;&gt;f_1872361897 -->
<g id="edge59" class="edge">
<title>f_3158298090&#45;&gt;f_1872361897</title>
<path fill="none" stroke="black" d="M1391.5,-1174.85C1333.32,-1163.99 1256.66,-1149.68 1196.99,-1138.54"/>
<polygon fill="black" stroke="black" points="1197.28,-1135.04 1186.81,-1136.64 1196,-1141.92 1197.28,-1135.04"/>
</g>
<!-- f_3509155427 -->
<g id="node57" class="node">
<title>f_3509155427</title>
<polygon fill="#d95f02" stroke="black" points="1438.5,-1066 1265.5,-1066 1265.5,-1030 1438.5,-1030 1438.5,-1066"/>
<text text-anchor="middle" x="1352" y="-1044.3" font-family="Times,serif" font-size="14.00">fn_extensions_append</text>
</g>
<!-- f_1869610305&#45;&gt;f_3509155427 -->
<g id="edge53" class="edge">
<title>f_1869610305&#45;&gt;f_3509155427</title>
<path fill="none" stroke="black" d="M1447.18,-1101.88C1430.55,-1092.64 1409.84,-1081.13 1391.98,-1071.21"/>
<polygon fill="black" stroke="black" points="1393.38,-1067.99 1382.94,-1066.19 1389.98,-1074.11 1393.38,-1067.99"/>
</g>
<!-- f_1021098470 -->
<g id="node62" class="node">
<title>f_1021098470</title>
<polygon fill="#1b9e77" stroke="black" points="1749.5,-1066 1456.5,-1066 1456.5,-1030 1749.5,-1030 1749.5,-1066"/>
<text text-anchor="middle" x="1603" y="-1044.3" font-family="Times,serif" font-size="14.00">fn_signature_algorithm_cert_extension</text>
</g>
<!-- f_1869610305&#45;&gt;f_1021098470 -->
<g id="edge58" class="edge">
<title>f_1869610305&#45;&gt;f_1021098470</title>
<path fill="none" stroke="black" d="M1508.58,-1101.88C1525.07,-1092.64 1545.62,-1081.13 1563.34,-1071.21"/>
<polygon fill="black" stroke="black" points="1565.29,-1074.13 1572.3,-1066.19 1561.87,-1068.02 1565.29,-1074.13"/>
</g>
<!-- f_1337265068 -->
<g id="node58" class="node">
<title>f_1337265068</title>
<polygon fill="#d95f02" stroke="black" points="1346.5,-994 1173.5,-994 1173.5,-958 1346.5,-958 1346.5,-994"/>
<text text-anchor="middle" x="1260" y="-972.3" font-family="Times,serif" font-size="14.00">fn_extensions_append</text>
</g>
<!-- f_3509155427&#45;&gt;f_1337265068 -->
<g id="edge54" class="edge">
<title>f_3509155427&#45;&gt;f_1337265068</title>
<path fill="none" stroke="black" d="M1329.26,-1029.7C1317.56,-1020.8 1303.14,-1009.82 1290.49,-1000.2"/>
<polygon fill="black" stroke="black" points="1292.56,-997.37 1282.48,-994.1 1288.32,-1002.94 1292.56,-997.37"/>
</g>
<!-- f_3815688673 -->
<g id="node61" class="node">
<title>f_3815688673</title>
<polygon fill="#1b9e77" stroke="black" points="1523.5,-994 1364.5,-994 1364.5,-958 1523.5,-958 1523.5,-994"/>
<text text-anchor="middle" x="1444" y="-972.3" font-family="Times,serif" font-size="14.00">fn_ec_point_formats</text>
</g>
<!-- f_3509155427&#45;&gt;f_3815688673 -->
<g id="edge57" class="edge">
<title>f_3509155427&#45;&gt;f_3815688673</title>
<path fill="none" stroke="black" d="M1374.74,-1029.7C1386.44,-1020.8 1400.86,-1009.82 1413.51,-1000.2"/>
<polygon fill="black" stroke="black" points="1415.68,-1002.94 1421.52,-994.1 1411.44,-997.37 1415.68,-1002.94"/>
</g>
<!-- f_3173618766 -->
<g id="node59" class="node">
<title>f_3173618766</title>
<polygon fill="#1b9e77" stroke="black" points="1219,-919 1069,-919 1069,-883 1219,-883 1219,-919"/>
<text text-anchor="middle" x="1144" y="-897.3" font-family="Times,serif" font-size="14.00">fn_extensions_new</text>
</g>
<!-- f_1337265068&#45;&gt;f_3173618766 -->
<g id="edge55" class="edge">
<title>f_1337265068&#45;&gt;f_3173618766</title>
<path fill="none" stroke="black" d="M1232.8,-957.88C1216.95,-947.91 1196.77,-935.21 1179.66,-924.44"/>
<polygon fill="black" stroke="black" points="1181.35,-921.37 1171.03,-919.01 1177.63,-927.3 1181.35,-921.37"/>
</g>
<!-- f_3407963211 -->
<g id="node60" class="node">
<title>f_3407963211</title>
<polygon fill="#1b9e77" stroke="black" points="1515,-919 1237,-919 1237,-883 1515,-883 1515,-919"/>
<text text-anchor="middle" x="1376" y="-897.3" font-family="Times,serif" font-size="14.00">fn_x25519_support_group_extension</text>
</g>
<!-- f_1337265068&#45;&gt;f_3407963211 -->
<g id="edge56" class="edge">
<title>f_1337265068&#45;&gt;f_3407963211</title>
<path fill="none" stroke="black" d="M1287.2,-957.88C1303.05,-947.91 1323.23,-935.21 1340.34,-924.44"/>
<polygon fill="black" stroke="black" points="1342.37,-927.3 1348.97,-919.01 1338.65,-921.37 1342.37,-927.3"/>
</g>
<!-- f_1872361897&#45;&gt;f_3573054214 -->
<g id="edge60" class="edge">
<title>f_1872361897&#45;&gt;f_3573054214</title>
<path fill="none" stroke="black" d="M1019.41,-1110.13C892.6,-1096.68 652.99,-1071.27 526.33,-1057.84"/>
<polygon fill="black" stroke="black" points="526.6,-1054.35 516.29,-1056.77 525.86,-1061.31 526.6,-1054.35"/>
</g>
<!-- v_883366676 -->
<g id="node66" class="node">
<title>v_883366676</title>
<ellipse fill="#1b9e77" stroke="black" cx="1852" cy="-1192" rx="78.79" ry="18"/>
<text text-anchor="middle" x="1852" y="-1188.3" font-family="Times,serif" font-size="14.00">(0,2)/Vec&lt;u8&gt;</text>
</g>
<!-- f_2341157568&#45;&gt;v_883366676 -->
<g id="edge63" class="edge">
<title>f_2341157568&#45;&gt;v_883366676</title>
<path fill="none" stroke="black" d="M1745.18,-1248.95C1751.93,-1246.46 1758.67,-1243.79 1765,-1241 1782.55,-1233.27 1801.27,-1223.2 1816.83,-1214.28"/>
<polygon fill="black" stroke="black" points="1818.7,-1217.24 1825.59,-1209.19 1815.18,-1211.19 1818.7,-1217.24"/>
</g>
</g>
</svg>
