<?xml version="1.0" encoding="UTF-8" standalone="no"?>
<!DOCTYPE svg PUBLIC "-//W3C//DTD SVG 1.1//EN"
 "http://www.w3.org/Graphics/SVG/1.1/DTD/svg11.dtd">
<!-- Generated by graphviz version 2.48.0 (0)
 -->
<!-- Title: Trace Pages: 1 -->
<svg width="10194pt" height="171pt"
 viewBox="0.00 0.00 10194.00 171.00" xmlns="http://www.w3.org/2000/svg" xmlns:xlink="http://www.w3.org/1999/xlink">
<g id="graph0" class="graph" transform="scale(1 1) rotate(0) translate(4 167)">
<title>Trace</title>
<polygon fill="white" stroke="transparent" points="-4,4 -4,-167 10190,-167 10190,4 -4,4"/>
<g id="clust1" class="cluster">
<title>cluster0</title>
<polygon fill="none" stroke="black" points="8,-80 8,-155 158,-155 158,-80 8,-80"/>
<text text-anchor="middle" x="83" y="-139.8" font-family="Times,serif" font-size="14.00">Step #0 (Agent &#160;0)</text>
</g>
<g id="clust2" class="cluster">
<title>cluster1</title>
<polygon fill="none" stroke="black" points="166,-8 166,-155 3752,-155 3752,-8 166,-8"/>
<text text-anchor="middle" x="1959" y="-139.8" font-family="Times,serif" font-size="14.00">Step #1 (Agent &#160;1)</text>
</g>
<g id="clust3" class="cluster">
<title>cluster2</title>
<polygon fill="none" stroke="black" points="3760,-8 3760,-155 6830,-155 6830,-8 3760,-8"/>
<text text-anchor="middle" x="5295" y="-139.8" font-family="Times,serif" font-size="14.00">Step #2 (Agent &#160;0)</text>
</g>
<g id="clust4" class="cluster">
<title>cluster3</title>
<polygon fill="none" stroke="black" points="6838,-80 6838,-155 7034,-155 7034,-80 6838,-80"/>
<text text-anchor="middle" x="6936" y="-139.8" font-family="Times,serif" font-size="14.00">Step #3 (Agent &#160;0)</text>
</g>
<g id="clust5" class="cluster">
<title>cluster4</title>
<polygon fill="none" stroke="black" points="7042,-8 7042,-155 7454,-155 7454,-8 7042,-8"/>
<text text-anchor="middle" x="7248" y="-139.8" font-family="Times,serif" font-size="14.00">Step #4 (Agent &#160;0)</text>
</g>
<g id="clust6" class="cluster">
<title>cluster5</title>
<polygon fill="none" stroke="black" points="7462,-8 7462,-155 7874,-155 7874,-8 7462,-8"/>
<text text-anchor="middle" x="7668" y="-139.8" font-family="Times,serif" font-size="14.00">Step #5 (Agent &#160;0)</text>
</g>
<g id="clust7" class="cluster">
<title>cluster6</title>
<polygon fill="none" stroke="black" points="7882,-8 7882,-155 8294,-155 8294,-8 7882,-8"/>
<text text-anchor="middle" x="8088" y="-139.8" font-family="Times,serif" font-size="14.00">Step #6 (Agent &#160;0)</text>
</g>
<g id="clust8" class="cluster">
<title>cluster7</title>
<polygon fill="none" stroke="black" points="8302,-8 8302,-155 8714,-155 8714,-8 8302,-8"/>
<text text-anchor="middle" x="8508" y="-139.8" font-family="Times,serif" font-size="14.00">Step #7 (Agent &#160;0)</text>
</g>
<g id="clust9" class="cluster">
<title>cluster8</title>
<polygon fill="none" stroke="black" points="8722,-80 8722,-155 8918,-155 8918,-80 8722,-80"/>
<text text-anchor="middle" x="8820" y="-139.8" font-family="Times,serif" font-size="14.00">Step #8 (Agent &#160;1)</text>
</g>
<g id="clust10" class="cluster">
<title>cluster9</title>
<polygon fill="none" stroke="black" points="8926,-8 8926,-155 9338,-155 9338,-8 8926,-8"/>
<text text-anchor="middle" x="9132" y="-139.8" font-family="Times,serif" font-size="14.00">Step #9 (Agent &#160;1)</text>
</g>
<g id="clust12" class="cluster">
<title>cluster11</title>
<polygon fill="none" stroke="black" points="9346,-8 9346,-155 9758,-155 9758,-8 9346,-8"/>
<text text-anchor="middle" x="9552" y="-139.8" font-family="Times,serif" font-size="14.00">Step #11 (Agent &#160;0)</text>
</g>
<g id="clust13" class="cluster">
<title>cluster12</title>
<polygon fill="none" stroke="black" points="9766,-8 9766,-155 10178,-155 10178,-8 9766,-8"/>
<text text-anchor="middle" x="9972" y="-139.8" font-family="Times,serif" font-size="14.00">Step #12 (Agent &#160;0)</text>
</g>
<g id="node1" class="node">
<title></title>
<ellipse fill="none" stroke="transparent" cx="83" cy="-106" rx="27" ry="18"/>
</g>
<!-- f_1_3789104958 -->
<g id="node2" class="node">
<title>f_1_3789104958</title>
<polygon fill="#d95f02" stroke="black" points="1644.5,-124 1525.5,-124 1525.5,-88 1644.5,-88 1644.5,-124"/>
<text text-anchor="middle" x="1585" y="-102.3" font-family="Times,serif" font-size="14.00">fn_client_hello</text>
</g>
<!-- v_1_739047506 -->
<g id="node3" class="node">
<title>v_1_739047506</title>
<ellipse fill="#1b9e77" stroke="black" cx="411" cy="-34" rx="236.66" ry="18"/>
<text text-anchor="middle" x="411" y="-30.3" font-family="Times,serif" font-size="14.00">[(0, 0)/Some(Handshake(None))]/ProtocolVersion</text>
</g>
<!-- f_1_3789104958&#45;&gt;v_1_739047506 -->
<g id="edge1" class="edge">
<title>f_1_3789104958&#45;&gt;v_1_739047506</title>
<path fill="none" stroke="black" d="M1525.27,-101.84C1377.83,-93.97 984.74,-72.68 657,-52 634.67,-50.59 611.2,-49.05 588,-47.49"/>
<polygon fill="black" stroke="black" points="587.93,-43.97 577.71,-46.79 587.46,-50.96 587.93,-43.97"/>
</g>
<!-- v_1_2805949303 -->
<g id="node4" class="node">
<title>v_1_2805949303</title>
<ellipse fill="#1b9e77" stroke="black" cx="867" cy="-34" rx="201.46" ry="18"/>
<text text-anchor="middle" x="867" y="-30.3" font-family="Times,serif" font-size="14.00">[(0, 0)/Some(Handshake(None))]/Random</text>
</g>
<!-- f_1_3789104958&#45;&gt;v_1_2805949303 -->
<g id="edge2" class="edge">
<title>f_1_3789104958&#45;&gt;v_1_2805949303</title>
<path fill="none" stroke="black" d="M1525.33,-99.18C1412.55,-88.19 1165.34,-64.09 1008.02,-48.75"/>
<polygon fill="black" stroke="black" points="1008.08,-45.24 997.79,-47.75 1007.4,-52.2 1008.08,-45.24"/>
</g>
<!-- v_1_375949288 -->
<g id="node5" class="node">
<title>v_1_375949288</title>
<ellipse fill="#1b9e77" stroke="black" cx="1296" cy="-34" rx="209.86" ry="18"/>
<text text-anchor="middle" x="1296" y="-30.3" font-family="Times,serif" font-size="14.00">[(0, 0)/Some(Handshake(None))]/SessionID</text>
</g>
<!-- f_1_3789104958&#45;&gt;v_1_375949288 -->
<g id="edge3" class="edge">
<title>f_1_3789104958&#45;&gt;v_1_375949288</title>
<path fill="none" stroke="black" d="M1525.47,-90.58C1481.2,-79.86 1420.42,-65.14 1372.53,-53.54"/>
<polygon fill="black" stroke="black" points="1373.06,-50.06 1362.52,-51.11 1371.42,-56.87 1373.06,-50.06"/>
</g>
<!-- v_1_2657500052 -->
<g id="node6" class="node">
<title>v_1_2657500052</title>
<ellipse fill="#1b9e77" stroke="black" cx="1874" cy="-34" rx="350.14" ry="18"/>
<text text-anchor="middle" x="1874" y="-30.3" font-family="Times,serif" font-size="14.00">[(0, 0)/Some(Handshake(None))]/Vec&lt;rustls::msgs::enums::CipherSuite&gt;</text>
</g>
<!-- f_1_3789104958&#45;&gt;v_1_2657500052 -->
<g id="edge4" class="edge">
<title>f_1_3789104958&#45;&gt;v_1_2657500052</title>
<path fill="none" stroke="black" d="M1644.53,-90.58C1688.11,-80.03 1747.68,-65.6 1795.21,-54.09"/>
<polygon fill="black" stroke="black" points="1796.26,-57.43 1805.15,-51.68 1794.61,-50.63 1796.26,-57.43"/>
</g>
<!-- v_1_3216171593 -->
<g id="node7" class="node">
<title>v_1_3216171593</title>
<ellipse fill="#1b9e77" stroke="black" cx="2597" cy="-34" rx="354.74" ry="18"/>
<text text-anchor="middle" x="2597" y="-30.3" font-family="Times,serif" font-size="14.00">[(0, 0)/Some(Handshake(None))]/Vec&lt;rustls::msgs::enums::Compression&gt;</text>
</g>
<!-- f_1_3789104958&#45;&gt;v_1_3216171593 -->
<g id="edge5" class="edge">
<title>f_1_3789104958&#45;&gt;v_1_3216171593</title>
<path fill="none" stroke="black" d="M1644.53,-100.88C1786.75,-91.04 2151.9,-65.79 2386.52,-49.56"/>
<polygon fill="black" stroke="black" points="2386.82,-53.05 2396.55,-48.86 2386.33,-46.06 2386.82,-53.05"/>
</g>
<!-- v_1_2155141135 -->
<g id="node8" class="node">
<title>v_1_2155141135</title>
<ellipse fill="#1b9e77" stroke="black" cx="3357" cy="-34" rx="387.23" ry="18"/>
<text text-anchor="middle" x="3357" y="-30.3" font-family="Times,serif" font-size="14.00">[(0, 0)/Some(Handshake(None))]/Vec&lt;rustls::msgs::handshake::ClientExtension&gt;</text>
</g>
<!-- f_1_3789104958&#45;&gt;v_1_2155141135 -->
<g id="edge6" class="edge">
<title>f_1_3789104958&#45;&gt;v_1_2155141135</title>
<path fill="none" stroke="black" d="M1644.68,-102.8C1836.06,-95.7 2451.61,-72.74 2961,-52 2997.84,-50.5 3036.61,-48.88 3074.89,-47.26"/>
<polygon fill="black" stroke="black" points="3075.3,-50.75 3085.14,-46.83 3075,-43.76 3075.3,-50.75"/>
</g>
<!-- f_2_1628929356 -->
<g id="node9" class="node">
<title>f_2_1628929356</title>
<polygon fill="#d95f02" stroke="black" points="5175.5,-124 5050.5,-124 5050.5,-88 5175.5,-88 5175.5,-124"/>
<text text-anchor="middle" x="5113" y="-102.3" font-family="Times,serif" font-size="14.00">fn_server_hello</text>
</g>
<!-- v_2_1605149261 -->
<g id="node10" class="node">
<title>v_2_1605149261</title>
<ellipse fill="#1b9e77" stroke="black" cx="4005" cy="-34" rx="236.66" ry="18"/>
<text text-anchor="middle" x="4005" y="-30.3" font-family="Times,serif" font-size="14.00">[(1, 0)/Some(Handshake(None))]/ProtocolVersion</text>
</g>
<!-- f_2_1628929356&#45;&gt;v_2_1605149261 -->
<g id="edge7" class="edge">
<title>f_2_1628929356&#45;&gt;v_2_1605149261</title>
<path fill="none" stroke="black" d="M5050.26,-101.31C4908.04,-92.9 4550.23,-71.54 4251,-52 4228.86,-50.55 4205.6,-49 4182.58,-47.43"/>
<polygon fill="black" stroke="black" points="4182.6,-43.93 4172.38,-46.74 4182.12,-50.91 4182.6,-43.93"/>
</g>
<!-- v_2_468117024 -->
<g id="node11" class="node">
<title>v_2_468117024</title>
<ellipse fill="#1b9e77" stroke="black" cx="4461" cy="-34" rx="201.46" ry="18"/>
<text text-anchor="middle" x="4461" y="-30.3" font-family="Times,serif" font-size="14.00">[(1, 0)/Some(Handshake(None))]/Random</text>
</g>
<!-- f_2_1628929356&#45;&gt;v_2_468117024 -->
<g id="edge8" class="edge">
<title>f_2_1628929356&#45;&gt;v_2_468117024</title>
<path fill="none" stroke="black" d="M5050.48,-98.29C4946.08,-87.08 4734,-64.31 4594.74,-49.36"/>
<polygon fill="black" stroke="black" points="4594.74,-45.84 4584.43,-48.25 4593.99,-52.8 4594.74,-45.84"/>
</g>
<!-- v_2_2123587340 -->
<g id="node12" class="node">
<title>v_2_2123587340</title>
<ellipse fill="#1b9e77" stroke="black" cx="4890" cy="-34" rx="209.86" ry="18"/>
<text text-anchor="middle" x="4890" y="-30.3" font-family="Times,serif" font-size="14.00">[(1, 0)/Some(Handshake(None))]/SessionID</text>
</g>
<!-- f_2_1628929356&#45;&gt;v_2_2123587340 -->
<g id="edge9" class="edge">
<title>f_2_1628929356&#45;&gt;v_2_2123587340</title>
<path fill="none" stroke="black" d="M5058.73,-87.97C5026.58,-77.87 4985.72,-65.05 4952.26,-54.54"/>
<polygon fill="black" stroke="black" points="4953.17,-51.16 4942.58,-51.51 4951.08,-57.84 4953.17,-51.16"/>
</g>
<!-- v_2_791851519 -->
<g id="node13" class="node">
<title>v_2_791851519</title>
<ellipse fill="#1b9e77" stroke="black" cx="5337" cy="-34" rx="219.06" ry="18"/>
<text text-anchor="middle" x="5337" y="-30.3" font-family="Times,serif" font-size="14.00">[(1, 0)/Some(Handshake(None))]/CipherSuite</text>
</g>
<!-- f_2_1628929356&#45;&gt;v_2_791851519 -->
<g id="edge10" class="edge">
<title>f_2_1628929356&#45;&gt;v_2_791851519</title>
<path fill="none" stroke="black" d="M5167.51,-87.97C5199.81,-77.87 5240.85,-65.05 5274.46,-54.54"/>
<polygon fill="black" stroke="black" points="5275.68,-57.83 5284.18,-51.51 5273.59,-51.15 5275.68,-57.83"/>
</g>
<!-- v_2_2941540010 -->
<g id="node14" class="node">
<title>v_2_2941540010</title>
<ellipse fill="#1b9e77" stroke="black" cx="5798" cy="-34" rx="223.66" ry="18"/>
<text text-anchor="middle" x="5798" y="-30.3" font-family="Times,serif" font-size="14.00">[(1, 0)/Some(Handshake(None))]/Compression</text>
</g>
<!-- f_2_1628929356&#45;&gt;v_2_2941540010 -->
<g id="edge11" class="edge">
<title>f_2_1628929356&#45;&gt;v_2_2941540010</title>
<path fill="none" stroke="black" d="M5175.61,-98.6C5283.68,-87.56 5507.84,-64.65 5655.56,-49.56"/>
<polygon fill="black" stroke="black" points="5656.03,-53.03 5665.62,-48.53 5655.31,-46.06 5656.03,-53.03"/>
</g>
<!-- v_2_3293854050 -->
<g id="node15" class="node">
<title>v_2_3293854050</title>
<ellipse fill="#1b9e77" stroke="black" cx="6431" cy="-34" rx="391.03" ry="18"/>
<text text-anchor="middle" x="6431" y="-30.3" font-family="Times,serif" font-size="14.00">[(1, 0)/Some(Handshake(None))]/Vec&lt;rustls::msgs::handshake::ServerExtension&gt;</text>
</g>
<!-- f_2_1628929356&#45;&gt;v_2_3293854050 -->
<g id="edge12" class="edge">
<title>f_2_1628929356&#45;&gt;v_2_3293854050</title>
<path fill="none" stroke="black" d="M5175.68,-101.67C5352.5,-92.28 5862.62,-65.19 6175.49,-48.57"/>
<polygon fill="black" stroke="black" points="6175.81,-52.06 6185.61,-48.03 6175.44,-45.07 6175.81,-52.06"/>
</g>
<!-- f_3_2299090549 -->
<g id="node16" class="node">
<title>f_3_2299090549</title>
<polygon fill="#1b9e77" stroke="black" points="7025.5,-124 6846.5,-124 6846.5,-88 7025.5,-88 7025.5,-124"/>
<text text-anchor="middle" x="6936" y="-102.3" font-family="Times,serif" font-size="14.00">fn_change_cipher_spec</text>
</g>
<!-- f_4_710603997 -->
<g id="node17" class="node">
<title>f_4_710603997</title>
<polygon fill="#d95f02" stroke="black" points="7325.5,-124 7170.5,-124 7170.5,-88 7325.5,-88 7325.5,-124"/>
<text text-anchor="middle" x="7248" y="-102.3" font-family="Times,serif" font-size="14.00">fn_application_data</text>
</g>
<!-- v_4_4158461199 -->
<g id="node18" class="node">
<title>v_4_4158461199</title>
<ellipse fill="#1b9e77" stroke="black" cx="7248" cy="-34" rx="198.47" ry="18"/>
<text text-anchor="middle" x="7248" y="-30.3" font-family="Times,serif" font-size="14.00">[(1, 0)/Some(ApplicationData)]/Vec&lt;u8&gt;</text>
</g>
<!-- f_4_710603997&#45;&gt;v_4_4158461199 -->
<g id="edge13" class="edge">
<title>f_4_710603997&#45;&gt;v_4_4158461199</title>
<path fill="none" stroke="black" d="M7248,-87.7C7248,-79.98 7248,-70.71 7248,-62.11"/>
<polygon fill="black" stroke="black" points="7251.5,-62.1 7248,-52.1 7244.5,-62.1 7251.5,-62.1"/>
</g>
<!-- f_5_846433984 -->
<g id="node19" class="node">
<title>f_5_846433984</title>
<polygon fill="#d95f02" stroke="black" points="7745.5,-124 7590.5,-124 7590.5,-88 7745.5,-88 7745.5,-124"/>
<text text-anchor="middle" x="7668" y="-102.3" font-family="Times,serif" font-size="14.00">fn_application_data</text>
</g>
<!-- v_5_1652190555 -->
<g id="node20" class="node">
<title>v_5_1652190555</title>
<ellipse fill="#1b9e77" stroke="black" cx="7668" cy="-34" rx="198.47" ry="18"/>
<text text-anchor="middle" x="7668" y="-30.3" font-family="Times,serif" font-size="14.00">[(1, 1)/Some(ApplicationData)]/Vec&lt;u8&gt;</text>
</g>
<!-- f_5_846433984&#45;&gt;v_5_1652190555 -->
<g id="edge14" class="edge">
<title>f_5_846433984&#45;&gt;v_5_1652190555</title>
<path fill="none" stroke="black" d="M7668,-87.7C7668,-79.98 7668,-70.71 7668,-62.11"/>
<polygon fill="black" stroke="black" points="7671.5,-62.1 7668,-52.1 7664.5,-62.1 7671.5,-62.1"/>
</g>
<!-- f_6_1740602106 -->
<g id="node21" class="node">
<title>f_6_1740602106</title>
<polygon fill="#d95f02" stroke="black" points="8165.5,-124 8010.5,-124 8010.5,-88 8165.5,-88 8165.5,-124"/>
<text text-anchor="middle" x="8088" y="-102.3" font-family="Times,serif" font-size="14.00">fn_application_data</text>
</g>
<!-- v_6_2583957363 -->
<g id="node22" class="node">
<title>v_6_2583957363</title>
<ellipse fill="#1b9e77" stroke="black" cx="8088" cy="-34" rx="198.47" ry="18"/>
<text text-anchor="middle" x="8088" y="-30.3" font-family="Times,serif" font-size="14.00">[(1, 2)/Some(ApplicationData)]/Vec&lt;u8&gt;</text>
</g>
<!-- f_6_1740602106&#45;&gt;v_6_2583957363 -->
<g id="edge15" class="edge">
<title>f_6_1740602106&#45;&gt;v_6_2583957363</title>
<path fill="none" stroke="black" d="M8088,-87.7C8088,-79.98 8088,-70.71 8088,-62.11"/>
<polygon fill="black" stroke="black" points="8091.5,-62.1 8088,-52.1 8084.5,-62.1 8091.5,-62.1"/>
</g>
<!-- f_7_541198665 -->
<g id="node23" class="node">
<title>f_7_541198665</title>
<polygon fill="#d95f02" stroke="black" points="8585.5,-124 8430.5,-124 8430.5,-88 8585.5,-88 8585.5,-124"/>
<text text-anchor="middle" x="8508" y="-102.3" font-family="Times,serif" font-size="14.00">fn_application_data</text>
</g>
<!-- v_7_1831465473 -->
<g id="node24" class="node">
<title>v_7_1831465473</title>
<ellipse fill="#1b9e77" stroke="black" cx="8508" cy="-34" rx="198.47" ry="18"/>
<text text-anchor="middle" x="8508" y="-30.3" font-family="Times,serif" font-size="14.00">[(1, 3)/Some(ApplicationData)]/Vec&lt;u8&gt;</text>
</g>
<!-- f_7_541198665&#45;&gt;v_7_1831465473 -->
<g id="edge16" class="edge">
<title>f_7_541198665&#45;&gt;v_7_1831465473</title>
<path fill="none" stroke="black" d="M8508,-87.7C8508,-79.98 8508,-70.71 8508,-62.11"/>
<polygon fill="black" stroke="black" points="8511.5,-62.1 8508,-52.1 8504.5,-62.1 8511.5,-62.1"/>
</g>
<!-- f_8_3300829352 -->
<g id="node25" class="node">
<title>f_8_3300829352</title>
<polygon fill="#1b9e77" stroke="black" points="8909.5,-124 8730.5,-124 8730.5,-88 8909.5,-88 8909.5,-124"/>
<text text-anchor="middle" x="8820" y="-102.3" font-family="Times,serif" font-size="14.00">fn_change_cipher_spec</text>
</g>
<!-- f_9_3403509757 -->
<g id="node26" class="node">
<title>f_9_3403509757</title>
<polygon fill="#d95f02" stroke="black" points="9209.5,-124 9054.5,-124 9054.5,-88 9209.5,-88 9209.5,-124"/>
<text text-anchor="middle" x="9132" y="-102.3" font-family="Times,serif" font-size="14.00">fn_application_data</text>
</g>
<!-- v_9_4121886206 -->
<g id="node27" class="node">
<title>v_9_4121886206</title>
<ellipse fill="#1b9e77" stroke="black" cx="9132" cy="-34" rx="198.47" ry="18"/>
<text text-anchor="middle" x="9132" y="-30.3" font-family="Times,serif" font-size="14.00">[(0, 0)/Some(ApplicationData)]/Vec&lt;u8&gt;</text>
</g>
<!-- f_9_3403509757&#45;&gt;v_9_4121886206 -->
<g id="edge17" class="edge">
<title>f_9_3403509757&#45;&gt;v_9_4121886206</title>
<path fill="none" stroke="black" d="M9132,-87.7C9132,-79.98 9132,-70.71 9132,-62.11"/>
<polygon fill="black" stroke="black" points="9135.5,-62.1 9132,-52.1 9128.5,-62.1 9135.5,-62.1"/>
</g>
<!-- f_11_3116780921 -->
<g id="node28" class="node">
<title>f_11_3116780921</title>
<polygon fill="#d95f02" stroke="black" points="9629.5,-124 9474.5,-124 9474.5,-88 9629.5,-88 9629.5,-124"/>
<text text-anchor="middle" x="9552" y="-102.3" font-family="Times,serif" font-size="14.00">fn_application_data</text>
</g>
<!-- v_11_3377282280 -->
<g id="node29" class="node">
<title>v_11_3377282280</title>
<ellipse fill="#1b9e77" stroke="black" cx="9552" cy="-34" rx="198.47" ry="18"/>
<text text-anchor="middle" x="9552" y="-30.3" font-family="Times,serif" font-size="14.00">[(1, 4)/Some(ApplicationData)]/Vec&lt;u8&gt;</text>
</g>
<!-- f_11_3116780921&#45;&gt;v_11_3377282280 -->
<g id="edge18" class="edge">
<title>f_11_3116780921&#45;&gt;v_11_3377282280</title>
<path fill="none" stroke="black" d="M9552,-87.7C9552,-79.98 9552,-70.71 9552,-62.11"/>
<polygon fill="black" stroke="black" points="9555.5,-62.1 9552,-52.1 9548.5,-62.1 9555.5,-62.1"/>
</g>
<!-- f_12_2798991978 -->
<g id="node30" class="node">
<title>f_12_2798991978</title>
<polygon fill="#d95f02" stroke="black" points="10049.5,-124 9894.5,-124 9894.5,-88 10049.5,-88 10049.5,-124"/>
<text text-anchor="middle" x="9972" y="-102.3" font-family="Times,serif" font-size="14.00">fn_application_data</text>
</g>
<!-- v_12_2639610042 -->
<g id="node31" class="node">
<title>v_12_2639610042</title>
<ellipse fill="#1b9e77" stroke="black" cx="9972" cy="-34" rx="198.47" ry="18"/>
<text text-anchor="middle" x="9972" y="-30.3" font-family="Times,serif" font-size="14.00">[(1, 5)/Some(ApplicationData)]/Vec&lt;u8&gt;</text>
</g>
<!-- f_12_2798991978&#45;&gt;v_12_2639610042 -->
<g id="edge19" class="edge">
<title>f_12_2798991978&#45;&gt;v_12_2639610042</title>
<path fill="none" stroke="black" d="M9972,-87.7C9972,-79.98 9972,-70.71 9972,-62.11"/>
<polygon fill="black" stroke="black" points="9975.5,-62.1 9972,-52.1 9968.5,-62.1 9975.5,-62.1"/>
</g>
</g>
</svg>
