<?xml version="1.0" encoding="UTF-8" standalone="no"?>
<!DOCTYPE svg PUBLIC "-//W3C//DTD SVG 1.1//EN"
 "http://www.w3.org/Graphics/SVG/1.1/DTD/svg11.dtd">
<!-- Generated by graphviz version 2.48.0 (0)
 -->
<!-- Title: Trace Pages: 1 -->
<svg width="9498pt" height="171pt"
 viewBox="0.00 0.00 9498.00 171.00" xmlns="http://www.w3.org/2000/svg" xmlns:xlink="http://www.w3.org/1999/xlink">
<g id="graph0" class="graph" transform="scale(1 1) rotate(0) translate(4 167)">
<title>Trace</title>
<polygon fill="white" stroke="transparent" points="-4,4 -4,-167 9494,-167 9494,4 -4,4"/>
<g id="clust1" class="cluster">
<title>cluster0</title>
<polygon fill="none" stroke="black" points="8,-80 8,-155 158,-155 158,-80 8,-80"/>
<text text-anchor="middle" x="83" y="-139.8" font-family="Times,serif" font-size="14.00">Step #0 (Agent &#160;0)</text>
</g>
<g id="clust2" class="cluster">
<title>cluster1</title>
<polygon fill="none" stroke="black" points="166,-8 166,-155 3805,-155 3805,-8 166,-8"/>
<text text-anchor="middle" x="1985.5" y="-139.8" font-family="Times,serif" font-size="14.00">Step #1 (Agent &#160;1)</text>
</g>
<g id="clust3" class="cluster">
<title>cluster2</title>
<polygon fill="none" stroke="black" points="3813,-8 3813,-155 6934,-155 6934,-8 3813,-8"/>
<text text-anchor="middle" x="5373.5" y="-139.8" font-family="Times,serif" font-size="14.00">Step #2 (Agent &#160;0)</text>
</g>
<g id="clust4" class="cluster">
<title>cluster3</title>
<polygon fill="none" stroke="black" points="6942,-80 6942,-155 7138,-155 7138,-80 6942,-80"/>
<text text-anchor="middle" x="7040" y="-139.8" font-family="Times,serif" font-size="14.00">Step #3 (Agent &#160;0)</text>
</g>
<g id="clust5" class="cluster">
<title>cluster4</title>
<polygon fill="none" stroke="black" points="7146,-8 7146,-155 7566,-155 7566,-8 7146,-8"/>
<text text-anchor="middle" x="7356" y="-139.8" font-family="Times,serif" font-size="14.00">Step #4 (Agent &#160;0)</text>
</g>
<g id="clust6" class="cluster">
<title>cluster5</title>
<polygon fill="none" stroke="black" points="7574,-8 7574,-155 7994,-155 7994,-8 7574,-8"/>
<text text-anchor="middle" x="7784" y="-139.8" font-family="Times,serif" font-size="14.00">Step #5 (Agent &#160;0)</text>
</g>
<g id="clust7" class="cluster">
<title>cluster6</title>
<polygon fill="none" stroke="black" points="8002,-8 8002,-155 8422,-155 8422,-8 8002,-8"/>
<text text-anchor="middle" x="8212" y="-139.8" font-family="Times,serif" font-size="14.00">Step #6 (Agent &#160;0)</text>
</g>
<g id="clust8" class="cluster">
<title>cluster7</title>
<polygon fill="none" stroke="black" points="8430,-8 8430,-155 8850,-155 8850,-8 8430,-8"/>
<text text-anchor="middle" x="8640" y="-139.8" font-family="Times,serif" font-size="14.00">Step #7 (Agent &#160;0)</text>
</g>
<g id="clust9" class="cluster">
<title>cluster8</title>
<polygon fill="none" stroke="black" points="8858,-80 8858,-155 9054,-155 9054,-80 8858,-80"/>
<text text-anchor="middle" x="8956" y="-139.8" font-family="Times,serif" font-size="14.00">Step #8 (Agent &#160;1)</text>
</g>
<g id="clust10" class="cluster">
<title>cluster9</title>
<polygon fill="none" stroke="black" points="9062,-8 9062,-155 9482,-155 9482,-8 9062,-8"/>
<text text-anchor="middle" x="9272" y="-139.8" font-family="Times,serif" font-size="14.00">Step #9 (Agent &#160;1)</text>
</g>
<g id="node1" class="node">
<title></title>
<ellipse fill="none" stroke="transparent" cx="83" cy="-106" rx="27" ry="18"/>
</g>
<!-- f_1_3983062877 -->
<g id="node2" class="node">
<title>f_1_3983062877</title>
<polygon fill="#d95f02" stroke="black" points="1670.5,-124 1551.5,-124 1551.5,-88 1670.5,-88 1670.5,-124"/>
<text text-anchor="middle" x="1611" y="-102.3" font-family="Times,serif" font-size="14.00">fn_client_hello</text>
</g>
<!-- v_1_849923332 -->
<g id="node3" class="node">
<title>v_1_849923332</title>
<ellipse fill="#1b9e77" stroke="black" cx="415" cy="-34" rx="241.26" ry="18"/>
<text text-anchor="middle" x="415" y="-30.3" font-family="Times,serif" font-size="14.00">[@0:Some(Handshake(None))#0]/ProtocolVersion</text>
</g>
<!-- f_1_3983062877&#45;&gt;v_1_849923332 -->
<g id="edge1" class="edge">
<title>f_1_3983062877&#45;&gt;v_1_849923332</title>
<path fill="none" stroke="black" d="M1551.49,-101.91C1402.27,-94.12 1000.13,-72.78 665,-52 642.3,-50.59 618.44,-49.05 594.85,-47.49"/>
<polygon fill="black" stroke="black" points="594.97,-43.99 584.76,-46.82 594.51,-50.97 594.97,-43.99"/>
</g>
<!-- v_1_1296829712 -->
<g id="node4" class="node">
<title>v_1_1296829712</title>
<ellipse fill="#1b9e77" stroke="black" cx="880" cy="-34" rx="206.06" ry="18"/>
<text text-anchor="middle" x="880" y="-30.3" font-family="Times,serif" font-size="14.00">[@0:Some(Handshake(None))#0]/Random</text>
</g>
<!-- f_1_3983062877&#45;&gt;v_1_1296829712 -->
<g id="edge2" class="edge">
<title>f_1_3983062877&#45;&gt;v_1_1296829712</title>
<path fill="none" stroke="black" d="M1551.49,-99.3C1437.2,-88.36 1184.08,-64.12 1023.34,-48.73"/>
<polygon fill="black" stroke="black" points="1023.65,-45.24 1013.37,-47.77 1022.99,-52.21 1023.65,-45.24"/>
</g>
<!-- v_1_3875534391 -->
<g id="node5" class="node">
<title>v_1_3875534391</title>
<ellipse fill="#1b9e77" stroke="black" cx="1318" cy="-34" rx="213.66" ry="18"/>
<text text-anchor="middle" x="1318" y="-30.3" font-family="Times,serif" font-size="14.00">[@0:Some(Handshake(None))#0]/SessionID</text>
</g>
<!-- f_1_3983062877&#45;&gt;v_1_3875534391 -->
<g id="edge3" class="edge">
<title>f_1_3983062877&#45;&gt;v_1_3875534391</title>
<path fill="none" stroke="black" d="M1551.35,-90.75C1506.35,-80 1444.23,-65.16 1395.4,-53.49"/>
<polygon fill="black" stroke="black" points="1396.04,-50.05 1385.5,-51.13 1394.42,-56.86 1396.04,-50.05"/>
</g>
<!-- v_1_3930401778 -->
<g id="node6" class="node">
<title>v_1_3930401778</title>
<ellipse fill="#1b9e77" stroke="black" cx="1904" cy="-34" rx="354.44" ry="18"/>
<text text-anchor="middle" x="1904" y="-30.3" font-family="Times,serif" font-size="14.00">[@0:Some(Handshake(None))#0]/Vec&lt;rustls::msgs::enums::CipherSuite&gt;</text>
</g>
<!-- f_1_3983062877&#45;&gt;v_1_3930401778 -->
<g id="edge4" class="edge">
<title>f_1_3983062877&#45;&gt;v_1_3930401778</title>
<path fill="none" stroke="black" d="M1670.65,-90.75C1714.95,-80.17 1775.83,-65.62 1824.3,-54.04"/>
<polygon fill="black" stroke="black" points="1825.22,-57.42 1834.13,-51.69 1823.59,-50.61 1825.22,-57.42"/>
</g>
<!-- v_1_4115187158 -->
<g id="node7" class="node">
<title>v_1_4115187158</title>
<ellipse fill="#1b9e77" stroke="black" cx="2636" cy="-34" rx="359.34" ry="18"/>
<text text-anchor="middle" x="2636" y="-30.3" font-family="Times,serif" font-size="14.00">[@0:Some(Handshake(None))#0]/Vec&lt;rustls::msgs::enums::Compression&gt;</text>
</g>
<!-- f_1_3983062877&#45;&gt;v_1_4115187158 -->
<g id="edge5" class="edge">
<title>f_1_3983062877&#45;&gt;v_1_4115187158</title>
<path fill="none" stroke="black" d="M1670.54,-100.93C1814.07,-91.13 2184.86,-65.81 2422.92,-49.55"/>
<polygon fill="black" stroke="black" points="2423.35,-53.03 2433.09,-48.86 2422.87,-46.05 2423.35,-53.03"/>
</g>
<!-- v_1_2857516937 -->
<g id="node8" class="node">
<title>v_1_2857516937</title>
<ellipse fill="#1b9e77" stroke="black" cx="3405" cy="-34" rx="391.83" ry="18"/>
<text text-anchor="middle" x="3405" y="-30.3" font-family="Times,serif" font-size="14.00">[@0:Some(Handshake(None))#0]/Vec&lt;rustls::msgs::handshake::ClientExtension&gt;</text>
</g>
<!-- f_1_3983062877&#45;&gt;v_1_2857516937 -->
<g id="edge6" class="edge">
<title>f_1_3983062877&#45;&gt;v_1_2857516937</title>
<path fill="none" stroke="black" d="M1670.74,-102.82C1863.7,-95.76 2487.71,-72.77 3004,-52 3041.31,-50.5 3080.57,-48.88 3119.33,-47.26"/>
<polygon fill="black" stroke="black" points="3119.86,-50.74 3129.71,-46.83 3119.57,-43.75 3119.86,-50.74"/>
</g>
<!-- f_2_1671764263 -->
<g id="node9" class="node">
<title>f_2_1671764263</title>
<polygon fill="#d95f02" stroke="black" points="5254.5,-124 5129.5,-124 5129.5,-88 5254.5,-88 5254.5,-124"/>
<text text-anchor="middle" x="5192" y="-102.3" font-family="Times,serif" font-size="14.00">fn_server_hello</text>
</g>
<!-- v_2_1945640994 -->
<g id="node10" class="node">
<title>v_2_1945640994</title>
<ellipse fill="#1b9e77" stroke="black" cx="4062" cy="-34" rx="241.26" ry="18"/>
<text text-anchor="middle" x="4062" y="-30.3" font-family="Times,serif" font-size="14.00">[@1:Some(Handshake(None))#0]/ProtocolVersion</text>
</g>
<!-- f_2_1671764263&#45;&gt;v_2_1945640994 -->
<g id="edge7" class="edge">
<title>f_2_1671764263&#45;&gt;v_2_1945640994</title>
<path fill="none" stroke="black" d="M5129.3,-101.39C4985.04,-93.05 4618.44,-71.65 4312,-52 4289.49,-50.56 4265.85,-49 4242.45,-47.44"/>
<polygon fill="black" stroke="black" points="4242.65,-43.94 4232.44,-46.77 4242.19,-50.93 4242.65,-43.94"/>
</g>
<!-- v_2_2415401291 -->
<g id="node11" class="node">
<title>v_2_2415401291</title>
<ellipse fill="#1b9e77" stroke="black" cx="4527" cy="-34" rx="206.06" ry="18"/>
<text text-anchor="middle" x="4527" y="-30.3" font-family="Times,serif" font-size="14.00">[@1:Some(Handshake(None))#0]/Random</text>
</g>
<!-- f_2_1671764263&#45;&gt;v_2_2415401291 -->
<g id="edge8" class="edge">
<title>f_2_1671764263&#45;&gt;v_2_2415401291</title>
<path fill="none" stroke="black" d="M5129.44,-98.41C5023.35,-87.25 4805.81,-64.35 4663.24,-49.34"/>
<polygon fill="black" stroke="black" points="4663.42,-45.84 4653.11,-48.27 4662.69,-52.8 4663.42,-45.84"/>
</g>
<!-- v_2_4221509794 -->
<g id="node12" class="node">
<title>v_2_4221509794</title>
<ellipse fill="#1b9e77" stroke="black" cx="4965" cy="-34" rx="213.66" ry="18"/>
<text text-anchor="middle" x="4965" y="-30.3" font-family="Times,serif" font-size="14.00">[@1:Some(Handshake(None))#0]/SessionID</text>
</g>
<!-- f_2_1671764263&#45;&gt;v_2_4221509794 -->
<g id="edge9" class="edge">
<title>f_2_1671764263&#45;&gt;v_2_4221509794</title>
<path fill="none" stroke="black" d="M5136.76,-87.97C5104.03,-77.87 5062.44,-65.05 5028.38,-54.54"/>
<polygon fill="black" stroke="black" points="5029.11,-51.11 5018.53,-51.51 5027.05,-57.8 5029.11,-51.11"/>
</g>
<!-- v_2_2787568589 -->
<g id="node13" class="node">
<title>v_2_2787568589</title>
<ellipse fill="#1b9e77" stroke="black" cx="5420" cy="-34" rx="223.66" ry="18"/>
<text text-anchor="middle" x="5420" y="-30.3" font-family="Times,serif" font-size="14.00">[@1:Some(Handshake(None))#0]/CipherSuite</text>
</g>
<!-- f_2_1671764263&#45;&gt;v_2_2787568589 -->
<g id="edge10" class="edge">
<title>f_2_1671764263&#45;&gt;v_2_2787568589</title>
<path fill="none" stroke="black" d="M5247.48,-87.97C5280.36,-77.87 5322.13,-65.05 5356.34,-54.54"/>
<polygon fill="black" stroke="black" points="5357.7,-57.79 5366.24,-51.51 5355.65,-51.1 5357.7,-57.79"/>
</g>
<!-- v_2_2835028720 -->
<g id="node14" class="node">
<title>v_2_2835028720</title>
<ellipse fill="#1b9e77" stroke="black" cx="5890" cy="-34" rx="228.26" ry="18"/>
<text text-anchor="middle" x="5890" y="-30.3" font-family="Times,serif" font-size="14.00">[@1:Some(Handshake(None))#0]/Compression</text>
</g>
<!-- f_2_1671764263&#45;&gt;v_2_2835028720 -->
<g id="edge11" class="edge">
<title>f_2_1671764263&#45;&gt;v_2_2835028720</title>
<path fill="none" stroke="black" d="M5254.56,-98.73C5364.14,-87.74 5593.49,-64.74 5744.58,-49.58"/>
<polygon fill="black" stroke="black" points="5745.27,-53.03 5754.87,-48.55 5744.57,-46.07 5745.27,-53.03"/>
</g>
<!-- v_2_3466515781 -->
<g id="node15" class="node">
<title>v_2_3466515781</title>
<ellipse fill="#1b9e77" stroke="black" cx="6531" cy="-34" rx="395.33" ry="18"/>
<text text-anchor="middle" x="6531" y="-30.3" font-family="Times,serif" font-size="14.00">[@1:Some(Handshake(None))#0]/Vec&lt;rustls::msgs::handshake::ServerExtension&gt;</text>
</g>
<!-- f_2_1671764263&#45;&gt;v_2_3466515781 -->
<g id="edge12" class="edge">
<title>f_2_1671764263&#45;&gt;v_2_3466515781</title>
<path fill="none" stroke="black" d="M5254.79,-101.72C5433.68,-92.37 5953.59,-65.19 6271.93,-48.54"/>
<polygon fill="black" stroke="black" points="6272.42,-52.02 6282.23,-48.01 6272.06,-45.03 6272.42,-52.02"/>
</g>
<!-- f_3_2440371006 -->
<g id="node16" class="node">
<title>f_3_2440371006</title>
<polygon fill="#1b9e77" stroke="black" points="7129.5,-124 6950.5,-124 6950.5,-88 7129.5,-88 7129.5,-124"/>
<text text-anchor="middle" x="7040" y="-102.3" font-family="Times,serif" font-size="14.00">fn_change_cipher_spec</text>
</g>
<!-- f_4_2229428978 -->
<g id="node17" class="node">
<title>f_4_2229428978</title>
<polygon fill="#d95f02" stroke="black" points="7433.5,-124 7278.5,-124 7278.5,-88 7433.5,-88 7433.5,-124"/>
<text text-anchor="middle" x="7356" y="-102.3" font-family="Times,serif" font-size="14.00">fn_application_data</text>
</g>
<!-- v_4_3078324850 -->
<g id="node18" class="node">
<title>v_4_3078324850</title>
<ellipse fill="#1b9e77" stroke="black" cx="7356" cy="-34" rx="202.26" ry="18"/>
<text text-anchor="middle" x="7356" y="-30.3" font-family="Times,serif" font-size="14.00">[@1:Some(ApplicationData)#0]/Vec&lt;u8&gt;</text>
</g>
<!-- f_4_2229428978&#45;&gt;v_4_3078324850 -->
<g id="edge13" class="edge">
<title>f_4_2229428978&#45;&gt;v_4_3078324850</title>
<path fill="none" stroke="black" d="M7356,-87.7C7356,-79.98 7356,-70.71 7356,-62.11"/>
<polygon fill="black" stroke="black" points="7359.5,-62.1 7356,-52.1 7352.5,-62.1 7359.5,-62.1"/>
</g>
<!-- f_5_598807583 -->
<g id="node19" class="node">
<title>f_5_598807583</title>
<polygon fill="#d95f02" stroke="black" points="7861.5,-124 7706.5,-124 7706.5,-88 7861.5,-88 7861.5,-124"/>
<text text-anchor="middle" x="7784" y="-102.3" font-family="Times,serif" font-size="14.00">fn_application_data</text>
</g>
<!-- v_5_1605220149 -->
<g id="node20" class="node">
<title>v_5_1605220149</title>
<ellipse fill="#1b9e77" stroke="black" cx="7784" cy="-34" rx="202.26" ry="18"/>
<text text-anchor="middle" x="7784" y="-30.3" font-family="Times,serif" font-size="14.00">[@1:Some(ApplicationData)#1]/Vec&lt;u8&gt;</text>
</g>
<!-- f_5_598807583&#45;&gt;v_5_1605220149 -->
<g id="edge14" class="edge">
<title>f_5_598807583&#45;&gt;v_5_1605220149</title>
<path fill="none" stroke="black" d="M7784,-87.7C7784,-79.98 7784,-70.71 7784,-62.11"/>
<polygon fill="black" stroke="black" points="7787.5,-62.1 7784,-52.1 7780.5,-62.1 7787.5,-62.1"/>
</g>
<!-- f_6_2104560997 -->
<g id="node21" class="node">
<title>f_6_2104560997</title>
<polygon fill="#d95f02" stroke="black" points="8289.5,-124 8134.5,-124 8134.5,-88 8289.5,-88 8289.5,-124"/>
<text text-anchor="middle" x="8212" y="-102.3" font-family="Times,serif" font-size="14.00">fn_application_data</text>
</g>
<!-- v_6_38643184 -->
<g id="node22" class="node">
<title>v_6_38643184</title>
<ellipse fill="#1b9e77" stroke="black" cx="8212" cy="-34" rx="202.26" ry="18"/>
<text text-anchor="middle" x="8212" y="-30.3" font-family="Times,serif" font-size="14.00">[@1:Some(ApplicationData)#2]/Vec&lt;u8&gt;</text>
</g>
<!-- f_6_2104560997&#45;&gt;v_6_38643184 -->
<g id="edge15" class="edge">
<title>f_6_2104560997&#45;&gt;v_6_38643184</title>
<path fill="none" stroke="black" d="M8212,-87.7C8212,-79.98 8212,-70.71 8212,-62.11"/>
<polygon fill="black" stroke="black" points="8215.5,-62.1 8212,-52.1 8208.5,-62.1 8215.5,-62.1"/>
</g>
<!-- f_7_357369010 -->
<g id="node23" class="node">
<title>f_7_357369010</title>
<polygon fill="#d95f02" stroke="black" points="8717.5,-124 8562.5,-124 8562.5,-88 8717.5,-88 8717.5,-124"/>
<text text-anchor="middle" x="8640" y="-102.3" font-family="Times,serif" font-size="14.00">fn_application_data</text>
</g>
<!-- v_7_988121819 -->
<g id="node24" class="node">
<title>v_7_988121819</title>
<ellipse fill="#1b9e77" stroke="black" cx="8640" cy="-34" rx="202.26" ry="18"/>
<text text-anchor="middle" x="8640" y="-30.3" font-family="Times,serif" font-size="14.00">[@1:Some(ApplicationData)#3]/Vec&lt;u8&gt;</text>
</g>
<!-- f_7_357369010&#45;&gt;v_7_988121819 -->
<g id="edge16" class="edge">
<title>f_7_357369010&#45;&gt;v_7_988121819</title>
<path fill="none" stroke="black" d="M8640,-87.7C8640,-79.98 8640,-70.71 8640,-62.11"/>
<polygon fill="black" stroke="black" points="8643.5,-62.1 8640,-52.1 8636.5,-62.1 8643.5,-62.1"/>
</g>
<!-- f_8_4240901799 -->
<g id="node25" class="node">
<title>f_8_4240901799</title>
<polygon fill="#1b9e77" stroke="black" points="9045.5,-124 8866.5,-124 8866.5,-88 9045.5,-88 9045.5,-124"/>
<text text-anchor="middle" x="8956" y="-102.3" font-family="Times,serif" font-size="14.00">fn_change_cipher_spec</text>
</g>
<!-- f_9_1761001687 -->
<g id="node26" class="node">
<title>f_9_1761001687</title>
<polygon fill="#d95f02" stroke="black" points="9349.5,-124 9194.5,-124 9194.5,-88 9349.5,-88 9349.5,-124"/>
<text text-anchor="middle" x="9272" y="-102.3" font-family="Times,serif" font-size="14.00">fn_application_data</text>
</g>
<!-- v_9_790584544 -->
<g id="node27" class="node">
<title>v_9_790584544</title>
<ellipse fill="#1b9e77" stroke="black" cx="9272" cy="-34" rx="202.26" ry="18"/>
<text text-anchor="middle" x="9272" y="-30.3" font-family="Times,serif" font-size="14.00">[@0:Some(ApplicationData)#0]/Vec&lt;u8&gt;</text>
</g>
<!-- f_9_1761001687&#45;&gt;v_9_790584544 -->
<g id="edge17" class="edge">
<title>f_9_1761001687&#45;&gt;v_9_790584544</title>
<path fill="none" stroke="black" d="M9272,-87.7C9272,-79.98 9272,-70.71 9272,-62.11"/>
<polygon fill="black" stroke="black" points="9275.5,-62.1 9272,-52.1 9268.5,-62.1 9275.5,-62.1"/>
</g>
</g>
</svg>
