<?xml version="1.0" encoding="UTF-8" standalone="no"?>
<!DOCTYPE svg PUBLIC "-//W3C//DTD SVG 1.1//EN"
 "http://www.w3.org/Graphics/SVG/1.1/DTD/svg11.dtd">
<!-- Generated by graphviz version 2.47.3 (0)
 -->
<!-- Pages: 1 -->
<svg width="1118pt" height="603pt"
 viewBox="0.00 0.00 1118.00 603.00" xmlns="http://www.w3.org/2000/svg" xmlns:xlink="http://www.w3.org/1999/xlink">
<g id="graph0" class="graph" transform="scale(1 1) rotate(0) translate(4 599)">
<polygon fill="white" stroke="transparent" points="-4,4 -4,-599 1114,-599 1114,4 -4,4"/>
<g id="clust1" class="cluster">
<title>cluster0</title>
<polygon fill="none" stroke="black" points="8,-8 8,-587 1102,-587 1102,-8 8,-8"/>
<text text-anchor="middle" x="555" y="-571.8" font-family="Times,serif" font-size="14.00">Step #0 (Agent &#160;1)</text>
</g>
<!-- f_0_2542840284 -->
<g id="node1" class="node">
<title>f_0_2542840284</title>
<polygon fill="#d95f02" stroke="black" points="577.5,-556 458.5,-556 458.5,-520 577.5,-520 577.5,-556"/>
<text text-anchor="middle" x="518" y="-534.3" font-family="Times,serif" font-size="14.00">fn_client_hello</text>
</g>
<!-- f_0_1440163378 -->
<g id="node2" class="node">
<title>f_0_1440163378</title>
<polygon fill="#1b9e77" stroke="black" points="189.5,-484 16.5,-484 16.5,-448 189.5,-448 189.5,-484"/>
<text text-anchor="middle" x="103" y="-462.3" font-family="Times,serif" font-size="14.00">fn_protocol_version12</text>
</g>
<!-- f_0_2542840284&#45;&gt;f_0_1440163378 -->
<g id="edge1" class="edge">
<title>f_0_2542840284&#45;&gt;f_0_1440163378</title>
<path fill="none" stroke="black" d="M458.29,-527.27C396.31,-517.13 296.25,-500.64 199.55,-484.08"/>
<polygon fill="black" stroke="black" points="200.05,-480.62 189.6,-482.38 198.86,-487.52 200.05,-480.62"/>
</g>
<!-- f_0_2473114621 -->
<g id="node3" class="node">
<title>f_0_2473114621</title>
<polygon fill="#1b9e77" stroke="black" points="336,-484 208,-484 208,-448 336,-448 336,-484"/>
<text text-anchor="middle" x="272" y="-462.3" font-family="Times,serif" font-size="14.00">fn_new_random</text>
</g>
<!-- f_0_2542840284&#45;&gt;f_0_2473114621 -->
<g id="edge2" class="edge">
<title>f_0_2542840284&#45;&gt;f_0_2473114621</title>
<path fill="none" stroke="black" d="M458.45,-520.05C423.21,-510.03 378.39,-497.27 341.53,-486.79"/>
<polygon fill="black" stroke="black" points="342.43,-483.4 331.85,-484.03 340.51,-490.13 342.43,-483.4"/>
</g>
<!-- f_0_900114767 -->
<g id="node4" class="node">
<title>f_0_900114767</title>
<polygon fill="#1b9e77" stroke="black" points="500,-484 354,-484 354,-448 500,-448 500,-484"/>
<text text-anchor="middle" x="427" y="-462.3" font-family="Times,serif" font-size="14.00">fn_new_session_id</text>
</g>
<!-- f_0_2542840284&#45;&gt;f_0_900114767 -->
<g id="edge3" class="edge">
<title>f_0_2542840284&#45;&gt;f_0_900114767</title>
<path fill="none" stroke="black" d="M495.51,-519.7C484.04,-510.88 469.94,-500.03 457.52,-490.47"/>
<polygon fill="black" stroke="black" points="459.3,-487.43 449.24,-484.1 455.03,-492.98 459.3,-487.43"/>
</g>
<!-- f_0_1020611272 -->
<g id="node5" class="node">
<title>f_0_1020611272</title>
<polygon fill="#d95f02" stroke="black" points="702,-484 518,-484 518,-448 702,-448 702,-484"/>
<text text-anchor="middle" x="610" y="-462.3" font-family="Times,serif" font-size="14.00">fn_append_cipher_suite</text>
</g>
<!-- f_0_2542840284&#45;&gt;f_0_1020611272 -->
<g id="edge4" class="edge">
<title>f_0_2542840284&#45;&gt;f_0_1020611272</title>
<path fill="none" stroke="black" d="M540.74,-519.7C552.44,-510.8 566.86,-499.82 579.51,-490.2"/>
<polygon fill="black" stroke="black" points="581.68,-492.94 587.52,-484.1 577.44,-487.37 581.68,-492.94"/>
</g>
<!-- f_0_2576358518 -->
<g id="node8" class="node">
<title>f_0_2576358518</title>
<polygon fill="#1b9e77" stroke="black" points="855.5,-484 720.5,-484 720.5,-448 855.5,-448 855.5,-484"/>
<text text-anchor="middle" x="788" y="-462.3" font-family="Times,serif" font-size="14.00">fn_compressions</text>
</g>
<!-- f_0_2542840284&#45;&gt;f_0_2576358518 -->
<g id="edge7" class="edge">
<title>f_0_2542840284&#45;&gt;f_0_2576358518</title>
<path fill="none" stroke="black" d="M577.59,-521.55C617.35,-511.24 669.97,-497.6 712.64,-486.54"/>
<polygon fill="black" stroke="black" points="713.62,-489.9 722.42,-484 711.86,-483.12 713.62,-489.9"/>
</g>
<!-- f_0_4067177937 -->
<g id="node9" class="node">
<title>f_0_4067177937</title>
<polygon fill="#d95f02" stroke="black" points="1094,-484 874,-484 874,-448 1094,-448 1094,-484"/>
<text text-anchor="middle" x="984" y="-462.3" font-family="Times,serif" font-size="14.00">fn_client_extensions_append</text>
</g>
<!-- f_0_2542840284&#45;&gt;f_0_4067177937 -->
<g id="edge8" class="edge">
<title>f_0_2542840284&#45;&gt;f_0_4067177937</title>
<path fill="none" stroke="black" d="M577.97,-527.99C649.95,-517.18 772.41,-498.78 864.06,-485.02"/>
<polygon fill="black" stroke="black" points="864.59,-488.48 873.96,-483.53 863.55,-481.55 864.59,-488.48"/>
</g>
<!-- f_0_1479695787 -->
<g id="node6" class="node">
<title>f_0_1479695787</title>
<polygon fill="#1b9e77" stroke="black" points="382,-412 214,-412 214,-376 382,-376 382,-412"/>
<text text-anchor="middle" x="298" y="-390.3" font-family="Times,serif" font-size="14.00">fn_new_cipher_suites</text>
</g>
<!-- f_0_1020611272&#45;&gt;f_0_1479695787 -->
<g id="edge5" class="edge">
<title>f_0_1020611272&#45;&gt;f_0_1479695787</title>
<path fill="none" stroke="black" d="M534.08,-447.97C488.69,-437.78 430.9,-424.82 383.86,-414.26"/>
<polygon fill="black" stroke="black" points="384.52,-410.82 373.99,-412.05 382.99,-417.65 384.52,-410.82"/>
</g>
<!-- f_0_1349999959 -->
<g id="node7" class="node">
<title>f_0_1349999959</title>
<polygon fill="#1b9e77" stroke="black" points="543.5,-412 400.5,-412 400.5,-376 543.5,-376 543.5,-412"/>
<text text-anchor="middle" x="472" y="-390.3" font-family="Times,serif" font-size="14.00">fn_cipher_suite12</text>
</g>
<!-- f_0_1020611272&#45;&gt;f_0_1349999959 -->
<g id="edge6" class="edge">
<title>f_0_1020611272&#45;&gt;f_0_1349999959</title>
<path fill="none" stroke="black" d="M576.24,-447.88C557.78,-438.51 534.72,-426.81 514.98,-416.8"/>
<polygon fill="black" stroke="black" points="516.39,-413.59 505.89,-412.19 513.22,-419.83 516.39,-413.59"/>
</g>
<!-- f_0_4277609805 -->
<g id="node10" class="node">
<title>f_0_4277609805</title>
<polygon fill="#d95f02" stroke="black" points="782,-412 562,-412 562,-376 782,-376 782,-412"/>
<text text-anchor="middle" x="672" y="-390.3" font-family="Times,serif" font-size="14.00">fn_client_extensions_append</text>
</g>
<!-- f_0_4067177937&#45;&gt;f_0_4277609805 -->
<g id="edge9" class="edge">
<title>f_0_4067177937&#45;&gt;f_0_4277609805</title>
<path fill="none" stroke="black" d="M908.08,-447.97C862.69,-437.78 804.9,-424.82 757.86,-414.26"/>
<polygon fill="black" stroke="black" points="758.52,-410.82 747.99,-412.05 756.99,-417.65 758.52,-410.82"/>
</g>
<!-- f_0_3542644756 -->
<g id="node22" class="node">
<title>f_0_3542644756</title>
<polygon fill="#1b9e77" stroke="black" points="1093.5,-412 800.5,-412 800.5,-376 1093.5,-376 1093.5,-412"/>
<text text-anchor="middle" x="947" y="-390.3" font-family="Times,serif" font-size="14.00">fn_signature_algorithm_cert_extension</text>
</g>
<!-- f_0_4067177937&#45;&gt;f_0_3542644756 -->
<g id="edge21" class="edge">
<title>f_0_4067177937&#45;&gt;f_0_3542644756</title>
<path fill="none" stroke="black" d="M974.85,-447.7C970.6,-439.64 965.44,-429.89 960.73,-420.98"/>
<polygon fill="black" stroke="black" points="963.81,-419.31 956.04,-412.1 957.62,-422.58 963.81,-419.31"/>
</g>
<!-- f_0_1869832231 -->
<g id="node11" class="node">
<title>f_0_1869832231</title>
<polygon fill="#d95f02" stroke="black" points="657,-340 437,-340 437,-304 657,-304 657,-340"/>
<text text-anchor="middle" x="547" y="-318.3" font-family="Times,serif" font-size="14.00">fn_client_extensions_append</text>
</g>
<!-- f_0_4277609805&#45;&gt;f_0_1869832231 -->
<g id="edge10" class="edge">
<title>f_0_4277609805&#45;&gt;f_0_1869832231</title>
<path fill="none" stroke="black" d="M641.42,-375.88C624.93,-366.64 604.38,-355.13 586.66,-345.21"/>
<polygon fill="black" stroke="black" points="588.13,-342.02 577.7,-340.19 584.71,-348.13 588.13,-342.02"/>
</g>
<!-- f_0_877469914 -->
<g id="node20" class="node">
<title>f_0_877469914</title>
<polygon fill="#d95f02" stroke="black" points="918.5,-340 675.5,-340 675.5,-304 918.5,-304 918.5,-340"/>
<text text-anchor="middle" x="797" y="-318.3" font-family="Times,serif" font-size="14.00">fn_renegotiation_info_extension</text>
</g>
<!-- f_0_4277609805&#45;&gt;f_0_877469914 -->
<g id="edge19" class="edge">
<title>f_0_4277609805&#45;&gt;f_0_877469914</title>
<path fill="none" stroke="black" d="M702.58,-375.88C719.07,-366.64 739.62,-355.13 757.34,-345.21"/>
<polygon fill="black" stroke="black" points="759.29,-348.13 766.3,-340.19 755.87,-342.02 759.29,-348.13"/>
</g>
<!-- f_0_3666070555 -->
<g id="node12" class="node">
<title>f_0_3666070555</title>
<polygon fill="#d95f02" stroke="black" points="419,-268 199,-268 199,-232 419,-232 419,-268"/>
<text text-anchor="middle" x="309" y="-246.3" font-family="Times,serif" font-size="14.00">fn_client_extensions_append</text>
</g>
<!-- f_0_1869832231&#45;&gt;f_0_3666070555 -->
<g id="edge11" class="edge">
<title>f_0_1869832231&#45;&gt;f_0_3666070555</title>
<path fill="none" stroke="black" d="M489.08,-303.97C455.25,-294.01 412.38,-281.41 376.96,-270.99"/>
<polygon fill="black" stroke="black" points="377.76,-267.57 367.18,-268.11 375.78,-274.29 377.76,-267.57"/>
</g>
<!-- f_0_2637953112 -->
<g id="node19" class="node">
<title>f_0_2637953112</title>
<polygon fill="#1b9e77" stroke="black" points="685,-268 437,-268 437,-232 685,-232 685,-268"/>
<text text-anchor="middle" x="561" y="-246.3" font-family="Times,serif" font-size="14.00">fn_signed_certificate_timestamp</text>
</g>
<!-- f_0_1869832231&#45;&gt;f_0_2637953112 -->
<g id="edge18" class="edge">
<title>f_0_1869832231&#45;&gt;f_0_2637953112</title>
<path fill="none" stroke="black" d="M550.46,-303.7C552,-295.98 553.86,-286.71 555.58,-278.11"/>
<polygon fill="black" stroke="black" points="559.05,-278.6 557.58,-268.1 552.19,-277.22 559.05,-278.6"/>
</g>
<!-- f_0_3129254261 -->
<g id="node13" class="node">
<title>f_0_3129254261</title>
<polygon fill="#d95f02" stroke="black" points="410,-196 190,-196 190,-160 410,-160 410,-196"/>
<text text-anchor="middle" x="300" y="-174.3" font-family="Times,serif" font-size="14.00">fn_client_extensions_append</text>
</g>
<!-- f_0_3666070555&#45;&gt;f_0_3129254261 -->
<g id="edge12" class="edge">
<title>f_0_3666070555&#45;&gt;f_0_3129254261</title>
<path fill="none" stroke="black" d="M306.78,-231.7C305.78,-223.98 304.59,-214.71 303.49,-206.11"/>
<polygon fill="black" stroke="black" points="306.95,-205.58 302.2,-196.1 300,-206.47 306.95,-205.58"/>
</g>
<!-- f_0_332331005 -->
<g id="node18" class="node">
<title>f_0_332331005</title>
<polygon fill="#1b9e77" stroke="black" points="663.5,-196 428.5,-196 428.5,-160 663.5,-160 663.5,-196"/>
<text text-anchor="middle" x="546" y="-174.3" font-family="Times,serif" font-size="14.00">fn_ec_point_formats_extension</text>
</g>
<!-- f_0_3666070555&#45;&gt;f_0_332331005 -->
<g id="edge17" class="edge">
<title>f_0_3666070555&#45;&gt;f_0_332331005</title>
<path fill="none" stroke="black" d="M366.67,-231.97C400.36,-222.01 443.05,-209.41 478.33,-198.99"/>
<polygon fill="black" stroke="black" points="479.47,-202.3 488.07,-196.11 477.49,-195.59 479.47,-202.3"/>
</g>
<!-- f_0_1840248489 -->
<g id="node14" class="node">
<title>f_0_1840248489</title>
<polygon fill="#d95f02" stroke="black" points="393,-124 173,-124 173,-88 393,-88 393,-124"/>
<text text-anchor="middle" x="283" y="-102.3" font-family="Times,serif" font-size="14.00">fn_client_extensions_append</text>
</g>
<!-- f_0_3129254261&#45;&gt;f_0_1840248489 -->
<g id="edge13" class="edge">
<title>f_0_3129254261&#45;&gt;f_0_1840248489</title>
<path fill="none" stroke="black" d="M295.8,-159.7C293.9,-151.9 291.62,-142.51 289.52,-133.83"/>
<polygon fill="black" stroke="black" points="292.92,-133 287.15,-124.1 286.11,-134.65 292.92,-133"/>
</g>
<!-- f_0_120639377 -->
<g id="node17" class="node">
<title>f_0_120639377</title>
<polygon fill="#1b9e77" stroke="black" points="669,-124 411,-124 411,-88 669,-88 669,-124"/>
<text text-anchor="middle" x="540" y="-102.3" font-family="Times,serif" font-size="14.00">fn_signature_algorithm_extension</text>
</g>
<!-- f_0_3129254261&#45;&gt;f_0_120639377 -->
<g id="edge16" class="edge">
<title>f_0_3129254261&#45;&gt;f_0_120639377</title>
<path fill="none" stroke="black" d="M358.4,-159.97C392.52,-150.01 435.75,-137.41 471.47,-126.99"/>
<polygon fill="black" stroke="black" points="472.71,-130.27 481.33,-124.11 470.75,-123.55 472.71,-130.27"/>
</g>
<!-- f_0_1605716579 -->
<g id="node15" class="node">
<title>f_0_1605716579</title>
<polygon fill="#1b9e77" stroke="black" points="247.5,-52 50.5,-52 50.5,-16 247.5,-16 247.5,-52"/>
<text text-anchor="middle" x="149" y="-30.3" font-family="Times,serif" font-size="14.00">fn_client_extensions_new</text>
</g>
<!-- f_0_1840248489&#45;&gt;f_0_1605716579 -->
<g id="edge14" class="edge">
<title>f_0_1840248489&#45;&gt;f_0_1605716579</title>
<path fill="none" stroke="black" d="M250.22,-87.88C232.37,-78.55 210.1,-66.92 191,-56.94"/>
<polygon fill="black" stroke="black" points="192.39,-53.72 181.91,-52.19 189.15,-59.92 192.39,-53.72"/>
</g>
<!-- f_0_1745483139 -->
<g id="node16" class="node">
<title>f_0_1745483139</title>
<polygon fill="#1b9e77" stroke="black" points="564.5,-52 265.5,-52 265.5,-16 564.5,-16 564.5,-52"/>
<text text-anchor="middle" x="415" y="-30.3" font-family="Times,serif" font-size="14.00">fn_secp384r1_support_group_extension</text>
</g>
<!-- f_0_1840248489&#45;&gt;f_0_1745483139 -->
<g id="edge15" class="edge">
<title>f_0_1840248489&#45;&gt;f_0_1745483139</title>
<path fill="none" stroke="black" d="M315.29,-87.88C332.87,-78.55 354.81,-66.92 373.63,-56.94"/>
<polygon fill="black" stroke="black" points="375.39,-59.97 382.59,-52.19 372.11,-53.78 375.39,-59.97"/>
</g>
<!-- f_0_3729272954 -->
<g id="node21" class="node">
<title>f_0_3729272954</title>
<polygon fill="#1b9e77" stroke="black" points="876.5,-268 717.5,-268 717.5,-232 876.5,-232 876.5,-268"/>
<text text-anchor="middle" x="797" y="-246.3" font-family="Times,serif" font-size="14.00">fn_empty_bytes_vec</text>
</g>
<!-- f_0_877469914&#45;&gt;f_0_3729272954 -->
<g id="edge20" class="edge">
<title>f_0_877469914&#45;&gt;f_0_3729272954</title>
<path fill="none" stroke="black" d="M797,-303.7C797,-295.98 797,-286.71 797,-278.11"/>
<polygon fill="black" stroke="black" points="800.5,-278.1 797,-268.1 793.5,-278.1 800.5,-278.1"/>
</g>
</g>
</svg>
