<?xml version="1.0" encoding="UTF-8" standalone="no"?>
<!DOCTYPE svg PUBLIC "-//W3C//DTD SVG 1.1//EN"
 "http://www.w3.org/Graphics/SVG/1.1/DTD/svg11.dtd">
<!-- Generated by graphviz version 2.48.0 (0)
 -->
<!-- Title: Trace Pages: 1 -->
<svg width="11518pt" height="171pt"
 viewBox="0.00 0.00 11518.00 171.00" xmlns="http://www.w3.org/2000/svg" xmlns:xlink="http://www.w3.org/1999/xlink">
<g id="graph0" class="graph" transform="scale(1 1) rotate(0) translate(4 167)">
<title>Trace</title>
<polygon fill="white" stroke="transparent" points="-4,4 -4,-167 11514,-167 11514,4 -4,4"/>
<g id="clust1" class="cluster">
<title>cluster0</title>
<polygon fill="none" stroke="black" points="8,-80 8,-155 158,-155 158,-80 8,-80"/>
<text text-anchor="middle" x="83" y="-139.8" font-family="Times,serif" font-size="14.00">Step #0 (Agent &#160;0)</text>
</g>
<g id="clust2" class="cluster">
<title>cluster1</title>
<polygon fill="none" stroke="black" points="166,-8 166,-155 3805,-155 3805,-8 166,-8"/>
<text text-anchor="middle" x="1985.5" y="-139.8" font-family="Times,serif" font-size="14.00">Step #1 (Agent &#160;1)</text>
</g>
<g id="clust3" class="cluster">
<title>cluster2</title>
<polygon fill="none" stroke="black" points="3813,-8 3813,-155 6934,-155 6934,-8 3813,-8"/>
<text text-anchor="middle" x="5373.5" y="-139.8" font-family="Times,serif" font-size="14.00">Step #2 (Agent &#160;0)</text>
</g>
<g id="clust4" class="cluster">
<title>cluster3</title>
<polygon fill="none" stroke="black" points="6942,-8 6942,-155 7566,-155 7566,-8 6942,-8"/>
<text text-anchor="middle" x="7254" y="-139.8" font-family="Times,serif" font-size="14.00">Step #3 (Agent &#160;0)</text>
</g>
<g id="clust5" class="cluster">
<title>cluster4</title>
<polygon fill="none" stroke="black" points="7574,-8 7574,-155 8216,-155 8216,-8 7574,-8"/>
<text text-anchor="middle" x="7895" y="-139.8" font-family="Times,serif" font-size="14.00">Step #4 (Agent &#160;0)</text>
</g>
<g id="clust6" class="cluster">
<title>cluster5</title>
<polygon fill="none" stroke="black" points="8224,-80 8224,-155 8406,-155 8406,-80 8224,-80"/>
<text text-anchor="middle" x="8315" y="-139.8" font-family="Times,serif" font-size="14.00">Step #5 (Agent &#160;0)</text>
</g>
<g id="clust7" class="cluster">
<title>cluster6</title>
<polygon fill="none" stroke="black" points="8414,-8 8414,-155 9050,-155 9050,-8 8414,-8"/>
<text text-anchor="middle" x="8732" y="-139.8" font-family="Times,serif" font-size="14.00">Step #6 (Agent &#160;1)</text>
</g>
<g id="clust8" class="cluster">
<title>cluster7</title>
<polygon fill="none" stroke="black" points="9058,-80 9058,-155 9254,-155 9254,-80 9058,-80"/>
<text text-anchor="middle" x="9156" y="-139.8" font-family="Times,serif" font-size="14.00">Step #7 (Agent &#160;1)</text>
</g>
<g id="clust9" class="cluster">
<title>cluster8</title>
<polygon fill="none" stroke="black" points="9262,-8 9262,-155 9766,-155 9766,-8 9262,-8"/>
<text text-anchor="middle" x="9514" y="-139.8" font-family="Times,serif" font-size="14.00">Step #8 (Agent &#160;1)</text>
</g>
<g id="clust10" class="cluster">
<title>cluster9</title>
<polygon fill="none" stroke="black" points="9774,-8 9774,-155 10786,-155 10786,-8 9774,-8"/>
<text text-anchor="middle" x="10280" y="-139.8" font-family="Times,serif" font-size="14.00">Step #9 (Agent &#160;0)</text>
</g>
<g id="clust11" class="cluster">
<title>cluster10</title>
<polygon fill="none" stroke="black" points="10794,-80 10794,-155 10990,-155 10990,-80 10794,-80"/>
<text text-anchor="middle" x="10892" y="-139.8" font-family="Times,serif" font-size="14.00">Step #10 (Agent &#160;0)</text>
</g>
<g id="clust12" class="cluster">
<title>cluster11</title>
<polygon fill="none" stroke="black" points="10998,-8 10998,-155 11502,-155 11502,-8 10998,-8"/>
<text text-anchor="middle" x="11250" y="-139.8" font-family="Times,serif" font-size="14.00">Step #11 (Agent &#160;0)</text>
</g>
<g id="node1" class="node">
<title></title>
<ellipse fill="none" stroke="transparent" cx="83" cy="-106" rx="27" ry="18"/>
</g>
<!-- f_1_1475981140 -->
<g id="node2" class="node">
<title>f_1_1475981140</title>
<polygon fill="#d95f02" stroke="black" points="1670.5,-124 1551.5,-124 1551.5,-88 1670.5,-88 1670.5,-124"/>
<text text-anchor="middle" x="1611" y="-102.3" font-family="Times,serif" font-size="14.00">fn_client_hello</text>
</g>
<!-- v_1_500304531 -->
<g id="node3" class="node">
<title>v_1_500304531</title>
<ellipse fill="#1b9e77" stroke="black" cx="415" cy="-34" rx="241.26" ry="18"/>
<text text-anchor="middle" x="415" y="-30.3" font-family="Times,serif" font-size="14.00">[@0:Some(Handshake(None))#0]/ProtocolVersion</text>
</g>
<!-- f_1_1475981140&#45;&gt;v_1_500304531 -->
<g id="edge1" class="edge">
<title>f_1_1475981140&#45;&gt;v_1_500304531</title>
<path fill="none" stroke="black" d="M1551.49,-101.91C1402.27,-94.12 1000.13,-72.78 665,-52 642.3,-50.59 618.44,-49.05 594.85,-47.49"/>
<polygon fill="black" stroke="black" points="594.97,-43.99 584.76,-46.82 594.51,-50.97 594.97,-43.99"/>
</g>
<!-- v_1_967089083 -->
<g id="node4" class="node">
<title>v_1_967089083</title>
<ellipse fill="#1b9e77" stroke="black" cx="880" cy="-34" rx="206.06" ry="18"/>
<text text-anchor="middle" x="880" y="-30.3" font-family="Times,serif" font-size="14.00">[@0:Some(Handshake(None))#0]/Random</text>
</g>
<!-- f_1_1475981140&#45;&gt;v_1_967089083 -->
<g id="edge2" class="edge">
<title>f_1_1475981140&#45;&gt;v_1_967089083</title>
<path fill="none" stroke="black" d="M1551.49,-99.3C1437.2,-88.36 1184.08,-64.12 1023.34,-48.73"/>
<polygon fill="black" stroke="black" points="1023.65,-45.24 1013.37,-47.77 1022.99,-52.21 1023.65,-45.24"/>
</g>
<!-- v_1_3588350305 -->
<g id="node5" class="node">
<title>v_1_3588350305</title>
<ellipse fill="#1b9e77" stroke="black" cx="1318" cy="-34" rx="213.66" ry="18"/>
<text text-anchor="middle" x="1318" y="-30.3" font-family="Times,serif" font-size="14.00">[@0:Some(Handshake(None))#0]/SessionID</text>
</g>
<!-- f_1_1475981140&#45;&gt;v_1_3588350305 -->
<g id="edge3" class="edge">
<title>f_1_1475981140&#45;&gt;v_1_3588350305</title>
<path fill="none" stroke="black" d="M1551.35,-90.75C1506.35,-80 1444.23,-65.16 1395.4,-53.49"/>
<polygon fill="black" stroke="black" points="1396.04,-50.05 1385.5,-51.13 1394.42,-56.86 1396.04,-50.05"/>
</g>
<!-- v_1_1794925697 -->
<g id="node6" class="node">
<title>v_1_1794925697</title>
<ellipse fill="#1b9e77" stroke="black" cx="1904" cy="-34" rx="354.44" ry="18"/>
<text text-anchor="middle" x="1904" y="-30.3" font-family="Times,serif" font-size="14.00">[@0:Some(Handshake(None))#0]/Vec&lt;rustls::msgs::enums::CipherSuite&gt;</text>
</g>
<!-- f_1_1475981140&#45;&gt;v_1_1794925697 -->
<g id="edge4" class="edge">
<title>f_1_1475981140&#45;&gt;v_1_1794925697</title>
<path fill="none" stroke="black" d="M1670.65,-90.75C1714.95,-80.17 1775.83,-65.62 1824.3,-54.04"/>
<polygon fill="black" stroke="black" points="1825.22,-57.42 1834.13,-51.69 1823.59,-50.61 1825.22,-57.42"/>
</g>
<!-- v_1_1637012360 -->
<g id="node7" class="node">
<title>v_1_1637012360</title>
<ellipse fill="#1b9e77" stroke="black" cx="2636" cy="-34" rx="359.34" ry="18"/>
<text text-anchor="middle" x="2636" y="-30.3" font-family="Times,serif" font-size="14.00">[@0:Some(Handshake(None))#0]/Vec&lt;rustls::msgs::enums::Compression&gt;</text>
</g>
<!-- f_1_1475981140&#45;&gt;v_1_1637012360 -->
<g id="edge5" class="edge">
<title>f_1_1475981140&#45;&gt;v_1_1637012360</title>
<path fill="none" stroke="black" d="M1670.54,-100.93C1814.07,-91.13 2184.86,-65.81 2422.92,-49.55"/>
<polygon fill="black" stroke="black" points="2423.35,-53.03 2433.09,-48.86 2422.87,-46.05 2423.35,-53.03"/>
</g>
<!-- v_1_2680200184 -->
<g id="node8" class="node">
<title>v_1_2680200184</title>
<ellipse fill="#1b9e77" stroke="black" cx="3405" cy="-34" rx="391.83" ry="18"/>
<text text-anchor="middle" x="3405" y="-30.3" font-family="Times,serif" font-size="14.00">[@0:Some(Handshake(None))#0]/Vec&lt;rustls::msgs::handshake::ClientExtension&gt;</text>
</g>
<!-- f_1_1475981140&#45;&gt;v_1_2680200184 -->
<g id="edge6" class="edge">
<title>f_1_1475981140&#45;&gt;v_1_2680200184</title>
<path fill="none" stroke="black" d="M1670.74,-102.82C1863.7,-95.76 2487.71,-72.77 3004,-52 3041.31,-50.5 3080.57,-48.88 3119.33,-47.26"/>
<polygon fill="black" stroke="black" points="3119.86,-50.74 3129.71,-46.83 3119.57,-43.75 3119.86,-50.74"/>
</g>
<!-- f_2_732923473 -->
<g id="node9" class="node">
<title>f_2_732923473</title>
<polygon fill="#d95f02" stroke="black" points="5254.5,-124 5129.5,-124 5129.5,-88 5254.5,-88 5254.5,-124"/>
<text text-anchor="middle" x="5192" y="-102.3" font-family="Times,serif" font-size="14.00">fn_server_hello</text>
</g>
<!-- v_2_3539957390 -->
<g id="node10" class="node">
<title>v_2_3539957390</title>
<ellipse fill="#1b9e77" stroke="black" cx="4062" cy="-34" rx="241.26" ry="18"/>
<text text-anchor="middle" x="4062" y="-30.3" font-family="Times,serif" font-size="14.00">[@1:Some(Handshake(None))#0]/ProtocolVersion</text>
</g>
<!-- f_2_732923473&#45;&gt;v_2_3539957390 -->
<g id="edge7" class="edge">
<title>f_2_732923473&#45;&gt;v_2_3539957390</title>
<path fill="none" stroke="black" d="M5129.3,-101.39C4985.04,-93.05 4618.44,-71.65 4312,-52 4289.49,-50.56 4265.85,-49 4242.45,-47.44"/>
<polygon fill="black" stroke="black" points="4242.65,-43.94 4232.44,-46.77 4242.19,-50.93 4242.65,-43.94"/>
</g>
<!-- v_2_66735986 -->
<g id="node11" class="node">
<title>v_2_66735986</title>
<ellipse fill="#1b9e77" stroke="black" cx="4527" cy="-34" rx="206.06" ry="18"/>
<text text-anchor="middle" x="4527" y="-30.3" font-family="Times,serif" font-size="14.00">[@1:Some(Handshake(None))#0]/Random</text>
</g>
<!-- f_2_732923473&#45;&gt;v_2_66735986 -->
<g id="edge8" class="edge">
<title>f_2_732923473&#45;&gt;v_2_66735986</title>
<path fill="none" stroke="black" d="M5129.44,-98.41C5023.35,-87.25 4805.81,-64.35 4663.24,-49.34"/>
<polygon fill="black" stroke="black" points="4663.42,-45.84 4653.11,-48.27 4662.69,-52.8 4663.42,-45.84"/>
</g>
<!-- v_2_2955094433 -->
<g id="node12" class="node">
<title>v_2_2955094433</title>
<ellipse fill="#1b9e77" stroke="black" cx="4965" cy="-34" rx="213.66" ry="18"/>
<text text-anchor="middle" x="4965" y="-30.3" font-family="Times,serif" font-size="14.00">[@1:Some(Handshake(None))#0]/SessionID</text>
</g>
<!-- f_2_732923473&#45;&gt;v_2_2955094433 -->
<g id="edge9" class="edge">
<title>f_2_732923473&#45;&gt;v_2_2955094433</title>
<path fill="none" stroke="black" d="M5136.76,-87.97C5104.03,-77.87 5062.44,-65.05 5028.38,-54.54"/>
<polygon fill="black" stroke="black" points="5029.11,-51.11 5018.53,-51.51 5027.05,-57.8 5029.11,-51.11"/>
</g>
<!-- v_2_2240362805 -->
<g id="node13" class="node">
<title>v_2_2240362805</title>
<ellipse fill="#1b9e77" stroke="black" cx="5420" cy="-34" rx="223.66" ry="18"/>
<text text-anchor="middle" x="5420" y="-30.3" font-family="Times,serif" font-size="14.00">[@1:Some(Handshake(None))#0]/CipherSuite</text>
</g>
<!-- f_2_732923473&#45;&gt;v_2_2240362805 -->
<g id="edge10" class="edge">
<title>f_2_732923473&#45;&gt;v_2_2240362805</title>
<path fill="none" stroke="black" d="M5247.48,-87.97C5280.36,-77.87 5322.13,-65.05 5356.34,-54.54"/>
<polygon fill="black" stroke="black" points="5357.7,-57.79 5366.24,-51.51 5355.65,-51.1 5357.7,-57.79"/>
</g>
<!-- v_2_598129499 -->
<g id="node14" class="node">
<title>v_2_598129499</title>
<ellipse fill="#1b9e77" stroke="black" cx="5890" cy="-34" rx="228.26" ry="18"/>
<text text-anchor="middle" x="5890" y="-30.3" font-family="Times,serif" font-size="14.00">[@1:Some(Handshake(None))#0]/Compression</text>
</g>
<!-- f_2_732923473&#45;&gt;v_2_598129499 -->
<g id="edge11" class="edge">
<title>f_2_732923473&#45;&gt;v_2_598129499</title>
<path fill="none" stroke="black" d="M5254.56,-98.73C5364.14,-87.74 5593.49,-64.74 5744.58,-49.58"/>
<polygon fill="black" stroke="black" points="5745.27,-53.03 5754.87,-48.55 5744.57,-46.07 5745.27,-53.03"/>
</g>
<!-- v_2_1407579246 -->
<g id="node15" class="node">
<title>v_2_1407579246</title>
<ellipse fill="#1b9e77" stroke="black" cx="6531" cy="-34" rx="395.33" ry="18"/>
<text text-anchor="middle" x="6531" y="-30.3" font-family="Times,serif" font-size="14.00">[@1:Some(Handshake(None))#0]/Vec&lt;rustls::msgs::handshake::ServerExtension&gt;</text>
</g>
<!-- f_2_732923473&#45;&gt;v_2_1407579246 -->
<g id="edge12" class="edge">
<title>f_2_732923473&#45;&gt;v_2_1407579246</title>
<path fill="none" stroke="black" d="M5254.79,-101.72C5433.68,-92.37 5953.59,-65.19 6271.93,-48.54"/>
<polygon fill="black" stroke="black" points="6272.42,-52.02 6282.23,-48.01 6272.06,-45.03 6272.42,-52.02"/>
</g>
<!-- f_3_482925732 -->
<g id="node16" class="node">
<title>f_3_482925732</title>
<polygon fill="#d95f02" stroke="black" points="7309,-124 7199,-124 7199,-88 7309,-88 7309,-124"/>
<text text-anchor="middle" x="7254" y="-102.3" font-family="Times,serif" font-size="14.00">fn_certificate</text>
</g>
<!-- v_3_3016780925 -->
<g id="node17" class="node">
<title>v_3_3016780925</title>
<ellipse fill="#1b9e77" stroke="black" cx="7254" cy="-34" rx="303.55" ry="18"/>
<text text-anchor="middle" x="7254" y="-30.3" font-family="Times,serif" font-size="14.00">[@1:Some(Handshake(None))#0]/Vec&lt;rustls::key::Certificate&gt;</text>
</g>
<!-- f_3_482925732&#45;&gt;v_3_3016780925 -->
<g id="edge13" class="edge">
<title>f_3_482925732&#45;&gt;v_3_3016780925</title>
<path fill="none" stroke="black" d="M7254,-87.7C7254,-79.98 7254,-70.71 7254,-62.11"/>
<polygon fill="black" stroke="black" points="7257.5,-62.1 7254,-52.1 7250.5,-62.1 7257.5,-62.1"/>
</g>
<!-- f_4_2706407155 -->
<g id="node18" class="node">
<title>f_4_2706407155</title>
<polygon fill="#d95f02" stroke="black" points="7989.5,-124 7800.5,-124 7800.5,-88 7989.5,-88 7989.5,-124"/>
<text text-anchor="middle" x="7895" y="-102.3" font-family="Times,serif" font-size="14.00">fn_server_key_exchange</text>
</g>
<!-- v_4_296476119 -->
<g id="node19" class="node">
<title>v_4_296476119</title>
<ellipse fill="#1b9e77" stroke="black" cx="7895" cy="-34" rx="313.04" ry="18"/>
<text text-anchor="middle" x="7895" y="-30.3" font-family="Times,serif" font-size="14.00">[@1:Some(Handshake(Some(ServerKeyExchange)))#0]/Vec&lt;u8&gt;</text>
</g>
<!-- f_4_2706407155&#45;&gt;v_4_296476119 -->
<g id="edge14" class="edge">
<title>f_4_2706407155&#45;&gt;v_4_296476119</title>
<path fill="none" stroke="black" d="M7895,-87.7C7895,-79.98 7895,-70.71 7895,-62.11"/>
<polygon fill="black" stroke="black" points="7898.5,-62.1 7895,-52.1 7891.5,-62.1 7898.5,-62.1"/>
</g>
<!-- f_5_3711886189 -->
<g id="node20" class="node">
<title>f_5_3711886189</title>
<polygon fill="#1b9e77" stroke="black" points="8398,-124 8232,-124 8232,-88 8398,-88 8398,-124"/>
<text text-anchor="middle" x="8315" y="-102.3" font-family="Times,serif" font-size="14.00">fn_server_hello_done</text>
</g>
<!-- f_6_2583085209 -->
<g id="node21" class="node">
<title>f_6_2583085209</title>
<polygon fill="#d95f02" stroke="black" points="8823.5,-124 8640.5,-124 8640.5,-88 8823.5,-88 8823.5,-124"/>
<text text-anchor="middle" x="8732" y="-102.3" font-family="Times,serif" font-size="14.00">fn_client_key_exchange</text>
</g>
<!-- v_6_3201048879 -->
<g id="node22" class="node">
<title>v_6_3201048879</title>
<ellipse fill="#1b9e77" stroke="black" cx="8732" cy="-34" rx="310.04" ry="18"/>
<text text-anchor="middle" x="8732" y="-30.3" font-family="Times,serif" font-size="14.00">[@0:Some(Handshake(Some(ClientKeyExchange)))#0]/Vec&lt;u8&gt;</text>
</g>
<!-- f_6_2583085209&#45;&gt;v_6_3201048879 -->
<g id="edge15" class="edge">
<title>f_6_2583085209&#45;&gt;v_6_3201048879</title>
<path fill="none" stroke="black" d="M8732,-87.7C8732,-79.98 8732,-70.71 8732,-62.11"/>
<polygon fill="black" stroke="black" points="8735.5,-62.1 8732,-52.1 8728.5,-62.1 8735.5,-62.1"/>
</g>
<!-- f_7_1202605172 -->
<g id="node23" class="node">
<title>f_7_1202605172</title>
<polygon fill="#1b9e77" stroke="black" points="9245.5,-124 9066.5,-124 9066.5,-88 9245.5,-88 9245.5,-124"/>
<text text-anchor="middle" x="9156" y="-102.3" font-family="Times,serif" font-size="14.00">fn_change_cipher_spec</text>
</g>
<!-- f_8_2538028347 -->
<g id="node24" class="node">
<title>f_8_2538028347</title>
<polygon fill="#d95f02" stroke="black" points="9593,-124 9435,-124 9435,-88 9593,-88 9593,-124"/>
<text text-anchor="middle" x="9514" y="-102.3" font-family="Times,serif" font-size="14.00">fn_opaque_message</text>
</g>
<!-- v_8_3861977460 -->
<g id="node25" class="node">
<title>v_8_3861977460</title>
<ellipse fill="#1b9e77" stroke="black" cx="9514" cy="-34" rx="244.26" ry="18"/>
<text text-anchor="middle" x="9514" y="-30.3" font-family="Times,serif" font-size="14.00">[@0:Some(Handshake(None))#0]/OpaqueMessage</text>
</g>
<!-- f_8_2538028347&#45;&gt;v_8_3861977460 -->
<g id="edge16" class="edge">
<title>f_8_2538028347&#45;&gt;v_8_3861977460</title>
<path fill="none" stroke="black" d="M9514,-87.7C9514,-79.98 9514,-70.71 9514,-62.11"/>
<polygon fill="black" stroke="black" points="9517.5,-62.1 9514,-52.1 9510.5,-62.1 9517.5,-62.1"/>
</g>
<!-- f_9_561450218 -->
<g id="node26" class="node">
<title>f_9_561450218</title>
<polygon fill="#d95f02" stroke="black" points="10306.5,-124 10133.5,-124 10133.5,-88 10306.5,-88 10306.5,-124"/>
<text text-anchor="middle" x="10220" y="-102.3" font-family="Times,serif" font-size="14.00">fn_new_session_ticket</text>
</g>
<!-- v_9_1578000913 -->
<g id="node27" class="node">
<title>v_9_1578000913</title>
<ellipse fill="#1b9e77" stroke="black" cx="9967" cy="-34" rx="185.47" ry="18"/>
<text text-anchor="middle" x="9967" y="-30.3" font-family="Times,serif" font-size="14.00">[@1:Some(Handshake(None))#0]/u64</text>
</g>
<!-- f_9_561450218&#45;&gt;v_9_1578000913 -->
<g id="edge17" class="edge">
<title>f_9_561450218&#45;&gt;v_9_1578000913</title>
<path fill="none" stroke="black" d="M10158.43,-87.97C10121.24,-77.68 10073.77,-64.54 10035.41,-53.93"/>
<polygon fill="black" stroke="black" points="10035.93,-50.44 10025.36,-51.15 10034.06,-57.19 10035.93,-50.44"/>
</g>
<!-- v_9_3340896432 -->
<g id="node28" class="node">
<title>v_9_3340896432</title>
<ellipse fill="#1b9e77" stroke="black" cx="10474" cy="-34" rx="304.35" ry="18"/>
<text text-anchor="middle" x="10474" y="-30.3" font-family="Times,serif" font-size="14.00">[@1:Some(Handshake(Some(NewSessionTicket)))#0]/Vec&lt;u8&gt;</text>
</g>
<!-- f_9_561450218&#45;&gt;v_9_3340896432 -->
<g id="edge18" class="edge">
<title>f_9_561450218&#45;&gt;v_9_3340896432</title>
<path fill="none" stroke="black" d="M10281.81,-87.97C10318.48,-77.86 10365.09,-65.02 10403.22,-54.51"/>
<polygon fill="black" stroke="black" points="10404.52,-57.78 10413.23,-51.75 10402.66,-51.03 10404.52,-57.78"/>
</g>
<!-- f_10_3607696264 -->
<g id="node29" class="node">
<title>f_10_3607696264</title>
<polygon fill="#1b9e77" stroke="black" points="10981.5,-124 10802.5,-124 10802.5,-88 10981.5,-88 10981.5,-124"/>
<text text-anchor="middle" x="10892" y="-102.3" font-family="Times,serif" font-size="14.00">fn_change_cipher_spec</text>
</g>
<!-- f_11_1303287065 -->
<g id="node30" class="node">
<title>f_11_1303287065</title>
<polygon fill="#d95f02" stroke="black" points="11329,-124 11171,-124 11171,-88 11329,-88 11329,-124"/>
<text text-anchor="middle" x="11250" y="-102.3" font-family="Times,serif" font-size="14.00">fn_opaque_message</text>
</g>
<!-- v_11_337588786 -->
<g id="node31" class="node">
<title>v_11_337588786</title>
<ellipse fill="#1b9e77" stroke="black" cx="11250" cy="-34" rx="244.26" ry="18"/>
<text text-anchor="middle" x="11250" y="-30.3" font-family="Times,serif" font-size="14.00">[@1:Some(Handshake(None))#0]/OpaqueMessage</text>
</g>
<!-- f_11_1303287065&#45;&gt;v_11_337588786 -->
<g id="edge19" class="edge">
<title>f_11_1303287065&#45;&gt;v_11_337588786</title>
<path fill="none" stroke="black" d="M11250,-87.7C11250,-79.98 11250,-70.71 11250,-62.11"/>
<polygon fill="black" stroke="black" points="11253.5,-62.1 11250,-52.1 11246.5,-62.1 11253.5,-62.1"/>
</g>
</g>
</svg>
